<svg width="69" height="68" viewBox="0 0 69 68" fill="none" xmlns="http://www.w3.org/2000/svg">
<g filter="url(#filter0_d_2108_1099)">
<rect x="15.7207" y="11" width="37.7208" height="37.7208" rx="3" fill="#3D3D3D" shape-rendering="crispEdges"/>
<path d="M26.7207 38.8604V32.8604M26.7207 32.8604C27.8253 32.8604 28.7207 31.9649 28.7207 30.8604V28.8604C28.7207 27.7558 27.8253 26.8604 26.7207 26.8604M26.7207 32.8604C25.6161 32.8604 24.7207 31.9649 24.7207 30.8604V28.8604C24.7207 27.7558 25.6161 26.8604 26.7207 26.8604M34.7207 38.8604V31.8604M34.7207 22.8604V20.8604M34.7207 22.8604C35.8253 22.8604 36.7207 23.7558 36.7207 24.8604V26.8604C36.7207 27.9649 35.8253 28.8604 34.7207 28.8604C33.6161 28.8604 32.7207 27.9649 32.7207 26.8604V24.8604C32.7207 23.7558 33.6161 22.8604 34.7207 22.8604ZM26.7207 26.8604L26.7207 20.8604M42.7207 27.8604V20.8604M42.7207 38.8604V36.8604M42.7207 36.8604C43.8253 36.8604 44.7207 35.9649 44.7207 34.8604V32.8604C44.7207 31.7558 43.8253 30.8604 42.7207 30.8604C41.6161 30.8604 40.7207 31.7558 40.7207 32.8604V34.8604C40.7207 35.9649 41.6161 36.8604 42.7207 36.8604Z" stroke="#888888" stroke-linecap="round"/>
</g>
<defs>
<filter id="filter0_d_2108_1099" x="0.720703" y="0" width="67.7207" height="67.7208" filterUnits="userSpaceOnUse" color-interpolation-filters="sRGB">
<feFlood flood-opacity="0" result="BackgroundImageFix"/>
<feColorMatrix in="SourceAlpha" type="matrix" values="0 0 0 0 0 0 0 0 0 0 0 0 0 0 0 0 0 0 127 0" result="hardAlpha"/>
<feOffset dy="4"/>
<feGaussianBlur stdDeviation="7.5"/>
<feComposite in2="hardAlpha" operator="out"/>
<feColorMatrix type="matrix" values="0 0 0 0 0.183333 0 0 0 0 0.183333 0 0 0 0 0.183333 0 0 0 0.25 0"/>
<feBlend mode="normal" in2="BackgroundImageFix" result="effect1_dropShadow_2108_1099"/>
<feBlend mode="normal" in="SourceGraphic" in2="effect1_dropShadow_2108_1099" result="shape"/>
</filter>
</defs>
</svg>
