<svg width="68" height="68" viewBox="0 0 68 68" fill="none" xmlns="http://www.w3.org/2000/svg">
<g filter="url(#filter0_d_2108_1149)">
<rect x="15" y="11" width="37.7208" height="37.7208" rx="3" fill="#3D3D3D" shape-rendering="crispEdges"/>
<path d="M34.8604 19.8604V23.8604C34.8604 26.0695 36.6512 27.8604 38.8604 27.8604L42.8604 27.8604M24.8604 23.8604L24.8604 35.8604C24.8604 38.0695 26.6512 39.8604 28.8604 39.8604H38.8604C41.0695 39.8604 42.8604 38.0695 42.8604 35.8604V29.5172C42.8604 28.4563 42.4389 27.4389 41.6888 26.6888L36.0319 21.0319C35.2818 20.2818 34.2644 19.8604 33.2035 19.8604L28.8604 19.8604C26.6512 19.8604 24.8604 21.6512 24.8604 23.8604Z" stroke="#888888" stroke-linejoin="round"/>
<path d="M28.2969 35.8604V31.5654H29.6885C30.2158 31.5654 30.5596 31.5869 30.7197 31.6299C30.9658 31.6943 31.1719 31.835 31.3379 32.0518C31.5039 32.2666 31.5869 32.5449 31.5869 32.8867C31.5869 33.1504 31.5391 33.3721 31.4434 33.5518C31.3477 33.7314 31.2256 33.873 31.0771 33.9766C30.9307 34.0781 30.7812 34.1455 30.6289 34.1787C30.4219 34.2197 30.1221 34.2402 29.7295 34.2402H29.1641V35.8604H28.2969ZM29.1641 32.292V33.5107H29.6387C29.9805 33.5107 30.209 33.4883 30.3242 33.4434C30.4395 33.3984 30.5293 33.3281 30.5938 33.2324C30.6602 33.1367 30.6934 33.0254 30.6934 32.8984C30.6934 32.7422 30.6475 32.6133 30.5557 32.5117C30.4639 32.4102 30.3477 32.3467 30.207 32.3213C30.1035 32.3018 29.8955 32.292 29.583 32.292H29.1641Z" fill="#888888"/>
<path d="M32.2959 31.5654H33.8809C34.2383 31.5654 34.5107 31.5928 34.6982 31.6475C34.9502 31.7217 35.166 31.8535 35.3457 32.043C35.5254 32.2324 35.6621 32.4648 35.7559 32.7402C35.8496 33.0137 35.8965 33.3516 35.8965 33.7539C35.8965 34.1074 35.8525 34.4121 35.7646 34.668C35.6572 34.9805 35.5039 35.2334 35.3047 35.4268C35.1543 35.5732 34.9512 35.6875 34.6953 35.7695C34.5039 35.8301 34.248 35.8604 33.9277 35.8604H32.2959V31.5654ZM33.1631 32.292V35.1367H33.8105C34.0527 35.1367 34.2275 35.123 34.335 35.0957C34.4756 35.0605 34.5918 35.001 34.6836 34.917C34.7773 34.833 34.8535 34.6953 34.9121 34.5039C34.9707 34.3105 35 34.0479 35 33.7158C35 33.3838 34.9707 33.1289 34.9121 32.9512C34.8535 32.7734 34.7715 32.6348 34.666 32.5352C34.5605 32.4355 34.4268 32.3682 34.2646 32.333C34.1436 32.3057 33.9062 32.292 33.5527 32.292H33.1631Z" fill="#888888"/>
<path d="M36.6406 35.8604V31.5654H39.585V32.292H37.5078V33.3086H39.3008V34.0352H37.5078V35.8604H36.6406Z" fill="#888888"/>
</g>
<defs>
<filter id="filter0_d_2108_1149" x="0" y="0" width="67.7207" height="67.7208" filterUnits="userSpaceOnUse" color-interpolation-filters="sRGB">
<feFlood flood-opacity="0" result="BackgroundImageFix"/>
<feColorMatrix in="SourceAlpha" type="matrix" values="0 0 0 0 0 0 0 0 0 0 0 0 0 0 0 0 0 0 127 0" result="hardAlpha"/>
<feOffset dy="4"/>
<feGaussianBlur stdDeviation="7.5"/>
<feComposite in2="hardAlpha" operator="out"/>
<feColorMatrix type="matrix" values="0 0 0 0 0.183333 0 0 0 0 0.183333 0 0 0 0 0.183333 0 0 0 0.25 0"/>
<feBlend mode="normal" in2="BackgroundImageFix" result="effect1_dropShadow_2108_1149"/>
<feBlend mode="normal" in="SourceGraphic" in2="effect1_dropShadow_2108_1149" result="shape"/>
</filter>
</defs>
</svg>
