<svg width="69" height="68" viewBox="0 0 69 68" fill="none" xmlns="http://www.w3.org/2000/svg">
<g filter="url(#filter0_d_2108_1010)">
<rect x="15.7207" y="11" width="37.7208" height="37.7208" rx="3" fill="#3D3D3D" shape-rendering="crispEdges"/>
<path d="M34.5811 23.3604C34.5811 22.5319 35.2526 21.8604 36.0811 21.8604V21.8604C36.9095 21.8604 37.5811 22.5319 37.5811 23.3604V28.3604C37.5811 29.1888 36.9095 29.8604 36.0811 29.8604V29.8604C35.2526 29.8604 34.5811 29.1888 34.5811 28.3604V23.3604Z" stroke="#888888"/>
<path d="M42.5811 28.3604C42.5811 29.1888 41.9095 29.8604 41.0811 29.8604H39.5811V28.3604C39.5811 27.5319 40.2526 26.8604 41.0811 26.8604V26.8604C41.9095 26.8604 42.5811 27.5319 42.5811 28.3604V28.3604Z" stroke="#888888" stroke-linejoin="round"/>
<path d="M39.5811 38.3604C39.5811 37.5319 38.9095 36.8604 38.0811 36.8604H36.5811V38.3604C36.5811 39.1888 37.2526 39.8604 38.0811 39.8604V39.8604C38.9095 39.8604 39.5811 39.1888 39.5811 38.3604V38.3604Z" stroke="#888888" stroke-linejoin="round"/>
<path d="M29.5811 23.3604C29.5811 24.1888 30.2526 24.8604 31.0811 24.8604H32.5811V23.3604C32.5811 22.5319 31.9095 21.8604 31.0811 21.8604V21.8604C30.2526 21.8604 29.5811 22.5319 29.5811 23.3604V23.3604Z" stroke="#888888" stroke-linejoin="round"/>
<path d="M26.5811 33.3604C26.5811 32.5319 27.2526 31.8604 28.0811 31.8604H29.5811V33.3604C29.5811 34.1888 28.9095 34.8604 28.0811 34.8604V34.8604C27.2526 34.8604 26.5811 34.1888 26.5811 33.3604V33.3604Z" stroke="#888888" stroke-linejoin="round"/>
<path d="M31.5811 33.3604C31.5811 32.5319 32.2526 31.8604 33.0811 31.8604V31.8604C33.9095 31.8604 34.5811 32.5319 34.5811 33.3604V38.3604C34.5811 39.1888 33.9095 39.8604 33.0811 39.8604V39.8604C32.2526 39.8604 31.5811 39.1888 31.5811 38.3604V33.3604Z" stroke="#888888"/>
<path d="M31.0811 26.8604C31.9095 26.8604 32.5811 27.5319 32.5811 28.3604V28.3604C32.5811 29.1888 31.9095 29.8604 31.0811 29.8604L26.0811 29.8604C25.2526 29.8604 24.5811 29.1888 24.5811 28.3604V28.3604C24.5811 27.5319 25.2526 26.8604 26.0811 26.8604L31.0811 26.8604Z" stroke="#888888"/>
<path d="M43.0811 31.8604C43.9095 31.8604 44.5811 32.5319 44.5811 33.3604V33.3604C44.5811 34.1888 43.9095 34.8604 43.0811 34.8604L38.0811 34.8604C37.2526 34.8604 36.5811 34.1888 36.5811 33.3604V33.3604C36.5811 32.5319 37.2526 31.8604 38.0811 31.8604L43.0811 31.8604Z" stroke="#888888"/>
</g>
<defs>
<filter id="filter0_d_2108_1010" x="0.720703" y="0" width="67.7207" height="67.7207" filterUnits="userSpaceOnUse" color-interpolation-filters="sRGB">
<feFlood flood-opacity="0" result="BackgroundImageFix"/>
<feColorMatrix in="SourceAlpha" type="matrix" values="0 0 0 0 0 0 0 0 0 0 0 0 0 0 0 0 0 0 127 0" result="hardAlpha"/>
<feOffset dy="4"/>
<feGaussianBlur stdDeviation="7.5"/>
<feComposite in2="hardAlpha" operator="out"/>
<feColorMatrix type="matrix" values="0 0 0 0 0.183333 0 0 0 0 0.183333 0 0 0 0 0.183333 0 0 0 0.25 0"/>
<feBlend mode="normal" in2="BackgroundImageFix" result="effect1_dropShadow_2108_1010"/>
<feBlend mode="normal" in="SourceGraphic" in2="effect1_dropShadow_2108_1010" result="shape"/>
</filter>
</defs>
</svg>
