<svg width="69" height="68" viewBox="0 0 69 68" fill="none" xmlns="http://www.w3.org/2000/svg">
<g filter="url(#filter0_d_2108_1250)">
<rect x="15.604" y="11" width="37.7208" height="37.7208" rx="3" fill="#3D3D3D" shape-rendering="crispEdges"/>
<path d="M34.4644 39.8604C39.9872 39.8604 44.4644 35.3832 44.4644 29.8604C44.4644 24.3375 39.9872 19.8604 34.4644 19.8604C28.9415 19.8604 24.4644 24.3375 24.4644 29.8604C24.4644 31.3718 24.7997 32.8049 25.4 34.0894L24.6874 38.4848C24.5779 39.1603 25.1639 39.7438 25.8389 39.6313L30.1942 38.9054C31.4892 39.5178 32.9368 39.8604 34.4644 39.8604Z" stroke="#888888" stroke-linecap="square" stroke-linejoin="round"/>
<path d="M32.4644 26.8604L28.4644 32.8604L32.4644 29.8604L36.4644 32.8604L40.4644 26.8604L36.4644 29.8604L32.4644 26.8604Z" fill="#888888"/>
</g>
<defs>
<filter id="filter0_d_2108_1250" x="0.604004" y="0" width="67.7207" height="67.7207" filterUnits="userSpaceOnUse" color-interpolation-filters="sRGB">
<feFlood flood-opacity="0" result="BackgroundImageFix"/>
<feColorMatrix in="SourceAlpha" type="matrix" values="0 0 0 0 0 0 0 0 0 0 0 0 0 0 0 0 0 0 127 0" result="hardAlpha"/>
<feOffset dy="4"/>
<feGaussianBlur stdDeviation="7.5"/>
<feComposite in2="hardAlpha" operator="out"/>
<feColorMatrix type="matrix" values="0 0 0 0 0.183333 0 0 0 0 0.183333 0 0 0 0 0.183333 0 0 0 0.25 0"/>
<feBlend mode="normal" in2="BackgroundImageFix" result="effect1_dropShadow_2108_1250"/>
<feBlend mode="normal" in="SourceGraphic" in2="effect1_dropShadow_2108_1250" result="shape"/>
</filter>
</defs>
</svg>
