<svg width="68" height="68" viewBox="0 0 68 68" fill="none" xmlns="http://www.w3.org/2000/svg">
<g filter="url(#filter0_d_2108_1038)">
<rect x="15.1624" y="11" width="37.7208" height="37.7208" rx="3" fill="#3D3D3D" shape-rendering="crispEdges"/>
<path d="M44.0227 29.8604V35.8604C44.0227 38.0695 42.2318 39.8604 40.0227 39.8604H28.0227C25.8136 39.8604 24.0227 38.0695 24.0227 35.8604V23.8604C24.0227 21.6512 25.8136 19.8604 28.0227 19.8604H34.0227M37.7091 21.8831C37.7091 21.8831 37.7091 23.3134 39.1394 24.7437C40.5697 26.174 42 26.174 42 26.174M31.1774 33.8499L34.181 33.4209C34.6143 33.359 35.0158 33.1582 35.3252 32.8487L43.4303 24.7437C44.2202 23.9538 44.2202 22.6731 43.4303 21.8831L42 20.4528C41.21 19.6629 39.9293 19.6629 39.1394 20.4528L31.0343 28.5578C30.7249 28.8673 30.5241 29.2688 30.4622 29.7021L30.0331 32.7057C29.9378 33.3732 30.5099 33.9453 31.1774 33.8499Z" stroke="#888888" stroke-linecap="round"/>
</g>
<defs>
<filter id="filter0_d_2108_1038" x="0.162354" y="0" width="67.7207" height="67.7208" filterUnits="userSpaceOnUse" color-interpolation-filters="sRGB">
<feFlood flood-opacity="0" result="BackgroundImageFix"/>
<feColorMatrix in="SourceAlpha" type="matrix" values="0 0 0 0 0 0 0 0 0 0 0 0 0 0 0 0 0 0 127 0" result="hardAlpha"/>
<feOffset dy="4"/>
<feGaussianBlur stdDeviation="7.5"/>
<feComposite in2="hardAlpha" operator="out"/>
<feColorMatrix type="matrix" values="0 0 0 0 0.183333 0 0 0 0 0.183333 0 0 0 0 0.183333 0 0 0 0.25 0"/>
<feBlend mode="normal" in2="BackgroundImageFix" result="effect1_dropShadow_2108_1038"/>
<feBlend mode="normal" in="SourceGraphic" in2="effect1_dropShadow_2108_1038" result="shape"/>
</filter>
</defs>
</svg>
