<svg width="69" height="68" viewBox="0 0 69 68" fill="none" xmlns="http://www.w3.org/2000/svg">
<g filter="url(#filter0_d_2108_1075)">
<rect x="15.4414" y="11" width="37.7208" height="37.7208" rx="3" fill="#3D3D3D" shape-rendering="crispEdges"/>
<path d="M42.4414 28.7492C42.4414 33.6584 36.8164 39.8604 33.4414 39.8604C30.0664 39.8604 24.4414 33.6584 24.4414 28.7492C24.4414 23.84 28.4708 19.8604 33.4414 19.8604C38.412 19.8604 42.4414 23.84 42.4414 28.7492Z" stroke="#888888"/>
<path d="M36.4414 28.8604C36.4414 30.5172 35.0983 31.8604 33.4414 31.8604C31.7846 31.8604 30.4414 30.5172 30.4414 28.8604C30.4414 27.2035 31.7846 25.8604 33.4414 25.8604C35.0983 25.8604 36.4414 27.2035 36.4414 28.8604Z" stroke="#888888"/>
</g>
<defs>
<filter id="filter0_d_2108_1075" x="0.441406" y="0" width="67.7207" height="67.7208" filterUnits="userSpaceOnUse" color-interpolation-filters="sRGB">
<feFlood flood-opacity="0" result="BackgroundImageFix"/>
<feColorMatrix in="SourceAlpha" type="matrix" values="0 0 0 0 0 0 0 0 0 0 0 0 0 0 0 0 0 0 127 0" result="hardAlpha"/>
<feOffset dy="4"/>
<feGaussianBlur stdDeviation="7.5"/>
<feComposite in2="hardAlpha" operator="out"/>
<feColorMatrix type="matrix" values="0 0 0 0 0.183333 0 0 0 0 0.183333 0 0 0 0 0.183333 0 0 0 0.25 0"/>
<feBlend mode="normal" in2="BackgroundImageFix" result="effect1_dropShadow_2108_1075"/>
<feBlend mode="normal" in="SourceGraphic" in2="effect1_dropShadow_2108_1075" result="shape"/>
</filter>
</defs>
</svg>
