<svg width="69" height="68" viewBox="0 0 69 68" fill="none" xmlns="http://www.w3.org/2000/svg">
<g filter="url(#filter0_d_2108_1183)">
<rect x="15.8831" y="11" width="37.7208" height="37.7208" rx="3" fill="#3D3D3D" shape-rendering="crispEdges"/>
<path d="M39.7434 24.8604L35.7434 28.8604M29.7434 34.8604L33.7434 30.8604M35.7434 28.8604H39.7434M35.7434 28.8604V24.8604M33.7434 30.8604V34.8604M33.7434 30.8604H29.7434" stroke="#888888" stroke-linecap="round" stroke-linejoin="round"/>
<path d="M40.7434 19.8604H28.7434C26.5343 19.8604 24.7434 21.6512 24.7434 23.8604V35.8604C24.7434 38.0695 26.5343 39.8604 28.7434 39.8604H40.7434C42.9525 39.8604 44.7434 38.0695 44.7434 35.8604V23.8604C44.7434 21.6512 42.9525 19.8604 40.7434 19.8604Z" stroke="#888888" stroke-linecap="round" stroke-linejoin="round"/>
</g>
<defs>
<filter id="filter0_d_2108_1183" x="0.883057" y="0" width="67.7209" height="67.7207" filterUnits="userSpaceOnUse" color-interpolation-filters="sRGB">
<feFlood flood-opacity="0" result="BackgroundImageFix"/>
<feColorMatrix in="SourceAlpha" type="matrix" values="0 0 0 0 0 0 0 0 0 0 0 0 0 0 0 0 0 0 127 0" result="hardAlpha"/>
<feOffset dy="4"/>
<feGaussianBlur stdDeviation="7.5"/>
<feComposite in2="hardAlpha" operator="out"/>
<feColorMatrix type="matrix" values="0 0 0 0 0.183333 0 0 0 0 0.183333 0 0 0 0 0.183333 0 0 0 0.25 0"/>
<feBlend mode="normal" in2="BackgroundImageFix" result="effect1_dropShadow_2108_1183"/>
<feBlend mode="normal" in="SourceGraphic" in2="effect1_dropShadow_2108_1183" result="shape"/>
</filter>
</defs>
</svg>
