<svg width="68" height="68" viewBox="0 0 68 68" fill="none" xmlns="http://www.w3.org/2000/svg">
<g filter="url(#filter0_d_2108_1064)">
<rect x="15.1624" y="11" width="37.7208" height="37.7208" rx="3" fill="#3D3D3D" shape-rendering="crispEdges"/>
<path d="M40.5815 37.4092C39.5881 34.7521 37.0263 32.8604 34.0227 32.8604C31.0191 32.8604 28.4573 34.7521 27.4639 37.4092M40.5815 37.4092C42.6899 35.5758 44.0227 32.8737 44.0227 29.8604C44.0227 24.3375 39.5456 19.8604 34.0227 19.8604C28.4999 19.8604 24.0227 24.3375 24.0227 29.8604C24.0227 32.8737 25.3556 35.5758 27.4639 37.4092M40.5815 37.4092C38.8258 38.936 36.5322 39.8604 34.0227 39.8604C31.5132 39.8604 29.2196 38.936 27.4639 37.4092M37.0227 26.8604C37.0227 28.5172 35.6796 29.8604 34.0227 29.8604C32.3659 29.8604 31.0227 28.5172 31.0227 26.8604C31.0227 25.2035 32.3659 23.8604 34.0227 23.8604C35.6796 23.8604 37.0227 25.2035 37.0227 26.8604Z" stroke="#888888" stroke-linejoin="round"/>
</g>
<defs>
<filter id="filter0_d_2108_1064" x="0.162354" y="0" width="67.7207" height="67.7208" filterUnits="userSpaceOnUse" color-interpolation-filters="sRGB">
<feFlood flood-opacity="0" result="BackgroundImageFix"/>
<feColorMatrix in="SourceAlpha" type="matrix" values="0 0 0 0 0 0 0 0 0 0 0 0 0 0 0 0 0 0 127 0" result="hardAlpha"/>
<feOffset dy="4"/>
<feGaussianBlur stdDeviation="7.5"/>
<feComposite in2="hardAlpha" operator="out"/>
<feColorMatrix type="matrix" values="0 0 0 0 0.183333 0 0 0 0 0.183333 0 0 0 0 0.183333 0 0 0 0.25 0"/>
<feBlend mode="normal" in2="BackgroundImageFix" result="effect1_dropShadow_2108_1064"/>
<feBlend mode="normal" in="SourceGraphic" in2="effect1_dropShadow_2108_1064" result="shape"/>
</filter>
</defs>
</svg>
