<svg width="68" height="68" viewBox="0 0 68 68" fill="none" xmlns="http://www.w3.org/2000/svg">
<g filter="url(#filter0_d_2108_1136)">
<rect x="15" y="11" width="37.7208" height="37.7208" rx="3" fill="#3D3D3D" shape-rendering="crispEdges"/>
<path d="M43.8604 29.8604H39.8604M41.8604 27.8604V31.8604M29.3936 25.4624L33.6604 22.2638C34.9788 21.2754 36.8604 22.2157 36.8604 23.8631V35.8576C36.8604 37.505 34.9788 38.4453 33.6604 37.4569L29.3936 34.2583C29.0474 33.9988 28.6265 33.8585 28.1939 33.8585H25.8604C24.7558 33.8585 23.8604 32.9635 23.8604 31.8594V27.8613C23.8604 26.7572 24.7558 25.8622 25.8604 25.8622H28.1939C28.6265 25.8622 29.0474 25.7219 29.3936 25.4624Z" stroke="#888888" stroke-linecap="round" stroke-linejoin="round"/>
</g>
<defs>
<filter id="filter0_d_2108_1136" x="0" y="0" width="67.7207" height="67.7207" filterUnits="userSpaceOnUse" color-interpolation-filters="sRGB">
<feFlood flood-opacity="0" result="BackgroundImageFix"/>
<feColorMatrix in="SourceAlpha" type="matrix" values="0 0 0 0 0 0 0 0 0 0 0 0 0 0 0 0 0 0 127 0" result="hardAlpha"/>
<feOffset dy="4"/>
<feGaussianBlur stdDeviation="7.5"/>
<feComposite in2="hardAlpha" operator="out"/>
<feColorMatrix type="matrix" values="0 0 0 0 0.183333 0 0 0 0 0.183333 0 0 0 0 0.183333 0 0 0 0.25 0"/>
<feBlend mode="normal" in2="BackgroundImageFix" result="effect1_dropShadow_2108_1136"/>
<feBlend mode="normal" in="SourceGraphic" in2="effect1_dropShadow_2108_1136" result="shape"/>
</filter>
</defs>
</svg>
