<svg width="69" height="68" viewBox="0 0 69 68" fill="none" xmlns="http://www.w3.org/2000/svg">
<g filter="url(#filter0_d_2108_1079)">
<rect x="15.8831" y="11" width="37.7208" height="37.7208" rx="3" fill="#3D3D3D" shape-rendering="crispEdges"/>
<path d="M44.7434 31.8604L41.8044 29.7443C40.2772 28.6447 38.1901 28.7583 36.7913 30.0172L32.6955 33.7035C31.2967 34.9624 29.2096 35.076 27.6824 33.9764L24.7434 31.8604M28.7434 39.8604H40.7434C42.9525 39.8604 44.7434 38.0695 44.7434 35.8604V23.8604C44.7434 21.6512 42.9525 19.8604 40.7434 19.8604H28.7434C26.5343 19.8604 24.7434 21.6512 24.7434 23.8604V35.8604C24.7434 38.0695 26.5343 39.8604 28.7434 39.8604ZM33.7434 26.3604C33.7434 27.7411 32.6241 28.8604 31.2434 28.8604C29.8627 28.8604 28.7434 27.7411 28.7434 26.3604C28.7434 24.9796 29.8627 23.8604 31.2434 23.8604C32.6241 23.8604 33.7434 24.9796 33.7434 26.3604Z" stroke="#888888" stroke-linecap="round"/>
</g>
<defs>
<filter id="filter0_d_2108_1079" x="0.883057" y="0" width="67.7209" height="67.7208" filterUnits="userSpaceOnUse" color-interpolation-filters="sRGB">
<feFlood flood-opacity="0" result="BackgroundImageFix"/>
<feColorMatrix in="SourceAlpha" type="matrix" values="0 0 0 0 0 0 0 0 0 0 0 0 0 0 0 0 0 0 127 0" result="hardAlpha"/>
<feOffset dy="4"/>
<feGaussianBlur stdDeviation="7.5"/>
<feComposite in2="hardAlpha" operator="out"/>
<feColorMatrix type="matrix" values="0 0 0 0 0.183333 0 0 0 0 0.183333 0 0 0 0 0.183333 0 0 0 0.25 0"/>
<feBlend mode="normal" in2="BackgroundImageFix" result="effect1_dropShadow_2108_1079"/>
<feBlend mode="normal" in="SourceGraphic" in2="effect1_dropShadow_2108_1079" result="shape"/>
</filter>
</defs>
</svg>
