<svg width="69" height="68" viewBox="0 0 69 68" fill="none" xmlns="http://www.w3.org/2000/svg">
<g filter="url(#filter0_d_2108_1092)">
<rect x="15.8831" y="11" width="37.7208" height="37.7208" rx="3" fill="#3D3D3D" shape-rendering="crispEdges"/>
<path d="M27.1989 31.7404L26.8179 31.4167H26.8179L27.1989 31.7404ZM28.0782 29.6988L27.5813 29.6426L28.0782 29.6988ZM41.4087 29.6989L41.9055 29.6426L41.4087 29.6989ZM42.2879 31.7404L42.669 31.4167L42.2879 31.7404ZM41.0638 26.6544L40.5669 26.7107V26.7107L41.0638 26.6544ZM28.423 26.6544L28.9199 26.7107L28.423 26.6544ZM38.2116 37.0358C38.3085 36.7772 38.1775 36.4891 37.9189 36.3922C37.6603 36.2952 37.3721 36.4263 37.2752 36.6849L38.2116 37.0358ZM32.2116 36.6849C32.1147 36.4263 31.8265 36.2952 31.5679 36.3922C31.3094 36.4891 31.1783 36.7772 31.2752 37.0358L32.2116 36.6849ZM40.9133 34.8604V34.3604H28.5735V34.8604V35.3604H40.9133V34.8604ZM41.0638 26.6544L40.5669 26.7107L40.9118 29.7551L41.4087 29.6989L41.9055 29.6426L41.5606 26.5981L41.0638 26.6544ZM28.0782 29.6988L28.575 29.7551L28.9199 26.7107L28.423 26.6544L27.9262 26.5981L27.5813 29.6426L28.0782 29.6988ZM27.1989 31.7404L27.5799 32.0641C28.132 31.4143 28.4783 30.609 28.575 29.7551L28.0782 29.6988L27.5813 29.6426C27.5067 30.3017 27.2397 30.9201 26.8179 31.4167L27.1989 31.7404ZM41.4087 29.6989L40.9118 29.7551C41.0086 30.609 41.3548 31.4143 41.9069 32.0641L42.2879 31.7404L42.669 31.4167C42.2471 30.9201 41.9801 30.3017 41.9055 29.6426L41.4087 29.6989ZM28.5735 34.8604V34.3604C27.4592 34.3604 26.8036 32.9779 27.5799 32.0641L27.1989 31.7404L26.8179 31.4167C25.5274 32.9356 26.5492 35.3604 28.5735 35.3604V34.8604ZM40.9133 34.8604V35.3604C42.9376 35.3604 43.9594 32.9356 42.669 31.4167L42.2879 31.7404L41.9069 32.0641C42.6832 32.9779 42.0276 34.3604 40.9133 34.3604V34.8604ZM41.0638 26.6544L41.5606 26.5981C41.1591 23.0538 38.2383 20.3604 34.7434 20.3604V20.8604V21.3604C37.7066 21.3604 40.2201 23.6486 40.5669 26.7107L41.0638 26.6544ZM28.423 26.6544L28.9199 26.7107C29.2667 23.6486 31.7802 21.3604 34.7434 21.3604V20.8604V20.3604C31.2485 20.3604 28.3277 23.0538 27.9262 26.5981L28.423 26.6544ZM37.7434 36.8604L37.2752 36.6849C36.9145 37.6473 35.9281 38.3604 34.7434 38.3604V38.8604V39.3604C36.3287 39.3604 37.6989 38.4037 38.2116 37.0358L37.7434 36.8604ZM34.7434 38.8604V38.3604C33.5587 38.3604 32.5723 37.6473 32.2116 36.6849L31.7434 36.8604L31.2752 37.0358C31.7879 38.4037 33.1581 39.3604 34.7434 39.3604V38.8604Z" fill="#888888"/>
</g>
<defs>
<filter id="filter0_d_2108_1092" x="0.883057" y="0" width="67.7209" height="67.7208" filterUnits="userSpaceOnUse" color-interpolation-filters="sRGB">
<feFlood flood-opacity="0" result="BackgroundImageFix"/>
<feColorMatrix in="SourceAlpha" type="matrix" values="0 0 0 0 0 0 0 0 0 0 0 0 0 0 0 0 0 0 127 0" result="hardAlpha"/>
<feOffset dy="4"/>
<feGaussianBlur stdDeviation="7.5"/>
<feComposite in2="hardAlpha" operator="out"/>
<feColorMatrix type="matrix" values="0 0 0 0 0.183333 0 0 0 0 0.183333 0 0 0 0 0.183333 0 0 0 0.25 0"/>
<feBlend mode="normal" in2="BackgroundImageFix" result="effect1_dropShadow_2108_1092"/>
<feBlend mode="normal" in="SourceGraphic" in2="effect1_dropShadow_2108_1092" result="shape"/>
</filter>
</defs>
</svg>
