<svg width="69" height="68" viewBox="0 0 69 68" fill="none" xmlns="http://www.w3.org/2000/svg">
<g filter="url(#filter0_d_2108_1073)">
<rect x="15.7207" y="11" width="37.7208" height="37.7208" rx="3" fill="#3D3D3D" shape-rendering="crispEdges"/>
<path d="M34.5811 25.8604V30.8604L37.5811 32.8604M39.3845 19.8604C41.508 20.789 43.3109 22.3145 44.5811 24.2248M24.5811 24.2248C25.8512 22.3145 27.6541 20.789 29.7776 19.8604M43.5811 39.8604L41.3382 36.8604M25.5811 39.8604L27.8238 36.8604M43.5811 30.8604C43.5811 35.8309 39.5516 39.8604 34.5811 39.8604C29.6105 39.8604 25.5811 35.8309 25.5811 30.8604C25.5811 25.8898 29.6105 21.8604 34.5811 21.8604C39.5516 21.8604 43.5811 25.8898 43.5811 30.8604Z" stroke="#888888" stroke-linecap="round" stroke-linejoin="round"/>
</g>
<defs>
<filter id="filter0_d_2108_1073" x="0.720703" y="0" width="67.7207" height="67.7208" filterUnits="userSpaceOnUse" color-interpolation-filters="sRGB">
<feFlood flood-opacity="0" result="BackgroundImageFix"/>
<feColorMatrix in="SourceAlpha" type="matrix" values="0 0 0 0 0 0 0 0 0 0 0 0 0 0 0 0 0 0 127 0" result="hardAlpha"/>
<feOffset dy="4"/>
<feGaussianBlur stdDeviation="7.5"/>
<feComposite in2="hardAlpha" operator="out"/>
<feColorMatrix type="matrix" values="0 0 0 0 0.183333 0 0 0 0 0.183333 0 0 0 0 0.183333 0 0 0 0.25 0"/>
<feBlend mode="normal" in2="BackgroundImageFix" result="effect1_dropShadow_2108_1073"/>
<feBlend mode="normal" in="SourceGraphic" in2="effect1_dropShadow_2108_1073" result="shape"/>
</filter>
</defs>
</svg>
