<svg width="69" height="68" viewBox="0 0 69 68" fill="none" xmlns="http://www.w3.org/2000/svg">
<g filter="url(#filter0_d_2108_1209)">
<rect x="15.8831" y="11" width="37.7208" height="37.7208" rx="3" fill="#3D3D3D" shape-rendering="crispEdges"/>
<path d="M36.7434 34.8604C36.7434 33.7558 35.848 32.8604 34.7434 32.8604C33.6388 32.8604 32.7434 33.7558 32.7434 34.8604C32.7434 35.9649 33.6388 36.8604 34.7434 36.8604C35.848 36.8604 36.7434 35.9649 36.7434 34.8604Z" fill="#888888"/>
<path d="M37.7434 30.86H37.2434C37.2434 31.0172 37.3174 31.1653 37.4431 31.2598L37.7434 30.86ZM31.7434 30.86L32.0437 31.2598C32.1694 31.1653 32.2434 31.0172 32.2434 30.86H31.7434ZM34.2434 34.8604C34.2434 35.1365 34.4673 35.3604 34.7434 35.3604C35.0196 35.3604 35.2434 35.1365 35.2434 34.8604H34.2434ZM35.2434 22.8604C35.2434 22.5842 35.0196 22.3604 34.7434 22.3604C34.4673 22.3604 34.2434 22.5842 34.2434 22.8604H35.2434ZM42.2434 23.8604C42.2434 24.1365 42.4673 24.3604 42.7434 24.3604C43.0196 24.3604 43.2434 24.1365 43.2434 23.8604H42.2434ZM43.2434 19.8604C43.2434 19.5842 43.0196 19.3604 42.7434 19.3604C42.4673 19.3604 42.2434 19.5842 42.2434 19.8604H43.2434ZM40.7434 21.3604C40.4673 21.3604 40.2434 21.5842 40.2434 21.8604C40.2434 22.1365 40.4673 22.3604 40.7434 22.3604V21.3604ZM44.7434 22.3604C45.0196 22.3604 45.2434 22.1365 45.2434 21.8604C45.2434 21.5842 45.0196 21.3604 44.7434 21.3604V22.3604ZM39.7434 34.8604H39.2434C39.2434 37.3456 37.2287 39.3604 34.7434 39.3604V39.8604V40.3604C37.781 40.3604 40.2434 37.8979 40.2434 34.8604H39.7434ZM34.7434 39.8604V39.3604C32.2581 39.3604 30.2434 37.3456 30.2434 34.8604H29.7434H29.2434C29.2434 37.8979 31.7058 40.3604 34.7434 40.3604V39.8604ZM34.7434 19.8604V20.3604C36.1241 20.3604 37.2434 21.4796 37.2434 22.8604H37.7434H38.2434C38.2434 20.9274 36.6764 19.3604 34.7434 19.3604V19.8604ZM34.7434 19.8604V19.3604C32.8104 19.3604 31.2434 20.9274 31.2434 22.8604H31.7434H32.2434C32.2434 21.4796 33.3627 20.3604 34.7434 20.3604V19.8604ZM37.7434 22.8604H37.2434V30.86H37.7434H38.2434V22.8604H37.7434ZM37.7434 30.86L37.4431 31.2598C38.5372 32.0816 39.2434 33.3884 39.2434 34.8604H39.7434H40.2434C40.2434 33.0606 39.3785 31.4628 38.0437 30.4602L37.7434 30.86ZM31.7434 30.86H32.2434V22.8604H31.7434H31.2434V30.86H31.7434ZM29.7434 34.8604H30.2434C30.2434 33.3884 30.9496 32.0816 32.0437 31.2598L31.7434 30.86L31.4431 30.4602C30.1084 31.4628 29.2434 33.0606 29.2434 34.8604H29.7434ZM34.7434 34.8604H35.2434V22.8604H34.7434H34.2434V34.8604H34.7434ZM42.7434 23.8604H43.2434V19.8604H42.7434H42.2434V23.8604H42.7434ZM40.7434 21.8604V22.3604H44.7434V21.8604V21.3604L40.7434 21.3604V21.8604Z" fill="#888888"/>
</g>
<defs>
<filter id="filter0_d_2108_1209" x="0.883057" y="0" width="67.7209" height="67.7207" filterUnits="userSpaceOnUse" color-interpolation-filters="sRGB">
<feFlood flood-opacity="0" result="BackgroundImageFix"/>
<feColorMatrix in="SourceAlpha" type="matrix" values="0 0 0 0 0 0 0 0 0 0 0 0 0 0 0 0 0 0 127 0" result="hardAlpha"/>
<feOffset dy="4"/>
<feGaussianBlur stdDeviation="7.5"/>
<feComposite in2="hardAlpha" operator="out"/>
<feColorMatrix type="matrix" values="0 0 0 0 0.183333 0 0 0 0 0.183333 0 0 0 0 0.183333 0 0 0 0.25 0"/>
<feBlend mode="normal" in2="BackgroundImageFix" result="effect1_dropShadow_2108_1209"/>
<feBlend mode="normal" in="SourceGraphic" in2="effect1_dropShadow_2108_1209" result="shape"/>
</filter>
</defs>
</svg>
