<svg width="69" height="68" viewBox="0 0 69 68" fill="none" xmlns="http://www.w3.org/2000/svg">
<g filter="url(#filter0_d_2108_1127)">
<rect x="15.4414" y="11" width="37.7208" height="37.7208" rx="3" fill="#3D3D3D" shape-rendering="crispEdges"/>
<path d="M40.3018 28.1279C40.8996 28.4737 41.3018 29.1201 41.3018 29.8604C41.3018 30.6006 40.8996 31.247 40.3018 31.5928M40.3018 24.9604C42.584 25.4236 44.3018 27.4414 44.3018 29.8603C44.3018 32.2793 42.584 34.2971 40.3018 34.7603M29.835 25.4624L34.1018 22.2638C35.4202 21.2754 37.3018 22.2157 37.3018 23.8631V35.8576C37.3018 37.505 35.4202 38.4453 34.1018 37.4569L29.835 34.2583C29.4889 33.9988 29.0679 33.8585 28.6353 33.8585H26.3018C25.1972 33.8585 24.3018 32.9635 24.3018 31.8594V27.8613C24.3018 26.7572 25.1972 25.8622 26.3018 25.8622H28.6353C29.0679 25.8622 29.4889 25.7219 29.835 25.4624Z" stroke="#888888" stroke-linecap="round"/>
</g>
<defs>
<filter id="filter0_d_2108_1127" x="0.441406" y="0" width="67.7207" height="67.7207" filterUnits="userSpaceOnUse" color-interpolation-filters="sRGB">
<feFlood flood-opacity="0" result="BackgroundImageFix"/>
<feColorMatrix in="SourceAlpha" type="matrix" values="0 0 0 0 0 0 0 0 0 0 0 0 0 0 0 0 0 0 127 0" result="hardAlpha"/>
<feOffset dy="4"/>
<feGaussianBlur stdDeviation="7.5"/>
<feComposite in2="hardAlpha" operator="out"/>
<feColorMatrix type="matrix" values="0 0 0 0 0.183333 0 0 0 0 0.183333 0 0 0 0 0.183333 0 0 0 0.25 0"/>
<feBlend mode="normal" in2="BackgroundImageFix" result="effect1_dropShadow_2108_1127"/>
<feBlend mode="normal" in="SourceGraphic" in2="effect1_dropShadow_2108_1127" result="shape"/>
</filter>
</defs>
</svg>
