<svg width="69" height="68" viewBox="0 0 69 68" fill="none" xmlns="http://www.w3.org/2000/svg">
<g filter="url(#filter0_d_2108_1036)">
<rect x="15.4414" y="11" width="37.7208" height="37.7208" rx="3" fill="#3D3D3D" shape-rendering="crispEdges"/>
<path d="M34.3018 24.8604V26.8604M37.3018 25.86C38.5162 26.7722 39.3018 28.2246 39.3018 29.8604C39.3018 32.6218 37.0632 34.8604 34.3018 34.8604C31.5403 34.8604 29.3018 32.6218 29.3018 29.8604C29.3018 28.2246 30.0873 26.7722 31.3018 25.86M44.3018 29.8604C44.3018 35.3832 39.8246 39.8604 34.3018 39.8604C28.7789 39.8604 24.3018 35.3832 24.3018 29.8604C24.3018 24.3375 28.7789 19.8604 34.3018 19.8604C39.8246 19.8604 44.3018 24.3375 44.3018 29.8604Z" stroke="#888888" stroke-linecap="round"/>
</g>
<defs>
<filter id="filter0_d_2108_1036" x="0.441406" y="0" width="67.7207" height="67.7208" filterUnits="userSpaceOnUse" color-interpolation-filters="sRGB">
<feFlood flood-opacity="0" result="BackgroundImageFix"/>
<feColorMatrix in="SourceAlpha" type="matrix" values="0 0 0 0 0 0 0 0 0 0 0 0 0 0 0 0 0 0 127 0" result="hardAlpha"/>
<feOffset dy="4"/>
<feGaussianBlur stdDeviation="7.5"/>
<feComposite in2="hardAlpha" operator="out"/>
<feColorMatrix type="matrix" values="0 0 0 0 0.183333 0 0 0 0 0.183333 0 0 0 0 0.183333 0 0 0 0.25 0"/>
<feBlend mode="normal" in2="BackgroundImageFix" result="effect1_dropShadow_2108_1036"/>
<feBlend mode="normal" in="SourceGraphic" in2="effect1_dropShadow_2108_1036" result="shape"/>
</filter>
</defs>
</svg>
