<svg width="69" height="68" viewBox="0 0 69 68" fill="none" xmlns="http://www.w3.org/2000/svg">
<g filter="url(#filter0_d_2108_1224)">
<rect x="15.604" y="11" width="37.7208" height="37.7208" rx="3" fill="#3D3D3D" shape-rendering="crispEdges"/>
<path d="M39.1022 27.9887C38.3613 26.1545 36.564 24.8604 34.4644 24.8604C31.7029 24.8604 29.4644 27.0989 29.4644 29.8604C29.4644 31.96 30.7585 33.7573 32.5927 34.4982M34.3799 39.86C28.8959 39.8146 24.4644 35.355 24.4644 29.8604C24.4644 24.3375 28.9415 19.8604 34.4644 19.8604C39.959 19.8604 44.4186 24.2919 44.464 29.7759M34.5217 31.2839L37.1343 39.1218C37.4625 40.1065 38.8554 40.1065 39.1837 39.1218L40.1484 36.2275C40.2559 35.905 40.509 35.6519 40.8315 35.5444L43.7258 34.5796C44.7105 34.2514 44.7105 32.8585 43.7258 32.5303L35.8879 29.9176C35.0435 29.6362 34.2402 30.4395 34.5217 31.2839Z" stroke="#888888" stroke-linecap="round" stroke-linejoin="round"/>
</g>
<defs>
<filter id="filter0_d_2108_1224" x="0.604004" y="0" width="67.7207" height="67.7208" filterUnits="userSpaceOnUse" color-interpolation-filters="sRGB">
<feFlood flood-opacity="0" result="BackgroundImageFix"/>
<feColorMatrix in="SourceAlpha" type="matrix" values="0 0 0 0 0 0 0 0 0 0 0 0 0 0 0 0 0 0 127 0" result="hardAlpha"/>
<feOffset dy="4"/>
<feGaussianBlur stdDeviation="7.5"/>
<feComposite in2="hardAlpha" operator="out"/>
<feColorMatrix type="matrix" values="0 0 0 0 0.183333 0 0 0 0 0.183333 0 0 0 0 0.183333 0 0 0 0.25 0"/>
<feBlend mode="normal" in2="BackgroundImageFix" result="effect1_dropShadow_2108_1224"/>
<feBlend mode="normal" in="SourceGraphic" in2="effect1_dropShadow_2108_1224" result="shape"/>
</filter>
</defs>
</svg>
