<svg width="69" height="68" viewBox="0 0 69 68" fill="none" xmlns="http://www.w3.org/2000/svg">
<g filter="url(#filter0_d_2108_1068)">
<rect x="15.604" y="11" width="37.7208" height="37.7208" rx="3" fill="#3D3D3D" shape-rendering="crispEdges"/>
<path d="M29.604 24.8604H33.604M29.604 28.8604H37.604M29.604 32.8604H37.604M26.604 19.8604H40.604C41.7086 19.8604 42.604 20.7558 42.604 21.8604V37.0147C42.604 38.3999 41.2299 39.3657 39.9266 38.8965L38.3648 38.3342C37.8768 38.1586 37.3396 38.1793 36.8666 38.3922L34.4247 39.491C33.9028 39.7259 33.3052 39.7259 32.7833 39.491L30.3414 38.3922C29.8684 38.1793 29.3312 38.1586 28.8432 38.3342L27.2814 38.8965C25.9781 39.3657 24.604 38.3999 24.604 37.0147V21.8604C24.604 20.7558 25.4994 19.8604 26.604 19.8604Z" stroke="#888888" stroke-linecap="round"/>
</g>
<defs>
<filter id="filter0_d_2108_1068" x="0.604004" y="0" width="67.7207" height="67.7208" filterUnits="userSpaceOnUse" color-interpolation-filters="sRGB">
<feFlood flood-opacity="0" result="BackgroundImageFix"/>
<feColorMatrix in="SourceAlpha" type="matrix" values="0 0 0 0 0 0 0 0 0 0 0 0 0 0 0 0 0 0 127 0" result="hardAlpha"/>
<feOffset dy="4"/>
<feGaussianBlur stdDeviation="7.5"/>
<feComposite in2="hardAlpha" operator="out"/>
<feColorMatrix type="matrix" values="0 0 0 0 0.183333 0 0 0 0 0.183333 0 0 0 0 0.183333 0 0 0 0.25 0"/>
<feBlend mode="normal" in2="BackgroundImageFix" result="effect1_dropShadow_2108_1068"/>
<feBlend mode="normal" in="SourceGraphic" in2="effect1_dropShadow_2108_1068" result="shape"/>
</filter>
</defs>
</svg>
