<svg width="69" height="68" viewBox="0 0 69 68" fill="none" xmlns="http://www.w3.org/2000/svg">
<g filter="url(#filter0_d_2108_1192)">
<rect x="15.4414" y="11" width="37.7208" height="37.7208" rx="3" fill="#3D3D3D" shape-rendering="crispEdges"/>
<path d="M34.3018 31.8604C33.1972 31.8604 32.3018 30.9649 32.3018 29.8604C32.3018 28.7558 33.1972 27.8604 34.3018 27.8604C35.4063 27.8604 36.3018 28.7558 36.3018 29.8604C36.3018 30.9649 35.4063 31.8604 34.3018 31.8604Z" stroke="#888888"/>
<path d="M42.3018 31.8604C41.1972 31.8604 40.3018 30.9649 40.3018 29.8604C40.3018 28.7558 41.1972 27.8604 42.3018 27.8604C43.4063 27.8604 44.3018 28.7558 44.3018 29.8604C44.3018 30.9649 43.4063 31.8604 42.3018 31.8604Z" stroke="#888888"/>
<path d="M26.3018 31.8604C25.1972 31.8604 24.3018 30.9649 24.3018 29.8604C24.3018 28.7558 25.1972 27.8604 26.3018 27.8604C27.4063 27.8604 28.3018 28.7558 28.3018 29.8604C28.3018 30.9649 27.4063 31.8604 26.3018 31.8604Z" stroke="#888888"/>
</g>
<defs>
<filter id="filter0_d_2108_1192" x="0.441406" y="0" width="67.7207" height="67.7208" filterUnits="userSpaceOnUse" color-interpolation-filters="sRGB">
<feFlood flood-opacity="0" result="BackgroundImageFix"/>
<feColorMatrix in="SourceAlpha" type="matrix" values="0 0 0 0 0 0 0 0 0 0 0 0 0 0 0 0 0 0 127 0" result="hardAlpha"/>
<feOffset dy="4"/>
<feGaussianBlur stdDeviation="7.5"/>
<feComposite in2="hardAlpha" operator="out"/>
<feColorMatrix type="matrix" values="0 0 0 0 0.183333 0 0 0 0 0.183333 0 0 0 0 0.183333 0 0 0 0.25 0"/>
<feBlend mode="normal" in2="BackgroundImageFix" result="effect1_dropShadow_2108_1192"/>
<feBlend mode="normal" in="SourceGraphic" in2="effect1_dropShadow_2108_1192" result="shape"/>
</filter>
</defs>
</svg>
