<svg width="69" height="68" viewBox="0 0 69 68" fill="none" xmlns="http://www.w3.org/2000/svg">
<g filter="url(#filter0_d_2108_1105)">
<rect x="15.8831" y="11" width="37.7208" height="37.7208" rx="3" fill="#3D3D3D" shape-rendering="crispEdges"/>
<path d="M40.3594 21.0319L40.713 20.6784V20.6784L40.3594 21.0319ZM43.5718 24.2443L43.2183 24.5979L43.5718 24.2443ZM29.2434 39.8604V40.3604H30.2434V39.8604H29.2434ZM39.2434 39.8604V40.3604H40.2434V39.8604H39.2434ZM37.7434 25.3604C38.0196 25.3604 38.2434 25.1365 38.2434 24.8604C38.2434 24.5842 38.0196 24.3604 37.7434 24.3604V25.3604ZM31.7434 24.3604C31.4673 24.3604 31.2434 24.5842 31.2434 24.8604C31.2434 25.1365 31.4673 25.3604 31.7434 25.3604V24.3604ZM44.7434 27.0728H44.2434V35.8604H44.7434H45.2434V27.0728H44.7434ZM40.7434 39.8604V39.3604H28.7434V39.8604V40.3604H40.7434V39.8604ZM24.7434 35.8604H25.2434V23.8604H24.7434H24.2434V35.8604H24.7434ZM28.7434 19.8604V20.3604H37.531V19.8604V19.3604H28.7434V19.8604ZM40.3594 21.0319L40.0059 21.3855L43.2183 24.5979L43.5718 24.2443L43.9254 23.8908L40.713 20.6784L40.3594 21.0319ZM37.531 19.8604V20.3604C38.4593 20.3604 39.3495 20.7291 40.0059 21.3855L40.3594 21.0319L40.713 20.6784C39.8691 19.8345 38.7245 19.3604 37.531 19.3604V19.8604ZM28.7434 39.8604V39.3604C26.8104 39.3604 25.2434 37.7933 25.2434 35.8604H24.7434H24.2434C24.2434 38.3456 26.2581 40.3604 28.7434 40.3604V39.8604ZM44.7434 35.8604H44.2434C44.2434 37.7934 42.6764 39.3604 40.7434 39.3604V39.8604V40.3604C43.2287 40.3604 45.2434 38.3456 45.2434 35.8604H44.7434ZM44.7434 27.0728H45.2434C45.2434 25.8793 44.7693 24.7347 43.9254 23.8908L43.5718 24.2443L43.2183 24.5979C43.8747 25.2543 44.2434 26.1445 44.2434 27.0728H44.7434ZM24.7434 23.8604H25.2434C25.2434 21.9274 26.8104 20.3604 28.7434 20.3604V19.8604V19.3604C26.2581 19.3604 24.2434 21.3751 24.2434 23.8604H24.7434ZM29.7434 39.8604H30.2434V33.8604H29.7434H29.2434V39.8604H29.7434ZM31.7434 31.8604V32.3604H37.7434V31.8604V31.3604H31.7434V31.8604ZM39.7434 33.8604H39.2434V39.8604H39.7434H40.2434V33.8604H39.7434ZM37.7434 31.8604V32.3604C38.5718 32.3604 39.2434 33.0319 39.2434 33.8604H39.7434H40.2434C40.2434 32.4796 39.1241 31.3604 37.7434 31.3604V31.8604ZM29.7434 33.8604H30.2434C30.2434 33.0319 30.915 32.3604 31.7434 32.3604V31.8604V31.3604C30.3627 31.3604 29.2434 32.4796 29.2434 33.8604H29.7434ZM37.7434 24.8604V24.3604L31.7434 24.3604V24.8604V25.3604L37.7434 25.3604V24.8604Z" fill="#888888"/>
</g>
<defs>
<filter id="filter0_d_2108_1105" x="0.883057" y="0" width="67.7209" height="67.7208" filterUnits="userSpaceOnUse" color-interpolation-filters="sRGB">
<feFlood flood-opacity="0" result="BackgroundImageFix"/>
<feColorMatrix in="SourceAlpha" type="matrix" values="0 0 0 0 0 0 0 0 0 0 0 0 0 0 0 0 0 0 127 0" result="hardAlpha"/>
<feOffset dy="4"/>
<feGaussianBlur stdDeviation="7.5"/>
<feComposite in2="hardAlpha" operator="out"/>
<feColorMatrix type="matrix" values="0 0 0 0 0.183333 0 0 0 0 0.183333 0 0 0 0 0.183333 0 0 0 0.25 0"/>
<feBlend mode="normal" in2="BackgroundImageFix" result="effect1_dropShadow_2108_1105"/>
<feBlend mode="normal" in="SourceGraphic" in2="effect1_dropShadow_2108_1105" result="shape"/>
</filter>
</defs>
</svg>
