<svg width="69" height="68" viewBox="0 0 69 68" fill="none" xmlns="http://www.w3.org/2000/svg">
<g filter="url(#filter0_d_2108_1034)">
<rect x="15.7207" y="11" width="37.7208" height="37.7208" rx="3" fill="#3D3D3D" shape-rendering="crispEdges"/>
<path d="M27.5811 25.8604V35.8604C27.5811 38.0695 29.3719 39.8604 31.5811 39.8604H37.5811C39.7902 39.8604 41.5811 38.0695 41.5811 35.8604V25.8604M36.5811 28.8604V34.8604M32.5811 28.8604L32.5811 34.8604M38.5811 22.8604L37.1748 20.751C36.8039 20.1946 36.1794 19.8604 35.5107 19.8604H33.6514C32.9827 19.8604 32.3583 20.1946 31.9873 20.751L30.5811 22.8604M38.5811 22.8604H30.5811M38.5811 22.8604H43.5811M30.5811 22.8604H25.5811" stroke="#888888" stroke-linecap="round" stroke-linejoin="round"/>
</g>
<defs>
<filter id="filter0_d_2108_1034" x="0.720703" y="0" width="67.7207" height="67.7208" filterUnits="userSpaceOnUse" color-interpolation-filters="sRGB">
<feFlood flood-opacity="0" result="BackgroundImageFix"/>
<feColorMatrix in="SourceAlpha" type="matrix" values="0 0 0 0 0 0 0 0 0 0 0 0 0 0 0 0 0 0 127 0" result="hardAlpha"/>
<feOffset dy="4"/>
<feGaussianBlur stdDeviation="7.5"/>
<feComposite in2="hardAlpha" operator="out"/>
<feColorMatrix type="matrix" values="0 0 0 0 0.183333 0 0 0 0 0.183333 0 0 0 0 0.183333 0 0 0 0.25 0"/>
<feBlend mode="normal" in2="BackgroundImageFix" result="effect1_dropShadow_2108_1034"/>
<feBlend mode="normal" in="SourceGraphic" in2="effect1_dropShadow_2108_1034" result="shape"/>
</filter>
</defs>
</svg>
