<svg width="68" height="68" viewBox="0 0 68 68" fill="none" xmlns="http://www.w3.org/2000/svg">
<g filter="url(#filter0_d_2108_1051)">
<rect x="15.1624" y="11" width="37.7208" height="37.7208" rx="3" fill="#3D3D3D" shape-rendering="crispEdges"/>
<path d="M42.7666 33.5809L42.3402 33.3198L42.7666 33.5809ZM41.8121 35.1398L42.2385 35.4009L41.8121 35.1398ZM25.2788 26.1398L24.8524 25.8787H24.8524L25.2788 26.1398ZM26.2333 24.5809L26.6598 24.842H26.6598L26.2333 24.5809ZM28.8412 23.9221L29.0803 23.4829L29.0803 23.4829L28.8412 23.9221ZM25.9776 28.5986L25.7385 29.0378H25.7385L25.9776 28.5986ZM39.2042 35.7986L38.9651 36.2378H38.9651L39.2042 35.7986ZM42.0678 31.1221L41.8288 31.5612L42.0678 31.1221ZM26.2333 35.1398L25.8069 35.4009H25.8069L26.2333 35.1398ZM25.2788 33.5809L25.7052 33.3198H25.7052L25.2788 33.5809ZM41.8121 24.5809L42.2385 24.3198V24.3198L41.8121 24.5809ZM42.7666 26.1398L42.3402 26.4009V26.4009L42.7666 26.1398ZM42.0678 28.5986L42.3069 29.0378L42.0678 28.5986ZM39.2042 23.9221L39.4432 24.3612L39.2042 23.9221ZM25.9776 31.1221L26.2166 31.5612H26.2166L25.9776 31.1221ZM28.8412 35.7986L28.6022 35.3595L28.6022 35.3595L28.8412 35.7986ZM39.1027 23.9773L38.8637 23.5382L39.1027 23.9773ZM28.9427 23.9773L28.7037 24.4165L28.7037 24.4165L28.9427 23.9773ZM39.1027 35.7434L39.3418 35.3042L39.3418 35.3042L39.1027 35.7434ZM28.9427 35.7434L29.1818 36.1825L29.1818 36.1825L28.9427 35.7434ZM33.0682 20.8604V21.3604H34.9773V20.8604V20.3604H33.0682V20.8604ZM34.9773 38.8604V38.3604H33.0682V38.8604V39.3604H34.9773V38.8604ZM33.0682 38.8604V38.3604C32.2618 38.3604 31.6591 37.751 31.6591 37.0604H31.1591H30.6591C30.6591 38.3579 31.7658 39.3604 33.0682 39.3604V38.8604ZM36.8864 37.0604H36.3864C36.3864 37.751 35.7836 38.3604 34.9773 38.3604V38.8604V39.3604C36.2796 39.3604 37.3864 38.3579 37.3864 37.0604H36.8864ZM34.9773 20.8604V21.3604C35.7836 21.3604 36.3864 21.9697 36.3864 22.6604H36.8864H37.3864C37.3864 21.3628 36.2796 20.3604 34.9773 20.3604V20.8604ZM33.0682 20.8604V20.3604C31.7658 20.3604 30.6591 21.3628 30.6591 22.6604H31.1591H31.6591C31.6591 21.9697 32.2618 21.3604 33.0682 21.3604V20.8604ZM42.7666 33.5809L42.3402 33.3198L41.3857 34.8787L41.8121 35.1398L42.2385 35.4009L43.193 33.842L42.7666 33.5809ZM25.2788 26.1398L25.7052 26.4009L26.6598 24.842L26.2333 24.5809L25.8069 24.3198L24.8524 25.8787L25.2788 26.1398ZM26.2333 24.5809L26.6598 24.842C27.0412 24.219 27.9115 23.9853 28.6022 24.3612L28.8412 23.9221L29.0803 23.4829C27.9447 22.8648 26.4798 23.221 25.8069 24.3198L26.2333 24.5809ZM25.9776 28.5986L26.2166 28.1595C25.5416 27.792 25.3352 27.0051 25.7052 26.4009L25.2788 26.1398L24.8524 25.8787C24.168 26.9963 24.5873 28.4111 25.7385 29.0378L25.9776 28.5986ZM41.8121 35.1398L41.3857 34.8787C41.0042 35.5017 40.1339 35.7354 39.4432 35.3595L39.2042 35.7986L38.9651 36.2378C40.1007 36.8559 41.5656 36.4997 42.2385 35.4009L41.8121 35.1398ZM42.7666 33.5809L43.193 33.842C43.8774 32.7244 43.4581 31.3096 42.3069 30.6829L42.0678 31.1221L41.8288 31.5612C42.5038 31.9287 42.7102 32.7156 42.3402 33.3198L42.7666 33.5809ZM26.2333 35.1398L26.6598 34.8787L25.7052 33.3198L25.2788 33.5809L24.8524 33.842L25.8069 35.4009L26.2333 35.1398ZM41.8121 24.5809L41.3857 24.842L42.3402 26.4009L42.7666 26.1398L43.193 25.8787L42.2385 24.3198L41.8121 24.5809ZM42.7666 26.1398L42.3402 26.4009C42.7102 27.0051 42.5038 27.792 41.8288 28.1595L42.0678 28.5986L42.3069 29.0378C43.4581 28.4111 43.8774 26.9963 43.193 25.8787L42.7666 26.1398ZM39.2042 23.9221L39.4432 24.3612C40.1339 23.9853 41.0042 24.219 41.3857 24.842L41.8121 24.5809L42.2385 24.3198C41.5656 23.221 40.1007 22.8648 38.9651 23.4829L39.2042 23.9221ZM25.2788 33.5809L25.7052 33.3198C25.3352 32.7156 25.5416 31.9287 26.2166 31.5612L25.9776 31.1221L25.7385 30.6829C24.5873 31.3096 24.168 32.7244 24.8524 33.842L25.2788 33.5809ZM26.2333 35.1398L25.8069 35.4009C26.4798 36.4997 27.9447 36.8559 29.0803 36.2378L28.8412 35.7986L28.6022 35.3595C27.9115 35.7354 27.0412 35.5017 26.6598 34.8787L26.2333 35.1398ZM39.1027 23.9773L39.3418 24.4165L39.4432 24.3612L39.2042 23.9221L38.9651 23.4829L38.8637 23.5382L39.1027 23.9773ZM28.8412 23.9221L28.6022 24.3612L28.7037 24.4165L28.9427 23.9773L29.1818 23.5382L29.0803 23.4829L28.8412 23.9221ZM39.2042 35.7986L39.4432 35.3595L39.3418 35.3042L39.1027 35.7434L38.8637 36.1825L38.9651 36.2378L39.2042 35.7986ZM28.9427 35.7434L28.7037 35.3042L28.6022 35.3595L28.8412 35.7986L29.0803 36.2378L29.1818 36.1825L28.9427 35.7434ZM25.9776 28.5986L25.7385 29.0378C26.3902 29.3925 26.3902 30.3282 25.7385 30.6829L25.9776 31.1221L26.2166 31.5612C27.5642 30.8277 27.5642 28.893 26.2166 28.1595L25.9776 28.5986ZM28.9427 35.7434L29.1818 36.1825C29.8477 35.82 30.6591 36.3021 30.6591 37.0604H31.1591H31.6591C31.6591 35.5434 30.036 34.579 28.7037 35.3042L28.9427 35.7434ZM36.8864 37.0604H37.3864C37.3864 36.3021 38.1977 35.82 38.8637 36.1825L39.1027 35.7434L39.3418 35.3042C38.0094 34.579 36.3864 35.5434 36.3864 37.0604H36.8864ZM42.0678 31.1221L42.3069 30.6829C41.6552 30.3282 41.6552 29.3925 42.3069 29.0378L42.0678 28.5986L41.8288 28.1595C40.4812 28.893 40.4812 30.8277 41.8288 31.5612L42.0678 31.1221ZM28.9427 23.9773L28.7037 24.4165C30.036 25.1417 31.6591 24.1773 31.6591 22.6604H31.1591H30.6591C30.6591 23.4186 29.8477 23.9007 29.1818 23.5382L28.9427 23.9773ZM39.1027 23.9773L38.8637 23.5382C38.1977 23.9007 37.3864 23.4186 37.3864 22.6604H36.8864H36.3864C36.3864 24.1773 38.0094 25.1418 39.3418 24.4165L39.1027 23.9773ZM37.0227 29.8604H36.5227C36.5227 31.2411 35.4034 32.3604 34.0227 32.3604V32.8604V33.3604C35.9557 33.3604 37.5227 31.7933 37.5227 29.8604H37.0227ZM34.0227 32.8604V32.3604C32.642 32.3604 31.5227 31.2411 31.5227 29.8604H31.0227H30.5227C30.5227 31.7933 32.0897 33.3604 34.0227 33.3604V32.8604ZM31.0227 29.8604H31.5227C31.5227 28.4796 32.642 27.3604 34.0227 27.3604V26.8604V26.3604C32.0897 26.3604 30.5227 27.9274 30.5227 29.8604H31.0227ZM34.0227 26.8604V27.3604C35.4034 27.3604 36.5227 28.4796 36.5227 29.8604H37.0227H37.5227C37.5227 27.9274 35.9557 26.3604 34.0227 26.3604V26.8604Z" fill="#888888"/>
</g>
<defs>
<filter id="filter0_d_2108_1051" x="0.162354" y="0" width="67.7207" height="67.7208" filterUnits="userSpaceOnUse" color-interpolation-filters="sRGB">
<feFlood flood-opacity="0" result="BackgroundImageFix"/>
<feColorMatrix in="SourceAlpha" type="matrix" values="0 0 0 0 0 0 0 0 0 0 0 0 0 0 0 0 0 0 127 0" result="hardAlpha"/>
<feOffset dy="4"/>
<feGaussianBlur stdDeviation="7.5"/>
<feComposite in2="hardAlpha" operator="out"/>
<feColorMatrix type="matrix" values="0 0 0 0 0.183333 0 0 0 0 0.183333 0 0 0 0 0.183333 0 0 0 0.25 0"/>
<feBlend mode="normal" in2="BackgroundImageFix" result="effect1_dropShadow_2108_1051"/>
<feBlend mode="normal" in="SourceGraphic" in2="effect1_dropShadow_2108_1051" result="shape"/>
</filter>
</defs>
</svg>
