<svg width="69" height="68" viewBox="0 0 69 68" fill="none" xmlns="http://www.w3.org/2000/svg">
<g filter="url(#filter0_d_2108_1101)">
<rect x="15.4414" y="11" width="37.7208" height="37.7208" rx="3" fill="#3D3D3D" shape-rendering="crispEdges"/>
<path d="M38.3018 25.8604H30.3018M38.3018 25.8604C40.5109 25.8604 42.3018 27.6512 42.3018 29.8604V35.8604C42.3018 38.0695 40.5109 39.8604 38.3018 39.8604H30.3018C28.0926 39.8604 26.3018 38.0695 26.3018 35.8604V29.8604C26.3018 27.6512 28.0926 25.8604 30.3018 25.8604M38.3018 25.8604V23.8604C38.3018 21.6512 36.5109 19.8604 34.3018 19.8604C32.0926 19.8604 30.3018 21.6512 30.3018 23.8604V25.8604M36.3018 32.8604C36.3018 33.9649 35.4063 34.8604 34.3018 34.8604C33.1972 34.8604 32.3018 33.9649 32.3018 32.8604C32.3018 31.7558 33.1972 30.8604 34.3018 30.8604C35.4063 30.8604 36.3018 31.7558 36.3018 32.8604Z" stroke="#888888" stroke-linecap="round" stroke-linejoin="round"/>
</g>
<defs>
<filter id="filter0_d_2108_1101" x="0.441406" y="0" width="67.7207" height="67.7208" filterUnits="userSpaceOnUse" color-interpolation-filters="sRGB">
<feFlood flood-opacity="0" result="BackgroundImageFix"/>
<feColorMatrix in="SourceAlpha" type="matrix" values="0 0 0 0 0 0 0 0 0 0 0 0 0 0 0 0 0 0 127 0" result="hardAlpha"/>
<feOffset dy="4"/>
<feGaussianBlur stdDeviation="7.5"/>
<feComposite in2="hardAlpha" operator="out"/>
<feColorMatrix type="matrix" values="0 0 0 0 0.183333 0 0 0 0 0.183333 0 0 0 0 0.183333 0 0 0 0.25 0"/>
<feBlend mode="normal" in2="BackgroundImageFix" result="effect1_dropShadow_2108_1101"/>
<feBlend mode="normal" in="SourceGraphic" in2="effect1_dropShadow_2108_1101" result="shape"/>
</filter>
</defs>
</svg>
