<svg width="69" height="68" viewBox="0 0 69 68" fill="none" xmlns="http://www.w3.org/2000/svg">
<g filter="url(#filter0_d_2108_1211)">
<rect x="15.604" y="11" width="37.7208" height="37.7208" rx="3" fill="#3D3D3D" shape-rendering="crispEdges"/>
<path d="M36.4644 34.8604C36.4644 33.7558 35.5689 32.8604 34.4644 32.8604C33.3598 32.8604 32.4644 33.7558 32.4644 34.8604C32.4644 35.9649 33.3598 36.8604 34.4644 36.8604C35.5689 36.8604 36.4644 35.9649 36.4644 34.8604Z" fill="#888888"/>
<path d="M40.4644 21.3604C40.1882 21.3604 39.9644 21.5842 39.9644 21.8604C39.9644 22.1365 40.1882 22.3604 40.4644 22.3604V21.3604ZM44.4644 22.3604C44.7405 22.3604 44.9644 22.1365 44.9644 21.8604C44.9644 21.5842 44.7405 21.3604 44.4644 21.3604V22.3604ZM37.4644 30.86H36.9644C36.9644 31.0172 37.0383 31.1653 37.1641 31.2598L37.4644 30.86ZM31.4644 30.86L31.7646 31.2598C31.8904 31.1653 31.9644 31.0172 31.9644 30.86H31.4644ZM33.9644 34.8604C33.9644 35.1365 34.1882 35.3604 34.4644 35.3604C34.7405 35.3604 34.9644 35.1365 34.9644 34.8604H33.9644ZM34.9644 30.8604C34.9644 30.5842 34.7405 30.3604 34.4644 30.3604C34.1882 30.3604 33.9644 30.5842 33.9644 30.8604H34.9644ZM40.4644 21.8604V22.3604H44.4644V21.8604V21.3604L40.4644 21.3604V21.8604ZM39.4644 34.8604H38.9644C38.9644 37.3456 36.9496 39.3604 34.4644 39.3604V39.8604V40.3604C37.5019 40.3604 39.9644 37.8979 39.9644 34.8604H39.4644ZM34.4644 39.8604V39.3604C31.9791 39.3604 29.9644 37.3456 29.9644 34.8604H29.4644H28.9644C28.9644 37.8979 31.4268 40.3604 34.4644 40.3604V39.8604ZM34.4644 19.8604V20.3604C35.8451 20.3604 36.9644 21.4796 36.9644 22.8604H37.4644H37.9644C37.9644 20.9274 36.3974 19.3604 34.4644 19.3604V19.8604ZM34.4644 19.8604V19.3604C32.5314 19.3604 30.9644 20.9274 30.9644 22.8604H31.4644H31.9644C31.9644 21.4796 33.0836 20.3604 34.4644 20.3604V19.8604ZM37.4644 22.8604H36.9644V30.86H37.4644H37.9644V22.8604H37.4644ZM37.4644 30.86L37.1641 31.2598C38.2582 32.0816 38.9644 33.3884 38.9644 34.8604H39.4644H39.9644C39.9644 33.0606 39.0994 31.4628 37.7646 30.4602L37.4644 30.86ZM31.4644 30.86H31.9644V22.8604H31.4644H30.9644V30.86H31.4644ZM29.4644 34.8604H29.9644C29.9644 33.3884 30.6705 32.0816 31.7646 31.2598L31.4644 30.86L31.1641 30.4602C29.8293 31.4628 28.9644 33.0606 28.9644 34.8604H29.4644ZM34.4644 34.8604H34.9644V30.8604H34.4644H33.9644V34.8604H34.4644Z" fill="#888888"/>
</g>
<defs>
<filter id="filter0_d_2108_1211" x="0.604004" y="0" width="67.7207" height="67.7207" filterUnits="userSpaceOnUse" color-interpolation-filters="sRGB">
<feFlood flood-opacity="0" result="BackgroundImageFix"/>
<feColorMatrix in="SourceAlpha" type="matrix" values="0 0 0 0 0 0 0 0 0 0 0 0 0 0 0 0 0 0 127 0" result="hardAlpha"/>
<feOffset dy="4"/>
<feGaussianBlur stdDeviation="7.5"/>
<feComposite in2="hardAlpha" operator="out"/>
<feColorMatrix type="matrix" values="0 0 0 0 0.183333 0 0 0 0 0.183333 0 0 0 0 0.183333 0 0 0 0.25 0"/>
<feBlend mode="normal" in2="BackgroundImageFix" result="effect1_dropShadow_2108_1211"/>
<feBlend mode="normal" in="SourceGraphic" in2="effect1_dropShadow_2108_1211" result="shape"/>
</filter>
</defs>
</svg>
