<svg width="68" height="68" viewBox="0 0 68 68" fill="none" xmlns="http://www.w3.org/2000/svg">
<g filter="url(#filter0_d_2108_1097)">
<rect x="15" y="11" width="37.7208" height="37.7208" rx="3" fill="#3D3D3D" shape-rendering="crispEdges"/>
<path d="M24.8604 22.8604H31.8604M31.8604 22.8604C31.8604 23.9649 32.7558 24.8604 33.8604 24.8604C34.9649 24.8604 35.8604 23.9649 35.8604 22.8604M31.8604 22.8604C31.8604 21.7558 32.7558 20.8604 33.8604 20.8604C34.9649 20.8604 35.8604 21.7558 35.8604 22.8604M24.8604 29.8604H33.8604M40.8604 29.8604H42.8604M40.8604 29.8604C40.8604 30.9649 39.9649 31.8604 38.8604 31.8604C37.7558 31.8604 36.8604 30.9649 36.8604 29.8604C36.8604 28.7558 37.7558 27.8604 38.8604 27.8604C39.9649 27.8604 40.8604 28.7558 40.8604 29.8604ZM35.8604 22.8604H42.8604M33.8604 36.8604H42.8604M24.8604 36.8604H26.8604M26.8604 36.8604C26.8604 37.9649 27.7558 38.8604 28.8604 38.8604C29.9649 38.8604 30.8604 37.9649 30.8604 36.8604C30.8604 35.7558 29.9649 34.8604 28.8604 34.8604C27.7558 34.8604 26.8604 35.7558 26.8604 36.8604Z" stroke="#888888" stroke-linecap="round"/>
</g>
<defs>
<filter id="filter0_d_2108_1097" x="0" y="0" width="67.7207" height="67.7208" filterUnits="userSpaceOnUse" color-interpolation-filters="sRGB">
<feFlood flood-opacity="0" result="BackgroundImageFix"/>
<feColorMatrix in="SourceAlpha" type="matrix" values="0 0 0 0 0 0 0 0 0 0 0 0 0 0 0 0 0 0 127 0" result="hardAlpha"/>
<feOffset dy="4"/>
<feGaussianBlur stdDeviation="7.5"/>
<feComposite in2="hardAlpha" operator="out"/>
<feColorMatrix type="matrix" values="0 0 0 0 0.183333 0 0 0 0 0.183333 0 0 0 0 0.183333 0 0 0 0.25 0"/>
<feBlend mode="normal" in2="BackgroundImageFix" result="effect1_dropShadow_2108_1097"/>
<feBlend mode="normal" in="SourceGraphic" in2="effect1_dropShadow_2108_1097" result="shape"/>
</filter>
</defs>
</svg>
