<svg width="68" height="68" viewBox="0 0 68 68" fill="none" xmlns="http://www.w3.org/2000/svg">
<g filter="url(#filter0_d_2108_1266)">
<rect x="15" y="11" width="37.7208" height="37.7208" rx="3" fill="#3D3D3D" shape-rendering="crispEdges"/>
<path d="M36.8604 27.8604L35.5675 29.1532C35.1769 29.5438 35.1769 30.1769 35.5675 30.5675L36.8604 31.8604M35.8604 29.8604L43.8604 29.8604M27.8604 37.8604C25.6512 37.8604 23.8604 36.0695 23.8604 33.8604V25.8604C23.8604 23.6512 25.6512 21.8604 27.8604 21.8604M27.8604 37.8604C30.0695 37.8604 31.8604 36.0695 31.8604 33.8604V25.8604C31.8604 23.6512 30.0695 21.8604 27.8604 21.8604M27.8604 37.8604H35.8604C38.0695 37.8604 39.8604 36.0695 39.8604 33.8604M27.8604 21.8604H35.8604C38.0695 21.8604 39.8604 23.6512 39.8604 25.8604" stroke="#888888" stroke-linecap="round"/>
</g>
<defs>
<filter id="filter0_d_2108_1266" x="0" y="0" width="67.7207" height="67.7208" filterUnits="userSpaceOnUse" color-interpolation-filters="sRGB">
<feFlood flood-opacity="0" result="BackgroundImageFix"/>
<feColorMatrix in="SourceAlpha" type="matrix" values="0 0 0 0 0 0 0 0 0 0 0 0 0 0 0 0 0 0 127 0" result="hardAlpha"/>
<feOffset dy="4"/>
<feGaussianBlur stdDeviation="7.5"/>
<feComposite in2="hardAlpha" operator="out"/>
<feColorMatrix type="matrix" values="0 0 0 0 0.183333 0 0 0 0 0.183333 0 0 0 0 0.183333 0 0 0 0.25 0"/>
<feBlend mode="normal" in2="BackgroundImageFix" result="effect1_dropShadow_2108_1266"/>
<feBlend mode="normal" in="SourceGraphic" in2="effect1_dropShadow_2108_1266" result="shape"/>
</filter>
</defs>
</svg>
