<svg width="69" height="68" viewBox="0 0 69 68" fill="none" xmlns="http://www.w3.org/2000/svg">
<g filter="url(#filter0_d_2108_1248)">
<rect x="15.8831" y="11" width="37.7208" height="37.7208" rx="3" fill="#3D3D3D" shape-rendering="crispEdges"/>
<path d="M34.7434 39.8604C40.2663 39.8604 44.7434 35.3832 44.7434 29.8604C44.7434 24.3375 40.2663 19.8604 34.7434 19.8604C29.2206 19.8604 24.7434 24.3375 24.7434 29.8604C24.7434 31.3718 25.0788 32.8049 25.6791 34.0894L24.9664 38.4848C24.8569 39.1603 25.4429 39.7438 26.1179 39.6313L30.4733 38.9054C31.7682 39.5178 33.2158 39.8604 34.7434 39.8604Z" stroke="#888888" stroke-linecap="square" stroke-linejoin="round"/>
<path d="M38.7434 32.9715V32.5353C38.7434 31.9934 38.4135 31.5062 37.9104 31.3049L37.4439 31.1183C36.9224 30.9097 36.328 31.1357 36.0767 31.6381C36.0767 31.6381 34.9656 31.4159 34.0767 30.527C33.1879 29.6381 32.9656 28.527 32.9656 28.527C33.4681 28.2758 33.6941 27.6814 33.4854 27.1598L33.2988 26.6933C33.0976 26.1902 32.6103 25.8604 32.0685 25.8604H31.6323C31.1414 25.8604 30.7434 26.2583 30.7434 26.7492C30.7434 30.6766 33.9272 33.8604 37.8545 33.8604C38.3454 33.8604 38.7434 33.4624 38.7434 32.9715Z" fill="#888888"/>
</g>
<defs>
<filter id="filter0_d_2108_1248" x="0.883057" y="0" width="67.7209" height="67.7207" filterUnits="userSpaceOnUse" color-interpolation-filters="sRGB">
<feFlood flood-opacity="0" result="BackgroundImageFix"/>
<feColorMatrix in="SourceAlpha" type="matrix" values="0 0 0 0 0 0 0 0 0 0 0 0 0 0 0 0 0 0 127 0" result="hardAlpha"/>
<feOffset dy="4"/>
<feGaussianBlur stdDeviation="7.5"/>
<feComposite in2="hardAlpha" operator="out"/>
<feColorMatrix type="matrix" values="0 0 0 0 0.183333 0 0 0 0 0.183333 0 0 0 0 0.183333 0 0 0 0.25 0"/>
<feBlend mode="normal" in2="BackgroundImageFix" result="effect1_dropShadow_2108_1248"/>
<feBlend mode="normal" in="SourceGraphic" in2="effect1_dropShadow_2108_1248" result="shape"/>
</filter>
</defs>
</svg>
