<svg width="69" height="68" viewBox="0 0 69 68" fill="none" xmlns="http://www.w3.org/2000/svg">
<g filter="url(#filter0_d_2108_1157)">
<rect x="15.8831" y="11" width="37.7208" height="37.7208" rx="3" fill="#3D3D3D" shape-rendering="crispEdges"/>
<path d="M29.7434 23.8604V24.3604C29.9106 24.3604 30.0667 24.2768 30.1594 24.1377L29.7434 23.8604ZM31.1497 21.751L30.7337 21.4736L31.1497 21.751ZM38.3371 21.751L38.7532 21.4736L38.3371 21.751ZM39.7434 23.8604L39.3274 24.1377C39.4201 24.2768 39.5762 24.3604 39.7434 24.3604V23.8604ZM37.7434 31.3604H37.2434C37.2434 32.7411 36.1241 33.8604 34.7434 33.8604V34.3604V34.8604C36.6764 34.8604 38.2434 33.2933 38.2434 31.3604H37.7434ZM34.7434 34.3604V33.8604C33.3627 33.8604 32.2434 32.7411 32.2434 31.3604H31.7434H31.2434C31.2434 33.2933 32.8104 34.8604 34.7434 34.8604V34.3604ZM31.7434 31.3604H32.2434C32.2434 29.9796 33.3627 28.8604 34.7434 28.8604V28.3604V27.8604C32.8104 27.8604 31.2434 29.4274 31.2434 31.3604H31.7434ZM34.7434 28.3604V28.8604C36.1241 28.8604 37.2434 29.9796 37.2434 31.3604H37.7434H38.2434C38.2434 29.4274 36.6764 27.8604 34.7434 27.8604V28.3604ZM29.7434 23.8604L30.1594 24.1377L31.5657 22.0283L31.1497 21.751L30.7337 21.4736L29.3274 23.583L29.7434 23.8604ZM32.8138 20.8604V21.3604H36.673V20.8604V20.3604H32.8138V20.8604ZM38.3371 21.751L37.9211 22.0283L39.3274 24.1377L39.7434 23.8604L40.1594 23.583L38.7532 21.4736L38.3371 21.751ZM36.673 20.8604V21.3604C37.1746 21.3604 37.6429 21.611 37.9211 22.0283L38.3371 21.751L38.7532 21.4736C38.2895 20.7781 37.5089 20.3604 36.673 20.3604V20.8604ZM31.1497 21.751L31.5657 22.0283C31.8439 21.611 32.3122 21.3604 32.8138 21.3604V20.8604V20.3604C31.9779 20.3604 31.1973 20.7781 30.7337 21.4736L31.1497 21.751ZM44.7434 27.8604H44.2434V34.8604H44.7434H45.2434V27.8604H44.7434ZM40.7434 38.8604V38.3604H28.7434V38.8604V39.3604H40.7434V38.8604ZM24.7434 34.8604H25.2434V27.8604H24.7434H24.2434V34.8604H24.7434ZM28.7434 38.8604V38.3604C26.8104 38.3604 25.2434 36.7933 25.2434 34.8604H24.7434H24.2434C24.2434 37.3456 26.2581 39.3604 28.7434 39.3604V38.8604ZM44.7434 34.8604H44.2434C44.2434 36.7933 42.6764 38.3604 40.7434 38.3604V38.8604V39.3604C43.2287 39.3604 45.2434 37.3456 45.2434 34.8604H44.7434ZM40.7434 23.8604V24.3604C42.6764 24.3604 44.2434 25.9274 44.2434 27.8604H44.7434H45.2434C45.2434 25.3751 43.2287 23.3604 40.7434 23.3604V23.8604ZM28.7434 23.8604V23.3604C26.2581 23.3604 24.2434 25.3751 24.2434 27.8604H24.7434H25.2434C25.2434 25.9274 26.8104 24.3604 28.7434 24.3604V23.8604ZM28.7434 23.8604V24.3604H29.7434V23.8604V23.3604H28.7434V23.8604ZM40.7434 23.8604V23.3604H39.7434V23.8604V24.3604H40.7434V23.8604Z" fill="#888888"/>
<circle cx="34.7434" cy="23.8604" r="1" fill="#888888"/>
</g>
<defs>
<filter id="filter0_d_2108_1157" x="0.883057" y="0" width="67.7209" height="67.7208" filterUnits="userSpaceOnUse" color-interpolation-filters="sRGB">
<feFlood flood-opacity="0" result="BackgroundImageFix"/>
<feColorMatrix in="SourceAlpha" type="matrix" values="0 0 0 0 0 0 0 0 0 0 0 0 0 0 0 0 0 0 127 0" result="hardAlpha"/>
<feOffset dy="4"/>
<feGaussianBlur stdDeviation="7.5"/>
<feComposite in2="hardAlpha" operator="out"/>
<feColorMatrix type="matrix" values="0 0 0 0 0.183333 0 0 0 0 0.183333 0 0 0 0 0.183333 0 0 0 0.25 0"/>
<feBlend mode="normal" in2="BackgroundImageFix" result="effect1_dropShadow_2108_1157"/>
<feBlend mode="normal" in="SourceGraphic" in2="effect1_dropShadow_2108_1157" result="shape"/>
</filter>
</defs>
</svg>
