<svg width="68" height="68" viewBox="0 0 68 68" fill="none" xmlns="http://www.w3.org/2000/svg">
<g filter="url(#filter0_d_2108_1123)">
<rect x="15" y="11" width="37.7208" height="37.7208" rx="3" fill="#3D3D3D" shape-rendering="crispEdges"/>
<path d="M42.8604 33.8604V35.8604C42.8604 37.5172 41.5172 38.8604 39.8604 38.8604C38.2035 38.8604 36.8604 37.5172 36.8604 35.8604V33.8604C36.8604 32.2035 38.2035 30.8604 39.8604 30.8604C41.5172 30.8604 42.8604 32.2035 42.8604 33.8604ZM42.8604 33.8604V29.8604C42.8604 24.8898 38.8309 20.8604 33.8604 20.8604C28.8898 20.8604 24.8604 24.8898 24.8604 29.8604V33.8604M24.8604 33.8604V35.8604C24.8604 37.5172 26.2035 38.8604 27.8604 38.8604C29.5172 38.8604 30.8604 37.5172 30.8604 35.8604V33.8604C30.8604 32.2035 29.5172 30.8604 27.8604 30.8604C26.2035 30.8604 24.8604 32.2035 24.8604 33.8604Z" stroke="#888888" stroke-linecap="square" stroke-linejoin="round"/>
</g>
<defs>
<filter id="filter0_d_2108_1123" x="0" y="0" width="67.7207" height="67.7207" filterUnits="userSpaceOnUse" color-interpolation-filters="sRGB">
<feFlood flood-opacity="0" result="BackgroundImageFix"/>
<feColorMatrix in="SourceAlpha" type="matrix" values="0 0 0 0 0 0 0 0 0 0 0 0 0 0 0 0 0 0 127 0" result="hardAlpha"/>
<feOffset dy="4"/>
<feGaussianBlur stdDeviation="7.5"/>
<feComposite in2="hardAlpha" operator="out"/>
<feColorMatrix type="matrix" values="0 0 0 0 0.183333 0 0 0 0 0.183333 0 0 0 0 0.183333 0 0 0 0.25 0"/>
<feBlend mode="normal" in2="BackgroundImageFix" result="effect1_dropShadow_2108_1123"/>
<feBlend mode="normal" in="SourceGraphic" in2="effect1_dropShadow_2108_1123" result="shape"/>
</filter>
</defs>
</svg>
