<svg width="69" height="68" viewBox="0 0 69 68" fill="none" xmlns="http://www.w3.org/2000/svg">
<g filter="url(#filter0_d_2108_1040)">
<rect x="15.8831" y="11" width="37.7208" height="37.7208" rx="3" fill="#3D3D3D" shape-rendering="crispEdges"/>
<path d="M28.7434 25.8604H26.7434C25.6388 25.8604 24.7434 26.7558 24.7434 27.8604V36.8604C24.7434 37.965 25.6388 38.8604 26.7434 38.8604H28.7434C29.848 38.8604 30.7434 37.965 30.7434 36.8604V27.8604C30.7434 26.7558 29.848 25.8604 28.7434 25.8604Z" stroke="#888888" stroke-linecap="round" stroke-linejoin="round"/>
<path d="M38.6203 38.8604H34.9545C34.1648 38.8604 33.3928 38.6266 32.7357 38.1886L31.1887 37.1572C30.9105 36.9718 30.7434 36.6596 30.7434 36.3252V28.1259C30.7434 27.9519 30.7888 27.7809 30.8752 27.6298L34.7434 20.8604H36.0721C38.0689 20.8604 39.2598 23.0857 38.1522 24.7471L36.7434 26.8604H42.1819C43.483 26.8604 44.4377 28.0832 44.1221 29.3455L42.5009 35.8305C42.0557 37.6112 40.4558 38.8604 38.6203 38.8604Z" stroke="#888888" stroke-linecap="round" stroke-linejoin="round"/>
</g>
<defs>
<filter id="filter0_d_2108_1040" x="0.883057" y="0" width="67.7209" height="67.7208" filterUnits="userSpaceOnUse" color-interpolation-filters="sRGB">
<feFlood flood-opacity="0" result="BackgroundImageFix"/>
<feColorMatrix in="SourceAlpha" type="matrix" values="0 0 0 0 0 0 0 0 0 0 0 0 0 0 0 0 0 0 127 0" result="hardAlpha"/>
<feOffset dy="4"/>
<feGaussianBlur stdDeviation="7.5"/>
<feComposite in2="hardAlpha" operator="out"/>
<feColorMatrix type="matrix" values="0 0 0 0 0.183333 0 0 0 0 0.183333 0 0 0 0 0.183333 0 0 0 0.25 0"/>
<feBlend mode="normal" in2="BackgroundImageFix" result="effect1_dropShadow_2108_1040"/>
<feBlend mode="normal" in="SourceGraphic" in2="effect1_dropShadow_2108_1040" result="shape"/>
</filter>
</defs>
</svg>
