<svg width="68" height="68" viewBox="0 0 68 68" fill="none" xmlns="http://www.w3.org/2000/svg">
<g filter="url(#filter0_d_2108_1071)">
<rect x="15" y="11" width="37.7208" height="37.7208" rx="3" fill="#3D3D3D" shape-rendering="crispEdges"/>
<path d="M29.8604 27.8604H37.8604M29.8604 31.8604H37.8604M29.8604 35.8604H33.8604M29.8604 21.8604C29.8604 22.9649 30.7558 23.8604 31.8604 23.8604H35.8604C36.9649 23.8604 37.8604 22.9649 37.8604 21.8604M29.8604 21.8604C29.8604 20.7558 30.7558 19.8604 31.8604 19.8604H35.8604C36.9649 19.8604 37.8604 20.7558 37.8604 21.8604M29.8604 21.8604H28.8604C26.6512 21.8604 24.8604 23.6512 24.8604 25.8604V35.8604C24.8604 38.0695 26.6512 39.8604 28.8604 39.8604H38.8604C41.0695 39.8604 42.8604 38.0695 42.8604 35.8604V25.8604C42.8604 23.6512 41.0695 21.8604 38.8604 21.8604H37.8604" stroke="#888888" stroke-linecap="round"/>
</g>
<defs>
<filter id="filter0_d_2108_1071" x="0" y="0" width="67.7207" height="67.7208" filterUnits="userSpaceOnUse" color-interpolation-filters="sRGB">
<feFlood flood-opacity="0" result="BackgroundImageFix"/>
<feColorMatrix in="SourceAlpha" type="matrix" values="0 0 0 0 0 0 0 0 0 0 0 0 0 0 0 0 0 0 127 0" result="hardAlpha"/>
<feOffset dy="4"/>
<feGaussianBlur stdDeviation="7.5"/>
<feComposite in2="hardAlpha" operator="out"/>
<feColorMatrix type="matrix" values="0 0 0 0 0.183333 0 0 0 0 0.183333 0 0 0 0 0.183333 0 0 0 0.25 0"/>
<feBlend mode="normal" in2="BackgroundImageFix" result="effect1_dropShadow_2108_1071"/>
<feBlend mode="normal" in="SourceGraphic" in2="effect1_dropShadow_2108_1071" result="shape"/>
</filter>
</defs>
</svg>
