<svg width="69" height="68" viewBox="0 0 69 68" fill="none" xmlns="http://www.w3.org/2000/svg">
<g filter="url(#filter0_d_2108_1196)">
<rect x="15.8831" y="11" width="37.7208" height="37.7208" rx="3" fill="#3D3D3D" shape-rendering="crispEdges"/>
<path d="M34.7434 19.8604V20.8604M34.7434 38.8604V39.8604M41.8145 22.7893L41.1074 23.4964M28.3795 36.2243L27.6723 36.9314M44.7434 29.8604H43.7434M25.7434 29.8604H24.7434M41.8145 36.9314L41.1073 36.2243M28.3795 23.4964L27.6723 22.7893M40.7434 29.8604C40.7434 33.1741 38.0571 35.8604 34.7434 35.8604C31.4297 35.8604 28.7434 33.1741 28.7434 29.8604C28.7434 26.5466 31.4297 23.8604 34.7434 23.8604C38.0571 23.8604 40.7434 26.5466 40.7434 29.8604Z" stroke="#888888" stroke-linecap="round"/>
</g>
<defs>
<filter id="filter0_d_2108_1196" x="0.883057" y="0" width="67.7209" height="67.7208" filterUnits="userSpaceOnUse" color-interpolation-filters="sRGB">
<feFlood flood-opacity="0" result="BackgroundImageFix"/>
<feColorMatrix in="SourceAlpha" type="matrix" values="0 0 0 0 0 0 0 0 0 0 0 0 0 0 0 0 0 0 127 0" result="hardAlpha"/>
<feOffset dy="4"/>
<feGaussianBlur stdDeviation="7.5"/>
<feComposite in2="hardAlpha" operator="out"/>
<feColorMatrix type="matrix" values="0 0 0 0 0.183333 0 0 0 0 0.183333 0 0 0 0 0.183333 0 0 0 0.25 0"/>
<feBlend mode="normal" in2="BackgroundImageFix" result="effect1_dropShadow_2108_1196"/>
<feBlend mode="normal" in="SourceGraphic" in2="effect1_dropShadow_2108_1196" result="shape"/>
</filter>
</defs>
</svg>
