<svg width="68" height="68" viewBox="0 0 68 68" fill="none" xmlns="http://www.w3.org/2000/svg">
<g filter="url(#filter0_d_2108_1155)">
<rect x="15.1624" y="11" width="37.7208" height="37.7208" rx="3" fill="#3D3D3D" shape-rendering="crispEdges"/>
<path d="M35.0227 19.8604V23.8604C35.0227 26.0695 36.8136 27.8604 39.0227 27.8604L43.0227 27.8604M25.0227 23.8604L25.0227 35.8604C25.0227 38.0695 26.8136 39.8604 29.0227 39.8604H39.0227C41.2318 39.8604 43.0227 38.0695 43.0227 35.8604V29.5172C43.0227 28.4563 42.6013 27.4389 41.8511 26.6888L36.1943 21.0319C35.4441 20.2818 34.4267 19.8604 33.3659 19.8604L29.0227 19.8604C26.8136 19.8604 25.0227 21.6512 25.0227 23.8604Z" stroke="#888888" stroke-linejoin="round"/>
<path d="M28.0227 35.8604V31.5654H29.4143C29.9417 31.5654 30.2854 31.5869 30.4456 31.6299C30.6917 31.6943 30.8977 31.835 31.0637 32.0518C31.2297 32.2666 31.3127 32.5449 31.3127 32.8867C31.3127 33.1504 31.2649 33.3721 31.1692 33.5518C31.0735 33.7314 30.9514 33.873 30.803 33.9766C30.6565 34.0781 30.5071 34.1455 30.3547 34.1787C30.1477 34.2197 29.8479 34.2402 29.4553 34.2402H28.8899V35.8604H28.0227ZM28.8899 32.292V33.5107H29.3645C29.7063 33.5107 29.9348 33.4883 30.05 33.4434C30.1653 33.3984 30.2551 33.3281 30.3196 33.2324C30.386 33.1367 30.4192 33.0254 30.4192 32.8984C30.4192 32.7422 30.3733 32.6133 30.2815 32.5117C30.1897 32.4102 30.0735 32.3467 29.9329 32.3213C29.8293 32.3018 29.6213 32.292 29.3088 32.292H28.8899Z" fill="#888888"/>
<path d="M32.0334 35.8604V31.5654H32.8772L34.635 34.4336V31.5654H35.4407V35.8604H34.5706L32.8391 33.0596V35.8604H32.0334Z" fill="#888888"/>
<path d="M38.3586 34.2812V33.5576H40.2278V35.2686C40.0461 35.4443 39.7825 35.5996 39.4368 35.7344C39.093 35.8672 38.7444 35.9336 38.3909 35.9336C37.9417 35.9336 37.55 35.8398 37.2161 35.6523C36.8821 35.4629 36.6311 35.1934 36.4631 34.8438C36.2952 34.4922 36.2112 34.1104 36.2112 33.6982C36.2112 33.251 36.3049 32.8535 36.4924 32.5059C36.6799 32.1582 36.9543 31.8916 37.3157 31.7061C37.5911 31.5635 37.9338 31.4922 38.344 31.4922C38.8772 31.4922 39.2932 31.6045 39.592 31.8291C39.8928 32.0518 40.0862 32.3604 40.1721 32.7549L39.3108 32.916C39.2502 32.7051 39.136 32.5391 38.968 32.418C38.802 32.2949 38.594 32.2334 38.344 32.2334C37.9651 32.2334 37.6633 32.3535 37.4387 32.5938C37.2161 32.834 37.1047 33.1904 37.1047 33.6631C37.1047 34.1729 37.218 34.5557 37.4446 34.8115C37.6711 35.0654 37.968 35.1924 38.3352 35.1924C38.5168 35.1924 38.6985 35.1572 38.8801 35.0869C39.0637 35.0146 39.2209 34.9277 39.3518 34.8262V34.2812H38.3586Z" fill="#888888"/>
</g>
<defs>
<filter id="filter0_d_2108_1155" x="0.162354" y="0" width="67.7207" height="67.7208" filterUnits="userSpaceOnUse" color-interpolation-filters="sRGB">
<feFlood flood-opacity="0" result="BackgroundImageFix"/>
<feColorMatrix in="SourceAlpha" type="matrix" values="0 0 0 0 0 0 0 0 0 0 0 0 0 0 0 0 0 0 127 0" result="hardAlpha"/>
<feOffset dy="4"/>
<feGaussianBlur stdDeviation="7.5"/>
<feComposite in2="hardAlpha" operator="out"/>
<feColorMatrix type="matrix" values="0 0 0 0 0.183333 0 0 0 0 0.183333 0 0 0 0 0.183333 0 0 0 0.25 0"/>
<feBlend mode="normal" in2="BackgroundImageFix" result="effect1_dropShadow_2108_1155"/>
<feBlend mode="normal" in="SourceGraphic" in2="effect1_dropShadow_2108_1155" result="shape"/>
</filter>
</defs>
</svg>
