<svg width="68" height="68" viewBox="0 0 68 68" fill="none" xmlns="http://www.w3.org/2000/svg">
<g filter="url(#filter0_d_2108_1240)">
<rect x="15" y="11" width="37.7208" height="37.7208" rx="3" fill="#3D3D3D" shape-rendering="crispEdges"/>
<path d="M38.7956 21.161C37.3394 20.3332 35.6551 19.8604 33.8604 19.8604C31.4001 19.8604 29.1474 20.7488 27.4055 22.2223M38.7956 21.161C34.0044 25.7906 30.9876 32.2446 30.8643 39.4038M38.7956 21.161C41.4042 22.6441 43.2805 25.2668 43.7473 28.3518M27.4055 22.2223C30.0989 26.2262 34.672 28.8604 39.8604 28.8604C41.2046 28.8604 42.5076 28.6835 43.7473 28.3518M27.4055 22.2223C25.2371 24.0567 23.8604 26.7977 23.8604 29.8604C23.8604 34.3394 26.8051 38.1307 30.8643 39.4038M23.8604 30.7139C25.4242 30.1611 27.1072 29.8604 28.8604 29.8604C34.0554 29.8604 38.6336 32.5013 41.3257 36.514M30.8643 39.4038C31.8102 39.7004 32.8166 39.8604 33.8604 39.8604C36.8283 39.8604 39.4943 38.5674 41.3257 36.514M41.3257 36.514C42.9022 34.7464 43.8604 32.4152 43.8604 29.8604C43.8604 29.3476 43.8218 28.8438 43.7473 28.3518" stroke="#888888"/>
</g>
<defs>
<filter id="filter0_d_2108_1240" x="0" y="0" width="67.7207" height="67.7207" filterUnits="userSpaceOnUse" color-interpolation-filters="sRGB">
<feFlood flood-opacity="0" result="BackgroundImageFix"/>
<feColorMatrix in="SourceAlpha" type="matrix" values="0 0 0 0 0 0 0 0 0 0 0 0 0 0 0 0 0 0 127 0" result="hardAlpha"/>
<feOffset dy="4"/>
<feGaussianBlur stdDeviation="7.5"/>
<feComposite in2="hardAlpha" operator="out"/>
<feColorMatrix type="matrix" values="0 0 0 0 0.183333 0 0 0 0 0.183333 0 0 0 0 0.183333 0 0 0 0.25 0"/>
<feBlend mode="normal" in2="BackgroundImageFix" result="effect1_dropShadow_2108_1240"/>
<feBlend mode="normal" in="SourceGraphic" in2="effect1_dropShadow_2108_1240" result="shape"/>
</filter>
</defs>
</svg>
