<svg width="25" height="25" viewBox="0 0 25 25" fill="none" xmlns="http://www.w3.org/2000/svg">
<path d="M14.3018 17.9641C14.3018 16.8595 13.4063 15.9641 12.3018 15.9641C11.1972 15.9641 10.3018 16.8595 10.3018 17.9641C10.3018 19.0687 11.1972 19.9641 12.3018 19.9641C13.4063 19.9641 14.3018 19.0687 14.3018 17.9641Z" fill="#D1D1D1"/>
<path d="M18.3018 4.46411C18.0256 4.46411 17.8018 4.68797 17.8018 4.96411C17.8018 5.24025 18.0256 5.46411 18.3018 5.46411V4.46411ZM22.3018 5.46411C22.5779 5.46411 22.8018 5.24025 22.8018 4.96411C22.8018 4.68797 22.5779 4.46411 22.3018 4.46411V5.46411ZM15.3018 13.9637H14.8018C14.8018 14.121 14.8757 14.2691 15.0015 14.3635L15.3018 13.9637ZM9.30176 13.9637L9.60205 14.3635C9.72778 14.2691 9.80176 14.121 9.80176 13.9637H9.30176ZM11.8018 17.9641C11.8018 18.2403 12.0256 18.4641 12.3018 18.4641C12.5779 18.4641 12.8018 18.2403 12.8018 17.9641H11.8018ZM12.8018 13.9641C12.8018 13.688 12.5779 13.4641 12.3018 13.4641C12.0256 13.4641 11.8018 13.688 11.8018 13.9641H12.8018ZM18.3018 4.96411V5.46411H22.3018V4.96411V4.46411L18.3018 4.46411V4.96411ZM17.3018 17.9641H16.8018C16.8018 20.4494 14.787 22.4641 12.3018 22.4641V22.9641V23.4641C15.3393 23.4641 17.8018 21.0017 17.8018 17.9641H17.3018ZM12.3018 22.9641V22.4641C9.81648 22.4641 7.80176 20.4494 7.80176 17.9641H7.30176H6.80176C6.80176 21.0017 9.26419 23.4641 12.3018 23.4641V22.9641ZM12.3018 2.96411V3.46411C13.6825 3.46411 14.8018 4.5834 14.8018 5.96411H15.3018H15.8018C15.8018 4.03111 14.2348 2.46411 12.3018 2.46411V2.96411ZM12.3018 2.96411V2.46411C10.3688 2.46411 8.80176 4.03111 8.80176 5.96411H9.30176H9.80176C9.80176 4.5834 10.921 3.46411 12.3018 3.46411V2.96411ZM15.3018 5.96411H14.8018V13.9637H15.3018H15.8018V5.96411H15.3018ZM15.3018 13.9637L15.0015 14.3635C16.0956 15.1854 16.8018 16.4922 16.8018 17.9641H17.3018H17.8018C17.8018 16.1644 16.9368 14.5665 15.602 13.564L15.3018 13.9637ZM9.30176 13.9637H9.80176V5.96411H9.30176H8.80176V13.9637H9.30176ZM7.30176 17.9641H7.80176C7.80176 16.4922 8.50792 15.1854 9.60205 14.3635L9.30176 13.9637L9.00147 13.564C7.66671 14.5665 6.80176 16.1644 6.80176 17.9641H7.30176ZM12.3018 17.9641H12.8018V13.9641H12.3018H11.8018V17.9641H12.3018Z" fill="#D1D1D1"/>
</svg>
