<svg width="25" height="25" viewBox="0 0 25 25" fill="none" xmlns="http://www.w3.org/2000/svg">
<path d="M12.698 19.1981V22.1981M12.698 19.1981C8.832 19.1981 5.698 16.0641 5.698 12.1981V11.1981M12.698 19.1981C14.7307 19.1981 16.561 18.3317 17.8398 16.9481M12.698 22.1981H15.698M12.698 22.1981H9.698M3.698 2.94812L21.698 20.9481M19.698 11.1981V12.1981C19.698 13.0213 19.5559 13.8114 19.2949 14.545M16.698 11.9481V6.19812C16.698 3.98898 14.9071 2.19812 12.698 2.19812C11.1424 2.19812 9.79424 3.08609 9.13269 4.38281M8.698 8.19812V12.1981C8.698 14.4073 10.4889 16.1981 12.698 16.1981C13.8464 16.1981 14.8818 15.7142 15.6113 14.9391" stroke="#D1D1D1" stroke-linecap="round" stroke-linejoin="round"/>
</svg>
