<svg width="25" height="25" viewBox="0 0 25 25" fill="none" xmlns="http://www.w3.org/2000/svg">
<path d="M2.4187 2.08118L22.4187 22.0812" stroke="#D1D1D1" stroke-linecap="round"/>
<path d="M3.4187 16.0812C3.4187 14.4243 4.76185 13.0812 6.4187 13.0812C8.07556 13.0812 9.4187 14.4243 9.4187 16.0812V18.0812C9.4187 19.738 8.07556 21.0812 6.4187 21.0812C4.76185 21.0812 3.4187 19.738 3.4187 18.0812V16.0812Z" stroke="#D1D1D1"/>
<path d="M15.9851 18.6476C16.1996 19.5727 16.9263 20.2989 17.8513 20.5138L18.8865 21.549C18.7334 21.5694 18.5774 21.5812 18.4187 21.5812C16.4857 21.5812 14.9187 20.0142 14.9187 18.0812V17.5812L15.9851 18.6476ZM18.4187 12.5812C20.3517 12.5812 21.9187 14.1482 21.9187 16.0812V18.0812C21.9187 18.2398 21.9069 18.3959 21.8865 18.549L20.9187 17.5812V16.0812C20.9187 14.7005 19.7994 13.5812 18.4187 13.5812C17.9854 13.5812 17.5777 13.691 17.2224 13.8849L16.4949 13.1573C17.0469 12.7934 17.708 12.5812 18.4187 12.5812Z" fill="#D1D1D1"/>
<path d="M5.92944 6.59192C4.67539 8.07294 3.9187 9.98855 3.9187 12.0812V16.5812H2.9187V12.0812C2.9187 9.71237 3.78649 7.54675 5.22046 5.88293L5.92944 6.59192ZM12.4187 2.58118C17.6654 2.58118 21.9187 6.83447 21.9187 12.0812V16.5812H20.9187V12.0812C20.9187 7.38676 17.1131 3.58118 12.4187 3.58118C10.8411 3.58118 9.36452 4.012 8.09839 4.76086L7.37085 4.03333C8.83346 3.114 10.5636 2.58118 12.4187 2.58118Z" fill="#D1D1D1"/>
</svg>
