<svg width="25" height="25" viewBox="0 0 25 25" fill="none" xmlns="http://www.w3.org/2000/svg">
<path d="M21.6043 16.5941L21.1779 16.333L21.6043 16.5941ZM20.6497 18.153L21.0761 18.4141L20.6497 18.153ZM4.11644 9.15295L3.69004 8.89184H3.69004L4.11644 9.15295ZM5.07099 7.59411L5.4974 7.85521H5.4974L5.07099 7.59411ZM7.67887 6.93526L7.91792 6.49611L7.91792 6.49611L7.67887 6.93526ZM4.81522 11.6118L4.57617 12.0509H4.57617L4.81522 11.6118ZM18.0418 18.8118L17.8028 19.2509H17.8028L18.0418 18.8118ZM20.9055 14.1353L20.6664 14.5744L20.9055 14.1353ZM5.07099 18.153L4.64458 18.4141H4.64458L5.07099 18.153ZM4.11644 16.5941L4.54285 16.333H4.54285L4.11644 16.5941ZM20.6497 7.59412L21.0761 7.33301V7.33301L20.6497 7.59412ZM21.6043 9.15296L21.1779 9.41407V9.41407L21.6043 9.15296ZM20.9055 11.6118L21.1445 12.051L20.9055 11.6118ZM18.0418 6.93527L18.2809 7.37442L18.0418 6.93527ZM4.81522 14.1353L5.05427 14.5744H5.05427L4.81522 14.1353ZM7.67887 18.8118L7.43981 18.3727L7.43981 18.3727L7.67887 18.8118ZM17.9404 6.99051L17.7013 6.55136L17.9404 6.99051ZM7.78035 6.9905L7.5413 7.42965L7.5413 7.42965L7.78035 6.9905ZM17.9404 18.7566L18.1794 18.3174L18.1794 18.3174L17.9404 18.7566ZM7.78035 18.7566L8.0194 19.1957L8.01941 19.1957L7.78035 18.7566ZM11.9058 3.87354V4.37354H13.8149V3.87354V3.37354H11.9058V3.87354ZM13.8149 21.8735V21.3735H11.9058V21.8735V22.3735H13.8149V21.8735ZM11.9058 21.8735V21.3735C11.0995 21.3735 10.4967 20.7642 10.4967 20.0735H9.9967H9.4967C9.4967 21.3711 10.6034 22.3735 11.9058 22.3735V21.8735ZM15.724 20.0735H15.224C15.224 20.7642 14.6213 21.3735 13.8149 21.3735V21.8735V22.3735C15.1173 22.3735 16.224 21.3711 16.224 20.0735H15.724ZM13.8149 3.87354V4.37354C14.6213 4.37354 15.224 4.98288 15.224 5.67354H15.724H16.224C16.224 4.37597 15.1173 3.37354 13.8149 3.37354V3.87354ZM11.9058 3.87354V3.37354C10.6034 3.37354 9.4967 4.37597 9.4967 5.67354H9.9967H10.4967C10.4967 4.98288 11.0995 4.37354 11.9058 4.37354V3.87354ZM21.6043 16.5941L21.1779 16.333L20.2233 17.8918L20.6497 18.153L21.0761 18.4141L22.0307 16.8552L21.6043 16.5941ZM4.11644 9.15295L4.54285 9.41406L5.4974 7.85521L5.07099 7.59411L4.64458 7.333L3.69004 8.89184L4.11644 9.15295ZM5.07099 7.59411L5.4974 7.85521C5.87889 7.23222 6.74919 6.99846 7.43981 7.37441L7.67887 6.93526L7.91792 6.49611C6.78233 5.87794 5.31746 6.23414 4.64458 7.333L5.07099 7.59411ZM4.81522 11.6118L5.05428 11.1726C4.37925 10.8052 4.17285 10.0183 4.54285 9.41406L4.11644 9.15295L3.69004 8.89184C3.00567 10.0095 3.42498 11.4243 4.57617 12.0509L4.81522 11.6118ZM20.6497 18.153L20.2233 17.8918C19.8418 18.5148 18.9715 18.7486 18.2809 18.3726L18.0418 18.8118L17.8028 19.2509C18.9384 19.8691 20.4032 19.5129 21.0761 18.4141L20.6497 18.153ZM21.6043 16.5941L22.0307 16.8552C22.715 15.7376 22.2957 14.3228 21.1445 13.6961L20.9055 14.1353L20.6664 14.5744C21.3415 14.9419 21.5479 15.7288 21.1779 16.333L21.6043 16.5941ZM5.07099 18.153L5.4974 17.8919L4.54285 16.333L4.11644 16.5941L3.69003 16.8552L4.64458 18.4141L5.07099 18.153ZM20.6497 7.59412L20.2233 7.85523L21.1779 9.41407L21.6043 9.15296L22.0307 8.89186L21.0761 7.33301L20.6497 7.59412ZM21.6043 9.15296L21.1779 9.41407C21.5479 10.0183 21.3415 10.8052 20.6664 11.1727L20.9055 11.6118L21.1445 12.051C22.2957 11.4243 22.715 10.0095 22.0307 8.89186L21.6043 9.15296ZM18.0418 6.93527L18.2809 7.37442C18.9715 6.99848 19.8418 7.23223 20.2233 7.85523L20.6497 7.59412L21.0761 7.33301C20.4032 6.23415 18.9384 5.87796 17.8028 6.49612L18.0418 6.93527ZM4.11644 16.5941L4.54285 16.333C4.17285 15.7288 4.37925 14.9419 5.05427 14.5744L4.81522 14.1353L4.57616 13.6961C3.42498 14.3228 3.00566 15.7376 3.69003 16.8552L4.11644 16.5941ZM5.07099 18.153L4.64458 18.4141C5.31746 19.5129 6.78233 19.8691 7.91792 19.251L7.67887 18.8118L7.43981 18.3727C6.74918 18.7486 5.87888 18.5149 5.4974 17.8919L5.07099 18.153ZM17.9404 6.99051L18.1794 7.42966L18.2809 7.37442L18.0418 6.93527L17.8028 6.49612L17.7013 6.55136L17.9404 6.99051ZM7.67887 6.93526L7.43981 7.37441L7.5413 7.42965L7.78035 6.9905L8.01941 6.55135L7.91792 6.49611L7.67887 6.93526ZM18.0418 18.8118L18.2809 18.3726L18.1794 18.3174L17.9404 18.7566L17.7013 19.1957L17.8028 19.2509L18.0418 18.8118ZM7.78035 18.7566L7.5413 18.3174L7.43981 18.3727L7.67887 18.8118L7.91792 19.251L8.0194 19.1957L7.78035 18.7566ZM4.81522 11.6118L4.57617 12.0509C5.22788 12.4057 5.22788 13.3414 4.57616 13.6961L4.81522 14.1353L5.05427 14.5744C6.40184 13.8409 6.40184 11.9062 5.05428 11.1726L4.81522 11.6118ZM7.78035 18.7566L8.01941 19.1957C8.68539 18.8332 9.4967 19.3153 9.4967 20.0735H9.9967H10.4967C10.4967 18.5566 8.87364 17.5921 7.5413 18.3174L7.78035 18.7566ZM15.724 20.0735H16.224C16.224 19.3153 17.0353 18.8332 17.7013 19.1957L17.9404 18.7566L18.1794 18.3174C16.8471 17.5921 15.224 18.5566 15.224 20.0735H15.724ZM20.9055 14.1353L21.1445 13.6961C20.4928 13.3413 20.4928 12.4057 21.1445 12.051L20.9055 11.6118L20.6664 11.1727C19.3189 11.9062 19.3189 13.8409 20.6664 14.5744L20.9055 14.1353ZM7.78035 6.9905L7.5413 7.42965C8.87364 8.15492 10.4967 7.19049 10.4967 5.67354H9.9967H9.4967C9.4967 6.4318 8.68539 6.91389 8.01941 6.55135L7.78035 6.9905ZM17.9404 6.99051L17.7013 6.55136C17.0353 6.9139 16.224 6.43181 16.224 5.67354H15.724H15.224C15.224 7.1905 16.8471 8.15494 18.1794 7.42966L17.9404 6.99051ZM15.8604 12.8735H15.3604C15.3604 14.2542 14.2411 15.3735 12.8604 15.3735V15.8735V16.3735C14.7934 16.3735 16.3604 14.8065 16.3604 12.8735H15.8604ZM12.8604 15.8735V15.3735C11.4796 15.3735 10.3604 14.2542 10.3604 12.8735H9.86036H9.36036C9.36036 14.8065 10.9274 16.3735 12.8604 16.3735V15.8735ZM9.86036 12.8735H10.3604C10.3604 11.4928 11.4796 10.3735 12.8604 10.3735V9.87354V9.37354C10.9274 9.37354 9.36036 10.9405 9.36036 12.8735H9.86036ZM12.8604 9.87354V10.3735C14.2411 10.3735 15.3604 11.4928 15.3604 12.8735H15.8604H16.3604C16.3604 10.9405 14.7934 9.37354 12.8604 9.37354V9.87354Z" fill="#D1D1D1"/>
</svg>
