<svg width="25" height="25" viewBox="0 0 25 25" fill="none" xmlns="http://www.w3.org/2000/svg">
<path d="M12.1394 14.7566C11.0348 14.7566 10.1394 13.8612 10.1394 12.7566C10.1394 11.652 11.0348 10.7566 12.1394 10.7566C13.244 10.7566 14.1394 11.652 14.1394 12.7566C14.1394 13.8612 13.244 14.7566 12.1394 14.7566Z" stroke="#D1D1D1"/>
<path d="M20.1394 14.7566C19.0348 14.7566 18.1394 13.8612 18.1394 12.7566C18.1394 11.652 19.0348 10.7566 20.1394 10.7566C21.244 10.7566 22.1394 11.652 22.1394 12.7566C22.1394 13.8612 21.244 14.7566 20.1394 14.7566Z" stroke="#D1D1D1"/>
<path d="M4.1394 14.7566C3.03483 14.7566 2.1394 13.8612 2.1394 12.7566C2.1394 11.652 3.03483 10.7566 4.1394 10.7566C5.24397 10.7566 6.1394 11.652 6.1394 12.7566C6.1394 13.8612 5.24397 14.7566 4.1394 14.7566Z" stroke="#D1D1D1"/>
</svg>
