<svg width="25" height="25" viewBox="0 0 25 25" fill="none" xmlns="http://www.w3.org/2000/svg">
<path d="M21.549 10.7266C22.7086 11.9467 22.7086 13.8004 21.549 15.0204C19.5932 17.0782 16.2342 19.8735 12.4187 19.8735C8.60319 19.8735 5.24419 17.0782 3.28841 15.0204C2.1288 13.8004 2.1288 11.9467 3.28841 10.7266C5.24419 8.66887 8.60319 5.87354 12.4187 5.87354C16.2342 5.87354 19.5932 8.66887 21.549 10.7266Z" stroke="#D1D1D1"/>
<path d="M15.4187 12.8735C15.4187 14.5304 14.0756 15.8735 12.4187 15.8735C10.7618 15.8735 9.4187 14.5304 9.4187 12.8735C9.4187 11.2167 10.7618 9.87354 12.4187 9.87354C14.0756 9.87354 15.4187 11.2167 15.4187 12.8735Z" stroke="#D1D1D1"/>
</svg>
