<svg width="25" height="25" viewBox="0 0 25 25" fill="none" xmlns="http://www.w3.org/2000/svg">
<path d="M18.3017 15.1528H20.3017C21.4063 15.1528 22.3017 14.2573 22.3017 13.1528V6.15277C22.3017 5.0482 21.4063 4.15277 20.3017 4.15277H18.3017C17.1972 4.15277 16.3017 5.0482 16.3017 6.15277V13.1528C16.3017 14.2573 17.1972 15.1528 18.3017 15.1528Z" stroke="#D1D1D1" stroke-linecap="round" stroke-linejoin="round"/>
<path d="M8.42484 3.15277H12.0906C12.8803 3.15277 13.6524 3.38652 14.3094 3.82457L15.8564 4.8559C16.1346 5.04137 16.3017 5.3536 16.3017 5.68795V13.8872C16.3017 14.0612 16.2563 14.2322 16.17 14.3833L12.3017 21.1528H10.973C8.97629 21.1528 7.78531 18.9274 8.8929 17.266L10.3017 15.1528H4.86329C3.56215 15.1528 2.60743 13.93 2.923 12.6677L4.54427 6.18263C4.98944 4.40196 6.58937 3.15277 8.42484 3.15277Z" stroke="#D1D1D1" stroke-linecap="round" stroke-linejoin="round"/>
</svg>
