<svg width="25" height="25" viewBox="0 0 25 25" fill="none" xmlns="http://www.w3.org/2000/svg">
<path d="M16.9396 10.3264C16.1987 8.49228 14.4014 7.19812 12.3018 7.19812C9.54033 7.19812 7.30176 9.4367 7.30176 12.1981C7.30176 14.2977 8.59592 16.0951 10.4301 16.836M12.2173 22.1978C6.73335 22.1524 2.30176 17.6928 2.30176 12.1981C2.30176 6.67527 6.77891 2.19812 12.3018 2.19812C17.7964 2.19812 22.2561 6.62971 22.3014 12.1137M12.3591 13.6217L14.9717 21.4596C15.2999 22.4443 16.6928 22.4443 17.0211 21.4596L17.9858 18.5653C18.0933 18.2428 18.3464 17.9897 18.6689 17.8822L21.5632 16.9174C22.5479 16.5892 22.5479 15.1963 21.5632 14.8681L13.7253 12.2554C12.8809 11.974 12.0776 12.7773 12.3591 13.6217Z" stroke="#D1D1D1" stroke-linecap="round" stroke-linejoin="round"/>
</svg>
