<svg width="25" height="25" viewBox="0 0 25 25" fill="none" xmlns="http://www.w3.org/2000/svg">
<path d="M13.4187 2.36035V6.36035C13.4187 8.56949 15.2096 10.3604 17.4187 10.3604L21.4187 10.3604M3.4187 6.36035L3.4187 18.3604C3.4187 20.5695 5.20956 22.3604 7.4187 22.3604H17.4187C19.6278 22.3604 21.4187 20.5695 21.4187 18.3604V12.0172C21.4187 10.9563 20.9973 9.93892 20.2471 9.18878L14.5903 3.53192C13.8401 2.78178 12.8227 2.36035 11.7618 2.36035L7.4187 2.36035C5.20956 2.36035 3.4187 4.15121 3.4187 6.36035Z" stroke="#D1D1D1" stroke-linejoin="round"/>
<path d="M6.32104 13.9922H7.90601C8.26343 13.9922 8.53589 14.0195 8.72339 14.0742C8.97534 14.1484 9.19116 14.2803 9.37085 14.4697C9.55054 14.6592 9.68726 14.8916 9.78101 15.167C9.87476 15.4404 9.92163 15.7783 9.92163 16.1807C9.92163 16.5342 9.87769 16.8389 9.78979 17.0947C9.68237 17.4072 9.52905 17.6602 9.32983 17.8535C9.17944 18 8.97632 18.1143 8.72046 18.1963C8.52905 18.2568 8.27319 18.2871 7.95288 18.2871H6.32104V13.9922ZM7.18823 14.7188V17.5635H7.83569C8.07788 17.5635 8.25269 17.5498 8.36011 17.5225C8.50073 17.4873 8.61694 17.4277 8.70874 17.3438C8.80249 17.2598 8.87866 17.1221 8.93726 16.9307C8.99585 16.7373 9.02515 16.4746 9.02515 16.1426C9.02515 15.8105 8.99585 15.5557 8.93726 15.3779C8.87866 15.2002 8.79663 15.0615 8.69116 14.9619C8.58569 14.8623 8.4519 14.7949 8.28979 14.7598C8.1687 14.7324 7.9314 14.7188 7.57788 14.7188H7.18823Z" fill="#D1D1D1"/>
<path d="M10.4841 16.166C10.4841 15.7285 10.5496 15.3613 10.6804 15.0645C10.7781 14.8457 10.9109 14.6494 11.0789 14.4756C11.2488 14.3018 11.4343 14.1729 11.6355 14.0889C11.9031 13.9756 12.2117 13.9189 12.5613 13.9189C13.1941 13.9189 13.7 14.1152 14.0789 14.5078C14.4597 14.9004 14.6501 15.4463 14.6501 16.1455C14.6501 16.8389 14.4617 17.3818 14.0847 17.7744C13.7078 18.165 13.2039 18.3604 12.573 18.3604C11.9343 18.3604 11.4265 18.166 11.0496 17.7773C10.6726 17.3867 10.4841 16.8496 10.4841 16.166ZM11.3777 16.1367C11.3777 16.623 11.49 16.9922 11.7146 17.2441C11.9392 17.4941 12.2244 17.6191 12.5701 17.6191C12.9158 17.6191 13.199 17.4951 13.4197 17.2471C13.6423 16.9971 13.7537 16.623 13.7537 16.125C13.7537 15.6328 13.6453 15.2656 13.4285 15.0234C13.2136 14.7812 12.9275 14.6602 12.5701 14.6602C12.2126 14.6602 11.9246 14.7832 11.7058 15.0293C11.4871 15.2734 11.3777 15.6426 11.3777 16.1367Z" fill="#D1D1D1"/>
<path d="M18.0779 16.708L18.9187 16.9746C18.7898 17.4434 18.575 17.792 18.2742 18.0205C17.9753 18.2471 17.5955 18.3604 17.1345 18.3604C16.5642 18.3604 16.0955 18.166 15.7283 17.7773C15.3611 17.3867 15.1775 16.8535 15.1775 16.1777C15.1775 15.4629 15.3621 14.9082 15.7312 14.5137C16.1003 14.1172 16.5857 13.9189 17.1873 13.9189C17.7126 13.9189 18.1394 14.0742 18.4675 14.3848C18.6628 14.5684 18.8093 14.832 18.907 15.1758L18.0486 15.3809C17.9978 15.1582 17.8914 14.9824 17.7292 14.8535C17.5691 14.7246 17.3738 14.6602 17.1433 14.6602C16.825 14.6602 16.5662 14.7744 16.3669 15.0029C16.1697 15.2314 16.071 15.6016 16.071 16.1133C16.071 16.6562 16.1687 17.043 16.364 17.2734C16.5593 17.5039 16.8132 17.6191 17.1257 17.6191C17.3562 17.6191 17.5544 17.5459 17.7205 17.3994C17.8865 17.2529 18.0056 17.0225 18.0779 16.708Z" fill="#D1D1D1"/>
</svg>
