<svg width="25" height="25" viewBox="0 0 25 25" fill="none" xmlns="http://www.w3.org/2000/svg">
<path d="M14.5811 17.9641C14.5811 16.8595 13.6856 15.9641 12.5811 15.9641C11.4765 15.9641 10.5811 16.8595 10.5811 17.9641C10.5811 19.0687 11.4765 19.9641 12.5811 19.9641C13.6856 19.9641 14.5811 19.0687 14.5811 17.9641Z" fill="#D1D1D1"/>
<path d="M15.5811 13.9637H15.0811C15.0811 14.121 15.155 14.2691 15.2808 14.3635L15.5811 13.9637ZM9.58105 13.9637L9.88134 14.3635C10.0071 14.2691 10.0811 14.121 10.0811 13.9637H9.58105ZM12.0811 17.9641C12.0811 18.2403 12.3049 18.4641 12.5811 18.4641C12.8572 18.4641 13.0811 18.2403 13.0811 17.9641H12.0811ZM13.0811 5.96411C13.0811 5.68797 12.8572 5.46411 12.5811 5.46411C12.3049 5.46411 12.0811 5.68797 12.0811 5.96411H13.0811ZM20.0811 6.96411C20.0811 7.24025 20.3049 7.46411 20.5811 7.46411C20.8572 7.46411 21.0811 7.24025 21.0811 6.96411H20.0811ZM21.0811 2.96411C21.0811 2.68797 20.8572 2.46411 20.5811 2.46411C20.3049 2.46411 20.0811 2.68797 20.0811 2.96411H21.0811ZM18.5811 4.46411C18.3049 4.46411 18.0811 4.68797 18.0811 4.96411C18.0811 5.24025 18.3049 5.46411 18.5811 5.46411V4.46411ZM22.5811 5.46411C22.8572 5.46411 23.0811 5.24025 23.0811 4.96411C23.0811 4.68797 22.8572 4.46411 22.5811 4.46411V5.46411ZM17.5811 17.9641H17.0811C17.0811 20.4494 15.0663 22.4641 12.5811 22.4641V22.9641V23.4641C15.6186 23.4641 18.0811 21.0017 18.0811 17.9641H17.5811ZM12.5811 22.9641V22.4641C10.0958 22.4641 8.08105 20.4494 8.08105 17.9641H7.58105H7.08105C7.08105 21.0017 9.54349 23.4641 12.5811 23.4641V22.9641ZM12.5811 2.96411V3.46411C13.9618 3.46411 15.0811 4.5834 15.0811 5.96411H15.5811H16.0811C16.0811 4.03111 14.5141 2.46411 12.5811 2.46411V2.96411ZM12.5811 2.96411V2.46411C10.6481 2.46411 9.08105 4.03111 9.08105 5.96411H9.58105H10.0811C10.0811 4.5834 11.2003 3.46411 12.5811 3.46411V2.96411ZM15.5811 5.96411H15.0811V13.9637H15.5811H16.0811V5.96411H15.5811ZM15.5811 13.9637L15.2808 14.3635C16.3749 15.1854 17.0811 16.4922 17.0811 17.9641H17.5811H18.0811C18.0811 16.1644 17.2161 14.5665 15.8813 13.564L15.5811 13.9637ZM9.58105 13.9637H10.0811V5.96411H9.58105H9.08105V13.9637H9.58105ZM7.58105 17.9641H8.08105C8.08105 16.4922 8.78721 15.1854 9.88134 14.3635L9.58105 13.9637L9.28077 13.564C7.946 14.5665 7.08105 16.1644 7.08105 17.9641H7.58105ZM12.5811 17.9641H13.0811V5.96411H12.5811H12.0811V17.9641H12.5811ZM20.5811 6.96411H21.0811V2.96411H20.5811H20.0811V6.96411H20.5811ZM18.5811 4.96411V5.46411H22.5811V4.96411V4.46411L18.5811 4.46411V4.96411Z" fill="#D1D1D1"/>
</svg>
