<svg width="25" height="25" viewBox="0 0 25 25" fill="none" xmlns="http://www.w3.org/2000/svg">
<path d="M8.698 10.3151H16.698M8.698 14.3151H16.698M8.698 18.3151H12.698M8.698 4.31506C8.698 5.41963 9.59343 6.31506 10.698 6.31506H14.698C15.8026 6.31506 16.698 5.41963 16.698 4.31506M8.698 4.31506C8.698 3.21049 9.59343 2.31506 10.698 2.31506H14.698C15.8026 2.31506 16.698 3.21049 16.698 4.31506M8.698 4.31506H7.698C5.48886 4.31506 3.698 6.10592 3.698 8.31506V18.3151C3.698 20.5242 5.48886 22.3151 7.698 22.3151H17.698C19.9071 22.3151 21.698 20.5242 21.698 18.3151V8.31506C21.698 6.10592 19.9071 4.31506 17.698 4.31506H16.698" stroke="#D1D1D1" stroke-linecap="round"/>
</svg>
