<svg width="25" height="25" viewBox="0 0 25 25" fill="none" xmlns="http://www.w3.org/2000/svg">
<path d="M22.8604 12.9188C22.8604 18.4417 18.3832 22.9188 12.8604 22.9188M22.8604 12.9188C22.8604 7.39598 18.3832 2.91882 12.8604 2.91882M22.8604 12.9188C22.8604 11.262 18.3832 9.91882 12.8604 9.91882C7.3375 9.91882 2.86035 11.262 2.86035 12.9188M22.8604 12.9188C22.8604 14.5757 18.3832 15.9188 12.8604 15.9188C7.3375 15.9188 2.86035 14.5757 2.86035 12.9188M12.8604 22.9188C7.3375 22.9188 2.86035 18.4417 2.86035 12.9188M12.8604 22.9188C15.0695 22.9188 16.8604 18.4417 16.8604 12.9188C16.8604 7.39598 15.0695 2.91882 12.8604 2.91882M12.8604 22.9188C10.6512 22.9188 8.86035 18.4417 8.86035 12.9188C8.86035 7.39598 10.6512 2.91882 12.8604 2.91882M2.86035 12.9188C2.86035 7.39598 7.3375 2.91882 12.8604 2.91882" stroke="#D1D1D1"/>
</svg>
