<svg width="25" height="25" viewBox="0 0 25 25" fill="none" xmlns="http://www.w3.org/2000/svg">
<path d="M16.9406 8.44232C18.0264 9.52811 18.698 11.0281 18.698 12.685C18.698 14.3418 18.0264 15.8418 16.9406 16.9276M19.7691 5.61389C21.5787 7.42354 22.698 9.92354 22.698 12.685C22.698 15.4464 21.5787 17.9464 19.7691 19.756M5.62693 19.756C3.81729 17.9464 2.698 15.4464 2.698 12.685C2.698 9.92354 3.81729 7.42354 5.62693 5.61389M8.45536 16.9276C7.36957 15.8418 6.698 14.3418 6.698 12.685C6.698 11.0281 7.36957 9.52811 8.45536 8.44232M14.698 12.6849C14.698 13.7895 13.8026 14.6849 12.698 14.6849C11.5934 14.6849 10.698 13.7895 10.698 12.6849C10.698 11.5804 11.5934 10.6849 12.698 10.6849C13.8026 10.6849 14.698 11.5804 14.698 12.6849Z" stroke="#D1D1D1" stroke-linecap="round" stroke-linejoin="round"/>
</svg>
