<svg width="25" height="25" viewBox="0 0 25 25" fill="none" xmlns="http://www.w3.org/2000/svg">
<path d="M18.1971 3.64887L18.5506 3.29531V3.29531L18.1971 3.64887ZM21.4095 6.86128L21.0559 7.21483L21.4095 6.86128ZM7.08105 22.4773V22.9773H8.08105V22.4773H7.08105ZM17.0811 22.4773V22.9773H18.0811V22.4773H17.0811ZM15.5811 7.97729C15.8572 7.97729 16.0811 7.75344 16.0811 7.47729C16.0811 7.20115 15.8572 6.97729 15.5811 6.97729V7.97729ZM9.58105 6.97729C9.30491 6.97729 9.08105 7.20115 9.08105 7.47729C9.08105 7.75344 9.30491 7.97729 9.58105 7.97729V6.97729ZM22.5811 9.6897H22.0811V18.4773H22.5811H23.0811V9.6897H22.5811ZM18.5811 22.4773V21.9773H6.58105V22.4773V22.9773H18.5811V22.4773ZM2.58105 18.4773H3.08105V6.47729H2.58105H2.08105V18.4773H2.58105ZM6.58106 2.47729V2.97729H15.3686V2.47729V1.97729H6.58106V2.47729ZM18.1971 3.64887L17.8435 4.00242L21.0559 7.21483L21.4095 6.86128L21.763 6.50772L18.5506 3.29531L18.1971 3.64887ZM15.3686 2.47729V2.97729C16.2969 2.97729 17.1871 3.34604 17.8435 4.00242L18.1971 3.64887L18.5506 3.29531C17.7067 2.4514 16.5621 1.97729 15.3686 1.97729V2.47729ZM6.58105 22.4773V21.9773C4.64806 21.9773 3.08105 20.4103 3.08105 18.4773H2.58105H2.08105C2.08105 20.9626 4.09577 22.9773 6.58105 22.9773V22.4773ZM22.5811 18.4773H22.0811C22.0811 20.4103 20.5141 21.9773 18.5811 21.9773V22.4773V22.9773C21.0663 22.9773 23.0811 20.9626 23.0811 18.4773H22.5811ZM22.5811 9.6897H23.0811C23.0811 8.49623 22.6069 7.35164 21.763 6.50772L21.4095 6.86128L21.0559 7.21483C21.7123 7.87121 22.0811 8.76145 22.0811 9.6897H22.5811ZM2.58105 6.47729H3.08105C3.08105 4.5443 4.64806 2.97729 6.58106 2.97729V2.47729V1.97729C4.09577 1.97729 2.08105 3.99201 2.08105 6.47729H2.58105ZM7.58105 22.4773H8.08105V16.4773H7.58105H7.08105V22.4773H7.58105ZM9.58105 14.4773V14.9773H15.5811V14.4773V13.9773H9.58105V14.4773ZM17.5811 16.4773H17.0811V22.4773H17.5811H18.0811V16.4773H17.5811ZM15.5811 14.4773V14.9773C16.4095 14.9773 17.0811 15.6489 17.0811 16.4773H17.5811H18.0811C18.0811 15.0966 16.9618 13.9773 15.5811 13.9773V14.4773ZM7.58105 16.4773H8.08105C8.08105 15.6489 8.75263 14.9773 9.58105 14.9773V14.4773V13.9773C8.20034 13.9773 7.08105 15.0966 7.08105 16.4773H7.58105ZM15.5811 7.47729V6.97729L9.58105 6.97729V7.47729V7.97729L15.5811 7.97729V7.47729Z" fill="#D1D1D1"/>
</svg>
