<svg width="25" height="25" viewBox="0 0 25 25" fill="none" xmlns="http://www.w3.org/2000/svg">
<path d="M8.44141 7.5943H12.4414M8.44141 11.5943H16.4414M8.44141 15.5943H16.4414M5.44141 2.5943H19.4414C20.546 2.5943 21.4414 3.48973 21.4414 4.5943V19.7486C21.4414 21.1339 20.0673 22.0996 18.764 21.6304L17.2022 21.0682C16.7142 20.8925 16.177 20.9133 15.704 21.1261L13.2621 22.225C12.7402 22.4598 12.1426 22.4598 11.6207 22.225L9.17878 21.1261C8.70579 20.9133 8.16862 20.8925 7.68061 21.0682L6.11885 21.6304C4.81552 22.0996 3.44141 21.1339 3.44141 19.7486V4.5943C3.44141 3.48973 4.33684 2.5943 5.44141 2.5943Z" stroke="#D1D1D1" stroke-linecap="round"/>
</svg>
