<svg width="25" height="25" viewBox="0 0 25 25" fill="none" xmlns="http://www.w3.org/2000/svg">
<path d="M15.698 10.6396L14.4051 11.9325C14.0146 12.3231 14.0146 12.9562 14.4051 13.3468L15.698 14.6396M14.698 12.6396L22.698 12.6396M6.698 20.6396C4.48886 20.6396 2.698 18.8488 2.698 16.6396V8.63965C2.698 6.43051 4.48886 4.63965 6.698 4.63965M6.698 20.6396C8.90714 20.6396 10.698 18.8488 10.698 16.6396V8.63965C10.698 6.43051 8.90714 4.63965 6.698 4.63965M6.698 20.6396H14.698C16.9071 20.6396 18.698 18.8488 18.698 16.6396M6.698 4.63965H14.698C16.9071 4.63965 18.698 6.43051 18.698 8.63965" stroke="#D1D1D1" stroke-linecap="round"/>
</svg>
