<svg width="25" height="25" viewBox="0 0 25 25" fill="none" xmlns="http://www.w3.org/2000/svg">
<path d="M3.698 5.47729H10.698M10.698 5.47729C10.698 6.58186 11.5934 7.47729 12.698 7.47729C13.8026 7.47729 14.698 6.58186 14.698 5.47729M10.698 5.47729C10.698 4.37273 11.5934 3.47729 12.698 3.47729C13.8026 3.47729 14.698 4.37273 14.698 5.47729M3.698 12.4773H12.698M19.698 12.4773H21.698M19.698 12.4773C19.698 13.5819 18.8026 14.4773 17.698 14.4773C16.5934 14.4773 15.698 13.5819 15.698 12.4773C15.698 11.3727 16.5934 10.4773 17.698 10.4773C18.8026 10.4773 19.698 11.3727 19.698 12.4773ZM14.698 5.47729H21.698M12.698 19.4773H21.698M3.698 19.4773H5.698M5.698 19.4773C5.698 20.5819 6.59343 21.4773 7.698 21.4773C8.80257 21.4773 9.698 20.5819 9.698 19.4773C9.698 18.3727 8.80257 17.4773 7.698 17.4773C6.59343 17.4773 5.698 18.3727 5.698 19.4773Z" stroke="#D1D1D1" stroke-linecap="round"/>
</svg>
