<svg width="25" height="25" viewBox="0 0 25 25" fill="none" xmlns="http://www.w3.org/2000/svg">
<path d="M16.1394 8.47729H8.1394M16.1394 8.47729C18.3485 8.47729 20.1394 10.2682 20.1394 12.4773V18.4773C20.1394 20.6864 18.3485 22.4773 16.1394 22.4773H8.1394C5.93027 22.4773 4.1394 20.6864 4.1394 18.4773V12.4773C4.1394 10.2682 5.93027 8.47729 8.1394 8.47729M16.1394 8.47729V6.47729C16.1394 4.26816 14.3485 2.47729 12.1394 2.47729C9.93027 2.47729 8.1394 4.26816 8.1394 6.47729V8.47729M14.1394 15.4773C14.1394 16.5819 13.244 17.4773 12.1394 17.4773C11.0348 17.4773 10.1394 16.5819 10.1394 15.4773C10.1394 14.3727 11.0348 13.4773 12.1394 13.4773C13.244 13.4773 14.1394 14.3727 14.1394 15.4773Z" stroke="#D1D1D1" stroke-linecap="round" stroke-linejoin="round"/>
</svg>
