<svg width="25" height="25" viewBox="0 0 25 25" fill="none" xmlns="http://www.w3.org/2000/svg">
<path d="M13.8604 2.36035V6.36035C13.8604 8.56949 15.6512 10.3604 17.8604 10.3604L21.8604 10.3604M3.86035 6.36035L3.86035 18.3604C3.86035 20.5695 5.65121 22.3604 7.86035 22.3604H17.8604C20.0695 22.3604 21.8604 20.5695 21.8604 18.3604V12.0172C21.8604 10.9563 21.4389 9.93892 20.6888 9.18878L15.0319 3.53192C14.2818 2.78178 13.2644 2.36035 12.2035 2.36035L7.86035 2.36035C5.65121 2.36035 3.86035 4.15121 3.86035 6.36035Z" stroke="#D1D1D1" stroke-linejoin="round"/>
<path d="M6.86035 18.3604V14.0654H8.25195C8.7793 14.0654 9.12305 14.0869 9.2832 14.1299C9.5293 14.1943 9.73535 14.335 9.90137 14.5518C10.0674 14.7666 10.1504 15.0449 10.1504 15.3867C10.1504 15.6504 10.1025 15.8721 10.0068 16.0518C9.91113 16.2314 9.78906 16.373 9.64062 16.4766C9.49414 16.5781 9.34473 16.6455 9.19238 16.6787C8.98535 16.7197 8.68555 16.7402 8.29297 16.7402H7.72754V18.3604H6.86035ZM7.72754 14.792V16.0107H8.20215C8.54395 16.0107 8.77246 15.9883 8.8877 15.9434C9.00293 15.8984 9.09277 15.8281 9.15723 15.7324C9.22363 15.6367 9.25684 15.5254 9.25684 15.3984C9.25684 15.2422 9.21094 15.1133 9.11914 15.0117C9.02734 14.9102 8.91113 14.8467 8.77051 14.8213C8.66699 14.8018 8.45898 14.792 8.14648 14.792H7.72754Z" fill="#D1D1D1"/>
<path d="M10.8711 18.3604V14.0654H11.7148L13.4727 16.9336V14.0654H14.2783V18.3604H13.4082L11.6768 15.5596V18.3604H10.8711Z" fill="#D1D1D1"/>
<path d="M17.1963 16.7812V16.0576H19.0654V17.7686C18.8838 17.9443 18.6201 18.0996 18.2744 18.2344C17.9307 18.3672 17.582 18.4336 17.2285 18.4336C16.7793 18.4336 16.3877 18.3398 16.0537 18.1523C15.7197 17.9629 15.4688 17.6934 15.3008 17.3438C15.1328 16.9922 15.0488 16.6104 15.0488 16.1982C15.0488 15.751 15.1426 15.3535 15.3301 15.0059C15.5176 14.6582 15.792 14.3916 16.1533 14.2061C16.4287 14.0635 16.7715 13.9922 17.1816 13.9922C17.7148 13.9922 18.1309 14.1045 18.4297 14.3291C18.7305 14.5518 18.9238 14.8604 19.0098 15.2549L18.1484 15.416C18.0879 15.2051 17.9736 15.0391 17.8057 14.918C17.6396 14.7949 17.4316 14.7334 17.1816 14.7334C16.8027 14.7334 16.501 14.8535 16.2764 15.0938C16.0537 15.334 15.9424 15.6904 15.9424 16.1631C15.9424 16.6729 16.0557 17.0557 16.2822 17.3115C16.5088 17.5654 16.8057 17.6924 17.1729 17.6924C17.3545 17.6924 17.5361 17.6572 17.7178 17.5869C17.9014 17.5146 18.0586 17.4277 18.1895 17.3262V16.7812H17.1963Z" fill="#D1D1D1"/>
</svg>
