<svg width="25" height="25" viewBox="0 0 25 25" fill="none" xmlns="http://www.w3.org/2000/svg">
<path d="M8.55835 16.6981H8.05835C8.05835 16.8731 8.14984 17.0354 8.29958 17.1259C8.44932 17.2165 8.63551 17.2222 8.7905 17.141L8.55835 16.6981ZM2.05835 22.1981C2.05835 22.4743 2.28221 22.6981 2.55835 22.6981C2.83449 22.6981 3.05835 22.4743 3.05835 22.1981H2.05835ZM11.8012 14.9982L12.0333 15.441L12.0519 15.4312L12.0696 15.42L11.8012 14.9982ZM13.3497 17.4535L13.5845 17.895L13.5999 17.8868L13.6147 17.8775L13.3497 17.4535ZM9.32261 19.5955L9.08782 19.154L9.07241 19.1622L9.05761 19.1715L9.32261 19.5955ZM6.52613 18.8917L6.96025 18.6437H6.96025L6.52613 18.8917ZM5.99247 16.9501C5.85547 16.7103 5.55004 16.627 5.31028 16.764C5.07052 16.901 4.98722 17.2064 5.12423 17.4462L5.99247 16.9501ZM13.825 15.4759L14.2538 15.2187L13.825 15.4759ZM9.05835 20.1981C9.05835 19.922 8.83449 19.6981 8.55835 19.6981C8.28221 19.6981 8.05835 19.922 8.05835 20.1981H9.05835ZM8.05835 22.1981C8.05835 22.4743 8.28221 22.6981 8.55835 22.6981C8.83449 22.6981 9.05835 22.4743 9.05835 22.1981H8.05835ZM13.6365 14.4297L13.3681 14.8515L14.2117 15.3884L14.4802 14.9666L13.6365 14.4297ZM17.9802 9.46656C18.1284 9.23359 18.0598 8.92454 17.8268 8.77629C17.5938 8.62804 17.2848 8.69671 17.1365 8.92968L17.9802 9.46656ZM6.05835 4.69812C6.05835 4.97426 6.28221 5.19812 6.55835 5.19812C6.83449 5.19812 7.05835 4.97426 7.05835 4.69812H6.05835ZM19.5583 11.6981C19.2822 11.6981 19.0583 11.922 19.0583 12.1981C19.0583 12.4743 19.2822 12.6981 19.5583 12.6981V11.6981ZM10.5583 5.69812C10.2822 5.69812 10.0583 5.92198 10.0583 6.19812C10.0583 6.47426 10.2822 6.69812 10.5583 6.69812V5.69812ZM18.5583 6.69812C18.8345 6.69812 19.0583 6.47426 19.0583 6.19812C19.0583 5.92198 18.8345 5.69812 18.5583 5.69812V6.69812ZM10.5583 8.69812C10.2822 8.69812 10.0583 8.92198 10.0583 9.19812C10.0583 9.47426 10.2822 9.69812 10.5583 9.69812V8.69812ZM14.5583 9.69812C14.8345 9.69812 15.0583 9.47426 15.0583 9.19812C15.0583 8.92198 14.8345 8.69812 14.5583 8.69812V9.69812ZM7.55835 9.19812H7.05835C7.05835 10.0265 6.38678 10.6981 5.55835 10.6981V11.1981V11.6981C6.93906 11.6981 8.05835 10.5788 8.05835 9.19812H7.55835ZM5.55835 11.1981V10.6981C4.72992 10.6981 4.05835 10.0265 4.05835 9.19812H3.55835H3.05835C3.05835 10.5788 4.17764 11.6981 5.55835 11.6981V11.1981ZM3.55835 9.19812H4.05835C4.05835 8.36969 4.72992 7.69812 5.55835 7.69812V7.19812V6.69812C4.17764 6.69812 3.05835 7.81741 3.05835 9.19812H3.55835ZM5.55835 7.19812V7.69812C6.38678 7.69812 7.05835 8.36969 7.05835 9.19812H7.55835H8.05835C8.05835 7.81741 6.93906 6.69812 5.55835 6.69812V7.19812ZM8.55835 16.6981H9.05835V16.1981H8.55835H8.05835V16.6981H8.55835ZM2.55835 16.1981H2.05835V22.1981H2.55835H3.05835V16.1981H2.55835ZM8.55835 16.6981L8.7905 17.141L12.0333 15.441L11.8012 14.9982L11.569 14.5553L8.3262 16.2553L8.55835 16.6981ZM13.3497 17.4535L13.1149 17.0121L9.08782 19.154L9.32261 19.5955L9.55741 20.0369L13.5845 17.895L13.3497 17.4535ZM6.52613 18.8917L6.96025 18.6437L5.99247 16.9501L5.55835 17.1981L5.12423 17.4462L6.09201 19.1398L6.52613 18.8917ZM11.8012 14.9982L12.0696 15.42C12.5212 15.1326 13.1209 15.2742 13.3963 15.7332L13.825 15.4759L14.2538 15.2187C13.6889 14.2773 12.4589 13.9869 11.5327 14.5763L11.8012 14.9982ZM9.32261 19.5955L9.05761 19.1715C8.33543 19.6228 7.38278 19.3831 6.96025 18.6437L6.52613 18.8917L6.09201 19.1398C6.79622 20.3722 8.38397 20.7717 9.58761 20.0195L9.32261 19.5955ZM2.55835 16.1981H3.05835C3.05835 14.8174 4.17764 13.6981 5.55835 13.6981V13.1981V12.6981C3.62535 12.6981 2.05835 14.2651 2.05835 16.1981H2.55835ZM13.825 15.4759L13.3963 15.7332C13.6632 16.178 13.5246 16.7546 13.0847 17.0295L13.3497 17.4535L13.6147 17.8775C14.5169 17.3137 14.8012 16.131 14.2538 15.2187L13.825 15.4759ZM8.55835 16.1981H9.05835C9.05835 14.2651 7.49135 12.6981 5.55835 12.6981V13.1981V13.6981C6.93906 13.6981 8.05835 14.8174 8.05835 16.1981H8.55835ZM8.55835 20.1981H8.05835V22.1981H8.55835H9.05835V20.1981H8.55835ZM14.0583 14.6981L14.4802 14.9666L17.9802 9.46656L17.5583 9.19812L17.1365 8.92968L13.6365 14.4297L14.0583 14.6981ZM6.55835 4.69812H7.05835V4.19812H6.55835H6.05835V4.69812H6.55835ZM8.55835 2.19812V2.69812H20.5583V2.19812V1.69812H8.55835V2.19812ZM22.5583 4.19812H22.0583V10.1981H22.5583H23.0583V4.19812H22.5583ZM20.5583 12.1981V11.6981H19.5583V12.1981V12.6981H20.5583V12.1981ZM22.5583 10.1981H22.0583C22.0583 11.0265 21.3868 11.6981 20.5583 11.6981V12.1981V12.6981C21.9391 12.6981 23.0583 11.5788 23.0583 10.1981H22.5583ZM20.5583 2.19812V2.69812C21.3868 2.69812 22.0583 3.36969 22.0583 4.19812H22.5583H23.0583C23.0583 2.81741 21.9391 1.69812 20.5583 1.69812V2.19812ZM6.55835 4.19812H7.05835C7.05835 3.36969 7.72992 2.69812 8.55835 2.69812V2.19812V1.69812C7.17764 1.69812 6.05835 2.81741 6.05835 4.19812H6.55835ZM10.5583 6.19812V6.69812H18.5583V6.19812V5.69812H10.5583V6.19812ZM10.5583 9.19812V9.69812H14.5583V9.19812V8.69812H10.5583V9.19812Z" fill="#D1D1D1"/>
</svg>
