<svg width="25" height="25" viewBox="0 0 25 25" fill="none" xmlns="http://www.w3.org/2000/svg">
<path d="M22.8604 12.1528V18.1528C22.8604 20.3619 21.0695 22.1528 18.8604 22.1528H6.86035C4.65121 22.1528 2.86035 20.3619 2.86035 18.1528V6.1528C2.86035 3.94366 4.65121 2.1528 6.86035 2.1528H12.8604M16.5467 4.17555C16.5467 4.17555 16.5467 5.60585 17.977 7.03614C19.4073 8.46644 20.8376 8.46644 20.8376 8.46644M10.015 16.1424L13.0186 15.7133C13.4519 15.6514 13.8534 15.4506 14.1629 15.1412L22.2679 7.03614C23.0578 6.24621 23.0578 4.96548 22.2679 4.17555L20.8376 2.74525C20.0477 1.95532 18.7669 1.95532 17.977 2.74525L9.87199 10.8503C9.56252 11.1597 9.36177 11.5612 9.29988 11.9945L8.87079 14.9981C8.77543 15.6656 9.34755 16.2377 10.015 16.1424Z" stroke="#D1D1D1" stroke-linecap="round"/>
</svg>
