<svg width="25" height="25" viewBox="0 0 25 25" fill="none" xmlns="http://www.w3.org/2000/svg">
<path d="M20.5811 11.1981H4.58105M20.5811 11.1981C21.6856 11.1981 22.5811 12.0936 22.5811 13.1981V17.1981C22.5811 19.4073 20.7902 21.1981 18.5811 21.1981H6.58105C4.37192 21.1981 2.58105 19.4073 2.58105 17.1981V13.1981C2.58105 12.0936 3.47649 11.1981 4.58105 11.1981M20.5811 11.1981V9.19812C20.5811 8.09355 19.6856 7.19812 18.5811 7.19812M4.58105 11.1981V9.19812C4.58105 8.09355 5.47649 7.19812 6.58105 7.19812M18.5811 7.19812H6.58105M18.5811 7.19812V5.19812C18.5811 4.09355 17.6856 3.19812 16.5811 3.19812H8.58105C7.47649 3.19812 6.58105 4.09355 6.58105 5.19812V7.19812M10.5811 14.1981H14.5811" stroke="#D1D1D1" stroke-linecap="round"/>
</svg>
