<svg width="25" height="25" viewBox="0 0 25 25" fill="none" xmlns="http://www.w3.org/2000/svg">
<path d="M12.5811 22.4058C18.1039 22.4058 22.5811 17.9286 22.5811 12.4058C22.5811 6.88291 18.1039 2.40576 12.5811 2.40576C7.05823 2.40576 2.58108 6.88291 2.58108 12.4058C2.58108 13.9172 2.9164 15.3503 3.5167 16.6348L2.80407 21.0302C2.69455 21.7057 3.28059 22.2892 3.95558 22.1767L8.3109 21.4508C9.60588 22.0632 11.0535 22.4058 12.5811 22.4058Z" stroke="#D1D1D1" stroke-linecap="square" stroke-linejoin="round"/>
<path d="M16.5811 15.5169V15.0807C16.5811 14.5388 16.2512 14.0516 15.7481 13.8504L15.2816 13.6637C14.76 13.4551 14.1656 13.6811 13.9144 14.1835C13.9144 14.1835 12.8033 13.9613 11.9144 13.0724C11.0255 12.1835 10.8033 11.0724 10.8033 11.0724C11.3057 10.8212 11.5317 10.2268 11.3231 9.70526L11.1365 9.23873C10.9352 8.73564 10.448 8.40576 9.90615 8.40576H9.46994C8.97902 8.40576 8.58105 8.80373 8.58105 9.29465C8.58105 13.222 11.7648 16.4058 15.6922 16.4058C16.1831 16.4058 16.5811 16.0078 16.5811 15.5169Z" fill="#D1D1D1"/>
</svg>
