<svg width="25" height="25" viewBox="0 0 25 25" fill="none" xmlns="http://www.w3.org/2000/svg">
<path d="M22.5811 14.3151L19.642 12.199C18.1149 11.0994 16.0277 11.213 14.629 12.4719L10.5331 16.1582C9.13437 17.4171 7.04725 17.5307 5.52006 16.4311L2.58105 14.3151M6.58105 22.3151H18.5811C20.7902 22.3151 22.5811 20.5242 22.5811 18.3151V6.31506C22.5811 4.10592 20.7902 2.31506 18.5811 2.31506H6.58105C4.37192 2.31506 2.58105 4.10592 2.58105 6.31506V18.3151C2.58105 20.5242 4.37192 22.3151 6.58105 22.3151ZM11.5811 8.81506C11.5811 10.1958 10.4618 11.3151 9.08105 11.3151C7.70034 11.3151 6.58105 10.1958 6.58105 8.81506C6.58105 7.43435 7.70034 6.31506 9.08105 6.31506C10.4618 6.31506 11.5811 7.43435 11.5811 8.81506Z" stroke="#D1D1D1" stroke-linecap="round"/>
</svg>
