<svg width="25" height="25" viewBox="0 0 25 25" fill="none" xmlns="http://www.w3.org/2000/svg">
<path d="M21.4187 10.6396V8.13965C21.4187 5.93051 19.6278 4.13965 17.4187 4.13965H7.4187C5.20956 4.13965 3.4187 5.93051 3.4187 8.13965V18.6396C3.4187 20.8488 5.20956 22.6396 7.4187 22.6396H9.4187M8.4187 2.63965V5.63965M16.4187 9.63965H8.4187M14.4187 13.6396H8.4187M10.4187 17.6396H8.4187M16.4187 2.63965V5.63965M12.4187 22.6396L15.4795 21.7671C15.6436 21.7203 15.793 21.6324 15.9137 21.5118L20.9285 16.497C21.5821 15.8433 21.5821 14.7835 20.9285 14.1299C20.2748 13.4762 19.215 13.4762 18.5614 14.1299L13.5466 19.1447C13.4259 19.2653 13.3381 19.4148 13.2913 19.5789L12.4187 22.6396Z" stroke="#D1D1D1" stroke-linecap="round"/>
</svg>
