<svg width="25" height="25" viewBox="0 0 25 25" fill="none" xmlns="http://www.w3.org/2000/svg">
<path d="M5.75468 12.951L5.25787 12.8946L5.75468 12.951ZM6.20187 9.01095L6.69868 9.06734L6.20187 9.01095ZM4.88919 14.9079L4.50845 14.5838H4.50845L4.88919 14.9079ZM19.6249 12.8946C19.5938 12.6203 19.3461 12.4231 19.0717 12.4542C18.7974 12.4854 18.6002 12.733 18.6313 13.0074L19.6249 12.8946ZM19.9936 14.9079L19.6129 15.232L19.9936 14.9079ZM10.1715 4.40943L10.3334 4.88247C10.5356 4.81324 10.6715 4.62315 10.6715 4.40943H10.1715ZM13.785 3.15351C13.9649 3.36302 14.2806 3.38704 14.4901 3.20716C14.6996 3.02728 14.7236 2.71161 14.5437 2.50209L13.785 3.15351ZM15.9096 20.2112C16.0065 19.9527 15.8755 19.6645 15.6169 19.5676C15.3583 19.4707 15.0701 19.6017 14.9732 19.8603L15.9096 20.2112ZM9.90961 19.8603C9.8127 19.6017 9.52452 19.4707 9.26594 19.5676C9.00736 19.6645 8.8763 19.9527 8.97321 20.2112L9.90961 19.8603ZM21.4414 7.03577H20.9414C20.9414 8.41648 19.8221 9.53577 18.4414 9.53577V10.0358V10.5358C20.3744 10.5358 21.9414 8.96876 21.9414 7.03577H21.4414ZM18.4414 10.0358V9.53577C17.0607 9.53577 15.9414 8.41648 15.9414 7.03577H15.4414H14.9414C14.9414 8.96876 16.5084 10.5358 18.4414 10.5358V10.0358ZM15.4414 7.03577H15.9414C15.9414 5.65505 17.0607 4.53577 18.4414 4.53577V4.03577V3.53577C16.5084 3.53577 14.9414 5.10277 14.9414 7.03577H15.4414ZM18.4414 4.03577V4.53577C19.8221 4.53577 20.9414 5.65505 20.9414 7.03577H21.4414H21.9414C21.9414 5.10277 20.3744 3.53577 18.4414 3.53577V4.03577ZM18.2186 18.0358V17.5358H6.66422V18.0358V18.5358H18.2186V18.0358ZM5.75468 12.951L6.25149 13.0074L6.69868 9.06734L6.20187 9.01095L5.70506 8.95457L5.25787 12.8946L5.75468 12.951ZM4.88919 14.9079L5.26993 15.232C5.81669 14.5897 6.15917 13.8208 6.25149 13.0074L5.75468 12.951L5.25787 12.8946C5.18911 13.5005 4.933 14.085 4.50845 14.5838L4.88919 14.9079ZM19.1281 12.951L18.6313 13.0074C18.7236 13.8208 19.0661 14.5897 19.6129 15.232L19.9936 14.9079L20.3744 14.5838C19.9498 14.085 19.6937 13.5005 19.6249 12.8946L19.1281 12.951ZM6.66422 18.0358V17.5358C5.9228 17.5358 5.37456 17.1665 5.11454 16.7083C4.85945 16.2588 4.86592 15.7066 5.26993 15.232L4.88919 14.9079L4.50845 14.5838C3.81543 15.3979 3.79523 16.4096 4.24482 17.2019C4.68947 17.9854 5.57726 18.5358 6.66422 18.5358V18.0358ZM18.2186 18.0358V18.5358C19.3055 18.5358 20.1933 17.9854 20.638 17.2019C21.0876 16.4096 21.0674 15.3979 20.3744 14.5838L19.9936 14.9079L19.6129 15.232C20.0169 15.7066 20.0234 16.2588 19.7683 16.7083C19.5083 17.1665 18.96 17.5358 18.2186 17.5358V18.0358ZM10.1715 4.40943H10.6715V4.30571H10.1715H9.67146V4.40943H10.1715ZM6.20187 9.01095L6.69868 9.06734C6.9144 7.16665 8.34121 5.56458 10.3334 4.88247L10.1715 4.40943L10.0095 3.93639C7.71692 4.72134 5.9716 6.60615 5.70506 8.95457L6.20187 9.01095ZM12.4414 2.03577V1.53577C10.9116 1.53577 9.67146 2.77591 9.67146 4.30571H10.1715H10.6715C10.6715 3.3282 11.4639 2.53577 12.4414 2.53577V2.03577ZM12.4414 2.03577V2.53577C12.9787 2.53577 13.4596 2.77454 13.785 3.15351L14.1644 2.8278L14.5437 2.50209C14.0365 1.91129 13.2825 1.53577 12.4414 1.53577V2.03577ZM15.4414 20.0358L14.9732 19.8603C14.6125 20.8228 13.6261 21.5358 12.4414 21.5358V22.0358V22.5358C14.0267 22.5358 15.3969 21.5792 15.9096 20.2112L15.4414 20.0358ZM12.4414 22.0358V21.5358C11.2567 21.5358 10.2703 20.8228 9.90961 19.8603L9.44141 20.0358L8.97321 20.2112C9.48587 21.5792 10.8561 22.5358 12.4414 22.5358V22.0358Z" fill="#D1D1D1"/>
</svg>
