<svg width="25" height="25" viewBox="0 0 25 25" fill="none" xmlns="http://www.w3.org/2000/svg">
<path d="M12.4414 6.36843V20.6176M5.44141 8.5697C6.70718 8.76573 8.11919 9.09163 9.44141 9.60294M5.44141 12.5697C6.08089 12.6687 6.75771 12.8009 7.44141 12.9734M4.43574 3.32634C6.65411 3.57701 9.63454 4.25138 11.7582 5.73951C12.1664 6.02552 12.7164 6.02552 13.1246 5.73951C15.2483 4.25138 18.2287 3.57701 20.4471 3.32634C21.545 3.20227 22.4414 4.11909 22.4414 5.25024V16.515C22.4414 17.6462 21.545 18.5633 20.4471 18.6874C18.2287 18.9381 15.2483 19.6124 13.1246 21.1006C12.7164 21.3866 12.1664 21.3866 11.7582 21.1006C9.63454 19.6124 6.65411 18.9381 4.43574 18.6874C3.33783 18.5633 2.44141 17.6462 2.44141 16.515V5.25024C2.44141 4.11909 3.33783 3.20227 4.43574 3.32634Z" stroke="#D1D1D1" stroke-linecap="round"/>
</svg>
