<svg width="25" height="25" viewBox="0 0 25 25" fill="none" xmlns="http://www.w3.org/2000/svg">
<path d="M15.3985 2.7696L15.2751 3.25414L15.3985 2.7696ZM20.8372 13.5227L20.3737 13.7104C20.4501 13.8992 20.6335 14.0227 20.8372 14.0227C21.0409 14.0227 21.2242 13.8992 21.3007 13.7104L20.8372 13.5227ZM13.4187 17.5227H12.9187C12.9187 20.008 10.904 22.0227 8.4187 22.0227V22.5227V23.0227C11.4563 23.0227 13.9187 20.5603 13.9187 17.5227H13.4187ZM8.4187 22.5227V22.0227C5.93342 22.0227 3.9187 20.008 3.9187 17.5227H3.4187H2.9187C2.9187 20.5603 5.38113 23.0227 8.4187 23.0227V22.5227ZM3.4187 17.5227H3.9187C3.9187 15.0375 5.93342 13.0227 8.4187 13.0227V12.5227V12.0227C5.38113 12.0227 2.9187 14.4852 2.9187 17.5227H3.4187ZM8.4187 12.5227V13.0227C10.904 13.0227 12.9187 15.0375 12.9187 17.5227H13.4187H13.9187C13.9187 14.4852 11.4563 12.0227 8.4187 12.0227V12.5227ZM15.3985 2.7696L15.2751 3.25414C18.5196 4.08013 20.9187 7.0219 20.9187 10.5227H21.4187H21.9187C21.9187 6.55367 19.1987 3.22112 15.5218 2.28505L15.3985 2.7696ZM13.4187 8.52274V9.02274C16.5655 9.02274 19.2607 10.9608 20.3737 13.7104L20.8372 13.5227L21.3007 13.3351C20.0401 10.221 16.9867 8.02274 13.4187 8.02274V8.52274ZM21.4187 10.5227H20.9187C20.9187 11.5183 20.725 12.4673 20.3737 13.3351L20.8372 13.5227L21.3007 13.7104C21.6994 12.7253 21.9187 11.649 21.9187 10.5227H21.4187ZM13.4187 4.52274H12.9187V8.52274H13.4187H13.9187V4.52274H13.4187ZM15.3985 2.7696L15.5218 2.28505C14.0479 1.90982 12.9187 3.18847 12.9187 4.52274H13.4187H13.9187C13.9187 3.64788 14.6082 3.08436 15.2751 3.25414L15.3985 2.7696ZM13.4187 8.52274H12.9187V17.5227H13.4187H13.9187V8.52274H13.4187Z" fill="#D1D1D1"/>
</svg>
