<svg width="25" height="25" viewBox="0 0 25 25" fill="none" xmlns="http://www.w3.org/2000/svg">
<path d="M17.6332 3.70643C16.1771 2.87857 14.4928 2.40576 12.698 2.40576C10.2378 2.40576 7.98503 3.2942 6.24314 4.76776M17.6332 3.70643C12.8421 8.33597 9.8252 14.79 9.70193 21.9492M17.6332 3.70643C20.2419 5.18955 22.1182 7.81219 22.585 10.8972M6.24314 4.76776C8.93659 8.77162 13.5097 11.4058 18.698 11.4058C20.0423 11.4058 21.3453 11.2289 22.585 10.8972M6.24314 4.76776C4.07476 6.6021 2.698 9.34315 2.698 12.4058C2.698 16.8848 5.64279 20.6761 9.70193 21.9492M2.698 13.2593C4.26189 12.7065 5.94482 12.4058 7.698 12.4058C12.8931 12.4058 17.4713 15.0468 20.1633 19.0594M9.70193 21.9492C10.6478 22.2459 11.6542 22.4058 12.698 22.4058C15.666 22.4058 18.3319 21.1128 20.1633 19.0594M20.1633 19.0594C21.7399 17.2918 22.698 14.9607 22.698 12.4058C22.698 11.893 22.6594 11.3892 22.585 10.8972" stroke="#D1D1D1"/>
</svg>
