<svg width="25" height="25" viewBox="0 0 25 25" fill="none" xmlns="http://www.w3.org/2000/svg">
<path d="M6.58105 8.1528H4.58105C3.47649 8.1528 2.58105 9.04823 2.58105 10.1528V19.1528C2.58105 20.2574 3.47649 21.1528 4.58105 21.1528H6.58105C7.68562 21.1528 8.58105 20.2574 8.58105 19.1528V10.1528C8.58105 9.04823 7.68562 8.1528 6.58105 8.1528Z" stroke="#D1D1D1" stroke-linecap="round" stroke-linejoin="round"/>
<path d="M16.4579 21.1528H12.7922C12.0025 21.1528 11.2304 20.9191 10.5734 20.481L9.02635 19.4497C8.74816 19.2642 8.58105 18.952 8.58105 18.6176V10.4184C8.58105 10.2443 8.62647 10.0733 8.71281 9.92223L12.5811 3.1528H13.9098C15.9065 3.1528 17.0975 5.37816 15.9899 7.03955L14.5811 9.1528H20.0195C21.3206 9.1528 22.2754 10.3756 21.9598 11.6379L20.3385 18.1229C19.8934 19.9036 18.2934 21.1528 16.4579 21.1528Z" stroke="#D1D1D1" stroke-linecap="round" stroke-linejoin="round"/>
</svg>
