<svg width="25" height="25" viewBox="0 0 25 25" fill="none" xmlns="http://www.w3.org/2000/svg">
<path d="M4.55835 21.4773V15.4773M4.55835 15.4773C5.66292 15.4773 6.55835 14.5819 6.55835 13.4773V11.4773C6.55835 10.3727 5.66292 9.47729 4.55835 9.47729M4.55835 15.4773C3.45378 15.4773 2.55835 14.5819 2.55835 13.4773V11.4773C2.55835 10.3727 3.45378 9.47729 4.55835 9.47729M12.5583 21.4773V14.4773M12.5583 5.47729V3.47729M12.5583 5.47729C13.6629 5.47729 14.5583 6.37273 14.5583 7.47729V9.47729C14.5583 10.5819 13.6629 11.4773 12.5583 11.4773C11.4538 11.4773 10.5583 10.5819 10.5583 9.47729V7.47729C10.5583 6.37273 11.4538 5.47729 12.5583 5.47729ZM4.55835 9.47729L4.55835 3.47729M20.5583 10.4773V3.47729M20.5583 21.4773V19.4773M20.5583 19.4773C21.6629 19.4773 22.5583 18.5819 22.5583 17.4773V15.4773C22.5583 14.3727 21.6629 13.4773 20.5583 13.4773C19.4538 13.4773 18.5583 14.3727 18.5583 15.4773V17.4773C18.5583 18.5819 19.4538 19.4773 20.5583 19.4773Z" stroke="#D1D1D1" stroke-linecap="round"/>
</svg>
