<svg width="25" height="25" viewBox="0 0 25 25" fill="none" xmlns="http://www.w3.org/2000/svg">
<path d="M21.1394 17.5227C21.1394 19.1796 19.7963 20.5227 18.1394 20.5227C16.4826 20.5227 15.1394 19.1796 15.1394 17.5227C15.1394 15.8658 16.4826 14.5227 18.1394 14.5227C19.7963 14.5227 21.1394 15.8658 21.1394 17.5227ZM21.1394 17.5227V11.2976C21.1394 9.93244 19.802 8.9685 18.5069 9.40019L11.8745 11.611C10.2411 12.1555 9.1394 13.684 9.1394 15.4057V19.5227M9.1394 19.5227C9.1394 21.1796 7.79626 22.5227 6.1394 22.5227C4.48255 22.5227 3.1394 21.1796 3.1394 19.5227C3.1394 17.8658 4.48255 16.5227 6.1394 16.5227C7.79626 16.5227 9.1394 17.8658 9.1394 19.5227ZM21.1394 12.5227V5.29755C21.1394 3.93244 19.802 2.9685 18.5069 3.40019L11.8745 5.61101C10.2411 6.15546 9.1394 7.68402 9.1394 9.40574V14.5227" stroke="#D1D1D1" stroke-linecap="round" stroke-linejoin="round"/>
</svg>
