<svg width="25" height="25" viewBox="0 0 25 25" fill="none" xmlns="http://www.w3.org/2000/svg">
<path d="M19.4192 20.1431C18.4258 17.4861 15.864 15.5943 12.8604 15.5943C9.85673 15.5943 7.29495 17.4861 6.30152 20.1431M19.4192 20.1431C21.5275 18.3097 22.8604 15.6077 22.8604 12.5943C22.8604 7.07145 18.3832 2.5943 12.8604 2.5943C7.3375 2.5943 2.86035 7.07145 2.86035 12.5943C2.86035 15.6077 4.1932 18.3097 6.30152 20.1431M19.4192 20.1431C17.6634 21.6699 15.3698 22.5943 12.8604 22.5943C10.3509 22.5943 8.05729 21.6699 6.30152 20.1431M15.8604 9.5943C15.8604 11.2512 14.5172 12.5943 12.8604 12.5943C11.2035 12.5943 9.86035 11.2512 9.86035 9.5943C9.86035 7.93745 11.2035 6.5943 12.8604 6.5943C14.5172 6.5943 15.8604 7.93745 15.8604 9.5943Z" stroke="#D1D1D1" stroke-linejoin="round"/>
</svg>
