<svg width="25" height="25" viewBox="0 0 25 25" fill="none" xmlns="http://www.w3.org/2000/svg">
<path d="M21.698 16.0812V18.0812C21.698 19.738 20.3549 21.0812 18.698 21.0812C17.0411 21.0812 15.698 19.738 15.698 18.0812V16.0812C15.698 14.4243 17.0411 13.0812 18.698 13.0812C20.3549 13.0812 21.698 14.4243 21.698 16.0812ZM21.698 16.0812V12.0812C21.698 7.11061 17.6686 3.08118 12.698 3.08118C7.72744 3.08118 3.698 7.11061 3.698 12.0812V16.0812M3.698 16.0812V18.0812C3.698 19.738 5.04114 21.0812 6.698 21.0812C8.35485 21.0812 9.698 19.738 9.698 18.0812V16.0812C9.698 14.4243 8.35485 13.0812 6.698 13.0812C5.04114 13.0812 3.698 14.4243 3.698 16.0812Z" stroke="#D1D1D1" stroke-linecap="square" stroke-linejoin="round"/>
</svg>
