<svg width="25" height="25" viewBox="0 0 25 25" fill="none" xmlns="http://www.w3.org/2000/svg">
<path d="M5.03655 13.9158L4.6555 13.5921H4.6555L5.03655 13.9158ZM5.91581 11.8743L5.41899 11.818L5.91581 11.8743ZM19.2463 11.8743L19.7431 11.818L19.2463 11.8743ZM20.1256 13.9158L20.5066 13.5921L20.1256 13.9158ZM18.9014 8.8298L18.4046 8.88608V8.88608L18.9014 8.8298ZM6.26069 8.8298L6.75751 8.88608L6.26069 8.8298ZM16.0493 19.2112C16.1462 18.9527 16.0151 18.6645 15.7565 18.5676C15.4979 18.4707 15.2098 18.6017 15.1129 18.8603L16.0493 19.2112ZM10.0493 18.8603C9.95234 18.6017 9.66416 18.4707 9.40559 18.5676C9.14701 18.6645 9.01595 18.9527 9.11286 19.2112L10.0493 18.8603ZM18.7509 17.0358V16.5358H6.41119V17.0358V17.5358H18.7509V17.0358ZM18.9014 8.8298L18.4046 8.88608L18.7495 11.9305L19.2463 11.8743L19.7431 11.818L19.3982 8.77352L18.9014 8.8298ZM5.91581 11.8743L6.41264 11.9305L6.75751 8.88608L6.26069 8.8298L5.76387 8.77352L5.41899 11.818L5.91581 11.8743ZM5.03655 13.9158L5.41759 14.2396C5.96969 13.5897 6.31591 12.7844 6.41264 11.9305L5.91581 11.8743L5.41899 11.818C5.34433 12.4771 5.07734 13.0956 4.6555 13.5921L5.03655 13.9158ZM19.2463 11.8743L18.7495 11.9305C18.8462 12.7844 19.1924 13.5897 19.7445 14.2396L20.1256 13.9158L20.5066 13.5921C20.0848 13.0956 19.8178 12.4771 19.7431 11.818L19.2463 11.8743ZM6.41119 17.0358V16.5358C5.29689 16.5358 4.64126 15.1533 5.41759 14.2396L5.03655 13.9158L4.6555 13.5921C3.36503 15.111 4.38685 17.5358 6.41119 17.5358V17.0358ZM18.7509 17.0358V17.5358C20.7753 17.5358 21.7971 15.111 20.5066 13.5921L20.1256 13.9158L19.7445 14.2396C20.5209 15.1533 19.8652 16.5358 18.7509 16.5358V17.0358ZM18.9014 8.8298L19.3982 8.77352C18.9967 5.2292 16.076 2.53577 12.5811 2.53577V3.03577V3.53577C15.5442 3.53577 18.0577 5.82404 18.4046 8.88608L18.9014 8.8298ZM6.26069 8.8298L6.75751 8.88608C7.10438 5.82404 9.61788 3.53577 12.5811 3.53577V3.03577V2.53577C9.08612 2.53577 6.16537 5.2292 5.76387 8.77352L6.26069 8.8298ZM15.5811 19.0358L15.1129 18.8603C14.7521 19.8228 13.7658 20.5358 12.5811 20.5358V21.0358V21.5358C14.1664 21.5358 15.5366 20.5792 16.0493 19.2112L15.5811 19.0358ZM12.5811 21.0358V20.5358C11.3963 20.5358 10.41 19.8228 10.0493 18.8603L9.58105 19.0358L9.11286 19.2112C9.62552 20.5792 10.9957 21.5358 12.5811 21.5358V21.0358Z" fill="#D1D1D1"/>
</svg>
