<svg width="25" height="25" viewBox="0 0 25 25" fill="none" xmlns="http://www.w3.org/2000/svg">
<path d="M22.5811 14.0812L20.5811 12.0812M20.5811 12.0812L18.5811 10.0812M20.5811 12.0812L22.5811 10.0812M20.5811 12.0812L18.5811 14.0812M8.11428 7.68325L12.3811 4.48462C13.6995 3.49622 15.5811 4.43656 15.5811 6.0839V18.0785C15.5811 19.7258 13.6995 20.6661 12.3811 19.6777L8.11428 16.4791C7.76815 16.2196 7.34722 16.0794 6.91463 16.0794H4.58105C3.47649 16.0794 2.58105 15.1843 2.58105 14.0803V10.0821C2.58105 8.97802 3.47649 8.08299 4.58105 8.08299H6.91463C7.34722 8.08299 7.76815 7.94273 8.11428 7.68325Z" stroke="#D1D1D1" stroke-linecap="round" stroke-linejoin="round"/>
</svg>
