<svg width="25" height="25" viewBox="0 0 25 25" fill="none" xmlns="http://www.w3.org/2000/svg">
<g clip-path="url(#clip0_2108_1234)">
<path d="M12.8604 1.68494C7.61273 1.68494 3.36035 5.99327 3.36035 11.3099C3.36035 16.2839 7.76343 20.3656 12.66 20.4744C12.7705 20.4768 12.8604 20.5661 12.8604 20.6766V23.3629C12.8604 23.5112 13.0167 23.6074 13.1487 23.5399C18.7309 20.6859 22.3604 16.0865 22.3604 11.3099C22.3604 5.99327 18.108 1.68494 12.8604 1.68494Z" stroke="#D1D1D1" stroke-width="1.5"/>
<path d="M18.0989 12.4926C18.0989 13.5889 17.114 14.5336 16.277 14.6685C16.1679 14.686 16.078 14.5954 16.078 14.4849V12.5772C16.078 12.4668 15.9885 12.3772 15.878 12.3772H14.2989C14.1884 12.3772 14.0989 12.2877 14.0989 12.1772V8.88494C14.0989 8.77448 14.1884 8.68494 14.2989 8.68494H17.8989C18.0093 8.68494 18.0989 8.77448 18.0989 8.88494V12.4926Z" stroke="#D1D1D1" stroke-width="1.5"/>
<path d="M11.6218 12.4926C11.6218 13.5889 10.637 14.5336 9.79991 14.6685C9.69086 14.686 9.60099 14.5954 9.60099 14.4849V12.5772C9.60099 12.4668 9.51145 12.3772 9.40099 12.3772H7.82183C7.71137 12.3772 7.62183 12.2877 7.62183 12.1772V8.88494C7.62183 8.77448 7.71137 8.68494 7.82183 8.68494H11.4218C11.5323 8.68494 11.6218 8.77448 11.6218 8.88494V12.4926Z" stroke="#D1D1D1" stroke-width="1.5"/>
</g>
<defs>
<clipPath id="clip0_2108_1234">
<rect width="24" height="24" fill="white" transform="translate(0.860352 0.684937)"/>
</clipPath>
</defs>
</svg>
