<svg width="25" height="25" viewBox="0 0 25 25" fill="none" xmlns="http://www.w3.org/2000/svg">
<path d="M4.1394 4.87354L20.1394 20.8735M14.1394 15.1096C13.6086 15.5847 12.9078 15.8735 12.1394 15.8735C10.4826 15.8735 9.1394 14.5304 9.1394 12.8735C9.1394 12.1052 9.42826 11.4043 9.9033 10.8735M19.7472 16.4812C20.3185 15.9838 20.8296 15.4834 21.2697 15.0204C22.4293 13.8004 22.4293 11.9467 21.2697 10.7266C19.3139 8.66887 15.9549 5.87354 12.1394 5.87354C11.248 5.87354 10.3816 6.0261 9.5521 6.28617M6.6394 7.67692C5.18084 8.60797 3.93704 9.75032 3.00911 10.7266C1.8495 11.9467 1.8495 13.8004 3.00911 15.0204C4.9649 17.0782 8.32389 19.8735 12.1394 19.8735C14.0075 19.8735 15.7661 19.2035 17.3042 18.278" stroke="#D1D1D1" stroke-linecap="round"/>
</svg>
