<svg width="25" height="25" viewBox="0 0 25 25" fill="none" xmlns="http://www.w3.org/2000/svg">
<path d="M18.698 2.52271H6.698C4.48886 2.52271 2.698 4.31357 2.698 6.5227V18.5227C2.698 20.7318 4.48886 22.5227 6.698 22.5227H18.698C20.9071 22.5227 22.698 20.7318 22.698 18.5227V6.52271C22.698 4.31357 20.9071 2.52271 18.698 2.52271ZM18.698 2.52271L14.698 8.52271M2.698 8.52271H22.698M10.698 2.52271L6.698 8.52271M10.698 14.3255V16.7199C10.698 17.918 12.0332 18.6326 13.03 17.968L14.8259 16.7708C15.7165 16.177 15.7165 14.8684 14.8259 14.2746L13.03 13.0774C12.0332 12.4128 10.698 13.1274 10.698 14.3255Z" stroke="#D1D1D1" stroke-linejoin="round"/>
</svg>
