<svg width="25" height="25" viewBox="0 0 25 25" fill="none" xmlns="http://www.w3.org/2000/svg">
<path d="M19.6265 10.3896V9.26465C19.6265 7.40069 18.1721 5.88965 16.3781 5.88965H13.0245C12.4465 5.88965 11.879 5.72945 11.3806 5.42557L9.21224 4.10373C8.71377 3.79985 8.14629 3.63965 7.56834 3.63965H5.55014C3.75611 3.63965 2.30176 5.15069 2.30176 7.01465V18.2646C2.30176 20.1286 3.75611 21.6396 5.55014 21.6396H15.0086C16.53 21.6396 17.9398 20.8103 18.7226 19.4549L21.9898 13.7973C22.8559 12.2976 21.8161 10.3896 20.1328 10.3896H19.6265ZM19.6265 10.3896H10.5305C8.81882 10.3896 7.26773 11.4369 6.57257 13.062L3.38455 20.5146" stroke="#D1D1D1" stroke-linecap="round" stroke-linejoin="round"/>
</svg>
