<svg width="25" height="25" viewBox="0 0 25 25" fill="none" xmlns="http://www.w3.org/2000/svg">
<path d="M4.86035 7.5227C4.86035 6.41814 5.75578 5.52271 6.86035 5.52271H8.86035C9.96492 5.52271 10.8604 6.41814 10.8604 7.52271V17.5227C10.8604 18.6273 9.96492 19.5227 8.86035 19.5227H6.86035C5.75578 19.5227 4.86035 18.6273 4.86035 17.5227V7.5227Z" stroke="#D1D1D1"/>
<path d="M14.8604 7.5227C14.8604 6.41814 15.7558 5.52271 16.8604 5.52271H18.8604C19.9649 5.52271 20.8604 6.41814 20.8604 7.52271V17.5227C20.8604 18.6273 19.9649 19.5227 18.8604 19.5227H16.8604C15.7558 19.5227 14.8604 18.6273 14.8604 17.5227V7.5227Z" stroke="#D1D1D1"/>
</svg>
