<svg width="25" height="25" viewBox="0 0 25 25" fill="none" xmlns="http://www.w3.org/2000/svg">
<path d="M13.9622 10.2789L14.3826 10.5495L13.9622 10.2789ZM9.77905 9.19812C9.77905 9.47426 10.0029 9.69812 10.2791 9.69812C10.5552 9.69812 10.7791 9.47426 10.7791 9.19812H9.77905ZM11.7791 13.6981C11.7791 13.9743 12.0029 14.1981 12.2791 14.1981C12.5552 14.1981 12.7791 13.9743 12.7791 13.6981H11.7791ZM12.7791 16.1981C12.7791 15.922 12.5552 15.6981 12.2791 15.6981C12.0029 15.6981 11.7791 15.922 11.7791 16.1981H12.7791ZM11.7791 17.1981C11.7791 17.4743 12.0029 17.6981 12.2791 17.6981C12.5552 17.6981 12.7791 17.4743 12.7791 17.1981H11.7791ZM22.2791 12.1981H21.7791C21.7791 17.4448 17.5258 21.6981 12.2791 21.6981V22.1981V22.6981C18.078 22.6981 22.7791 17.9971 22.7791 12.1981H22.2791ZM12.2791 22.1981V21.6981C7.03235 21.6981 2.77905 17.4448 2.77905 12.1981H2.27905H1.77905C1.77905 17.9971 6.48006 22.6981 12.2791 22.6981V22.1981ZM2.27905 12.1981H2.77905C2.77905 6.95142 7.03235 2.69812 12.2791 2.69812V2.19812V1.69812C6.48006 1.69812 1.77905 6.39913 1.77905 12.1981H2.27905ZM12.2791 2.19812V2.69812C17.5258 2.69812 21.7791 6.95142 21.7791 12.1981H22.2791H22.7791C22.7791 6.39913 18.078 1.69812 12.2791 1.69812V2.19812ZM14.2791 9.19812H13.7791C13.7791 9.49748 13.6919 9.77495 13.5417 10.0084L13.9622 10.2789L14.3826 10.5495C14.6335 10.1595 14.7791 9.69506 14.7791 9.19812H14.2791ZM10.2791 9.19812H10.7791C10.7791 8.36969 11.4506 7.69812 12.2791 7.69812V7.19812V6.69812C10.8983 6.69812 9.77905 7.81741 9.77905 9.19812H10.2791ZM12.2791 7.19812V7.69812C13.1075 7.69812 13.7791 8.36969 13.7791 9.19812H14.2791H14.7791C14.7791 7.81741 13.6598 6.69812 12.2791 6.69812V7.19812ZM12.2791 13.1981H11.7791V13.6981H12.2791H12.7791V13.1981H12.2791ZM13.9622 10.2789L13.5417 10.0083C13.4079 10.2162 13.2429 10.4277 13.0575 10.6581C12.8773 10.882 12.6745 11.1279 12.4922 11.3785C12.1311 11.8747 11.7791 12.4812 11.7791 13.1981H12.2791H12.7791C12.7791 12.8105 12.9697 12.4218 13.3008 11.9668C13.4645 11.7417 13.6451 11.523 13.8366 11.285C14.0228 11.0536 14.2175 10.806 14.3826 10.5495L13.9622 10.2789ZM12.2791 16.1981H11.7791V17.1981H12.2791H12.7791V16.1981H12.2791Z" fill="#D1D1D1"/>
</svg>
