<svg width="25" height="25" viewBox="0 0 25 25" fill="none" xmlns="http://www.w3.org/2000/svg">
<path d="M9.1832 16.3883L3.698 21.8735M16.5268 16.2497L18.215 14.5615C18.5972 14.1793 19.1156 13.9646 19.656 13.9646C21.4716 13.9646 22.3808 11.7695 21.097 10.4857L15.0858 4.4745C13.802 3.19071 11.6069 4.09994 11.6069 5.91549C11.6069 6.45597 11.3922 6.97431 11.0101 7.35649L9.32182 9.04471C8.93965 9.42689 8.42131 9.64159 7.88083 9.64159C6.06527 9.64159 5.15604 11.8367 6.43983 13.1205L12.451 19.1317C13.7348 20.4155 15.9299 19.5062 15.9299 17.6907C15.9299 17.1502 16.1446 16.6319 16.5268 16.2497Z" stroke="#D1D1D1" stroke-linecap="round"/>
</svg>
