<svg width="25" height="25" viewBox="0 0 25 25" fill="none" xmlns="http://www.w3.org/2000/svg">
<path d="M10.698 6.75659H16.698M10.698 14.7566H16.698M10.698 10.7566H22.698M10.698 18.7566H22.698M4.698 10.7566C3.59343 10.7566 2.698 9.86116 2.698 8.75659C2.698 7.65202 3.59343 6.75659 4.698 6.75659C5.80257 6.75659 6.698 7.65202 6.698 8.75659C6.698 9.86116 5.80257 10.7566 4.698 10.7566ZM4.698 18.7566C3.59343 18.7566 2.698 17.8612 2.698 16.7566C2.698 15.652 3.59343 14.7566 4.698 14.7566C5.80257 14.7566 6.698 15.652 6.698 16.7566C6.698 17.8612 5.80257 18.7566 4.698 18.7566Z" stroke="#D1D1D1" stroke-linecap="round"/>
</svg>
