<svg width="25" height="25" viewBox="0 0 25 25" fill="none" xmlns="http://www.w3.org/2000/svg">
<path d="M12.4187 6.34717C12.4187 5.51874 13.0903 4.84717 13.9187 4.84717V4.84717C14.7471 4.84717 15.4187 5.51874 15.4187 6.34717V11.3472C15.4187 12.1756 14.7471 12.8472 13.9187 12.8472V12.8472C13.0903 12.8472 12.4187 12.1756 12.4187 11.3472V6.34717Z" stroke="#D1D1D1"/>
<path d="M20.4187 11.3472C20.4187 12.1756 19.7471 12.8472 18.9187 12.8472H17.4187V11.3472C17.4187 10.5187 18.0903 9.84717 18.9187 9.84717V9.84717C19.7471 9.84717 20.4187 10.5187 20.4187 11.3472V11.3472Z" stroke="#D1D1D1" stroke-linejoin="round"/>
<path d="M17.4187 21.3472C17.4187 20.5187 16.7471 19.8472 15.9187 19.8472H14.4187V21.3472C14.4187 22.1756 15.0903 22.8472 15.9187 22.8472V22.8472C16.7471 22.8472 17.4187 22.1756 17.4187 21.3472V21.3472Z" stroke="#D1D1D1" stroke-linejoin="round"/>
<path d="M7.4187 6.34717C7.4187 7.1756 8.09027 7.84717 8.9187 7.84717H10.4187V6.34717C10.4187 5.51874 9.74713 4.84717 8.9187 4.84717V4.84717C8.09027 4.84717 7.4187 5.51874 7.4187 6.34717V6.34717Z" stroke="#D1D1D1" stroke-linejoin="round"/>
<path d="M4.4187 16.3472C4.4187 15.5187 5.09027 14.8472 5.9187 14.8472H7.4187V16.3472C7.4187 17.1756 6.74713 17.8472 5.9187 17.8472V17.8472C5.09027 17.8472 4.4187 17.1756 4.4187 16.3472V16.3472Z" stroke="#D1D1D1" stroke-linejoin="round"/>
<path d="M9.4187 16.3472C9.4187 15.5187 10.0903 14.8472 10.9187 14.8472V14.8472C11.7471 14.8472 12.4187 15.5187 12.4187 16.3472V21.3472C12.4187 22.1756 11.7471 22.8472 10.9187 22.8472V22.8472C10.0903 22.8472 9.4187 22.1756 9.4187 21.3472V16.3472Z" stroke="#D1D1D1"/>
<path d="M8.9187 9.84717C9.74713 9.84717 10.4187 10.5187 10.4187 11.3472V11.3472C10.4187 12.1756 9.74713 12.8472 8.9187 12.8472L3.9187 12.8472C3.09027 12.8472 2.4187 12.1756 2.4187 11.3472V11.3472C2.4187 10.5187 3.09027 9.84717 3.9187 9.84717L8.9187 9.84717Z" stroke="#D1D1D1"/>
<path d="M20.9187 14.8472C21.7471 14.8472 22.4187 15.5187 22.4187 16.3472V16.3472C22.4187 17.1756 21.7471 17.8472 20.9187 17.8472L15.9187 17.8472C15.0903 17.8472 14.4187 17.1756 14.4187 16.3472V16.3472C14.4187 15.5187 15.0903 14.8472 15.9187 14.8472L20.9187 14.8472Z" stroke="#D1D1D1"/>
</svg>
