<svg width="25" height="25" viewBox="0 0 25 25" fill="none" xmlns="http://www.w3.org/2000/svg">
<path d="M13.698 2.36035V6.36035C13.698 8.56949 15.4889 10.3604 17.698 10.3604L21.698 10.3604M3.698 6.36035L3.698 18.3604C3.698 20.5695 5.48886 22.3604 7.698 22.3604H17.698C19.9071 22.3604 21.698 20.5695 21.698 18.3604V12.0172C21.698 10.9563 21.2766 9.93892 20.5264 9.18878L14.8696 3.53192C14.1194 2.78178 13.102 2.36035 12.0411 2.36035L7.698 2.36035C5.48886 2.36035 3.698 4.15121 3.698 6.36035Z" stroke="#D1D1D1" stroke-linejoin="round"/>
<path d="M7.13452 18.3604V14.0654H8.52612C9.05347 14.0654 9.39722 14.0869 9.55737 14.1299C9.80347 14.1943 10.0095 14.335 10.1755 14.5518C10.3416 14.7666 10.4246 15.0449 10.4246 15.3867C10.4246 15.6504 10.3767 15.8721 10.281 16.0518C10.1853 16.2314 10.0632 16.373 9.91479 16.4766C9.76831 16.5781 9.6189 16.6455 9.46655 16.6787C9.25952 16.7197 8.95972 16.7402 8.56714 16.7402H8.00171V18.3604H7.13452ZM8.00171 14.792V16.0107H8.47632C8.81812 16.0107 9.04663 15.9883 9.16187 15.9434C9.2771 15.8984 9.36694 15.8281 9.4314 15.7324C9.4978 15.6367 9.53101 15.5254 9.53101 15.3984C9.53101 15.2422 9.48511 15.1133 9.39331 15.0117C9.30151 14.9102 9.1853 14.8467 9.04468 14.8213C8.94116 14.8018 8.73315 14.792 8.42065 14.792H8.00171Z" fill="#D1D1D1"/>
<path d="M11.1335 14.0654H12.7185C13.0759 14.0654 13.3484 14.0928 13.5359 14.1475C13.7878 14.2217 14.0037 14.3535 14.1833 14.543C14.363 14.7324 14.4998 14.9648 14.5935 15.2402C14.6873 15.5137 14.7341 15.8516 14.7341 16.2539C14.7341 16.6074 14.6902 16.9121 14.6023 17.168C14.4949 17.4805 14.3416 17.7334 14.1423 17.9268C13.9919 18.0732 13.7888 18.1875 13.533 18.2695C13.3416 18.3301 13.0857 18.3604 12.7654 18.3604H11.1335V14.0654ZM12.0007 14.792V17.6367H12.6482C12.8904 17.6367 13.0652 17.623 13.1726 17.5957C13.3132 17.5605 13.4294 17.501 13.5212 17.417C13.615 17.333 13.6912 17.1953 13.7498 17.0039C13.8083 16.8105 13.8376 16.5479 13.8376 16.2158C13.8376 15.8838 13.8083 15.6289 13.7498 15.4512C13.6912 15.2734 13.6091 15.1348 13.5037 15.0352C13.3982 14.9355 13.2644 14.8682 13.1023 14.833C12.9812 14.8057 12.7439 14.792 12.3904 14.792H12.0007Z" fill="#D1D1D1"/>
<path d="M15.4783 18.3604V14.0654H18.4226V14.792H16.3455V15.8086H18.1384V16.5352H16.3455V18.3604H15.4783Z" fill="#D1D1D1"/>
</svg>
