<svg width="25" height="25" viewBox="0 0 25 25" fill="none" xmlns="http://www.w3.org/2000/svg">
<path d="M18.1394 10.3488C18.7372 10.6946 19.1394 11.3409 19.1394 12.0812C19.1394 12.8215 18.7372 13.4678 18.1394 13.8136M18.1394 7.18118C20.4216 7.64445 22.1394 9.66221 22.1394 12.0812C22.1394 14.5001 20.4216 16.5179 18.1394 16.9811M7.67263 7.68325L11.9394 4.48462C13.2579 3.49622 15.1394 4.43656 15.1394 6.0839V18.0785C15.1394 19.7258 13.2579 20.6661 11.9394 19.6777L7.67263 16.4791C7.3265 16.2196 6.90557 16.0794 6.47298 16.0794H4.1394C3.03483 16.0794 2.1394 15.1843 2.1394 14.0803V10.0821C2.1394 8.97802 3.03483 8.08299 4.1394 8.08299H6.47298C6.90557 8.08299 7.3265 7.94273 7.67263 7.68325Z" stroke="#D1D1D1" stroke-linecap="round"/>
</svg>
