<svg width="25" height="25" viewBox="0 0 25 25" fill="none" xmlns="http://www.w3.org/2000/svg">
<path d="M7.58105 6.36035V6.86035C7.74823 6.86035 7.90435 6.7768 7.99708 6.6377L7.58105 6.36035ZM8.98732 4.25095L8.5713 3.9736L8.98732 4.25095ZM16.1748 4.25095L16.5908 3.9736L16.1748 4.25095ZM17.5811 6.36035L17.165 6.6377C17.2578 6.7768 17.4139 6.86035 17.5811 6.86035V6.36035ZM15.5811 13.8604H15.0811C15.0811 15.2411 13.9618 16.3604 12.5811 16.3604V16.8604V17.3604C14.5141 17.3604 16.0811 15.7933 16.0811 13.8604H15.5811ZM12.5811 16.8604V16.3604C11.2003 16.3604 10.0811 15.2411 10.0811 13.8604H9.58105H9.08105C9.08105 15.7933 10.6481 17.3604 12.5811 17.3604V16.8604ZM9.58105 13.8604H10.0811C10.0811 12.4796 11.2003 11.3604 12.5811 11.3604V10.8604V10.3604C10.6481 10.3604 9.08105 11.9274 9.08105 13.8604H9.58105ZM12.5811 10.8604V11.3604C13.9618 11.3604 15.0811 12.4796 15.0811 13.8604H15.5811H16.0811C16.0811 11.9274 14.5141 10.3604 12.5811 10.3604V10.8604ZM7.58105 6.36035L7.99708 6.6377L9.40335 4.5283L8.98732 4.25095L8.5713 3.9736L7.16503 6.083L7.58105 6.36035ZM10.6514 3.36035V3.86035H14.5107V3.36035V2.86035H10.6514V3.36035ZM16.1748 4.25095L15.7588 4.5283L17.165 6.6377L17.5811 6.36035L17.9971 6.083L16.5908 3.9736L16.1748 4.25095ZM14.5107 3.36035V3.86035C15.0122 3.86035 15.4806 4.111 15.7588 4.5283L16.1748 4.25095L16.5908 3.9736C16.1271 3.2781 15.3466 2.86035 14.5107 2.86035V3.36035ZM8.98732 4.25095L9.40335 4.5283C9.68155 4.111 10.1499 3.86035 10.6514 3.86035V3.36035V2.86035C9.81554 2.86035 9.03496 3.2781 8.5713 3.9736L8.98732 4.25095ZM22.5811 10.3604H22.0811V17.3604H22.5811H23.0811V10.3604H22.5811ZM18.5811 21.3604V20.8604H6.58105V21.3604V21.8604H18.5811V21.3604ZM2.58105 17.3604H3.08105V10.3604H2.58105H2.08105V17.3604H2.58105ZM6.58105 21.3604V20.8604C4.64806 20.8604 3.08105 19.2933 3.08105 17.3604H2.58105H2.08105C2.08105 19.8456 4.09577 21.8604 6.58105 21.8604V21.3604ZM22.5811 17.3604H22.0811C22.0811 19.2933 20.5141 20.8604 18.5811 20.8604V21.3604V21.8604C21.0663 21.8604 23.0811 19.8456 23.0811 17.3604H22.5811ZM18.5811 6.36035V6.86035C20.5141 6.86035 22.0811 8.42736 22.0811 10.3604H22.5811H23.0811C23.0811 7.87507 21.0663 5.86035 18.5811 5.86035V6.36035ZM6.58105 6.36035V5.86035C4.09577 5.86035 2.08105 7.87507 2.08105 10.3604H2.58105H3.08105C3.08105 8.42736 4.64806 6.86035 6.58105 6.86035V6.36035ZM6.58105 6.36035V6.86035H7.58105V6.36035V5.86035H6.58105V6.36035ZM18.5811 6.36035V5.86035H17.5811V6.36035V6.86035H18.5811V6.36035Z" fill="#D1D1D1"/>
<circle cx="12.5811" cy="6.36035" r="1" fill="#D1D1D1"/>
</svg>
