<svg width="25" height="25" viewBox="0 0 25 25" fill="none" xmlns="http://www.w3.org/2000/svg">
<path d="M3.92805 6.79941C3.74459 7.0058 3.76318 7.32184 3.96958 7.5053C4.17597 7.68876 4.492 7.67017 4.67546 7.46377L3.92805 6.79941ZM5.80694 5.43826L5.43323 5.10608L5.43323 5.10608L5.80694 5.43826ZM8.79658 5.43826L9.17028 5.10608V5.10608L8.79658 5.43826ZM8.79658 20.0749L9.17028 20.4071L8.79658 20.0749ZM10.6755 18.7138C10.8589 18.5074 10.8403 18.1913 10.6339 18.0079C10.4275 17.8244 10.1115 17.843 9.92805 18.0494L10.6755 18.7138ZM5.80694 20.0749L5.43323 20.4071L5.80694 20.0749ZM4.67546 18.0494C4.492 17.843 4.17597 17.8244 3.96958 18.0079C3.76318 18.1913 3.74459 18.5074 3.92805 18.7138L4.67546 18.0494ZM4.30176 7.13159L4.67546 7.46377L6.18064 5.77044L5.80694 5.43826L5.43323 5.10608L3.92805 6.79941L4.30176 7.13159ZM8.79658 5.43826L8.42287 5.77044L9.92805 7.46377L10.3018 7.13159L10.6755 6.79941L9.17028 5.10608L8.79658 5.43826ZM8.79658 20.0749L9.17028 20.4071L10.6755 18.7138L10.3018 18.3816L9.92805 18.0494L8.42287 19.7427L8.79658 20.0749ZM5.80694 20.0749L6.18064 19.7427L4.67546 18.0494L4.30176 18.3816L3.92805 18.7138L5.43323 20.4071L5.80694 20.0749ZM8.79658 20.0749L8.42287 19.7427C7.82619 20.414 6.77733 20.414 6.18064 19.7427L5.80694 20.0749L5.43323 20.4071C6.42771 21.5259 8.1758 21.5259 9.17028 20.4071L8.79658 20.0749ZM5.80694 5.43826L6.18064 5.77044C6.77733 5.09917 7.82619 5.09917 8.42287 5.77044L8.79658 5.43826L9.17028 5.10608C8.1758 3.98729 6.42771 3.98729 5.43323 5.10608L5.80694 5.43826ZM17.3018 10.7566V10.2566C15.921 10.2566 14.8018 9.1373 14.8018 7.75659H14.3018H13.8018C13.8018 9.68959 15.3688 11.2566 17.3018 11.2566V10.7566ZM20.3018 7.75659H19.8018C19.8018 9.1373 18.6825 10.2566 17.3018 10.2566V10.7566V11.2566C19.2348 11.2566 20.8018 9.68959 20.8018 7.75659H20.3018ZM17.3018 4.75659V5.25659C18.6825 5.25659 19.8018 6.37588 19.8018 7.75659H20.3018H20.8018C20.8018 5.8236 19.2348 4.25659 17.3018 4.25659V4.75659ZM17.3018 4.75659V4.25659C15.3688 4.25659 13.8018 5.8236 13.8018 7.75659H14.3018H14.8018C14.8018 6.37588 15.921 5.25659 17.3018 5.25659V4.75659ZM17.3018 20.7566V20.2566C15.921 20.2566 14.8018 19.1373 14.8018 17.7566H14.3018H13.8018C13.8018 19.6896 15.3688 21.2566 17.3018 21.2566V20.7566ZM20.3018 17.7566H19.8018C19.8018 19.1373 18.6825 20.2566 17.3018 20.2566V20.7566V21.2566C19.2348 21.2566 20.8018 19.6896 20.8018 17.7566H20.3018ZM17.3018 14.7566V15.2566C18.6825 15.2566 19.8018 16.3759 19.8018 17.7566H20.3018H20.8018C20.8018 15.8236 19.2348 14.2566 17.3018 14.2566V14.7566ZM17.3018 14.7566V14.2566C15.3688 14.2566 13.8018 15.8236 13.8018 17.7566H14.3018H14.8018C14.8018 16.3759 15.921 15.2566 17.3018 15.2566V14.7566ZM7.30176 4.75659H6.80176V20.7566H7.30176H7.80176V4.75659H7.30176Z" fill="#D1D1D1"/>
</svg>
