<svg width="25" height="25" viewBox="0 0 25 25" fill="none" xmlns="http://www.w3.org/2000/svg">
<path d="M8.77058 11.3532C8.19596 10.2062 7.00964 9.41882 5.6394 9.41882C3.70641 9.41882 2.1394 10.9858 2.1394 12.9188C2.1394 14.8518 3.70641 16.4188 5.6394 16.4188C7.00964 16.4188 8.19596 15.6314 8.77058 14.4844M8.77058 11.3532C9.00659 11.8243 9.1394 12.3561 9.1394 12.9188C9.1394 13.4816 9.00659 14.0133 8.77058 14.4844M8.77058 11.3532L15.5082 7.98441M8.77058 14.4844L15.5082 17.8532M15.5082 7.98441C16.0828 9.13142 17.2692 9.91882 18.6394 9.91882C20.5724 9.91882 22.1394 8.35182 22.1394 6.41882C22.1394 4.48583 20.5724 2.91882 18.6394 2.91882C16.7064 2.91882 15.1394 4.48583 15.1394 6.41882C15.1394 6.98159 15.2722 7.51333 15.5082 7.98441ZM15.5082 17.8532C15.2722 18.3243 15.1394 18.8561 15.1394 19.4188C15.1394 21.3518 16.7064 22.9188 18.6394 22.9188C20.5724 22.9188 22.1394 21.3518 22.1394 19.4188C22.1394 17.4858 20.5724 15.9188 18.6394 15.9188C17.2692 15.9188 16.0828 16.7062 15.5082 17.8532Z" stroke="#D1D1D1" stroke-linecap="round"/>
</svg>
