<svg width="25" height="25" viewBox="0 0 25 25" fill="none" xmlns="http://www.w3.org/2000/svg">
<path d="M16.8604 8.47729H8.86035C6.65121 8.47729 4.86035 10.2682 4.86035 12.4773V18.4773C4.86035 20.6864 6.65121 22.4773 8.86035 22.4773H16.8604C19.0695 22.4773 20.8604 20.6864 20.8604 18.4773V12.4773C20.8604 10.2682 19.0695 8.47729 16.8604 8.47729ZM16.8604 8.47729L16.8604 6.47729C16.8604 4.26816 15.0695 2.47729 12.8604 2.47729C11.3798 2.47729 10.0871 3.28169 9.39551 4.47729M14.8604 15.4773C14.8604 16.5819 13.9649 17.4773 12.8604 17.4773C11.7558 17.4773 10.8604 16.5819 10.8604 15.4773C10.8604 14.3727 11.7558 13.4773 12.8604 13.4773C13.9649 13.4773 14.8604 14.3727 14.8604 15.4773Z" stroke="#D1D1D1" stroke-linecap="round" stroke-linejoin="round"/>
</svg>
