<svg width="25" height="25" viewBox="0 0 25 25" fill="none" xmlns="http://www.w3.org/2000/svg">
<g clip-path="url(#clip0_2108_1221)">
<path d="M15.0205 16.1263L17.1674 19.845C17.5816 20.5624 17.3358 21.4798 16.6184 21.894C15.901 22.3082 14.9836 22.0624 14.5694 21.345L11.9158 16.7489M20.3147 5.02823L20.6807 3.6622M22.3147 8.49234L23.6807 8.85837M8.95844 17.3584L19.5772 14.9269C20.8888 14.6266 21.5356 13.1427 20.8628 11.9774L16.5707 4.54325C15.8979 3.37792 14.2895 3.19612 13.3735 4.18188L5.95844 12.1622L8.95844 17.3584ZM6.20847 12.5952L8.70847 16.9253C9.12268 17.6428 8.87687 18.5602 8.15943 18.9744C7.44199 19.3886 6.52461 19.1428 6.11039 18.4253L3.61039 14.0952C3.19618 13.3778 3.44199 12.4604 4.15943 12.0462C4.87687 11.632 5.79425 11.8778 6.20847 12.5952Z" stroke="#D1D1D1" stroke-linecap="round" stroke-linejoin="round"/>
</g>
<defs>
<clipPath id="clip0_2108_1221">
<rect width="24" height="24" fill="white" transform="translate(0.860352 0.19812)"/>
</clipPath>
</defs>
</svg>
