<svg width="25" height="25" viewBox="0 0 25 25" fill="none" xmlns="http://www.w3.org/2000/svg">
<path d="M13.1394 2.36035V6.36035C13.1394 8.56949 14.9303 10.3604 17.1394 10.3604L21.1394 10.3604M3.1394 6.36035L3.1394 18.3604C3.1394 20.5695 4.93027 22.3604 7.1394 22.3604H17.1394C19.3485 22.3604 21.1394 20.5695 21.1394 18.3604V12.0172C21.1394 10.9563 20.718 9.93892 19.9678 9.18878L14.311 3.53192C13.5608 2.78178 12.5434 2.36035 11.4825 2.36035L7.1394 2.36035C4.93027 2.36035 3.1394 4.15121 3.1394 6.36035Z" stroke="#D1D1D1" stroke-linejoin="round"/>
<path d="M8.12573 14.0654H8.98999V16.7842C8.98999 17.1396 8.95874 17.4131 8.89624 17.6045C8.81226 17.8545 8.65991 18.0557 8.43921 18.208C8.21851 18.3584 7.92749 18.4336 7.56616 18.4336C7.14233 18.4336 6.81616 18.3154 6.58765 18.0791C6.35913 17.8408 6.2439 17.4922 6.24194 17.0332L7.05933 16.9395C7.06909 17.1855 7.10522 17.3594 7.16772 17.4609C7.26147 17.6152 7.40405 17.6924 7.59546 17.6924C7.78882 17.6924 7.92554 17.6377 8.00562 17.5283C8.08569 17.417 8.12573 17.1875 8.12573 16.8398V14.0654Z" fill="#D1D1D1"/>
<path d="M9.91577 18.3604V14.0654H11.3074C11.8347 14.0654 12.1785 14.0869 12.3386 14.1299C12.5847 14.1943 12.7908 14.335 12.9568 14.5518C13.1228 14.7666 13.2058 15.0449 13.2058 15.3867C13.2058 15.6504 13.158 15.8721 13.0623 16.0518C12.9666 16.2314 12.8445 16.373 12.696 16.4766C12.5496 16.5781 12.4001 16.6455 12.2478 16.6787C12.0408 16.7197 11.741 16.7402 11.3484 16.7402H10.783V18.3604H9.91577ZM10.783 14.792V16.0107H11.2576C11.5994 16.0107 11.8279 15.9883 11.9431 15.9434C12.0583 15.8984 12.1482 15.8281 12.2126 15.7324C12.2791 15.6367 12.3123 15.5254 12.3123 15.3984C12.3123 15.2422 12.2664 15.1133 12.1746 15.0117C12.0828 14.9102 11.9666 14.8467 11.8259 14.8213C11.7224 14.8018 11.5144 14.792 11.2019 14.792H10.783Z" fill="#D1D1D1"/>
<path d="M15.9158 16.7812V16.0576H17.7849V17.7686C17.6033 17.9443 17.3396 18.0996 16.9939 18.2344C16.6501 18.3672 16.3015 18.4336 15.948 18.4336C15.4988 18.4336 15.1072 18.3398 14.7732 18.1523C14.4392 17.9629 14.1882 17.6934 14.0203 17.3438C13.8523 16.9922 13.7683 16.6104 13.7683 16.1982C13.7683 15.751 13.8621 15.3535 14.0496 15.0059C14.2371 14.6582 14.5115 14.3916 14.8728 14.2061C15.1482 14.0635 15.491 13.9922 15.9011 13.9922C16.4343 13.9922 16.8503 14.1045 17.1492 14.3291C17.45 14.5518 17.6433 14.8604 17.7292 15.2549L16.8679 15.416C16.8074 15.2051 16.6931 15.0391 16.5251 14.918C16.3591 14.7949 16.1511 14.7334 15.9011 14.7334C15.5222 14.7334 15.2205 14.8535 14.9958 15.0938C14.7732 15.334 14.6619 15.6904 14.6619 16.1631C14.6619 16.6729 14.7751 17.0557 15.0017 17.3115C15.2283 17.5654 15.5251 17.6924 15.8923 17.6924C16.074 17.6924 16.2556 17.6572 16.4373 17.5869C16.6208 17.5146 16.7781 17.4277 16.9089 17.3262V16.7812H15.9158Z" fill="#D1D1D1"/>
</svg>
