<svg width="25" height="25" viewBox="0 0 25 25" fill="none" xmlns="http://www.w3.org/2000/svg">
<path d="M14.4187 12.7566C14.4187 13.8612 13.5233 14.7566 12.4187 14.7566C11.3141 14.7566 10.4187 13.8612 10.4187 12.7566C10.4187 11.652 11.3141 10.7566 12.4187 10.7566C13.5233 10.7566 14.4187 11.652 14.4187 12.7566Z" stroke="#D1D1D1"/>
<path d="M14.4187 4.75659C14.4187 5.86116 13.5233 6.75659 12.4187 6.75659C11.3141 6.75659 10.4187 5.86116 10.4187 4.75659C10.4187 3.65202 11.3141 2.75659 12.4187 2.75659C13.5233 2.75659 14.4187 3.65202 14.4187 4.75659Z" stroke="#D1D1D1"/>
<path d="M14.4187 20.7566C14.4187 21.8612 13.5233 22.7566 12.4187 22.7566C11.3141 22.7566 10.4187 21.8612 10.4187 20.7566C10.4187 19.652 11.3141 18.7566 12.4187 18.7566C13.5233 18.7566 14.4187 19.652 14.4187 20.7566Z" stroke="#D1D1D1"/>
</svg>
