<svg width="24" height="24" viewBox="0 0 24 24" fill="none" xmlns="http://www.w3.org/2000/svg">
<path d="M6.14632 5.26465C6.85087 5.30192 7.54397 5.60812 8.0555 6.18359L9.56039 7.87695C9.83546 8.18654 9.80743 8.66039 9.49789 8.93555C9.1883 9.21061 8.71444 9.18259 8.43929 8.87305L6.93441 7.17969C6.87754 7.11571 6.81544 7.05911 6.74984 7.00977V18C6.74984 18.4142 6.41405 18.75 5.99984 18.75C5.58562 18.75 5.24984 18.4142 5.24984 18V7.00977C5.18424 7.05911 5.12213 7.11571 5.06527 7.17969L3.56039 8.87305C3.28523 9.18259 2.81138 9.21062 2.50179 8.93555C2.19225 8.6604 2.16423 8.18654 2.43929 7.87695L3.94417 6.18359C4.45571 5.60812 5.14882 5.30193 5.85335 5.26465C5.90065 5.2553 5.94979 5.25 5.99984 5.25C6.04988 5.25 6.09902 5.2553 6.14632 5.26465ZM14.9998 17.25C15.4141 17.25 15.7498 17.5858 15.7498 18C15.7498 18.4142 15.4141 18.75 14.9998 18.75H11.9998C11.5856 18.75 11.2498 18.4142 11.2498 18C11.2498 17.5858 11.5856 17.25 11.9998 17.25H14.9998ZM17.9998 11.25C18.4141 11.25 18.7498 11.5858 18.7498 12C18.7498 12.4142 18.4141 12.75 17.9998 12.75H11.9998C11.5856 12.75 11.2498 12.4142 11.2498 12C11.2498 11.5858 11.5856 11.25 11.9998 11.25H17.9998ZM20.9998 5.25C21.4141 5.25 21.7498 5.58579 21.7498 6C21.7498 6.41421 21.4141 6.75 20.9998 6.75H11.9998C11.5856 6.75 11.2498 6.41421 11.2498 6C11.2498 5.58579 11.5856 5.25 11.9998 5.25H20.9998Z" fill="#D1D1D1"/>
</svg>
