<svg width="24" height="24" viewBox="0 0 24 24" fill="none" xmlns="http://www.w3.org/2000/svg">
<path d="M11 8.48199C11.0001 6.93846 12.6745 5.9767 14.0078 6.75445L20.0381 10.272C20.113 10.3157 20.1836 10.364 20.25 10.4146V7.50054C20.25 7.08633 20.5858 6.75054 21 6.75054C21.4142 6.75054 21.75 7.08633 21.75 7.50054V16.5005C21.7497 16.9145 21.4141 17.2505 21 17.2505C20.5859 17.2505 20.2503 16.9145 20.25 16.5005V13.5845C20.1835 13.6352 20.1131 13.6833 20.0381 13.7271L14.0078 17.2457C12.6746 18.0234 11.0001 17.0616 11 15.5181V14.3336L6.00781 17.2457C4.67456 18.0234 3.00014 17.0616 3 15.5181V8.48199C3.00006 6.93846 4.67452 5.9767 6.00781 6.75445L11 9.66656V8.48199Z" fill="#D1D1D1"/>
</svg>
