<svg width="24" height="24" viewBox="0 0 24 24" fill="none" xmlns="http://www.w3.org/2000/svg">
<path d="M11.3428 2C11.6506 2 11.955 2.03581 12.25 2.10449V6C12.25 8.62335 14.3766 10.75 17 10.75H20.8945C20.9632 11.0451 21 11.3494 21 11.6572V18C21 20.2091 19.2091 22 17 22H7C4.79086 22 3 20.2091 3 18V6C3 3.79086 4.79086 2 7 2H11.3428ZM16.3213 13.6318C15.9111 13.6318 15.5684 13.7031 15.293 13.8457C14.9316 14.0313 14.6572 14.2979 14.4697 14.6455C14.2822 14.9932 14.1885 15.3906 14.1885 15.8379C14.1885 16.25 14.2725 16.6318 14.4404 16.9834C14.6084 17.333 14.8594 17.6025 15.1934 17.792C15.5273 17.9795 15.9189 18.0732 16.3682 18.0732C16.7217 18.0732 17.0703 18.0068 17.4141 17.874C17.7598 17.7393 18.0234 17.584 18.2051 17.4082V15.6973H16.3359V16.4209H17.3291V16.9658C17.1982 17.0674 17.041 17.1543 16.8574 17.2266C16.6758 17.2969 16.4941 17.332 16.3125 17.332C15.9453 17.332 15.6484 17.2051 15.4219 16.9512C15.1953 16.6953 15.082 16.3125 15.082 15.8027C15.082 15.3301 15.1934 14.9736 15.416 14.7334C15.6406 14.4932 15.9424 14.373 16.3213 14.373C16.5713 14.373 16.7793 14.4346 16.9453 14.5576C17.1133 14.6787 17.2275 14.8447 17.2881 15.0557L18.1494 14.8945C18.0635 14.5 17.8701 14.1914 17.5693 13.9688C17.2705 13.7441 16.8545 13.6318 16.3213 13.6318ZM6 13.7051V18H6.86719V16.3799H7.43262C7.8252 16.3799 8.125 16.3594 8.33203 16.3184C8.48438 16.2852 8.63379 16.2178 8.78027 16.1162C8.92871 16.0127 9.05078 15.8711 9.14648 15.6914C9.24219 15.5117 9.29004 15.29 9.29004 15.0264C9.29004 14.6846 9.20703 14.4063 9.04102 14.1914C8.875 13.9746 8.66895 13.834 8.42285 13.7695C8.2627 13.7266 7.91895 13.7051 7.3916 13.7051H6ZM10.0107 13.7051V18H10.8164V15.1992L12.5479 18H13.418V13.7051H12.6123V16.5732L10.8545 13.7051H10.0107ZM7.28613 14.4316C7.59863 14.4316 7.80664 14.4414 7.91016 14.4609C8.05078 14.4863 8.16699 14.5498 8.25879 14.6514C8.35059 14.7529 8.39648 14.8818 8.39648 15.0381C8.39648 15.165 8.36328 15.2764 8.29688 15.3721C8.23242 15.4678 8.14258 15.5381 8.02734 15.583C7.91211 15.6279 7.68359 15.6504 7.3418 15.6504H6.86719V14.4316H7.28613ZM13.75 2.80566C13.898 2.91715 14.0394 3.03937 14.1719 3.17188L19.8281 8.82813C19.9605 8.9605 20.082 9.10221 20.1934 9.25H17C15.2051 9.25 13.75 7.79492 13.75 6V2.80566Z" fill="#D1D1D1"/>
</svg>
