<svg width="24" height="24" viewBox="0 0 24 24" fill="none" xmlns="http://www.w3.org/2000/svg">
<path d="M11.1785 13.4609C14.4625 14.4055 17.2876 16.3246 19.2781 18.8516C17.4544 20.7881 14.8697 22 11.9998 22C11.1388 22 10.3037 21.8892 9.50659 21.6846C9.59699 18.8044 10.1789 16.0391 11.1785 13.4609ZM6.53101 12.8105C7.61915 12.8105 8.68122 12.9135 9.70679 13.1094C8.74497 15.6475 8.16353 18.3569 8.02612 21.1768C4.89172 19.8176 2.59077 16.9019 2.09937 13.4033C3.50496 13.0196 4.99129 12.8106 6.53101 12.8105ZM12.4568 10.6768C14.3951 11.3828 16.5009 11.7686 18.7 11.7686C19.8223 11.7686 20.9201 11.6662 21.9841 11.4736C21.9932 11.648 21.9998 11.8234 21.9998 12C21.9998 14.1017 21.3506 16.0514 20.2429 17.6611C18.1058 15.059 15.1614 13.0828 11.7664 12.0693C11.9824 11.5979 12.2127 11.1336 12.4568 10.6768ZM4.74487 5.11719C6.39269 7.22199 8.5583 8.94002 11.0642 10.1016C10.7888 10.6239 10.5298 11.1559 10.2888 11.6963C9.07831 11.4438 7.82077 11.3105 6.53101 11.3105C4.9645 11.3106 3.4459 11.5087 2.00073 11.877C2.0323 9.25877 3.06969 6.8824 4.74487 5.11719ZM17.7449 3.81445C19.7931 5.25466 21.2757 7.44396 21.7957 9.98438C20.795 10.1704 19.76 10.2686 18.7 10.2686C16.7703 10.2686 14.9225 9.94518 13.2146 9.35352C14.4599 7.32143 15.9865 5.45951 17.7449 3.81445ZM11.9998 2C13.5802 2 15.0753 2.36665 16.4041 3.01953C14.62 4.73986 13.0703 6.67897 11.8035 8.79004C9.42969 7.71072 7.3885 6.09159 5.85815 4.10742C7.55301 2.78664 9.68458 2.00005 11.9998 2Z" fill="#D1D1D1"/>
</svg>
