<svg width="25" height="25" viewBox="0 0 25 25" fill="none" xmlns="http://www.w3.org/2000/svg">
<path d="M8.16767 6.43384C8.46056 6.14095 8.93532 6.14095 9.22821 6.43384L12.2282 9.43384C12.5211 9.72673 12.5211 10.2015 12.2282 10.4944C11.9353 10.7873 11.4606 10.7873 11.1677 10.4944L9.44794 8.77466V18.9641C9.44794 19.3783 9.11215 19.7141 8.69794 19.7141C8.28373 19.7141 7.94794 19.3783 7.94794 18.9641V8.77466L6.22821 10.4944C5.93532 10.7873 5.46056 10.7873 5.16767 10.4944C4.87477 10.2015 4.87477 9.72673 5.16767 9.43384L8.16767 6.43384ZM16.6979 6.21411C17.1122 6.21411 17.4479 6.5499 17.4479 6.96411V17.1536L19.1677 15.4338C19.4606 15.1409 19.9353 15.1409 20.2282 15.4338C20.5211 15.7267 20.5211 16.2015 20.2282 16.4944L17.2282 19.4944C16.9353 19.7873 16.4606 19.7873 16.1677 19.4944L13.1677 16.4944C12.8748 16.2015 12.8748 15.7267 13.1677 15.4338C13.4606 15.1409 13.9353 15.1409 14.2282 15.4338L15.9479 17.1536V6.96411C15.9479 6.5499 16.2837 6.21411 16.6979 6.21411Z" fill="#888888"/>
</svg>
