<svg width="25" height="25" viewBox="0 0 25 25" fill="none" xmlns="http://www.w3.org/2000/svg">
<path d="M11.3018 9.28387C11.3018 7.74034 12.9763 6.77858 14.3096 7.55633L20.3398 11.0739C20.4147 11.1176 20.4853 11.1659 20.5518 11.2165V8.30242C20.5518 7.88821 20.8875 7.55242 21.3018 7.55242C21.716 7.55242 22.0518 7.88821 22.0518 8.30242V17.3024C22.0515 17.7164 21.7158 18.0524 21.3018 18.0524C20.8877 18.0524 20.552 17.7164 20.5518 17.3024V14.3864C20.4852 14.4371 20.4149 14.4852 20.3398 14.529L14.3096 18.0475C12.9763 18.8252 11.3019 17.8635 11.3018 16.32V15.1354L6.30957 18.0475C4.97632 18.8252 3.3019 17.8635 3.30176 16.32V9.28387C3.30182 7.74034 4.97628 6.77858 6.30957 7.55633L11.3018 10.4684V9.28387Z" fill="#888888"/>
</svg>
