<svg width="24" height="24" viewBox="0 0 24 24" fill="none" xmlns="http://www.w3.org/2000/svg">
<path d="M12 3C16.9706 3 21 7.02944 21 12C21 16.9706 16.9706 21 12 21C7.02944 21 3 16.9706 3 12C3 7.02944 7.02944 3 12 3ZM15.4648 6.75C15.0506 6.75001 14.7148 7.0858 14.7148 7.5V8.10156C13.9457 7.56492 13.0097 7.25 12 7.25C9.37665 7.25 7.25 9.37665 7.25 12C7.25 14.6234 9.37665 16.75 12 16.75C14.2143 16.75 16.0733 15.2351 16.6006 13.1865C16.7035 12.7855 16.4615 12.3766 16.0605 12.2734C15.6595 12.1705 15.2507 12.4125 15.1475 12.8135C14.7865 14.2152 13.5132 15.25 12 15.25C10.2051 15.25 8.75 13.7949 8.75 12C8.75 10.2051 10.2051 8.75 12 8.75C12.8231 8.75 13.5753 9.0562 14.1484 9.56152L13.3154 9.77344C12.9141 9.87556 12.6715 10.2832 12.7734 10.6846C12.8756 11.0859 13.2832 11.3285 13.6846 11.2266L15.6494 10.7266C15.9818 10.642 16.2148 10.343 16.2148 10V7.5C16.2148 7.08579 15.8791 6.75 15.4648 6.75Z" fill="#D1D1D1"/>
</svg>
