<svg width="25" height="25" viewBox="0 0 25 25" fill="none" xmlns="http://www.w3.org/2000/svg">
<path d="M17.4187 15.9349C17.8329 15.9349 18.1687 16.2707 18.1687 16.6849C18.1687 17.0991 17.8329 17.4349 17.4187 17.4349H7.4187C7.00449 17.4349 6.6687 17.0991 6.6687 16.6849C6.6687 16.2707 7.00449 15.9349 7.4187 15.9349H17.4187ZM17.4187 11.9349C17.8329 11.9349 18.1687 12.2707 18.1687 12.6849C18.1687 13.0992 17.8329 13.4349 17.4187 13.4349H7.4187C7.00449 13.4349 6.6687 13.0992 6.6687 12.6849C6.6687 12.2707 7.00449 11.9349 7.4187 11.9349H17.4187ZM17.4187 7.93494C17.8329 7.93494 18.1687 8.27072 18.1687 8.68494C18.1687 9.09915 17.8329 9.43494 17.4187 9.43494H7.4187C7.00449 9.43494 6.6687 9.09915 6.6687 8.68494C6.6687 8.27072 7.00449 7.93494 7.4187 7.93494H17.4187Z" fill="#888888"/>
</svg>
