<svg width="25" height="24" viewBox="0 0 25 24" fill="none" xmlns="http://www.w3.org/2000/svg">
<path d="M10.9563 21C9.02684 21 7.82492 18.9069 8.79712 17.2402L10.1038 15H5.16528C3.86415 15 2.90928 13.7769 3.22485 12.5146L4.84595 6.03027C5.29111 4.24962 6.89135 3.00002 8.72681 3H11.8928C12.6825 3.00004 13.4546 3.23386 14.1116 3.67188L15.6584 4.70312C15.9366 4.88859 16.1038 5.20081 16.1038 5.53516V13.7344C16.1038 13.9084 16.0582 14.0794 15.9719 14.2305L12.1038 21H10.9563ZM19.6038 15C18.4992 15 17.6038 14.1046 17.6038 13V6C17.6038 4.89543 18.4992 4 19.6038 4H20.6038C21.7083 4 22.6038 4.89543 22.6038 6V13C22.6038 14.1046 21.7083 15 20.6038 15H19.6038Z" fill="#D1D1D1"/>
</svg>
