<svg width="25" height="25" viewBox="0 0 25 25" fill="none" xmlns="http://www.w3.org/2000/svg">
<path d="M7.86035 7.05188C8.27457 7.05188 8.61035 7.38767 8.61035 7.80188V11.2159C8.67669 11.1654 8.74747 11.118 8.82227 11.0743L14.8525 7.55676C16.1859 6.779 17.8604 7.74072 17.8604 9.2843V16.3195C17.8604 17.863 16.1859 18.8248 14.8525 18.047L8.82227 14.5294C8.7473 14.4857 8.67682 14.4375 8.61035 14.3868V17.8019C8.61035 18.2161 8.27457 18.5519 7.86035 18.5519C7.44614 18.5519 7.11035 18.2161 7.11035 17.8019V7.80188C7.11035 7.38767 7.44614 7.05188 7.86035 7.05188Z" fill="#888888"/>
</svg>
