<svg width="25" height="25" viewBox="0 0 25 25" fill="none" xmlns="http://www.w3.org/2000/svg">
<path d="M17.1394 7.05188C17.5536 7.05188 17.8894 7.38767 17.8894 7.80188V17.8019C17.8894 18.2161 17.5536 18.5519 17.1394 18.5519C16.7252 18.5519 16.3894 18.2161 16.3894 17.8019V14.3868C16.3229 14.4375 16.2525 14.4857 16.1775 14.5294L10.1472 18.047C8.8139 18.8248 7.1394 17.863 7.1394 16.3195V9.2843C7.1394 7.74072 8.8139 6.779 10.1472 7.55676L16.1775 11.0743C16.2523 11.118 16.3231 11.1654 16.3894 11.2159V7.80188C16.3894 7.38767 16.7252 7.05188 17.1394 7.05188Z" fill="#888888"/>
</svg>
