<svg width="22" height="22" viewBox="0 0 22 22" fill="none" xmlns="http://www.w3.org/2000/svg">
<path d="M10.8604 0.402802C11.2746 0.402802 11.6104 0.738588 11.6104 1.1528C11.6104 1.56702 11.2746 1.9028 10.8604 1.9028H4.86035C3.06543 1.9028 1.61035 3.35788 1.61035 5.1528V17.1528C1.61035 18.9477 3.06543 20.4028 4.86035 20.4028H16.8604C18.6553 20.4028 20.1104 18.9477 20.1104 17.1528V11.1528C20.1104 10.7386 20.4461 10.4028 20.8604 10.4028C21.2746 10.4028 21.6104 10.7386 21.6104 11.1528V17.1528C21.6104 19.7762 19.4837 21.9028 16.8604 21.9028H4.86035C2.237 21.9028 0.110352 19.7762 0.110352 17.1528V5.1528C0.110352 2.52945 2.237 0.402802 4.86035 0.402802H10.8604ZM12.7158 4.39304C13.1843 5.27485 13.8735 6.3886 14.749 7.26413C15.6245 8.13965 16.7383 8.82886 17.6201 9.29733L11.9199 14.9966C11.5663 15.3501 11.1074 15.5801 10.6123 15.6508L7.17969 16.1411C6.4171 16.2498 5.76334 15.5961 5.87207 14.8335L6.3623 11.4008C6.43303 10.9058 6.66303 10.4469 7.0166 10.0932L12.7158 4.39304ZM15.2793 1.82956C16.1821 0.92692 17.6461 0.92689 18.5488 1.82956L20.1836 3.46432C21.0863 4.36707 21.0862 5.83109 20.1836 6.73386L18.7344 8.18307C18.6206 8.12674 18.5001 8.0658 18.376 8.00046C17.5406 7.56065 16.5494 6.94336 15.8096 6.20358C15.0698 5.46379 14.4525 4.47253 14.0127 3.63718C13.9473 3.51304 13.8864 3.39257 13.8301 3.27878L15.2793 1.82956Z" fill="#888888"/>
</svg>
