<svg width="25" height="25" viewBox="0 0 25 25" fill="none" xmlns="http://www.w3.org/2000/svg">
<path fill-rule="evenodd" clip-rule="evenodd" d="M11.9934 4.54031C9.87436 3.08451 6.93294 2.42156 4.73774 2.1735C3.63983 2.04944 2.74341 2.96625 2.74341 4.09741V15.3622C2.74341 16.4933 3.63983 17.4105 4.73774 17.5346C6.93294 17.7826 9.87436 18.4456 11.9934 19.9014V4.54031ZM13.4934 19.9014C15.6125 18.4456 18.5539 17.7826 20.7491 17.5346C21.847 17.4105 22.7434 16.4933 22.7434 15.3622V4.09741C22.7434 2.96625 21.847 2.04944 20.7491 2.1735C18.5539 2.42156 15.6125 3.08451 13.4934 4.54031V19.9014ZM5.00223 7.30219C5.06562 6.89286 5.44884 6.61242 5.85818 6.67581C7.16095 6.87757 8.6281 7.2148 10.0139 7.75069C10.4002 7.90009 10.5923 8.33438 10.4429 8.72072C10.2935 9.10705 9.85922 9.29913 9.47289 9.14973C8.21424 8.66301 6.85739 8.34844 5.62861 8.15814C5.21928 8.09475 4.93883 7.71153 5.00223 7.30219ZM5.85818 10.6758C5.44884 10.6124 5.06562 10.8929 5.00223 11.3022C4.93883 11.7115 5.21928 12.0947 5.62861 12.1581C6.24785 12.254 6.90153 12.3818 7.55992 12.5479C7.96155 12.6492 8.36928 12.4058 8.4706 12.0042C8.57193 11.6025 8.32849 11.1948 7.92687 11.0935C7.21786 10.9146 6.51791 10.778 5.85818 10.6758Z" fill="#D1D1D1"/>
</svg>
