<svg width="24" height="24" viewBox="0 0 24 24" fill="none" xmlns="http://www.w3.org/2000/svg">
<path d="M12 1.25C17.9068 1.25 22.7011 6.01385 22.75 11.9092C22.7534 12.3234 22.4201 12.6626 22.0059 12.666C21.5917 12.6694 21.2535 12.336 21.25 11.9219C21.208 6.84934 17.0825 2.75 12 2.75C6.89137 2.75 2.75 6.89137 2.75 12C2.75 17.0825 6.84934 21.208 11.9219 21.25C12.336 21.2535 12.6694 21.5917 12.666 22.0059C12.6626 22.4201 12.3234 22.7534 11.9092 22.75C6.01385 22.7011 1.25 17.9067 1.25 12C1.25 6.06294 6.06294 1.25 12 1.25ZM12.0576 13.4238C11.7762 12.5794 12.5794 11.7762 13.4238 12.0576L21.2617 14.6699C22.2462 14.9983 22.2463 16.3914 21.2617 16.7197L18.3672 17.6836C18.0447 17.7911 17.7911 18.0447 17.6836 18.3672L16.7197 21.2617C16.3914 22.2463 14.9983 22.2462 14.6699 21.2617L12.0576 13.4238ZM12 6.25C14.4157 6.25 16.4815 7.73977 17.333 9.84766C17.488 10.2316 17.3028 10.668 16.9189 10.8232C16.5349 10.9784 16.0975 10.7932 15.9424 10.4092C15.312 8.84882 13.7835 7.75 12 7.75C9.65279 7.75 7.75 9.65279 7.75 12C7.75 13.7835 8.84882 15.312 10.4092 15.9424C10.7932 16.0975 10.9784 16.5349 10.8232 16.9189C10.668 17.3028 10.2316 17.488 9.84766 17.333C7.73977 16.4815 6.25 14.4157 6.25 12C6.25 8.82436 8.82436 6.25 12 6.25Z" fill="#D1D1D1"/>
</svg>
