<svg width="25" height="25" viewBox="0 0 25 25" fill="none" xmlns="http://www.w3.org/2000/svg">
<path d="M3.7207 7.05188C4.13492 7.05188 4.4707 7.38767 4.4707 7.80188V11.2394C4.54578 11.1799 4.62653 11.1247 4.71289 11.0743L10.7441 7.55676C12.0774 6.77913 13.752 7.74077 13.752 9.2843V10.4689L18.7441 7.55676C20.0774 6.77913 21.752 7.74077 21.752 9.2843V16.3195C21.752 17.863 20.0774 18.8246 18.7441 18.047L13.752 15.1349V16.3195C13.752 17.863 12.0774 18.8246 10.7441 18.047L4.71289 14.5294C4.62635 14.4789 4.54592 14.423 4.4707 14.3634V17.8019C4.4707 18.2161 4.13492 18.5519 3.7207 18.5519C3.30649 18.5519 2.9707 18.2161 2.9707 17.8019V7.80188C2.9707 7.38767 3.30649 7.05188 3.7207 7.05188Z" fill="#888888"/>
</svg>
