<svg width="25" height="25" viewBox="0 0 25 25" fill="none" xmlns="http://www.w3.org/2000/svg">
<path d="M12.1394 13.6265V10.6265L22.0277 10.6265C22.1013 11.1158 22.1394 11.6167 22.1394 12.1265C22.1394 17.6493 17.6623 22.1265 12.1394 22.1265C6.61656 22.1265 2.1394 17.6493 2.1394 12.1265C2.1394 6.60362 6.61656 2.12646 12.1394 2.12646C14.9008 2.12646 17.4008 3.24575 19.2105 5.0554L17.0892 7.17672C15.8224 5.90997 14.0724 5.12646 12.1394 5.12646C8.27341 5.12646 5.1394 8.26047 5.1394 12.1265C5.1394 15.9925 8.27341 19.1265 12.1394 19.1265C15.4905 19.1265 18.2916 16.7716 18.9783 13.6265H12.1394Z" fill="#888888"/>
</svg>
