<svg width="24" height="25" viewBox="0 0 24 25" fill="none" xmlns="http://www.w3.org/2000/svg">
<path d="M7 16.5745C8.51878 16.5745 9.75 17.8057 9.75 19.3245C9.75 20.8432 8.51878 22.0745 7 22.0745C5.74122 22.0745 4.67998 21.2287 4.35352 20.0745H3C2.58579 20.0745 2.25 19.7387 2.25 19.3245C2.25 18.9102 2.58579 18.5745 3 18.5745H4.35352C4.67998 17.4202 5.74122 16.5745 7 16.5745ZM21 18.5745C21.4142 18.5745 21.75 18.9102 21.75 19.3245C21.75 19.7387 21.4142 20.0745 21 20.0745H12C11.5858 20.0745 11.25 19.7387 11.25 19.3245C11.25 18.9102 11.5858 18.5745 12 18.5745H21ZM17 9.57446C18.2588 9.57446 19.32 10.4202 19.6465 11.5745H21C21.4142 11.5745 21.75 11.9102 21.75 12.3245C21.75 12.7387 21.4142 13.0745 21 13.0745H19.6465C19.32 14.2287 18.2588 15.0745 17 15.0745C15.4812 15.0745 14.25 13.8432 14.25 12.3245C14.25 10.8057 15.4812 9.57446 17 9.57446ZM12 11.5745C12.4142 11.5745 12.75 11.9102 12.75 12.3245C12.75 12.7387 12.4142 13.0745 12 13.0745H3C2.58579 13.0745 2.25 12.7387 2.25 12.3245C2.25 11.9102 2.58579 11.5745 3 11.5745H12ZM12 2.57446C13.2588 2.57446 14.32 3.42021 14.6465 4.57446H21C21.4142 4.57446 21.75 4.91025 21.75 5.32446C21.75 5.73868 21.4142 6.07446 21 6.07446H14.6465C14.32 7.22872 13.2588 8.07446 12 8.07446C10.7412 8.07446 9.67998 7.22872 9.35352 6.07446H3C2.58579 6.07446 2.25 5.73868 2.25 5.32446C2.25 4.91025 2.58579 4.57446 3 4.57446H9.35352C9.67998 3.42021 10.7412 2.57446 12 2.57446Z" fill="#D1D1D1"/>
</svg>
