<svg width="25" height="25" viewBox="0 0 25 25" fill="none" xmlns="http://www.w3.org/2000/svg">
<path fill-rule="evenodd" clip-rule="evenodd" d="M2.88306 6.16223C2.88306 3.95309 4.67392 2.16223 6.88306 2.16223H18.8831C21.0922 2.16223 22.8831 3.95309 22.8831 6.16223V12.6113L20.6365 11.1408C18.902 10.0055 16.6317 10.1261 15.0273 11.4388L9.78905 15.7246C8.6913 16.6228 7.13788 16.7053 5.95114 15.9286L2.88306 13.9204V6.16223ZM19.815 12.3958L22.8831 14.404V18.1622C22.8831 20.3714 21.0922 22.1622 18.8831 22.1622H6.88306C4.67392 22.1622 2.88306 20.3714 2.88306 18.1622V15.7131L5.12965 17.1836C6.86412 18.3189 9.13451 18.1983 10.7389 16.8856L15.9771 12.5998C17.0749 11.7016 18.6283 11.6191 19.815 12.3958ZM9.38306 11.1622C10.7638 11.1622 11.8831 10.0429 11.8831 8.66223C11.8831 7.28152 10.7638 6.16223 9.38306 6.16223C8.00234 6.16223 6.88306 7.28152 6.88306 8.66223C6.88306 10.0429 8.00234 11.1622 9.38306 11.1622Z" fill="#D1D1D1"/>
</svg>
