<svg width="25" height="25" viewBox="0 0 25 25" fill="none" xmlns="http://www.w3.org/2000/svg">
<path fill-rule="evenodd" clip-rule="evenodd" d="M8.8894 7.22729C8.8894 5.43237 10.3445 3.97729 12.1394 3.97729C13.9343 3.97729 15.3894 5.43237 15.3894 7.22729V8.47729H8.8894V7.22729ZM7.3894 8.54749V7.22729C7.3894 4.60394 9.51605 2.47729 12.1394 2.47729C14.7628 2.47729 16.8894 4.60394 16.8894 7.22729V8.54749C18.74 8.89855 20.1394 10.5245 20.1394 12.4773V18.4773C20.1394 20.6864 18.3485 22.4773 16.1394 22.4773H8.1394C5.93027 22.4773 4.1394 20.6864 4.1394 18.4773V12.4773C4.1394 10.5245 5.53876 8.89855 7.3894 8.54749ZM12.1394 13.7273C12.5536 13.7273 12.8894 14.0631 12.8894 14.4773V16.4773C12.8894 16.8915 12.5536 17.2273 12.1394 17.2273C11.7252 17.2273 11.3894 16.8915 11.3894 16.4773V14.4773C11.3894 14.0631 11.7252 13.7273 12.1394 13.7273Z" fill="#888888"/>
</svg>
