<svg width="24" height="24" viewBox="0 0 24 24" fill="none" xmlns="http://www.w3.org/2000/svg">
<path d="M7.46967 5.46973C7.76256 5.17683 8.23732 5.17683 8.53022 5.46973L11.5302 8.46973C11.8231 8.76262 11.8231 9.23738 11.5302 9.53027C11.2373 9.82317 10.7626 9.82317 10.4697 9.53027L8.74994 7.81055V18C8.74994 18.4142 8.41416 18.75 7.99994 18.75C7.58573 18.75 7.24994 18.4142 7.24994 18V7.81055L5.53022 9.53027C5.23732 9.82317 4.76256 9.82317 4.46967 9.53027C4.17678 9.23738 4.17678 8.76262 4.46967 8.46973L7.46967 5.46973ZM15.9999 5.25C16.4142 5.25 16.7499 5.58579 16.7499 6V16.1895L18.4697 14.4697C18.7626 14.1768 19.2373 14.1768 19.5302 14.4697C19.8231 14.7626 19.8231 15.2374 19.5302 15.5303L16.5302 18.5303C16.2373 18.8232 15.7626 18.8232 15.4697 18.5303L12.4697 15.5303C12.1768 15.2374 12.1768 14.7626 12.4697 14.4697C12.7626 14.1768 13.2373 14.1768 13.5302 14.4697L15.2499 16.1895V6C15.2499 5.58579 15.5857 5.25 15.9999 5.25Z" fill="#D1D1D1"/>
</svg>
