<svg width="25" height="25" viewBox="0 0 25 25" fill="none" xmlns="http://www.w3.org/2000/svg">
<path fill-rule="evenodd" clip-rule="evenodd" d="M16.9119 2.88293C16.9119 2.46872 16.5761 2.13293 16.1619 2.13293C15.7477 2.13293 15.4119 2.46872 15.4119 2.88293V4.38293H8.91187V2.88293C8.91187 2.46872 8.57608 2.13293 8.16187 2.13293C7.74765 2.13293 7.41187 2.46872 7.41187 2.88293V4.38293H7.16235C4.95321 4.38293 3.16235 6.1738 3.16235 8.38293V18.8829C3.16235 21.0921 4.95321 22.8829 7.16235 22.8829H17.1624C19.3715 22.8829 21.1624 21.0921 21.1624 18.8829V8.38293C21.1624 6.1738 19.3715 4.38293 17.1624 4.38293H16.9119V2.88293ZM8.16235 9.13293C7.74814 9.13293 7.41235 9.46872 7.41235 9.88293C7.41235 10.2971 7.74814 10.6329 8.16235 10.6329H12.1624C12.5766 10.6329 12.9124 10.2971 12.9124 9.88293C12.9124 9.46872 12.5766 9.13293 12.1624 9.13293H8.16235ZM7.41235 13.8829C7.41235 13.4687 7.74814 13.1329 8.16235 13.1329H16.1624C16.5766 13.1329 16.9124 13.4687 16.9124 13.8829C16.9124 14.2971 16.5766 14.6329 16.1624 14.6329H8.16235C7.74814 14.6329 7.41235 14.2971 7.41235 13.8829ZM8.16235 17.1329C7.74814 17.1329 7.41235 17.4687 7.41235 17.8829C7.41235 18.2971 7.74814 18.6329 8.16235 18.6329H16.1624C16.5766 18.6329 16.9124 18.2971 16.9124 17.8829C16.9124 17.4687 16.5766 17.1329 16.1624 17.1329H8.16235Z" fill="#D1D1D1"/>
</svg>
