<svg width="25" height="25" viewBox="0 0 25 25" fill="none" xmlns="http://www.w3.org/2000/svg">
<path d="M17.5811 2.68494C20.3425 2.68494 22.5811 4.92351 22.5811 7.68494V17.6849C22.5811 20.4464 20.3425 22.6849 17.5811 22.6849H7.58105C4.81963 22.6849 2.58105 20.4464 2.58105 17.6849V7.68494C2.58105 4.92351 4.81963 2.68494 7.58105 2.68494H17.5811ZM12.5811 7.68494C9.81963 7.68494 7.58105 9.92351 7.58105 12.6849C7.58105 15.4464 9.81963 17.6849 12.5811 17.6849C15.3425 17.6849 17.5811 15.4464 17.5811 12.6849C17.5811 9.92351 15.3425 7.68494 12.5811 7.68494ZM12.5811 9.68494C14.2379 9.68494 15.5811 11.0281 15.5811 12.6849C15.5811 14.3418 14.2379 15.6849 12.5811 15.6849C10.9242 15.6849 9.58105 14.3418 9.58105 12.6849C9.58105 11.0281 10.9242 9.68494 12.5811 9.68494ZM18.5811 5.68494C18.0288 5.68494 17.5811 6.13265 17.5811 6.68494C17.5811 7.23722 18.0288 7.68494 18.5811 7.68494C19.1333 7.68494 19.5811 7.23722 19.5811 6.68494C19.5811 6.13265 19.1333 5.68494 18.5811 5.68494Z" fill="#888888"/>
</svg>
