<svg width="24" height="24" viewBox="0 0 24 24" fill="none" xmlns="http://www.w3.org/2000/svg">
<path d="M9.28955 12.6372C10.3937 12.6375 11.2893 13.532 11.2896 14.6362V19.8618C11.2896 20.9662 10.3939 21.8616 9.28955 21.8618C8.18498 21.8618 7.28955 20.9664 7.28955 19.8618V14.6362C7.28981 13.5319 8.18514 12.6372 9.28955 12.6372ZM14.6304 17.8618C15.7348 17.8619 16.6303 18.7574 16.6304 19.8618C16.6304 20.9663 15.7348 21.8617 14.6304 21.8618C13.5258 21.8618 12.6304 20.9664 12.6304 19.8618V17.8618H14.6304ZM6.14893 14.6372C6.14866 15.7416 5.25333 16.6372 4.14893 16.6372C3.04452 16.6372 2.14919 15.7416 2.14893 14.6372C2.14893 13.5326 3.04436 12.6372 4.14893 12.6372H6.14893V14.6372ZM19.8413 12.6362C20.9459 12.6362 21.8413 13.5326 21.8413 14.6372C21.841 15.7416 20.9457 16.6372 19.8413 16.6372H14.6304C13.5258 16.6372 12.6304 15.7408 12.6304 14.6362C12.6306 13.5319 13.526 12.6362 14.6304 12.6362H19.8413ZM9.41943 7.23584C10.5239 7.23597 11.4194 8.13233 11.4194 9.23682C11.4192 10.3411 10.5237 11.2367 9.41943 11.2368H4.14893C3.04436 11.2368 2.14893 10.3404 2.14893 9.23584C2.14919 8.13149 3.04452 7.23584 4.14893 7.23584H9.41943ZM14.6304 2.23682C15.7348 2.23695 16.6304 3.13233 16.6304 4.23682V9.23682C16.6301 10.3411 15.7347 11.2367 14.6304 11.2368C13.5258 11.2368 12.6304 10.3404 12.6304 9.23584V4.23584C12.6306 3.13149 13.526 2.23682 14.6304 2.23682ZM19.8413 7.23584C20.9457 7.23584 21.841 8.13149 21.8413 9.23584C21.8413 10.3404 20.9459 11.2368 19.8413 11.2368H17.8413V9.23584C17.8416 8.13158 18.737 7.23597 19.8413 7.23584ZM9.31885 2.13818C10.4234 2.13818 11.3188 3.03361 11.3188 4.13818V6.13818H9.31885C8.21428 6.13818 7.31885 5.24275 7.31885 4.13818C7.31885 3.03361 8.21428 2.13818 9.31885 2.13818Z" fill="#D1D1D1"/>
</svg>
