<svg width="25" height="25" viewBox="0 0 25 25" fill="none" xmlns="http://www.w3.org/2000/svg">
<path d="M21.5842 19.2327C22.3553 20.0038 22.3553 21.2545 21.5842 22.0256C20.8131 22.7967 19.5624 22.7967 18.7913 22.0256L16.9192 20.1526C18.0091 19.3975 18.9561 18.4505 19.7112 17.3606L21.5842 19.2327ZM10.6624 1.85376C15.771 1.85376 19.9124 5.99513 19.9124 11.1038C19.9124 16.2124 15.771 20.3538 10.6624 20.3538C5.55372 20.3538 1.41235 16.2124 1.41235 11.1038C1.41235 5.99513 5.55372 1.85376 10.6624 1.85376ZM10.6624 3.35376C6.38215 3.35376 2.91235 6.82355 2.91235 11.1038C2.91235 15.384 6.38215 18.8538 10.6624 18.8538C14.9426 18.8538 18.4124 15.384 18.4124 11.1038C18.4124 6.82355 14.9426 3.35376 10.6624 3.35376Z" fill="#D1D1D1"/>
</svg>
