<svg width="24" height="25" viewBox="0 0 24 25" fill="none" xmlns="http://www.w3.org/2000/svg">
<path fill-rule="evenodd" clip-rule="evenodd" d="M14.6523 4.29763C13.4199 3.06519 11.3126 3.93805 11.3126 5.68098C11.3126 6.19984 11.1065 6.69745 10.7396 7.06434L9.11887 8.68503C8.75198 9.05192 8.25438 9.25804 7.73552 9.25804C5.99259 9.25804 5.11972 11.3653 6.35216 12.5977L8.72844 14.974L3.21088 20.4916C2.92971 20.7728 2.92971 21.2286 3.21088 21.5098C3.49206 21.791 3.94794 21.791 4.22912 21.5098L9.74668 15.9923L12.1229 18.3685C13.3554 19.6009 15.4626 18.7281 15.4626 16.9852C15.4626 16.4663 15.6688 15.9687 16.0357 15.6018L17.6564 13.9811C18.0232 13.6142 18.5209 13.4081 19.0397 13.4081C20.7826 13.4081 21.6555 11.3008 20.4231 10.0684L14.6523 4.29763Z" fill="#D1D1D1"/>
</svg>
