<svg width="25" height="25" viewBox="0 0 25 25" fill="none" xmlns="http://www.w3.org/2000/svg">
<path fill-rule="evenodd" clip-rule="evenodd" d="M6.4187 2.91882C4.20956 2.91882 2.4187 4.70968 2.4187 6.91882V18.9188C2.4187 21.128 4.20956 22.9188 6.4187 22.9188H18.4187C20.6278 22.9188 22.4187 21.128 22.4187 18.9188V6.91882C22.4187 4.70968 20.6278 2.91882 18.4187 2.91882H6.4187ZM11.0027 8.29487C11.3473 8.0651 11.813 8.15823 12.0427 8.50288C12.2725 8.84752 12.1794 9.31318 11.8347 9.54294L10.6082 10.3606C11.9637 10.6026 13.2566 11.0761 14.3347 11.7949C16.0076 12.9101 17.1687 14.628 17.1687 16.9189C17.1687 17.3331 16.8329 17.6689 16.4187 17.6689C16.0045 17.6689 15.6687 17.3331 15.6687 16.9189C15.6687 15.2098 14.8298 13.9277 13.5027 13.0429C12.5064 12.3788 11.2395 11.9463 9.88448 11.7655L11.0427 13.5029C11.2725 13.8475 11.1794 14.3132 10.8347 14.5429C10.4901 14.7727 10.0244 14.6796 9.79466 14.3349L7.79466 11.3349C7.5649 10.9903 7.65803 10.5246 8.00268 10.2949L11.0027 8.29487Z" fill="#888888"/>
</svg>
