<svg width="24" height="25" viewBox="0 0 24 25" fill="none" xmlns="http://www.w3.org/2000/svg">
<path d="M17.4922 4.1925C19.4689 4.4353 21 6.1199 21 8.16223V18.1622C21 20.3714 19.2091 22.1622 17 22.1622H7C4.79086 22.1622 3.00001 20.3714 3 18.1622V8.16223C3 6.1199 4.53111 4.4353 6.50781 4.1925C6.50296 4.26513 6.5 4.33838 6.5 4.41223C6.50001 6.20715 7.95508 7.66223 9.75 7.66223H14.25C16.0449 7.66223 17.5 6.20715 17.5 4.41223C17.5 4.33838 17.497 4.26513 17.4922 4.1925ZM8 17.4122C7.58579 17.4122 7.25 17.748 7.25 18.1622C7.25 18.5764 7.58579 18.9122 8 18.9122H12C12.4142 18.9122 12.75 18.5764 12.75 18.1622C12.75 17.748 12.4142 17.4122 12 17.4122H8ZM8 13.4122C7.58579 13.4122 7.25 13.748 7.25 14.1622C7.25 14.5764 7.58579 14.9122 8 14.9122H16C16.4142 14.9122 16.75 14.5764 16.75 14.1622C16.75 13.748 16.4142 13.4122 16 13.4122H8ZM8 9.41223C7.58579 9.41223 7.25 9.74802 7.25 10.1622C7.25 10.5764 7.58579 10.9122 8 10.9122H16C16.4142 10.9122 16.75 10.5764 16.75 10.1622C16.75 9.74802 16.4142 9.41223 16 9.41223H8ZM14 2.16223C15.1046 2.16223 16 3.05766 16 4.16223C16 5.2668 15.1046 6.16223 14 6.16223H10C8.89543 6.16223 8 5.2668 8 4.16223C8 3.05766 8.89543 2.16223 10 2.16223H14Z" fill="#D1D1D1"/>
</svg>
