<svg width="24" height="24" viewBox="0 0 24 24" fill="none" xmlns="http://www.w3.org/2000/svg">
<path d="M11.3428 2C11.6506 2 11.955 2.03581 12.25 2.10449V6C12.25 8.62335 14.3766 10.75 17 10.75H20.8945C20.9632 11.0451 21 11.3494 21 11.6572V18C21 20.2091 19.2091 22 17 22H7C4.79086 22 3 20.2091 3 18V6C3 3.79086 4.79086 2 7 2H11.3428ZM7.98633 13.7051V16.4795C7.98633 16.8271 7.94629 17.0566 7.86621 17.168C7.78613 17.2773 7.64941 17.332 7.45605 17.332C7.26465 17.332 7.12207 17.2549 7.02832 17.1006C6.96582 16.999 6.92969 16.8252 6.91992 16.5791L6.10254 16.6729C6.10449 17.1318 6.21973 17.4805 6.44824 17.7188C6.67676 17.9551 7.00293 18.0732 7.42676 18.0732C7.78809 18.0732 8.0791 17.998 8.2998 17.8477C8.52051 17.6953 8.67285 17.4941 8.75684 17.2441C8.81934 17.0527 8.85059 16.7793 8.85059 16.4238V13.7051H7.98633ZM15.7617 13.6318C15.3516 13.6318 15.0088 13.7031 14.7334 13.8457C14.3721 14.0313 14.0977 14.2979 13.9102 14.6455C13.7227 14.9932 13.6289 15.3906 13.6289 15.8379C13.6289 16.25 13.7129 16.6318 13.8809 16.9834C14.0488 17.333 14.2998 17.6025 14.6338 17.792C14.9678 17.9795 15.3594 18.0732 15.8086 18.0732C16.1621 18.0732 16.5107 18.0068 16.8545 17.874C17.2002 17.7393 17.4639 17.584 17.6455 17.4082V15.6973H15.7764V16.4209H16.7695V16.9658C16.6387 17.0674 16.4814 17.1543 16.2979 17.2266C16.1162 17.2969 15.9346 17.332 15.7529 17.332C15.3857 17.332 15.0889 17.2051 14.8623 16.9512C14.6357 16.6953 14.5225 16.3125 14.5225 15.8027C14.5225 15.3301 14.6338 14.9736 14.8564 14.7334C15.0811 14.4932 15.3828 14.373 15.7617 14.373C16.0117 14.373 16.2197 14.4346 16.3857 14.5576C16.5537 14.6787 16.668 14.8447 16.7285 15.0557L17.5898 14.8945C17.5039 14.5 17.3105 14.1914 17.0098 13.9688C16.7109 13.7441 16.2949 13.6318 15.7617 13.6318ZM9.77637 13.7051V18H10.6436V16.3799H11.209C11.6016 16.3799 11.9014 16.3594 12.1084 16.3184C12.2607 16.2852 12.4102 16.2178 12.5566 16.1162C12.7051 16.0127 12.8271 15.8711 12.9229 15.6914C13.0186 15.5117 13.0664 15.29 13.0664 15.0264C13.0664 14.6846 12.9834 14.4063 12.8174 14.1914C12.6514 13.9746 12.4453 13.834 12.1992 13.7695C12.0391 13.7266 11.6953 13.7051 11.168 13.7051H9.77637ZM11.0625 14.4316C11.375 14.4316 11.583 14.4414 11.6865 14.4609C11.8271 14.4863 11.9434 14.5498 12.0352 14.6514C12.127 14.7529 12.1729 14.8818 12.1729 15.0381C12.1729 15.165 12.1396 15.2764 12.0732 15.3721C12.0088 15.4678 11.9189 15.5381 11.8037 15.583C11.6885 15.6279 11.46 15.6504 11.1182 15.6504H10.6436V14.4316H11.0625ZM13.75 2.80566C13.898 2.91715 14.0394 3.03937 14.1719 3.17188L19.8281 8.82813C19.9605 8.9605 20.082 9.10222 20.1934 9.25H17C15.2051 9.25 13.75 7.79492 13.75 6V2.80566Z" fill="#D1D1D1"/>
</svg>
