<svg width="25" height="25" viewBox="0 0 25 25" fill="none" xmlns="http://www.w3.org/2000/svg">
<path d="M17.1394 15.9349C17.5536 15.9349 17.8894 16.2707 17.8894 16.6849C17.8894 17.0991 17.5536 17.4349 17.1394 17.4349H12.1394C11.7252 17.4349 11.3894 17.0991 11.3894 16.6849C11.3894 16.2707 11.7252 15.9349 12.1394 15.9349H17.1394ZM17.1394 11.9349C17.5536 11.9349 17.8894 12.2707 17.8894 12.6849C17.8894 13.0992 17.5536 13.4349 17.1394 13.4349H7.1394C6.72519 13.4349 6.3894 13.0992 6.3894 12.6849C6.3894 12.2707 6.72519 11.9349 7.1394 11.9349H17.1394ZM12.1394 7.93494C12.5536 7.93494 12.8894 8.27072 12.8894 8.68494C12.8894 9.09915 12.5536 9.43494 12.1394 9.43494H7.1394C6.72519 9.43494 6.3894 9.09915 6.3894 8.68494C6.3894 8.27072 6.72519 7.93494 7.1394 7.93494H12.1394Z" fill="#888888"/>
</svg>
