<svg width="25" height="24" viewBox="0 0 25 24" fill="none" xmlns="http://www.w3.org/2000/svg">
<path d="M19.7207 7V18C19.7207 20.2091 17.9298 22 15.7207 22H9.7207C7.51156 22 5.7207 20.2091 5.7207 18V7H19.7207ZM10.7207 10.25C10.3065 10.25 9.9707 10.5858 9.9707 11V18C9.9707 18.4142 10.3065 18.75 10.7207 18.75C11.1349 18.75 11.4707 18.4142 11.4707 18V11C11.4707 10.5858 11.1349 10.25 10.7207 10.25ZM14.7207 10.25C14.3065 10.25 13.9707 10.5858 13.9707 11V18C13.9707 18.4142 14.3065 18.75 14.7207 18.75C15.1349 18.75 15.4707 18.4142 15.4707 18V11C15.4707 10.5858 15.1349 10.25 14.7207 10.25ZM13.6504 2C14.3191 2.00002 14.9435 2.33424 15.3145 2.89062L16.2207 4.25H19.9707C20.3849 4.25 20.7207 4.58579 20.7207 5C20.7207 5.41421 20.3849 5.75 19.9707 5.75H5.4707C5.05649 5.75 4.7207 5.41421 4.7207 5C4.7207 4.58579 5.05649 4.25 5.4707 4.25H9.2207L10.127 2.89062C10.4979 2.33424 11.1223 2.00002 11.791 2H13.6504Z" fill="#D1D1D1"/>
</svg>
