<svg width="25" height="25" viewBox="0 0 25 25" fill="none" xmlns="http://www.w3.org/2000/svg">
<path d="M5.548 4.78701C6.64192 3.55635 8.5654 3.55635 9.65933 4.78701L11.1642 6.48037C11.4394 6.78994 11.4113 7.26377 11.1017 7.53897C10.7922 7.81409 10.3183 7.78681 10.0431 7.47744L8.53823 5.78408C8.48142 5.72017 8.41918 5.66347 8.35366 5.61416V19.5937C8.41924 19.5443 8.48138 19.4877 8.53823 19.4237L10.0431 17.7304C10.3182 17.4209 10.7921 17.393 11.1017 17.6679C11.4113 17.9431 11.4394 18.4179 11.1642 18.7274L9.65933 20.4208C8.56541 21.6513 6.64191 21.6513 5.548 20.4208L4.04312 18.7274C3.76793 18.4179 3.79603 17.9431 4.10562 17.6679C4.41518 17.393 4.8891 17.421 5.16421 17.7304L6.66909 19.4237C6.72594 19.4877 6.78809 19.5443 6.85366 19.5937V5.61416C6.78814 5.66347 6.7259 5.72018 6.66909 5.78408L5.16421 7.47744C4.88899 7.78681 4.41512 7.81408 4.10562 7.53897C3.79608 7.26377 3.76794 6.78994 4.04312 6.48037L5.548 4.78701ZM17.6037 14.6034C19.2604 14.6034 20.6035 15.9467 20.6037 17.6034C20.6037 19.2603 19.2605 20.6034 17.6037 20.6034C15.9468 20.6034 14.6037 19.2603 14.6037 17.6034C14.6038 15.9467 15.9469 14.6034 17.6037 14.6034ZM17.6037 4.60342C19.2604 4.60342 20.6035 5.94668 20.6037 7.60342C20.6037 9.26027 19.2605 10.6034 17.6037 10.6034C15.9468 10.6034 14.6037 9.26027 14.6037 7.60342C14.6038 5.94668 15.9469 4.60342 17.6037 4.60342Z" fill="#D1D1D1"/>
</svg>
