<svg width="25" height="25" viewBox="0 0 25 25" fill="none" xmlns="http://www.w3.org/2000/svg">
<path d="M12.0408 2.36035C12.3486 2.36035 12.653 2.39616 12.948 2.46484V6.36035C12.948 8.9837 15.0746 11.1104 17.698 11.1104H21.5925C21.6612 11.4054 21.698 11.7097 21.698 12.0176V18.3604C21.698 20.5695 19.9071 22.3604 17.698 22.3604H7.698C5.48886 22.3604 3.698 20.5695 3.698 18.3604V6.36035C3.698 4.15121 5.48886 2.36035 7.698 2.36035H12.0408ZM7.13452 14.0654V18.3604H8.00171V16.7402H8.56714C8.95972 16.7402 9.25952 16.7197 9.46655 16.6787C9.6189 16.6455 9.76831 16.5781 9.91479 16.4766C10.0632 16.373 10.1853 16.2314 10.281 16.0518C10.3767 15.8721 10.4246 15.6504 10.4246 15.3867C10.4246 15.0449 10.3416 14.7666 10.1755 14.5518C10.0095 14.335 9.80347 14.1943 9.55737 14.1299C9.39722 14.0869 9.05347 14.0654 8.52612 14.0654H7.13452ZM11.1335 14.0654V18.3604H12.7654C13.0857 18.3604 13.3416 18.3301 13.533 18.2695C13.7888 18.1875 13.9919 18.0732 14.1423 17.9268C14.3416 17.7334 14.4949 17.4805 14.6023 17.168C14.6902 16.9121 14.7341 16.6074 14.7341 16.2539C14.7341 15.8516 14.6873 15.5137 14.5935 15.2402C14.4998 14.9648 14.363 14.7324 14.1833 14.543C14.0037 14.3535 13.7878 14.2217 13.5359 14.1475C13.3484 14.0928 13.0759 14.0654 12.7185 14.0654H11.1335ZM15.4783 14.0654V18.3604H16.3455V16.5352H18.1384V15.8086H16.3455V14.792H18.4226V14.0654H15.4783ZM12.3904 14.792C12.7439 14.792 12.9812 14.8057 13.1023 14.833C13.2644 14.8682 13.3982 14.9355 13.5037 15.0352C13.6091 15.1348 13.6912 15.2734 13.7498 15.4512C13.8083 15.6289 13.8376 15.8838 13.8376 16.2158C13.8376 16.5479 13.8083 16.8105 13.7498 17.0039C13.6912 17.1953 13.615 17.333 13.5212 17.417C13.4294 17.501 13.3132 17.5605 13.1726 17.5957C13.0652 17.623 12.8904 17.6367 12.6482 17.6367H12.0007V14.792H12.3904ZM8.42065 14.792C8.73315 14.792 8.94116 14.8018 9.04468 14.8213C9.1853 14.8467 9.30151 14.9102 9.39331 15.0117C9.48511 15.1133 9.53101 15.2422 9.53101 15.3984C9.53101 15.5254 9.4978 15.6367 9.4314 15.7324C9.36694 15.8281 9.2771 15.8984 9.16187 15.9434C9.04663 15.9883 8.81812 16.0107 8.47632 16.0107H8.00171V14.792H8.42065ZM14.448 3.16602C14.596 3.2775 14.7374 3.39972 14.8699 3.53223L20.5261 9.18848C20.6585 9.32085 20.78 9.46257 20.8914 9.61035H17.698C15.9031 9.61035 14.448 8.15528 14.448 6.36035V3.16602Z" fill="#888888"/>
</svg>
