<svg width="25" height="25" viewBox="0 0 25 25" fill="none" xmlns="http://www.w3.org/2000/svg">
<path d="M8.19141 10.6038C8.88176 10.6038 9.44141 11.1634 9.44141 11.8538C9.44141 12.5441 8.88176 13.1038 8.19141 13.1038C7.50105 13.1038 6.94141 12.5441 6.94141 11.8538C6.94141 11.1634 7.50105 10.6038 8.19141 10.6038ZM13.1914 10.6038C13.8818 10.6038 14.4414 11.1634 14.4414 11.8538C14.4414 12.5441 13.8818 13.1038 13.1914 13.1038C12.5011 13.1038 11.9414 12.5441 11.9414 11.8538C11.9414 11.1634 12.5011 10.6038 13.1914 10.6038ZM18.1914 10.6038C18.8818 10.6038 19.4414 11.1634 19.4414 11.8538C19.4414 12.5441 18.8818 13.1038 18.1914 13.1038C17.5011 13.1038 16.9414 12.5441 16.9414 11.8538C16.9414 11.1634 17.5011 10.6038 18.1914 10.6038Z" fill="#D1D1D1"/>
</svg>
