<svg width="24" height="24" viewBox="0 0 24 24" fill="none" xmlns="http://www.w3.org/2000/svg">
<path d="M16.3076 19.6471C16.7215 20.3644 16.4759 21.2817 15.7588 21.6959C15.0414 22.1101 14.1232 21.8644 13.709 21.1471L11.8057 17.8502L14.8652 17.149L16.3076 19.6471ZM3.29882 11.8483C4.01626 11.434 4.93441 11.6796 5.34863 12.3971L7.84863 16.7272C8.26265 17.4446 8.01618 18.3618 7.29882 18.776C6.58141 19.1901 5.66417 18.9445 5.25 18.2272L2.75 13.8971C2.33586 13.1798 2.58168 12.2626 3.29882 11.8483ZM12.6719 4.07482C13.5878 3.08906 15.1954 3.27081 15.8682 4.43615L20.1611 11.8697C20.8338 13.035 20.1866 14.5186 18.875 14.819L9.64062 16.9342C9.57641 16.6374 9.4656 16.3451 9.30566 16.068L6.80566 11.7379C6.64565 11.4608 6.44762 11.2183 6.22265 11.0143L12.6719 4.07482ZM20.7305 8.10021C20.8377 7.70015 21.2484 7.46281 21.6484 7.56994L23.0146 7.93615C23.4146 8.04337 23.652 8.45411 23.5449 8.85411C23.4377 9.25421 23.0261 9.49159 22.626 9.38439L21.2607 9.01818C20.8606 8.91097 20.6233 8.50031 20.7305 8.10021ZM19.0957 3.27013C19.2029 2.87003 19.6145 2.63265 20.0146 2.73986C20.4146 2.84707 20.6519 3.25783 20.5449 3.65783L20.1787 5.02404C20.0715 5.42404 19.6607 5.66133 19.2607 5.55431C18.8607 5.44713 18.6235 5.03635 18.7305 4.63634L19.0957 3.27013Z" fill="#D1D1D1"/>
</svg>
