<svg width="24" height="24" viewBox="0 0 24 24" fill="none" xmlns="http://www.w3.org/2000/svg">
<path d="M11.7998 4.40338C13.1183 3.41498 15 4.35565 15 6.00299V17.9971C15 19.6445 13.1183 20.5851 11.7998 19.5967L7.5332 16.3975C7.18723 16.1382 6.76633 15.9982 6.33398 15.9981H4C2.89543 15.9981 2 15.1032 2 13.9991V10.001C2 8.89697 2.89543 8.00202 4 8.00202H6.33398C6.76633 8.00193 7.18723 7.86189 7.5332 7.6026L11.7998 4.40338ZM19.25 9.25006C19.6642 9.25006 20 9.58585 20 10.0001V11.2501H21.25C21.6642 11.2501 22 11.5858 22 12.0001C22 12.4143 21.6642 12.7501 21.25 12.7501H20V14.0001C20 14.4143 19.6642 14.7501 19.25 14.7501C18.8358 14.7501 18.5 14.4143 18.5 14.0001V12.7501H17.25C16.8358 12.7501 16.5 12.4143 16.5 12.0001C16.5 11.5858 16.8358 11.2501 17.25 11.2501H18.5V10.0001C18.5 9.58585 18.8358 9.25006 19.25 9.25006Z" fill="#D1D1D1"/>
</svg>
