<svg width="25" height="25" viewBox="0 0 25 25" fill="none" xmlns="http://www.w3.org/2000/svg">
<path d="M12.3018 2.96411C13.9586 2.96411 15.3018 4.30726 15.3018 5.96411V13.9641C16.5161 14.8763 17.3018 16.3284 17.3018 17.9641C17.3018 20.7255 15.0632 22.9641 12.3018 22.9641C9.54033 22.9641 7.30176 20.7255 7.30176 17.9641C7.30176 16.3284 8.08741 14.8763 9.30176 13.9641V5.96411C9.30176 4.30726 10.6449 2.96411 12.3018 2.96411ZM12.3018 13.2141C11.8875 13.2141 11.5518 13.5499 11.5518 13.9641V16.1106C10.819 16.4074 10.3018 17.1249 10.3018 17.9641C10.3018 19.0687 11.1972 19.9641 12.3018 19.9641C13.4063 19.9641 14.3018 19.0687 14.3018 17.9641C14.3018 17.1249 13.7845 16.4074 13.0518 16.1106V13.9641C13.0518 13.5499 12.716 13.2141 12.3018 13.2141ZM22.3018 4.21411C22.716 4.21411 23.0518 4.5499 23.0518 4.96411C23.0518 5.37832 22.716 5.71411 22.3018 5.71411H18.3018C17.8875 5.71411 17.5518 5.37832 17.5518 4.96411C17.5518 4.5499 17.8875 4.21411 18.3018 4.21411H22.3018Z" fill="#888888"/>
</svg>
