<svg width="24" height="24" viewBox="0 0 24 24" fill="none" xmlns="http://www.w3.org/2000/svg">
<path d="M11.3428 2C11.6506 2 11.955 2.03581 12.25 2.10449V6C12.25 8.62335 14.3766 10.75 17 10.75H20.8945C20.9632 11.0451 21 11.3494 21 11.6572V18C21 20.2091 19.2091 22 17 22H7C4.79086 22 3 20.2091 3 18V6C3 3.79086 4.79086 2 7 2H11.3428ZM6.43652 13.7051V18H7.30371V16.3799H7.86914C8.26172 16.3799 8.56152 16.3594 8.76855 16.3184C8.9209 16.2852 9.07031 16.2178 9.2168 16.1162C9.36523 16.0127 9.4873 15.8711 9.58301 15.6914C9.67871 15.5117 9.72656 15.29 9.72656 15.0264C9.72656 14.6846 9.64355 14.4063 9.47754 14.1914C9.31152 13.9746 9.10547 13.834 8.85938 13.7695C8.69922 13.7266 8.35547 13.7051 7.82812 13.7051H6.43652ZM10.4355 13.7051V18H12.0674C12.3877 18 12.6436 17.9697 12.835 17.9092C13.0908 17.8271 13.2939 17.7129 13.4443 17.5664C13.6436 17.373 13.7969 17.1201 13.9043 16.8076C13.9922 16.5518 14.0361 16.2471 14.0361 15.8936C14.0361 15.4912 13.9893 15.1533 13.8955 14.8799C13.8018 14.6045 13.665 14.3721 13.4854 14.1826C13.3057 13.9932 13.0898 13.8613 12.8379 13.7871C12.6504 13.7324 12.3779 13.7051 12.0205 13.7051H10.4355ZM14.7803 13.7051V18H15.6475V16.1748H17.4404V15.4482H15.6475V14.4316H17.7246V13.7051H14.7803ZM11.6924 14.4316C12.0459 14.4316 12.2832 14.4453 12.4043 14.4727C12.5664 14.5078 12.7002 14.5752 12.8057 14.6748C12.9111 14.7744 12.9932 14.9131 13.0518 15.0908C13.1104 15.2686 13.1396 15.5234 13.1396 15.8555C13.1396 16.1875 13.1104 16.4502 13.0518 16.6436C12.9932 16.835 12.917 16.9727 12.8232 17.0566C12.7314 17.1406 12.6152 17.2002 12.4746 17.2354C12.3672 17.2627 12.1924 17.2764 11.9502 17.2764H11.3027V14.4316H11.6924ZM7.72266 14.4316C8.03516 14.4316 8.24316 14.4414 8.34668 14.4609C8.4873 14.4863 8.60352 14.5498 8.69531 14.6514C8.78711 14.7529 8.83301 14.8818 8.83301 15.0381C8.83301 15.165 8.7998 15.2764 8.7334 15.3721C8.66895 15.4678 8.5791 15.5381 8.46387 15.583C8.34863 15.6279 8.12012 15.6504 7.77832 15.6504H7.30371V14.4316H7.72266ZM13.75 2.80566C13.898 2.91715 14.0394 3.03937 14.1719 3.17188L19.8281 8.82813C19.9605 8.9605 20.082 9.10221 20.1934 9.25H17C15.2051 9.25 13.75 7.79492 13.75 6V2.80566Z" fill="#D1D1D1"/>
</svg>
