<svg width="25" height="25" viewBox="0 0 25 25" fill="none" xmlns="http://www.w3.org/2000/svg">
<path fill-rule="evenodd" clip-rule="evenodd" d="M15.1207 3.33298L17.0332 5.88294L8.40826 5.88294L10.3207 3.33298C10.5693 3.00161 10.5021 2.53151 10.1707 2.28298C9.83935 2.03445 9.36925 2.10161 9.12072 2.43298L6.5309 5.88607C4.70134 5.96051 3.23466 7.35 2.83117 9.13293H22.6102C22.2068 7.35001 20.7401 5.96053 18.9105 5.88608L16.3207 2.43298C16.0722 2.10161 15.6021 2.03445 15.2707 2.28298C14.9394 2.53151 14.8722 3.00161 15.1207 3.33298ZM22.6921 10.6329H2.74927C2.76263 10.7519 2.78076 10.8715 2.80383 10.9914L4.43875 19.4914C4.81857 21.4662 6.44012 22.8829 8.32048 22.8829H17.1209C19.0013 22.8829 20.6228 21.4662 21.0027 19.4914L22.6376 10.9914C22.6606 10.8715 22.6788 10.7519 22.6921 10.6329ZM7.97071 14.8829C7.97071 14.4687 8.30649 14.1329 8.72071 14.1329H16.7207C17.1349 14.1329 17.4707 14.4687 17.4707 14.8829C17.4707 15.2971 17.1349 15.6329 16.7207 15.6329H8.72071C8.30649 15.6329 7.97071 15.2971 7.97071 14.8829ZM9.72071 18.1329C9.30649 18.1329 8.97071 18.4687 8.97071 18.8829C8.97071 19.2971 9.30649 19.6329 9.72071 19.6329H15.7207C16.1349 19.6329 16.4707 19.2971 16.4707 18.8829C16.4707 18.4687 16.1349 18.1329 15.7207 18.1329H9.72071Z" fill="#D1D1D1"/>
</svg>
