<svg width="24" height="24" viewBox="0 0 24 24" fill="none" xmlns="http://www.w3.org/2000/svg">
<path d="M12 2.25C17.3848 2.25 21.75 6.61522 21.75 12V18C21.75 20.0711 20.0711 21.75 18 21.75C15.9289 21.75 14.25 20.0711 14.25 18V16C14.25 13.9289 15.9289 12.25 18 12.25C18.8441 12.25 19.6233 12.5284 20.25 12.999V12C20.25 7.44365 16.5563 3.75 12 3.75C7.44365 3.75 3.75 7.44365 3.75 12V12.999C4.37669 12.5284 5.15595 12.25 6 12.25C8.07107 12.25 9.75 13.9289 9.75 16V18C9.75 20.0711 8.07107 21.75 6 21.75C3.92893 21.75 2.25 20.0711 2.25 18V12C2.25 6.61522 6.61522 2.25 12 2.25Z" fill="#D1D1D1"/>
</svg>
