<svg width="25" height="25" viewBox="0 0 25 25" fill="none" xmlns="http://www.w3.org/2000/svg">
<path d="M15.46 19.3829C15.6935 19.383 15.8826 19.5723 15.8828 19.8058C15.8828 19.8564 15.8745 19.9073 15.8555 19.9542C15.3981 21.0819 14.2393 21.8829 12.8828 21.8829C11.5264 21.8828 10.3685 21.0818 9.91113 19.9542C9.89209 19.9072 9.88281 19.8565 9.88281 19.8058C9.88304 19.5722 10.073 19.3829 10.3066 19.3829H15.46ZM12.8828 3.88293C16.1118 3.88293 18.8289 6.37376 19.2031 9.67688L19.5478 12.7218C19.6336 13.4782 19.9408 14.1897 20.4277 14.7628C21.4611 15.9792 20.6221 17.8829 19.0527 17.8829H6.71289C5.14376 17.8827 4.30552 15.9791 5.33886 14.7628C5.82563 14.1898 6.13203 13.478 6.21777 12.7218L6.56249 9.67688C6.9367 6.37382 9.65388 3.88306 12.8828 3.88293Z" fill="#D1D1D1"/>
</svg>
