<svg width="24" height="24" viewBox="0 0 24 24" fill="none" xmlns="http://www.w3.org/2000/svg">
<path d="M19.8311 9.75C21.5141 9.75003 22.554 11.6576 21.6885 13.1572L18.4209 18.8154C17.6382 20.1707 16.2283 20.9999 14.707 21H5.24805C4.34525 20.9999 3.52812 20.6168 2.93945 19.999L6.27051 12.4229C6.96565 10.7978 8.51693 9.75005 10.2285 9.75H19.8311ZM7.2666 3C7.84441 3 8.41177 3.16012 8.91016 3.46387L11.0791 4.78613C11.5775 5.08988 12.1448 5.24999 12.7227 5.25H16.0762C17.7482 5.25 19.1241 6.56258 19.3037 8.25H10.2285C7.89401 8.25007 5.81732 9.67578 4.89453 11.8252L2.05957 18.2715C2.0205 18.0622 2 17.8461 2 17.625V6.375C2 4.51116 3.45417 3.00019 5.24805 3H7.2666Z" fill="#D1D1D1"/>
</svg>
