<svg width="25" height="25" viewBox="0 0 25 25" fill="none" xmlns="http://www.w3.org/2000/svg">
<path d="M12.8831 20.1038C13.2973 20.1038 13.6331 20.4395 13.6331 20.8538V21.8538C13.6331 22.268 13.2973 22.6038 12.8831 22.6038C12.4689 22.6037 12.1331 22.268 12.1331 21.8538V20.8538C12.1331 20.4396 12.4689 20.1038 12.8831 20.1038ZM12.8831 6.60376C16.1968 6.60376 18.8831 9.29005 18.8831 12.6038C18.8831 15.9175 16.1968 18.6038 12.8831 18.6038C9.56938 18.6037 6.88307 15.9175 6.88307 12.6038C6.88307 9.29007 9.56938 6.60378 12.8831 6.60376ZM5.36354 16.0793C5.72225 15.8722 6.18084 15.995 6.38795 16.3538C6.59504 16.7125 6.47219 17.171 6.11354 17.3782L5.24732 17.8782C4.88861 18.0852 4.43001 17.9625 4.22291 17.6038C4.01583 17.2451 4.13872 16.7865 4.49732 16.5793L5.36354 16.0793ZM19.3782 16.3538C19.5853 15.9951 20.0439 15.8723 20.4026 16.0793L21.2688 16.5793C21.6275 16.7865 21.7503 17.2451 21.5432 17.6038C21.3361 17.9625 20.8775 18.0853 20.5188 17.8782L19.6526 17.3782C19.294 17.171 19.1711 16.7124 19.3782 16.3538ZM4.22291 7.60376C4.43 7.24507 4.88862 7.1223 5.24732 7.32935L6.11354 7.82935C6.4722 8.03647 6.59504 8.49506 6.38795 8.85376C6.18084 9.21247 5.72225 9.33528 5.36354 9.12817L4.49732 8.62817C4.13873 8.42102 4.01584 7.96242 4.22291 7.60376ZM20.5188 7.32935C20.8775 7.12224 21.3361 7.24505 21.5432 7.60376C21.7503 7.96245 21.6275 8.42104 21.2688 8.62817L20.4026 9.12817C20.0439 9.33524 19.5853 9.21246 19.3782 8.85376C19.1711 8.49509 19.294 8.03649 19.6526 7.82935L20.5188 7.32935ZM12.8831 2.60376C13.2973 2.60376 13.6331 2.93955 13.6331 3.35376V4.35376C13.6331 4.76797 13.2973 5.10376 12.8831 5.10376C12.4689 5.10374 12.1331 4.76796 12.1331 4.35376V3.35376C12.1331 2.93956 12.4689 2.60378 12.8831 2.60376Z" fill="#D1D1D1"/>
</svg>
