<svg width="25" height="25" viewBox="0 0 25 25" fill="none" xmlns="http://www.w3.org/2000/svg">
<path fill-rule="evenodd" clip-rule="evenodd" d="M3.16767 2.41779C2.87477 2.71068 2.87477 3.18556 3.16767 3.47845L8.698 9.00878V12.1981C8.698 14.4073 10.4889 16.1981 12.698 16.1981C13.5958 16.1981 14.4246 15.9023 15.0921 15.4029L15.9829 16.2937C15.0836 17.016 13.9412 17.4481 12.698 17.4481C9.7985 17.4481 7.448 15.0976 7.448 12.1981V11.1981C7.448 10.7839 7.11221 10.4481 6.698 10.4481C6.28378 10.4481 5.948 10.7839 5.948 11.1981V12.1981C5.948 15.6725 8.57304 18.5338 11.948 18.9069V20.6981H9.698C9.28378 20.6981 8.948 21.0339 8.948 21.4481C8.948 21.8623 9.28378 22.1981 9.698 22.1981H15.698C16.1122 22.1981 16.448 21.8623 16.448 21.4481C16.448 21.0339 16.1122 20.6981 15.698 20.6981H13.448V18.9069C14.8119 18.7562 16.0533 18.199 17.0485 17.3593L21.1677 21.4785C21.4606 21.7713 21.9354 21.7713 22.2283 21.4785C22.5212 21.1856 22.5212 20.7107 22.2283 20.4178L4.22833 2.41779C3.93543 2.1249 3.46056 2.1249 3.16767 2.41779ZM18.8313 15.0208L17.6773 13.8667C17.8529 13.3425 17.948 12.7814 17.948 12.1981V11.1981C17.948 10.7839 18.2838 10.4481 18.698 10.4481C19.1122 10.4481 19.448 10.7839 19.448 11.1981V12.1981C19.448 13.2058 19.2272 14.1619 18.8313 15.0208ZM8.86414 5.0536L16.6473 12.8368C16.6807 12.6288 16.698 12.4155 16.698 12.1981V6.19812C16.698 3.98898 14.9071 2.19812 12.698 2.19812C10.8866 2.19812 9.35641 3.40218 8.86414 5.0536Z" fill="#888888"/>
</svg>
