<svg width="24" height="24" viewBox="0 0 24 24" fill="none" xmlns="http://www.w3.org/2000/svg">
<path d="M16.2817 0.75C16.696 0.75 17.0317 1.08579 17.0317 1.5V3H17.2817C19.4909 3 21.2817 4.79086 21.2817 7V8.08594C21.2817 8.3511 21.1763 8.60547 20.9888 8.79297L8.57471 21.207C8.38721 21.3945 8.13284 21.5 7.86768 21.5H7.28174C5.0726 21.5 3.28174 19.7091 3.28174 17.5V7C3.28174 4.79086 5.0726 3 7.28174 3H7.53174V1.5C7.53174 1.08579 7.86752 0.75 8.28174 0.75C8.69595 0.75 9.03174 1.08579 9.03174 1.5V3H15.5317V1.5C15.5317 1.08579 15.8675 0.75 16.2817 0.75ZM18.4243 12.9902C19.078 12.3366 20.1379 12.3366 20.7915 12.9902C21.4452 13.6439 21.4452 14.7038 20.7915 15.3574L15.7769 20.3721C15.6562 20.4927 15.5064 20.5802 15.3423 20.627L13.146 21.2539C12.7691 21.3612 12.4205 21.0126 12.5278 20.6357L13.1548 18.4395C13.2016 18.2754 13.289 18.1255 13.4097 18.0049L18.4243 12.9902ZM8.28174 15.75C7.86752 15.75 7.53174 16.0858 7.53174 16.5C7.53174 16.9142 7.86752 17.25 8.28174 17.25H9.28174C9.69595 17.25 10.0317 16.9142 10.0317 16.5C10.0317 16.0858 9.69595 15.75 9.28174 15.75H8.28174ZM8.28174 11.75C7.86752 11.75 7.53174 12.0858 7.53174 12.5C7.53174 12.9142 7.86752 13.25 8.28174 13.25H12.2817C12.696 13.25 13.0317 12.9142 13.0317 12.5C13.0317 12.0858 12.696 11.75 12.2817 11.75H8.28174ZM8.28174 7.75C7.86752 7.75 7.53174 8.08579 7.53174 8.5C7.53174 8.91421 7.86752 9.25 8.28174 9.25H15.2817C15.696 9.25 16.0317 8.91421 16.0317 8.5C16.0317 8.08579 15.696 7.75 15.2817 7.75H8.28174Z" fill="#D1D1D1"/>
</svg>
