<svg width="25" height="25" viewBox="0 0 25 25" fill="none" xmlns="http://www.w3.org/2000/svg">
<path fill-rule="evenodd" clip-rule="evenodd" d="M22.1624 12.4414C22.1624 15.4548 20.8295 18.1568 18.7212 19.9902C16.9654 21.517 14.6718 22.4414 12.1624 22.4414C9.65287 22.4414 7.35929 21.517 5.60352 19.9902C3.4952 18.1568 2.16235 15.4548 2.16235 12.4414C2.16235 6.91856 6.63951 2.44141 12.1624 2.44141C17.6852 2.44141 22.1624 6.91856 22.1624 12.4414ZM12.1624 19.4414C13.919 19.4414 15.5245 18.7944 16.7536 17.7256C16.895 17.6025 17.0315 17.4739 17.1627 17.3401C16.0818 15.5918 14.2457 14.4414 12.1624 14.4414C10.0791 14.4414 8.24296 15.5918 7.16205 17.3401C7.29321 17.4739 7.42971 17.6025 7.57119 17.7256C8.80023 18.7943 10.4057 19.4414 12.1624 19.4414ZM12.1624 12.4414C13.8192 12.4414 15.1624 11.0983 15.1624 9.44141C15.1624 7.78455 13.8192 6.44141 12.1624 6.44141C10.5055 6.44141 9.16235 7.78455 9.16235 9.44141C9.16235 11.0983 10.5055 12.4414 12.1624 12.4414Z" fill="#D1D1D1"/>
</svg>
