<svg width="25" height="25" viewBox="0 0 25 25" fill="none" xmlns="http://www.w3.org/2000/svg">
<path d="M12.3809 4.48456C13.6993 3.49615 15.5811 4.43683 15.5811 6.08417V18.0783C15.5811 19.7257 13.6993 20.6663 12.3809 19.6779L8.11426 16.4787C7.76828 16.2194 7.34739 16.0794 6.91504 16.0793H4.58105C3.47649 16.0793 2.58105 15.1843 2.58105 14.0803V10.0822C2.58105 8.97815 3.47649 8.08319 4.58105 8.08319H6.91504C7.34739 8.0831 7.76828 7.94306 8.11426 7.68378L12.3809 4.48456ZM21.0811 9.52069C21.3739 9.2278 21.8487 9.2278 22.1416 9.52069C22.4345 9.81359 22.4345 10.2883 22.1416 10.5812L20.6719 12.051L22.1416 13.5207C22.4345 13.8136 22.4345 14.2883 22.1416 14.5812C21.8487 14.8741 21.3739 14.8741 21.0811 14.5812L19.6113 13.1115L18.1416 14.5812C17.8487 14.8741 17.3739 14.8741 17.0811 14.5812C16.7882 14.2883 16.7882 13.8136 17.0811 13.5207L18.5508 12.051L17.0811 10.5812C16.7882 10.2883 16.7882 9.81359 17.0811 9.52069C17.3739 9.2278 17.8487 9.2278 18.1416 9.52069L19.6113 10.9904L21.0811 9.52069Z" fill="#888888"/>
</svg>
