<svg width="24" height="25" viewBox="0 0 24 25" fill="none" xmlns="http://www.w3.org/2000/svg">
<path d="M4 13.8538C5.51878 13.8538 6.75 15.085 6.75 16.6038C6.75 18.1225 5.51878 19.3538 4 19.3538C2.48122 19.3538 1.25 18.1225 1.25 16.6038C1.25 15.085 2.48122 13.8538 4 13.8538ZM22 17.8538C22.4142 17.8538 22.75 18.1895 22.75 18.6038C22.75 19.018 22.4142 19.3538 22 19.3538H10C9.58579 19.3538 9.25 19.018 9.25 18.6038C9.25 18.1895 9.58579 17.8538 10 17.8538H22ZM16 13.8538C16.4142 13.8538 16.75 14.1895 16.75 14.6038C16.75 15.018 16.4142 15.3538 16 15.3538H10C9.58579 15.3538 9.25 15.018 9.25 14.6038C9.25 14.1895 9.58579 13.8538 10 13.8538H16ZM4 5.85376C5.51878 5.85376 6.75 7.08498 6.75 8.60376C6.75 10.1225 5.51878 11.3538 4 11.3538C2.48122 11.3538 1.25 10.1225 1.25 8.60376C1.25 7.08498 2.48122 5.85376 4 5.85376ZM22 9.85376C22.4142 9.85376 22.75 10.1895 22.75 10.6038C22.75 11.018 22.4142 11.3538 22 11.3538H10C9.58579 11.3538 9.25 11.018 9.25 10.6038C9.25 10.1895 9.58579 9.85376 10 9.85376H22ZM16 5.85376C16.4142 5.85376 16.75 6.18955 16.75 6.60376C16.75 7.01797 16.4142 7.35376 16 7.35376H10C9.58579 7.35376 9.25 7.01797 9.25 6.60376C9.25 6.18955 9.58579 5.85376 10 5.85376H16Z" fill="#D1D1D1"/>
</svg>
