<svg width="25" height="25" viewBox="0 0 25 25" fill="none" xmlns="http://www.w3.org/2000/svg">
<g clip-path="url(#clip0_2298_617)">
<path d="M17.1681 19.8447C17.5822 20.5619 17.3362 21.4792 16.6192 21.8935C15.9018 22.3077 14.9836 22.0621 14.5694 21.3447L12.6661 18.0478L15.7257 17.3476L17.1681 19.8447ZM4.15926 12.0459C4.8767 11.6317 5.79388 11.8782 6.20809 12.5957L8.70809 16.9257C9.12223 17.6432 8.87667 18.5604 8.15926 18.9746C7.44195 19.3885 6.52467 19.1429 6.11043 18.4257L3.61043 14.0957C3.19623 13.3782 3.44186 12.4601 4.15926 12.0459ZM13.5313 4.27243C14.4472 3.28676 16.0557 3.46872 16.7286 4.63375L21.0206 12.0683C21.6934 13.2336 21.047 14.7172 19.7354 15.0175L10.5011 17.1318C10.4368 16.835 10.3261 16.5427 10.1661 16.2656L7.6661 11.9355C7.5061 11.6584 7.30802 11.4169 7.08309 11.2129L13.5313 4.27243ZM21.5899 8.29879C21.6971 7.89876 22.1088 7.66048 22.5089 7.76754L23.8751 8.13375C24.2752 8.24096 24.5126 8.6526 24.4054 9.0527C24.2981 9.45275 23.8865 9.69017 23.4864 9.58297L22.1212 9.21676C21.7213 9.1096 21.4831 8.69872 21.5899 8.29879ZM19.9561 3.46774C20.0635 3.06783 20.4751 2.83029 20.8751 2.93747C21.2752 3.04467 21.5126 3.45631 21.4054 3.85641L21.0391 5.22262C20.9319 5.62242 20.5211 5.85978 20.1212 5.7529C19.7211 5.64569 19.4827 5.23405 19.5899 4.83395L19.9561 3.46774Z" fill="#888888"/>
</g>
<defs>
<clipPath id="clip0_2298_617">
<rect width="24" height="24" fill="white" transform="translate(0.860352 0.19812)"/>
</clipPath>
</defs>
</svg>
