<svg width="25" height="25" viewBox="0 0 25 25" fill="none" xmlns="http://www.w3.org/2000/svg">
<path d="M22.698 18.5227C22.698 20.7318 20.9071 22.5227 18.698 22.5227H6.698C4.48886 22.5227 2.698 20.7318 2.698 18.5227V9.27368H22.698V18.5227ZM13.03 13.0774C12.0332 12.4129 10.698 13.1274 10.698 14.3254V16.72C10.698 17.918 12.0332 18.6325 13.03 17.968L14.8259 16.7708C15.7165 16.177 15.7165 14.8684 14.8259 14.2747L13.03 13.0774ZM6.31128 7.77368H2.698V6.52271C2.698 4.31357 4.48886 2.52271 6.698 2.52271H10.0613L6.31128 7.77368ZM14.3113 7.77368H8.15503L11.905 2.52271H18.0613L14.3113 7.77368ZM19.7947 2.67603C21.4705 3.15288 22.698 4.69396 22.698 6.52271V7.77368H16.155L19.7947 2.67603Z" fill="#888888"/>
</svg>
