<svg width="25" height="25" viewBox="0 0 25 25" fill="none" xmlns="http://www.w3.org/2000/svg">
<path fill-rule="evenodd" clip-rule="evenodd" d="M12.4413 2.13293C10.3702 2.13293 8.69128 3.81187 8.69128 5.88293V6.88353C6.79636 6.91617 5.17993 8.27677 4.82949 10.1458L3.32949 18.1458C2.86793 20.6074 4.75643 22.8829 7.26098 22.8829H17.6216C20.1261 22.8829 22.0146 20.6074 21.5531 18.1458L20.0531 10.1458C19.7026 8.27677 18.0862 6.91617 16.1913 6.88353V5.88293C16.1913 3.81187 14.5123 2.13293 12.4413 2.13293ZM14.6913 6.88293V5.88293C14.6913 4.64029 13.6839 3.63293 12.4413 3.63293C11.1986 3.63293 10.1913 4.64029 10.1913 5.88293V6.88293H14.6913Z" fill="#D1D1D1"/>
</svg>
