<svg width="25" height="25" viewBox="0 0 25 25" fill="none" xmlns="http://www.w3.org/2000/svg">
<path d="M4.33002 3.55085C4.62291 3.25795 5.09768 3.25795 5.39057 3.55085L21.3906 19.5508C21.6835 19.8437 21.6835 20.3185 21.3906 20.6114C21.0977 20.9043 20.6229 20.9043 20.33 20.6114L17.8574 18.1387C17.812 19.7484 15.9623 20.654 14.6601 19.6778L10.3935 16.4786C10.0475 16.2193 9.62662 16.0793 9.19428 16.0792H6.86029C5.75573 16.0792 4.86029 15.1842 4.86029 14.0801V10.0821C4.86033 8.97806 5.75575 8.08307 6.86029 8.08307H7.8017L4.33002 4.61139C4.03713 4.3185 4.03713 3.84374 4.33002 3.55085ZM14.6601 4.48444C15.9786 3.49608 17.8602 4.43676 17.8603 6.08405V14.0206L11.039 7.19928L14.6601 4.48444Z" fill="#888888"/>
</svg>
