<svg width="25" height="25" viewBox="0 0 25 25" fill="none" xmlns="http://www.w3.org/2000/svg">
<path d="M11.9392 4.48456C13.2577 3.49615 15.1394 4.43683 15.1394 6.08417V18.0783C15.1394 19.7257 13.2577 20.6663 11.9392 19.6779L7.67261 16.4787C7.32663 16.2194 6.90574 16.0794 6.47339 16.0793H4.1394C3.03483 16.0793 2.1394 15.1843 2.1394 14.0803V10.0822C2.1394 8.97815 3.03483 8.08319 4.1394 8.08319H6.47339C6.90574 8.0831 7.32663 7.94306 7.67261 7.68378L11.9392 4.48456ZM16.6541 7.03241C16.7365 6.62648 17.1329 6.36407 17.5388 6.44647C20.1636 6.97939 22.1394 9.29865 22.1394 12.0812C22.1394 14.8638 20.1636 17.1831 17.5388 17.716C17.1329 17.7984 16.7365 17.536 16.6541 17.1301C16.5719 16.7244 16.8343 16.3288 17.24 16.2463C19.1796 15.8526 20.6394 14.1365 20.6394 12.0812C20.6394 10.026 19.1796 8.30992 17.24 7.9162C16.8343 7.83372 16.5719 7.43812 16.6541 7.03241ZM16.74 9.97284C16.9475 9.61445 17.4069 9.49203 17.7654 9.6994C18.5853 10.1738 19.1394 11.0625 19.1394 12.0812C19.1394 13.1 18.5853 13.9887 17.7654 14.4631C17.4069 14.6704 16.9475 14.548 16.74 14.1896C16.5326 13.8312 16.6551 13.3717 17.0134 13.1642C17.389 12.947 17.6394 12.543 17.6394 12.0812C17.6394 11.6195 17.389 11.2155 17.0134 10.9982C16.6551 10.7908 16.5326 10.3313 16.74 9.97284Z" fill="#888888"/>
</svg>
