<svg width="19" height="19" viewBox="0 0 19 19" fill="none" xmlns="http://www.w3.org/2000/svg">
<path fill-rule="evenodd" clip-rule="evenodd" d="M12.3503 1.45046C11.1179 0.218025 9.01058 1.09089 9.01058 2.83381C9.01058 3.35267 8.80446 3.85028 8.43757 4.21717L6.81687 5.83787C6.44998 6.20475 5.95237 6.41087 5.43352 6.41087C3.69058 6.41087 2.81772 8.51814 4.05016 9.75058L6.42644 12.1269L0.908881 17.6444C0.627704 17.9256 0.627704 18.3815 0.908881 18.6627C1.19006 18.9438 1.64594 18.9438 1.92711 18.6627L7.44468 13.1451L9.82093 15.5213C11.0534 16.7538 13.1606 15.8809 13.1606 14.138C13.1606 13.6191 13.3668 13.1215 13.7337 12.7546L15.3544 11.1339C15.7212 10.767 16.2189 10.5609 16.7377 10.5609C18.4806 10.5609 19.3535 8.45366 18.1211 7.22122L12.3503 1.45046Z" fill="#888888"/>
</svg>
