<svg width="25" height="25" viewBox="0 0 25 25" fill="none" xmlns="http://www.w3.org/2000/svg">
<path fill-rule="evenodd" clip-rule="evenodd" d="M17.6099 2.03577C17.6099 1.62155 17.2741 1.28577 16.8599 1.28577C16.4457 1.28577 16.1099 1.62155 16.1099 2.03577V3.53577H9.60986V2.03577C9.60986 1.62155 9.27408 1.28577 8.85986 1.28577C8.44565 1.28577 8.10986 1.62155 8.10986 2.03577V3.53577H7.86035C5.65121 3.53577 3.86035 5.32663 3.86035 7.53577V18.0358C3.86035 20.2449 5.65121 22.0358 7.86035 22.0358H17.8604C20.0695 22.0358 21.8604 20.2449 21.8604 18.0358V7.53577C21.8604 5.32663 20.0695 3.53577 17.8604 3.53577H17.6099V2.03577ZM8.86035 8.28577C8.44614 8.28577 8.11035 8.62155 8.11035 9.03577C8.11035 9.44998 8.44614 9.78577 8.86035 9.78577H12.8604C13.2746 9.78577 13.6104 9.44998 13.6104 9.03577C13.6104 8.62155 13.2746 8.28577 12.8604 8.28577H8.86035ZM8.11035 13.0358C8.11035 12.6216 8.44614 12.2858 8.86035 12.2858H16.8604C17.2746 12.2858 17.6104 12.6216 17.6104 13.0358C17.6104 13.45 17.2746 13.7858 16.8604 13.7858H8.86035C8.44614 13.7858 8.11035 13.45 8.11035 13.0358ZM8.86035 16.2858C8.44614 16.2858 8.11035 16.6216 8.11035 17.0358C8.11035 17.45 8.44614 17.7858 8.86035 17.7858H16.8604C17.2746 17.7858 17.6104 17.45 17.6104 17.0358C17.6104 16.6216 17.2746 16.2858 16.8604 16.2858H8.86035Z" fill="#888888"/>
</svg>
