<svg width="24" height="24" viewBox="0 0 24 24" fill="none" xmlns="http://www.w3.org/2000/svg">
<path d="M12 2C13.6569 2 15 3.34315 15 5V13C16.2143 13.9122 17 15.3643 17 17C17 19.7614 14.7614 22 12 22C9.23858 22 7 19.7614 7 17C7 15.3643 7.78565 13.9122 9 13V5C9 3.34315 10.3431 2 12 2ZM12 4.25C11.5858 4.25 11.25 4.58579 11.25 5V15.1465C10.5172 15.4433 10 16.1608 10 17C10 18.1046 10.8954 19 12 19C13.1046 19 14 18.1046 14 17C14 16.1608 13.4828 15.4433 12.75 15.1465V5C12.75 4.58579 12.4142 4.25 12 4.25ZM20 1.25C20.4142 1.25 20.75 1.58579 20.75 2V3.25H22C22.4142 3.25 22.75 3.58579 22.75 4C22.75 4.41421 22.4142 4.75 22 4.75H20.75V6C20.75 6.41421 20.4142 6.75 20 6.75C19.5858 6.75 19.25 6.41421 19.25 6V4.75H18C17.5858 4.75 17.25 4.41421 17.25 4C17.25 3.58579 17.5858 3.25 18 3.25H19.25V2C19.25 1.58579 19.5858 1.25 20 1.25Z" fill="#D1D1D1"/>
</svg>
