<svg width="25" height="25" viewBox="0 0 25 25" fill="none" xmlns="http://www.w3.org/2000/svg">
<path d="M11.9707 15.6038C12.6611 15.6038 13.2207 16.1634 13.2207 16.8538C13.2207 17.5441 12.6611 18.1038 11.9707 18.1038C11.2803 18.1038 10.7207 17.5441 10.7207 16.8538C10.7207 16.1634 11.2803 15.6038 11.9707 15.6038ZM11.9707 10.6038C12.6611 10.6038 13.2207 11.1634 13.2207 11.8538C13.2207 12.5441 12.6611 13.1038 11.9707 13.1038C11.2803 13.1038 10.7207 12.5441 10.7207 11.8538C10.7207 11.1634 11.2803 10.6038 11.9707 10.6038ZM11.9707 5.60376C12.6611 5.60376 13.2207 6.1634 13.2207 6.85376C13.2207 7.54412 12.6611 8.10376 11.9707 8.10376C11.2803 8.10376 10.7207 7.54412 10.7207 6.85376C10.7207 6.1634 11.2803 5.60376 11.9707 5.60376Z" fill="#D1D1D1"/>
</svg>
