<svg width="25" height="25" viewBox="0 0 25 25" fill="none" xmlns="http://www.w3.org/2000/svg">
<path fill-rule="evenodd" clip-rule="evenodd" d="M18.8831 2.7207H6.88306C4.67392 2.7207 2.88306 4.51156 2.88306 6.7207V18.7207C2.88306 20.9298 4.67392 22.7207 6.88306 22.7207H18.8831C21.0922 22.7207 22.8831 20.9298 22.8831 18.7207V6.7207C22.8831 4.51156 21.0922 2.7207 18.8831 2.7207ZM17.4751 10.1812C17.7294 9.85423 17.6705 9.38303 17.3435 9.12872C17.0166 8.87442 16.5454 8.93332 16.291 9.26028L12.284 14.4121C12.1949 14.5267 12.0273 14.5416 11.9195 14.4445L9.38479 12.1633C9.0769 11.8862 8.60269 11.9111 8.32559 12.219C8.0485 12.5269 8.07346 13.0011 8.38134 13.2782L10.916 15.5594C11.6712 16.239 12.8444 16.135 13.4681 15.3331L17.4751 10.1812Z" fill="#D1D1D1"/>
</svg>
