<svg width="25" height="25" viewBox="0 0 25 25" fill="none" xmlns="http://www.w3.org/2000/svg">
<path d="M12.1016 4.48456C13.42 3.49615 15.3018 4.43683 15.3018 6.08417V18.0783C15.3018 19.7257 13.42 20.6663 12.1016 19.6779L7.83496 16.4787C7.48899 16.2194 7.06809 16.0794 6.63574 16.0793H4.30176C3.19719 16.0793 2.30176 15.1843 2.30176 14.0803V10.0822C2.30176 8.97815 3.19719 8.08319 4.30176 8.08319H6.63574C7.06809 8.0831 7.48899 7.94306 7.83496 7.68378L12.1016 4.48456ZM21.5518 11.3312C21.966 11.3312 22.3018 11.667 22.3018 12.0812C22.3018 12.4955 21.966 12.8312 21.5518 12.8312H17.5518C17.1375 12.8312 16.8018 12.4955 16.8018 12.0812C16.8018 11.667 17.1375 11.3312 17.5518 11.3312H21.5518Z" fill="#888888"/>
</svg>
