<svg width="24" height="24" viewBox="0 0 24 24" fill="none" xmlns="http://www.w3.org/2000/svg">
<path d="M11.3428 2C11.6506 2 11.955 2.03581 12.25 2.10449V6C12.25 8.62335 14.3766 10.75 17 10.75H20.8945C20.9632 11.0451 21 11.3494 21 11.6572V18C21 20.2091 19.2091 22 17 22H7C4.79086 22 3 20.2091 3 18V6C3 3.79086 4.79086 2 7 2H11.3428ZM12.1426 13.5586C11.793 13.5586 11.4844 13.6152 11.2168 13.7285C11.0156 13.8125 10.8301 13.9414 10.6602 14.1152C10.4922 14.2891 10.3594 14.4854 10.2617 14.7041C10.1309 15.001 10.0654 15.3682 10.0654 15.8057C10.0654 16.4893 10.2539 17.0264 10.6309 17.417C11.0078 17.8057 11.5156 18 12.1543 18C12.7852 18 13.2891 17.8047 13.666 17.4141C14.043 17.0215 14.2314 16.4785 14.2314 15.7852C14.2314 15.0859 14.041 14.54 13.6602 14.1475C13.2812 13.7549 12.7754 13.5586 12.1426 13.5586ZM16.7686 13.5586C16.167 13.5586 15.6816 13.7568 15.3125 14.1533C14.9434 14.5479 14.7588 15.1025 14.7588 15.8174C14.7588 16.4932 14.9424 17.0264 15.3096 17.417C15.6768 17.8057 16.1455 18 16.7158 18C17.1768 18 17.5566 17.8867 17.8555 17.6602C18.1562 17.4316 18.3711 17.083 18.5 16.6143L17.6592 16.3477C17.5869 16.6621 17.4678 16.8926 17.3018 17.0391C17.1357 17.1855 16.9375 17.2588 16.707 17.2588C16.3945 17.2588 16.1406 17.1436 15.9453 16.9131C15.75 16.6826 15.6523 16.2959 15.6523 15.7529C15.6523 15.2412 15.751 14.8711 15.9482 14.6426C16.1475 14.4141 16.4062 14.2998 16.7246 14.2998C16.9551 14.2998 17.1504 14.3643 17.3105 14.4932C17.4727 14.6221 17.5791 14.7979 17.6299 15.0205L18.4883 14.8154C18.3906 14.4717 18.2441 14.208 18.0488 14.0244C17.7207 13.7139 17.2939 13.5586 16.7686 13.5586ZM5.90234 13.6318V17.9268H7.53418C7.85449 17.9268 8.11035 17.8965 8.30176 17.8359C8.55762 17.7539 8.76074 17.6396 8.91113 17.4932C9.11035 17.2998 9.26367 17.0469 9.37109 16.7344C9.45898 16.4785 9.50293 16.1738 9.50293 15.8203C9.50293 15.418 9.45605 15.0801 9.3623 14.8066C9.26855 14.5313 9.13184 14.2988 8.95215 14.1094C8.77246 13.9199 8.55664 13.7881 8.30469 13.7139C8.11719 13.6592 7.84473 13.6318 7.4873 13.6318H5.90234ZM12.1514 14.2998C12.5088 14.2998 12.7949 14.4209 13.0098 14.6631C13.2266 14.9053 13.335 15.2725 13.335 15.7646C13.335 16.2627 13.2236 16.6367 13.001 16.8867C12.7803 17.1348 12.4971 17.2588 12.1514 17.2588C11.8057 17.2588 11.5205 17.1338 11.2959 16.8838C11.0713 16.6318 10.959 16.2627 10.959 15.7764C10.959 15.2822 11.0684 14.9131 11.2871 14.6689C11.5059 14.4229 11.7939 14.2998 12.1514 14.2998ZM7.15918 14.3584C7.5127 14.3584 7.75 14.3721 7.87109 14.3994C8.0332 14.4346 8.16699 14.502 8.27246 14.6016C8.37793 14.7012 8.45996 14.8398 8.51855 15.0176C8.57715 15.1953 8.60645 15.4502 8.60645 15.7822C8.60645 16.1143 8.57715 16.377 8.51855 16.5703C8.45996 16.7617 8.38379 16.8994 8.29004 16.9834C8.19824 17.0674 8.08203 17.127 7.94141 17.1621C7.83398 17.1895 7.65918 17.2031 7.41699 17.2031H6.76953V14.3584H7.15918ZM13.75 2.80566C13.898 2.91715 14.0394 3.03937 14.1719 3.17188L19.8281 8.82813C19.9605 8.9605 20.082 9.10221 20.1934 9.25H17C15.2051 9.25 13.75 7.79492 13.75 6V2.80566Z" fill="#D1D1D1"/>
</svg>
