<svg width="25" height="25" viewBox="0 0 25 25" fill="none" xmlns="http://www.w3.org/2000/svg">
<path fill-rule="evenodd" clip-rule="evenodd" d="M22.6038 12.7207C22.6038 18.2436 18.1266 22.7207 12.6038 22.7207C7.08091 22.7207 2.60376 18.2436 2.60376 12.7207C2.60376 7.19786 7.08091 2.7207 12.6038 2.7207C18.1266 2.7207 22.6038 7.19786 22.6038 12.7207ZM12.6038 7.9707C13.018 7.9707 13.3538 8.30649 13.3538 8.7207V11.9707H16.6038C17.018 11.9707 17.3538 12.3065 17.3538 12.7207C17.3538 13.1349 17.018 13.4707 16.6038 13.4707H13.3538V16.7207C13.3538 17.1349 13.018 17.4707 12.6038 17.4707C12.1895 17.4707 11.8538 17.1349 11.8538 16.7207V13.4707H8.60376C8.18955 13.4707 7.85376 13.1349 7.85376 12.7207C7.85376 12.3065 8.18955 11.9707 8.60376 11.9707H11.8538V8.7207C11.8538 8.30649 12.1895 7.9707 12.6038 7.9707Z" fill="#D1D1D1"/>
</svg>
