<svg width="24" height="24" viewBox="0 0 24 24" fill="none" xmlns="http://www.w3.org/2000/svg">
<path d="M22 18C22 20.2091 20.2091 22 18 22H6C3.79086 22 2 20.2091 2 18V8.75098H22V18ZM12.332 12.5547C11.3352 11.8902 10 12.6047 10 13.8027V16.1973C10 17.3953 11.3352 18.1098 12.332 17.4453L14.1279 16.248C15.0185 15.6543 15.0185 14.3457 14.1279 13.752L12.332 12.5547ZM5.61328 7.25098H2V6C2 3.79086 3.79086 2 6 2H9.36328L5.61328 7.25098ZM13.6133 7.25098H7.45703L11.207 2H17.3633L13.6133 7.25098ZM19.0967 2.15332C20.7725 2.63018 22 4.17126 22 6V7.25098H15.457L19.0967 2.15332Z" fill="#D1D1D1"/>
</svg>
