<svg width="25" height="25" viewBox="0 0 25 25" fill="none" xmlns="http://www.w3.org/2000/svg">
<path d="M14.5107 3.36035C15.1794 3.36037 15.8039 3.69459 16.1748 4.25098L17.5811 6.36035H18.5811C20.7902 6.36035 22.5811 8.15121 22.5811 10.3604V17.3604C22.5811 19.5695 20.7902 21.3604 18.5811 21.3604H6.58105C4.37192 21.3604 2.58105 19.5695 2.58105 17.3604V10.3604C2.58105 8.15121 4.37192 6.36035 6.58105 6.36035H7.58105L8.9873 4.25098C9.35823 3.69459 9.98268 3.36037 10.6514 3.36035H14.5107ZM12.5811 10.8604C10.9242 10.8604 9.58105 12.2035 9.58105 13.8604C9.58105 15.5172 10.9242 16.8604 12.5811 16.8604C14.2379 16.8604 15.5811 15.5172 15.5811 13.8604C15.5811 12.2035 14.2379 10.8604 12.5811 10.8604ZM12.5811 5.36035C12.0288 5.36035 11.5811 5.80807 11.5811 6.36035C11.5811 6.91264 12.0288 7.36035 12.5811 7.36035C13.1333 7.36035 13.5811 6.91264 13.5811 6.36035C13.5811 5.80807 13.1333 5.36035 12.5811 5.36035Z" fill="#888888"/>
</svg>
