<svg width="25" height="25" viewBox="0 0 25 25" fill="none" xmlns="http://www.w3.org/2000/svg">
<path fill-rule="evenodd" clip-rule="evenodd" d="M21.851 14.8676C23.0106 13.6475 23.0106 11.7939 21.851 10.5738C19.8952 8.51604 16.5362 5.7207 12.7207 5.7207C8.90519 5.7207 5.5462 8.51604 3.59041 10.5738C2.4308 11.7939 2.4308 13.6475 3.59041 14.8676C5.5462 16.9254 8.90519 19.7207 12.7207 19.7207C16.5362 19.7207 19.8952 16.9254 21.851 14.8676ZM12.7207 15.7207C14.3776 15.7207 15.7207 14.3776 15.7207 12.7207C15.7207 11.0638 14.3776 9.7207 12.7207 9.7207C11.0638 9.7207 9.7207 11.0638 9.7207 12.7207C9.7207 14.3776 11.0638 15.7207 12.7207 15.7207Z" fill="#D1D1D1"/>
</svg>
