<svg width="25" height="25" viewBox="0 0 25 25" fill="none" xmlns="http://www.w3.org/2000/svg">
<path d="M5.09644 5.08351C5.38929 4.79065 5.86408 4.79072 6.15698 5.08351C6.44988 5.3764 6.44988 5.85116 6.15698 6.14405C4.48231 7.81879 3.448 10.1306 3.448 12.6851C3.44806 15.2393 4.48251 17.5504 6.15698 19.2251C6.44988 19.518 6.44988 19.9937 6.15698 20.2866C5.8641 20.5792 5.38923 20.5793 5.09644 20.2866C3.15194 18.3421 1.94806 15.6533 1.948 12.6851C1.948 9.7168 3.15195 7.02804 5.09644 5.08351ZM19.239 5.08351C19.5319 4.79072 20.0067 4.79065 20.2996 5.08351C22.244 7.02804 23.448 9.7168 23.448 12.6851C23.4479 15.6533 22.2441 18.3421 20.2996 20.2866C20.0068 20.5793 19.5319 20.5792 19.239 20.2866C18.9461 19.9937 18.9461 19.518 19.239 19.2251C20.9135 17.5504 21.9479 15.2393 21.948 12.6851C21.948 10.1306 20.9137 7.81879 19.239 6.14405C18.9461 5.85116 18.9461 5.3764 19.239 5.08351ZM7.92456 7.91163C8.21745 7.61874 8.69319 7.61874 8.98608 7.91163C9.27878 8.2044 9.27857 8.67928 8.98608 8.97218C8.0352 9.92306 7.448 11.2351 7.448 12.6851C7.44806 14.1349 8.03525 15.4461 8.98608 16.397C9.27875 16.6898 9.2786 17.1646 8.98608 17.4575C8.69319 17.7504 8.21745 17.7504 7.92456 17.4575C6.70414 16.2369 5.94806 14.5485 5.948 12.6851C5.948 10.8214 6.70394 9.13231 7.92456 7.91163ZM16.4099 7.91163C16.7028 7.61874 17.1785 7.61874 17.4714 7.91163C18.6921 9.13231 19.448 10.8214 19.448 12.6851C19.4479 14.5485 18.6919 16.2369 17.4714 17.4575C17.1785 17.7504 16.7028 17.7504 16.4099 17.4575C16.1174 17.1646 16.1172 16.6898 16.4099 16.397C17.3607 15.4461 17.9479 14.1349 17.948 12.6851C17.948 11.2351 17.3608 9.92306 16.4099 8.97218C16.1174 8.67928 16.1172 8.2044 16.4099 7.91163ZM12.698 10.1851C14.0787 10.1851 15.198 11.3044 15.198 12.6851C15.1979 14.0657 14.0786 15.1851 12.698 15.1851C11.3174 15.1851 10.1981 14.0657 10.198 12.6851C10.198 11.3044 11.3173 10.1851 12.698 10.1851Z" fill="#888888"/>
</svg>
