<svg width="25" height="25" viewBox="0 0 25 25" fill="none" xmlns="http://www.w3.org/2000/svg">
<path fill-rule="evenodd" clip-rule="evenodd" d="M18.2698 2.68864C20.0505 2.09507 21.8894 3.42048 21.8894 5.29752V17.5227C21.8894 19.5937 20.2105 21.2727 18.1394 21.2727C16.0683 21.2727 14.3894 19.5937 14.3894 17.5227C14.3894 15.4516 16.0683 13.7727 18.1394 13.7727C18.9836 13.7727 19.7627 14.0516 20.3894 14.5224V10.2975C20.3894 9.44432 19.5535 8.84186 18.7441 9.11166L12.1117 11.3225C10.7846 11.7649 9.8894 13.0068 9.8894 14.4057V19.5227C9.8894 21.5937 8.21047 23.2727 6.1394 23.2727C4.06834 23.2727 2.3894 21.5937 2.3894 19.5227C2.3894 17.4516 4.06834 15.7727 6.1394 15.7727C6.98361 15.7727 7.76266 16.0516 8.3894 16.5224V9.4057C8.3894 7.36116 9.6977 5.546 11.6373 4.89946L18.2698 2.68864Z" fill="#888888"/>
</svg>
