<svg width="25" height="25" viewBox="0 0 25 25" fill="none" xmlns="http://www.w3.org/2000/svg">
<path fill-rule="evenodd" clip-rule="evenodd" d="M5.74341 2.44141H19.7434C20.848 2.44141 21.7434 3.33684 21.7434 4.44141V19.5958C21.7434 20.981 20.3693 21.9467 19.066 21.4775L17.5042 20.9153C17.0162 20.7396 16.479 20.7604 16.006 20.9732L13.5641 22.0721C13.0422 22.307 12.4446 22.307 11.9227 22.0721L9.48078 20.9732C9.0078 20.7604 8.47062 20.7396 7.98261 20.9153L6.42085 21.4775C5.11752 21.9467 3.74341 20.981 3.74341 19.5958V4.44141C3.74341 3.33684 4.63884 2.44141 5.74341 2.44141ZM8.74341 6.69141C8.32919 6.69141 7.99341 7.02719 7.99341 7.44141C7.99341 7.85562 8.32919 8.19141 8.74341 8.19141H12.7434C13.1576 8.19141 13.4934 7.85562 13.4934 7.44141C13.4934 7.02719 13.1576 6.69141 12.7434 6.69141H8.74341ZM8.74341 10.6914C8.32919 10.6914 7.99341 11.0272 7.99341 11.4414C7.99341 11.8556 8.32919 12.1914 8.74341 12.1914H16.7434C17.1576 12.1914 17.4934 11.8556 17.4934 11.4414C17.4934 11.0272 17.1576 10.6914 16.7434 10.6914H8.74341ZM8.74341 14.6914C8.32919 14.6914 7.99341 15.0272 7.99341 15.4414C7.99341 15.8556 8.32919 16.1914 8.74341 16.1914H16.7434C17.1576 16.1914 17.4934 15.8556 17.4934 15.4414C17.4934 15.0272 17.1576 14.6914 16.7434 14.6914H8.74341Z" fill="#D1D1D1"/>
</svg>
