<svg width="24" height="24" viewBox="0 0 24 24" fill="none" xmlns="http://www.w3.org/2000/svg">
<path d="M5.46973 16.5303C5.17683 16.2374 5.17683 15.7627 5.46973 15.4698L8.46973 12.4698C8.76262 12.1769 9.23738 12.1769 9.53027 12.4698C9.82317 12.7627 9.82317 13.2374 9.53027 13.5303L7.81055 15.2501L18 15.2501C18.4142 15.2501 18.75 15.5858 18.75 16.0001C18.75 16.4143 18.4142 16.7501 18 16.7501L7.81055 16.7501L9.53027 18.4698C9.82317 18.7627 9.82317 19.2374 9.53027 19.5303C9.23738 19.8232 8.76262 19.8232 8.46973 19.5303L5.46973 16.5303ZM5.25 8.00006C5.25 7.58584 5.58579 7.25006 6 7.25006L16.1895 7.25006L14.4697 5.53033C14.1768 5.23744 14.1768 4.76268 14.4697 4.46978C14.7626 4.17689 15.2374 4.17689 15.5303 4.46978L18.5303 7.46978C18.8232 7.76268 18.8232 8.23744 18.5303 8.53033L15.5303 11.5303C15.2374 11.8232 14.7626 11.8232 14.4697 11.5303C14.1768 11.2374 14.1768 10.7627 14.4697 10.4698L16.1895 8.75006L6 8.75006C5.58579 8.75006 5.25 8.41427 5.25 8.00006Z" fill="#D1D1D1"/>
</svg>
