<svg width="25" height="25" viewBox="0 0 25 25" fill="none" xmlns="http://www.w3.org/2000/svg">
<path d="M12.5811 2.96411C14.2379 2.96411 15.5811 4.30726 15.5811 5.96411V13.9641C16.7954 14.8763 17.5811 16.3284 17.5811 17.9641C17.5811 20.7255 15.3425 22.9641 12.5811 22.9641C9.81963 22.9641 7.58105 20.7255 7.58105 17.9641C7.58105 16.3284 8.36671 14.8763 9.58105 13.9641V5.96411C9.58105 4.30726 10.9242 2.96411 12.5811 2.96411ZM12.5811 5.21411C12.1668 5.21411 11.8311 5.5499 11.8311 5.96411V16.1106C11.0983 16.4074 10.5811 17.1249 10.5811 17.9641C10.5811 19.0687 11.4765 19.9641 12.5811 19.9641C13.6856 19.9641 14.5811 19.0687 14.5811 17.9641C14.5811 17.1249 14.0638 16.4074 13.3311 16.1106V5.96411C13.3311 5.5499 12.9953 5.21411 12.5811 5.21411ZM20.5811 2.21411C20.9953 2.21411 21.3311 2.5499 21.3311 2.96411V4.21411H22.5811C22.9953 4.21411 23.3311 4.5499 23.3311 4.96411C23.3311 5.37832 22.9953 5.71411 22.5811 5.71411H21.3311V6.96411C21.3311 7.37832 20.9953 7.71411 20.5811 7.71411C20.1668 7.71411 19.8311 7.37832 19.8311 6.96411V5.71411H18.5811C18.1668 5.71411 17.8311 5.37832 17.8311 4.96411C17.8311 4.5499 18.1668 4.21411 18.5811 4.21411H19.8311V2.96411C19.8311 2.5499 20.1668 2.21411 20.5811 2.21411Z" fill="#888888"/>
</svg>
