<svg width="24" height="24" viewBox="0 0 24 24" fill="none" xmlns="http://www.w3.org/2000/svg">
<path d="M7 6.25C7.41421 6.25 7.75 6.58579 7.75 7V10.4141C7.81634 10.3636 7.88712 10.3161 7.96191 10.2725L13.9922 6.75488C15.3255 5.97712 17 6.93884 17 8.48242V15.5176C17 17.0612 15.3255 18.0229 13.9922 17.2451L7.96191 13.7275C7.88695 13.6838 7.81647 13.6356 7.75 13.585V17C7.75 17.4142 7.41421 17.75 7 17.75C6.58579 17.75 6.25 17.4142 6.25 17V7C6.25 6.58579 6.58579 6.25 7 6.25Z" fill="#D1D1D1"/>
</svg>
