<svg width="21" height="19" viewBox="0 0 21 19" fill="none" xmlns="http://www.w3.org/2000/svg">
<path d="M8.6543 18.1528C6.72484 18.1527 5.52291 16.0596 6.49512 14.393L7.80176 12.1528H2.86328C1.56214 12.1528 0.607279 10.9297 0.922852 9.66742L2.54395 3.18304C2.98911 1.40239 4.58935 0.152788 6.4248 0.152771H9.59082C10.3805 0.152807 11.1526 0.386633 11.8096 0.824646L13.3564 1.8559C13.6346 2.04136 13.8017 2.35359 13.8018 2.68793V10.8871C13.8018 11.0612 13.7562 11.2322 13.6699 11.3832L9.80176 18.1528H8.6543ZM17.3018 12.1528C16.1972 12.1528 15.3018 11.2573 15.3018 10.1528V3.15277C15.3018 2.0482 16.1972 1.15277 17.3018 1.15277H18.3018C19.4063 1.15277 20.3018 2.0482 20.3018 3.15277V10.1528C20.3018 11.2573 19.4063 12.1528 18.3018 12.1528H17.3018Z" fill="#888888"/>
</svg>
