<svg width="25" height="25" viewBox="0 0 25 25" fill="none" xmlns="http://www.w3.org/2000/svg">
<path d="M15.3203 20.3829C15.5539 20.383 15.7429 20.5723 15.7432 20.8058C15.7432 20.8564 15.7348 20.9073 15.7158 20.9542C15.2584 22.0819 14.0997 22.8829 12.7432 22.8829C11.3867 22.8828 10.2288 22.0818 9.77148 20.9542C9.75245 20.9072 9.74316 20.8565 9.74316 20.8058C9.74339 20.5722 9.93336 20.3829 10.167 20.3829H15.3203ZM12.8437 4.88391C12.7783 5.20675 12.7432 5.54078 12.7432 5.88293C12.7432 8.64427 14.9819 10.8828 17.7432 10.8829C18.2014 10.8829 18.6458 10.8216 19.0674 10.7062L19.4082 13.7218C19.4939 14.4782 19.8012 15.1897 20.2881 15.7628C21.3215 16.9792 20.4824 18.8829 18.9131 18.8829H6.57324C5.00411 18.8827 4.16588 16.9791 5.19921 15.7628C5.68598 15.1898 5.99238 14.478 6.07812 13.7218L6.42285 10.6769C6.79705 7.37382 9.51424 4.88306 12.7432 4.88293C12.7765 4.88293 12.8105 4.88338 12.8437 4.88391ZM17.7432 2.88293C19.4 2.88293 20.7432 4.22608 20.7432 5.88293C20.7432 7.53979 19.4 8.88293 17.7432 8.88293C16.0864 8.8828 14.7432 7.53971 14.7432 5.88293C14.7432 4.22616 16.0864 2.88307 17.7432 2.88293Z" fill="#D1D1D1"/>
</svg>
