<svg width="25" height="25" viewBox="0 0 25 25" fill="none" xmlns="http://www.w3.org/2000/svg">
<path fill-rule="evenodd" clip-rule="evenodd" d="M11.2078 3.7207H13.1169C14.1713 3.7207 15.026 4.52659 15.026 5.5207C15.026 6.65832 16.2432 7.38159 17.2424 6.83768L17.3438 6.78244C18.2569 6.28538 19.4245 6.58036 19.9517 7.44129L20.9063 9.00013C21.4334 9.86106 21.1206 10.9619 20.2075 11.459C19.2079 12.0031 19.2079 13.4383 20.2075 13.9824C21.1206 14.4795 21.4334 15.5803 20.9063 16.4413L19.9517 18.0001C19.4245 18.861 18.2569 19.156 17.3438 18.659L17.2424 18.6037C16.2432 18.0598 15.026 18.7831 15.026 19.9207C15.026 20.9148 14.1713 21.7207 13.1169 21.7207H11.2078C10.1534 21.7207 9.29871 20.9148 9.29871 19.9207C9.29871 18.7831 8.08152 18.0598 7.08235 18.6037L6.98087 18.659C6.06776 19.156 4.90017 18.8611 4.37299 18.0001L3.41844 16.4413C2.89126 15.5804 3.20411 14.4795 4.11722 13.9824C5.11686 13.4383 5.11686 12.0031 4.11722 11.459C3.20412 10.9619 2.89126 9.86105 3.41844 9.00012L4.37299 7.44127C4.90018 6.58035 6.06776 6.28537 6.98087 6.78243L7.08235 6.83767C8.08152 7.38157 9.29871 6.65832 9.29871 5.5207C9.29871 4.52659 10.1534 3.7207 11.2078 3.7207ZM12.1624 15.7207C13.8192 15.7207 15.1624 14.3776 15.1624 12.7207C15.1624 11.0638 13.8192 9.7207 12.1624 9.7207C10.5055 9.7207 9.16236 11.0638 9.16236 12.7207C9.16236 14.3776 10.5055 15.7207 12.1624 15.7207Z" fill="#D1D1D1"/>
</svg>
