<svg width="25" height="25" viewBox="0 0 25 25" fill="none" xmlns="http://www.w3.org/2000/svg">
<path fill-rule="evenodd" clip-rule="evenodd" d="M22.8604 12.5943C22.8604 15.6077 21.5275 18.3097 19.4192 20.1431C17.6634 21.6699 15.3698 22.5943 12.8604 22.5943C10.3509 22.5943 8.05729 21.6699 6.30152 20.1431C4.1932 18.3097 2.86035 15.6077 2.86035 12.5943C2.86035 7.07145 7.3375 2.5943 12.8604 2.5943C18.3832 2.5943 22.8604 7.07145 22.8604 12.5943ZM12.8604 19.5943C14.617 19.5943 16.2225 18.9472 17.4516 17.8785C17.593 17.7554 17.7295 17.6268 17.8607 17.4929C16.7798 15.7446 14.9437 14.5943 12.8604 14.5943C10.7771 14.5943 8.94095 15.7446 7.86005 17.4929C7.99121 17.6268 8.12771 17.7554 8.26919 17.8785C9.49823 18.9472 11.1037 19.5943 12.8604 19.5943ZM12.8604 12.5943C14.5172 12.5943 15.8604 11.2512 15.8604 9.5943C15.8604 7.93745 14.5172 6.5943 12.8604 6.5943C11.2035 6.5943 9.86035 7.93745 9.86035 9.5943C9.86035 11.2512 11.2035 12.5943 12.8604 12.5943Z" fill="#888888"/>
</svg>
