<svg width="25" height="25" viewBox="0 0 25 25" fill="none" xmlns="http://www.w3.org/2000/svg">
<path fill-rule="evenodd" clip-rule="evenodd" d="M12.6687 4.52271C12.6687 3.07358 13.9078 1.61614 15.5835 2.04274C19.3685 3.00633 22.1687 6.43657 22.1687 10.5227C22.1687 11.6817 21.943 12.7898 21.5324 13.8041C21.4177 14.0873 21.1427 14.2727 20.8372 14.2727C20.5316 14.2727 20.2566 14.0873 20.142 13.8041C19.5896 12.4395 18.64 11.0379 17.4461 9.98602C16.4601 9.11727 15.3415 8.51523 14.1687 8.33162V17.5227C14.1687 20.6983 11.5943 23.2727 8.4187 23.2727C5.24306 23.2727 2.6687 20.6983 2.6687 17.5227C2.6687 14.3471 5.24306 11.7727 8.4187 11.7727C10.1024 11.7727 11.6171 12.4964 12.6687 13.6497V4.52271Z" fill="#888888"/>
</svg>
