<svg width="25" height="25" viewBox="0 0 25 25" fill="none" xmlns="http://www.w3.org/2000/svg">
<path fill-rule="evenodd" clip-rule="evenodd" d="M2.16235 9.66223V18.1622C2.16235 20.3714 3.95321 22.1622 6.16235 22.1622H18.1624C20.3715 22.1622 22.1624 20.3714 22.1624 18.1622V9.66223H2.16235ZM2.16235 8.16223H22.1624V6.16223C22.1624 3.95309 20.3715 2.16223 18.1624 2.16223H6.16235C3.95321 2.16223 2.16235 3.95309 2.16235 6.16223V8.16223ZM19.1624 5.16223C19.1624 5.71452 18.7146 6.16223 18.1624 6.16223C17.6101 6.16223 17.1624 5.71452 17.1624 5.16223C17.1624 4.60995 17.6101 4.16223 18.1624 4.16223C18.7146 4.16223 19.1624 4.60995 19.1624 5.16223ZM14.1624 6.16223C14.7146 6.16223 15.1624 5.71452 15.1624 5.16223C15.1624 4.60995 14.7146 4.16223 14.1624 4.16223C13.6101 4.16223 13.1624 4.60995 13.1624 5.16223C13.1624 5.71452 13.6101 6.16223 14.1624 6.16223Z" fill="#D1D1D1"/>
</svg>
