<svg width="24" height="24" viewBox="0 0 24 24" fill="none" xmlns="http://www.w3.org/2000/svg">
<path d="M11.7998 4.40338C13.1183 3.41498 15 4.35565 15 6.00299V17.9971C15 19.6445 13.1183 20.5851 11.7998 19.5967L7.5332 16.3975C7.18723 16.1382 6.76633 15.9982 6.33398 15.9981H4C2.89543 15.9981 2 15.1032 2 13.9991V10.001C2 8.89697 2.89543 8.00202 4 8.00202H6.33398C6.76633 8.00193 7.18723 7.86189 7.5332 7.6026L11.7998 4.40338ZM16.5146 6.95123C16.597 6.5453 16.9935 6.2829 17.3994 6.3653C20.0242 6.89821 22 9.21747 22 12.0001C22 14.7827 20.0242 17.1019 17.3994 17.6348C16.9935 17.7172 16.597 17.4548 16.5146 17.0489C16.4325 16.6432 16.6949 16.2476 17.1006 16.1651C19.0402 15.7714 20.5 14.0553 20.5 12.0001C20.5 9.94482 19.0402 8.22874 17.1006 7.83502C16.6949 7.75255 16.4325 7.35694 16.5146 6.95123ZM16.6006 9.89166C16.808 9.53327 17.2675 9.41086 17.626 9.61823C18.4459 10.0926 19 10.9813 19 12.0001C19 13.0188 18.4459 13.9075 17.626 14.3819C17.2675 14.5893 16.8081 14.4668 16.6006 14.1085C16.3932 13.75 16.5157 13.2905 16.874 13.0831C17.2496 12.8658 17.5 12.4618 17.5 12.0001C17.5 11.5383 17.2496 11.1343 16.874 10.9171C16.5157 10.7096 16.3932 10.2501 16.6006 9.89166Z" fill="#D1D1D1"/>
</svg>
