<svg width="25" height="25" viewBox="0 0 25 25" fill="none" xmlns="http://www.w3.org/2000/svg">
<path d="M12.698 2.33118C18.0828 2.33118 22.448 6.6964 22.448 12.0812V18.0812C22.448 20.1522 20.7691 21.8312 18.698 21.8312C16.6269 21.8312 14.948 20.1522 14.948 18.0812V16.0812C14.948 14.0101 16.6269 12.3312 18.698 12.3312C19.5421 12.3312 20.3213 12.6096 20.948 13.0802V12.0812C20.948 7.52483 17.2543 3.83118 12.698 3.83118C8.14165 3.83118 4.448 7.52483 4.448 12.0812V13.0802C5.07469 12.6096 5.85395 12.3312 6.698 12.3312C8.76907 12.3312 10.448 14.0101 10.448 16.0812V18.0812C10.448 20.1522 8.76907 21.8312 6.698 21.8312C4.62693 21.8312 2.948 20.1522 2.948 18.0812V12.0812C2.948 6.6964 7.31322 2.33118 12.698 2.33118Z" fill="#888888"/>
</svg>
