<svg width="25" height="25" viewBox="0 0 25 25" fill="none" xmlns="http://www.w3.org/2000/svg">
<path fill-rule="evenodd" clip-rule="evenodd" d="M8.77271 2.44141C8.77271 2.02719 8.43692 1.69141 8.02271 1.69141C7.60849 1.69141 7.27271 2.02719 7.27271 2.44141V3.94141H7.02271C4.81357 3.94141 3.02271 5.73227 3.02271 7.94141V8.69141H21.0227V7.94141C21.0227 5.73227 19.2318 3.94141 17.0227 3.94141H16.7727V2.44141C16.7727 2.02719 16.4369 1.69141 16.0227 1.69141C15.6085 1.69141 15.2727 2.02719 15.2727 2.44141V3.94141H8.77271V2.44141ZM3.02271 10.1914H21.0227V18.4414C21.0227 20.6505 19.2318 22.4414 17.0227 22.4414H7.0227C4.81357 22.4414 3.02271 20.6505 3.02271 18.4414V10.1914Z" fill="#D1D1D1"/>
</svg>
