<svg width="24" height="24" viewBox="0 0 24 24" fill="none" xmlns="http://www.w3.org/2000/svg">
<path d="M1.46967 1.46967C1.76256 1.17678 2.23732 1.17678 2.53022 1.46967L22.5302 21.4697C22.8231 21.7626 22.8231 22.2373 22.5302 22.5302C22.2373 22.8231 21.7626 22.8231 21.4697 22.5302L20.0654 21.1259C19.4731 21.5189 18.7642 21.7499 17.9999 21.7499C15.9289 21.7499 14.2499 20.071 14.2499 17.9999V15.9999C14.2499 15.7835 14.2695 15.5716 14.3046 15.3652L5.66205 6.7226C4.46912 8.15286 3.74994 9.99178 3.74994 11.9999V12.999C4.37663 12.5284 5.15589 12.2499 5.99994 12.2499C8.07101 12.2499 9.74994 13.9289 9.74994 15.9999V17.9999C9.74994 20.071 8.07101 21.7499 5.99994 21.7499C3.92887 21.7499 2.24994 20.071 2.24994 17.9999V11.9999C2.24994 9.57747 3.13498 7.36295 4.5976 5.65815L1.46967 2.53022C1.17678 2.23732 1.17678 1.76256 1.46967 1.46967ZM11.9999 2.24994C17.3847 2.24994 21.7499 6.61517 21.7499 11.9999V17.9999C21.7499 18.2164 21.7305 18.4283 21.6953 18.6347L15.9316 12.871C16.5244 12.4783 17.2356 12.2499 17.9999 12.2499C18.844 12.2499 19.6233 12.5284 20.2499 12.999V11.9999C20.2499 7.44359 16.5563 3.74994 11.9999 3.74994C10.5077 3.74994 9.10902 4.14785 7.90131 4.84076L6.80854 3.74799C8.31198 2.80016 10.0913 2.24994 11.9999 2.24994Z" fill="#D1D1D1"/>
</svg>
