<svg width="25" height="25" viewBox="0 0 25 25" fill="none" xmlns="http://www.w3.org/2000/svg">
<path d="M1.88837 1.55085C2.18126 1.25795 2.65602 1.25795 2.94892 1.55085L22.9489 21.5508C23.2418 21.8437 23.2418 22.3185 22.9489 22.6114C22.656 22.9043 22.1813 22.9043 21.8884 22.6114L20.4841 21.2071C19.8918 21.6 19.1829 21.8311 18.4186 21.8311C16.3476 21.8311 14.6686 20.1522 14.6686 18.0811V16.0811C14.6686 15.8647 14.6882 15.6528 14.7233 15.4464L6.08075 6.80378C4.88782 8.23404 4.16864 10.073 4.16864 12.0811V13.0801C4.79533 12.6095 5.57459 12.3311 6.41864 12.3311C8.48971 12.3311 10.1686 14.0101 10.1686 16.0811V18.0811C10.1686 20.1522 8.48971 21.8311 6.41864 21.8311C4.34758 21.8311 2.66864 20.1522 2.66864 18.0811V12.0811C2.66864 9.65865 3.55368 7.44413 5.0163 5.73932L1.88837 2.61139C1.59548 2.3185 1.59548 1.84374 1.88837 1.55085ZM12.4186 2.33112C17.8034 2.33112 22.1686 6.69634 22.1686 12.0811V18.0811C22.1686 18.2975 22.1492 18.5095 22.114 18.7159L16.3503 12.9522C16.9431 12.5595 17.6543 12.3311 18.4186 12.3311C19.2627 12.3311 20.042 12.6095 20.6686 13.0801V12.0811C20.6686 7.52477 16.975 3.83112 12.4186 3.83112C10.9264 3.83112 9.52772 4.22903 8.32001 4.92194L7.22724 3.82917C8.73068 2.88134 10.51 2.33112 12.4186 2.33112Z" fill="#888888"/>
</svg>
