<svg width="25" height="25" viewBox="0 0 25 25" fill="none" xmlns="http://www.w3.org/2000/svg">
<path d="M12.7211 3.66238C17.9677 3.66253 22.2211 7.91577 22.2211 13.1624C22.2211 15.39 21.4543 17.4389 20.1704 19.0589L22.3032 21.6897C22.564 22.0115 22.5146 22.4836 22.1928 22.7444C21.8711 23.0052 21.399 22.9566 21.1381 22.635L19.1381 20.1673C17.4478 21.7166 15.1948 22.6623 12.7211 22.6624C10.2473 22.6624 7.9936 21.7167 6.30317 20.1673L4.30317 22.6341C4.04233 22.9558 3.57025 23.0053 3.24849 22.7444C2.92693 22.4835 2.87735 22.0114 3.13814 21.6897L5.27192 19.0589C3.988 17.4389 3.22118 15.39 3.22114 13.1624C3.22114 7.91567 7.47444 3.66238 12.7211 3.66238ZM12.7211 7.41238C12.3069 7.41238 11.9711 7.74816 11.9711 8.16238V13.1624C11.9712 13.4131 12.0965 13.6473 12.3051 13.7864L15.3051 15.7864C15.6497 16.0159 16.1155 15.9229 16.3452 15.5784C16.5748 15.2339 16.4815 14.7682 16.1372 14.5384L13.4711 12.761V8.16238C13.4711 7.74828 13.1352 7.41257 12.7211 7.41238ZM7.61665 1.47488C7.99616 1.30892 8.43897 1.48208 8.60493 1.8616C8.77079 2.24097 8.59744 2.68282 8.21821 2.8489C6.22787 3.71926 4.53641 5.15003 3.34517 6.94167C3.11585 7.28655 2.65102 7.37989 2.3061 7.15066C1.96127 6.92138 1.86704 6.4565 2.09614 6.1116C3.44511 4.08273 5.35999 2.46174 7.61665 1.47488ZM16.8374 1.8616C17.0033 1.48223 17.4452 1.30905 17.8247 1.47488C20.0814 2.46174 21.9962 4.08267 23.3452 6.1116C23.5744 6.45643 23.4809 6.92128 23.1362 7.15066C22.7913 7.38 22.3255 7.2866 22.0961 6.94167C20.9049 5.15013 19.2143 3.71924 17.2241 2.8489C16.8446 2.68294 16.6714 2.24111 16.8374 1.8616Z" fill="#D1D1D1"/>
</svg>
