<svg width="25" height="25" viewBox="0 0 25 25" fill="none" xmlns="http://www.w3.org/2000/svg">
<path d="M4.4707 2.60376C4.88492 2.60376 5.2207 2.93955 5.2207 3.35376V8.70728C6.37496 9.03374 7.2207 10.095 7.2207 11.3538V13.3538C7.2207 14.6125 6.37496 15.6738 5.2207 16.0002V21.3538C5.2207 21.768 4.88492 22.1038 4.4707 22.1038C4.05649 22.1038 3.7207 21.768 3.7207 21.3538V16.0002C2.56645 15.6738 1.7207 14.6125 1.7207 13.3538V11.3538C1.7207 10.095 2.56645 9.03374 3.7207 8.70728V3.35376C3.7207 2.93955 4.05649 2.60376 4.4707 2.60376ZM12.4707 13.6038C12.8849 13.6038 13.2207 13.9395 13.2207 14.3538V21.3538C13.2207 21.768 12.8849 22.1038 12.4707 22.1038C12.0565 22.1038 11.7207 21.768 11.7207 21.3538V14.3538C11.7207 13.9395 12.0565 13.6038 12.4707 13.6038ZM20.4707 12.6038C21.9895 12.6038 23.2207 13.835 23.2207 15.3538V17.3538C23.2207 18.6125 22.375 19.6738 21.2207 20.0002V21.3538C21.2207 21.768 20.8849 22.1038 20.4707 22.1038C20.0565 22.1038 19.7207 21.768 19.7207 21.3538V20.0002C18.5665 19.6738 17.7207 18.6125 17.7207 17.3538V15.3538C17.7207 13.835 18.9519 12.6038 20.4707 12.6038ZM12.4707 2.60376C12.8849 2.60376 13.2207 2.93955 13.2207 3.35376V4.70728C14.375 5.03374 15.2207 6.09498 15.2207 7.35376V9.35376C15.2207 10.8725 13.9895 12.1038 12.4707 12.1038C10.9519 12.1038 9.7207 10.8725 9.7207 9.35376V7.35376C9.7207 6.09498 10.5665 5.03374 11.7207 4.70728V3.35376C11.7207 2.93955 12.0565 2.60376 12.4707 2.60376ZM20.4707 2.60376C20.8849 2.60376 21.2207 2.93955 21.2207 3.35376V10.3538C21.2207 10.768 20.8849 11.1038 20.4707 11.1038C20.0565 11.1038 19.7207 10.768 19.7207 10.3538V3.35376C19.7207 2.93955 20.0565 2.60376 20.4707 2.60376Z" fill="#D1D1D1"/>
</svg>
