<svg width="25" height="25" viewBox="0 0 25 25" fill="none" xmlns="http://www.w3.org/2000/svg">
<path fill-rule="evenodd" clip-rule="evenodd" d="M22.1396 12.4414C22.1396 17.9643 17.6625 22.4414 12.1396 22.4414C6.6168 22.4414 2.13965 17.9643 2.13965 12.4414C2.13965 6.91856 6.6168 2.44141 12.1396 2.44141C17.6625 2.44141 22.1396 6.91856 22.1396 12.4414ZM15.4984 15.8001C15.2055 16.093 14.7307 16.093 14.4378 15.8001L12.1397 13.502L9.84155 15.8001C9.54866 16.093 9.07378 16.093 8.78089 15.8001C8.488 15.5072 8.488 15.0323 8.78089 14.7395L11.079 12.4413L8.7809 10.1433C8.48801 9.85036 8.48801 9.37548 8.7809 9.08259C9.0738 8.7897 9.54867 8.7897 9.84156 9.08259L12.1397 11.3807L14.4377 9.0826C14.7306 8.78971 15.2055 8.78971 15.4984 9.0826C15.7913 9.37549 15.7913 9.85037 15.4984 10.1433L13.2003 12.4413L15.4984 14.7394C15.7913 15.0323 15.7913 15.5072 15.4984 15.8001Z" fill="#D1D1D1"/>
</svg>
