<svg width="25" height="25" viewBox="0 0 25 25" fill="none" xmlns="http://www.w3.org/2000/svg">
<path fill-rule="evenodd" clip-rule="evenodd" d="M12.4414 22.4414C17.9643 22.4414 22.4414 17.9643 22.4414 12.4414C22.4414 6.91856 17.9643 2.44141 12.4414 2.44141C6.91856 2.44141 2.44141 6.91856 2.44141 12.4414C2.44141 17.9643 6.91856 22.4414 12.4414 22.4414ZM13.1914 8.44141C13.1914 8.02719 12.8556 7.69141 12.4414 7.69141C12.0272 7.69141 11.6914 8.02719 11.6914 8.44141V9.44141C11.6914 9.85562 12.0272 10.1914 12.4414 10.1914C12.8556 10.1914 13.1914 9.85562 13.1914 9.44141V8.44141ZM13.1914 11.9414C13.1914 11.5272 12.8556 11.1914 12.4414 11.1914C12.0272 11.1914 11.6914 11.5272 11.6914 11.9414V16.4414C11.6914 16.8556 12.0272 17.1914 12.4414 17.1914C12.8556 17.1914 13.1914 16.8556 13.1914 16.4414V11.9414Z" fill="#D1D1D1"/>
</svg>
