<svg width="25" height="25" viewBox="0 0 25 25" fill="none" xmlns="http://www.w3.org/2000/svg">
<path d="M12.1394 2.40576C17.6623 2.40576 22.1394 6.88291 22.1394 12.4058C22.1394 17.9286 17.6623 22.4058 12.1394 22.4058C6.61656 22.4058 2.1394 17.9286 2.1394 12.4058C2.1394 6.88291 6.61656 2.40576 12.1394 2.40576ZM16.1423 15.5581C12.6308 13.774 8.69284 14.1136 6.78784 14.5884L6.42358 14.688C6.02722 14.8071 5.80193 15.2251 5.92065 15.6216C6.03237 15.9931 6.40703 16.2147 6.78003 16.1431L6.85522 16.1245C8.36034 15.6731 12.1667 15.2239 15.4587 16.894L15.7751 17.062L15.8445 17.0962C16.1933 17.2457 16.606 17.1096 16.7947 16.771C16.9832 16.4317 16.8807 16.0088 16.5691 15.7915L16.5037 15.7505L16.1423 15.5581ZM11.1882 11.2192C9.41558 11.1629 7.80883 11.3509 6.81226 11.5854L6.42358 11.688C6.02722 11.8071 5.80193 12.2251 5.92065 12.6216C6.03236 12.9931 6.40703 13.2147 6.78003 13.1431L6.85522 13.1245C7.59267 12.9034 9.23322 12.6577 11.1404 12.7183C12.9272 12.7751 14.8627 13.0984 16.4607 13.896L16.7751 14.062L16.8445 14.0962C17.1933 14.2457 17.606 14.1097 17.7947 13.771C17.9832 13.4317 17.8807 13.0088 17.5691 12.7915L17.5037 12.7505L17.1345 12.5562C15.2665 11.6228 13.089 11.2797 11.1882 11.2192ZM11.7683 8.03271C9.47728 7.90477 7.25413 8.15325 5.86108 8.71045C5.47661 8.86434 5.2893 9.30053 5.44312 9.68506C5.5971 10.0691 6.03345 10.2564 6.41772 10.103C7.5246 9.66028 9.5015 9.40778 11.6853 9.52979C13.7232 9.64366 15.8286 10.0781 17.4558 10.894L17.7751 11.062L17.8445 11.0962C18.1933 11.2457 18.606 11.1096 18.7947 10.771C18.9832 10.4317 18.8807 10.0088 18.5691 9.7915L18.5037 9.75049L18.1345 9.55615C16.2572 8.61335 13.9256 8.15324 11.7683 8.03271Z" fill="#888888"/>
</svg>
