<svg width="24" height="24" viewBox="0 0 24 24" fill="none" xmlns="http://www.w3.org/2000/svg">
<path d="M3 6.25C3.41421 6.25 3.75 6.58579 3.75 7V10.4375C3.82508 10.378 3.90583 10.3228 3.99219 10.2725L10.0234 6.75488C11.3567 5.97725 13.0312 6.93889 13.0312 8.48242V9.66699L18.0234 6.75488C19.3567 5.97725 21.0312 6.93889 21.0312 8.48242V15.5176C21.0312 17.0611 19.3567 18.0227 18.0234 17.2451L13.0312 14.333V15.5176C13.0312 17.0611 11.3567 18.0227 10.0234 17.2451L3.99219 13.7275C3.90565 13.6771 3.82522 13.6211 3.75 13.5615V17C3.75 17.4142 3.41421 17.75 3 17.75C2.58579 17.75 2.25 17.4142 2.25 17V7C2.25 6.58579 2.58579 6.25 3 6.25Z" fill="#D1D1D1"/>
</svg>
