<svg width="25" height="25" viewBox="0 0 25 25" fill="none" xmlns="http://www.w3.org/2000/svg">
<path fill-rule="evenodd" clip-rule="evenodd" d="M22.2791 12.1981C22.2791 17.721 17.8019 22.1981 12.2791 22.1981C6.75621 22.1981 2.27905 17.721 2.27905 12.1981C2.27905 6.67527 6.75621 2.19812 12.2791 2.19812C17.8019 2.19812 22.2791 6.67527 22.2791 12.1981ZM12.2791 7.94812C11.5887 7.94812 11.0291 8.50776 11.0291 9.19812C11.0291 9.61233 10.6933 9.94812 10.2791 9.94812C9.86484 9.94812 9.52905 9.61233 9.52905 9.19812C9.52905 7.67934 10.7603 6.44812 12.2791 6.44812C13.7978 6.44812 15.0291 7.67934 15.0291 9.19812C15.0291 9.74446 14.869 10.2557 14.5929 10.6848C14.4199 10.9535 14.2178 11.2101 14.0313 11.4418L13.9308 11.5664C13.7761 11.7578 13.6341 11.9336 13.5029 12.1139C13.1793 12.5586 13.0291 12.8928 13.0291 13.1981V13.6981C13.0291 14.1123 12.6933 14.4481 12.2791 14.4481C11.8648 14.4481 11.5291 14.1123 11.5291 13.6981V13.1981C11.5291 12.3989 11.9215 11.7379 12.29 11.2314C12.4457 11.0173 12.6164 10.8063 12.7716 10.6143L12.8627 10.5014C13.0479 10.2713 13.2055 10.0688 13.3315 9.87307C13.4565 9.6788 13.5291 9.44808 13.5291 9.19812C13.5291 8.50776 12.9694 7.94812 12.2791 7.94812ZM13.0291 16.1981C13.0291 15.7839 12.6933 15.4481 12.2791 15.4481C11.8648 15.4481 11.5291 15.7839 11.5291 16.1981V17.1981C11.5291 17.6123 11.8648 17.9481 12.2791 17.9481C12.6933 17.9481 13.0291 17.6123 13.0291 17.1981V16.1981Z" fill="#888888"/>
</svg>
