<svg width="21" height="21" viewBox="0 0 21 21" fill="none" xmlns="http://www.w3.org/2000/svg">
<path fill-rule="evenodd" clip-rule="evenodd" d="M14.8783 20.1528H6.51765C4.2089 20.1528 2.3373 18.3668 2.3373 16.1636V11.2858C2.3373 10.5776 2.04247 9.89839 1.51769 9.3976C0.301803 8.2373 0.459868 6.31485 1.8505 5.34972L8.23923 0.915797C9.70508 -0.10153 11.6909 -0.10153 13.1568 0.915797L19.5455 5.34972C20.9361 6.31485 21.0942 8.2373 19.8783 9.3976C19.3535 9.89839 19.0587 10.5776 19.0587 11.2858V16.1636C19.0587 18.3668 17.1871 20.1528 14.8783 20.1528ZM8.698 15.4028C8.28378 15.4028 7.948 15.7386 7.948 16.1528C7.948 16.567 8.28378 16.9028 8.698 16.9028H12.698C13.1122 16.9028 13.448 16.567 13.448 16.1528C13.448 15.7386 13.1122 15.4028 12.698 15.4028H8.698Z" fill="#888888"/>
</svg>
