<svg width="25" height="24" viewBox="0 0 25 24" fill="none" xmlns="http://www.w3.org/2000/svg">
<path d="M14.5305 3C16.46 3.00002 17.6619 5.09313 16.6897 6.75977L15.3831 9H20.3215C21.6227 9.00001 22.5775 10.2231 22.262 11.4854L20.6409 17.9697C20.1957 19.7504 18.5955 21 16.76 21H13.594C12.8044 21 12.0323 20.7661 11.3752 20.3281L9.82837 19.2969C9.55018 19.1114 9.38307 18.7992 9.38306 18.4648V10.2656C9.38306 10.0916 9.42857 9.92062 9.51489 9.76953L13.3831 3H14.5305ZM5.88306 9C6.98763 9 7.88306 9.89543 7.88306 11V18C7.88306 19.1046 6.98763 20 5.88306 20H4.88306C3.77849 20 2.88306 19.1046 2.88306 18V11C2.88306 9.89543 3.77849 9 4.88306 9H5.88306Z" fill="#D1D1D1"/>
</svg>
