<svg width="24" height="24" viewBox="0 0 24 24" fill="none" xmlns="http://www.w3.org/2000/svg">
<path d="M11.7998 4.40338C13.1183 3.41498 15 4.35565 15 6.00299V17.9971C15 19.6445 13.1183 20.5851 11.7998 19.5967L7.5332 16.3975C7.18723 16.1382 6.76633 15.9982 6.33398 15.9981H4C2.89543 15.9981 2 15.1032 2 13.9991V10.001C2 8.89697 2.89543 8.00202 4 8.00202H6.33398C6.76633 8.00193 7.18723 7.86189 7.5332 7.6026L11.7998 4.40338ZM20.5 9.43952C20.7929 9.14662 21.2677 9.14662 21.5605 9.43952C21.8534 9.73241 21.8534 10.2072 21.5605 10.5001L20.0908 11.9698L21.5605 13.4395C21.8534 13.7324 21.8534 14.2072 21.5605 14.5001C21.2677 14.793 20.7929 14.793 20.5 14.5001L19.0303 13.0303L17.5605 14.5001C17.2677 14.793 16.7929 14.793 16.5 14.5001C16.2071 14.2072 16.2071 13.7324 16.5 13.4395L17.9697 11.9698L16.5 10.5001C16.2071 10.2072 16.2071 9.73241 16.5 9.43952C16.7929 9.14662 17.2677 9.14662 17.5605 9.43952L19.0303 10.9092L20.5 9.43952Z" fill="#D1D1D1"/>
</svg>
