<svg width="21" height="18" viewBox="0 0 21 18" fill="none" xmlns="http://www.w3.org/2000/svg">
<path fill-rule="evenodd" clip-rule="evenodd" d="M1.60907 1.40387C1.31618 1.11097 1.31618 0.636098 1.60907 0.343205C1.90197 0.0503118 2.37684 0.0503118 2.66973 0.343205L18.6697 16.3432C18.9626 16.6361 18.9626 17.111 18.6697 17.4039C18.3768 17.6968 17.902 17.6968 17.6091 17.4039L14.7823 14.5771C13.3731 15.3444 11.7994 15.8735 10.1394 15.8735C6.32389 15.8735 2.9649 13.0782 1.00911 11.0204C-0.150498 9.80036 -0.150497 7.94671 1.00911 6.72663C1.83893 5.85354 2.92136 4.84768 4.18409 3.97888L1.60907 1.40387ZM7.55477 7.34956C7.29085 7.7962 7.1394 8.31718 7.1394 8.87354C7.1394 10.5304 8.48255 11.8735 10.1394 11.8735C10.6958 11.8735 11.2167 11.7221 11.6634 11.4582L7.55477 7.34956ZM10.1394 1.87354C13.9549 1.87354 17.3139 4.66887 19.2697 6.72663C20.4293 7.94671 20.4293 9.80036 19.2697 11.0204C18.8296 11.4834 18.3185 11.9838 17.7472 12.4812L7.5521 2.28617C8.38158 2.0261 9.24803 1.87354 10.1394 1.87354Z" fill="#888888"/>
</svg>
