<svg width="24" height="24" viewBox="0 0 24 24" fill="none" xmlns="http://www.w3.org/2000/svg">
<path d="M3.46967 3.46967C3.76256 3.17678 4.23732 3.17678 4.53022 3.46967L20.5302 19.4697C20.8231 19.7626 20.8231 20.2373 20.5302 20.5302C20.2373 20.8231 19.7626 20.8231 19.4697 20.5302L16.997 18.0576C16.9516 19.6672 15.102 20.5729 13.7997 19.5966L9.53315 16.3974C9.18718 16.1381 8.76626 15.9981 8.33393 15.998H5.99994C4.89537 15.998 3.99994 15.103 3.99994 13.999V10.0009C3.99998 8.89688 4.89539 8.0019 5.99994 8.0019H6.94135L3.46967 4.53022C3.17678 4.23732 3.17678 3.76256 3.46967 3.46967ZM13.7997 4.40326C15.1182 3.41491 16.9999 4.35558 16.9999 6.00287V13.9394L10.1787 7.11811L13.7997 4.40326Z" fill="#D1D1D1"/>
</svg>
