<svg width="25" height="25" viewBox="0 0 25 25" fill="none" xmlns="http://www.w3.org/2000/svg">
<path d="M19.4187 7.1528V18.1528C19.4187 20.3619 17.6278 22.1528 15.4187 22.1528H9.4187C7.20956 22.1528 5.4187 20.3619 5.4187 18.1528V7.1528H19.4187ZM10.4187 10.4028C10.0045 10.4028 9.6687 10.7386 9.6687 11.1528V18.1528C9.6687 18.567 10.0045 18.9028 10.4187 18.9028C10.8329 18.9028 11.1687 18.567 11.1687 18.1528V11.1528C11.1687 10.7386 10.8329 10.4028 10.4187 10.4028ZM14.4187 10.4028C14.0045 10.4028 13.6687 10.7386 13.6687 11.1528V18.1528C13.6687 18.567 14.0045 18.9028 14.4187 18.9028C14.8329 18.9028 15.1687 18.567 15.1687 18.1528V11.1528C15.1687 10.7386 14.8329 10.4028 14.4187 10.4028ZM13.3484 2.1528C14.0171 2.15282 14.6415 2.48704 15.0125 3.04343L15.9187 4.4028H19.6687C20.0829 4.4028 20.4187 4.73859 20.4187 5.1528C20.4187 5.56702 20.0829 5.9028 19.6687 5.9028H5.1687C4.75449 5.9028 4.4187 5.56702 4.4187 5.1528C4.4187 4.73859 4.75449 4.4028 5.1687 4.4028H8.9187L9.82495 3.04343C10.1959 2.48704 10.8203 2.15282 11.489 2.1528H13.3484Z" fill="#888888"/>
</svg>
