<svg width="25" height="25" viewBox="0 0 25 25" fill="none" xmlns="http://www.w3.org/2000/svg">
<path d="M12.5811 2.40576C18.1039 2.40576 22.5811 6.88291 22.5811 12.4058C22.5811 17.9286 18.1039 22.4058 12.5811 22.4058C11.0535 22.4058 9.60552 22.0631 8.31055 21.4507L3.95605 22.1763C3.28107 22.2888 2.6942 21.7053 2.80371 21.0298L3.5166 16.6353C2.9163 15.3508 2.58105 13.9172 2.58105 12.4058C2.58105 6.88292 7.05822 2.40578 12.5811 2.40576ZM9.46973 8.40576C8.97898 8.40588 8.58117 8.80369 8.58105 9.29443C8.58105 13.2218 11.765 16.4058 15.6924 16.4058C16.1831 16.4056 16.5809 16.0078 16.5811 15.5171V15.0806C16.581 14.5388 16.2511 14.0513 15.748 13.8501L15.2812 13.6636C14.7598 13.4552 14.1653 13.6809 13.9141 14.1831C13.8902 14.1782 12.7932 13.9519 11.9141 13.0728C11.0349 12.1936 10.8086 11.0966 10.8037 11.0728C11.3059 10.8215 11.5316 10.227 11.3232 9.70557L11.1367 9.23877C10.9355 8.73572 10.448 8.4058 9.90625 8.40576H9.46973Z" fill="#888888"/>
</svg>
