<svg width="25" height="25" viewBox="0 0 25 25" fill="none" xmlns="http://www.w3.org/2000/svg">
<path d="M12.8604 3.24341C17.8309 3.24341 21.8604 7.27285 21.8604 12.2434C21.8604 17.214 17.8309 21.2434 12.8604 21.2434C7.88979 21.2434 3.86035 17.214 3.86035 12.2434C3.86035 7.27285 7.88979 3.24341 12.8604 3.24341ZM16.3252 6.99341C15.911 6.99342 15.5752 7.3292 15.5752 7.74341V8.34497C14.806 7.80833 13.8701 7.49341 12.8604 7.49341C10.237 7.49341 8.11035 9.62006 8.11035 12.2434C8.11035 14.8668 10.237 16.9934 12.8604 16.9934C15.0747 16.9934 16.9337 15.4785 17.4609 13.4299C17.5639 13.0289 17.3219 12.6201 16.9209 12.5168C16.5199 12.4139 16.111 12.6559 16.0078 13.0569C15.6468 14.4586 14.3735 15.4934 12.8604 15.4934C11.0654 15.4934 9.61035 14.0383 9.61035 12.2434C9.61035 10.4485 11.0654 8.99341 12.8604 8.99341C13.6834 8.99341 14.4356 9.29961 15.0088 9.80493L14.1758 10.0168C13.7745 10.119 13.5318 10.5267 13.6338 10.928C13.7359 11.3293 14.1436 11.5719 14.5449 11.47L16.5098 10.97C16.8421 10.8854 17.0752 10.5864 17.0752 10.2434V7.74341C17.0752 7.32919 16.7394 6.99341 16.3252 6.99341Z" fill="#888888"/>
</svg>
