<svg width="24" height="25" viewBox="0 0 24 25" fill="none" xmlns="http://www.w3.org/2000/svg">
<path fill-rule="evenodd" clip-rule="evenodd" d="M19 17.8829C20.6569 17.8829 22 16.5398 22 14.8829L22 5.88294C22 4.22608 20.6569 2.88293 19 2.88293H5C3.34315 2.88293 2 4.22608 2 5.88293V14.8829C2 16.5398 3.34314 17.8829 5 17.8829H6.52542L4.35687 21.4972C4.14376 21.8524 4.25893 22.3131 4.61412 22.5262C4.9693 22.7393 5.43 22.6241 5.64311 22.2689L8.2747 17.8829L11.25 17.8829V19.883C11.25 20.2973 11.5858 20.633 12 20.633C12.4142 20.633 12.75 20.2973 12.75 19.883V17.8829L15.7253 17.8829L18.3569 22.2689C18.57 22.6241 19.0307 22.7393 19.3859 22.5262C19.741 22.3131 19.8562 21.8524 19.6431 21.4972L17.4746 17.8829H19ZM6.25 7.88293C6.25 7.46872 6.58579 7.13293 7 7.13293H17C17.4142 7.13293 17.75 7.46872 17.75 7.88293C17.75 8.29715 17.4142 8.63293 17 8.63293H7C6.58579 8.63293 6.25 8.29715 6.25 7.88293ZM7 12.1329C6.58579 12.1329 6.25 12.4687 6.25 12.8829C6.25 13.2971 6.58579 13.6329 7 13.6329H12C12.4142 13.6329 12.75 13.2971 12.75 12.8829C12.75 12.4687 12.4142 12.1329 12 12.1329H7Z" fill="#D1D1D1"/>
</svg>
