<svg width="24" height="24" viewBox="0 0 24 24" fill="none" xmlns="http://www.w3.org/2000/svg">
<path d="M18 2C20.2091 2 22 3.79086 22 6V18C22 20.2091 20.2091 22 18 22H6C3.79086 22 2 20.2091 2 18V6C2 3.79086 3.79086 2 6 2H18ZM7 12.25C6.58579 12.25 6.25 12.5858 6.25 13C6.25 13.4142 6.58579 13.75 7 13.75H9.18945L6.46973 16.4697C6.17683 16.7626 6.17683 17.2374 6.46973 17.5303C6.76262 17.8232 7.23738 17.8232 7.53027 17.5303L10.25 14.8105V17C10.25 17.4142 10.5858 17.75 11 17.75C11.4142 17.75 11.75 17.4142 11.75 17V13C11.75 12.5858 11.4142 12.25 11 12.25H7ZM17.5303 6.46973C17.2374 6.17683 16.7626 6.17683 16.4697 6.46973L13.75 9.18945V7C13.75 6.58579 13.4142 6.25 13 6.25C12.5858 6.25 12.25 6.58579 12.25 7V11C12.25 11.4142 12.5858 11.75 13 11.75H17C17.4142 11.75 17.75 11.4142 17.75 11C17.75 10.5858 17.4142 10.25 17 10.25H14.8105L17.5303 7.53027C17.8232 7.23738 17.8232 6.76262 17.5303 6.46973Z" fill="#D1D1D1"/>
</svg>
