<svg width="21" height="15" viewBox="0 0 21 15" fill="none" xmlns="http://www.w3.org/2000/svg">
<path fill-rule="evenodd" clip-rule="evenodd" d="M19.549 10.0204C20.7086 8.80036 20.7086 6.94671 19.549 5.72663C17.5932 3.66887 14.2342 0.873535 10.4187 0.873535C6.60319 0.873535 3.24419 3.66887 1.28841 5.72663C0.128799 6.94671 0.1288 8.80036 1.28841 10.0204C3.24419 12.0782 6.60319 14.8735 10.4187 14.8735C14.2342 14.8735 17.5932 12.0782 19.549 10.0204ZM10.4187 10.8735C12.0756 10.8735 13.4187 9.53039 13.4187 7.87354C13.4187 6.21668 12.0756 4.87354 10.4187 4.87354C8.76185 4.87354 7.4187 6.21668 7.4187 7.87354C7.4187 9.53039 8.76185 10.8735 10.4187 10.8735Z" fill="#888888"/>
</svg>
