<svg width="24" height="24" viewBox="0 0 24 24" fill="none" xmlns="http://www.w3.org/2000/svg">
<path d="M5.99984 5.25C6.41405 5.25 6.74984 5.58579 6.74984 6V16.9902C6.81544 16.9409 6.87754 16.8843 6.93441 16.8203L8.43929 15.127C8.71444 14.8174 9.1883 14.7894 9.49789 15.0645C9.80743 15.3396 9.83546 15.8135 9.56039 16.123L8.0555 17.8164C7.54397 18.3919 6.85086 18.6981 6.14632 18.7354C6.09902 18.7447 6.04988 18.75 5.99984 18.75C5.94979 18.75 5.90065 18.7447 5.85335 18.7354C5.14882 18.6981 4.45571 18.3919 3.94417 17.8164L2.43929 16.123C2.16423 15.8135 2.19225 15.3396 2.50179 15.0645C2.81138 14.7894 3.28523 14.8174 3.56039 15.127L5.06527 16.8203C5.12213 16.8843 5.18424 16.9409 5.24984 16.9902V6C5.24984 5.58579 5.58562 5.25 5.99984 5.25ZM14.9998 17.25C15.4141 17.25 15.7498 17.5858 15.7498 18C15.7498 18.4142 15.4141 18.75 14.9998 18.75H11.9998C11.5856 18.75 11.2498 18.4142 11.2498 18C11.2498 17.5858 11.5856 17.25 11.9998 17.25H14.9998ZM17.9998 11.25C18.4141 11.25 18.7498 11.5858 18.7498 12C18.7498 12.4142 18.4141 12.75 17.9998 12.75H11.9998C11.5856 12.75 11.2498 12.4142 11.2498 12C11.2498 11.5858 11.5856 11.25 11.9998 11.25H17.9998ZM20.9998 5.25C21.4141 5.25 21.7498 5.58579 21.7498 6C21.7498 6.41421 21.4141 6.75 20.9998 6.75H11.9998C11.5856 6.75 11.2498 6.41421 11.2498 6C11.2498 5.58579 11.5856 5.25 11.9998 5.25H20.9998Z" fill="#D1D1D1"/>
</svg>
