<svg width="23" height="21" viewBox="0 0 23 21" fill="none" xmlns="http://www.w3.org/2000/svg">
<path d="M3.30835 0.727295C3.72256 0.727295 4.05835 1.06308 4.05835 1.47729V6.83081C5.2126 7.15728 6.05835 8.21852 6.05835 9.47729V11.4773C6.05835 12.7361 5.2126 13.7973 4.05835 14.1238V19.4773C4.05835 19.8915 3.72256 20.2273 3.30835 20.2273C2.89414 20.2273 2.55835 19.8915 2.55835 19.4773V14.1238C1.4041 13.7973 0.55835 12.7361 0.55835 11.4773V9.47729C0.55835 8.21852 1.4041 7.15728 2.55835 6.83081V1.47729C2.55835 1.06308 2.89414 0.727295 3.30835 0.727295ZM11.3083 11.7273C11.7226 11.7273 12.0583 12.0631 12.0583 12.4773V19.4773C12.0583 19.8915 11.7226 20.2273 11.3083 20.2273C10.8941 20.2273 10.5583 19.8915 10.5583 19.4773V12.4773C10.5583 12.0631 10.8941 11.7273 11.3083 11.7273ZM19.3083 10.7273C20.8271 10.7273 22.0583 11.9585 22.0583 13.4773V15.4773C22.0583 16.7361 21.2126 17.7973 20.0583 18.1238V19.4773C20.0583 19.8915 19.7226 20.2273 19.3083 20.2273C18.8941 20.2273 18.5583 19.8915 18.5583 19.4773V18.1238C17.4041 17.7973 16.5583 16.7361 16.5583 15.4773V13.4773C16.5583 11.9585 17.7896 10.7273 19.3083 10.7273ZM11.3083 0.727295C11.7226 0.727295 12.0583 1.06308 12.0583 1.47729V2.83081C13.2126 3.15727 14.0583 4.21852 14.0583 5.47729V7.47729C14.0583 8.99608 12.8271 10.2273 11.3083 10.2273C9.78957 10.2273 8.55835 8.99608 8.55835 7.47729V5.47729C8.55835 4.21852 9.4041 3.15727 10.5583 2.83081V1.47729C10.5583 1.06308 10.8941 0.727295 11.3083 0.727295ZM19.3083 0.727295C19.7226 0.727295 20.0583 1.06308 20.0583 1.47729V8.47729C20.0583 8.89151 19.7226 9.22729 19.3083 9.22729C18.8941 9.22729 18.5583 8.89151 18.5583 8.47729V1.47729C18.5583 1.06308 18.8941 0.727295 19.3083 0.727295Z" fill="#888888"/>
</svg>
