<svg width="25" height="24" viewBox="0 0 25 24" fill="none" xmlns="http://www.w3.org/2000/svg">
<path fill-rule="evenodd" clip-rule="evenodd" d="M22.4414 12C22.4414 17.5228 17.9643 22 12.4414 22C6.91856 22 2.44141 17.5228 2.44141 12C2.44141 6.47715 6.91856 2 12.4414 2C17.9643 2 22.4414 6.47715 22.4414 12ZM12.4414 6.25C12.8556 6.25 13.1914 6.58579 13.1914 7V9C13.1914 9.41421 12.8556 9.75 12.4414 9.75C12.0272 9.75 11.6914 9.41421 11.6914 9V7C11.6914 6.58579 12.0272 6.25 12.4414 6.25ZM9.89184 8.59935C10.223 8.35058 10.2898 7.88044 10.0411 7.54924C9.79231 7.21805 9.32216 7.15124 8.99097 7.4C7.59605 8.44777 6.69141 10.1184 6.69141 12C6.69141 15.1757 9.26577 17.75 12.4414 17.75C15.617 17.75 18.1914 15.1757 18.1914 12C18.1914 10.1184 17.2868 8.44777 15.8918 7.4C15.5606 7.15124 15.0905 7.21805 14.8417 7.54924C14.593 7.88044 14.6598 8.35058 14.991 8.59935C16.0249 9.376 16.6914 10.6101 16.6914 12C16.6914 14.3473 14.7886 16.25 12.4414 16.25C10.0942 16.25 8.19141 14.3473 8.19141 12C8.19141 10.6101 8.85787 9.376 9.89184 8.59935Z" fill="#D1D1D1"/>
</svg>
