<svg width="25" height="25" viewBox="0 0 25 25" fill="none" xmlns="http://www.w3.org/2000/svg">
<path d="M12.4187 2.24341C17.9415 2.24341 22.4187 6.72056 22.4187 12.2434C22.4187 17.7663 17.9415 22.2434 12.4187 22.2434C6.89585 22.2434 2.4187 17.7663 2.4187 12.2434C2.4187 6.72056 6.89585 2.24341 12.4187 2.24341ZM11.949 8.71313C11.6561 8.42024 11.1813 8.42024 10.8884 8.71313L7.88843 11.7131C7.59553 12.006 7.59553 12.4808 7.88843 12.7737L10.8884 15.7737C11.1813 16.0666 11.6561 16.0666 11.949 15.7737C12.2419 15.4808 12.2419 15.006 11.949 14.7131L10.2292 12.9934H16.4187C16.8329 12.9934 17.1687 12.6576 17.1687 12.2434C17.1687 11.8292 16.8329 11.4934 16.4187 11.4934H10.2292L11.949 9.77368C12.2419 9.48079 12.2419 9.00603 11.949 8.71313Z" fill="#888888"/>
</svg>
