<svg width="24" height="24" viewBox="0 0 24 24" fill="none" xmlns="http://www.w3.org/2000/svg">
<path d="M16.3691 8.59473C16.5931 8.24638 17.0569 8.14536 17.4053 8.36914C17.7536 8.59307 17.8546 9.05687 17.6309 9.40527L13.4668 15.8828C13.5185 16.4143 13.2734 16.9543 12.791 17.2559L8.76465 19.3975C8.52384 19.548 8.26339 19.6404 8 19.6797V22H2V16C2 14.3431 3.34315 13 5 13C6.65685 13 8 14.3431 8 16V16.5L11.2432 14.7998C11.6264 14.5561 12.0796 14.5146 12.4785 14.6465L16.3691 8.59473ZM20 1.25C21.5188 1.25 22.75 2.48122 22.75 4V10C22.75 11.5188 21.5188 12.75 20 12.75H19C18.5858 12.75 18.25 12.4142 18.25 12C18.25 11.5858 18.5858 11.25 19 11.25H20C20.6904 11.25 21.25 10.6904 21.25 10V4C21.25 3.30964 20.6904 2.75 20 2.75H8C7.30964 2.75 6.75 3.30964 6.75 4V5.5C6.75 5.91421 6.41421 6.25 6 6.25C5.58579 6.25 5.25 5.91421 5.25 5.5V4C5.25 2.48122 6.48122 1.25 8 1.25H20ZM5 8C6.10457 8 7 8.89543 7 10C7 11.1046 6.10457 12 5 12C3.89543 12 3 11.1046 3 10C3 8.89543 3.89543 8 5 8ZM14 8.25C14.4142 8.25 14.75 8.58579 14.75 9C14.75 9.41421 14.4142 9.75 14 9.75H10C9.58579 9.75 9.25 9.41421 9.25 9C9.25 8.58579 9.58579 8.25 10 8.25H14ZM18 5.25C18.4142 5.25 18.75 5.58579 18.75 6C18.75 6.41421 18.4142 6.75 18 6.75H10C9.58579 6.75 9.25 6.41421 9.25 6C9.25 5.58579 9.58579 5.25 10 5.25H18Z" fill="#D1D1D1"/>
</svg>
