<svg width="25" height="25" viewBox="0 0 25 25" fill="none" xmlns="http://www.w3.org/2000/svg">
<path d="M12.4186 3.81484C17.6652 3.81484 21.9185 8.06825 21.9186 13.3148C21.9186 15.5425 21.1518 17.5913 19.8678 19.2113L22.0016 21.8432C22.262 22.1649 22.2128 22.6371 21.8913 22.8978C21.5695 23.1587 21.0964 23.1093 20.8356 22.7875L18.8356 20.3197C17.1452 21.8691 14.8924 22.8148 12.4186 22.8148C9.94479 22.8148 7.69202 21.8691 6.0016 20.3197L4.0016 22.7875C3.74076 23.1093 3.2677 23.1587 2.94594 22.8978C2.62446 22.6371 2.57517 22.1649 2.83559 21.8432L4.96938 19.2113C3.68542 17.5913 2.9186 15.5425 2.9186 13.3148C2.91873 8.06827 7.172 3.81487 12.4186 3.81484ZM12.4186 7.56484C12.0045 7.56484 11.6687 7.90074 11.6686 8.31484V13.3148C11.6686 13.5656 11.794 13.7998 12.0026 13.9389L15.0026 15.9389C15.3472 16.1686 15.8129 16.0755 16.0426 15.7309C16.2722 15.3862 16.1792 14.9205 15.8346 14.6908L13.1686 12.9135V8.31484C13.1685 7.90074 12.8327 7.56484 12.4186 7.56484ZM7.31508 1.62832C7.69443 1.46249 8.1363 1.63487 8.30238 2.01406C8.46834 2.39357 8.29518 2.83638 7.91567 3.00234C5.92537 3.87271 4.23482 5.3035 3.0436 7.09511C2.81426 7.4399 2.34843 7.53329 2.00356 7.3041C1.65863 7.07476 1.56523 6.60899 1.79457 6.26406C3.14357 4.23527 5.05844 2.61513 7.31508 1.62832ZM16.5348 2.01406C16.7009 1.63487 17.1428 1.46258 17.5221 1.62832C19.7789 2.61517 21.6946 4.23513 23.0436 6.26406C23.2729 6.60898 23.1785 7.07478 22.8336 7.3041C22.4889 7.53311 22.024 7.43955 21.7946 7.09511C20.6033 5.30346 18.9119 3.8727 16.9215 3.00234C16.542 2.83638 16.3689 2.39357 16.5348 2.01406Z" fill="#888888"/>
</svg>
