<svg width="25" height="24" viewBox="0 0 25 24" fill="none" xmlns="http://www.w3.org/2000/svg">
<path d="M12.1624 1.25C12.5766 1.25 12.9124 1.58579 12.9124 2C12.9124 2.41421 12.5766 2.75 12.1624 2.75H6.16235C4.36743 2.75 2.91235 4.20507 2.91235 6V18C2.91235 19.7949 4.36743 21.25 6.16235 21.25H18.1624C19.9573 21.25 21.4124 19.7949 21.4124 18V12C21.4124 11.5858 21.7481 11.25 22.1624 11.25C22.5766 11.25 22.9124 11.5858 22.9124 12V18C22.9124 20.6234 20.7857 22.75 18.1624 22.75H6.16235C3.539 22.75 1.41235 20.6234 1.41235 18V6C1.41235 3.37665 3.539 1.25 6.16235 1.25H12.1624ZM14.0178 5.24023C14.4863 6.12205 15.1755 7.2358 16.051 8.11133C16.9265 8.98685 18.0403 9.67606 18.9221 10.1445L13.2219 15.8438C12.8683 16.1973 12.4094 16.4273 11.9143 16.498L8.48169 16.9883C7.7191 17.097 7.06534 16.4432 7.17407 15.6807L7.66431 12.248C7.73503 11.753 7.96503 11.2941 8.3186 10.9404L14.0178 5.24023ZM16.5813 2.67676C17.4841 1.77412 18.9481 1.77409 19.8508 2.67676L21.4856 4.31152C22.3883 5.21427 22.3882 6.67829 21.4856 7.58105L20.0364 9.03027C19.9226 8.97393 19.8021 8.913 19.678 8.84766C18.8426 8.40785 17.8514 7.79056 17.1116 7.05078C16.3718 6.31099 15.7545 5.31973 15.3147 4.48438C15.2493 4.36024 15.1884 4.23976 15.1321 4.12598L16.5813 2.67676Z" fill="#D1D1D1"/>
</svg>
