<svg width="24" height="24" viewBox="0 0 24 24" fill="none" xmlns="http://www.w3.org/2000/svg">
<path d="M4.39844 4.39857C4.69129 4.10571 5.16608 4.10579 5.45898 4.39857C5.75188 4.69146 5.75188 5.16622 5.45898 5.45912C3.78431 7.13385 2.75 9.44566 2.75 12.0001C2.75006 14.5544 3.78451 16.8655 5.45898 18.5402C5.75188 18.8331 5.75188 19.3088 5.45898 19.6017C5.1661 19.8942 4.69123 19.8944 4.39844 19.6017C2.45394 17.6572 1.25006 14.9684 1.25 12.0001C1.25 9.03187 2.45396 6.34311 4.39844 4.39857ZM18.541 4.39857C18.8339 4.10579 19.3087 4.10571 19.6016 4.39857C21.546 6.34311 22.75 9.03187 22.75 12.0001C22.7499 14.9684 21.5461 17.6572 19.6016 19.6017C19.3088 19.8944 18.8339 19.8942 18.541 19.6017C18.2481 19.3088 18.2481 18.8331 18.541 18.5402C20.2155 16.8655 21.2499 14.5544 21.25 12.0001C21.25 9.44566 20.2157 7.13385 18.541 5.45912C18.2481 5.16622 18.2481 4.69146 18.541 4.39857ZM7.22656 7.22669C7.51946 6.9338 7.99519 6.9338 8.28809 7.22669C8.58078 7.51947 8.58058 7.99434 8.28809 8.28724C7.3372 9.23813 6.75 10.5502 6.75 12.0001C6.75006 13.45 7.33725 14.7612 8.28809 15.712C8.58075 16.0048 8.5806 16.4797 8.28809 16.7726C7.99519 17.0655 7.51946 17.0655 7.22656 16.7726C6.00614 15.552 5.25006 13.8636 5.25 12.0001C5.25 10.1364 6.00594 8.44737 7.22656 7.22669ZM15.7119 7.22669C16.0048 6.9338 16.4805 6.9338 16.7734 7.22669C17.9941 8.44737 18.75 10.1364 18.75 12.0001C18.7499 13.8636 17.9939 15.552 16.7734 16.7726C16.4805 17.0655 16.0048 17.0655 15.7119 16.7726C15.4194 16.4797 15.4192 16.0048 15.7119 15.712C16.6627 14.7612 17.2499 13.45 17.25 12.0001C17.25 10.5502 16.6628 9.23813 15.7119 8.28724C15.4194 7.99434 15.4192 7.51947 15.7119 7.22669ZM12 9.50013C13.3807 9.50013 14.5 10.6194 14.5 12.0001C14.4999 13.3807 13.3806 14.5001 12 14.5001C10.6194 14.5001 9.50013 13.3807 9.5 12.0001C9.5 10.6194 10.6193 9.50013 12 9.50013Z" fill="#D1D1D1"/>
</svg>
