<svg width="25" height="25" viewBox="0 0 25 25" fill="none" xmlns="http://www.w3.org/2000/svg">
<path d="M7.698 16.7273C9.21678 16.7273 10.448 17.9585 10.448 19.4773C10.448 20.9961 9.21678 22.2273 7.698 22.2273C6.43922 22.2273 5.37798 21.3815 5.05151 20.2273H3.698C3.28378 20.2273 2.948 19.8915 2.948 19.4773C2.948 19.0631 3.28378 18.7273 3.698 18.7273H5.05151C5.37798 17.573 6.43922 16.7273 7.698 16.7273ZM21.698 18.7273C22.1122 18.7273 22.448 19.0631 22.448 19.4773C22.448 19.8915 22.1122 20.2273 21.698 20.2273H12.698C12.2838 20.2273 11.948 19.8915 11.948 19.4773C11.948 19.0631 12.2838 18.7273 12.698 18.7273H21.698ZM17.698 9.72729C18.9568 9.72729 20.018 10.573 20.3445 11.7273H21.698C22.1122 11.7273 22.448 12.0631 22.448 12.4773C22.448 12.8915 22.1122 13.2273 21.698 13.2273H20.3445C20.018 14.3815 18.9568 15.2273 17.698 15.2273C16.1792 15.2273 14.948 13.9961 14.948 12.4773C14.948 10.9585 16.1792 9.72729 17.698 9.72729ZM12.698 11.7273C13.1122 11.7273 13.448 12.0631 13.448 12.4773C13.448 12.8915 13.1122 13.2273 12.698 13.2273H3.698C3.28378 13.2273 2.948 12.8915 2.948 12.4773C2.948 12.0631 3.28378 11.7273 3.698 11.7273H12.698ZM12.698 2.72729C13.9568 2.72729 15.018 3.57304 15.3445 4.72729H21.698C22.1122 4.72729 22.448 5.06308 22.448 5.47729C22.448 5.89151 22.1122 6.22729 21.698 6.22729H15.3445C15.018 7.38155 13.9568 8.22729 12.698 8.22729C11.4392 8.22729 10.378 7.38155 10.0515 6.22729H3.698C3.28378 6.22729 2.948 5.89151 2.948 5.47729C2.948 5.06308 3.28378 4.72729 3.698 4.72729H10.0515C10.378 3.57304 11.4392 2.72729 12.698 2.72729Z" fill="#888888"/>
</svg>
