<svg width="24" height="24" viewBox="0 0 24 24" fill="none" xmlns="http://www.w3.org/2000/svg">
<path d="M12 2C17.5228 2 22 6.47715 22 12C22 17.5228 17.5228 22 12 22C6.47715 22 2 17.5228 2 12C2 6.47715 6.47715 2 12 2ZM16.0029 15.1523C12.4914 13.3682 8.55344 13.7079 6.64844 14.1826L6.28418 14.2822C5.88782 14.4014 5.66253 14.8193 5.78125 15.2158C5.89296 15.5874 6.26763 15.8089 6.64062 15.7373L6.71582 15.7188C8.22094 15.2673 12.0273 14.8181 15.3193 16.4883L15.6357 16.6562L15.7051 16.6904C16.0539 16.84 16.4666 16.7039 16.6553 16.3652C16.8438 16.026 16.7413 15.6031 16.4297 15.3857L16.3643 15.3447L16.0029 15.1523ZM11.0488 10.8135C9.27617 10.7571 7.66943 10.9451 6.67285 11.1797L6.28418 11.2822C5.88782 11.4014 5.66252 11.8193 5.78125 12.2158C5.89296 12.5874 6.26763 12.8089 6.64062 12.7373L6.71582 12.7188C7.45327 12.4976 9.09382 12.2519 11.001 12.3125C12.7878 12.3693 14.7233 12.6926 16.3213 13.4902L16.6357 13.6562L16.7051 13.6904C17.0539 13.84 17.4666 13.7039 17.6553 13.3652C17.8438 13.026 17.7413 12.6031 17.4297 12.3857L17.3643 12.3447L16.9951 12.1504C15.1271 11.217 12.9496 10.8739 11.0488 10.8135ZM11.6289 7.62695C9.33788 7.499 7.11472 7.74749 5.72168 8.30469C5.33721 8.45858 5.1499 8.89476 5.30371 9.2793C5.45769 9.66333 5.89404 9.85068 6.27832 9.69727C7.3852 9.25452 9.36209 9.00202 11.5459 9.12402C13.5838 9.2379 15.6892 9.67238 17.3164 10.4883L17.6357 10.6562L17.7051 10.6904C18.0539 10.84 18.4666 10.7039 18.6553 10.3652C18.8438 10.026 18.7413 9.60308 18.4297 9.38574L18.3643 9.34473L17.9951 9.15039C16.1178 8.20758 13.7862 7.74748 11.6289 7.62695Z" fill="#D1D1D1"/>
</svg>
