<svg width="25" height="25" viewBox="0 0 25 25" fill="none" xmlns="http://www.w3.org/2000/svg">
<path fill-rule="evenodd" clip-rule="evenodd" d="M3.91108 5.25103C3.61818 4.95814 3.61818 4.48327 3.91108 4.19037C4.20397 3.89748 4.67884 3.89748 4.97174 4.19037L20.9717 20.1904C21.2646 20.4833 21.2646 20.9581 20.9717 21.251C20.6788 21.5439 20.204 21.5439 19.9111 21.251L17.0843 18.4243C15.6751 19.1916 14.1014 19.7207 12.4414 19.7207C8.62589 19.7207 5.2669 16.9254 3.31111 14.8676C2.1515 13.6475 2.1515 11.7939 3.31111 10.5738C4.14093 9.70071 5.22336 8.69484 6.48609 7.82605L3.91108 5.25103ZM9.85677 11.1967C9.59285 11.6434 9.44141 12.1643 9.44141 12.7207C9.44141 14.3776 10.7846 15.7207 12.4414 15.7207C12.9978 15.7207 13.5187 15.5693 13.9654 15.3053L9.85677 11.1967ZM12.4414 5.7207C16.2569 5.7207 19.6159 8.51604 21.5717 10.5738C22.7313 11.7939 22.7313 13.6475 21.5717 14.8676C21.1316 15.3306 20.6205 15.831 20.0492 16.3284L9.85411 6.13334C10.6836 5.87326 11.55 5.7207 12.4414 5.7207Z" fill="#D1D1D1"/>
</svg>
