<svg width="24" height="24" viewBox="0 0 24 24" fill="none" xmlns="http://www.w3.org/2000/svg">
<path d="M17 6.25C17.4142 6.25 17.75 6.58579 17.75 7V17C17.75 17.4142 17.4142 17.75 17 17.75C16.5858 17.75 16.25 17.4142 16.25 17V13.585C16.1835 13.6356 16.1131 13.6838 16.0381 13.7275L10.0078 17.2451C8.6745 18.0229 7 17.0612 7 15.5176V8.48242C7 6.93884 8.6745 5.97712 10.0078 6.75488L16.0381 10.2725C16.1129 10.3161 16.1837 10.3636 16.25 10.4141V7C16.25 6.58579 16.5858 6.25 17 6.25Z" fill="#D1D1D1"/>
</svg>
