<svg width="25" height="25" viewBox="0 0 25 25" fill="none" xmlns="http://www.w3.org/2000/svg">
<path fill-rule="evenodd" clip-rule="evenodd" d="M10.7005 5.98135C10.3411 6.88724 10.0485 7.98762 9.85086 9.22297C10.8073 9.13537 11.8177 9.08874 12.8604 9.08874C13.903 9.08874 14.9135 9.13537 15.8699 9.22297C15.6722 7.98762 15.3797 6.88724 15.0203 5.98135C14.6748 5.11065 14.2824 4.45743 13.8856 4.03442C13.4904 3.61302 13.1436 3.47149 12.8604 3.47149C12.5771 3.47149 12.2304 3.61302 11.8351 4.03442C11.4383 4.45743 11.0459 5.11065 10.7005 5.98135ZM9.2896 5.41239C8.84113 6.54271 8.49701 7.90432 8.28611 9.40959C7.2479 9.56396 6.30046 9.76992 5.47872 10.0185C4.52259 10.3076 3.69348 10.6672 3.08644 11.1013C3.00975 11.1561 2.93405 11.2141 2.8604 11.2752C3.53044 7.09969 6.71149 3.77242 10.7913 2.91882C10.771 2.93958 10.7509 2.96057 10.7311 2.98178C10.1583 3.5924 9.67744 4.43487 9.2896 5.41239ZM14.9295 2.91882C14.9497 2.93958 14.9698 2.96057 14.9897 2.98178C15.5625 3.5924 16.0433 4.43487 16.4311 5.41239C16.8796 6.54271 17.2237 7.90432 17.4346 9.40959C18.4728 9.56396 19.4203 9.76992 20.242 10.0185C21.1982 10.3076 22.0273 10.6672 22.6343 11.1013C22.711 11.1561 22.7867 11.2141 22.8604 11.2752C22.1903 7.09969 19.0093 3.77242 14.9295 2.91882ZM22.8604 14.5622C22.7867 14.6233 22.711 14.6813 22.6343 14.7361C22.0273 15.1702 21.1982 15.5297 20.242 15.8189C19.4203 16.0674 18.4728 16.2734 17.4346 16.4278C17.2237 17.9331 16.8796 19.2947 16.4311 20.425C16.0433 21.4025 15.5625 22.245 14.9897 22.8556C14.9697 22.8769 14.9495 22.898 14.9292 22.9189C19.0092 22.0653 22.1904 18.7379 22.8604 14.5622ZM10.7916 22.9189C10.7712 22.898 10.751 22.8769 10.7311 22.8556C10.1583 22.245 9.67744 21.4025 9.2896 20.425C8.84113 19.2947 8.49701 17.9331 8.28611 16.4278C7.2479 16.2734 6.30046 16.0674 5.47872 15.8189C4.52259 15.5297 3.69348 15.1702 3.08644 14.7361C3.00973 14.6813 2.93402 14.6233 2.86035 14.5622C3.53032 18.7379 6.71156 22.0653 10.7916 22.9189ZM5.91537 14.3515C6.55985 14.5465 7.30138 14.7154 8.11868 14.851C8.07241 14.2229 8.0484 13.5769 8.0484 12.9187C8.0484 12.2604 8.07241 11.6145 8.11868 10.9863C7.30138 11.1219 6.55985 11.2909 5.91537 11.4858C5.03825 11.7511 4.38378 12.0518 3.96556 12.3508C3.5276 12.664 3.48968 12.867 3.48968 12.9187C3.48968 12.9704 3.5276 13.1734 3.96556 13.4865C4.38378 13.7856 5.03825 14.0863 5.91537 14.3515ZM9.56797 12.9187C9.56797 13.6553 9.59982 14.3706 9.65973 15.0567C10.6586 15.1599 11.7352 15.2167 12.8604 15.2167C13.9855 15.2167 15.0621 15.1599 16.061 15.0567C16.1209 14.3706 16.1528 13.6553 16.1528 12.9187C16.1528 12.1821 16.1209 11.4667 16.061 10.7807C15.0621 10.6774 13.9855 10.6207 12.8604 10.6207C11.7352 10.6207 10.6586 10.6774 9.65973 10.7807C9.59982 11.4667 9.56797 12.1821 9.56797 12.9187ZM10.7005 19.856C10.3411 18.9501 10.0485 17.8497 9.85086 16.6144C10.8073 16.702 11.8177 16.7486 12.8604 16.7486C13.903 16.7486 14.9135 16.702 15.8699 16.6144C15.6722 17.8497 15.3797 18.9501 15.0203 19.856C14.6748 20.7267 14.2824 21.3799 13.8856 21.803C13.4904 22.2244 13.1436 22.3659 12.8604 22.3659C12.5771 22.3659 12.2304 22.2244 11.8351 21.803C11.4383 21.3799 11.0459 20.7267 10.7005 19.856ZM19.8054 14.3515C19.1609 14.5465 18.4194 14.7154 17.6021 14.851C17.6483 14.2229 17.6723 13.5769 17.6723 12.9187C17.6723 12.2604 17.6483 11.6145 17.6021 10.9863C18.4194 11.1219 19.1609 11.2909 19.8054 11.4858C20.6825 11.7511 21.337 12.0518 21.7552 12.3508C22.1931 12.664 22.2311 12.867 22.2311 12.9187C22.2311 12.9704 22.1931 13.1734 21.7552 13.4865C21.337 13.7856 20.6825 14.0863 19.8054 14.3515Z" fill="#888888"/>
</svg>
