<svg width="25" height="25" viewBox="0 0 25 25" fill="none" xmlns="http://www.w3.org/2000/svg">
<path d="M12.4978 5.20526C13.8163 4.21686 15.698 5.15753 15.698 6.80487V18.799C15.698 20.4464 13.8163 21.387 12.4978 20.3986L8.2312 17.1994C7.88523 16.9401 7.46433 16.8001 7.03198 16.8H4.698C3.59343 16.8 2.698 15.905 2.698 14.801V10.8029C2.698 9.69885 3.59343 8.8039 4.698 8.8039H7.03198C7.46433 8.80381 7.88523 8.66377 8.2312 8.40448L12.4978 5.20526ZM19.948 10.0519C20.3622 10.0519 20.698 10.3877 20.698 10.8019V12.0519H21.948C22.3622 12.0519 22.698 12.3877 22.698 12.8019C22.698 13.2162 22.3622 13.5519 21.948 13.5519H20.698V14.8019C20.698 15.2162 20.3622 15.5519 19.948 15.5519C19.5338 15.5519 19.198 15.2162 19.198 14.8019V13.5519H17.948C17.5338 13.5519 17.198 13.2162 17.198 12.8019C17.198 12.3877 17.5338 12.0519 17.948 12.0519H19.198V10.8019C19.198 10.3877 19.5338 10.0519 19.948 10.0519Z" fill="#888888"/>
</svg>
