<svg width="15" height="18" viewBox="0 0 15 18" fill="none" xmlns="http://www.w3.org/2000/svg">
<path d="M9.87923 0.299592L10.2273 1.4335C10.3352 1.77839 10.5179 2.09176 10.7606 2.34858C11.0034 2.6054 11.2996 2.79853 11.6255 2.91255L12.6976 3.28099L12.7186 3.28734C12.8012 3.31812 12.8728 3.37529 12.9234 3.45096C12.974 3.52663 13.0012 3.61706 13.0012 3.70977C13.0012 3.80249 12.974 3.89292 12.9234 3.96858C12.8728 4.04425 12.8012 4.10142 12.7186 4.13221L11.6475 4.50065C11.3214 4.61452 11.025 4.80759 10.7821 5.06442C10.5391 5.32124 10.3563 5.63469 10.2483 5.9797L9.90023 7.11254C9.87115 7.2 9.81714 7.27574 9.74567 7.32932C9.67419 7.3829 9.58876 7.41168 9.50118 7.41168C9.4136 7.41168 9.32817 7.3829 9.25669 7.32932C9.18522 7.27574 9.13121 7.2 9.10213 7.11254L8.75309 5.9797C8.6459 5.63392 8.46368 5.31955 8.22102 5.06178C7.97822 4.8035 7.68157 4.60914 7.35491 4.49429L6.28377 4.12585C6.20116 4.09507 6.12961 4.0379 6.07899 3.96223C6.02838 3.88657 6.00119 3.79614 6.00119 3.70342C6.00119 3.6107 6.02838 3.52027 6.07899 3.44461C6.12961 3.36894 6.20116 3.31177 6.28377 3.28099L7.35491 2.91255C7.6769 2.79559 7.96886 2.60114 8.20783 2.3445C8.4468 2.08785 8.62626 1.77601 8.73208 1.4335L9.08013 0.300651C9.109 0.212827 9.16298 0.136696 9.23457 0.0828208C9.30617 0.0289459 9.39184 0 9.47968 0C9.56752 0 9.65318 0.0289459 9.72478 0.0828208C9.79638 0.136696 9.85036 0.211769 9.87923 0.299592ZM14.7849 8.69746L14.0188 8.4349C13.7863 8.35263 13.5751 8.21424 13.4019 8.03067C13.2286 7.8471 13.0981 7.62339 13.0206 7.37723L12.7706 6.56835C12.7499 6.50582 12.7113 6.45163 12.6603 6.4133C12.6092 6.37497 12.5482 6.35438 12.4856 6.35438C12.423 6.35438 12.3619 6.37497 12.3108 6.4133C12.2598 6.45163 12.2212 6.50582 12.2005 6.56835L11.9525 7.37723C11.8764 7.62181 11.748 7.84451 11.5773 8.02797C11.4066 8.21142 11.1982 8.35068 10.9684 8.4349L10.2033 8.69746C10.1446 8.71987 10.094 8.76086 10.0582 8.81486C10.0223 8.86885 10.0031 8.93323 10.0031 8.9992C10.0031 9.06518 10.0223 9.12956 10.0582 9.18355C10.094 9.23755 10.1446 9.27854 10.2033 9.30094L10.9684 9.56457C11.2015 9.64688 11.4133 9.78563 11.5869 9.96979C11.7606 10.1539 11.8912 10.3784 11.9685 10.6254L12.2165 11.4343C12.2372 11.4968 12.2758 11.551 12.3268 11.5893C12.3779 11.6277 12.439 11.6483 12.5016 11.6483C12.5642 11.6483 12.6252 11.6277 12.6763 11.5893C12.7273 11.551 12.7659 11.4968 12.7866 11.4343L13.0356 10.6254C13.1132 10.3791 13.2439 10.1554 13.4173 9.97178C13.5907 9.7882 13.8021 9.64988 14.0348 9.56774L14.7999 9.30518C14.8585 9.28278 14.9092 9.24179 14.945 9.18779C14.9808 9.13379 15 9.06942 15 9.00344C15 8.93746 14.9808 8.87309 14.945 8.81909C14.9092 8.76509 14.8585 8.7241 14.7999 8.7017L14.7849 8.69746ZM4.37853 4.33443C4.51055 3.98928 4.73457 3.70236 5.01261 3.5012C4.98463 3.70908 4.9987 3.92087 5.05387 4.12256C5.10905 4.32425 5.20407 4.51122 5.33265 4.6711L5.30565 4.73251L2.27526 12.6561L2.26326 12.6899L1.05511 15.8492C0.987508 16.0428 0.993805 16.2567 1.07266 16.4456C1.15152 16.6344 1.29674 16.7832 1.47753 16.8606C1.65832 16.938 1.86048 16.9378 2.04114 16.8601C2.2218 16.7823 2.36675 16.6332 2.44528 16.4442L3.47041 13.7646H8.53106L9.55619 16.4442C9.63472 16.6332 9.77968 16.7823 9.96033 16.8601C10.141 16.9378 10.3431 16.938 10.5239 16.8606C10.7047 16.7832 10.85 16.6344 10.9288 16.4456C11.0077 16.2567 11.014 16.0428 10.9464 15.8492L9.73921 12.6899L9.72621 12.6561L7.77096 7.54239C8.13601 7.9807 8.57906 8.32162 9.11913 8.43596C9.02563 8.65525 8.98806 8.89665 9.01017 9.13611C9.03228 9.37556 9.1133 9.60469 9.24515 9.80066C9.40517 10.0336 9.6252 10.203 9.89523 10.3089L9.90923 10.3142L10.6453 12.2368L10.6753 12.3152L11.8745 15.4511C11.9608 15.6767 12.0042 15.9181 12.0024 16.1614C12.0006 16.4048 11.9535 16.6454 11.8638 16.8695C11.7742 17.0936 11.6437 17.2968 11.4798 17.4676C11.316 17.6383 11.122 17.7732 10.9089 17.8645C10.6958 17.9559 10.4678 18.0019 10.2379 17.9999C10.008 17.998 9.78067 17.9482 9.56898 17.8532C9.35728 17.7583 9.16532 17.6202 9.00405 17.4467C8.84278 17.2733 8.71536 17.0679 8.62907 16.8423L7.85797 14.8233H4.1445L3.3734 16.8423C3.19913 17.2979 2.86104 17.6615 2.43349 17.8532C2.00595 18.0449 1.52398 18.049 1.09361 17.8645C0.663244 17.68 0.31973 17.3221 0.138641 16.8695C-0.0424488 16.4169 -0.0462803 15.9067 0.127989 15.4511L1.32814 12.3152C1.33748 12.2883 1.34748 12.2622 1.35815 12.2368L4.37853 4.33443ZM7.92498 12.1765H4.07749L6.00074 7.14642L7.92498 12.1765Z" fill="#FDECD7"/>
</svg>
