<svg width="15" height="19" viewBox="0 0 15 19" fill="none" xmlns="http://www.w3.org/2000/svg">
<path d="M14.4767 7.94538H0.523255C0.384479 7.94538 0.251387 7.89078 0.153257 7.7936C0.055128 7.69642 -5.96046e-08 7.56461 -5.96046e-08 7.42717C-5.96046e-08 7.28974 0.055128 7.15793 0.153257 7.06075C0.251387 6.96356 0.384479 6.90897 0.523255 6.90897H6.97674V1.76922L5.07907 3.64772C5.03117 3.69863 4.9734 3.73947 4.90921 3.76779C4.84503 3.79611 4.77574 3.81134 4.70548 3.81257C4.63522 3.8138 4.56544 3.801 4.50028 3.77494C4.43513 3.74887 4.37594 3.71008 4.32625 3.66087C4.27657 3.61167 4.23739 3.55305 4.21108 3.48852C4.18476 3.424 4.17184 3.35488 4.17308 3.2853C4.17432 3.21572 4.18969 3.1471 4.21829 3.08354C4.24689 3.01997 4.28812 2.96276 4.33953 2.91532L7.13023 0.151551C7.22834 0.0545082 7.36134 0 7.5 0C7.63866 0 7.77166 0.0545082 7.86977 0.151551L10.6605 2.91532C10.7529 3.01355 10.8032 3.14348 10.8008 3.27773C10.7984 3.41199 10.7435 3.54008 10.6476 3.63502C10.5518 3.72996 10.4224 3.78435 10.2869 3.78672C10.1513 3.78909 10.0201 3.73925 9.92093 3.64772L8.02326 1.76922V6.90897H14.4767C14.6155 6.90897 14.7486 6.96356 14.8467 7.06075C14.9449 7.15793 15 7.28974 15 7.42717C15 7.56461 14.9449 7.69642 14.8467 7.7936C14.7486 7.89078 14.6155 7.94538 14.4767 7.94538ZM7.86977 18.8484L10.6605 16.0847C10.7529 15.9864 10.8032 15.8565 10.8008 15.7223C10.7984 15.588 10.7435 15.4599 10.6476 15.365C10.5518 15.27 10.4224 15.2156 10.2869 15.2133C10.1513 15.2109 10.0201 15.2607 9.92093 15.3523L8.02326 17.2308V12.091H14.4767C14.6155 12.091 14.7486 12.0364 14.8467 11.9393C14.9449 11.8421 15 11.7103 15 11.5728C15 11.4354 14.9449 11.3036 14.8467 11.2064C14.7486 11.1092 14.6155 11.0546 14.4767 11.0546H0.523255C0.384479 11.0546 0.251387 11.1092 0.153257 11.2064C0.055128 11.3036 -5.96046e-08 11.4354 -5.96046e-08 11.5728C-5.96046e-08 11.7103 0.055128 11.8421 0.153257 11.9393C0.251387 12.0364 0.384479 12.091 0.523255 12.091H6.97674V17.2308L5.07907 15.3523C5.03117 15.3014 4.9734 15.2605 4.90921 15.2322C4.84503 15.2039 4.77574 15.1887 4.70548 15.1874C4.63522 15.1862 4.56544 15.199 4.50028 15.2251C4.43513 15.2511 4.37594 15.2899 4.32625 15.3391C4.27657 15.3883 4.23739 15.4469 4.21108 15.5115C4.18476 15.576 4.17184 15.6451 4.17308 15.7147C4.17432 15.7843 4.18969 15.8529 4.21829 15.9165C4.24689 15.98 4.28812 16.0372 4.33953 16.0847L7.13023 18.8484C7.22834 18.9455 7.36134 19 7.5 19C7.63866 19 7.77166 18.9455 7.86977 18.8484Z" fill="#FDECD7"/>
</svg>
