<svg width="19" height="15" viewBox="0 0 19 15" fill="none" xmlns="http://www.w3.org/2000/svg">
<path d="M7.94538 0.523256V14.4767C7.94538 14.6155 7.89078 14.7486 7.7936 14.8467C7.69642 14.9449 7.56461 15 7.42717 15C7.28974 15 7.15793 14.9449 7.06075 14.8467C6.96356 14.7486 6.90897 14.6155 6.90897 14.4767V8.02326H1.76922L3.64772 9.92093C3.69863 9.96883 3.73947 10.0266 3.76779 10.0908C3.79611 10.155 3.81134 10.2243 3.81257 10.2945C3.8138 10.3648 3.801 10.4346 3.77494 10.4997C3.74887 10.5649 3.71008 10.6241 3.66087 10.6737C3.61167 10.7234 3.55305 10.7626 3.48852 10.7889C3.424 10.8152 3.35488 10.8282 3.2853 10.8269C3.21572 10.8257 3.1471 10.8103 3.08354 10.7817C3.01997 10.7531 2.96276 10.7119 2.91532 10.6605L0.151551 7.86977C0.0545082 7.77166 0 7.63866 0 7.5C0 7.36134 0.0545082 7.22834 0.151551 7.13023L2.91532 4.33953C3.01355 4.24711 3.14348 4.19679 3.27773 4.19918C3.41199 4.20157 3.54008 4.25649 3.63502 4.35236C3.72996 4.44823 3.78435 4.57756 3.78672 4.71312C3.78909 4.84868 3.73925 4.97988 3.64772 5.07907L1.76922 6.97674H6.90897V0.523256C6.90897 0.38448 6.96356 0.251388 7.06075 0.153258C7.15793 0.0551285 7.28974 0 7.42717 0C7.56461 0 7.69642 0.0551285 7.7936 0.153258C7.89078 0.251388 7.94538 0.38448 7.94538 0.523256ZM18.8484 7.13023L16.0847 4.33953C15.9864 4.24711 15.8565 4.19679 15.7223 4.19918C15.588 4.20157 15.4599 4.25649 15.365 4.35236C15.27 4.44823 15.2156 4.57756 15.2133 4.71312C15.2109 4.84868 15.2607 4.97988 15.3523 5.07907L17.2308 6.97674H12.091V0.523256C12.091 0.38448 12.0364 0.251388 11.9393 0.153258C11.8421 0.0551285 11.7103 0 11.5728 0C11.4354 0 11.3036 0.0551285 11.2064 0.153258C11.1092 0.251388 11.0546 0.38448 11.0546 0.523256V14.4767C11.0546 14.6155 11.1092 14.7486 11.2064 14.8467C11.3036 14.9449 11.4354 15 11.5728 15C11.7103 15 11.8421 14.9449 11.9393 14.8467C12.0364 14.7486 12.091 14.6155 12.091 14.4767V8.02326H17.2308L15.3523 9.92093C15.3014 9.96883 15.2605 10.0266 15.2322 10.0908C15.2039 10.155 15.1887 10.2243 15.1874 10.2945C15.1862 10.3648 15.199 10.4346 15.2251 10.4997C15.2511 10.5649 15.2899 10.6241 15.3391 10.6737C15.3883 10.7234 15.4469 10.7626 15.5115 10.7889C15.576 10.8152 15.6451 10.8282 15.7147 10.8269C15.7843 10.8257 15.8529 10.8103 15.9165 10.7817C15.98 10.7531 16.0372 10.7119 16.0847 10.6605L18.8484 7.86977C18.9455 7.77166 19 7.63866 19 7.5C19 7.36134 18.9455 7.22834 18.8484 7.13023Z" fill="#FDECD7"/>
</svg>
