<?xml version="1.0" encoding="UTF-8"?>
<svg version="1.1" xmlns="http://www.w3.org/2000/svg" width="256" height="256">
<path d="M0 0 C0.68896866 -0.00619858 1.37793732 -0.01239716 2.08778381 -0.01878357 C3.53922113 -0.02586004 4.99073998 -0.02274558 6.44213867 -0.01000977 C8.65111227 0.00384951 10.85583741 -0.03022465 13.06445312 -0.06835938 C14.48046978 -0.06931083 15.89649168 -0.06745032 17.3125 -0.0625 C18.58988037 -0.0632251 19.86726074 -0.0639502 21.18334961 -0.06469727 C25.83078624 0.76399996 27.41808173 2.24766355 30.72265625 5.56640625 C33.42428306 11.12951944 33.36956728 17.48930365 33.7578125 23.578125 C34.20987699 28.94319225 35.17532141 32.29242926 38.72265625 36.56640625 C42.86280002 39.55116106 46.35751878 40.14947326 51.296875 39.40234375 C56.99792628 37.43773027 61.38084131 32.72286518 65.74609375 28.703125 C70.32245162 24.78987204 74.00681495 23.54245367 80.07421875 23.94140625 C84.91689798 25.08422141 87.39560202 28.03141113 90.72265625 31.56640625 C91.82135013 32.59830609 92.92601353 33.6238707 94.03515625 34.64453125 C95.22377984 35.76313019 96.41127461 36.88292978 97.59765625 38.00390625 C98.16983887 38.52879639 98.74202148 39.05368652 99.33154297 39.59448242 C103.29786154 43.462977 105.38202053 46.95281228 105.72265625 52.56640625 C104.84687925 58.79263334 101.85477336 62.2571768 97.72265625 66.69140625 C91.82867461 72.83757368 91.82867461 72.83757368 89.60546875 80.84765625 C90.15260715 85.86015 90.90557859 88.96744731 94.72265625 92.56640625 C97.53408962 94.21593238 99.78575054 94.853432 103.0234375 95.09375 C104.24256836 95.19913086 104.24256836 95.19913086 105.48632812 95.30664062 C107.17360001 95.43722642 108.86110214 95.56487351 110.54882812 95.68945312 C115.87909997 96.15643037 120.0151202 96.95240797 124.72265625 99.56640625 C128.72265625 104.56640625 128.72265625 104.56640625 128.72265625 120.56640625 C109.58265625 120.56640625 90.44265625 120.56640625 70.72265625 120.56640625 C69.73265625 114.95640625 68.74265625 109.34640625 67.72265625 103.56640625 C61.72580993 86.57534167 52.51646388 74.39834792 36.72265625 65.56640625 C21.71934456 58.76506641 4.37535984 56.76259481 -11.27734375 62.56640625 C-28.58240568 69.57689997 -40.12846626 80.0849615 -48.02734375 97.19140625 C-51.03909478 105.16990588 -51.03909478 105.16990588 -53.27734375 120.56640625 C-72.41734375 120.56640625 -91.55734375 120.56640625 -111.27734375 120.56640625 C-111.27734375 104.56640625 -111.27734375 104.56640625 -106.27734375 98.56640625 C-100.71423056 95.86477944 -94.35444635 95.91949522 -88.265625 95.53125 C-82.90451235 95.07951873 -79.54063792 94.12355108 -75.27734375 90.56640625 C-72.36697175 86.20084825 -71.62671885 82.77140546 -72.27734375 77.56640625 C-75.46755108 72.25187862 -79.45292795 67.56326585 -83.47460938 62.86523438 C-86.73803524 58.86676279 -88.30722918 55.91589864 -88.27734375 50.56640625 C-86.42615694 43.44390272 -81.39032367 39.18479344 -76.21484375 34.19140625 C-75.38662109 33.37285156 -74.55839844 32.55429687 -73.70507812 31.7109375 C-68.06161649 26.17308987 -65.35628035 23.97071059 -57.2890625 24.0234375 C-51.75781743 25.02063992 -48.27844811 28.8396251 -44.27734375 32.56640625 C-39.54526996 36.72247855 -35.83539376 39.44171296 -29.3828125 39.73046875 C-26.02537988 39.46885062 -23.99842813 38.52811824 -21.27734375 36.56640625 C-17.10425242 31.54008063 -16.58243343 27.39753552 -16.21484375 21.12890625 C-15.3576009 7.65643535 -15.3576009 7.65643535 -10.12255859 2.40478516 C-6.53205972 0.08485581 -4.25498941 0.03626183 0 0 Z " fill="#9C9489" transform="translate(119.27734375,7.43359375)"/>
<path d="M0 0 C10.17210893 8.0664669 17.44889512 19.11833838 19.56640625 32.03515625 C19.56640625 35.00515625 19.56640625 37.97515625 19.56640625 41.03515625 C-13.43359375 41.03515625 -46.43359375 41.03515625 -80.43359375 41.03515625 C-80.43359375 27.06749872 -76.66456957 15.96792521 -67.1796875 5.5625 C-48.77890529 -12.12942383 -21.06947838 -14.44501356 0 0 Z " fill="#9B9389" transform="translate(158.43359375,86.96484375)"/>
<path d="M0 0 C1.98 0 3.96 0 6 0 C6 30.69 6 61.38 6 93 C7.65 93.66 9.3 94.32 11 95 C13.80935023 97.85852923 14.43138755 99.97051744 14.4375 103.9375 C14.33561219 107.57328593 14.08021871 108.8689761 12.125 112.0625 C8.38214851 115.47509989 5.39230075 115.32843064 0.484375 115.29296875 C-2.97198834 114.88537873 -4.68663869 113.53723498 -7 111 C-8.85127843 107.29744314 -8.4638553 103.04125987 -8 99 C-6.25 95.9375 -6.25 95.9375 -4 94 C-2.02 93.505 -2.02 93.505 0 93 C0 62.31 0 31.62 0 0 Z " fill="#9B9389" transform="translate(125,133)"/>
<path d="M0 0 C1.98 0 3.96 0 6 0 C5.9779248 1.31605225 5.95584961 2.63210449 5.93310547 3.98803711 C5.86401479 8.90304139 5.86129935 13.81628961 5.87792969 18.73168945 C5.8759912 20.85287526 5.85640439 22.97412522 5.81835938 25.0949707 C5.19460338 37.21014123 5.19460338 37.21014123 9.12817383 48.25415039 C11.6377621 50.48362888 14.1517368 52.23613916 17 54 C18.58105469 55.59008789 18.58105469 55.59008789 19.77734375 57.06640625 C23.96757764 62.14435748 23.96757764 62.14435748 29.86328125 64.453125 C31.74790216 64.36131667 33.63096316 64.22140891 35.5078125 64.02734375 C38.42840824 63.9952996 39.41773865 64.52153413 41.625 66.375 C45.1454773 70.26605386 45.34248809 72.6478442 45.28515625 77.7421875 C44.85933373 81.11376856 43.46522826 82.74020743 41 85 C37.20247537 87.30876759 34.49504261 87.21767092 30.19140625 86.59375 C26.58511841 85.61664527 25.07791447 84.05193688 23 81 C22.49799707 78.99603668 22.25698281 77.1236955 22.140625 75.0625 C21.80029728 70.07102683 20.95132019 67.44792866 17.32421875 63.8984375 C16.57849609 63.16109375 15.83277344 62.42375 15.06445312 61.6640625 C14.28005859 60.90867188 13.49566406 60.15328125 12.6875 59.375 C11.91470703 58.611875 11.14191406 57.84875 10.34570312 57.0625 C6.38062584 53.05752314 6.38062584 53.05752314 1.90345764 49.68281555 C0 48 0 48 -0.48101807 45.81697083 C-0.47213562 44.97091782 -0.46325317 44.12486481 -0.45410156 43.25317383 C-0.45379944 42.29240433 -0.45349731 41.33163483 -0.45318604 40.3417511 C-0.43254089 39.30729355 -0.41189575 38.272836 -0.390625 37.20703125 C-0.38496521 36.14586594 -0.37930542 35.08470062 -0.37347412 33.99137878 C-0.35106143 30.59796265 -0.30085449 27.20559765 -0.25 23.8125 C-0.2299414 21.51368711 -0.21168952 19.21485769 -0.1953125 16.91601562 C-0.1511807 11.27698436 -0.08421972 5.63856727 0 0 Z " fill="#9C9489" transform="translate(164,133)"/>
<path d="M0 0 C1.98 0 3.96 0 6 0 C6.3322688 6.6147746 6.55831131 13.2273719 6.71411133 19.84863281 C6.77910596 22.09554407 6.86754305 24.3419136 6.98071289 26.58691406 C7.94672603 46.25686492 7.94672603 46.25686492 3.23510742 52.05981445 C0.60601822 54.70164645 -2.24788065 56.86211227 -5.36436462 58.89541626 C-9.39671792 61.61856101 -13.17633137 65.03393108 -16 69 C-16.46289181 71.45783263 -16.40025305 73.44633337 -16.140625 75.92578125 C-15.91075988 79.3162918 -17.06646969 81.29305757 -19 84 C-23.01612795 86.67741863 -26.20274224 87.69960009 -31 87 C-34.6578218 84.96006092 -36.66946174 83.49580738 -39 80 C-39.68343706 76.22311096 -39.85107095 72.52813111 -37.94921875 69.11328125 C-36.17977487 66.95758708 -34.5083344 65.2541672 -32 64 C-30.2998699 64.1305576 -28.6007539 64.27448481 -26.90234375 64.42578125 C-22.22182828 64.4662556 -20.00595588 63.79687772 -16.56640625 60.60546875 C-15.2024312 59.15994456 -13.86786792 57.68616031 -12.5625 56.1875 C-11.21134431 54.72107984 -9.85853578 53.25618051 -8.50390625 51.79296875 C-7.92455322 51.1383667 -7.3452002 50.48376465 -6.74829102 49.80932617 C-5 48 -5 48 -2.92485046 46.66638184 C-0.83442944 45.17886902 -0.83442944 45.17886902 -0.48101807 42.93086243 C-0.4676944 41.74172493 -0.4676944 41.74172493 -0.45410156 40.52856445 C-0.43438293 39.62785721 -0.41466431 38.72714996 -0.39434814 37.79914856 C-0.39311951 36.83031235 -0.39189087 35.86147614 -0.390625 34.86328125 C-0.37408875 33.86870407 -0.35755249 32.87412689 -0.34051514 31.84941101 C-0.2919005 28.67037871 -0.27063406 25.4918252 -0.25 22.3125 C-0.22185163 20.15817886 -0.19192581 18.00388016 -0.16015625 15.84960938 C-0.08613839 10.56649357 -0.0345749 5.28351316 0 0 Z " fill="#9C9489" transform="translate(86,133)"/>
<path d="M0 0 C1.98 0 3.96 0 6 0 C6 6.6 6 13.2 6 20 C7.835625 20.144375 9.67125 20.28875 11.5625 20.4375 C16.07630303 20.81142451 20.52805016 21.28855343 25 22 C25.268125 21.38125 25.53625 20.7625 25.8125 20.125 C27 18 27 18 30 16 C34.88516144 15.28792562 38.8100735 15.27147357 43.0625 17.875 C45.90488869 20.99245857 46.15684532 22.74274934 46.1875 26.875 C46.20167969 27.73867187 46.21585938 28.60234375 46.23046875 29.4921875 C45.98440667 32.16967655 45.41995121 33.73401515 44 36 C40.61841317 38.78483622 37.47524132 39.65186279 33.0703125 39.484375 C29.24171792 38.58862834 26.22576603 36.20649419 24 33 C23.8125 30.29296875 23.8125 30.29296875 24 28 C23.18917969 27.95101562 22.37835938 27.90203125 21.54296875 27.8515625 C20.43566406 27.77679688 19.32835937 27.70203125 18.1875 27.625 C17.10855469 27.55539063 16.02960938 27.48578125 14.91796875 27.4140625 C9.90852228 26.88464941 4.95609095 25.90110745 0 25 C0 16.75 0 8.5 0 0 Z " fill="#9D958A" transform="translate(202,133)"/>
<path d="M0 0 C1.65 0 3.3 0 5 0 C5 8.25 5 16.5 5 25 C2.339375 25.495 -0.32125 25.99 -3.0625 26.5 C-3.8862915 26.65662109 -4.71008301 26.81324219 -5.55883789 26.97460938 C-10.11834716 27.80013662 -14.36729015 28.14765609 -19 28 C-19.0928125 29.36125 -19.0928125 29.36125 -19.1875 30.75 C-20 34 -20 34 -22.125 36.3125 C-25.60734978 38.35648791 -27.96188247 38.92915583 -32 39 C-36.2487211 37.44758267 -38.63045199 35.82668385 -41 32 C-41.6635265 28.5994267 -41.61221119 25.40852716 -41 22 C-38.5625 18.9375 -38.5625 18.9375 -36 17 C-35.67 16.67 -35.34 16.34 -35 16 C-30.06571906 15.442609 -26.19303291 15.28418025 -21.875 17.875 C-20 20 -20 20 -20 22 C-19.14277344 21.855625 -18.28554688 21.71125 -17.40234375 21.5625 C-16.25894531 21.376875 -15.11554687 21.19125 -13.9375 21 C-12.81214844 20.814375 -11.68679687 20.62875 -10.52734375 20.4375 C-7 20 -7 20 0 20 C0 13.4 0 6.8 0 0 Z " fill="#9C9489" transform="translate(49,133)"/>
</svg>
