<?xml version="1.0" encoding="UTF-8"?>
<svg version="1.1" xmlns="http://www.w3.org/2000/svg" width="24" height="24">
<path d="M0 0 C2.4375 0.375 2.4375 0.375 5 1 C5.33 1.66 5.66 2.32 6 3 C8.52733235 3.65555119 8.52733235 3.65555119 11 4 C11 5.32 11 6.64 11 8 C11.99 8.66 12.98 9.32 14 10 C14 10.66 14 11.32 14 12 C12.68 12 11.36 12 10 12 C10 12.66 10 13.32 10 14 C11.32 14 12.64 14 14 14 C13.67 14.99 13.34 15.98 13 17 C11.35 16.34 9.7 15.68 8 15 C8 14.01 8 13.02 8 12 C7.34 12 6.68 12 6 12 C7.11854586 15.72614153 7.11854586 15.72614153 10 18 C10 18.99 10 19.98 10 21 C9.01 21 8.02 21 7 21 C4.70986347 17.5647952 4.82157027 16.014669 5 12 C4.34 12 3.68 12 3 12 C3 15.96 3 19.92 3 24 C2.01 23.67 1.02 23.34 0 23 C0.33 19.37 0.66 15.74 1 12 C0.34 12 -0.32 12 -1 12 C-0.95875 12.928125 -0.9175 13.85625 -0.875 14.8125 C-1 18 -1 18 -3 21 C-3.99 21 -4.98 21 -6 21 C-6 20.01 -6 19.02 -6 18 C-5.01 17.34 -4.02 16.68 -3 16 C-2.27617533 13.94074861 -2.27617533 13.94074861 -2 12 C-2.66 12 -3.32 12 -4 12 C-4 12.99 -4 13.98 -4 15 C-5.65 15.66 -7.3 16.32 -9 17 C-9.33 16.01 -9.66 15.02 -10 14 C-8.68 14 -7.36 14 -6 14 C-6 13.34 -6 12.68 -6 12 C-7.32 12 -8.64 12 -10 12 C-9.67 11.01 -9.34 10.02 -9 9 C-8.34 8.67 -7.68 8.34 -7 8 C-6.34444881 5.47266765 -6.34444881 5.47266765 -6 3 C-4.68 3 -3.36 3 -2 3 C-1.34 2.01 -0.68 1.02 0 0 Z " fill="#9C948A" transform="translate(10,0)"/>
</svg>
