<svg width="14" height="14" viewBox="0 0 14 14" fill="none" xmlns="http://www.w3.org/2000/svg">
<path d="M0.446989 5.61166L8.38834 13.553C8.50428 13.6689 8.44833 13.8658 8.28717 13.8959C8.01565 13.9466 7.74137 13.9813 7.46576 13.9996C7.43636 14.0014 7.4069 13.997 7.37936 13.9865C7.35182 13.9761 7.32683 13.9598 7.30607 13.9389L0.0610581 6.69393C0.0401539 6.67317 0.0239282 6.64818 0.0134683 6.62064C0.00300845 6.5931 -0.00144393 6.56364 0.000409546 6.53424C0.0190033 6.25561 0.053894 5.98151 0.104097 5.71283C0.134175 5.55167 0.331051 5.49572 0.446989 5.61166ZM0.223207 8.82707C0.17016 8.62943 0.403676 8.50474 0.548379 8.64945L5.3505 13.4516C5.49526 13.5963 5.37057 13.8298 5.17293 13.7768C2.76503 13.1312 0.868849 11.235 0.223207 8.82707ZM0.919161 3.50898C0.986591 3.39222 1.14595 3.37428 1.24127 3.46966L10.5304 12.7586C10.6258 12.854 10.6079 13.0134 10.491 13.0808C10.2939 13.1946 10.0913 13.2987 9.88399 13.3928C9.80579 13.4283 9.71391 13.4104 9.65321 13.3496L0.650372 4.34695C0.589614 4.28614 0.571676 4.19438 0.607169 4.11612C0.701252 3.90882 0.805391 3.70623 0.919216 3.50909M6.99233 0C10.8626 0 14 3.13743 14 7.00767C14 9.06228 13.1158 10.9103 11.7072 12.1921C11.6258 12.2661 11.5011 12.2612 11.4233 12.1835L1.81653 2.57666C1.73882 2.4989 1.73395 2.37415 1.80789 2.29283C3.08971 0.884189 4.93777 0 6.99233 0Z" fill="#F6F6F6"/>
</svg>
