<svg width="52" height="56" viewBox="0 0 52 56" fill="none" xmlns="http://www.w3.org/2000/svg">
<path d="M6.18572 12.9902C3.685 15.1056 2.16822 18.6867 1.53332 21.1941L0.619135 26.6095C0.21283 30.7212 0.619135 39.9075 5.49479 43.7584C11.5894 48.5722 15.5508 48.2713 20.7312 47.6696C25.0892 47.1634 33.2251 43.7584 36.8818 40.1481C39.3196 38.0421 44.5 32.9275 44.5 27.5121C44.5 21.4949 39.5053 18.4863 37.9816 17.5838C36.0341 16.4301 33.1857 15.133 28.9589 15.7786C23.0499 16.6812 21.8485 14.7758 19.817 13.9735C18.1743 13.0709 15.7946 11.7472 14.3319 11.2658C11.6046 10.3682 8.37787 11.1359 6.18572 12.9902Z" fill="white"/>
<path d="M50.0477 15.6321C50.8498 16.7658 50.581 18.3351 49.4473 19.1372C48.3136 19.9394 46.7443 19.6706 45.9422 18.5369C45.1401 17.4032 45.5904 16.0905 46.7241 15.2883C47.8578 14.4862 49.2455 14.4984 50.0477 15.6321Z" fill="white"/>
<path d="M22.2843 50.9421C22.9876 51.9362 22.7519 53.3122 21.7578 54.0156C20.7638 54.7189 19.3877 54.4832 18.6844 53.4892C17.981 52.4951 18.3759 51.344 19.37 50.6407C20.364 49.9373 21.5809 49.948 22.2843 50.9421Z" fill="white"/>
<path d="M31.3341 11.6723C28.7577 12.7021 25.8343 11.4484 24.8045 8.87202C23.7747 6.29564 25.0284 3.37224 27.6048 2.34242C30.1812 1.31259 32.5215 2.79938 33.5513 5.37576C34.5812 7.95214 33.9105 10.6425 31.3341 11.6723Z" fill="white"/>
<path d="M47.7512 37.0582C49.3718 38.779 48.0299 42.6751 44.7538 45.7606C41.4778 48.8461 37.5083 49.9524 35.8876 48.2317C34.267 46.5109 36.6372 44.0297 39.9133 40.9442C43.1893 37.8588 46.1306 35.3375 47.7512 37.0582Z" fill="white"/>
</svg>
