<svg width="58" height="50" viewBox="0 0 58 50" fill="none" xmlns="http://www.w3.org/2000/svg">
<path d="M50.3681 36.2174C45.2087 41.3629 33.6756 47.1432 25.3408 48.6973C16.9984 50.2529 10.8884 46.1923 8.78231 41.9644C7.78228 39.9568 6.40996 34.6174 11.8646 22.7775C17.3193 10.9376 26.9452 7.73771 28.5494 7.09765C30.7955 6.20156 38.817 4.21775 47.4803 8.37772C56.1436 12.5377 57.1062 19.8976 57.1062 22.4575C57.1062 25.0174 57.4271 29.1776 50.3681 36.2174Z" fill="white"/>
<path d="M15.7131 10.5096C14.5428 12.3831 11.5563 14.8666 9.21725 15.8538C7.23806 16.6892 4.24813 16.2385 3.50013 15.0001C2.71082 13.6932 2.73713 13 3.57722 8.93976C4.38472 5.03703 6.99787 3.46358 7.42476 3.16898C8.02242 2.75653 10.2368 1.64846 13.0419 2.34246C15.847 3.03645 16.6114 5.18284 16.7794 5.9508C16.9475 6.71876 17.3143 7.94626 15.7131 10.5096Z" fill="white"/>
</svg>
