<svg width="52" height="48" viewBox="0 0 52 48" fill="none" xmlns="http://www.w3.org/2000/svg">
<path d="M20.8713 33.0286C14.2469 40.7121 13.1461 43.0256 11.2578 43.0256C10.2939 43.0256 9.42586 42.4425 9.06136 41.5502L9.04745 41.5162C8.92841 41.2247 8.86719 40.913 8.86719 40.5982V33.194C8.86719 30.6925 7.2279 28.4865 4.83272 27.7649C4.07755 27.5374 3.37815 27.1548 2.77922 26.6417L2.35832 26.281C1.1943 25.2837 0.592889 23.7793 0.748622 22.2544C0.846133 21.2996 1.23505 20.3979 1.86259 19.6717L7.16325 13.5377C8.79326 11.6514 9.82294 9.3214 10.1203 6.84622L10.3199 5.18525C10.4127 4.41253 10.6784 3.67063 11.0971 3.01461L11.1889 2.87074C11.9871 1.62032 13.3152 0.805726 14.7916 0.661162C15.8585 0.556694 16.9278 0.811455 17.8425 1.37048C19.8955 2.62524 22.7445 4.29676 24.0078 4.79157C25.6016 5.4158 27.3281 5.05167 27.9922 4.79157L33.8355 1.64465C35.2306 0.89331 36.7904 0.5 38.375 0.5H39.5149C40.0603 0.5 40.5984 0.624656 41.0881 0.864444L41.3819 1.00827C42.2311 1.42401 42.8284 2.22287 42.9871 3.15496C43.0822 3.7139 43.0132 4.2874 42.7888 4.80809C41.6704 7.40385 40.0048 11.4438 41.1875 12.5944C42.3573 13.7325 46.508 13.9764 48.7396 14.1075L48.7809 14.1099C49.2559 14.1378 49.708 14.3118 50.0826 14.6053L50.3172 14.7891C51.0171 15.3373 51.268 16.2835 50.9318 17.1064C50.7827 17.4714 50.5285 17.7838 50.2015 18.004L45.2203 21.3573C44.6351 21.7512 44.1598 22.2875 43.839 22.9157C43.3836 23.8076 43.2653 24.834 43.506 25.8061L46.3203 37.1734C47.1172 40.1645 48.0734 46.3808 45.5234 47.3172C42.9734 48.2535 38.8828 45.3664 37.1562 43.8059L29.1875 35.2227L26.2897 32.669C25.5895 32.0519 24.6882 31.7114 23.7549 31.7114C22.6496 31.7114 21.593 32.1915 20.8713 33.0286Z" fill="#D9D9D9"/>
</svg>
