<svg width="52" height="46" viewBox="0 0 52 46" fill="none" xmlns="http://www.w3.org/2000/svg">
<path fill-rule="evenodd" clip-rule="evenodd" d="M36.5575 40.7236C37.4321 40.2468 38.4334 40.0808 39.427 40.1528L41.248 40.2847C43.8135 40.4706 46.1014 38.6798 46.5371 36.1448L51.6509 6.39165C52.1904 3.2529 49.697 0.416442 46.515 0.549026L5.06763 2.276C2.19647 2.39563 0.0167735 4.9051 0.300162 7.76475L2.82936 33.2866C3.06867 35.7015 5.00748 37.5959 7.42728 37.7793L24.0337 39.0373C24.86 39.0972 25.6275 39.4868 26.1635 40.1185L26.5367 40.5584C27.0493 41.1626 27.3308 41.9293 27.3308 42.7217V43.9553C27.3308 44.5629 27.6973 45.1105 28.259 45.3422C28.728 45.5357 29.2629 45.4791 29.6792 45.189C29.7964 45.1074 29.9174 45.023 30.0419 44.9361C31.8415 43.6804 34.3687 41.9169 36.5575 40.7236Z" fill="#D9D9D9"/>
</svg>
