<svg width="61" height="52" viewBox="0 0 61 52" fill="none" xmlns="http://www.w3.org/2000/svg">
<path d="M26.4198 18.6454L3.5109 32.8326C2.23502 33.6227 2.25154 35.4843 3.54123 36.2517L26.4501 49.8825C27.7833 50.6757 29.4728 49.715 29.4728 48.1637V20.3458C29.4728 18.7786 27.7521 17.8203 26.4198 18.6454Z" fill="#D9D9D9"/>
<path d="M20.1748 19.7312L25.8721 16.3128C27.18 15.5281 27.1634 13.6269 25.842 12.8651L20.1447 9.5808C18.8114 8.81217 17.1458 9.7745 17.1458 11.3135V18.0162C17.1458 19.5708 18.8418 20.531 20.1748 19.7312Z" fill="#D9D9D9"/>
<path d="M34.5802 2.20965L57.4891 16.3968C58.765 17.1869 58.7485 19.0485 57.4588 19.8159L34.5499 33.4467C33.2167 34.2399 31.5272 33.2792 31.5272 31.7279V3.91C31.5272 2.34283 33.2479 1.38453 34.5802 2.20965Z" fill="#D9D9D9"/>
</svg>
