<svg width="50" height="49" viewBox="0 0 50 49" fill="none" xmlns="http://www.w3.org/2000/svg">
<path d="M0.0771146 30.4041C0.723074 26.3125 5.28555 19.7024 7.44755 15.9424C7.84064 15.1711 8.50889 12.8186 8.03719 9.57917C7.16951 3.62041 12.7292 -1.71688 17.3136 2.18735C17.3754 2.23994 17.4374 2.29359 17.4998 2.34831C20.4553 4.94148 25.4997 8.13302 29.4457 8.13302C30.0175 8.13302 31.0383 7.97364 32.2573 7.71927C38.0289 6.51498 46.2806 2.88017 48.4325 8.36931C49.9066 12.1294 50.7857 16.5208 49.0168 23.7517C47.2479 30.9826 42.4383 42.6513 31.4997 45.6595C20.2581 48.751 19.5276 48.8168 12 46.8608C3.89667 44.7553 -0.657461 35.057 0.0771146 30.4041Z" fill="#D9D9D9"/>
</svg>
