<svg width="56" height="54" viewBox="0 0 56 54" fill="none" xmlns="http://www.w3.org/2000/svg">
<path d="M47.0907 19.2095C46.6802 15.3226 45.7309 12.0657 44.7197 9.58578C43.3165 6.14474 40.7367 3.21789 37.3295 1.73452C34.3001 0.415661 32.6171 0.0860084 27.5682 1.07516C22.5192 2.0643 19.4898 8.32884 16.7971 12.2854C13.6555 16.9015 9.25998 17.604 7.37237 18.2203C5.75671 18.7479 2.99662 20.5283 1.98682 22.177C-0.705953 25.606 0.86483 28.8812 1.98682 30.0902C2.99661 30.9694 5.08351 33.3873 5.35278 36.0251C5.68938 39.3222 5.01617 42.2897 4.67957 43.6085C4.34298 44.9274 5.01619 48.8839 7.03577 50.8622C7.98767 51.7946 9.18104 52.4295 10.2304 52.8612C11.4296 53.3545 12.7478 53.4409 14.0394 53.3258C15.1964 53.2228 16.3271 52.9266 17.3683 52.4115C19.2451 51.4832 22.0071 50.0568 24.2022 48.884C27.9047 46.9057 36.3196 48.5543 36.9928 48.884C37.666 49.2137 44.7346 50.0709 47.7639 48.884C49.4469 48.2245 52.8129 47.2353 54.8325 43.6084C56.4481 40.7069 54.8324 34.3764 53.1495 31.7387L52.1453 30.0174C50.1495 26.5961 47.8831 23.0904 47.0907 19.2095Z" fill="white"/>
</svg>
