<svg width="14" height="14" viewBox="0 0 14 14" fill="none" xmlns="http://www.w3.org/2000/svg">
<path d="M7 0.5C10.5898 0.5 13.5 3.41023 13.5 7C13.5 10.5898 10.5898 13.5 7 13.5C3.41023 13.5 0.5 10.5898 0.5 7C0.5 3.41023 3.41023 0.5 7 0.5ZM1.38636 7C1.38636 8.48883 1.9778 9.91668 3.03056 10.9694C4.08332 12.0222 5.51117 12.6136 7 12.6136C8.48883 12.6136 9.91668 12.0222 10.9694 10.9694C12.0222 9.91668 12.6136 8.48883 12.6136 7C12.6136 5.51117 12.0222 4.08332 10.9694 3.03056C9.91668 1.9778 8.48883 1.38636 7 1.38636C5.51117 1.38636 4.08332 1.9778 3.03056 3.03056C1.9778 4.08332 1.38636 5.51117 1.38636 7ZM10.6932 7.44318H3.30682C3.18928 7.44318 3.07655 7.39649 2.99344 7.31338C2.91033 7.23026 2.86364 7.11754 2.86364 7C2.86364 6.88246 2.91033 6.76974 2.99344 6.68662C3.07655 6.60351 3.18928 6.55682 3.30682 6.55682H10.6932C10.8107 6.55682 10.9234 6.60351 11.0066 6.68662C11.0897 6.76974 11.1364 6.88246 11.1364 7C11.1364 7.11754 11.0897 7.23026 11.0066 7.31338C10.9234 7.39649 10.8107 7.44318 10.6932 7.44318Z" fill="white"/>
</svg>
