<svg width="10" height="10" viewBox="0 0 10 10" fill="none" xmlns="http://www.w3.org/2000/svg">
<path d="M5.69444 0.833333C5.80495 0.833333 5.91093 0.789435 5.98907 0.711295C6.06721 0.633154 6.11111 0.527174 6.11111 0.416667C6.11111 0.30616 6.06721 0.200179 5.98907 0.122039C5.91093 0.0438986 5.80495 0 5.69444 0H4.30556C4.19505 0 4.08907 0.0438986 4.01093 0.122039C3.93279 0.200179 3.88889 0.30616 3.88889 0.416667C3.88889 0.527174 3.93279 0.633154 4.01093 0.711295C4.08907 0.789435 4.19505 0.833333 4.30556 0.833333H5.69444ZM0.833333 4.30556C0.833333 4.19505 0.789435 4.08907 0.711295 4.01093C0.633154 3.93279 0.527174 3.88889 0.416667 3.88889C0.30616 3.88889 0.200179 3.93279 0.122039 4.01093C0.0438986 4.08907 0 4.19505 0 4.30556V5.69444C0 5.80495 0.0438986 5.91093 0.122039 5.98907C0.200179 6.06721 0.30616 6.11111 0.416667 6.11111C0.527174 6.11111 0.633154 6.06721 0.711295 5.98907C0.789435 5.91093 0.833333 5.80495 0.833333 5.69444V4.30556ZM6.11111 9.58333C6.11111 9.69384 6.06721 9.79982 5.98907 9.87796C5.91093 9.9561 5.80495 10 5.69444 10H4.30556C4.19505 10 4.08907 9.9561 4.01093 9.87796C3.93279 9.79982 3.88889 9.69384 3.88889 9.58333C3.88889 9.47283 3.93279 9.36685 4.01093 9.28871C4.08907 9.21057 4.19505 9.16667 4.30556 9.16667H5.69444C5.80495 9.16667 5.91093 9.21057 5.98907 9.28871C6.06721 9.36685 6.11111 9.47283 6.11111 9.58333ZM1.80556 0C1.91606 0 2.02204 0.0438986 2.10018 0.122039C2.17832 0.200179 2.22222 0.30616 2.22222 0.416667C2.22222 0.527174 2.17832 0.633154 2.10018 0.711295C2.02204 0.789435 1.91606 0.833333 1.80556 0.833333H1.52778C1.14444 0.833333 0.833333 1.14444 0.833333 1.52778V1.80556C0.833333 1.91606 0.789435 2.02204 0.711295 2.10018C0.633154 2.17832 0.527174 2.22222 0.416667 2.22222C0.30616 2.22222 0.200179 2.17832 0.122039 2.10018C0.0438986 2.02204 0 1.91606 0 1.80556V1.52778C0 1.12259 0.160962 0.73399 0.447476 0.447476C0.73399 0.160962 1.12259 0 1.52778 0H1.80556ZM2.22222 9.58333C2.22222 9.69384 2.17832 9.79982 2.10018 9.87796C2.02204 9.9561 1.91606 10 1.80556 10H1.52778C1.12259 10 0.73399 9.83904 0.447476 9.55252C0.160962 9.26601 0 8.87741 0 8.47222V8.19444C0 8.08394 0.0438986 7.97796 0.122039 7.89982C0.200179 7.82168 0.30616 7.77778 0.416667 7.77778C0.527174 7.77778 0.633154 7.82168 0.711295 7.89982C0.789435 7.97796 0.833333 8.08394 0.833333 8.19444V8.47222C0.833333 8.85556 1.14444 9.16667 1.52778 9.16667H1.80556C1.91606 9.16667 2.02204 9.21057 2.10018 9.28871C2.17832 9.36685 2.22222 9.47283 2.22222 9.58333ZM8.19444 0C8.08394 0 7.97796 0.0438986 7.89982 0.122039C7.82168 0.200179 7.77778 0.30616 7.77778 0.416667C7.77778 0.527174 7.82168 0.633154 7.89982 0.711295C7.97796 0.789435 8.08394 0.833333 8.19444 0.833333H8.47222C8.85556 0.833333 9.16667 1.14444 9.16667 1.52778V8.47222C9.16667 8.85556 8.85556 9.16667 8.47222 9.16667H8.19444C8.08394 9.16667 7.97796 9.21057 7.89982 9.28871C7.82168 9.36685 7.77778 9.47283 7.77778 9.58333C7.77778 9.69384 7.82168 9.79982 7.89982 9.87796C7.97796 9.9561 8.08394 10 8.19444 10H8.47222C8.87741 10 9.26601 9.83904 9.55252 9.55252C9.83904 9.26601 10 8.87741 10 8.47222V1.52778C10 1.12259 9.83904 0.73399 9.55252 0.447476C9.26601 0.160962 8.87741 0 8.47222 0H8.19444Z" fill="#B0B0B0"/>
</svg>
