<svg width="350" height="94" viewBox="0 0 350 94" fill="none" xmlns="http://www.w3.org/2000/svg">
<rect width="350" height="93.3551" fill="#00011D"/>
<path d="M76.0918 31L90.2339 45.1421L76.0918 59.2843L61.9497 45.1421L76.0918 31Z" fill="white"/>
<path fill-rule="evenodd" clip-rule="evenodd" d="M67.2319 34.1421L53.0897 20L38.9476 34.1421L53.0708 48.2653L42.1232 59.2129L56.2653 73.3551L70.4075 59.2129L56.2843 45.0897L67.2319 34.1421Z" fill="url(#paint0_linear_241_2)"/>
<path d="M121.078 37.1775C120.67 36.8175 120.154 36.4935 119.53 36.2055C118.906 35.9175 118.222 35.6655 117.478 35.4495C116.758 35.2335 115.99 35.0655 115.174 34.9455C114.358 34.8255 113.554 34.7655 112.762 34.7655C111.106 34.7655 109.858 34.9935 109.018 35.4495C108.202 35.9055 107.794 36.4935 107.794 37.2135C107.794 37.8375 108.154 38.3535 108.874 38.7615C109.594 39.1455 110.482 39.5055 111.538 39.8415C112.618 40.1775 113.782 40.5375 115.03 40.9215C116.302 41.3055 117.466 41.7975 118.522 42.3975C119.602 42.9735 120.502 43.7175 121.222 44.6295C121.942 45.5415 122.302 46.6935 122.302 48.0855C122.302 49.2375 122.038 50.2815 121.51 51.2175C121.006 52.1295 120.262 52.9095 119.278 53.5575C118.294 54.1815 117.094 54.6735 115.678 55.0335C114.262 55.3695 112.666 55.5375 110.89 55.5375C110.05 55.5375 109.174 55.5015 108.262 55.4295C107.35 55.3575 106.462 55.2495 105.598 55.1055C104.758 54.9615 103.978 54.7935 103.258 54.6015C102.538 54.4095 101.95 54.2055 101.494 53.9895L101.71 47.6895C102.118 48.0495 102.646 48.3975 103.294 48.7335C103.966 49.0455 104.71 49.3215 105.526 49.5615C106.342 49.8015 107.182 49.9935 108.046 50.1375C108.934 50.2575 109.798 50.3175 110.638 50.3175C112.654 50.3175 114.118 50.1135 115.03 49.7055C115.942 49.2735 116.398 48.7215 116.398 48.0495C116.398 47.4495 116.038 46.9815 115.318 46.6455C114.598 46.3095 113.698 45.9975 112.618 45.7095C111.538 45.4215 110.374 45.1095 109.126 44.7735C107.878 44.4375 106.714 43.9815 105.634 43.4055C104.554 42.8055 103.654 42.0255 102.934 41.0655C102.214 40.1055 101.854 38.8695 101.854 37.3575C101.854 36.1575 102.106 35.0775 102.61 34.1175C103.138 33.1575 103.87 32.3535 104.806 31.7055C105.742 31.0335 106.87 30.5175 108.19 30.1575C109.534 29.7975 111.022 29.6175 112.654 29.6175C113.398 29.6175 114.166 29.6655 114.958 29.7615C115.75 29.8335 116.518 29.9415 117.262 30.0855C118.03 30.2295 118.75 30.4095 119.422 30.6255C120.094 30.8415 120.682 31.0815 121.186 31.3455L121.078 37.1775ZM144.243 63.0975H138.663V54.2415C137.967 54.6495 137.199 54.9615 136.359 55.1775C135.519 55.4175 134.631 55.5375 133.695 55.5375C132.327 55.5375 131.079 55.3095 129.951 54.8535C128.823 54.3735 127.851 53.7135 127.035 52.8735C126.219 52.0095 125.583 51.0015 125.127 49.8495C124.671 48.6735 124.443 47.4015 124.443 46.0335C124.443 44.6175 124.671 43.3335 125.127 42.1815C125.583 41.0055 126.207 39.9975 126.999 39.1575C127.815 38.2935 128.787 37.6335 129.915 37.1775C131.067 36.6975 132.327 36.4575 133.695 36.4575C134.631 36.4575 135.519 36.5775 136.359 36.8175C137.199 37.0335 137.967 37.3455 138.663 37.7535V36.8175H144.243V63.0975ZM134.415 50.8575C135.711 50.8575 136.731 50.4255 137.475 49.5615C138.243 48.6735 138.627 47.4975 138.627 46.0335C138.627 44.5455 138.243 43.3575 137.475 42.4695C136.707 41.5815 135.675 41.1375 134.379 41.1375C133.083 41.1375 132.063 41.5815 131.319 42.4695C130.575 43.3575 130.203 44.5455 130.203 46.0335C130.203 47.4975 130.575 48.6735 131.319 49.5615C132.087 50.4255 133.119 50.8575 134.415 50.8575ZM161.661 36.8175H167.241V55.1775H161.661V53.9175C159.957 54.9975 158.013 55.5375 155.829 55.5375C154.629 55.5375 153.537 55.3575 152.553 54.9975C151.569 54.6375 150.729 54.1215 150.033 53.4495C149.337 52.7775 148.797 51.9735 148.413 51.0375C148.053 50.0775 147.873 49.0095 147.873 47.8335V36.8175H153.453V47.5455C153.453 48.6015 153.753 49.4175 154.353 49.9935C154.977 50.5695 155.829 50.8575 156.909 50.8575C158.397 50.8575 159.561 50.3775 160.401 49.4175C161.241 48.4575 161.661 47.1375 161.661 45.4575V36.8175ZM189.946 36.8175V55.1775H184.366V54.2415C183.67 54.6495 182.902 54.9615 182.062 55.1775C181.246 55.4175 180.37 55.5375 179.434 55.5375C178.066 55.5375 176.806 55.3095 175.654 54.8535C174.526 54.3735 173.554 53.7135 172.738 52.8735C171.922 52.0095 171.286 50.9895 170.83 49.8135C170.374 48.6375 170.146 47.3535 170.146 45.9615C170.146 44.5935 170.374 43.3335 170.83 42.1815C171.286 41.0055 171.922 39.9975 172.738 39.1575C173.554 38.2935 174.526 37.6335 175.654 37.1775C176.806 36.6975 178.066 36.4575 179.434 36.4575C180.37 36.4575 181.246 36.5775 182.062 36.8175C182.902 37.0335 183.67 37.3455 184.366 37.7535V36.8175H189.946ZM180.118 41.1375C178.822 41.1375 177.79 41.5815 177.022 42.4695C176.278 43.3335 175.906 44.4975 175.906 45.9615C175.906 47.4495 176.278 48.6375 177.022 49.5255C177.79 50.4135 178.822 50.8575 180.118 50.8575C181.414 50.8575 182.434 50.4135 183.178 49.5255C183.946 48.6375 184.33 47.4495 184.33 45.9615C184.33 44.4975 183.946 43.3335 183.178 42.4695C182.434 41.5815 181.414 41.1375 180.118 41.1375ZM206.825 36.8535L206.501 41.5695C206.237 41.4975 205.841 41.4375 205.313 41.3895C204.809 41.3415 204.353 41.3175 203.945 41.3175C202.385 41.3175 201.221 41.7015 200.453 42.4695C199.709 43.2135 199.337 44.2815 199.337 45.6735V55.1775H193.757V36.8175H199.337V38.1855C199.913 37.6335 200.609 37.2135 201.425 36.9255C202.241 36.6135 203.093 36.4575 203.981 36.4575C204.389 36.4575 204.857 36.4935 205.385 36.5655C205.913 36.6375 206.393 36.7335 206.825 36.8535ZM213.988 47.9055C214.348 48.8175 214.912 49.5375 215.68 50.0655C216.472 50.5935 217.42 50.8575 218.524 50.8575C219.388 50.8575 220.228 50.7255 221.044 50.4615C221.86 50.1975 222.508 49.8135 222.988 49.3095L225.616 52.9095C224.68 53.8215 223.588 54.4935 222.34 54.9255C221.116 55.3335 219.76 55.5375 218.272 55.5375C216.76 55.5375 215.368 55.2975 214.096 54.8175C212.824 54.3375 211.72 53.6775 210.784 52.8375C209.872 51.9735 209.152 50.9535 208.624 49.7775C208.12 48.5775 207.868 47.2815 207.868 45.8895C207.868 44.5215 208.108 43.2615 208.588 42.1095C209.068 40.9575 209.74 39.9615 210.604 39.1215C211.468 38.2815 212.488 37.6335 213.664 37.1775C214.864 36.6975 216.172 36.4575 217.588 36.4575C219.004 36.4575 220.3 36.6855 221.476 37.1415C222.652 37.5735 223.672 38.1975 224.536 39.0135C225.4 39.8055 226.072 40.7535 226.552 41.8575C227.032 42.9615 227.272 44.1615 227.272 45.4575C227.272 45.8655 227.248 46.2735 227.2 46.6815C227.152 47.0895 227.104 47.4975 227.056 47.9055H213.988ZM221.656 44.0535C221.584 43.1415 221.188 42.4095 220.468 41.8575C219.748 41.3055 218.848 41.0295 217.768 41.0295C216.784 41.0295 215.944 41.3055 215.248 41.8575C214.576 42.3855 214.108 43.1175 213.844 44.0535H221.656ZM244.105 50.4975C245.449 50.4975 246.721 50.2455 247.921 49.7415C249.121 49.2375 250.177 48.4935 251.089 47.5095V53.8455C250.081 54.3975 248.989 54.8175 247.813 55.1055C246.661 55.3935 245.401 55.5375 244.033 55.5375C242.017 55.5375 240.169 55.2255 238.489 54.6015C236.809 53.9535 235.357 53.0535 234.133 51.9015C232.909 50.7495 231.949 49.3815 231.253 47.7975C230.581 46.2135 230.245 44.4735 230.245 42.5775C230.245 40.6815 230.581 38.9415 231.253 37.3575C231.925 35.7735 232.861 34.4055 234.061 33.2535C235.285 32.1015 236.725 31.2135 238.381 30.5895C240.037 29.9415 241.849 29.6175 243.817 29.6175C245.113 29.6175 246.313 29.7615 247.417 30.0495C248.521 30.3135 249.553 30.6855 250.513 31.1655L250.405 37.6815C249.637 36.7935 248.689 36.0735 247.561 35.5215C246.433 34.9455 245.149 34.6575 243.709 34.6575C242.581 34.6575 241.549 34.8495 240.613 35.2335C239.701 35.5935 238.909 36.1215 238.237 36.8175C237.589 37.4895 237.085 38.3055 236.725 39.2655C236.365 40.2255 236.185 41.3055 236.185 42.5055C236.185 43.7295 236.377 44.8335 236.761 45.8175C237.145 46.8015 237.673 47.6415 238.345 48.3375C239.041 49.0335 239.881 49.5735 240.865 49.9575C241.849 50.3175 242.929 50.4975 244.105 50.4975ZM266.907 36.8535L266.583 41.5695C266.319 41.4975 265.923 41.4375 265.395 41.3895C264.891 41.3415 264.435 41.3175 264.027 41.3175C262.467 41.3175 261.303 41.7015 260.535 42.4695C259.791 43.2135 259.419 44.2815 259.419 45.6735V55.1775H253.839V36.8175H259.419V38.1855C259.995 37.6335 260.691 37.2135 261.507 36.9255C262.323 36.6135 263.175 36.4575 264.063 36.4575C264.471 36.4575 264.939 36.4935 265.467 36.5655C265.995 36.6375 266.475 36.7335 266.907 36.8535ZM287.75 36.8175V55.1775H282.17V54.2415C281.474 54.6495 280.706 54.9615 279.866 55.1775C279.05 55.4175 278.174 55.5375 277.238 55.5375C275.87 55.5375 274.61 55.3095 273.458 54.8535C272.33 54.3735 271.358 53.7135 270.542 52.8735C269.726 52.0095 269.09 50.9895 268.634 49.8135C268.178 48.6375 267.95 47.3535 267.95 45.9615C267.95 44.5935 268.178 43.3335 268.634 42.1815C269.09 41.0055 269.726 39.9975 270.542 39.1575C271.358 38.2935 272.33 37.6335 273.458 37.1775C274.61 36.6975 275.87 36.4575 277.238 36.4575C278.174 36.4575 279.05 36.5775 279.866 36.8175C280.706 37.0335 281.474 37.3455 282.17 37.7535V36.8175H287.75ZM277.922 41.1375C276.626 41.1375 275.594 41.5815 274.826 42.4695C274.082 43.3335 273.71 44.4975 273.71 45.9615C273.71 47.4495 274.082 48.6375 274.826 49.5255C275.594 50.4135 276.626 50.8575 277.922 50.8575C279.218 50.8575 280.238 50.4135 280.982 49.5255C281.75 48.6375 282.134 47.4495 282.134 45.9615C282.134 44.4975 281.75 43.3335 280.982 42.4695C280.238 41.5815 279.218 41.1375 277.922 41.1375ZM303.757 32.7135C303.493 32.6655 303.145 32.6415 302.713 32.6415C302.305 32.6175 301.969 32.6055 301.705 32.6055C300.553 32.6055 299.653 32.9175 299.005 33.5415C298.357 34.1655 298.033 35.0415 298.033 36.1695V36.8175H303.145V41.4255H298.033V55.1775H292.453V41.4255H290.473V36.8175H292.453V36.2775C292.453 35.0535 292.657 33.9375 293.065 32.9295C293.473 31.8975 294.037 31.0215 294.757 30.3015C295.477 29.5575 296.341 28.9935 297.349 28.6095C298.381 28.2015 299.509 27.9975 300.733 27.9975C301.117 27.9975 301.585 28.0215 302.137 28.0695C302.713 28.0935 303.241 28.1295 303.721 28.1775L303.757 32.7135ZM318.739 41.4255H313.843V48.0495C313.843 49.9215 314.767 50.8575 316.615 50.8575C316.879 50.8575 317.239 50.8455 317.695 50.8215C318.175 50.7735 318.727 50.7015 319.351 50.6055L319.711 55.2495C319.375 55.2975 318.991 55.3335 318.559 55.3575C318.151 55.3815 317.731 55.4055 317.299 55.4295C316.891 55.4775 316.507 55.5015 316.147 55.5015C315.787 55.5255 315.499 55.5375 315.283 55.5375C313.003 55.5375 311.263 54.9135 310.063 53.6655C308.863 52.4175 308.263 50.5935 308.263 48.1935V41.4255H305.023V36.8175H308.263V31.7775H313.843V36.8175H318.739V41.4255Z" fill="white"/>
<defs>
<linearGradient id="paint0_linear_241_2" x1="70.6017" y1="33.6474" x2="43.7316" y2="60.5175" gradientUnits="userSpaceOnUse">
<stop stop-color="#F08234"/>
<stop offset="1" stop-color="#ED6E22"/>
</linearGradient>
</defs>
</svg>
