<svg width="294" height="54" viewBox="0 0 294 54" fill="none" xmlns="http://www.w3.org/2000/svg">
<path d="M48.0918 11L62.2339 25.1421L48.0918 39.2843L33.9497 25.1421L48.0918 11Z" fill="white"/>
<path fill-rule="evenodd" clip-rule="evenodd" d="M39.2319 14.1421L25.0897 0L10.9476 14.1421L25.0708 28.2653L14.1232 39.2129L28.2653 53.3551L42.4075 39.2129L28.2843 25.0897L39.2319 14.1421Z" fill="url(#paint0_linear_366_982)"/>
<path d="M93.0779 17.1775C92.6699 16.8175 92.1539 16.4935 91.5299 16.2055C90.9059 15.9175 90.2219 15.6655 89.4779 15.4495C88.7579 15.2335 87.9899 15.0655 87.1739 14.9455C86.3579 14.8255 85.5539 14.7655 84.7619 14.7655C83.1059 14.7655 81.8579 14.9935 81.0179 15.4495C80.2019 15.9055 79.7939 16.4935 79.7939 17.2135C79.7939 17.8375 80.1539 18.3535 80.8739 18.7615C81.5939 19.1455 82.4819 19.5055 83.5379 19.8415C84.6179 20.1775 85.7819 20.5375 87.0299 20.9215C88.3019 21.3055 89.4659 21.7975 90.5219 22.3975C91.6019 22.9735 92.5019 23.7175 93.2219 24.6295C93.9419 25.5415 94.3019 26.6935 94.3019 28.0855C94.3019 29.2375 94.0379 30.2815 93.5099 31.2175C93.0059 32.1295 92.2619 32.9095 91.2779 33.5575C90.2939 34.1815 89.0939 34.6735 87.6779 35.0335C86.2619 35.3695 84.6659 35.5375 82.8899 35.5375C82.0499 35.5375 81.1739 35.5015 80.2619 35.4295C79.3499 35.3575 78.4619 35.2495 77.5979 35.1055C76.7579 34.9615 75.9779 34.7935 75.2579 34.6015C74.5379 34.4095 73.9499 34.2055 73.4939 33.9895L73.7099 27.6895C74.1179 28.0495 74.6459 28.3975 75.2939 28.7335C75.9659 29.0455 76.7099 29.3215 77.5259 29.5615C78.3419 29.8015 79.1819 29.9935 80.0459 30.1375C80.9339 30.2575 81.7979 30.3175 82.6379 30.3175C84.6539 30.3175 86.1179 30.1135 87.0299 29.7055C87.9419 29.2735 88.3979 28.7215 88.3979 28.0495C88.3979 27.4495 88.0379 26.9815 87.3179 26.6455C86.5979 26.3095 85.6979 25.9975 84.6179 25.7095C83.5379 25.4215 82.3739 25.1095 81.1259 24.7735C79.8779 24.4375 78.7139 23.9815 77.6339 23.4055C76.5539 22.8055 75.6539 22.0255 74.9339 21.0655C74.2139 20.1055 73.8539 18.8695 73.8539 17.3575C73.8539 16.1575 74.1059 15.0775 74.6099 14.1175C75.1379 13.1575 75.8699 12.3535 76.8059 11.7055C77.7419 11.0335 78.8699 10.5175 80.1899 10.1575C81.5339 9.79749 83.0219 9.61749 84.6539 9.61749C85.3979 9.61749 86.1659 9.66549 86.9579 9.76149C87.7499 9.83349 88.5179 9.94149 89.2619 10.0855C90.0299 10.2295 90.7499 10.4095 91.4219 10.6255C92.0939 10.8415 92.6819 11.0815 93.1859 11.3455L93.0779 17.1775ZM116.243 43.0975H110.663V34.2415C109.967 34.6495 109.199 34.9615 108.359 35.1775C107.519 35.4175 106.631 35.5375 105.695 35.5375C104.327 35.5375 103.079 35.3095 101.951 34.8535C100.823 34.3735 99.8505 33.7135 99.0345 32.8735C98.2185 32.0095 97.5825 31.0015 97.1265 29.8495C96.6705 28.6735 96.4425 27.4015 96.4425 26.0335C96.4425 24.6175 96.6705 23.3335 97.1265 22.1815C97.5825 21.0055 98.2065 19.9975 98.9985 19.1575C99.8145 18.2935 100.787 17.6335 101.915 17.1775C103.067 16.6975 104.327 16.4575 105.695 16.4575C106.631 16.4575 107.519 16.5775 108.359 16.8175C109.199 17.0335 109.967 17.3455 110.663 17.7535V16.8175H116.243V43.0975ZM106.415 30.8575C107.711 30.8575 108.731 30.4255 109.475 29.5615C110.243 28.6735 110.627 27.4975 110.627 26.0335C110.627 24.5455 110.243 23.3575 109.475 22.4695C108.707 21.5815 107.675 21.1375 106.379 21.1375C105.083 21.1375 104.063 21.5815 103.319 22.4695C102.575 23.3575 102.203 24.5455 102.203 26.0335C102.203 27.4975 102.575 28.6735 103.319 29.5615C104.087 30.4255 105.119 30.8575 106.415 30.8575ZM133.661 16.8175H139.241V35.1775H133.661V33.9175C131.957 34.9975 130.013 35.5375 127.829 35.5375C126.629 35.5375 125.537 35.3575 124.553 34.9975C123.569 34.6375 122.729 34.1215 122.033 33.4495C121.337 32.7775 120.797 31.9735 120.413 31.0375C120.053 30.0775 119.873 29.0095 119.873 27.8335V16.8175H125.453V27.5455C125.453 28.6015 125.753 29.4175 126.353 29.9935C126.977 30.5695 127.829 30.8575 128.909 30.8575C130.397 30.8575 131.561 30.3775 132.401 29.4175C133.241 28.4575 133.661 27.1375 133.661 25.4575V16.8175ZM161.946 16.8175V35.1775H156.366V34.2415C155.67 34.6495 154.902 34.9615 154.062 35.1775C153.246 35.4175 152.37 35.5375 151.434 35.5375C150.066 35.5375 148.806 35.3095 147.654 34.8535C146.526 34.3735 145.554 33.7135 144.738 32.8735C143.922 32.0095 143.286 30.9895 142.83 29.8135C142.374 28.6375 142.146 27.3535 142.146 25.9615C142.146 24.5935 142.374 23.3335 142.83 22.1815C143.286 21.0055 143.922 19.9975 144.738 19.1575C145.554 18.2935 146.526 17.6335 147.654 17.1775C148.806 16.6975 150.066 16.4575 151.434 16.4575C152.37 16.4575 153.246 16.5775 154.062 16.8175C154.902 17.0335 155.67 17.3455 156.366 17.7535V16.8175H161.946ZM152.118 21.1375C150.822 21.1375 149.79 21.5815 149.022 22.4695C148.278 23.3335 147.906 24.4975 147.906 25.9615C147.906 27.4495 148.278 28.6375 149.022 29.5255C149.79 30.4135 150.822 30.8575 152.118 30.8575C153.414 30.8575 154.434 30.4135 155.178 29.5255C155.946 28.6375 156.33 27.4495 156.33 25.9615C156.33 24.4975 155.946 23.3335 155.178 22.4695C154.434 21.5815 153.414 21.1375 152.118 21.1375ZM178.825 16.8535L178.501 21.5695C178.237 21.4975 177.841 21.4375 177.313 21.3895C176.809 21.3415 176.353 21.3175 175.945 21.3175C174.385 21.3175 173.221 21.7015 172.453 22.4695C171.709 23.2135 171.337 24.2815 171.337 25.6735V35.1775H165.757V16.8175H171.337V18.1855C171.913 17.6335 172.609 17.2135 173.425 16.9255C174.241 16.6135 175.093 16.4575 175.981 16.4575C176.389 16.4575 176.857 16.4935 177.385 16.5655C177.913 16.6375 178.393 16.7335 178.825 16.8535ZM185.988 27.9055C186.348 28.8175 186.912 29.5375 187.68 30.0655C188.472 30.5935 189.42 30.8575 190.524 30.8575C191.388 30.8575 192.228 30.7255 193.044 30.4615C193.86 30.1975 194.508 29.8135 194.988 29.3095L197.616 32.9095C196.68 33.8215 195.588 34.4935 194.34 34.9255C193.116 35.3335 191.76 35.5375 190.272 35.5375C188.76 35.5375 187.368 35.2975 186.096 34.8175C184.824 34.3375 183.72 33.6775 182.784 32.8375C181.872 31.9735 181.152 30.9535 180.624 29.7775C180.12 28.5775 179.868 27.2815 179.868 25.8895C179.868 24.5215 180.108 23.2615 180.588 22.1095C181.068 20.9575 181.74 19.9615 182.604 19.1215C183.468 18.2815 184.488 17.6335 185.664 17.1775C186.864 16.6975 188.172 16.4575 189.588 16.4575C191.004 16.4575 192.3 16.6855 193.476 17.1415C194.652 17.5735 195.672 18.1975 196.536 19.0135C197.4 19.8055 198.072 20.7535 198.552 21.8575C199.032 22.9615 199.272 24.1615 199.272 25.4575C199.272 25.8655 199.248 26.2735 199.2 26.6815C199.152 27.0895 199.104 27.4975 199.056 27.9055H185.988ZM193.656 24.0535C193.584 23.1415 193.188 22.4095 192.468 21.8575C191.748 21.3055 190.848 21.0295 189.768 21.0295C188.784 21.0295 187.944 21.3055 187.248 21.8575C186.576 22.3855 186.108 23.1175 185.844 24.0535H193.656ZM216.105 30.4975C217.449 30.4975 218.721 30.2455 219.921 29.7415C221.121 29.2375 222.177 28.4935 223.089 27.5095V33.8455C222.081 34.3975 220.989 34.8175 219.813 35.1055C218.661 35.3935 217.401 35.5375 216.033 35.5375C214.017 35.5375 212.169 35.2255 210.489 34.6015C208.809 33.9535 207.357 33.0535 206.133 31.9015C204.909 30.7495 203.949 29.3815 203.253 27.7975C202.581 26.2135 202.245 24.4735 202.245 22.5775C202.245 20.6815 202.581 18.9415 203.253 17.3575C203.925 15.7735 204.861 14.4055 206.061 13.2535C207.285 12.1015 208.725 11.2135 210.381 10.5895C212.037 9.94149 213.849 9.61749 215.817 9.61749C217.113 9.61749 218.313 9.76149 219.417 10.0495C220.521 10.3135 221.553 10.6855 222.513 11.1655L222.405 17.6815C221.637 16.7935 220.689 16.0735 219.561 15.5215C218.433 14.9455 217.149 14.6575 215.709 14.6575C214.581 14.6575 213.549 14.8495 212.613 15.2335C211.701 15.5935 210.909 16.1215 210.237 16.8175C209.589 17.4895 209.085 18.3055 208.725 19.2655C208.365 20.2255 208.185 21.3055 208.185 22.5055C208.185 23.7295 208.377 24.8335 208.761 25.8175C209.145 26.8015 209.673 27.6415 210.345 28.3375C211.041 29.0335 211.881 29.5735 212.865 29.9575C213.849 30.3175 214.929 30.4975 216.105 30.4975ZM238.907 16.8535L238.583 21.5695C238.319 21.4975 237.923 21.4375 237.395 21.3895C236.891 21.3415 236.435 21.3175 236.027 21.3175C234.467 21.3175 233.303 21.7015 232.535 22.4695C231.791 23.2135 231.419 24.2815 231.419 25.6735V35.1775H225.839V16.8175H231.419V18.1855C231.995 17.6335 232.691 17.2135 233.507 16.9255C234.323 16.6135 235.175 16.4575 236.063 16.4575C236.471 16.4575 236.939 16.4935 237.467 16.5655C237.995 16.6375 238.475 16.7335 238.907 16.8535ZM259.75 16.8175V35.1775H254.17V34.2415C253.474 34.6495 252.706 34.9615 251.866 35.1775C251.05 35.4175 250.174 35.5375 249.238 35.5375C247.87 35.5375 246.61 35.3095 245.458 34.8535C244.33 34.3735 243.358 33.7135 242.542 32.8735C241.726 32.0095 241.09 30.9895 240.634 29.8135C240.178 28.6375 239.95 27.3535 239.95 25.9615C239.95 24.5935 240.178 23.3335 240.634 22.1815C241.09 21.0055 241.726 19.9975 242.542 19.1575C243.358 18.2935 244.33 17.6335 245.458 17.1775C246.61 16.6975 247.87 16.4575 249.238 16.4575C250.174 16.4575 251.05 16.5775 251.866 16.8175C252.706 17.0335 253.474 17.3455 254.17 17.7535V16.8175H259.75ZM249.922 21.1375C248.626 21.1375 247.594 21.5815 246.826 22.4695C246.082 23.3335 245.71 24.4975 245.71 25.9615C245.71 27.4495 246.082 28.6375 246.826 29.5255C247.594 30.4135 248.626 30.8575 249.922 30.8575C251.218 30.8575 252.238 30.4135 252.982 29.5255C253.75 28.6375 254.134 27.4495 254.134 25.9615C254.134 24.4975 253.75 23.3335 252.982 22.4695C252.238 21.5815 251.218 21.1375 249.922 21.1375ZM275.757 12.7135C275.493 12.6655 275.145 12.6415 274.713 12.6415C274.305 12.6175 273.969 12.6055 273.705 12.6055C272.553 12.6055 271.653 12.9175 271.005 13.5415C270.357 14.1655 270.033 15.0415 270.033 16.1695V16.8175H275.145V21.4255H270.033V35.1775H264.453V21.4255H262.473V16.8175H264.453V16.2775C264.453 15.0535 264.657 13.9375 265.065 12.9295C265.473 11.8975 266.037 11.0215 266.757 10.3015C267.477 9.55749 268.341 8.99349 269.349 8.60949C270.381 8.20149 271.509 7.99749 272.733 7.99749C273.117 7.99749 273.585 8.02149 274.137 8.06949C274.713 8.09349 275.241 8.12949 275.721 8.17749L275.757 12.7135ZM290.739 21.4255H285.843V28.0495C285.843 29.9215 286.767 30.8575 288.615 30.8575C288.879 30.8575 289.239 30.8455 289.695 30.8215C290.175 30.7735 290.727 30.7015 291.351 30.6055L291.711 35.2495C291.375 35.2975 290.991 35.3335 290.559 35.3575C290.151 35.3815 289.731 35.4055 289.299 35.4295C288.891 35.4775 288.507 35.5015 288.147 35.5015C287.787 35.5255 287.499 35.5375 287.283 35.5375C285.003 35.5375 283.263 34.9135 282.063 33.6655C280.863 32.4175 280.263 30.5935 280.263 28.1935V21.4255H277.023V16.8175H280.263V11.7775H285.843V16.8175H290.739V21.4255Z" fill="white"/>
<defs>
<linearGradient id="paint0_linear_366_982" x1="42.6017" y1="13.6474" x2="15.7316" y2="40.5175" gradientUnits="userSpaceOnUse">
<stop stop-color="#F08234"/>
<stop offset="1" stop-color="#ED6E22"/>
</linearGradient>
</defs>
</svg>
