<svg width="35" height="35" viewBox="0 0 35 35" fill="none" xmlns="http://www.w3.org/2000/svg">
<rect width="35" height="35" rx="5" fill="#3D3D3D"/>
<path d="M16.75 21.5H13.75C12.7125 21.5 11.8283 21.1099 11.0973 20.3296C10.3663 19.5493 10.0005 18.6061 10 17.5C9.9995 16.3939 10.3653 15.4507 11.0973 14.6704C11.8293 13.8901 12.7135 13.5 13.75 13.5H16.75V15.1H13.75C13.125 15.1 12.5938 15.3333 12.1563 15.8C11.7188 16.2667 11.5 16.8333 11.5 17.5C11.5 18.1667 11.7188 18.7333 12.1563 19.2C12.5938 19.6667 13.125 19.9 13.75 19.9H16.75V21.5ZM14.5 18.3V16.7H20.5V18.3H14.5ZM18.25 21.5V19.9H21.25C21.875 19.9 22.4063 19.6667 22.8438 19.2C23.2813 18.7333 23.5 18.1667 23.5 17.5C23.5 16.8333 23.2813 16.2667 22.8438 15.8C22.4063 15.3333 21.875 15.1 21.25 15.1H18.25V13.5H21.25C22.2875 13.5 23.172 13.8901 23.9035 14.6704C24.635 15.4507 25.0005 16.3939 25 17.5C24.9995 18.6061 24.6338 19.5496 23.9028 20.3304C23.1718 21.1112 22.2875 21.5011 21.25 21.5H18.25Z" fill="#F6B67B"/>
</svg>
