<svg width="17" height="17" viewBox="0 0 17 17" fill="none" xmlns="http://www.w3.org/2000/svg">
<path d="M1 6.33333V1.5C1 1.36739 1.05268 1.24021 1.14645 1.14645C1.24021 1.05268 1.36739 1 1.5 1H15.5C15.6326 1 15.7598 1.05268 15.8536 1.14645C15.9473 1.24021 16 1.36739 16 1.5V6.33333C16 6.46594 15.9473 6.59312 15.8536 6.68689C15.7598 6.78065 15.6326 6.83333 15.5 6.83333H1.5C1.36739 6.83333 1.24021 6.78065 1.14645 6.68689C1.05268 6.59312 1 6.46594 1 6.33333ZM10.1667 15.5V10.6667C10.1667 10.5341 10.2193 10.4069 10.3131 10.3131C10.4069 10.2193 10.5341 10.1667 10.6667 10.1667H15.5C15.6326 10.1667 15.7598 10.2193 15.8536 10.3131C15.9473 10.4069 16 10.5341 16 10.6667V15.5C16 15.6326 15.9473 15.7598 15.8536 15.8536C15.7598 15.9473 15.6326 16 15.5 16H10.6667C10.5341 16 10.4069 15.9473 10.3131 15.8536C10.2193 15.7598 10.1667 15.6326 10.1667 15.5ZM1 15.5V10.6667C1 10.5341 1.05268 10.4069 1.14645 10.3131C1.24021 10.2193 1.36739 10.1667 1.5 10.1667H6.33333C6.46594 10.1667 6.59312 10.2193 6.68689 10.3131C6.78065 10.4069 6.83333 10.5341 6.83333 10.6667V15.5C6.83333 15.6326 6.78065 15.7598 6.68689 15.8536C6.59312 15.9473 6.46594 16 6.33333 16H1.5C1.36739 16 1.24021 15.9473 1.14645 15.8536C1.05268 15.7598 1 15.6326 1 15.5Z" stroke="#FDECD7"/>
</svg>
