<svg width="11" height="10" viewBox="0 0 11 10" fill="none" xmlns="http://www.w3.org/2000/svg">
<path d="M0.5 1.80556C0.5 1.91606 0.543899 2.02204 0.622039 2.10018C0.700179 2.17832 0.80616 2.22222 0.916667 2.22222C1.02717 2.22222 1.13315 2.17832 1.21129 2.10018C1.28943 2.02204 1.33333 1.91606 1.33333 1.80556V1.52778C1.33333 1.14444 1.64444 0.833333 2.02778 0.833333H8.97222C9.35556 0.833333 9.66667 1.14444 9.66667 1.52778V1.80556C9.66667 1.91606 9.71057 2.02204 9.78871 2.10018C9.86685 2.17832 9.97283 2.22222 10.0833 2.22222C10.1938 2.22222 10.2998 2.17832 10.378 2.10018C10.4561 2.02204 10.5 1.91606 10.5 1.80556V1.52778C10.5 1.12259 10.339 0.73399 10.0525 0.447476C9.76601 0.160962 9.37741 0 8.97222 0H2.02778C1.62259 0 1.23399 0.160962 0.947476 0.447476C0.660962 0.73399 0.5 1.12259 0.5 1.52778V1.80556ZM1.33333 4.30556C1.33333 4.19505 1.28943 4.08907 1.21129 4.01093C1.13315 3.93279 1.02717 3.88889 0.916667 3.88889C0.80616 3.88889 0.700179 3.93279 0.622039 4.01093C0.543899 4.08907 0.5 4.19505 0.5 4.30556V5.69444C0.5 5.80495 0.543899 5.91093 0.622039 5.98907C0.700179 6.06721 0.80616 6.11111 0.916667 6.11111C1.02717 6.11111 1.13315 6.06721 1.21129 5.98907C1.28943 5.91093 1.33333 5.80495 1.33333 5.69444V4.30556ZM9.66667 4.30556C9.66667 4.19505 9.71057 4.08907 9.78871 4.01093C9.86685 3.93279 9.97283 3.88889 10.0833 3.88889C10.1938 3.88889 10.2998 3.93279 10.378 4.01093C10.4561 4.08907 10.5 4.19505 10.5 4.30556V5.69444C10.5 5.80495 10.4561 5.91093 10.378 5.98907C10.2998 6.06721 10.1938 6.11111 10.0833 6.11111C9.97283 6.11111 9.86685 6.06721 9.78871 5.98907C9.71057 5.91093 9.66667 5.80495 9.66667 5.69444V4.30556ZM6.61111 9.58333C6.61111 9.69384 6.56721 9.79982 6.48907 9.87796C6.41093 9.9561 6.30495 10 6.19444 10H4.80556C4.69505 10 4.58907 9.9561 4.51093 9.87796C4.43279 9.79982 4.38889 9.69384 4.38889 9.58333C4.38889 9.47283 4.43279 9.36685 4.51093 9.28871C4.58907 9.21057 4.69505 9.16667 4.80556 9.16667H6.19444C6.30495 9.16667 6.41093 9.21057 6.48907 9.28871C6.56721 9.36685 6.61111 9.47283 6.61111 9.58333ZM2.30556 10C2.41606 10 2.52204 9.9561 2.60018 9.87796C2.67832 9.79982 2.72222 9.69384 2.72222 9.58333C2.72222 9.47283 2.67832 9.36685 2.60018 9.28871C2.52204 9.21057 2.41606 9.16667 2.30556 9.16667H2.02778C1.64444 9.16667 1.33333 8.85556 1.33333 8.47222V8.19444C1.33333 8.08394 1.28943 7.97796 1.21129 7.89982C1.13315 7.82168 1.02717 7.77778 0.916667 7.77778C0.80616 7.77778 0.700179 7.82168 0.622039 7.89982C0.543899 7.97796 0.5 8.08394 0.5 8.19444V8.47222C0.5 8.87741 0.660962 9.26601 0.947476 9.55252C1.23399 9.83904 1.62259 10 2.02778 10H2.30556ZM8.27778 9.58333C8.27778 9.81333 8.46444 10 8.69444 10H8.97222C9.37741 10 9.76601 9.83904 10.0525 9.55252C10.339 9.26601 10.5 8.87741 10.5 8.47222V8.19444C10.5 8.08394 10.4561 7.97796 10.378 7.89982C10.2998 7.82168 10.1938 7.77778 10.0833 7.77778C9.97283 7.77778 9.86685 7.82168 9.78871 7.89982C9.71057 7.97796 9.66667 8.08394 9.66667 8.19444V8.47222C9.66667 8.85556 9.35556 9.16667 8.97222 9.16667H8.69444C8.58394 9.16667 8.47796 9.21057 8.39982 9.28871C8.32168 9.36685 8.27778 9.47283 8.27778 9.58333Z" fill="#B0B0B0"/>
</svg>
