<svg width="11" height="4" viewBox="0 0 11 4" fill="none" xmlns="http://www.w3.org/2000/svg">
<path d="M5.50019 0.730774C4.80042 0.730774 4.23096 1.30024 4.23096 2.00001C4.23096 2.69977 4.80042 3.26924 5.50019 3.26924C6.19996 3.26924 6.76942 2.69977 6.76942 2.00001C6.76942 1.30024 6.19996 0.730774 5.50019 0.730774Z" fill="#B0B0B0"/>
<path d="M1.26923 0.730774C0.569462 0.730774 0 1.30024 0 2.00001C0 2.69977 0.569462 3.26924 1.26923 3.26924C1.969 3.26924 2.53846 2.69977 2.53846 2.00001C2.53846 1.30024 1.969 0.730774 1.26923 0.730774Z" fill="#B0B0B0"/>
<path d="M9.73066 0.730774C9.03089 0.730774 8.46143 1.30024 8.46143 2.00001C8.46143 2.69977 9.03089 3.26924 9.73066 3.26924C10.4304 3.26924 10.9999 2.69977 10.9999 2.00001C10.9999 1.30024 10.4304 0.730774 9.73066 0.730774Z" fill="#B0B0B0"/>
</svg>
