<svg width="69" height="68" viewBox="0 0 69 68" fill="none" xmlns="http://www.w3.org/2000/svg">
<g filter="url(#filter0_d_2027_122)">
<rect x="15.4414" y="11" width="37.7208" height="37.7208" rx="3" fill="#3D3D3D" shape-rendering="crispEdges"/>
<path d="M34.3018 20.8604C39.2723 20.8604 43.3018 24.8898 43.3018 29.8604C43.3018 34.8309 39.2723 38.8604 34.3018 38.8604C29.3312 38.8604 25.3018 34.8309 25.3018 29.8604C25.3018 24.8898 29.3312 20.8604 34.3018 20.8604ZM35.3018 25.1104C34.8875 25.1104 34.5518 25.4461 34.5518 25.8604C34.5518 26.2746 34.8875 26.6104 35.3018 26.6104H36.4912L31.0518 32.0498V30.8604C31.0518 30.4461 30.716 30.1104 30.3018 30.1104C29.8875 30.1104 29.5518 30.4461 29.5518 30.8604V33.8604C29.5518 34.2746 29.8875 34.6104 30.3018 34.6104H33.3018C33.716 34.6104 34.0518 34.2746 34.0518 33.8604C34.0518 33.4461 33.716 33.1104 33.3018 33.1104H32.1123L37.5518 27.6709V28.8604C37.5518 29.2746 37.8875 29.6104 38.3018 29.6104C38.716 29.6104 39.0518 29.2746 39.0518 28.8604V25.8604C39.0518 25.4461 38.716 25.1104 38.3018 25.1104H35.3018Z" fill="#888888"/>
</g>
<defs>
<filter id="filter0_d_2027_122" x="0.441406" y="0" width="67.7207" height="67.7207" filterUnits="userSpaceOnUse" color-interpolation-filters="sRGB">
<feFlood flood-opacity="0" result="BackgroundImageFix"/>
<feColorMatrix in="SourceAlpha" type="matrix" values="0 0 0 0 0 0 0 0 0 0 0 0 0 0 0 0 0 0 127 0" result="hardAlpha"/>
<feOffset dy="4"/>
<feGaussianBlur stdDeviation="7.5"/>
<feComposite in2="hardAlpha" operator="out"/>
<feColorMatrix type="matrix" values="0 0 0 0 0.183333 0 0 0 0 0.183333 0 0 0 0 0.183333 0 0 0 0.25 0"/>
<feBlend mode="normal" in2="BackgroundImageFix" result="effect1_dropShadow_2027_122"/>
<feBlend mode="normal" in="SourceGraphic" in2="effect1_dropShadow_2027_122" result="shape"/>
</filter>
</defs>
</svg>
