<svg width="68" height="68" viewBox="0 0 68 68" fill="none" xmlns="http://www.w3.org/2000/svg">
<g filter="url(#filter0_d_2027_108)">
<rect x="15" y="11" width="37.7208" height="37.7208" rx="3" fill="#3D3D3D" shape-rendering="crispEdges"/>
<path d="M33.6602 22.2637C34.9786 21.2753 36.8604 22.216 36.8604 23.8633V35.8575C36.8604 37.5048 34.9786 38.4455 33.6602 37.4571L29.3936 34.2579C29.0476 33.9986 28.6267 33.8586 28.1943 33.8585H25.8604C24.7558 33.8585 23.8604 32.9635 23.8604 31.8594V27.8614C23.8604 26.7573 24.7558 25.8624 25.8604 25.8624H28.1943C28.6267 25.8623 29.0476 25.7222 29.3936 25.463L33.6602 22.2637ZM41.1104 27.1104C41.5246 27.1104 41.8604 27.4462 41.8604 27.8604V29.1104H43.1104C43.5246 29.1104 43.8604 29.4462 43.8604 29.8604C43.8604 30.2746 43.5246 30.6104 43.1104 30.6104H41.8604V31.8604C41.8604 32.2746 41.5246 32.6104 41.1104 32.6104C40.6961 32.6104 40.3604 32.2746 40.3604 31.8604V30.6104H39.1104C38.6961 30.6104 38.3604 30.2746 38.3604 29.8604C38.3604 29.4462 38.6961 29.1104 39.1104 29.1104H40.3604V27.8604C40.3604 27.4462 40.6961 27.1104 41.1104 27.1104Z" fill="#888888"/>
</g>
<defs>
<filter id="filter0_d_2027_108" x="0" y="0" width="67.7207" height="67.7207" filterUnits="userSpaceOnUse" color-interpolation-filters="sRGB">
<feFlood flood-opacity="0" result="BackgroundImageFix"/>
<feColorMatrix in="SourceAlpha" type="matrix" values="0 0 0 0 0 0 0 0 0 0 0 0 0 0 0 0 0 0 127 0" result="hardAlpha"/>
<feOffset dy="4"/>
<feGaussianBlur stdDeviation="7.5"/>
<feComposite in2="hardAlpha" operator="out"/>
<feColorMatrix type="matrix" values="0 0 0 0 0.183333 0 0 0 0 0.183333 0 0 0 0 0.183333 0 0 0 0.25 0"/>
<feBlend mode="normal" in2="BackgroundImageFix" result="effect1_dropShadow_2027_108"/>
<feBlend mode="normal" in="SourceGraphic" in2="effect1_dropShadow_2027_108" result="shape"/>
</filter>
</defs>
</svg>
