<svg width="69" height="68" viewBox="0 0 69 68" fill="none" xmlns="http://www.w3.org/2000/svg">
<g filter="url(#filter0_d_2027_81)">
<rect x="15.4414" y="11" width="37.7208" height="37.7208" rx="3" fill="#3D3D3D" shape-rendering="crispEdges"/>
<path fill-rule="evenodd" clip-rule="evenodd" d="M31.0518 24.6104C31.0518 22.8154 32.5068 21.3604 34.3018 21.3604C36.0967 21.3604 37.5518 22.8154 37.5518 24.6104V25.8604H31.0518V24.6104ZM29.5518 25.9305V24.6104C29.5518 21.987 31.6784 19.8604 34.3018 19.8604C36.9251 19.8604 39.0518 21.987 39.0518 24.6104V25.9305C40.9024 26.2816 42.3018 27.9076 42.3018 29.8604V35.8604C42.3018 38.0695 40.5109 39.8604 38.3018 39.8604H30.3018C28.0926 39.8604 26.3018 38.0695 26.3018 35.8604V29.8604C26.3018 27.9076 27.7011 26.2816 29.5518 25.9305ZM36.3018 32.8604C36.3018 33.9649 35.4063 34.8604 34.3018 34.8604C33.1972 34.8604 32.3018 33.9649 32.3018 32.8604C32.3018 31.7558 33.1972 30.8604 34.3018 30.8604C35.4063 30.8604 36.3018 31.7558 36.3018 32.8604Z" fill="#888888"/>
</g>
<defs>
<filter id="filter0_d_2027_81" x="0.441406" y="0" width="67.7207" height="67.7208" filterUnits="userSpaceOnUse" color-interpolation-filters="sRGB">
<feFlood flood-opacity="0" result="BackgroundImageFix"/>
<feColorMatrix in="SourceAlpha" type="matrix" values="0 0 0 0 0 0 0 0 0 0 0 0 0 0 0 0 0 0 127 0" result="hardAlpha"/>
<feOffset dy="4"/>
<feGaussianBlur stdDeviation="7.5"/>
<feComposite in2="hardAlpha" operator="out"/>
<feColorMatrix type="matrix" values="0 0 0 0 0.183333 0 0 0 0 0.183333 0 0 0 0 0.183333 0 0 0 0.25 0"/>
<feBlend mode="normal" in2="BackgroundImageFix" result="effect1_dropShadow_2027_81"/>
<feBlend mode="normal" in="SourceGraphic" in2="effect1_dropShadow_2027_81" result="shape"/>
</filter>
</defs>
</svg>
