<svg width="69" height="68" viewBox="0 0 69 68" fill="none" xmlns="http://www.w3.org/2000/svg">
<g filter="url(#filter0_d_2027_136)">
<rect x="15.8831" y="11" width="37.7208" height="37.7208" rx="3" fill="#3D3D3D" shape-rendering="crispEdges"/>
<path d="M39.7434 19.8604C42.5048 19.8604 44.7434 22.0989 44.7434 24.8604V34.8604C44.7434 37.6218 42.5048 39.8604 39.7434 39.8604H29.7434C26.982 39.8604 24.7434 37.6218 24.7434 34.8604V24.8604C24.7434 22.0989 26.982 19.8604 29.7434 19.8604H39.7434ZM34.7434 24.8604C31.982 24.8604 29.7434 27.0989 29.7434 29.8604C29.7434 32.6218 31.982 34.8604 34.7434 34.8604C37.5048 34.8604 39.7434 32.6218 39.7434 29.8604C39.7434 27.0989 37.5048 24.8604 34.7434 24.8604ZM34.7434 26.8604C36.4003 26.8604 37.7434 28.2035 37.7434 29.8604C37.7434 31.5172 36.4003 32.8604 34.7434 32.8604C33.0866 32.8604 31.7434 31.5172 31.7434 29.8604C31.7434 28.2035 33.0866 26.8604 34.7434 26.8604ZM40.7434 22.8604C40.1911 22.8604 39.7434 23.3081 39.7434 23.8604C39.7434 24.4126 40.1911 24.8604 40.7434 24.8604C41.2957 24.8604 41.7434 24.4126 41.7434 23.8604C41.7434 23.3081 41.2957 22.8604 40.7434 22.8604Z" fill="#888888"/>
</g>
<defs>
<filter id="filter0_d_2027_136" x="0.883057" y="0" width="67.7207" height="67.7207" filterUnits="userSpaceOnUse" color-interpolation-filters="sRGB">
<feFlood flood-opacity="0" result="BackgroundImageFix"/>
<feColorMatrix in="SourceAlpha" type="matrix" values="0 0 0 0 0 0 0 0 0 0 0 0 0 0 0 0 0 0 127 0" result="hardAlpha"/>
<feOffset dy="4"/>
<feGaussianBlur stdDeviation="7.5"/>
<feComposite in2="hardAlpha" operator="out"/>
<feColorMatrix type="matrix" values="0 0 0 0 0.183333 0 0 0 0 0.183333 0 0 0 0 0.183333 0 0 0 0.25 0"/>
<feBlend mode="normal" in2="BackgroundImageFix" result="effect1_dropShadow_2027_136"/>
<feBlend mode="normal" in="SourceGraphic" in2="effect1_dropShadow_2027_136" result="shape"/>
</filter>
</defs>
</svg>
