<svg width="68" height="68" viewBox="0 0 68 68" fill="none" xmlns="http://www.w3.org/2000/svg">
<g filter="url(#filter0_d_2027_144)">
<rect x="15" y="11" width="37.7208" height="37.7208" rx="3" fill="#3D3D3D" shape-rendering="crispEdges"/>
<path d="M27.8604 39.8604H23.8604V26.3604H27.8604V39.8604ZM34.8604 26.3604V27.2021C35.4859 26.981 36.1591 26.8604 36.8604 26.8604C40.1741 26.8604 42.8604 29.5466 42.8604 32.8604V39.8604H38.8604V32.8604C38.8604 31.7558 37.9649 30.8604 36.8604 30.8604C35.7558 30.8604 34.8604 31.7558 34.8604 32.8604V39.8604H30.8604V26.3604H34.8604ZM25.8604 19.8604C26.9649 19.8604 27.8604 20.7558 27.8604 21.8604C27.8604 22.9649 26.9649 23.8604 25.8604 23.8604C24.7558 23.8604 23.8604 22.9649 23.8604 21.8604C23.8604 20.7558 24.7558 19.8604 25.8604 19.8604Z" fill="#888888"/>
</g>
<defs>
<filter id="filter0_d_2027_144" x="0" y="0" width="67.7207" height="67.7207" filterUnits="userSpaceOnUse" color-interpolation-filters="sRGB">
<feFlood flood-opacity="0" result="BackgroundImageFix"/>
<feColorMatrix in="SourceAlpha" type="matrix" values="0 0 0 0 0 0 0 0 0 0 0 0 0 0 0 0 0 0 127 0" result="hardAlpha"/>
<feOffset dy="4"/>
<feGaussianBlur stdDeviation="7.5"/>
<feComposite in2="hardAlpha" operator="out"/>
<feColorMatrix type="matrix" values="0 0 0 0 0.183333 0 0 0 0 0.183333 0 0 0 0 0.183333 0 0 0 0.25 0"/>
<feBlend mode="normal" in2="BackgroundImageFix" result="effect1_dropShadow_2027_144"/>
<feBlend mode="normal" in="SourceGraphic" in2="effect1_dropShadow_2027_144" result="shape"/>
</filter>
</defs>
</svg>
