<svg width="68" height="68" viewBox="0 0 68 68" fill="none" xmlns="http://www.w3.org/2000/svg">
<g filter="url(#filter0_d_2027_58)">
<rect x="15.1624" y="11" width="37.7208" height="37.7208" rx="3" fill="#3D3D3D" shape-rendering="crispEdges"/>
<path fill-rule="evenodd" clip-rule="evenodd" d="M44.0227 29.8604C44.0227 32.8737 42.6899 35.5758 40.5815 37.4092C38.8258 38.936 36.5322 39.8604 34.0227 39.8604C31.5132 39.8604 29.2196 38.936 27.4639 37.4092C25.3556 35.5758 24.0227 32.8737 24.0227 29.8604C24.0227 24.3375 28.4999 19.8604 34.0227 19.8604C39.5456 19.8604 44.0227 24.3375 44.0227 29.8604ZM34.0227 36.8604C35.7794 36.8604 37.3849 36.2133 38.6139 35.1445C38.7554 35.0215 38.8919 34.8929 39.0231 34.759C37.9421 33.0107 36.106 31.8604 34.0227 31.8604C31.9395 31.8604 30.1033 33.0107 29.0224 34.759C29.1536 34.8929 29.2901 35.0215 29.4315 35.1445C30.6606 36.2133 32.2661 36.8604 34.0227 36.8604ZM34.0227 29.8604C35.6796 29.8604 37.0227 28.5172 37.0227 26.8604C37.0227 25.2035 35.6796 23.8604 34.0227 23.8604C32.3659 23.8604 31.0227 25.2035 31.0227 26.8604C31.0227 28.5172 32.3659 29.8604 34.0227 29.8604Z" fill="#888888"/>
</g>
<defs>
<filter id="filter0_d_2027_58" x="0.162354" y="0" width="67.7207" height="67.7208" filterUnits="userSpaceOnUse" color-interpolation-filters="sRGB">
<feFlood flood-opacity="0" result="BackgroundImageFix"/>
<feColorMatrix in="SourceAlpha" type="matrix" values="0 0 0 0 0 0 0 0 0 0 0 0 0 0 0 0 0 0 127 0" result="hardAlpha"/>
<feOffset dy="4"/>
<feGaussianBlur stdDeviation="7.5"/>
<feComposite in2="hardAlpha" operator="out"/>
<feColorMatrix type="matrix" values="0 0 0 0 0.183333 0 0 0 0 0.183333 0 0 0 0 0.183333 0 0 0 0.25 0"/>
<feBlend mode="normal" in2="BackgroundImageFix" result="effect1_dropShadow_2027_58"/>
<feBlend mode="normal" in="SourceGraphic" in2="effect1_dropShadow_2027_58" result="shape"/>
</filter>
</defs>
</svg>
