<svg width="69" height="68" viewBox="0 0 69 68" fill="none" xmlns="http://www.w3.org/2000/svg">
<g filter="url(#filter0_d_2027_101)">
<rect x="15.8831" y="11" width="37.7208" height="37.7208" rx="3" fill="#3D3D3D" shape-rendering="crispEdges"/>
<path d="M38.7434 23.1104C42.4713 23.1104 45.4934 26.1324 45.4934 29.8604C45.4934 33.5883 42.4713 36.6104 38.7434 36.6104H30.7434C27.0155 36.6104 23.9934 33.5883 23.9934 29.8604C23.9934 26.1324 27.0155 23.1104 30.7434 23.1104H38.7434ZM30.7434 24.6104C27.8439 24.6104 25.4934 26.9609 25.4934 29.8604C25.4934 32.7598 27.8439 35.1104 30.7434 35.1104H35.8391C33.9934 34.0871 32.7434 32.1202 32.7434 29.8604C32.7434 27.6005 33.9934 25.6336 35.8391 24.6104H30.7434Z" fill="#888888"/>
</g>
<defs>
<filter id="filter0_d_2027_101" x="0.883057" y="0" width="67.7207" height="67.7208" filterUnits="userSpaceOnUse" color-interpolation-filters="sRGB">
<feFlood flood-opacity="0" result="BackgroundImageFix"/>
<feColorMatrix in="SourceAlpha" type="matrix" values="0 0 0 0 0 0 0 0 0 0 0 0 0 0 0 0 0 0 127 0" result="hardAlpha"/>
<feOffset dy="4"/>
<feGaussianBlur stdDeviation="7.5"/>
<feComposite in2="hardAlpha" operator="out"/>
<feColorMatrix type="matrix" values="0 0 0 0 0.183333 0 0 0 0 0.183333 0 0 0 0 0.183333 0 0 0 0.25 0"/>
<feBlend mode="normal" in2="BackgroundImageFix" result="effect1_dropShadow_2027_101"/>
<feBlend mode="normal" in="SourceGraphic" in2="effect1_dropShadow_2027_101" result="shape"/>
</filter>
</defs>
</svg>
