<svg width="69" height="68" viewBox="0 0 69 68" fill="none" xmlns="http://www.w3.org/2000/svg">
<g filter="url(#filter0_d_2027_130)">
<rect x="15.8831" y="11" width="37.7208" height="37.7208" rx="3" fill="#3D3D3D" shape-rendering="crispEdges"/>
<path d="M34.7434 19.8604C36.4003 19.8604 37.7434 21.2035 37.7434 22.8604V30.8604C38.9578 31.7726 39.7434 33.2246 39.7434 34.8604C39.7434 37.6218 37.5048 39.8604 34.7434 39.8604C31.982 39.8604 29.7434 37.6218 29.7434 34.8604C29.7434 33.2246 30.5291 31.7726 31.7434 30.8604V22.8604C31.7434 21.2035 33.0866 19.8604 34.7434 19.8604ZM34.7434 22.1104C34.3292 22.1104 33.9934 22.4461 33.9934 22.8604V33.0068C33.2607 33.3036 32.7434 34.0212 32.7434 34.8604C32.7434 35.9649 33.6388 36.8604 34.7434 36.8604C35.848 36.8604 36.7434 35.9649 36.7434 34.8604C36.7434 34.0212 36.2262 33.3036 35.4934 33.0068V22.8604C35.4934 22.4461 35.1576 22.1104 34.7434 22.1104ZM42.7434 19.1104C43.1576 19.1104 43.4934 19.4461 43.4934 19.8604V21.1104H44.7434C45.1576 21.1104 45.4934 21.4461 45.4934 21.8604C45.4934 22.2746 45.1576 22.6104 44.7434 22.6104H43.4934V23.8604C43.4934 24.2746 43.1576 24.6104 42.7434 24.6104C42.3292 24.6104 41.9934 24.2746 41.9934 23.8604V22.6104H40.7434C40.3292 22.6104 39.9934 22.2746 39.9934 21.8604C39.9934 21.4461 40.3292 21.1104 40.7434 21.1104H41.9934V19.8604C41.9934 19.4461 42.3292 19.1104 42.7434 19.1104Z" fill="#888888"/>
</g>
<defs>
<filter id="filter0_d_2027_130" x="0.883057" y="0" width="67.7207" height="67.7207" filterUnits="userSpaceOnUse" color-interpolation-filters="sRGB">
<feFlood flood-opacity="0" result="BackgroundImageFix"/>
<feColorMatrix in="SourceAlpha" type="matrix" values="0 0 0 0 0 0 0 0 0 0 0 0 0 0 0 0 0 0 127 0" result="hardAlpha"/>
<feOffset dy="4"/>
<feGaussianBlur stdDeviation="7.5"/>
<feComposite in2="hardAlpha" operator="out"/>
<feColorMatrix type="matrix" values="0 0 0 0 0.183333 0 0 0 0 0.183333 0 0 0 0 0.183333 0 0 0 0.25 0"/>
<feBlend mode="normal" in2="BackgroundImageFix" result="effect1_dropShadow_2027_130"/>
<feBlend mode="normal" in="SourceGraphic" in2="effect1_dropShadow_2027_130" result="shape"/>
</filter>
</defs>
</svg>
