<svg width="69" height="68" viewBox="0 0 69 68" fill="none" xmlns="http://www.w3.org/2000/svg">
<g filter="url(#filter0_d_2027_140)">
<rect x="15.4414" y="11" width="37.7208" height="37.7208" rx="3" fill="#3D3D3D" shape-rendering="crispEdges"/>
<path d="M34.3018 19.8604C39.8246 19.8604 44.3018 24.3375 44.3018 29.8604C44.3018 35.3832 39.8246 39.8604 34.3018 39.8604C28.7789 39.8604 24.3018 35.3832 24.3018 29.8604C24.3018 24.3375 28.7789 19.8604 34.3018 19.8604ZM38.3047 33.0127C34.7932 31.2286 30.8552 31.5682 28.9502 32.043L28.5859 32.1426C28.1896 32.2617 27.9643 32.6797 28.083 33.0762C28.1947 33.4477 28.5694 33.6693 28.9424 33.5977L29.0176 33.5791C30.5227 33.1277 34.329 32.6785 37.6211 34.3486L37.9375 34.5166L38.0068 34.5508C38.3557 34.7003 38.7684 34.5642 38.957 34.2256C39.1455 33.8863 39.043 33.4634 38.7314 33.2461L38.666 33.2051L38.3047 33.0127ZM33.3506 28.6738C31.5779 28.6175 29.9712 28.8054 28.9746 29.04L28.5859 29.1426C28.1896 29.2617 27.9643 29.6797 28.083 30.0762C28.1947 30.4477 28.5694 30.6693 28.9424 30.5977L29.0176 30.5791C29.755 30.3579 31.3956 30.1123 33.3027 30.1729C35.0896 30.2296 37.025 30.553 38.623 31.3506L38.9375 31.5166L39.0068 31.5508C39.3557 31.7003 39.7684 31.5642 39.957 31.2256C40.1455 30.8863 40.043 30.4634 39.7314 30.2461L39.666 30.2051L39.2969 30.0107C37.4289 29.0774 35.2514 28.7342 33.3506 28.6738ZM33.9307 25.4873C31.6396 25.3594 29.4165 25.6078 28.0234 26.165C27.639 26.3189 27.4517 26.7551 27.6055 27.1396C27.7594 27.5237 28.1958 27.711 28.5801 27.5576C29.687 27.1149 31.6639 26.8624 33.8477 26.9844C35.8856 27.0983 37.991 27.5327 39.6182 28.3486L39.9375 28.5166L40.0068 28.5508C40.3557 28.7003 40.7684 28.5642 40.957 28.2256C41.1455 27.8863 41.043 27.4634 40.7314 27.2461L40.666 27.2051L40.2969 27.0107C38.4196 26.0679 36.088 25.6078 33.9307 25.4873Z" fill="#888888"/>
</g>
<defs>
<filter id="filter0_d_2027_140" x="0.441406" y="0" width="67.7207" height="67.7207" filterUnits="userSpaceOnUse" color-interpolation-filters="sRGB">
<feFlood flood-opacity="0" result="BackgroundImageFix"/>
<feColorMatrix in="SourceAlpha" type="matrix" values="0 0 0 0 0 0 0 0 0 0 0 0 0 0 0 0 0 0 127 0" result="hardAlpha"/>
<feOffset dy="4"/>
<feGaussianBlur stdDeviation="7.5"/>
<feComposite in2="hardAlpha" operator="out"/>
<feColorMatrix type="matrix" values="0 0 0 0 0.183333 0 0 0 0 0.183333 0 0 0 0 0.183333 0 0 0 0.25 0"/>
<feBlend mode="normal" in2="BackgroundImageFix" result="effect1_dropShadow_2027_140"/>
<feBlend mode="normal" in="SourceGraphic" in2="effect1_dropShadow_2027_140" result="shape"/>
</filter>
</defs>
</svg>
