<svg width="68" height="68" viewBox="0 0 68 68" fill="none" xmlns="http://www.w3.org/2000/svg">
<g filter="url(#filter0_d_2027_126)">
<rect x="15" y="11" width="37.7208" height="37.7208" rx="3" fill="#3D3D3D" shape-rendering="crispEdges"/>
<path d="M29.33 23.3301C29.6229 23.0372 30.0977 23.0372 30.3906 23.3301L33.3906 26.3301C33.6835 26.623 33.6835 27.0977 33.3906 27.3906C33.0977 27.6835 32.6229 27.6835 32.33 27.3906L30.6103 25.6709V35.8604C30.6103 36.2746 30.2745 36.6104 29.8603 36.6104C29.4461 36.6104 29.1103 36.2746 29.1103 35.8604V25.6709L27.3906 27.3906C27.0977 27.6835 26.6229 27.6835 26.33 27.3906C26.0371 27.0977 26.0371 26.623 26.33 26.3301L29.33 23.3301ZM37.8603 23.1104C38.2745 23.1104 38.6103 23.4461 38.6103 23.8604V34.0498L40.33 32.3301C40.6229 32.0372 41.0977 32.0372 41.3906 32.3301C41.6835 32.623 41.6835 33.0977 41.3906 33.3906L38.3906 36.3906C38.0977 36.6835 37.6229 36.6835 37.33 36.3906L34.33 33.3906C34.0371 33.0977 34.0371 32.623 34.33 32.3301C34.6229 32.0372 35.0977 32.0372 35.3906 32.3301L37.1103 34.0498V23.8604C37.1103 23.4461 37.4461 23.1104 37.8603 23.1104Z" fill="#888888"/>
</g>
<defs>
<filter id="filter0_d_2027_126" x="0" y="0" width="67.7207" height="67.7207" filterUnits="userSpaceOnUse" color-interpolation-filters="sRGB">
<feFlood flood-opacity="0" result="BackgroundImageFix"/>
<feColorMatrix in="SourceAlpha" type="matrix" values="0 0 0 0 0 0 0 0 0 0 0 0 0 0 0 0 0 0 127 0" result="hardAlpha"/>
<feOffset dy="4"/>
<feGaussianBlur stdDeviation="7.5"/>
<feComposite in2="hardAlpha" operator="out"/>
<feColorMatrix type="matrix" values="0 0 0 0 0.183333 0 0 0 0 0.183333 0 0 0 0 0.183333 0 0 0 0.25 0"/>
<feBlend mode="normal" in2="BackgroundImageFix" result="effect1_dropShadow_2027_126"/>
<feBlend mode="normal" in="SourceGraphic" in2="effect1_dropShadow_2027_126" result="shape"/>
</filter>
</defs>
</svg>
