<svg width="69" height="68" viewBox="0 0 69 68" fill="none" xmlns="http://www.w3.org/2000/svg">
<g filter="url(#filter0_d_2027_98)">
<rect x="15.7207" y="11" width="37.7208" height="37.7208" rx="3" fill="#3D3D3D" shape-rendering="crispEdges"/>
<path d="M38.8628 18.6104C39.277 18.6104 39.6128 18.9461 39.6128 19.3604V20.8604H39.8628C42.0719 20.8604 43.8628 22.6512 43.8628 24.8604V25.9463C43.8628 26.2115 43.7573 26.4658 43.5698 26.6533L31.1558 39.0674C30.9683 39.2549 30.7139 39.3603 30.4487 39.3604H29.8628C27.6537 39.3604 25.8628 37.5695 25.8628 35.3604V24.8604C25.8628 22.6512 27.6537 20.8604 29.8628 20.8604H30.1128V19.3604C30.1128 18.9461 30.4486 18.6104 30.8628 18.6104C31.277 18.6104 31.6128 18.9461 31.6128 19.3604V20.8604H38.1128V19.3604C38.1128 18.9461 38.4486 18.6104 38.8628 18.6104ZM41.0054 30.8506C41.659 30.1969 42.7189 30.1969 43.3726 30.8506C44.0262 31.5042 44.0262 32.5641 43.3726 33.2178L38.3579 38.2324C38.2373 38.3531 38.0874 38.4405 37.9233 38.4873L35.7271 39.1143C35.3502 39.2216 35.0016 38.873 35.1089 38.4961L35.7358 36.2998C35.7826 36.1357 35.8701 35.9859 35.9907 35.8652L41.0054 30.8506ZM30.8628 33.6104C30.4486 33.6104 30.1128 33.9461 30.1128 34.3604C30.1128 34.7746 30.4486 35.1104 30.8628 35.1104H31.8628C32.277 35.1104 32.6128 34.7746 32.6128 34.3604C32.6128 33.9461 32.277 33.6104 31.8628 33.6104H30.8628ZM30.8628 29.6104C30.4486 29.6104 30.1128 29.9461 30.1128 30.3604C30.1128 30.7746 30.4486 31.1104 30.8628 31.1104H34.8628C35.277 31.1104 35.6128 30.7746 35.6128 30.3604C35.6128 29.9461 35.277 29.6104 34.8628 29.6104H30.8628ZM30.8628 25.6104C30.4486 25.6104 30.1128 25.9461 30.1128 26.3604C30.1128 26.7746 30.4486 27.1104 30.8628 27.1104H37.8628C38.277 27.1104 38.6128 26.7746 38.6128 26.3604C38.6128 25.9461 38.277 25.6104 37.8628 25.6104H30.8628Z" fill="#888888"/>
</g>
<defs>
<filter id="filter0_d_2027_98" x="0.720703" y="0" width="67.7207" height="67.7208" filterUnits="userSpaceOnUse" color-interpolation-filters="sRGB">
<feFlood flood-opacity="0" result="BackgroundImageFix"/>
<feColorMatrix in="SourceAlpha" type="matrix" values="0 0 0 0 0 0 0 0 0 0 0 0 0 0 0 0 0 0 127 0" result="hardAlpha"/>
<feOffset dy="4"/>
<feGaussianBlur stdDeviation="7.5"/>
<feComposite in2="hardAlpha" operator="out"/>
<feColorMatrix type="matrix" values="0 0 0 0 0.183333 0 0 0 0 0.183333 0 0 0 0 0.183333 0 0 0 0.25 0"/>
<feBlend mode="normal" in2="BackgroundImageFix" result="effect1_dropShadow_2027_98"/>
<feBlend mode="normal" in="SourceGraphic" in2="effect1_dropShadow_2027_98" result="shape"/>
</filter>
</defs>
</svg>
