<svg width="69" height="68" viewBox="0 0 69 68" fill="none" xmlns="http://www.w3.org/2000/svg">
<g filter="url(#filter0_d_2027_113)">
<rect x="15.6038" y="11" width="37.7208" height="37.7208" rx="3" fill="#3D3D3D" shape-rendering="crispEdges"/>
<path d="M33.4641 26.3423C33.4642 24.7988 35.1386 23.837 36.4719 24.6148L42.5022 28.1324C42.5771 28.1761 42.6477 28.2244 42.7141 28.275V25.3609C42.7141 24.9467 43.0499 24.6109 43.4641 24.6109C43.8783 24.6109 44.2141 24.9467 44.2141 25.3609V34.3609C44.2138 34.7749 43.8782 35.1109 43.4641 35.1109C43.0501 35.1109 42.7144 34.7749 42.7141 34.3609V31.4449C42.6476 31.4956 42.5772 31.5437 42.5022 31.5875L36.4719 35.106C35.1387 35.8837 33.4643 34.9219 33.4641 33.3785V32.1939L28.4719 35.106C27.1387 35.8837 25.4643 34.9219 25.4641 33.3785V26.3423C25.4642 24.7988 27.1386 23.837 28.4719 24.6148L33.4641 27.5269V26.3423Z" fill="#888888"/>
</g>
<defs>
<filter id="filter0_d_2027_113" x="0.60376" y="0" width="67.7207" height="67.7207" filterUnits="userSpaceOnUse" color-interpolation-filters="sRGB">
<feFlood flood-opacity="0" result="BackgroundImageFix"/>
<feColorMatrix in="SourceAlpha" type="matrix" values="0 0 0 0 0 0 0 0 0 0 0 0 0 0 0 0 0 0 127 0" result="hardAlpha"/>
<feOffset dy="4"/>
<feGaussianBlur stdDeviation="7.5"/>
<feComposite in2="hardAlpha" operator="out"/>
<feColorMatrix type="matrix" values="0 0 0 0 0.183333 0 0 0 0 0.183333 0 0 0 0 0.183333 0 0 0 0.25 0"/>
<feBlend mode="normal" in2="BackgroundImageFix" result="effect1_dropShadow_2027_113"/>
<feBlend mode="normal" in="SourceGraphic" in2="effect1_dropShadow_2027_113" result="shape"/>
</filter>
</defs>
</svg>
