<svg width="69" height="68" viewBox="0 0 69 68" fill="none" xmlns="http://www.w3.org/2000/svg">
<g filter="url(#filter0_d_2027_62)">
<rect x="15.7207" y="11" width="37.7208" height="37.7208" rx="3" fill="#3D3D3D" shape-rendering="crispEdges"/>
<path d="M34.5809 21.3601C39.8276 21.3601 44.0808 25.6135 44.0809 30.8601C44.0809 33.0878 43.3142 35.1366 42.0302 36.7566L44.164 39.3884C44.4244 39.7102 44.3751 40.1824 44.0536 40.4431C43.7318 40.704 43.2588 40.6545 42.9979 40.3328L40.9979 37.865C39.3075 39.4144 37.0547 40.3601 34.5809 40.3601C32.1071 40.3601 29.8544 39.4144 28.164 37.865L26.164 40.3328C25.9031 40.6545 25.4301 40.704 25.1083 40.4431C24.7868 40.1824 24.7375 39.7101 24.9979 39.3884L27.1317 36.7566C25.8478 35.1366 25.0809 33.0878 25.0809 30.8601C25.0811 25.6136 29.3344 21.3602 34.5809 21.3601ZM34.5809 25.1101C34.1668 25.1101 33.8311 25.446 33.8309 25.8601V30.8601C33.8309 31.1108 33.9564 31.345 34.1649 31.4841L37.1649 33.4841C37.5096 33.7139 37.9752 33.6208 38.205 33.2761C38.4346 32.9315 38.3416 32.4658 37.997 32.2361L35.3309 30.4588V25.8601C35.3308 25.446 34.9951 25.1101 34.5809 25.1101ZM29.4774 19.1736C29.8568 19.0078 30.2987 19.1802 30.4647 19.5593C30.6307 19.9389 30.4575 20.3817 30.078 20.5476C28.0877 21.418 26.3972 22.8488 25.2059 24.6404C24.9766 24.9852 24.5108 25.0786 24.1659 24.8494C23.821 24.62 23.7276 24.1543 23.9569 23.8093C25.3059 21.7806 27.2208 20.1604 29.4774 19.1736ZM38.6972 19.5593C38.8632 19.1802 39.3051 19.0079 39.6845 19.1736C41.9412 20.1605 43.8569 21.7804 45.2059 23.8093C45.4352 24.1543 45.3409 24.6201 44.996 24.8494C44.6512 25.0784 44.1863 24.9848 43.9569 24.6404C42.7657 22.8488 41.0742 21.418 39.0839 20.5476C38.7044 20.3817 38.5312 19.9389 38.6972 19.5593Z" fill="#888888"/>
</g>
<defs>
<filter id="filter0_d_2027_62" x="0.720703" y="0" width="67.7207" height="67.7208" filterUnits="userSpaceOnUse" color-interpolation-filters="sRGB">
<feFlood flood-opacity="0" result="BackgroundImageFix"/>
<feColorMatrix in="SourceAlpha" type="matrix" values="0 0 0 0 0 0 0 0 0 0 0 0 0 0 0 0 0 0 127 0" result="hardAlpha"/>
<feOffset dy="4"/>
<feGaussianBlur stdDeviation="7.5"/>
<feComposite in2="hardAlpha" operator="out"/>
<feColorMatrix type="matrix" values="0 0 0 0 0.183333 0 0 0 0 0.183333 0 0 0 0 0.183333 0 0 0 0.25 0"/>
<feBlend mode="normal" in2="BackgroundImageFix" result="effect1_dropShadow_2027_62"/>
<feBlend mode="normal" in="SourceGraphic" in2="effect1_dropShadow_2027_62" result="shape"/>
</filter>
</defs>
</svg>
