<svg width="69" height="68" viewBox="0 0 69 68" fill="none" xmlns="http://www.w3.org/2000/svg">
<g filter="url(#filter0_d_2027_68)">
<rect x="15.7207" y="11" width="37.7208" height="37.7208" rx="3" fill="#3D3D3D" shape-rendering="crispEdges"/>
<path fill-rule="evenodd" clip-rule="evenodd" d="M36.9811 20.3104L38.8935 22.8604L30.2686 22.8604L32.1811 20.3104C32.4296 19.979 32.3624 19.5089 32.0311 19.2604C31.6997 19.0119 31.2296 19.079 30.9811 19.4104L28.3913 22.8635C26.5617 22.9379 25.095 24.3274 24.6915 26.1104H44.4706C44.0671 24.3274 42.6004 22.9379 40.7709 22.8635L38.1811 19.4104C37.9325 19.079 37.4624 19.0119 37.1311 19.2604C36.7997 19.5089 36.7325 19.979 36.9811 20.3104ZM44.5525 27.6104H24.6096C24.623 27.7294 24.6411 27.8489 24.6642 27.9688L26.2991 36.4688C26.6789 38.4436 28.3005 39.8604 30.1808 39.8604H38.9813C40.8616 39.8604 42.4832 38.4436 42.863 36.4688L44.4979 27.9688C44.521 27.8489 44.5391 27.7294 44.5525 27.6104ZM29.8311 31.8604C29.8311 31.4461 30.1668 31.1104 30.5811 31.1104H38.5811C38.9953 31.1104 39.3311 31.4461 39.3311 31.8604C39.3311 32.2746 38.9953 32.6104 38.5811 32.6104H30.5811C30.1668 32.6104 29.8311 32.2746 29.8311 31.8604ZM31.5811 35.1104C31.1668 35.1104 30.8311 35.4461 30.8311 35.8604C30.8311 36.2746 31.1668 36.6104 31.5811 36.6104H37.5811C37.9953 36.6104 38.3311 36.2746 38.3311 35.8604C38.3311 35.4461 37.9953 35.1104 37.5811 35.1104H31.5811Z" fill="#888888"/>
</g>
<defs>
<filter id="filter0_d_2027_68" x="0.720703" y="0" width="67.7207" height="67.7208" filterUnits="userSpaceOnUse" color-interpolation-filters="sRGB">
<feFlood flood-opacity="0" result="BackgroundImageFix"/>
<feColorMatrix in="SourceAlpha" type="matrix" values="0 0 0 0 0 0 0 0 0 0 0 0 0 0 0 0 0 0 127 0" result="hardAlpha"/>
<feOffset dy="4"/>
<feGaussianBlur stdDeviation="7.5"/>
<feComposite in2="hardAlpha" operator="out"/>
<feColorMatrix type="matrix" values="0 0 0 0 0.183333 0 0 0 0 0.183333 0 0 0 0 0.183333 0 0 0 0.25 0"/>
<feBlend mode="normal" in2="BackgroundImageFix" result="effect1_dropShadow_2027_68"/>
<feBlend mode="normal" in="SourceGraphic" in2="effect1_dropShadow_2027_68" result="shape"/>
</filter>
</defs>
</svg>
