<svg width="69" height="68" viewBox="0 0 69 68" fill="none" xmlns="http://www.w3.org/2000/svg">
<g filter="url(#filter0_d_2027_96)">
<rect x="15.6038" y="11" width="37.7208" height="37.7208" rx="3" fill="#3D3D3D" shape-rendering="crispEdges"/>
<path d="M28.6104 23.125C29.315 23.1623 30.0081 23.4685 30.5196 24.0439L32.0245 25.7373C32.2996 26.0469 32.2715 26.5207 31.962 26.7959C31.6524 27.071 31.1786 27.0429 30.9034 26.7334L29.3985 25.04C29.3417 24.9761 29.2796 24.9195 29.2139 24.8701V35.8604C29.2139 36.2746 28.8782 36.6104 28.4639 36.6104C28.0497 36.6104 27.7139 36.2746 27.7139 35.8604V24.8701C27.6484 24.9195 27.5862 24.9761 27.5294 25.04L26.0245 26.7334C25.7493 27.0429 25.2755 27.071 24.9659 26.7959C24.6564 26.5207 24.6283 26.0469 24.9034 25.7373L26.4083 24.0439C26.9198 23.4685 27.6129 23.1623 28.3175 23.125C28.3648 23.1157 28.4139 23.1104 28.4639 23.1104C28.514 23.1104 28.5631 23.1157 28.6104 23.125ZM37.4639 35.1104C37.8782 35.1104 38.2139 35.4461 38.2139 35.8604C38.2139 36.2746 37.8782 36.6104 37.4639 36.6104H34.4639C34.0497 36.6104 33.7139 36.2746 33.7139 35.8604C33.7139 35.4461 34.0497 35.1104 34.4639 35.1104H37.4639ZM40.4639 29.1104C40.8782 29.1104 41.2139 29.4461 41.2139 29.8604C41.2139 30.2746 40.8782 30.6104 40.4639 30.6104H34.4639C34.0497 30.6104 33.7139 30.2746 33.7139 29.8604C33.7139 29.4461 34.0497 29.1104 34.4639 29.1104H40.4639ZM43.4639 23.1104C43.8782 23.1104 44.2139 23.4461 44.2139 23.8604C44.2139 24.2746 43.8782 24.6104 43.4639 24.6104H34.4639C34.0497 24.6104 33.7139 24.2746 33.7139 23.8604C33.7139 23.4461 34.0497 23.1104 34.4639 23.1104H43.4639Z" fill="#888888"/>
</g>
<defs>
<filter id="filter0_d_2027_96" x="0.60376" y="0" width="67.7207" height="67.7208" filterUnits="userSpaceOnUse" color-interpolation-filters="sRGB">
<feFlood flood-opacity="0" result="BackgroundImageFix"/>
<feColorMatrix in="SourceAlpha" type="matrix" values="0 0 0 0 0 0 0 0 0 0 0 0 0 0 0 0 0 0 127 0" result="hardAlpha"/>
<feOffset dy="4"/>
<feGaussianBlur stdDeviation="7.5"/>
<feComposite in2="hardAlpha" operator="out"/>
<feColorMatrix type="matrix" values="0 0 0 0 0.183333 0 0 0 0 0.183333 0 0 0 0 0.183333 0 0 0 0.25 0"/>
<feBlend mode="normal" in2="BackgroundImageFix" result="effect1_dropShadow_2027_96"/>
<feBlend mode="normal" in="SourceGraphic" in2="effect1_dropShadow_2027_96" result="shape"/>
</filter>
</defs>
</svg>
