<svg width="69" height="68" viewBox="0 0 69 68" fill="none" xmlns="http://www.w3.org/2000/svg">
<g filter="url(#filter0_d_2027_48)">
<rect x="15.6038" y="11" width="37.7208" height="37.7208" rx="3" fill="#3D3D3D" shape-rendering="crispEdges"/>
<path d="M32.8167 38.8604C30.8872 38.8603 29.6853 36.7672 30.6575 35.1006L31.9641 32.8604H27.0256C25.7245 32.8603 24.7696 31.6373 25.0852 30.375L26.7063 23.8906C27.1515 22.11 28.7517 20.8604 30.5872 20.8604H33.7532C34.5428 20.8604 35.3149 21.0942 35.9719 21.5322L37.5188 22.5635C37.797 22.7489 37.9641 23.0612 37.9641 23.3955V31.5947C37.9641 31.7687 37.9186 31.9397 37.8323 32.0908L33.9641 38.8604H32.8167ZM41.4641 32.8604C40.3595 32.8604 39.4641 31.9649 39.4641 30.8604V23.8604C39.4641 22.7558 40.3595 21.8604 41.4641 21.8604H42.4641C43.5687 21.8604 44.4641 22.7558 44.4641 23.8604V30.8604C44.4641 31.9649 43.5687 32.8604 42.4641 32.8604H41.4641Z" fill="#888888"/>
</g>
<defs>
<filter id="filter0_d_2027_48" x="0.60376" y="0" width="67.7207" height="67.7208" filterUnits="userSpaceOnUse" color-interpolation-filters="sRGB">
<feFlood flood-opacity="0" result="BackgroundImageFix"/>
<feColorMatrix in="SourceAlpha" type="matrix" values="0 0 0 0 0 0 0 0 0 0 0 0 0 0 0 0 0 0 127 0" result="hardAlpha"/>
<feOffset dy="4"/>
<feGaussianBlur stdDeviation="7.5"/>
<feComposite in2="hardAlpha" operator="out"/>
<feColorMatrix type="matrix" values="0 0 0 0 0.183333 0 0 0 0 0.183333 0 0 0 0 0.183333 0 0 0 0.25 0"/>
<feBlend mode="normal" in2="BackgroundImageFix" result="effect1_dropShadow_2027_48"/>
<feBlend mode="normal" in="SourceGraphic" in2="effect1_dropShadow_2027_48" result="shape"/>
</filter>
</defs>
</svg>
