<svg width="68" height="68" viewBox="0 0 68 68" fill="none" xmlns="http://www.w3.org/2000/svg">
<g filter="url(#filter0_d_2027_70)">
<rect x="15.1624" y="11" width="37.7208" height="37.7208" rx="3" fill="#3D3D3D" shape-rendering="crispEdges"/>
<path fill-rule="evenodd" clip-rule="evenodd" d="M38.7722 19.8604C38.7722 19.4461 38.4364 19.1104 38.0222 19.1104C37.608 19.1104 37.2722 19.4461 37.2722 19.8604V21.3604H30.7722V19.8604C30.7722 19.4461 30.4364 19.1104 30.0222 19.1104C29.608 19.1104 29.2722 19.4461 29.2722 19.8604V21.3604H29.0227C26.8136 21.3604 25.0227 23.1512 25.0227 25.3604V35.8604C25.0227 38.0695 26.8136 39.8604 29.0227 39.8604H39.0227C41.2318 39.8604 43.0227 38.0695 43.0227 35.8604V25.3604C43.0227 23.1512 41.2318 21.3604 39.0227 21.3604H38.7722V19.8604ZM30.0227 26.1104C29.6085 26.1104 29.2727 26.4461 29.2727 26.8604C29.2727 27.2746 29.6085 27.6104 30.0227 27.6104H34.0227C34.4369 27.6104 34.7727 27.2746 34.7727 26.8604C34.7727 26.4461 34.4369 26.1104 34.0227 26.1104H30.0227ZM29.2727 30.8604C29.2727 30.4461 29.6085 30.1104 30.0227 30.1104H38.0227C38.4369 30.1104 38.7727 30.4461 38.7727 30.8604C38.7727 31.2746 38.4369 31.6104 38.0227 31.6104H30.0227C29.6085 31.6104 29.2727 31.2746 29.2727 30.8604ZM30.0227 34.1104C29.6085 34.1104 29.2727 34.4461 29.2727 34.8604C29.2727 35.2746 29.6085 35.6104 30.0227 35.6104H38.0227C38.4369 35.6104 38.7727 35.2746 38.7727 34.8604C38.7727 34.4461 38.4369 34.1104 38.0227 34.1104H30.0227Z" fill="#888888"/>
</g>
<defs>
<filter id="filter0_d_2027_70" x="0.162354" y="0" width="67.7207" height="67.7208" filterUnits="userSpaceOnUse" color-interpolation-filters="sRGB">
<feFlood flood-opacity="0" result="BackgroundImageFix"/>
<feColorMatrix in="SourceAlpha" type="matrix" values="0 0 0 0 0 0 0 0 0 0 0 0 0 0 0 0 0 0 127 0" result="hardAlpha"/>
<feOffset dy="4"/>
<feGaussianBlur stdDeviation="7.5"/>
<feComposite in2="hardAlpha" operator="out"/>
<feColorMatrix type="matrix" values="0 0 0 0 0.183333 0 0 0 0 0.183333 0 0 0 0 0.183333 0 0 0 0.25 0"/>
<feBlend mode="normal" in2="BackgroundImageFix" result="effect1_dropShadow_2027_70"/>
<feBlend mode="normal" in="SourceGraphic" in2="effect1_dropShadow_2027_70" result="shape"/>
</filter>
</defs>
</svg>
