<svg width="68" height="68" viewBox="0 0 68 68" fill="none" xmlns="http://www.w3.org/2000/svg">
<g filter="url(#filter0_d_2027_105)">
<rect x="15.1624" y="11" width="37.7208" height="37.7208" rx="3" fill="#3D3D3D" shape-rendering="crispEdges"/>
<path d="M33.3655 19.8604C33.6733 19.8604 33.9777 19.8962 34.2727 19.9648V23.8604C34.2727 26.4837 36.3994 28.6104 39.0227 28.6104H42.9172C42.986 28.9054 43.0227 29.2097 43.0227 29.5176V35.8604C43.0227 38.0695 41.2318 39.8604 39.0227 39.8604H29.0227C26.8136 39.8604 25.0227 38.0695 25.0227 35.8604V23.8604C25.0227 21.6512 26.8136 19.8604 29.0227 19.8604H33.3655ZM38.344 31.4922C37.9338 31.4922 37.5911 31.5635 37.3157 31.7061C36.9543 31.8916 36.6799 32.1582 36.4924 32.5059C36.3049 32.8535 36.2112 33.251 36.2112 33.6982C36.2112 34.1104 36.2952 34.4922 36.4631 34.8438C36.6311 35.1934 36.8821 35.4629 37.2161 35.6523C37.55 35.8398 37.9417 35.9336 38.3909 35.9336C38.7444 35.9336 39.093 35.8672 39.4368 35.7344C39.7825 35.5996 40.0461 35.4443 40.2278 35.2686V33.5576H38.3586V34.2812H39.3518V34.8262C39.2209 34.9277 39.0637 35.0146 38.8801 35.0869C38.6985 35.1572 38.5168 35.1924 38.3352 35.1924C37.968 35.1924 37.6711 35.0654 37.4446 34.8115C37.218 34.5557 37.1047 34.1729 37.1047 33.6631C37.1047 33.1904 37.2161 32.834 37.4387 32.5938C37.6633 32.3535 37.9651 32.2334 38.344 32.2334C38.594 32.2334 38.802 32.2949 38.968 32.418C39.136 32.5391 39.2502 32.7051 39.3108 32.916L40.1721 32.7549C40.0862 32.3604 39.8928 32.0518 39.592 31.8291C39.2932 31.6045 38.8772 31.4922 38.344 31.4922ZM28.0227 31.5654V35.8604H28.8899V34.2402H29.4553C29.8479 34.2402 30.1477 34.2197 30.3547 34.1787C30.5071 34.1455 30.6565 34.0781 30.803 33.9766C30.9514 33.873 31.0735 33.7314 31.1692 33.5518C31.2649 33.3721 31.3127 33.1504 31.3127 32.8867C31.3127 32.5449 31.2297 32.2666 31.0637 32.0518C30.8977 31.835 30.6917 31.6943 30.4456 31.6299C30.2854 31.5869 29.9417 31.5654 29.4143 31.5654H28.0227ZM32.0334 31.5654V35.8604H32.8391V33.0596L34.5706 35.8604H35.4407V31.5654H34.635V34.4336L32.8772 31.5654H32.0334ZM29.3088 32.292C29.6213 32.292 29.8293 32.3018 29.9329 32.3213C30.0735 32.3467 30.1897 32.4102 30.2815 32.5117C30.3733 32.6133 30.4192 32.7422 30.4192 32.8984C30.4192 33.0254 30.386 33.1367 30.3196 33.2324C30.2551 33.3281 30.1653 33.3984 30.05 33.4434C29.9348 33.4883 29.7063 33.5107 29.3645 33.5107H28.8899V32.292H29.3088ZM35.7727 20.666C35.9207 20.7775 36.0621 20.8997 36.1946 21.0322L41.8508 26.6885C41.9832 26.8208 42.1047 26.9626 42.2161 27.1104H39.0227C37.2278 27.1104 35.7727 25.6553 35.7727 23.8604V20.666Z" fill="#888888"/>
</g>
<defs>
<filter id="filter0_d_2027_105" x="0.162354" y="0" width="67.7207" height="67.7208" filterUnits="userSpaceOnUse" color-interpolation-filters="sRGB">
<feFlood flood-opacity="0" result="BackgroundImageFix"/>
<feColorMatrix in="SourceAlpha" type="matrix" values="0 0 0 0 0 0 0 0 0 0 0 0 0 0 0 0 0 0 127 0" result="hardAlpha"/>
<feOffset dy="4"/>
<feGaussianBlur stdDeviation="7.5"/>
<feComposite in2="hardAlpha" operator="out"/>
<feColorMatrix type="matrix" values="0 0 0 0 0.183333 0 0 0 0 0.183333 0 0 0 0 0.183333 0 0 0 0.25 0"/>
<feBlend mode="normal" in2="BackgroundImageFix" result="effect1_dropShadow_2027_105"/>
<feBlend mode="normal" in="SourceGraphic" in2="effect1_dropShadow_2027_105" result="shape"/>
</filter>
</defs>
</svg>
