<svg width="69" height="68" viewBox="0 0 69 68" fill="none" xmlns="http://www.w3.org/2000/svg">
<g filter="url(#filter0_d_2027_60)">
<rect x="15.6038" y="11" width="37.7208" height="37.7208" rx="3" fill="#3D3D3D" shape-rendering="crispEdges"/>
<path fill-rule="evenodd" clip-rule="evenodd" d="M26.6038 19.8604H40.6038C41.7083 19.8604 42.6038 20.7558 42.6038 21.8604V37.0147C42.6038 38.3999 41.2296 39.3657 39.9263 38.8965L38.3646 38.3342C37.8765 38.1586 37.3394 38.1793 36.8664 38.3922L34.4245 39.491C33.9025 39.7259 33.305 39.7259 32.783 39.491L30.3411 38.3922C29.8681 38.1793 29.331 38.1586 28.843 38.3342L27.2812 38.8965C25.9779 39.3657 24.6038 38.3999 24.6038 37.0147V21.8604C24.6038 20.7558 25.4992 19.8604 26.6038 19.8604ZM29.6038 24.1104C29.1895 24.1104 28.8538 24.4461 28.8538 24.8604C28.8538 25.2746 29.1895 25.6104 29.6038 25.6104H33.6038C34.018 25.6104 34.3538 25.2746 34.3538 24.8604C34.3538 24.4461 34.018 24.1104 33.6038 24.1104H29.6038ZM29.6038 28.1104C29.1895 28.1104 28.8538 28.4461 28.8538 28.8604C28.8538 29.2746 29.1895 29.6104 29.6038 29.6104H37.6038C38.018 29.6104 38.3538 29.2746 38.3538 28.8604C38.3538 28.4461 38.018 28.1104 37.6038 28.1104H29.6038ZM29.6038 32.1104C29.1895 32.1104 28.8538 32.4461 28.8538 32.8604C28.8538 33.2746 29.1895 33.6104 29.6038 33.6104H37.6038C38.018 33.6104 38.3538 33.2746 38.3538 32.8604C38.3538 32.4461 38.018 32.1104 37.6038 32.1104H29.6038Z" fill="#888888"/>
</g>
<defs>
<filter id="filter0_d_2027_60" x="0.60376" y="0" width="67.7207" height="67.7208" filterUnits="userSpaceOnUse" color-interpolation-filters="sRGB">
<feFlood flood-opacity="0" result="BackgroundImageFix"/>
<feColorMatrix in="SourceAlpha" type="matrix" values="0 0 0 0 0 0 0 0 0 0 0 0 0 0 0 0 0 0 127 0" result="hardAlpha"/>
<feOffset dy="4"/>
<feGaussianBlur stdDeviation="7.5"/>
<feComposite in2="hardAlpha" operator="out"/>
<feColorMatrix type="matrix" values="0 0 0 0 0.183333 0 0 0 0 0.183333 0 0 0 0 0.183333 0 0 0 0.25 0"/>
<feBlend mode="normal" in2="BackgroundImageFix" result="effect1_dropShadow_2027_60"/>
<feBlend mode="normal" in="SourceGraphic" in2="effect1_dropShadow_2027_60" result="shape"/>
</filter>
</defs>
</svg>
