<svg width="69" height="68" viewBox="0 0 69 68" fill="none" xmlns="http://www.w3.org/2000/svg">
<g filter="url(#filter0_d_2027_104)">
<rect x="15.7207" y="11" width="37.7208" height="37.7208" rx="3" fill="#3D3D3D" shape-rendering="crispEdges"/>
<path d="M33.9238 19.8604C34.2316 19.8604 34.536 19.8962 34.8311 19.9648V23.8604C34.8311 26.4837 36.9577 28.6104 39.5811 28.6104H43.4756C43.5443 28.9054 43.5811 29.2097 43.5811 29.5176V35.8604C43.5811 38.0695 41.7902 39.8604 39.5811 39.8604H29.5811C27.3719 39.8604 25.5811 38.0695 25.5811 35.8604V23.8604C25.5811 21.6512 27.3719 19.8604 29.5811 19.8604H33.9238ZM34.7236 31.4189C34.374 31.4189 34.0654 31.4756 33.7979 31.5889C33.5967 31.6729 33.4111 31.8018 33.2412 31.9756C33.0732 32.1494 32.9404 32.3457 32.8428 32.5645C32.7119 32.8613 32.6465 33.2285 32.6465 33.666C32.6465 34.3496 32.835 34.8867 33.2119 35.2773C33.5889 35.666 34.0967 35.8604 34.7354 35.8604C35.3662 35.8604 35.8701 35.665 36.2471 35.2744C36.624 34.8818 36.8125 34.3389 36.8125 33.6455C36.8125 32.9463 36.6221 32.4004 36.2412 32.0078C35.8623 31.6152 35.3564 31.4189 34.7236 31.4189ZM39.3496 31.4189C38.748 31.4189 38.2627 31.6172 37.8936 32.0137C37.5244 32.4082 37.3398 32.9629 37.3398 33.6777C37.3398 34.3535 37.5234 34.8867 37.8906 35.2773C38.2578 35.666 38.7266 35.8604 39.2969 35.8604C39.7578 35.8604 40.1377 35.7471 40.4365 35.5205C40.7373 35.292 40.9521 34.9434 41.0811 34.4746L40.2402 34.208C40.168 34.5225 40.0488 34.7529 39.8828 34.8994C39.7168 35.0459 39.5186 35.1191 39.2881 35.1191C38.9756 35.1191 38.7217 35.0039 38.5264 34.7734C38.3311 34.543 38.2334 34.1562 38.2334 33.6133C38.2334 33.1016 38.332 32.7314 38.5293 32.5029C38.7285 32.2744 38.9873 32.1602 39.3057 32.1602C39.5361 32.1602 39.7314 32.2246 39.8916 32.3535C40.0537 32.4824 40.1602 32.6582 40.2109 32.8809L41.0693 32.6758C40.9717 32.332 40.8252 32.0684 40.6299 31.8848C40.3018 31.5742 39.875 31.4189 39.3496 31.4189ZM28.4834 31.4922V35.7871H30.1152C30.4355 35.7871 30.6914 35.7568 30.8828 35.6963C31.1387 35.6143 31.3418 35.5 31.4922 35.3535C31.6914 35.1602 31.8447 34.9072 31.9521 34.5947C32.04 34.3389 32.084 34.0342 32.084 33.6807C32.084 33.2783 32.0371 32.9404 31.9434 32.667C31.8496 32.3916 31.7129 32.1592 31.5332 31.9697C31.3535 31.7803 31.1377 31.6484 30.8857 31.5742C30.6982 31.5195 30.4258 31.4922 30.0684 31.4922H28.4834ZM34.7324 32.1602C35.0898 32.1602 35.376 32.2812 35.5908 32.5234C35.8076 32.7656 35.916 33.1328 35.916 33.625C35.916 34.123 35.8047 34.4971 35.582 34.7471C35.3613 34.9951 35.0781 35.1191 34.7324 35.1191C34.3867 35.1191 34.1016 34.9941 33.877 34.7441C33.6523 34.4922 33.54 34.123 33.54 33.6367C33.54 33.1426 33.6494 32.7734 33.8682 32.5293C34.0869 32.2832 34.375 32.1602 34.7324 32.1602ZM29.7402 32.2188C30.0938 32.2188 30.3311 32.2324 30.4521 32.2598C30.6143 32.2949 30.748 32.3623 30.8535 32.4619C30.959 32.5615 31.041 32.7002 31.0996 32.8779C31.1582 33.0557 31.1875 33.3105 31.1875 33.6426C31.1875 33.9746 31.1582 34.2373 31.0996 34.4307C31.041 34.6221 30.9648 34.7598 30.8711 34.8438C30.7793 34.9277 30.6631 34.9873 30.5225 35.0225C30.415 35.0498 30.2402 35.0635 29.998 35.0635H29.3506V32.2188H29.7402ZM36.3311 20.666C36.479 20.7775 36.6204 20.8997 36.7529 21.0322L42.4092 26.6885C42.5415 26.8208 42.663 26.9626 42.7744 27.1104H39.5811C37.7861 27.1104 36.3311 25.6553 36.3311 23.8604V20.666Z" fill="#888888"/>
</g>
<defs>
<filter id="filter0_d_2027_104" x="0.720703" y="0" width="67.7207" height="67.7208" filterUnits="userSpaceOnUse" color-interpolation-filters="sRGB">
<feFlood flood-opacity="0" result="BackgroundImageFix"/>
<feColorMatrix in="SourceAlpha" type="matrix" values="0 0 0 0 0 0 0 0 0 0 0 0 0 0 0 0 0 0 127 0" result="hardAlpha"/>
<feOffset dy="4"/>
<feGaussianBlur stdDeviation="7.5"/>
<feComposite in2="hardAlpha" operator="out"/>
<feColorMatrix type="matrix" values="0 0 0 0 0.183333 0 0 0 0 0.183333 0 0 0 0 0.183333 0 0 0 0.25 0"/>
<feBlend mode="normal" in2="BackgroundImageFix" result="effect1_dropShadow_2027_104"/>
<feBlend mode="normal" in="SourceGraphic" in2="effect1_dropShadow_2027_104" result="shape"/>
</filter>
</defs>
</svg>
