<svg width="68" height="68" viewBox="0 0 68 68" fill="none" xmlns="http://www.w3.org/2000/svg">
<g filter="url(#filter0_d_2027_76)">
<rect x="15.1624" y="11" width="37.7208" height="37.7208" rx="3" fill="#3D3D3D" shape-rendering="crispEdges"/>
<path d="M43.4446 36.4893C44.2157 37.2604 44.2157 38.5111 43.4446 39.2822C42.6735 40.0533 41.4227 40.0533 40.6516 39.2822L38.7795 37.4092C39.8695 36.6541 40.8165 35.7071 41.5715 34.6172L43.4446 36.4893ZM32.5227 19.1104C37.6313 19.1104 41.7727 23.2517 41.7727 28.3604C41.7727 33.469 37.6313 37.6104 32.5227 37.6104C27.4141 37.6104 23.2727 33.469 23.2727 28.3604C23.2727 23.2517 27.4141 19.1104 32.5227 19.1104ZM32.5227 20.6104C28.2425 20.6104 24.7727 24.0801 24.7727 28.3604C24.7727 32.6406 28.2425 36.1104 32.5227 36.1104C36.8029 36.1104 40.2727 32.6406 40.2727 28.3604C40.2727 24.0801 36.8029 20.6104 32.5227 20.6104Z" fill="#888888"/>
</g>
<defs>
<filter id="filter0_d_2027_76" x="0.162354" y="0" width="67.7207" height="67.7208" filterUnits="userSpaceOnUse" color-interpolation-filters="sRGB">
<feFlood flood-opacity="0" result="BackgroundImageFix"/>
<feColorMatrix in="SourceAlpha" type="matrix" values="0 0 0 0 0 0 0 0 0 0 0 0 0 0 0 0 0 0 127 0" result="hardAlpha"/>
<feOffset dy="4"/>
<feGaussianBlur stdDeviation="7.5"/>
<feComposite in2="hardAlpha" operator="out"/>
<feColorMatrix type="matrix" values="0 0 0 0 0.183333 0 0 0 0 0.183333 0 0 0 0 0.183333 0 0 0 0.25 0"/>
<feBlend mode="normal" in2="BackgroundImageFix" result="effect1_dropShadow_2027_76"/>
<feBlend mode="normal" in="SourceGraphic" in2="effect1_dropShadow_2027_76" result="shape"/>
</filter>
</defs>
</svg>
