<svg width="68" height="68" viewBox="0 0 68 68" fill="none" xmlns="http://www.w3.org/2000/svg">
<g filter="url(#filter0_d_2027_55)">
<rect x="15" y="11" width="37.7208" height="37.7208" rx="3" fill="#3D3D3D" shape-rendering="crispEdges"/>
<path fill-rule="evenodd" clip-rule="evenodd" d="M43.8604 29.8604C43.8604 35.3832 39.3832 39.8604 33.8604 39.8604C28.3375 39.8604 23.8604 35.3832 23.8604 29.8604C23.8604 24.3375 28.3375 19.8604 33.8604 19.8604C39.3832 19.8604 43.8604 24.3375 43.8604 29.8604ZM37.2191 33.2191C36.9262 33.5119 36.4514 33.5119 36.1585 33.2191L33.8604 30.921L31.5623 33.2191C31.2694 33.512 30.7945 33.512 30.5016 33.2191C30.2087 32.9262 30.2087 32.4513 30.5016 32.1584L32.7997 29.8603L30.5016 27.5622C30.2087 27.2693 30.2087 26.7944 30.5016 26.5015C30.7945 26.2086 31.2694 26.2086 31.5623 26.5015L33.8604 28.7996L36.1584 26.5015C36.4513 26.2087 36.9262 26.2087 37.2191 26.5015C37.512 26.7944 37.512 27.2693 37.2191 27.5622L34.921 29.8603L37.2191 32.1584C37.512 32.4513 37.512 32.9262 37.2191 33.2191Z" fill="#888888"/>
</g>
<defs>
<filter id="filter0_d_2027_55" x="0" y="0" width="67.7207" height="67.7208" filterUnits="userSpaceOnUse" color-interpolation-filters="sRGB">
<feFlood flood-opacity="0" result="BackgroundImageFix"/>
<feColorMatrix in="SourceAlpha" type="matrix" values="0 0 0 0 0 0 0 0 0 0 0 0 0 0 0 0 0 0 127 0" result="hardAlpha"/>
<feOffset dy="4"/>
<feGaussianBlur stdDeviation="7.5"/>
<feComposite in2="hardAlpha" operator="out"/>
<feColorMatrix type="matrix" values="0 0 0 0 0.183333 0 0 0 0 0.183333 0 0 0 0 0.183333 0 0 0 0.25 0"/>
<feBlend mode="normal" in2="BackgroundImageFix" result="effect1_dropShadow_2027_55"/>
<feBlend mode="normal" in="SourceGraphic" in2="effect1_dropShadow_2027_55" result="shape"/>
</filter>
</defs>
</svg>
