<svg width="68" height="68" viewBox="0 0 68 68" fill="none" xmlns="http://www.w3.org/2000/svg">
<g filter="url(#filter0_d_2027_111)">
<rect x="15.1624" y="11" width="37.7208" height="37.7208" rx="3" fill="#3D3D3D" shape-rendering="crispEdges"/>
<path d="M29.0227 24.1104C29.4369 24.1104 29.7727 24.4461 29.7727 24.8604V28.2744C29.839 28.2239 29.9098 28.1764 29.9846 28.1328L36.0149 24.6152C37.3482 23.8375 39.0227 24.7992 39.0227 26.3428V33.3779C39.0227 34.9215 37.3482 35.8832 36.0149 35.1055L29.9846 31.5879C29.9097 31.5442 29.8392 31.4959 29.7727 31.4453V34.8604C29.7727 35.2746 29.4369 35.6104 29.0227 35.6104C28.6085 35.6104 28.2727 35.2746 28.2727 34.8604V24.8604C28.2727 24.4461 28.6085 24.1104 29.0227 24.1104Z" fill="#888888"/>
</g>
<defs>
<filter id="filter0_d_2027_111" x="0.162354" y="0" width="67.7207" height="67.7207" filterUnits="userSpaceOnUse" color-interpolation-filters="sRGB">
<feFlood flood-opacity="0" result="BackgroundImageFix"/>
<feColorMatrix in="SourceAlpha" type="matrix" values="0 0 0 0 0 0 0 0 0 0 0 0 0 0 0 0 0 0 127 0" result="hardAlpha"/>
<feOffset dy="4"/>
<feGaussianBlur stdDeviation="7.5"/>
<feComposite in2="hardAlpha" operator="out"/>
<feColorMatrix type="matrix" values="0 0 0 0 0.183333 0 0 0 0 0.183333 0 0 0 0 0.183333 0 0 0 0.25 0"/>
<feBlend mode="normal" in2="BackgroundImageFix" result="effect1_dropShadow_2027_111"/>
<feBlend mode="normal" in="SourceGraphic" in2="effect1_dropShadow_2027_111" result="shape"/>
</filter>
</defs>
</svg>
