<svg width="69" height="68" viewBox="0 0 69 68" fill="none" xmlns="http://www.w3.org/2000/svg">
<g filter="url(#filter0_d_2027_93)">
<rect x="15.4414" y="11" width="37.7208" height="37.7208" rx="3" fill="#3D3D3D" shape-rendering="crispEdges"/>
<path fill-rule="evenodd" clip-rule="evenodd" d="M44.3018 23.3604C44.3018 25.2933 42.7348 26.8604 40.8018 26.8604C39.7005 26.8604 38.7181 26.3518 38.0765 25.5567C38.054 25.5711 38.0305 25.5845 38.006 25.5968L31.2683 28.9656C31.2441 28.9777 31.2195 28.9884 31.1946 28.9977C31.2646 29.2736 31.3018 29.5627 31.3018 29.8604C31.3018 30.1581 31.2646 30.4471 31.1946 30.723C31.2195 30.7323 31.2441 30.743 31.2683 30.7551L38.006 34.1239C38.0305 34.1362 38.054 34.1496 38.0765 34.164C38.7181 33.3689 39.7005 32.8604 40.8018 32.8604C42.7348 32.8604 44.3018 34.4274 44.3018 36.3604C44.3018 38.2933 42.7348 39.8604 40.8018 39.8604C38.8688 39.8604 37.3018 38.2933 37.3018 36.3604C37.3018 36.0627 37.3389 35.7736 37.4089 35.4977C37.384 35.4884 37.3594 35.4777 37.3352 35.4656L30.5975 32.0968C30.573 32.0845 30.5495 32.0711 30.527 32.0567C29.8854 32.8518 28.903 33.3604 27.8018 33.3604C25.8688 33.3604 24.3018 31.7933 24.3018 29.8604C24.3018 27.9274 25.8688 26.3604 27.8018 26.3604C28.903 26.3604 29.8854 26.8689 30.527 27.664C30.5495 27.6496 30.573 27.6362 30.5975 27.6239L37.3352 24.2551C37.3594 24.243 37.384 24.2323 37.4089 24.223C37.3389 23.9471 37.3018 23.6581 37.3018 23.3604C37.3018 21.4274 38.8688 19.8604 40.8018 19.8604C42.7348 19.8604 44.3018 21.4274 44.3018 23.3604Z" fill="#888888"/>
</g>
<defs>
<filter id="filter0_d_2027_93" x="0.441406" y="0" width="67.7207" height="67.7208" filterUnits="userSpaceOnUse" color-interpolation-filters="sRGB">
<feFlood flood-opacity="0" result="BackgroundImageFix"/>
<feColorMatrix in="SourceAlpha" type="matrix" values="0 0 0 0 0 0 0 0 0 0 0 0 0 0 0 0 0 0 127 0" result="hardAlpha"/>
<feOffset dy="4"/>
<feGaussianBlur stdDeviation="7.5"/>
<feComposite in2="hardAlpha" operator="out"/>
<feColorMatrix type="matrix" values="0 0 0 0 0.183333 0 0 0 0 0.183333 0 0 0 0 0.183333 0 0 0 0.25 0"/>
<feBlend mode="normal" in2="BackgroundImageFix" result="effect1_dropShadow_2027_93"/>
<feBlend mode="normal" in="SourceGraphic" in2="effect1_dropShadow_2027_93" result="shape"/>
</filter>
</defs>
</svg>
