<svg width="69" height="68" viewBox="0 0 69 68" fill="none" xmlns="http://www.w3.org/2000/svg">
<g filter="url(#filter0_d_2027_143)">
<rect x="15.6038" y="11" width="37.7208" height="37.7208" rx="3" fill="#3D3D3D" shape-rendering="crispEdges"/>
<path d="M33.6038 19.8604C39.1266 19.8604 43.6038 24.3375 43.6038 29.8604C43.6038 35.3832 39.1266 39.8604 33.6038 39.8604C32.0762 39.8603 30.6282 39.5177 29.3333 38.9053L24.9788 39.6309C24.3038 39.7434 23.7169 39.1598 23.8264 38.4844L24.5393 34.0898C23.939 32.8054 23.6038 31.3718 23.6038 29.8604C23.6038 24.3375 28.0809 19.8604 33.6038 19.8604ZM35.6038 29.8604L31.6038 26.8604L27.6038 32.8604L31.6038 29.8604L35.6038 32.8604L39.6038 26.8604L35.6038 29.8604Z" fill="#888888"/>
</g>
<defs>
<filter id="filter0_d_2027_143" x="0.60376" y="0" width="67.7207" height="67.7207" filterUnits="userSpaceOnUse" color-interpolation-filters="sRGB">
<feFlood flood-opacity="0" result="BackgroundImageFix"/>
<feColorMatrix in="SourceAlpha" type="matrix" values="0 0 0 0 0 0 0 0 0 0 0 0 0 0 0 0 0 0 127 0" result="hardAlpha"/>
<feOffset dy="4"/>
<feGaussianBlur stdDeviation="7.5"/>
<feComposite in2="hardAlpha" operator="out"/>
<feColorMatrix type="matrix" values="0 0 0 0 0.183333 0 0 0 0 0.183333 0 0 0 0 0.183333 0 0 0 0.25 0"/>
<feBlend mode="normal" in2="BackgroundImageFix" result="effect1_dropShadow_2027_143"/>
<feBlend mode="normal" in="SourceGraphic" in2="effect1_dropShadow_2027_143" result="shape"/>
</filter>
</defs>
</svg>
