<svg width="69" height="68" viewBox="0 0 69 68" fill="none" xmlns="http://www.w3.org/2000/svg">
<g filter="url(#filter0_d_2027_125)">
<rect x="15.6038" y="11" width="37.7208" height="37.7208" rx="3" fill="#3D3D3D" shape-rendering="crispEdges"/>
<path fill-rule="evenodd" clip-rule="evenodd" d="M42.9944 21.33C43.2873 21.6229 43.2873 22.0978 42.9944 22.3907L37.2748 28.1104H40.4641C40.8783 28.1104 41.2141 28.4461 41.2141 28.8604C41.2141 29.2746 40.8783 29.6104 40.4641 29.6104H35.4641C35.0499 29.6104 34.7141 29.2746 34.7141 28.8604V23.8604C34.7141 23.4461 35.0499 23.1104 35.4641 23.1104C35.8783 23.1104 36.2141 23.4461 36.2141 23.8604V27.0497L41.9338 21.33C42.2267 21.0371 42.7015 21.0371 42.9944 21.33ZM28.4641 31.6104C28.0499 31.6104 27.7141 31.2746 27.7141 30.8604C27.7141 30.4461 28.0499 30.1104 28.4641 30.1104H33.4641C33.8783 30.1104 34.2141 30.4461 34.2141 30.8604V35.8604C34.2141 36.2746 33.8783 36.6104 33.4641 36.6104C33.0499 36.6104 32.7141 36.2746 32.7141 35.8604V32.671L26.9944 38.3907C26.7015 38.6836 26.2267 38.6836 25.9338 38.3907C25.6409 38.0978 25.6409 37.6229 25.9338 37.33L31.6535 31.6104H28.4641Z" fill="#888888"/>
</g>
<defs>
<filter id="filter0_d_2027_125" x="0.60376" y="0" width="67.7207" height="67.7207" filterUnits="userSpaceOnUse" color-interpolation-filters="sRGB">
<feFlood flood-opacity="0" result="BackgroundImageFix"/>
<feColorMatrix in="SourceAlpha" type="matrix" values="0 0 0 0 0 0 0 0 0 0 0 0 0 0 0 0 0 0 127 0" result="hardAlpha"/>
<feOffset dy="4"/>
<feGaussianBlur stdDeviation="7.5"/>
<feComposite in2="hardAlpha" operator="out"/>
<feColorMatrix type="matrix" values="0 0 0 0 0.183333 0 0 0 0 0.183333 0 0 0 0 0.183333 0 0 0 0.25 0"/>
<feBlend mode="normal" in2="BackgroundImageFix" result="effect1_dropShadow_2027_125"/>
<feBlend mode="normal" in="SourceGraphic" in2="effect1_dropShadow_2027_125" result="shape"/>
</filter>
</defs>
</svg>
