<svg width="68" height="68" viewBox="0 0 68 68" fill="none" xmlns="http://www.w3.org/2000/svg">
<g filter="url(#filter0_d_2033_297)">
<rect x="15" y="11" width="37.7208" height="37.7208" rx="3" fill="#3D3D3D" shape-rendering="crispEdges"/>
<path d="M33.8604 20.1104C39.2451 20.1104 43.6104 24.4756 43.6104 29.8604V35.8604C43.6104 37.9314 41.9314 39.6104 39.8604 39.6104C37.7893 39.6104 36.1104 37.9314 36.1104 35.8604V33.8604C36.1104 31.7893 37.7893 30.1104 39.8604 30.1104C40.7044 30.1104 41.4837 30.3888 42.1104 30.8594V29.8604C42.1104 25.304 38.4167 21.6104 33.8604 21.6104C29.304 21.6104 25.6104 25.304 25.6104 29.8604V30.8594C26.237 30.3888 27.0163 30.1104 27.8604 30.1104C29.9314 30.1104 31.6104 31.7893 31.6104 33.8604V35.8604C31.6104 37.9314 29.9314 39.6104 27.8604 39.6104C25.7893 39.6104 24.1104 37.9314 24.1104 35.8604V29.8604C24.1104 24.4756 28.4756 20.1104 33.8604 20.1104Z" fill="#888888"/>
</g>
<defs>
<filter id="filter0_d_2033_297" x="0" y="0" width="67.7207" height="67.7207" filterUnits="userSpaceOnUse" color-interpolation-filters="sRGB">
<feFlood flood-opacity="0" result="BackgroundImageFix"/>
<feColorMatrix in="SourceAlpha" type="matrix" values="0 0 0 0 0 0 0 0 0 0 0 0 0 0 0 0 0 0 127 0" result="hardAlpha"/>
<feOffset dy="4"/>
<feGaussianBlur stdDeviation="7.5"/>
<feComposite in2="hardAlpha" operator="out"/>
<feColorMatrix type="matrix" values="0 0 0 0 0.183333 0 0 0 0 0.183333 0 0 0 0 0.183333 0 0 0 0.25 0"/>
<feBlend mode="normal" in2="BackgroundImageFix" result="effect1_dropShadow_2033_297"/>
<feBlend mode="normal" in="SourceGraphic" in2="effect1_dropShadow_2033_297" result="shape"/>
</filter>
</defs>
</svg>
