<svg width="69" height="68" viewBox="0 0 69 68" fill="none" xmlns="http://www.w3.org/2000/svg">
<g filter="url(#filter0_d_2027_112)">
<rect x="15.8831" y="11" width="37.7208" height="37.7208" rx="3" fill="#3D3D3D" shape-rendering="crispEdges"/>
<path d="M25.7434 24.1104C26.1576 24.1104 26.4934 24.4461 26.4934 24.8604V28.2979C26.5685 28.2384 26.6492 28.1832 26.7356 28.1328L32.7668 24.6152C34.1001 23.8376 35.7747 24.7992 35.7747 26.3428V27.5273L40.7668 24.6152C42.1001 23.8376 43.7747 24.7992 43.7747 26.3428V33.3779C43.7747 34.9214 42.1001 35.883 40.7668 35.1055L35.7747 32.1934V33.3779C35.7747 34.9214 34.1001 35.883 32.7668 35.1055L26.7356 31.5879C26.6491 31.5374 26.5686 31.4815 26.4934 31.4219V34.8604C26.4934 35.2746 26.1576 35.6104 25.7434 35.6104C25.3292 35.6104 24.9934 35.2746 24.9934 34.8604V24.8604C24.9934 24.4461 25.3292 24.1104 25.7434 24.1104Z" fill="#888888"/>
</g>
<defs>
<filter id="filter0_d_2027_112" x="0.883057" y="0" width="67.7207" height="67.7207" filterUnits="userSpaceOnUse" color-interpolation-filters="sRGB">
<feFlood flood-opacity="0" result="BackgroundImageFix"/>
<feColorMatrix in="SourceAlpha" type="matrix" values="0 0 0 0 0 0 0 0 0 0 0 0 0 0 0 0 0 0 127 0" result="hardAlpha"/>
<feOffset dy="4"/>
<feGaussianBlur stdDeviation="7.5"/>
<feComposite in2="hardAlpha" operator="out"/>
<feColorMatrix type="matrix" values="0 0 0 0 0.183333 0 0 0 0 0.183333 0 0 0 0 0.183333 0 0 0 0.25 0"/>
<feBlend mode="normal" in2="BackgroundImageFix" result="effect1_dropShadow_2027_112"/>
<feBlend mode="normal" in="SourceGraphic" in2="effect1_dropShadow_2027_112" result="shape"/>
</filter>
</defs>
</svg>
