<svg width="68" height="68" viewBox="0 0 68 68" fill="none" xmlns="http://www.w3.org/2000/svg">
<g filter="url(#filter0_d_2027_94)">
<rect x="15.1624" y="11" width="37.7208" height="37.7208" rx="3" fill="#3D3D3D" shape-rendering="crispEdges"/>
<path fill-rule="evenodd" clip-rule="evenodd" d="M31.8628 22.9229C31.5034 23.8288 31.2109 24.9292 31.0132 26.1645C31.9696 26.0769 32.9801 26.0303 34.0227 26.0303C35.0654 26.0303 36.0758 26.0769 37.0322 26.1645C36.8346 24.9292 36.542 23.8288 36.1826 22.9229C35.8372 22.0522 35.4448 21.399 35.048 20.9759C34.6527 20.5545 34.306 20.413 34.0227 20.413C33.7395 20.413 33.3927 20.5545 32.9975 20.9759C32.6006 21.399 32.2083 22.0522 31.8628 22.9229ZM30.452 22.3539C30.0035 23.4842 29.6594 24.8458 29.4485 26.3511C28.4103 26.5055 27.4628 26.7115 26.6411 26.96C25.6849 27.2492 24.8558 27.6087 24.2488 28.0428C24.1721 28.0976 24.0964 28.1556 24.0228 28.2167C24.6928 24.0412 27.8738 20.7139 31.9536 19.8604C31.9334 19.8811 31.9133 19.9021 31.8934 19.9233C31.3206 20.5339 30.8398 21.3764 30.452 22.3539ZM36.0918 19.8604C36.1121 19.8811 36.1322 19.9021 36.152 19.9233C36.7248 20.5339 37.2057 21.3764 37.5935 22.3539C38.042 23.4842 38.3861 24.8458 38.597 26.3511C39.6352 26.5055 40.5826 26.7115 41.4044 26.96C42.3605 27.2492 43.1896 27.6087 43.7967 28.0428C43.8734 28.0976 43.949 28.1556 44.0227 28.2167C43.3527 24.0412 40.1716 20.7139 36.0918 19.8604ZM44.0228 31.5037C43.9491 31.5648 43.8734 31.6228 43.7967 31.6776C43.1896 32.1117 42.3605 32.4713 41.4044 32.7604C40.5826 33.009 39.6352 33.2149 38.597 33.3693C38.3861 34.8746 38.042 36.2362 37.5935 37.3665C37.2057 38.344 36.7248 39.1865 36.152 39.7971C36.1321 39.8184 36.1119 39.8395 36.0915 39.8604C40.1715 39.0069 43.3528 35.6794 44.0228 31.5037ZM31.9539 39.8604C31.9336 39.8395 31.9134 39.8184 31.8934 39.7971C31.3206 39.1865 30.8398 38.344 30.452 37.3665C30.0035 36.2362 29.6594 34.8746 29.4485 33.3693C28.4103 33.2149 27.4628 33.009 26.6411 32.7604C25.6849 32.4713 24.8558 32.1117 24.2488 31.6776C24.1721 31.6228 24.0964 31.5648 24.0227 31.5037C24.6927 35.6794 27.8739 39.0069 31.9539 39.8604ZM27.0777 31.2931C27.7222 31.488 28.4637 31.657 29.281 31.7926C29.2348 31.1644 29.2108 30.5185 29.2108 29.8602C29.2108 29.202 29.2348 28.556 29.281 27.9279C28.4637 28.0635 27.7222 28.2324 27.0777 28.4274C26.2006 28.6926 25.5461 28.9933 25.1279 29.2924C24.69 29.6055 24.652 29.8085 24.652 29.8602C24.652 29.9119 24.69 30.1149 25.1279 30.4281C25.5461 30.7271 26.2006 31.0278 27.0777 31.2931ZM30.7303 29.8602C30.7303 30.5968 30.7622 31.3122 30.8221 31.9982C31.821 32.1015 32.8976 32.1582 34.0227 32.1582C35.1479 32.1582 36.2245 32.1015 37.2234 31.9982C37.2833 31.3122 37.3151 30.5968 37.3151 29.8602C37.3151 29.1236 37.2833 28.4083 37.2234 27.7222C36.2245 27.619 35.1479 27.5622 34.0227 27.5622C32.8976 27.5622 31.821 27.619 30.8221 27.7222C30.7622 28.4083 30.7303 29.1236 30.7303 29.8602ZM31.8628 36.7975C31.5034 35.8917 31.2109 34.7913 31.0132 33.5559C31.9696 33.6435 32.9801 33.6902 34.0227 33.6902C35.0654 33.6902 36.0758 33.6435 37.0322 33.5559C36.8346 34.7913 36.542 35.8917 36.1826 36.7975C35.8372 37.6683 35.4448 38.3215 35.048 38.7445C34.6527 39.1659 34.306 39.3074 34.0227 39.3074C33.7395 39.3074 33.3927 39.1659 32.9975 38.7445C32.6006 38.3215 32.2083 37.6683 31.8628 36.7975ZM40.9677 31.2931C40.3232 31.488 39.5817 31.657 38.7644 31.7926C38.8107 31.1644 38.8347 30.5185 38.8347 29.8602C38.8347 29.202 38.8107 28.556 38.7644 27.9279C39.5817 28.0635 40.3232 28.2324 40.9677 28.4274C41.8449 28.6926 42.4993 28.9933 42.9175 29.2924C43.3555 29.6055 43.3934 29.8085 43.3934 29.8602C43.3934 29.9119 43.3555 30.1149 42.9175 30.4281C42.4993 30.7271 41.8449 31.0278 40.9677 31.2931Z" fill="#888888"/>
</g>
<defs>
<filter id="filter0_d_2027_94" x="0.162354" y="0" width="67.7207" height="67.7208" filterUnits="userSpaceOnUse" color-interpolation-filters="sRGB">
<feFlood flood-opacity="0" result="BackgroundImageFix"/>
<feColorMatrix in="SourceAlpha" type="matrix" values="0 0 0 0 0 0 0 0 0 0 0 0 0 0 0 0 0 0 127 0" result="hardAlpha"/>
<feOffset dy="4"/>
<feGaussianBlur stdDeviation="7.5"/>
<feComposite in2="hardAlpha" operator="out"/>
<feColorMatrix type="matrix" values="0 0 0 0 0.183333 0 0 0 0 0.183333 0 0 0 0 0.183333 0 0 0 0.25 0"/>
<feBlend mode="normal" in2="BackgroundImageFix" result="effect1_dropShadow_2027_94"/>
<feBlend mode="normal" in="SourceGraphic" in2="effect1_dropShadow_2027_94" result="shape"/>
</filter>
</defs>
</svg>
