<svg width="69" height="68" viewBox="0 0 69 68" fill="none" xmlns="http://www.w3.org/2000/svg">
<g filter="url(#filter0_d_2027_54)">
<rect x="15.6038" y="11" width="37.7208" height="37.7208" rx="3" fill="#3D3D3D" shape-rendering="crispEdges"/>
<path fill-rule="evenodd" clip-rule="evenodd" d="M44.4641 29.8604C44.4641 35.3832 39.987 39.8604 34.4641 39.8604C28.9413 39.8604 24.4641 35.3832 24.4641 29.8604C24.4641 24.3375 28.9413 19.8604 34.4641 19.8604C39.987 19.8604 44.4641 24.3375 44.4641 29.8604ZM34.4641 25.1104C34.8783 25.1104 35.2141 25.4461 35.2141 25.8604V29.1104H38.4641C38.8783 29.1104 39.2141 29.4461 39.2141 29.8604C39.2141 30.2746 38.8783 30.6104 38.4641 30.6104H35.2141V33.8604C35.2141 34.2746 34.8783 34.6104 34.4641 34.6104C34.0499 34.6104 33.7141 34.2746 33.7141 33.8604V30.6104H30.4641C30.0499 30.6104 29.7141 30.2746 29.7141 29.8604C29.7141 29.4461 30.0499 29.1104 30.4641 29.1104H33.7141V25.8604C33.7141 25.4461 34.0499 25.1104 34.4641 25.1104Z" fill="#888888"/>
</g>
<defs>
<filter id="filter0_d_2027_54" x="0.60376" y="0" width="67.7207" height="67.7208" filterUnits="userSpaceOnUse" color-interpolation-filters="sRGB">
<feFlood flood-opacity="0" result="BackgroundImageFix"/>
<feColorMatrix in="SourceAlpha" type="matrix" values="0 0 0 0 0 0 0 0 0 0 0 0 0 0 0 0 0 0 127 0" result="hardAlpha"/>
<feOffset dy="4"/>
<feGaussianBlur stdDeviation="7.5"/>
<feComposite in2="hardAlpha" operator="out"/>
<feColorMatrix type="matrix" values="0 0 0 0 0.183333 0 0 0 0 0.183333 0 0 0 0 0.183333 0 0 0 0.25 0"/>
<feBlend mode="normal" in2="BackgroundImageFix" result="effect1_dropShadow_2027_54"/>
<feBlend mode="normal" in="SourceGraphic" in2="effect1_dropShadow_2027_54" result="shape"/>
</filter>
</defs>
</svg>
