<svg width="69" height="68" viewBox="0 0 69 68" fill="none" xmlns="http://www.w3.org/2000/svg">
<g filter="url(#filter0_d_2027_90)">
<rect x="15.6038" y="11" width="37.7208" height="37.7208" rx="3" fill="#3D3D3D" shape-rendering="crispEdges"/>
<path d="M34.4641 19.1104C40.3709 19.1104 45.1653 23.8742 45.2141 29.7695C45.2175 30.1837 44.8842 30.5229 44.47 30.5264C44.0558 30.5298 43.7176 30.1964 43.7141 29.7822C43.6722 24.7097 39.5466 20.6104 34.4641 20.6104C29.3555 20.6104 25.2141 24.7517 25.2141 29.8604C25.2141 34.9429 29.3135 39.0684 34.386 39.1104C34.8001 39.1138 35.1336 39.452 35.1301 39.8662C35.1267 40.2804 34.7875 40.6138 34.3733 40.6104C28.478 40.5615 23.7141 35.7671 23.7141 29.8604C23.7141 23.9233 28.5271 19.1104 34.4641 19.1104ZM34.5217 31.2842C34.2403 30.4398 35.0436 29.6365 35.8879 29.918L43.7258 32.5303C44.7103 32.8587 44.7104 34.2518 43.7258 34.5801L40.8313 35.5439C40.5088 35.6515 40.2552 35.905 40.1477 36.2275L39.1838 39.1221C38.8556 40.1066 37.4624 40.1065 37.134 39.1221L34.5217 31.2842ZM34.4641 24.1104C36.8799 24.1104 38.9456 25.6001 39.7971 27.708C39.9521 28.0919 39.7669 28.5284 39.3831 28.6836C38.999 28.8387 38.5616 28.6536 38.4065 28.2695C37.7761 26.7092 36.2476 25.6104 34.4641 25.6104C32.1169 25.6104 30.2141 27.5131 30.2141 29.8604C30.2141 31.6438 31.3129 33.1724 32.8733 33.8027C33.2574 33.9579 33.4425 34.3952 33.2874 34.7793C33.1321 35.1631 32.6957 35.3484 32.3118 35.1934C30.2039 34.3419 28.7141 32.2761 28.7141 29.8604C28.7141 26.6847 31.2885 24.1104 34.4641 24.1104Z" fill="#888888"/>
</g>
<defs>
<filter id="filter0_d_2027_90" x="0.60376" y="0" width="67.7207" height="67.7208" filterUnits="userSpaceOnUse" color-interpolation-filters="sRGB">
<feFlood flood-opacity="0" result="BackgroundImageFix"/>
<feColorMatrix in="SourceAlpha" type="matrix" values="0 0 0 0 0 0 0 0 0 0 0 0 0 0 0 0 0 0 127 0" result="hardAlpha"/>
<feOffset dy="4"/>
<feGaussianBlur stdDeviation="7.5"/>
<feComposite in2="hardAlpha" operator="out"/>
<feColorMatrix type="matrix" values="0 0 0 0 0.183333 0 0 0 0 0.183333 0 0 0 0 0.183333 0 0 0 0.25 0"/>
<feBlend mode="normal" in2="BackgroundImageFix" result="effect1_dropShadow_2027_90"/>
<feBlend mode="normal" in="SourceGraphic" in2="effect1_dropShadow_2027_90" result="shape"/>
</filter>
</defs>
</svg>
