<svg width="69" height="68" viewBox="0 0 69 68" fill="none" xmlns="http://www.w3.org/2000/svg">
<g filter="url(#filter0_d_2027_151)">
<rect x="15.7207" y="11" width="37.7208" height="37.7208" rx="3" fill="#3D3D3D" shape-rendering="crispEdges"/>
<path d="M31.8706 30.4976C32.9748 30.4978 33.8703 31.3924 33.8706 32.4966V37.7222C33.8706 38.8266 32.975 39.7219 31.8706 39.7222C30.766 39.7222 29.8706 38.8267 29.8706 37.7222V32.4966C29.8709 31.3922 30.7662 30.4976 31.8706 30.4976ZM37.2114 35.7222C38.3159 35.7223 39.2114 36.6177 39.2114 37.7222C39.2114 38.8267 38.3159 39.722 37.2114 39.7222C36.1069 39.7222 35.2114 38.8267 35.2114 37.7222V35.7222H37.2114ZM28.73 32.4976C28.7297 33.6019 27.8344 34.4976 26.73 34.4976C25.6256 34.4976 24.7302 33.6019 24.73 32.4976C24.73 31.393 25.6254 30.4976 26.73 30.4976H28.73V32.4976ZM42.4224 30.4966C43.5269 30.4966 44.4224 31.393 44.4224 32.4976C44.4221 33.6019 43.5268 34.4976 42.4224 34.4976H37.2114C36.1069 34.4976 35.2114 33.6012 35.2114 32.4966C35.2117 31.3922 36.107 30.4966 37.2114 30.4966H42.4224ZM32.0005 25.0962C33.1049 25.0963 34.0005 25.9927 34.0005 27.0972C34.0002 28.2014 33.1048 29.097 32.0005 29.0972H26.73C25.6254 29.0972 24.73 28.2008 24.73 27.0962C24.7302 25.9918 25.6256 25.0962 26.73 25.0962H32.0005ZM37.2114 20.0972C38.3159 20.0973 39.2114 20.9927 39.2114 22.0972V27.0972C39.2112 28.2014 38.3157 29.097 37.2114 29.0972C36.1069 29.0972 35.2114 28.2008 35.2114 27.0962V22.0962C35.2117 20.9918 36.107 20.0972 37.2114 20.0972ZM42.4224 25.0962C43.5268 25.0962 44.4221 25.9918 44.4224 27.0962C44.4224 28.2008 43.5269 29.0972 42.4224 29.0972H40.4224V27.0962C40.4226 25.9919 41.3181 25.0963 42.4224 25.0962ZM31.8999 19.9985C33.0045 19.9985 33.8999 20.894 33.8999 21.9985V23.9985H31.8999C30.7953 23.9985 29.8999 23.1031 29.8999 21.9985C29.8999 20.894 30.7953 19.9985 31.8999 19.9985Z" fill="#888888"/>
</g>
<defs>
<filter id="filter0_d_2027_151" x="0.720703" y="0" width="67.7207" height="67.7207" filterUnits="userSpaceOnUse" color-interpolation-filters="sRGB">
<feFlood flood-opacity="0" result="BackgroundImageFix"/>
<feColorMatrix in="SourceAlpha" type="matrix" values="0 0 0 0 0 0 0 0 0 0 0 0 0 0 0 0 0 0 127 0" result="hardAlpha"/>
<feOffset dy="4"/>
<feGaussianBlur stdDeviation="7.5"/>
<feComposite in2="hardAlpha" operator="out"/>
<feColorMatrix type="matrix" values="0 0 0 0 0.183333 0 0 0 0 0.183333 0 0 0 0 0.183333 0 0 0 0.25 0"/>
<feBlend mode="normal" in2="BackgroundImageFix" result="effect1_dropShadow_2027_151"/>
<feBlend mode="normal" in="SourceGraphic" in2="effect1_dropShadow_2027_151" result="shape"/>
</filter>
</defs>
</svg>
