<svg width="69" height="68" viewBox="0 0 69 68" fill="none" xmlns="http://www.w3.org/2000/svg">
<g filter="url(#filter0_d_2027_95)">
<rect x="15.8831" y="11" width="37.7208" height="37.7208" rx="3" fill="#3D3D3D" shape-rendering="crispEdges"/>
<path d="M28.7432 23.1104C29.1575 23.1104 29.4932 23.4461 29.4932 23.8604V34.8506C29.5588 34.8012 29.6209 34.7446 29.6778 34.6807L31.1827 32.9873C31.4578 32.6778 31.9317 32.6497 32.2413 32.9248C32.5508 33.2 32.5789 33.6738 32.3038 33.9834L30.7989 35.6768C30.2874 36.2522 29.5943 36.5584 28.8897 36.5957C28.8424 36.6051 28.7933 36.6104 28.7432 36.6104C28.6932 36.6104 28.6441 36.6051 28.5968 36.5957C27.8922 36.5584 27.1991 36.2522 26.6876 35.6768L25.1827 33.9834C24.9076 33.6738 24.9357 33.2 25.2452 32.9248C25.5548 32.6497 26.0286 32.6778 26.3038 32.9873L27.8087 34.6807C27.8655 34.7446 27.9277 34.8012 27.9932 34.8506V23.8604C27.9932 23.4461 28.329 23.1104 28.7432 23.1104ZM37.7432 35.1104C38.1575 35.1104 38.4932 35.4461 38.4932 35.8604C38.4932 36.2746 38.1575 36.6104 37.7432 36.6104H34.7432C34.329 36.6104 33.9932 36.2746 33.9932 35.8604C33.9932 35.4461 34.329 35.1104 34.7432 35.1104H37.7432ZM40.7432 29.1104C41.1575 29.1104 41.4932 29.4461 41.4932 29.8604C41.4932 30.2746 41.1575 30.6104 40.7432 30.6104H34.7432C34.329 30.6104 33.9932 30.2746 33.9932 29.8604C33.9932 29.4461 34.329 29.1104 34.7432 29.1104H40.7432ZM43.7432 23.1104C44.1575 23.1104 44.4932 23.4461 44.4932 23.8604C44.4932 24.2746 44.1575 24.6104 43.7432 24.6104H34.7432C34.329 24.6104 33.9932 24.2746 33.9932 23.8604C33.9932 23.4461 34.329 23.1104 34.7432 23.1104H43.7432Z" fill="#888888"/>
</g>
<defs>
<filter id="filter0_d_2027_95" x="0.883057" y="0" width="67.7207" height="67.7208" filterUnits="userSpaceOnUse" color-interpolation-filters="sRGB">
<feFlood flood-opacity="0" result="BackgroundImageFix"/>
<feColorMatrix in="SourceAlpha" type="matrix" values="0 0 0 0 0 0 0 0 0 0 0 0 0 0 0 0 0 0 127 0" result="hardAlpha"/>
<feOffset dy="4"/>
<feGaussianBlur stdDeviation="7.5"/>
<feComposite in2="hardAlpha" operator="out"/>
<feColorMatrix type="matrix" values="0 0 0 0 0.183333 0 0 0 0 0.183333 0 0 0 0 0.183333 0 0 0 0.25 0"/>
<feBlend mode="normal" in2="BackgroundImageFix" result="effect1_dropShadow_2027_95"/>
<feBlend mode="normal" in="SourceGraphic" in2="effect1_dropShadow_2027_95" result="shape"/>
</filter>
</defs>
</svg>
