<svg width="68" height="68" viewBox="0 0 68 68" fill="none" xmlns="http://www.w3.org/2000/svg">
<g filter="url(#filter0_d_2027_49)">
<rect x="15" y="11" width="37.7208" height="37.7208" rx="3" fill="#3D3D3D" shape-rendering="crispEdges"/>
<path fill-rule="evenodd" clip-rule="evenodd" d="M36.6523 21.4373C35.4199 20.2048 33.3126 21.0777 33.3126 22.8206C33.3126 23.3395 33.1065 23.8371 32.7396 24.204L31.1189 25.8247C30.752 26.1916 30.2544 26.3977 29.7355 26.3977C27.9926 26.3977 27.1197 28.505 28.3522 29.7374L30.7284 32.1137L25.2109 37.6312C24.9297 37.9124 24.9297 38.3683 25.2109 38.6495C25.4921 38.9306 25.9479 38.9306 26.2291 38.6495L31.7467 33.1319L34.1229 35.5082C35.3554 36.7406 37.4626 35.8677 37.4626 34.1248C37.4626 33.6059 37.6688 33.1083 38.0357 32.7414L39.6564 31.1207C40.0232 30.7539 40.5209 30.5477 41.0397 30.5477C42.7826 30.5477 43.6555 28.4405 42.4231 27.208L36.6523 21.4373Z" fill="#888888"/>
</g>
<defs>
<filter id="filter0_d_2027_49" x="0" y="0" width="67.7207" height="67.7208" filterUnits="userSpaceOnUse" color-interpolation-filters="sRGB">
<feFlood flood-opacity="0" result="BackgroundImageFix"/>
<feColorMatrix in="SourceAlpha" type="matrix" values="0 0 0 0 0 0 0 0 0 0 0 0 0 0 0 0 0 0 127 0" result="hardAlpha"/>
<feOffset dy="4"/>
<feGaussianBlur stdDeviation="7.5"/>
<feComposite in2="hardAlpha" operator="out"/>
<feColorMatrix type="matrix" values="0 0 0 0 0.183333 0 0 0 0 0.183333 0 0 0 0 0.183333 0 0 0 0.25 0"/>
<feBlend mode="normal" in2="BackgroundImageFix" result="effect1_dropShadow_2027_49"/>
<feBlend mode="normal" in="SourceGraphic" in2="effect1_dropShadow_2027_49" result="shape"/>
</filter>
</defs>
</svg>
