<svg width="69" height="68" viewBox="0 0 69 68" fill="none" xmlns="http://www.w3.org/2000/svg">
<g filter="url(#filter0_d_2027_87)">
<rect x="15.4414" y="11" width="37.7208" height="37.7208" rx="3" fill="#3D3D3D" shape-rendering="crispEdges"/>
<path fill-rule="evenodd" clip-rule="evenodd" d="M44.3018 29.8604C44.3018 35.3832 39.8246 39.8604 34.3018 39.8604C28.7789 39.8604 24.3018 35.3832 24.3018 29.8604C24.3018 24.3375 28.7789 19.8604 34.3018 19.8604C39.8246 19.8604 44.3018 24.3375 44.3018 29.8604ZM34.3018 25.6104C33.6114 25.6104 33.0518 26.17 33.0518 26.8604C33.0518 27.2746 32.716 27.6104 32.3018 27.6104C31.8875 27.6104 31.5518 27.2746 31.5518 26.8604C31.5518 25.3416 32.783 24.1104 34.3018 24.1104C35.8205 24.1104 37.0518 25.3416 37.0518 26.8604C37.0518 27.4067 36.8917 27.9179 36.6156 28.347C36.4427 28.6157 36.2405 28.8723 36.0541 29.104L35.9535 29.2286C35.7988 29.4201 35.6568 29.5958 35.5256 29.7761C35.202 30.2208 35.0518 30.555 35.0518 30.8604V31.3604C35.0518 31.7746 34.716 32.1104 34.3018 32.1104C33.8875 32.1104 33.5518 31.7746 33.5518 31.3604V30.8604C33.5518 30.0611 33.9442 29.4001 34.3127 28.8936C34.4684 28.6796 34.6391 28.4685 34.7943 28.2765L34.8854 28.1636C35.0706 27.9335 35.2282 27.731 35.3542 27.5353C35.4792 27.341 35.5518 27.1103 35.5518 26.8604C35.5518 26.17 34.9921 25.6104 34.3018 25.6104ZM35.0518 33.8604C35.0518 33.4461 34.716 33.1104 34.3018 33.1104C33.8875 33.1104 33.5518 33.4461 33.5518 33.8604V34.8604C33.5518 35.2746 33.8875 35.6104 34.3018 35.6104C34.716 35.6104 35.0518 35.2746 35.0518 34.8604V33.8604Z" fill="#888888"/>
</g>
<defs>
<filter id="filter0_d_2027_87" x="0.441406" y="0" width="67.7207" height="67.7208" filterUnits="userSpaceOnUse" color-interpolation-filters="sRGB">
<feFlood flood-opacity="0" result="BackgroundImageFix"/>
<feColorMatrix in="SourceAlpha" type="matrix" values="0 0 0 0 0 0 0 0 0 0 0 0 0 0 0 0 0 0 127 0" result="hardAlpha"/>
<feOffset dy="4"/>
<feGaussianBlur stdDeviation="7.5"/>
<feComposite in2="hardAlpha" operator="out"/>
<feColorMatrix type="matrix" values="0 0 0 0 0.183333 0 0 0 0 0.183333 0 0 0 0 0.183333 0 0 0 0.25 0"/>
<feBlend mode="normal" in2="BackgroundImageFix" result="effect1_dropShadow_2027_87"/>
<feBlend mode="normal" in="SourceGraphic" in2="effect1_dropShadow_2027_87" result="shape"/>
</filter>
</defs>
</svg>
