<svg width="69" height="68" viewBox="0 0 69 68" fill="none" xmlns="http://www.w3.org/2000/svg">
<g filter="url(#filter0_d_2027_137)">
<rect x="15.6038" y="11" width="37.7208" height="37.7208" rx="3" fill="#3D3D3D" shape-rendering="crispEdges"/>
<path d="M41.9377 25.2637C42.879 26.1729 43.4641 27.4484 43.4641 28.8604C43.4641 31.6218 41.2255 33.8604 38.4641 33.8604H34.4641L32.4641 38.8604H28.4641L29.0139 37.3604H30.4797L32.4797 32.3604H35.4641C39.054 32.3604 41.9641 29.4502 41.9641 25.8604C41.9641 25.6592 41.9556 25.4602 41.9377 25.2637ZM35.4641 20.8604C38.2255 20.8604 40.4641 23.0989 40.4641 25.8604C40.4641 28.6218 38.2255 30.8604 35.4641 30.8604H31.4641L29.4641 35.8604H25.4641L30.9641 20.8604H35.4641Z" fill="#888888"/>
</g>
<defs>
<filter id="filter0_d_2027_137" x="0.60376" y="0" width="67.7207" height="67.7207" filterUnits="userSpaceOnUse" color-interpolation-filters="sRGB">
<feFlood flood-opacity="0" result="BackgroundImageFix"/>
<feColorMatrix in="SourceAlpha" type="matrix" values="0 0 0 0 0 0 0 0 0 0 0 0 0 0 0 0 0 0 127 0" result="hardAlpha"/>
<feOffset dy="4"/>
<feGaussianBlur stdDeviation="7.5"/>
<feComposite in2="hardAlpha" operator="out"/>
<feColorMatrix type="matrix" values="0 0 0 0 0.183333 0 0 0 0 0.183333 0 0 0 0 0.183333 0 0 0 0.25 0"/>
<feBlend mode="normal" in2="BackgroundImageFix" result="effect1_dropShadow_2027_137"/>
<feBlend mode="normal" in="SourceGraphic" in2="effect1_dropShadow_2027_137" result="shape"/>
</filter>
</defs>
</svg>
