<svg width="68" height="68" viewBox="0 0 68 68" fill="none" xmlns="http://www.w3.org/2000/svg">
<g filter="url(#filter0_d_2027_147)">
<rect x="15.1624" y="11" width="37.7208" height="37.7208" rx="3" fill="#3D3D3D" shape-rendering="crispEdges"/>
<path d="M32.0227 38.8604C35.3364 38.8604 38.0227 36.1741 38.0227 32.8604V26.0577C38.9052 26.5682 39.9298 26.8604 41.0227 26.8604H42.0227V23.8604H41.0227C39.3659 23.8604 38.0227 22.5172 38.0227 20.8604H35.0227V32.8604C35.0227 34.5172 33.6796 35.8604 32.0227 35.8604C30.3659 35.8604 29.0227 34.5172 29.0227 32.8604C29.0227 31.2035 30.3659 29.8604 32.0227 29.8604V26.8604C28.709 26.8604 26.0227 29.5466 26.0227 32.8604C26.0227 36.1741 28.709 38.8604 32.0227 38.8604Z" fill="#888888"/>
</g>
<defs>
<filter id="filter0_d_2027_147" x="0.162354" y="0" width="67.7207" height="67.7207" filterUnits="userSpaceOnUse" color-interpolation-filters="sRGB">
<feFlood flood-opacity="0" result="BackgroundImageFix"/>
<feColorMatrix in="SourceAlpha" type="matrix" values="0 0 0 0 0 0 0 0 0 0 0 0 0 0 0 0 0 0 127 0" result="hardAlpha"/>
<feOffset dy="4"/>
<feGaussianBlur stdDeviation="7.5"/>
<feComposite in2="hardAlpha" operator="out"/>
<feColorMatrix type="matrix" values="0 0 0 0 0.183333 0 0 0 0 0.183333 0 0 0 0 0.183333 0 0 0 0.25 0"/>
<feBlend mode="normal" in2="BackgroundImageFix" result="effect1_dropShadow_2027_147"/>
<feBlend mode="normal" in="SourceGraphic" in2="effect1_dropShadow_2027_147" result="shape"/>
</filter>
</defs>
</svg>
