<svg width="69" height="68" viewBox="0 0 69 68" fill="none" xmlns="http://www.w3.org/2000/svg">
<g filter="url(#filter0_d_2027_124)">
<rect x="15.8831" y="11" width="37.7208" height="37.7208" rx="3" fill="#3D3D3D" shape-rendering="crispEdges"/>
<path d="M40.7434 19.8604C42.9525 19.8604 44.7434 21.6512 44.7434 23.8604V35.8604C44.7434 38.0695 42.9525 39.8604 40.7434 39.8604H28.7434C26.5343 39.8604 24.7434 38.0695 24.7434 35.8604V23.8604C24.7434 21.6512 26.5343 19.8604 28.7434 19.8604H40.7434ZM29.7434 30.1104C29.3292 30.1104 28.9934 30.4461 28.9934 30.8604C28.9934 31.2746 29.3292 31.6104 29.7434 31.6104H31.9329L29.2131 34.3301C28.9202 34.623 28.9202 35.0977 29.2131 35.3906C29.506 35.6835 29.9808 35.6835 30.2737 35.3906L32.9934 32.6709V34.8604C32.9934 35.2746 33.3292 35.6104 33.7434 35.6104C34.1576 35.6104 34.4934 35.2746 34.4934 34.8604V30.8604C34.4934 30.4461 34.1576 30.1104 33.7434 30.1104H29.7434ZM40.2737 24.3301C39.9808 24.0372 39.506 24.0372 39.2131 24.3301L36.4934 27.0498V24.8604C36.4934 24.4461 36.1576 24.1104 35.7434 24.1104C35.3292 24.1104 34.9934 24.4461 34.9934 24.8604V28.8604C34.9934 29.2746 35.3292 29.6104 35.7434 29.6104H39.7434C40.1576 29.6104 40.4934 29.2746 40.4934 28.8604C40.4934 28.4461 40.1576 28.1104 39.7434 28.1104H37.554L40.2737 25.3906C40.5666 25.0977 40.5666 24.623 40.2737 24.3301Z" fill="#888888"/>
</g>
<defs>
<filter id="filter0_d_2027_124" x="0.883057" y="0" width="67.7207" height="67.7207" filterUnits="userSpaceOnUse" color-interpolation-filters="sRGB">
<feFlood flood-opacity="0" result="BackgroundImageFix"/>
<feColorMatrix in="SourceAlpha" type="matrix" values="0 0 0 0 0 0 0 0 0 0 0 0 0 0 0 0 0 0 127 0" result="hardAlpha"/>
<feOffset dy="4"/>
<feGaussianBlur stdDeviation="7.5"/>
<feComposite in2="hardAlpha" operator="out"/>
<feColorMatrix type="matrix" values="0 0 0 0 0.183333 0 0 0 0 0.183333 0 0 0 0 0.183333 0 0 0 0.25 0"/>
<feBlend mode="normal" in2="BackgroundImageFix" result="effect1_dropShadow_2027_124"/>
<feBlend mode="normal" in="SourceGraphic" in2="effect1_dropShadow_2027_124" result="shape"/>
</filter>
</defs>
</svg>
