<svg width="69" height="68" viewBox="0 0 69 68" fill="none" xmlns="http://www.w3.org/2000/svg">
<g filter="url(#filter0_d_2027_51)">
<rect x="15.4414" y="11" width="37.7208" height="37.7208" rx="3" fill="#3D3D3D" shape-rendering="crispEdges"/>
<path fill-rule="evenodd" clip-rule="evenodd" d="M25.7714 22.3907C25.4785 22.0978 25.4785 21.6229 25.7714 21.33C26.0643 21.0371 26.5392 21.0371 26.8321 21.33L42.8321 37.33C43.125 37.6229 43.125 38.0978 42.8321 38.3907C42.5392 38.6836 42.0643 38.6836 41.7714 38.3907L38.9447 35.5639C37.5354 36.3312 35.9618 36.8604 34.3018 36.8604C30.4862 36.8604 27.1272 34.065 25.1715 32.0073C24.0119 30.7872 24.0119 28.9335 25.1715 27.7134C26.0013 26.8404 27.0837 25.8345 28.3464 24.9657L25.7714 22.3907ZM31.7171 28.3364C31.4532 28.783 31.3018 29.304 31.3018 29.8604C31.3018 31.5172 32.6449 32.8604 34.3018 32.8604C34.8581 32.8604 35.3791 32.7089 35.8257 32.445L31.7171 28.3364ZM34.3018 22.8604C38.1173 22.8604 41.4763 25.6557 43.4321 27.7135C44.5917 28.9335 44.5917 30.7872 43.4321 32.0073C42.992 32.4703 42.4809 32.9706 41.9095 33.4681L31.7145 23.273C32.5439 23.0129 33.4104 22.8604 34.3018 22.8604Z" fill="#888888"/>
</g>
<defs>
<filter id="filter0_d_2027_51" x="0.441406" y="0" width="67.7207" height="67.7208" filterUnits="userSpaceOnUse" color-interpolation-filters="sRGB">
<feFlood flood-opacity="0" result="BackgroundImageFix"/>
<feColorMatrix in="SourceAlpha" type="matrix" values="0 0 0 0 0 0 0 0 0 0 0 0 0 0 0 0 0 0 127 0" result="hardAlpha"/>
<feOffset dy="4"/>
<feGaussianBlur stdDeviation="7.5"/>
<feComposite in2="hardAlpha" operator="out"/>
<feColorMatrix type="matrix" values="0 0 0 0 0.183333 0 0 0 0 0.183333 0 0 0 0 0.183333 0 0 0 0.25 0"/>
<feBlend mode="normal" in2="BackgroundImageFix" result="effect1_dropShadow_2027_51"/>
<feBlend mode="normal" in="SourceGraphic" in2="effect1_dropShadow_2027_51" result="shape"/>
</filter>
</defs>
</svg>
