<svg width="68" height="68" viewBox="0 0 68 68" fill="none" xmlns="http://www.w3.org/2000/svg">
<g filter="url(#filter0_d_2027_150)">
<rect x="15" y="11" width="37.7208" height="37.7208" rx="3" fill="#3D3D3D" shape-rendering="crispEdges"/>
<path d="M44 34.8604C44 37.0695 42.2091 38.8604 40 38.8604H28C25.7909 38.8604 24 37.0695 24 34.8604V26.8232L31.0596 31.958C32.8127 33.2328 35.1873 33.2328 36.9404 31.958L44 26.8232V34.8604ZM40 20.8604C42.0441 20.8604 43.7283 22.3939 43.9688 24.373L35.7646 30.3408C34.7127 31.1058 33.2873 31.1058 32.2354 30.3408L24.0303 24.373C24.2707 22.3938 25.9559 20.8604 28 20.8604H40Z" fill="#888888"/>
</g>
<defs>
<filter id="filter0_d_2027_150" x="0" y="0" width="67.7207" height="67.7207" filterUnits="userSpaceOnUse" color-interpolation-filters="sRGB">
<feFlood flood-opacity="0" result="BackgroundImageFix"/>
<feColorMatrix in="SourceAlpha" type="matrix" values="0 0 0 0 0 0 0 0 0 0 0 0 0 0 0 0 0 0 127 0" result="hardAlpha"/>
<feOffset dy="4"/>
<feGaussianBlur stdDeviation="7.5"/>
<feComposite in2="hardAlpha" operator="out"/>
<feColorMatrix type="matrix" values="0 0 0 0 0.183333 0 0 0 0 0.183333 0 0 0 0 0.183333 0 0 0 0.25 0"/>
<feBlend mode="normal" in2="BackgroundImageFix" result="effect1_dropShadow_2027_150"/>
<feBlend mode="normal" in="SourceGraphic" in2="effect1_dropShadow_2027_150" result="shape"/>
</filter>
</defs>
</svg>
