<svg width="69" height="68" viewBox="0 0 69 68" fill="none" xmlns="http://www.w3.org/2000/svg">
<g filter="url(#filter0_d_2027_45)">
<rect x="15.4414" y="11" width="37.7208" height="37.7208" rx="3" fill="#3D3D3D" shape-rendering="crispEdges"/>
<path fill-rule="evenodd" clip-rule="evenodd" d="M43.4414 29.8604C43.4414 35.3832 38.9643 39.8604 33.4414 39.8604C27.9186 39.8604 23.4414 35.3832 23.4414 29.8604C23.4414 24.3375 27.9186 19.8604 33.4414 19.8604C38.9643 19.8604 43.4414 24.3375 43.4414 29.8604ZM33.4414 24.1104C33.8556 24.1104 34.1914 24.4462 34.1914 24.8604V26.8604C34.1914 27.2746 33.8556 27.6104 33.4414 27.6104C33.0272 27.6104 32.6914 27.2746 32.6914 26.8604V24.8604C32.6914 24.4462 33.0272 24.1104 33.4414 24.1104ZM30.8918 26.4597C31.223 26.211 31.2898 25.7408 31.0411 25.4096C30.7923 25.0784 30.3222 25.0116 29.991 25.2604C28.5961 26.3082 27.6914 27.9788 27.6914 29.8604C27.6914 33.0361 30.2658 35.6104 33.4414 35.6104C36.617 35.6104 39.1914 33.0361 39.1914 29.8604C39.1914 27.9788 38.2868 26.3082 36.8918 25.2604C36.5606 25.0116 36.0905 25.0784 35.8417 25.4096C35.593 25.7408 35.6598 26.211 35.991 26.4597C37.0249 27.2364 37.6914 28.4705 37.6914 29.8604C37.6914 32.2076 35.7886 34.1104 33.4414 34.1104C31.0942 34.1104 29.1914 32.2076 29.1914 29.8604C29.1914 28.4705 29.8579 27.2364 30.8918 26.4597Z" fill="#888888"/>
</g>
<defs>
<filter id="filter0_d_2027_45" x="0.441406" y="0" width="67.7207" height="67.7208" filterUnits="userSpaceOnUse" color-interpolation-filters="sRGB">
<feFlood flood-opacity="0" result="BackgroundImageFix"/>
<feColorMatrix in="SourceAlpha" type="matrix" values="0 0 0 0 0 0 0 0 0 0 0 0 0 0 0 0 0 0 127 0" result="hardAlpha"/>
<feOffset dy="4"/>
<feGaussianBlur stdDeviation="7.5"/>
<feComposite in2="hardAlpha" operator="out"/>
<feColorMatrix type="matrix" values="0 0 0 0 0.183333 0 0 0 0 0.183333 0 0 0 0 0.183333 0 0 0 0.25 0"/>
<feBlend mode="normal" in2="BackgroundImageFix" result="effect1_dropShadow_2027_45"/>
<feBlend mode="normal" in="SourceGraphic" in2="effect1_dropShadow_2027_45" result="shape"/>
</filter>
</defs>
</svg>
