<svg width="69" height="68" viewBox="0 0 69 68" fill="none" xmlns="http://www.w3.org/2000/svg">
<g filter="url(#filter0_d_2027_86)">
<rect x="15.7207" y="11" width="37.7208" height="37.7208" rx="3" fill="#3D3D3D" shape-rendering="crispEdges"/>
<path d="M38.9502 26.4551C39.1741 26.1067 39.6379 26.0057 39.9863 26.2295C40.3347 26.4534 40.4357 26.9172 40.2119 27.2656L36.0479 33.7432C36.0996 34.2747 35.8545 34.8147 35.3721 35.1162L31.3457 37.2578C31.1049 37.4083 30.8444 37.5008 30.5811 37.54V39.8604H24.5811V33.8604C24.5811 32.2035 25.9242 30.8604 27.5811 30.8604C29.2379 30.8604 30.5811 32.2035 30.5811 33.8604V34.3604L33.8242 32.6602C34.2075 32.4164 34.6606 32.3749 35.0596 32.5068L38.9502 26.4551ZM42.5811 19.1104C44.0998 19.1104 45.3311 20.3416 45.3311 21.8604V27.8604C45.3311 29.3791 44.0998 30.6104 42.5811 30.6104H41.5811C41.1668 30.6104 40.8311 30.2746 40.8311 29.8604C40.8311 29.4461 41.1668 29.1104 41.5811 29.1104H42.5811C43.2714 29.1104 43.8311 28.5507 43.8311 27.8604V21.8604C43.8311 21.17 43.2714 20.6104 42.5811 20.6104H30.5811C29.8907 20.6104 29.3311 21.17 29.3311 21.8604V23.3604C29.3311 23.7746 28.9953 24.1104 28.5811 24.1104C28.1668 24.1104 27.8311 23.7746 27.8311 23.3604V21.8604C27.8311 20.3416 29.0623 19.1104 30.5811 19.1104H42.5811ZM27.5811 25.8604C28.6856 25.8604 29.5811 26.7558 29.5811 27.8604C29.5811 28.9649 28.6856 29.8604 27.5811 29.8604C26.4765 29.8604 25.5811 28.9649 25.5811 27.8604C25.5811 26.7558 26.4765 25.8604 27.5811 25.8604ZM36.5811 26.1104C36.9953 26.1104 37.3311 26.4461 37.3311 26.8604C37.3311 27.2746 36.9953 27.6104 36.5811 27.6104H32.5811C32.1668 27.6104 31.8311 27.2746 31.8311 26.8604C31.8311 26.4461 32.1668 26.1104 32.5811 26.1104H36.5811ZM40.5811 23.1104C40.9953 23.1104 41.3311 23.4461 41.3311 23.8604C41.3311 24.2746 40.9953 24.6104 40.5811 24.6104H32.5811C32.1668 24.6104 31.8311 24.2746 31.8311 23.8604C31.8311 23.4461 32.1668 23.1104 32.5811 23.1104H40.5811Z" fill="#888888"/>
</g>
<defs>
<filter id="filter0_d_2027_86" x="0.720703" y="0" width="67.7207" height="67.7208" filterUnits="userSpaceOnUse" color-interpolation-filters="sRGB">
<feFlood flood-opacity="0" result="BackgroundImageFix"/>
<feColorMatrix in="SourceAlpha" type="matrix" values="0 0 0 0 0 0 0 0 0 0 0 0 0 0 0 0 0 0 127 0" result="hardAlpha"/>
<feOffset dy="4"/>
<feGaussianBlur stdDeviation="7.5"/>
<feComposite in2="hardAlpha" operator="out"/>
<feColorMatrix type="matrix" values="0 0 0 0 0.183333 0 0 0 0 0.183333 0 0 0 0 0.183333 0 0 0 0.25 0"/>
<feBlend mode="normal" in2="BackgroundImageFix" result="effect1_dropShadow_2027_86"/>
<feBlend mode="normal" in="SourceGraphic" in2="effect1_dropShadow_2027_86" result="shape"/>
</filter>
</defs>
</svg>
