<svg width="68" height="68" viewBox="0 0 68 68" fill="none" xmlns="http://www.w3.org/2000/svg">
<g filter="url(#filter0_d_2027_135)">
<rect x="15.1624" y="11" width="37.7208" height="37.7208" rx="3" fill="#3D3D3D" shape-rendering="crispEdges"/>
<path d="M34.0227 18.8604C28.7751 18.8604 24.5227 23.1687 24.5227 28.4854C24.5227 33.527 29.0465 37.652 34.0227 37.652V40.8604C39.7679 38.0187 43.5227 33.3437 43.5227 28.4854C43.5227 23.1687 39.2703 18.8604 34.0227 18.8604ZM33.5703 29.8604C33.5703 31.1437 32.756 32.152 31.7608 32.152V29.8604H29.4989V25.7354H33.5703V29.8604ZM38.9989 29.8604C38.9989 31.1437 38.1846 32.152 37.1894 32.152V29.8604H34.9275V25.7354H38.9989V29.8604Z" fill="#888888"/>
</g>
<defs>
<filter id="filter0_d_2027_135" x="0.162354" y="0" width="67.7207" height="67.7207" filterUnits="userSpaceOnUse" color-interpolation-filters="sRGB">
<feFlood flood-opacity="0" result="BackgroundImageFix"/>
<feColorMatrix in="SourceAlpha" type="matrix" values="0 0 0 0 0 0 0 0 0 0 0 0 0 0 0 0 0 0 127 0" result="hardAlpha"/>
<feOffset dy="4"/>
<feGaussianBlur stdDeviation="7.5"/>
<feComposite in2="hardAlpha" operator="out"/>
<feColorMatrix type="matrix" values="0 0 0 0 0.183333 0 0 0 0 0.183333 0 0 0 0 0.183333 0 0 0 0.25 0"/>
<feBlend mode="normal" in2="BackgroundImageFix" result="effect1_dropShadow_2027_135"/>
<feBlend mode="normal" in="SourceGraphic" in2="effect1_dropShadow_2027_135" result="shape"/>
</filter>
</defs>
</svg>
