<svg width="69" height="68" viewBox="0 0 69 68" fill="none" xmlns="http://www.w3.org/2000/svg">
<g filter="url(#filter0_d_2027_78)">
<rect x="15.6038" y="11" width="37.7208" height="37.7208" rx="3" fill="#3D3D3D" shape-rendering="crispEdges"/>
<path d="M27.4083 22.0436C28.5023 20.8129 30.4258 20.8129 31.5197 22.0436L33.0246 23.737C33.2997 24.0465 33.2716 24.5204 32.9621 24.7956C32.6525 25.0707 32.1787 25.0434 31.9035 24.734L30.3986 23.0407C30.3418 22.9768 30.2795 22.9201 30.214 22.8708V36.8502C30.2796 36.8009 30.3417 36.7443 30.3986 36.6803L31.9035 34.987C32.1786 34.6775 32.6525 34.6496 32.9621 34.9245C33.2716 35.1997 33.2997 35.6744 33.0246 35.984L31.5197 37.6774C30.4258 38.9079 28.5023 38.9079 27.4083 37.6774L25.9035 35.984C25.6283 35.6744 25.6564 35.1997 25.966 34.9245C26.2755 34.6496 26.7494 34.6775 27.0246 34.987L28.5294 36.6803C28.5863 36.7443 28.6484 36.8009 28.714 36.8502V22.8708C28.6485 22.9201 28.5862 22.9768 28.5294 23.0407L27.0246 24.734C26.7493 25.0434 26.2755 25.0707 25.966 24.7956C25.6564 24.5204 25.6283 24.0465 25.9035 23.737L27.4083 22.0436ZM39.464 31.86C41.1208 31.86 42.4639 33.2033 42.464 34.86C42.464 36.5169 41.1209 37.86 39.464 37.86C37.8072 37.86 36.464 36.5169 36.464 34.86C36.4641 33.2033 37.8072 31.86 39.464 31.86ZM39.464 21.86C41.1208 21.86 42.4639 23.2033 42.464 24.86C42.464 26.5169 41.1209 27.86 39.464 27.86C37.8072 27.86 36.464 26.5169 36.464 24.86C36.4641 23.2033 37.8072 21.86 39.464 21.86Z" fill="#888888"/>
</g>
<defs>
<filter id="filter0_d_2027_78" x="0.60376" y="0" width="67.7207" height="67.7208" filterUnits="userSpaceOnUse" color-interpolation-filters="sRGB">
<feFlood flood-opacity="0" result="BackgroundImageFix"/>
<feColorMatrix in="SourceAlpha" type="matrix" values="0 0 0 0 0 0 0 0 0 0 0 0 0 0 0 0 0 0 127 0" result="hardAlpha"/>
<feOffset dy="4"/>
<feGaussianBlur stdDeviation="7.5"/>
<feComposite in2="hardAlpha" operator="out"/>
<feColorMatrix type="matrix" values="0 0 0 0 0.183333 0 0 0 0 0.183333 0 0 0 0 0.183333 0 0 0 0.25 0"/>
<feBlend mode="normal" in2="BackgroundImageFix" result="effect1_dropShadow_2027_78"/>
<feBlend mode="normal" in="SourceGraphic" in2="effect1_dropShadow_2027_78" result="shape"/>
</filter>
</defs>
</svg>
