<svg width="68" height="68" viewBox="0 0 68 68" fill="none" xmlns="http://www.w3.org/2000/svg">
<g filter="url(#filter0_d_2027_103)">
<rect x="15" y="11" width="37.7208" height="37.7208" rx="3" fill="#3D3D3D" shape-rendering="crispEdges"/>
<path d="M33.2031 19.8604C33.5109 19.8604 33.8153 19.8962 34.1104 19.9648V23.8604C34.1104 26.4837 36.237 28.6104 38.8604 28.6104H42.7549C42.8236 28.9054 42.8604 29.2097 42.8604 29.5176V35.8604C42.8604 38.0695 41.0695 39.8604 38.8604 39.8604H28.8604C26.6512 39.8604 24.8604 38.0695 24.8604 35.8604V23.8604C24.8604 21.6512 26.6512 19.8604 28.8604 19.8604H33.2031ZM28.2969 31.5654V35.8604H29.1641V34.2402H29.7295C30.1221 34.2402 30.4219 34.2197 30.6289 34.1787C30.7812 34.1455 30.9307 34.0781 31.0771 33.9766C31.2256 33.873 31.3477 33.7314 31.4434 33.5518C31.5391 33.3721 31.5869 33.1504 31.5869 32.8867C31.5869 32.5449 31.5039 32.2666 31.3379 32.0518C31.1719 31.835 30.9658 31.6943 30.7197 31.6299C30.5596 31.5869 30.2158 31.5654 29.6885 31.5654H28.2969ZM32.2959 31.5654V35.8604H33.9277C34.248 35.8604 34.5039 35.8301 34.6953 35.7695C34.9512 35.6875 35.1543 35.5732 35.3047 35.4268C35.5039 35.2334 35.6572 34.9805 35.7646 34.668C35.8525 34.4121 35.8965 34.1074 35.8965 33.7539C35.8965 33.3516 35.8496 33.0137 35.7559 32.7402C35.6621 32.4648 35.5254 32.2324 35.3457 32.043C35.166 31.8535 34.9502 31.7217 34.6982 31.6475C34.5107 31.5928 34.2383 31.5654 33.8809 31.5654H32.2959ZM36.6406 31.5654V35.8604H37.5078V34.0352H39.3008V33.3086H37.5078V32.292H39.585V31.5654H36.6406ZM33.5527 32.292C33.9062 32.292 34.1436 32.3057 34.2646 32.333C34.4268 32.3682 34.5605 32.4355 34.666 32.5352C34.7715 32.6348 34.8535 32.7734 34.9121 32.9512C34.9707 33.1289 35 33.3838 35 33.7158C35 34.0479 34.9707 34.3105 34.9121 34.5039C34.8535 34.6953 34.7773 34.833 34.6836 34.917C34.5918 35.001 34.4756 35.0605 34.335 35.0957C34.2275 35.123 34.0527 35.1367 33.8105 35.1367H33.1631V32.292H33.5527ZM29.583 32.292C29.8955 32.292 30.1035 32.3018 30.207 32.3213C30.3477 32.3467 30.4639 32.4102 30.5557 32.5117C30.6475 32.6133 30.6934 32.7422 30.6934 32.8984C30.6934 33.0254 30.6602 33.1367 30.5938 33.2324C30.5293 33.3281 30.4395 33.3984 30.3242 33.4434C30.209 33.4883 29.9805 33.5107 29.6387 33.5107H29.1641V32.292H29.583ZM35.6104 20.666C35.7583 20.7775 35.8997 20.8997 36.0322 21.0322L41.6885 26.6885C41.8208 26.8208 41.9423 26.9626 42.0537 27.1104H38.8604C37.0654 27.1104 35.6104 25.6553 35.6104 23.8604V20.666Z" fill="#888888"/>
</g>
<defs>
<filter id="filter0_d_2027_103" x="0" y="0" width="67.7207" height="67.7208" filterUnits="userSpaceOnUse" color-interpolation-filters="sRGB">
<feFlood flood-opacity="0" result="BackgroundImageFix"/>
<feColorMatrix in="SourceAlpha" type="matrix" values="0 0 0 0 0 0 0 0 0 0 0 0 0 0 0 0 0 0 127 0" result="hardAlpha"/>
<feOffset dy="4"/>
<feGaussianBlur stdDeviation="7.5"/>
<feComposite in2="hardAlpha" operator="out"/>
<feColorMatrix type="matrix" values="0 0 0 0 0.183333 0 0 0 0 0.183333 0 0 0 0 0.183333 0 0 0 0.25 0"/>
<feBlend mode="normal" in2="BackgroundImageFix" result="effect1_dropShadow_2027_103"/>
<feBlend mode="normal" in="SourceGraphic" in2="effect1_dropShadow_2027_103" result="shape"/>
</filter>
</defs>
</svg>
