<svg width="69" height="68" viewBox="0 0 69 68" fill="none" xmlns="http://www.w3.org/2000/svg">
<g filter="url(#filter0_d_2027_77)">
<rect x="15.8831" y="11" width="37.7208" height="37.7208" rx="3" fill="#3D3D3D" shape-rendering="crispEdges"/>
<path d="M34.7434 38.1104C35.1576 38.1104 35.4934 38.4461 35.4934 38.8604V39.8604C35.4934 40.2746 35.1576 40.6104 34.7434 40.6104C34.3292 40.6104 33.9934 40.2746 33.9934 39.8604V38.8604C33.9934 38.4461 34.3292 38.1104 34.7434 38.1104ZM27.8489 35.6943C28.1418 35.4014 28.6165 35.4014 28.9094 35.6943C29.2023 35.9872 29.2023 36.462 28.9094 36.7549L28.2024 37.4619C27.9095 37.7546 27.4347 37.7547 27.1418 37.4619C26.849 37.1691 26.8492 36.6943 27.1418 36.4014L27.8489 35.6943ZM40.5774 35.6943C40.8703 35.4014 41.345 35.4014 41.6379 35.6943L42.345 36.4014C42.6376 36.6943 42.6378 37.1691 42.345 37.4619C42.0522 37.7547 41.5773 37.7546 41.2844 37.4619L40.5774 36.7549C40.2845 36.462 40.2845 35.9872 40.5774 35.6943ZM34.7434 23.8604C38.0571 23.8604 40.7434 26.5466 40.7434 29.8604C40.7434 33.1741 38.0571 35.8604 34.7434 35.8604C31.4297 35.8604 28.7434 33.1741 28.7434 29.8604C28.7434 26.5466 31.4297 23.8604 34.7434 23.8604ZM25.7434 29.1104C26.1576 29.1104 26.4934 29.4461 26.4934 29.8604C26.4934 30.2746 26.1576 30.6104 25.7434 30.6104H24.7434C24.3292 30.6104 23.9934 30.2746 23.9934 29.8604C23.9934 29.4461 24.3292 29.1104 24.7434 29.1104H25.7434ZM44.7434 29.1104C45.1576 29.1104 45.4934 29.4461 45.4934 29.8604C45.4934 30.2746 45.1576 30.6104 44.7434 30.6104H43.7434C43.3292 30.6104 42.9934 30.2746 42.9934 29.8604C42.9934 29.4461 43.3292 29.1104 43.7434 29.1104H44.7434ZM27.1418 22.2588C27.4347 21.966 27.9095 21.9661 28.2024 22.2588L28.9094 22.9658C29.2023 23.2587 29.2023 23.7335 28.9094 24.0264C28.6165 24.3193 28.1418 24.3193 27.8489 24.0264L27.1418 23.3193C26.8491 23.0264 26.849 22.5516 27.1418 22.2588ZM41.2844 22.2588C41.5773 21.9661 42.0521 21.966 42.345 22.2588C42.6377 22.5516 42.6377 23.0265 42.345 23.3193L41.6379 24.0264C41.3451 24.3192 40.8703 24.3192 40.5774 24.0264C40.2845 23.7335 40.2845 23.2587 40.5774 22.9658L41.2844 22.2588ZM34.7434 19.1104C35.1576 19.1104 35.4934 19.4461 35.4934 19.8604V20.8604C35.4934 21.2746 35.1576 21.6104 34.7434 21.6104C34.3292 21.6104 33.9934 21.2746 33.9934 20.8604V19.8604C33.9934 19.4461 34.3292 19.1104 34.7434 19.1104Z" fill="#888888"/>
</g>
<defs>
<filter id="filter0_d_2027_77" x="0.883057" y="0" width="67.7207" height="67.7208" filterUnits="userSpaceOnUse" color-interpolation-filters="sRGB">
<feFlood flood-opacity="0" result="BackgroundImageFix"/>
<feColorMatrix in="SourceAlpha" type="matrix" values="0 0 0 0 0 0 0 0 0 0 0 0 0 0 0 0 0 0 127 0" result="hardAlpha"/>
<feOffset dy="4"/>
<feGaussianBlur stdDeviation="7.5"/>
<feComposite in2="hardAlpha" operator="out"/>
<feColorMatrix type="matrix" values="0 0 0 0 0.183333 0 0 0 0 0.183333 0 0 0 0 0.183333 0 0 0 0.25 0"/>
<feBlend mode="normal" in2="BackgroundImageFix" result="effect1_dropShadow_2027_77"/>
<feBlend mode="normal" in="SourceGraphic" in2="effect1_dropShadow_2027_77" result="shape"/>
</filter>
</defs>
</svg>
