<svg width="68" height="68" viewBox="0 0 68 68" fill="none" xmlns="http://www.w3.org/2000/svg">
<g filter="url(#filter0_d_2027_79)">
<rect x="15" y="11" width="37.7208" height="37.7208" rx="3" fill="#3D3D3D" shape-rendering="crispEdges"/>
<path d="M28.8604 34.1104C30.3791 34.1104 31.6104 35.3416 31.6104 36.8604C31.6104 38.3791 30.3791 39.6104 28.8604 39.6104C27.6016 39.6104 26.5403 38.7646 26.2139 37.6104H24.8604C24.4461 37.6104 24.1104 37.2746 24.1104 36.8604C24.1104 36.4461 24.4461 36.1104 24.8604 36.1104H26.2139C26.5403 34.9561 27.6016 34.1104 28.8604 34.1104ZM42.8604 36.1104C43.2746 36.1104 43.6104 36.4461 43.6104 36.8604C43.6104 37.2746 43.2746 37.6104 42.8604 37.6104H33.8604C33.4461 37.6104 33.1104 37.2746 33.1104 36.8604C33.1104 36.4461 33.4461 36.1104 33.8604 36.1104H42.8604ZM38.8604 27.1104C40.1191 27.1104 41.1804 27.9561 41.5068 29.1104H42.8604C43.2746 29.1104 43.6104 29.4461 43.6104 29.8604C43.6104 30.2746 43.2746 30.6104 42.8604 30.6104H41.5068C41.1804 31.7646 40.1191 32.6104 38.8604 32.6104C37.3416 32.6104 36.1104 31.3791 36.1104 29.8604C36.1104 28.3416 37.3416 27.1104 38.8604 27.1104ZM33.8604 29.1104C34.2746 29.1104 34.6104 29.4461 34.6104 29.8604C34.6104 30.2746 34.2746 30.6104 33.8604 30.6104H24.8604C24.4461 30.6104 24.1104 30.2746 24.1104 29.8604C24.1104 29.4461 24.4461 29.1104 24.8604 29.1104H33.8604ZM33.8604 20.1104C35.1191 20.1104 36.1804 20.9561 36.5068 22.1104H42.8604C43.2746 22.1104 43.6104 22.4461 43.6104 22.8604C43.6104 23.2746 43.2746 23.6104 42.8604 23.6104H36.5068C36.1804 24.7646 35.1191 25.6104 33.8604 25.6104C32.6016 25.6104 31.5403 24.7646 31.2139 23.6104H24.8604C24.4461 23.6104 24.1104 23.2746 24.1104 22.8604C24.1104 22.4461 24.4461 22.1104 24.8604 22.1104H31.2139C31.5403 20.9561 32.6016 20.1104 33.8604 20.1104Z" fill="#888888"/>
</g>
<defs>
<filter id="filter0_d_2027_79" x="0" y="0" width="67.7207" height="67.7208" filterUnits="userSpaceOnUse" color-interpolation-filters="sRGB">
<feFlood flood-opacity="0" result="BackgroundImageFix"/>
<feColorMatrix in="SourceAlpha" type="matrix" values="0 0 0 0 0 0 0 0 0 0 0 0 0 0 0 0 0 0 127 0" result="hardAlpha"/>
<feOffset dy="4"/>
<feGaussianBlur stdDeviation="7.5"/>
<feComposite in2="hardAlpha" operator="out"/>
<feColorMatrix type="matrix" values="0 0 0 0 0.183333 0 0 0 0 0.183333 0 0 0 0 0.183333 0 0 0 0.25 0"/>
<feBlend mode="normal" in2="BackgroundImageFix" result="effect1_dropShadow_2027_79"/>
<feBlend mode="normal" in="SourceGraphic" in2="effect1_dropShadow_2027_79" result="shape"/>
</filter>
</defs>
</svg>
