<svg width="69" height="68" viewBox="0 0 69 68" fill="none" xmlns="http://www.w3.org/2000/svg">
<g filter="url(#filter0_d_2027_53)">
<rect x="15.8831" y="11" width="37.7208" height="37.7208" rx="3" fill="#3D3D3D" shape-rendering="crispEdges"/>
<path fill-rule="evenodd" clip-rule="evenodd" d="M40.7434 19.8604H28.7434C26.5343 19.8604 24.7434 21.6512 24.7434 23.8604V35.8604C24.7434 38.0695 26.5343 39.8604 28.7434 39.8604H40.7434C42.9525 39.8604 44.7434 38.0695 44.7434 35.8604V23.8604C44.7434 21.6512 42.9525 19.8604 40.7434 19.8604ZM39.3354 27.3208C39.5897 26.9939 39.5308 26.5227 39.2039 26.2684C38.8769 26.0141 38.4057 26.073 38.1514 26.3999L34.1444 31.5518C34.0553 31.6664 33.8877 31.6812 33.7798 31.5841L31.2451 29.3029C30.9373 29.0258 30.463 29.0508 30.1859 29.3587C29.9088 29.6665 29.9338 30.1408 30.2417 30.4179L32.7764 32.6991C33.5315 33.3787 34.7047 33.2746 35.3284 32.4727L39.3354 27.3208Z" fill="#888888"/>
</g>
<defs>
<filter id="filter0_d_2027_53" x="0.883057" y="0" width="67.7207" height="67.7208" filterUnits="userSpaceOnUse" color-interpolation-filters="sRGB">
<feFlood flood-opacity="0" result="BackgroundImageFix"/>
<feColorMatrix in="SourceAlpha" type="matrix" values="0 0 0 0 0 0 0 0 0 0 0 0 0 0 0 0 0 0 127 0" result="hardAlpha"/>
<feOffset dy="4"/>
<feGaussianBlur stdDeviation="7.5"/>
<feComposite in2="hardAlpha" operator="out"/>
<feColorMatrix type="matrix" values="0 0 0 0 0.183333 0 0 0 0 0.183333 0 0 0 0 0.183333 0 0 0 0.25 0"/>
<feBlend mode="normal" in2="BackgroundImageFix" result="effect1_dropShadow_2027_53"/>
<feBlend mode="normal" in="SourceGraphic" in2="effect1_dropShadow_2027_53" result="shape"/>
</filter>
</defs>
</svg>
