<svg width="69" height="68" viewBox="0 0 69 68" fill="none" xmlns="http://www.w3.org/2000/svg">
<g filter="url(#filter0_d_2027_128)">
<rect x="15.4414" y="11" width="37.7208" height="37.7208" rx="3" fill="#3D3D3D" shape-rendering="crispEdges"/>
<path fill-rule="evenodd" clip-rule="evenodd" d="M36.7018 22.4104C36.9503 22.079 37.4204 22.0119 37.7518 22.2604L41.7518 25.2604C41.9406 25.402 42.0518 25.6243 42.0518 25.8604C42.0518 26.0965 41.9406 26.3188 41.7518 26.4604L37.7518 29.4604C37.4204 29.7089 36.9503 29.6418 36.7018 29.3104C36.4532 28.979 36.5204 28.5089 36.8518 28.2604L39.0518 26.6104H31.3018C29.5068 26.6104 28.0518 28.0655 28.0518 29.8604C28.0518 31.6553 29.5068 33.1104 31.3018 33.1104H41.3018C41.716 33.1104 42.0518 33.4462 42.0518 33.8604C42.0518 34.2746 41.716 34.6104 41.3018 34.6104H31.3018C28.6784 34.6104 26.5518 32.4837 26.5518 29.8604C26.5518 27.237 28.6784 25.1104 31.3018 25.1104H39.0518L36.8518 23.4604C36.5204 23.2119 36.4532 22.7418 36.7018 22.4104Z" fill="#888888"/>
</g>
<defs>
<filter id="filter0_d_2027_128" x="0.441406" y="0" width="67.7207" height="67.7207" filterUnits="userSpaceOnUse" color-interpolation-filters="sRGB">
<feFlood flood-opacity="0" result="BackgroundImageFix"/>
<feColorMatrix in="SourceAlpha" type="matrix" values="0 0 0 0 0 0 0 0 0 0 0 0 0 0 0 0 0 0 127 0" result="hardAlpha"/>
<feOffset dy="4"/>
<feGaussianBlur stdDeviation="7.5"/>
<feComposite in2="hardAlpha" operator="out"/>
<feColorMatrix type="matrix" values="0 0 0 0 0.183333 0 0 0 0 0.183333 0 0 0 0 0.183333 0 0 0 0.25 0"/>
<feBlend mode="normal" in2="BackgroundImageFix" result="effect1_dropShadow_2027_128"/>
<feBlend mode="normal" in="SourceGraphic" in2="effect1_dropShadow_2027_128" result="shape"/>
</filter>
</defs>
</svg>
