<svg width="69" height="68" viewBox="0 0 69 68" fill="none" xmlns="http://www.w3.org/2000/svg">
<g filter="url(#filter0_d_2027_57)">
<rect x="15.4414" y="11" width="37.7208" height="37.7208" rx="3" fill="#3D3D3D" shape-rendering="crispEdges"/>
<path fill-rule="evenodd" clip-rule="evenodd" d="M34.3018 39.8604C39.8246 39.8604 44.3018 35.3832 44.3018 29.8604C44.3018 24.3375 39.8246 19.8604 34.3018 19.8604C28.7789 19.8604 24.3018 24.3375 24.3018 29.8604C24.3018 35.3832 28.7789 39.8604 34.3018 39.8604ZM35.0518 25.8604C35.0518 25.4461 34.716 25.1104 34.3018 25.1104C33.8875 25.1104 33.5518 25.4461 33.5518 25.8604V26.8604C33.5518 27.2746 33.8875 27.6104 34.3018 27.6104C34.716 27.6104 35.0518 27.2746 35.0518 26.8604V25.8604ZM35.0518 29.3604C35.0518 28.9461 34.716 28.6104 34.3018 28.6104C33.8875 28.6104 33.5518 28.9461 33.5518 29.3604V33.8604C33.5518 34.2746 33.8875 34.6104 34.3018 34.6104C34.716 34.6104 35.0518 34.2746 35.0518 33.8604V29.3604Z" fill="#888888"/>
</g>
<defs>
<filter id="filter0_d_2027_57" x="0.441406" y="0" width="67.7207" height="67.7208" filterUnits="userSpaceOnUse" color-interpolation-filters="sRGB">
<feFlood flood-opacity="0" result="BackgroundImageFix"/>
<feColorMatrix in="SourceAlpha" type="matrix" values="0 0 0 0 0 0 0 0 0 0 0 0 0 0 0 0 0 0 127 0" result="hardAlpha"/>
<feOffset dy="4"/>
<feGaussianBlur stdDeviation="7.5"/>
<feComposite in2="hardAlpha" operator="out"/>
<feColorMatrix type="matrix" values="0 0 0 0 0.183333 0 0 0 0 0.183333 0 0 0 0 0.183333 0 0 0 0.25 0"/>
<feBlend mode="normal" in2="BackgroundImageFix" result="effect1_dropShadow_2027_57"/>
<feBlend mode="normal" in="SourceGraphic" in2="effect1_dropShadow_2027_57" result="shape"/>
</filter>
</defs>
</svg>
