<svg width="69" height="68" viewBox="0 0 69 68" fill="none" xmlns="http://www.w3.org/2000/svg">
<g filter="url(#filter0_d_2027_66)">
<rect x="15.6038" y="11" width="37.7208" height="37.7208" rx="3" fill="#3D3D3D" shape-rendering="crispEdges"/>
<path fill-rule="evenodd" clip-rule="evenodd" d="M33.7141 22.2384C31.5951 20.7826 28.6536 20.1197 26.4584 19.8716C25.3605 19.7476 24.4641 20.6644 24.4641 21.7955V33.0603C24.4641 34.1915 25.3605 35.1086 26.4584 35.2327C28.6536 35.4807 31.5951 36.1437 33.7141 37.5995V22.2384ZM35.2141 37.5995C37.3332 36.1437 40.2746 35.4807 42.4698 35.2327C43.5677 35.1086 44.4641 34.1915 44.4641 33.0603V21.7955C44.4641 20.6644 43.5677 19.7476 42.4698 19.8716C40.2746 20.1197 37.3332 20.7826 35.2141 22.2384V37.5995ZM26.7229 25.0003C26.7863 24.591 27.1695 24.3105 27.5789 24.3739C28.8817 24.5757 30.3488 24.9129 31.7346 25.4488C32.1209 25.5982 32.313 26.0325 32.1636 26.4188C32.0142 26.8052 31.5799 26.9972 31.1936 26.8479C29.9349 26.3611 28.5781 26.0466 27.3493 25.8563C26.94 25.7929 26.6595 25.4096 26.7229 25.0003ZM27.5789 28.3739C27.1695 28.3105 26.7863 28.591 26.7229 29.0003C26.6595 29.4096 26.94 29.7929 27.3493 29.8563C27.9686 29.9522 28.6222 30.0799 29.2806 30.246C29.6823 30.3474 30.09 30.1039 30.1913 29.7023C30.2926 29.3007 30.0492 28.8929 29.6476 28.7916C28.9386 28.6127 28.2386 28.4761 27.5789 28.3739Z" fill="#888888"/>
</g>
<defs>
<filter id="filter0_d_2027_66" x="0.60376" y="0" width="67.7207" height="67.7208" filterUnits="userSpaceOnUse" color-interpolation-filters="sRGB">
<feFlood flood-opacity="0" result="BackgroundImageFix"/>
<feColorMatrix in="SourceAlpha" type="matrix" values="0 0 0 0 0 0 0 0 0 0 0 0 0 0 0 0 0 0 127 0" result="hardAlpha"/>
<feOffset dy="4"/>
<feGaussianBlur stdDeviation="7.5"/>
<feComposite in2="hardAlpha" operator="out"/>
<feColorMatrix type="matrix" values="0 0 0 0 0.183333 0 0 0 0 0.183333 0 0 0 0 0.183333 0 0 0 0.25 0"/>
<feBlend mode="normal" in2="BackgroundImageFix" result="effect1_dropShadow_2027_66"/>
<feBlend mode="normal" in="SourceGraphic" in2="effect1_dropShadow_2027_66" result="shape"/>
</filter>
</defs>
</svg>
