<svg width="69" height="68" viewBox="0 0 69 68" fill="none" xmlns="http://www.w3.org/2000/svg">
<g filter="url(#filter0_d_2048_211)">
<rect x="15.4414" y="11" width="37.7208" height="37.7208" rx="3" fill="#3D3D3D" shape-rendering="crispEdges"/>
<path d="M33.6445 19.8604C33.9523 19.8604 34.2567 19.8962 34.5518 19.9648V23.8604C34.5518 26.4837 36.6784 28.6104 39.3018 28.6104H43.1963C43.265 28.9054 43.3018 29.2097 43.3018 29.5176V35.8604C43.3018 38.0695 41.5109 39.8604 39.3018 39.8604H29.3018C27.0926 39.8604 25.3018 38.0695 25.3018 35.8604V23.8604C25.3018 21.6512 27.0926 19.8604 29.3018 19.8604H33.6445ZM30.2881 31.5654V34.3398C30.2881 34.6875 30.248 34.917 30.168 35.0283C30.0879 35.1377 29.9512 35.1924 29.7578 35.1924C29.5664 35.1924 29.4238 35.1152 29.3301 34.9609C29.2676 34.8594 29.2314 34.6855 29.2217 34.4395L28.4043 34.5332C28.4062 34.9922 28.5215 35.3408 28.75 35.5791C28.9785 35.8154 29.3047 35.9336 29.7285 35.9336C30.0898 35.9336 30.3809 35.8584 30.6016 35.708C30.8223 35.5557 30.9746 35.3545 31.0586 35.1045C31.1211 34.9131 31.1523 34.6396 31.1523 34.2842V31.5654H30.2881ZM38.0635 31.4922C37.6533 31.4922 37.3105 31.5635 37.0352 31.7061C36.6738 31.8916 36.3994 32.1582 36.2119 32.5059C36.0244 32.8535 35.9307 33.251 35.9307 33.6982C35.9307 34.1104 36.0146 34.4922 36.1826 34.8438C36.3506 35.1934 36.6016 35.4629 36.9355 35.6523C37.2695 35.8398 37.6611 35.9336 38.1104 35.9336C38.4639 35.9336 38.8125 35.8672 39.1562 35.7344C39.502 35.5996 39.7656 35.4443 39.9473 35.2686V33.5576H38.0781V34.2812H39.0713V34.8262C38.9404 34.9277 38.7832 35.0146 38.5996 35.0869C38.418 35.1572 38.2363 35.1924 38.0547 35.1924C37.6875 35.1924 37.3906 35.0654 37.1641 34.8115C36.9375 34.5557 36.8242 34.1729 36.8242 33.6631C36.8242 33.1904 36.9355 32.834 37.1582 32.5938C37.3828 32.3535 37.6846 32.2334 38.0635 32.2334C38.3135 32.2334 38.5215 32.2949 38.6875 32.418C38.8555 32.5391 38.9697 32.7051 39.0303 32.916L39.8916 32.7549C39.8057 32.3604 39.6123 32.0518 39.3115 31.8291C39.0127 31.6045 38.5967 31.4922 38.0635 31.4922ZM32.0781 31.5654V35.8604H32.9453V34.2402H33.5107C33.9033 34.2402 34.2031 34.2197 34.4102 34.1787C34.5625 34.1455 34.7119 34.0781 34.8584 33.9766C35.0068 33.873 35.1289 33.7314 35.2246 33.5518C35.3203 33.3721 35.3682 33.1504 35.3682 32.8867C35.3682 32.5449 35.2852 32.2666 35.1191 32.0518C34.9531 31.835 34.7471 31.6943 34.501 31.6299C34.3408 31.5869 33.9971 31.5654 33.4697 31.5654H32.0781ZM33.3643 32.292C33.6768 32.292 33.8848 32.3018 33.9883 32.3213C34.1289 32.3467 34.2451 32.4102 34.3369 32.5117C34.4287 32.6133 34.4746 32.7422 34.4746 32.8984C34.4746 33.0254 34.4414 33.1367 34.375 33.2324C34.3105 33.3281 34.2207 33.3984 34.1055 33.4434C33.9902 33.4883 33.7617 33.5107 33.4199 33.5107H32.9453V32.292H33.3643ZM36.0518 20.666C36.1997 20.7775 36.3411 20.8997 36.4736 21.0322L42.1299 26.6885C42.2623 26.8208 42.3837 26.9626 42.4951 27.1104H39.3018C37.5068 27.1104 36.0518 25.6553 36.0518 23.8604V20.666Z" fill="#888888"/>
</g>
<defs>
<filter id="filter0_d_2048_211" x="0.441406" y="0" width="67.7207" height="67.7208" filterUnits="userSpaceOnUse" color-interpolation-filters="sRGB">
<feFlood flood-opacity="0" result="BackgroundImageFix"/>
<feColorMatrix in="SourceAlpha" type="matrix" values="0 0 0 0 0 0 0 0 0 0 0 0 0 0 0 0 0 0 127 0" result="hardAlpha"/>
<feOffset dy="4"/>
<feGaussianBlur stdDeviation="7.5"/>
<feComposite in2="hardAlpha" operator="out"/>
<feColorMatrix type="matrix" values="0 0 0 0 0.183333 0 0 0 0 0.183333 0 0 0 0 0.183333 0 0 0 0.25 0"/>
<feBlend mode="normal" in2="BackgroundImageFix" result="effect1_dropShadow_2048_211"/>
<feBlend mode="normal" in="SourceGraphic" in2="effect1_dropShadow_2048_211" result="shape"/>
</filter>
</defs>
</svg>
