<svg width="69" height="68" viewBox="0 0 69 68" fill="none" xmlns="http://www.w3.org/2000/svg">
<g filter="url(#filter0_d_2027_127)">
<rect x="15.7207" y="11" width="37.7208" height="37.7208" rx="3" fill="#3D3D3D" shape-rendering="crispEdges"/>
<path d="M28.0508 34.3907C27.7579 34.0978 27.7579 33.623 28.0508 33.3301L31.0508 30.3301C31.3437 30.0372 31.8184 30.0372 32.1113 30.3301C32.4042 30.623 32.4042 31.0978 32.1113 31.3907L30.3916 33.1104H40.5811C40.9953 33.1104 41.3311 33.4462 41.3311 33.8604C41.3311 34.2746 40.9953 34.6104 40.5811 34.6104H30.3916L32.1113 36.3301C32.4042 36.623 32.4042 37.0978 32.1113 37.3907C31.8184 37.6836 31.3437 37.6836 31.0508 37.3907L28.0508 34.3907ZM27.8311 25.8604C27.8311 25.4462 28.1668 25.1104 28.5811 25.1104H38.7705L37.0508 23.3907C36.7579 23.0978 36.7579 22.623 37.0508 22.3301C37.3437 22.0372 37.8184 22.0372 38.1113 22.3301L41.1113 25.3301C41.4042 25.623 41.4042 26.0978 41.1113 26.3907L38.1113 29.3907C37.8184 29.6836 37.3437 29.6836 37.0508 29.3907C36.7579 29.0978 36.7579 28.623 37.0508 28.3301L38.7705 26.6104H28.5811C28.1668 26.6104 27.8311 26.2746 27.8311 25.8604Z" fill="#888888"/>
</g>
<defs>
<filter id="filter0_d_2027_127" x="0.720703" y="0" width="67.7207" height="67.7207" filterUnits="userSpaceOnUse" color-interpolation-filters="sRGB">
<feFlood flood-opacity="0" result="BackgroundImageFix"/>
<feColorMatrix in="SourceAlpha" type="matrix" values="0 0 0 0 0 0 0 0 0 0 0 0 0 0 0 0 0 0 127 0" result="hardAlpha"/>
<feOffset dy="4"/>
<feGaussianBlur stdDeviation="7.5"/>
<feComposite in2="hardAlpha" operator="out"/>
<feColorMatrix type="matrix" values="0 0 0 0 0.183333 0 0 0 0 0.183333 0 0 0 0 0.183333 0 0 0 0.25 0"/>
<feBlend mode="normal" in2="BackgroundImageFix" result="effect1_dropShadow_2027_127"/>
<feBlend mode="normal" in="SourceGraphic" in2="effect1_dropShadow_2027_127" result="shape"/>
</filter>
</defs>
</svg>
