<svg width="69" height="68" viewBox="0 0 69 68" fill="none" xmlns="http://www.w3.org/2000/svg">
<g filter="url(#filter0_d_2027_110)">
<rect x="15.4414" y="11" width="37.7208" height="37.7208" rx="3" fill="#3D3D3D" shape-rendering="crispEdges"/>
<path d="M39.3018 24.1104C39.716 24.1104 40.0518 24.4461 40.0518 24.8604V34.8604C40.0518 35.2746 39.716 35.6104 39.3018 35.6104C38.8875 35.6104 38.5518 35.2746 38.5518 34.8604V31.4453C38.4853 31.4959 38.4148 31.5442 38.3398 31.5879L32.3096 35.1055C30.9763 35.8832 29.3018 34.9215 29.3018 33.3779V26.3428C29.3018 24.7992 30.9763 23.8375 32.3096 24.6152L38.3398 28.1328C38.4146 28.1764 38.4854 28.2239 38.5518 28.2744V24.8604C38.5518 24.4461 38.8875 24.1104 39.3018 24.1104Z" fill="#888888"/>
</g>
<defs>
<filter id="filter0_d_2027_110" x="0.441406" y="0" width="67.7207" height="67.7207" filterUnits="userSpaceOnUse" color-interpolation-filters="sRGB">
<feFlood flood-opacity="0" result="BackgroundImageFix"/>
<feColorMatrix in="SourceAlpha" type="matrix" values="0 0 0 0 0 0 0 0 0 0 0 0 0 0 0 0 0 0 127 0" result="hardAlpha"/>
<feOffset dy="4"/>
<feGaussianBlur stdDeviation="7.5"/>
<feComposite in2="hardAlpha" operator="out"/>
<feColorMatrix type="matrix" values="0 0 0 0 0.183333 0 0 0 0 0.183333 0 0 0 0 0.183333 0 0 0 0.25 0"/>
<feBlend mode="normal" in2="BackgroundImageFix" result="effect1_dropShadow_2027_110"/>
<feBlend mode="normal" in="SourceGraphic" in2="effect1_dropShadow_2027_110" result="shape"/>
</filter>
</defs>
</svg>
