<svg width="68" height="68" viewBox="0 0 68 68" fill="none" xmlns="http://www.w3.org/2000/svg">
<g filter="url(#filter0_d_2027_138)">
<rect x="15" y="11" width="37.7208" height="37.7208" rx="3" fill="#3D3D3D" shape-rendering="crispEdges"/>
<path d="M33.0388 31.3213C36.3229 32.2658 39.148 34.185 41.1384 36.7119C39.3147 38.6484 36.7301 39.8604 33.8601 39.8604C32.9991 39.8603 32.1641 39.7495 31.3669 39.5449C31.4573 36.6648 32.0393 33.8994 33.0388 31.3213ZM28.3914 30.6709C29.4795 30.6709 30.5416 30.7739 31.5671 30.9697C30.6053 33.5079 30.0239 36.2173 29.8865 39.0371C26.7521 37.6779 24.4511 34.7622 23.9597 31.2637C25.3653 30.8799 26.8516 30.6709 28.3914 30.6709ZM34.3171 28.5371C36.2555 29.2432 38.3613 29.6289 40.5603 29.6289C41.6827 29.6289 42.7804 29.5266 43.8445 29.334C43.8535 29.5083 43.8601 29.6838 43.8601 29.8604C43.8601 31.9621 43.2109 33.9117 42.1033 35.5215C39.9661 32.9194 37.0217 30.9432 33.6267 29.9297C33.8428 29.4583 34.0731 28.9939 34.3171 28.5371ZM26.6052 22.9775C28.253 25.0823 30.4187 26.8004 32.9246 27.9619C32.6491 28.4843 32.3902 29.0162 32.1492 29.5566C30.9387 29.3042 29.6811 29.1709 28.3914 29.1709C26.8248 29.1709 25.3063 29.3691 23.8611 29.7373C23.8927 27.1191 24.93 24.7428 26.6052 22.9775ZM39.6052 21.6748C41.6535 23.115 43.136 25.3043 43.656 27.8447C42.6553 28.0308 41.6204 28.1289 40.5603 28.1289C38.6307 28.1289 36.7828 27.8055 35.075 27.2139C36.3203 25.1818 37.8468 23.3199 39.6052 21.6748ZM33.8601 19.8604C35.4406 19.8604 36.9356 20.227 38.2644 20.8799C36.4804 22.6002 34.9306 24.5393 33.6638 26.6504C31.29 25.5711 29.2489 23.9519 27.7185 21.9678C29.4134 20.647 31.5449 19.8604 33.8601 19.8604Z" fill="#888888"/>
</g>
<defs>
<filter id="filter0_d_2027_138" x="0" y="0" width="67.7207" height="67.7207" filterUnits="userSpaceOnUse" color-interpolation-filters="sRGB">
<feFlood flood-opacity="0" result="BackgroundImageFix"/>
<feColorMatrix in="SourceAlpha" type="matrix" values="0 0 0 0 0 0 0 0 0 0 0 0 0 0 0 0 0 0 127 0" result="hardAlpha"/>
<feOffset dy="4"/>
<feGaussianBlur stdDeviation="7.5"/>
<feComposite in2="hardAlpha" operator="out"/>
<feColorMatrix type="matrix" values="0 0 0 0 0.183333 0 0 0 0 0.183333 0 0 0 0 0.183333 0 0 0 0.25 0"/>
<feBlend mode="normal" in2="BackgroundImageFix" result="effect1_dropShadow_2027_138"/>
<feBlend mode="normal" in="SourceGraphic" in2="effect1_dropShadow_2027_138" result="shape"/>
</filter>
</defs>
</svg>
