<svg width="69" height="68" viewBox="0 0 69 68" fill="none" xmlns="http://www.w3.org/2000/svg">
<g filter="url(#filter0_d_2027_74)">
<rect x="15.7207" y="11" width="37.7208" height="37.7208" rx="3" fill="#3D3D3D" shape-rendering="crispEdges"/>
<path d="M30.3311 27.8604C31.0214 27.8604 31.5811 28.42 31.5811 29.1104C31.5811 29.8007 31.0214 30.3604 30.3311 30.3604C29.6407 30.3604 29.0811 29.8007 29.0811 29.1104C29.0811 28.42 29.6407 27.8604 30.3311 27.8604ZM35.3311 27.8604C36.0214 27.8604 36.5811 28.42 36.5811 29.1104C36.5811 29.8007 36.0214 30.3604 35.3311 30.3604C34.6407 30.3604 34.0811 29.8007 34.0811 29.1104C34.0811 28.42 34.6407 27.8604 35.3311 27.8604ZM40.3311 27.8604C41.0214 27.8604 41.5811 28.42 41.5811 29.1104C41.5811 29.8007 41.0214 30.3604 40.3311 30.3604C39.6407 30.3604 39.0811 29.8007 39.0811 29.1104C39.0811 28.42 39.6407 27.8604 40.3311 27.8604Z" fill="#888888"/>
</g>
<defs>
<filter id="filter0_d_2027_74" x="0.720703" y="0" width="67.7207" height="67.7208" filterUnits="userSpaceOnUse" color-interpolation-filters="sRGB">
<feFlood flood-opacity="0" result="BackgroundImageFix"/>
<feColorMatrix in="SourceAlpha" type="matrix" values="0 0 0 0 0 0 0 0 0 0 0 0 0 0 0 0 0 0 127 0" result="hardAlpha"/>
<feOffset dy="4"/>
<feGaussianBlur stdDeviation="7.5"/>
<feComposite in2="hardAlpha" operator="out"/>
<feColorMatrix type="matrix" values="0 0 0 0 0.183333 0 0 0 0 0.183333 0 0 0 0 0.183333 0 0 0 0.25 0"/>
<feBlend mode="normal" in2="BackgroundImageFix" result="effect1_dropShadow_2027_74"/>
<feBlend mode="normal" in="SourceGraphic" in2="effect1_dropShadow_2027_74" result="shape"/>
</filter>
</defs>
</svg>
