<svg width="69" height="68" viewBox="0 0 69 68" fill="none" xmlns="http://www.w3.org/2000/svg">
<g filter="url(#filter0_d_2027_80)">
<rect x="15.7207" y="11" width="37.7208" height="37.7208" rx="3" fill="#3D3D3D" shape-rendering="crispEdges"/>
<path d="M26.5811 20.1104C26.9953 20.1104 27.3311 20.4461 27.3311 20.8604V26.2139C28.4853 26.5403 29.3311 27.6016 29.3311 28.8604V30.8604C29.3311 32.1191 28.4853 33.1804 27.3311 33.5068V38.8604C27.3311 39.2746 26.9953 39.6104 26.5811 39.6104C26.1668 39.6104 25.8311 39.2746 25.8311 38.8604V33.5068C24.6768 33.1804 23.8311 32.1191 23.8311 30.8604V28.8604C23.8311 27.6016 24.6768 26.5403 25.8311 26.2139V20.8604C25.8311 20.4461 26.1668 20.1104 26.5811 20.1104ZM34.5811 31.1104C34.9953 31.1104 35.3311 31.4461 35.3311 31.8604V38.8604C35.3311 39.2746 34.9953 39.6104 34.5811 39.6104C34.1668 39.6104 33.8311 39.2746 33.8311 38.8604V31.8604C33.8311 31.4461 34.1668 31.1104 34.5811 31.1104ZM42.5811 30.1104C44.0998 30.1104 45.3311 31.3416 45.3311 32.8604V34.8604C45.3311 36.1191 44.4853 37.1804 43.3311 37.5068V38.8604C43.3311 39.2746 42.9953 39.6104 42.5811 39.6104C42.1668 39.6104 41.8311 39.2746 41.8311 38.8604V37.5068C40.6768 37.1804 39.8311 36.1191 39.8311 34.8604V32.8604C39.8311 31.3416 41.0623 30.1104 42.5811 30.1104ZM34.5811 20.1104C34.9953 20.1104 35.3311 20.4461 35.3311 20.8604V22.2139C36.4853 22.5403 37.3311 23.6016 37.3311 24.8604V26.8604C37.3311 28.3791 36.0998 29.6104 34.5811 29.6104C33.0623 29.6104 31.8311 28.3791 31.8311 26.8604V24.8604C31.8311 23.6016 32.6768 22.5403 33.8311 22.2139V20.8604C33.8311 20.4461 34.1668 20.1104 34.5811 20.1104ZM42.5811 20.1104C42.9953 20.1104 43.3311 20.4461 43.3311 20.8604V27.8604C43.3311 28.2746 42.9953 28.6104 42.5811 28.6104C42.1668 28.6104 41.8311 28.2746 41.8311 27.8604V20.8604C41.8311 20.4461 42.1668 20.1104 42.5811 20.1104Z" fill="#888888"/>
</g>
<defs>
<filter id="filter0_d_2027_80" x="0.720703" y="0" width="67.7207" height="67.7208" filterUnits="userSpaceOnUse" color-interpolation-filters="sRGB">
<feFlood flood-opacity="0" result="BackgroundImageFix"/>
<feColorMatrix in="SourceAlpha" type="matrix" values="0 0 0 0 0 0 0 0 0 0 0 0 0 0 0 0 0 0 127 0" result="hardAlpha"/>
<feOffset dy="4"/>
<feGaussianBlur stdDeviation="7.5"/>
<feComposite in2="hardAlpha" operator="out"/>
<feColorMatrix type="matrix" values="0 0 0 0 0.183333 0 0 0 0 0.183333 0 0 0 0 0.183333 0 0 0 0.25 0"/>
<feBlend mode="normal" in2="BackgroundImageFix" result="effect1_dropShadow_2027_80"/>
<feBlend mode="normal" in="SourceGraphic" in2="effect1_dropShadow_2027_80" result="shape"/>
</filter>
</defs>
</svg>
