<svg width="68" height="68" viewBox="0 0 68 68" fill="none" xmlns="http://www.w3.org/2000/svg">
<g filter="url(#filter0_d_2048_214)">
<rect x="15.1624" y="11" width="37.7208" height="37.7208" rx="3" fill="#3D3D3D" shape-rendering="crispEdges"/>
<path d="M25.4924 21.33C25.7853 21.0371 26.26 21.0371 26.5529 21.33L42.5529 37.33C42.8458 37.6229 42.8458 38.0977 42.5529 38.3906C42.26 38.6835 41.7853 38.6835 41.4924 38.3906L39.0197 35.9179C38.9743 37.5276 37.1247 38.4332 35.8225 37.457L31.5559 34.2578C31.2099 33.9985 30.789 33.8584 30.3566 33.8583H28.0226C26.9181 33.8583 26.0226 32.9634 26.0226 31.8593V27.8613C26.0227 26.7572 26.9181 25.8622 28.0226 25.8622H28.9641L25.4924 22.3906C25.1995 22.0977 25.1995 21.6229 25.4924 21.33ZM35.8225 22.2636C37.1409 21.2753 39.0226 22.2159 39.0226 23.8632V31.7997L32.2014 24.9785L35.8225 22.2636Z" fill="#888888"/>
</g>
<defs>
<filter id="filter0_d_2048_214" x="0.162354" y="0" width="67.7207" height="67.7207" filterUnits="userSpaceOnUse" color-interpolation-filters="sRGB">
<feFlood flood-opacity="0" result="BackgroundImageFix"/>
<feColorMatrix in="SourceAlpha" type="matrix" values="0 0 0 0 0 0 0 0 0 0 0 0 0 0 0 0 0 0 127 0" result="hardAlpha"/>
<feOffset dy="4"/>
<feGaussianBlur stdDeviation="7.5"/>
<feComposite in2="hardAlpha" operator="out"/>
<feColorMatrix type="matrix" values="0 0 0 0 0.183333 0 0 0 0 0.183333 0 0 0 0 0.183333 0 0 0 0.25 0"/>
<feBlend mode="normal" in2="BackgroundImageFix" result="effect1_dropShadow_2048_214"/>
<feBlend mode="normal" in="SourceGraphic" in2="effect1_dropShadow_2048_214" result="shape"/>
</filter>
</defs>
</svg>
