<svg width="69" height="68" viewBox="0 0 69 68" fill="none" xmlns="http://www.w3.org/2000/svg">
<g filter="url(#filter0_d_2027_119)">
<rect x="15.6038" y="11" width="37.7208" height="37.7208" rx="3" fill="#3D3D3D" shape-rendering="crispEdges"/>
<path d="M34.4641 19.8604C39.987 19.8604 44.4641 24.3375 44.4641 29.8604C44.4641 35.3832 39.987 39.8604 34.4641 39.8604C28.9413 39.8604 24.4641 35.3832 24.4641 29.8604C24.4641 24.3375 28.9413 19.8604 34.4641 19.8604ZM34.4641 25.1104C34.0499 25.1104 33.7141 25.4461 33.7141 25.8604V32.0498L31.9944 30.3301C31.7015 30.0372 31.2267 30.0372 30.9338 30.3301C30.6409 30.623 30.6409 31.0977 30.9338 31.3906L33.9338 34.3906C34.2267 34.6835 34.7015 34.6835 34.9944 34.3906L37.9944 31.3906C38.2873 31.0977 38.2873 30.623 37.9944 30.3301C37.7015 30.0372 37.2267 30.0372 36.9338 30.3301L35.2141 32.0498V25.8604C35.2141 25.4461 34.8783 25.1104 34.4641 25.1104Z" fill="#888888"/>
</g>
<defs>
<filter id="filter0_d_2027_119" x="0.60376" y="0" width="67.7207" height="67.7207" filterUnits="userSpaceOnUse" color-interpolation-filters="sRGB">
<feFlood flood-opacity="0" result="BackgroundImageFix"/>
<feColorMatrix in="SourceAlpha" type="matrix" values="0 0 0 0 0 0 0 0 0 0 0 0 0 0 0 0 0 0 127 0" result="hardAlpha"/>
<feOffset dy="4"/>
<feGaussianBlur stdDeviation="7.5"/>
<feComposite in2="hardAlpha" operator="out"/>
<feColorMatrix type="matrix" values="0 0 0 0 0.183333 0 0 0 0 0.183333 0 0 0 0 0.183333 0 0 0 0.25 0"/>
<feBlend mode="normal" in2="BackgroundImageFix" result="effect1_dropShadow_2027_119"/>
<feBlend mode="normal" in="SourceGraphic" in2="effect1_dropShadow_2027_119" result="shape"/>
</filter>
</defs>
</svg>
