<svg width="68" height="68" viewBox="0 0 68 68" fill="none" xmlns="http://www.w3.org/2000/svg">
<g filter="url(#filter0_d_2027_85)">
<rect x="15" y="11" width="37.7208" height="37.7208" rx="3" fill="#3D3D3D" shape-rendering="crispEdges"/>
<path fill-rule="evenodd" clip-rule="evenodd" d="M24.33 20.08C24.0371 20.3729 24.0371 20.8478 24.33 21.1407L29.8604 26.671V29.8604C29.8604 32.0695 31.6512 33.8604 33.8604 33.8604C34.7582 33.8604 35.5869 33.5646 36.2544 33.0651L37.1453 33.9559C36.2459 34.6782 35.1036 35.1104 33.8604 35.1104C30.9609 35.1104 28.6104 32.7598 28.6104 29.8604V28.8604C28.6104 28.4461 28.2746 28.1104 27.8604 28.1104C27.4461 28.1104 27.1104 28.4461 27.1104 28.8604V29.8604C27.1104 33.3348 29.7354 36.1961 33.1104 36.5692V38.3604H30.8604C30.4461 38.3604 30.1104 38.6961 30.1104 39.1104C30.1104 39.5246 30.4461 39.8604 30.8604 39.8604H36.8604C37.2746 39.8604 37.6104 39.5246 37.6104 39.1104C37.6104 38.6961 37.2746 38.3604 36.8604 38.3604H34.6104V36.5692C35.9742 36.4184 37.2157 35.8613 38.2109 35.0215L42.33 39.1407C42.6229 39.4336 43.0978 39.4336 43.3907 39.1407C43.6836 38.8478 43.6836 38.3729 43.3907 38.08L25.3907 20.08C25.0978 19.7871 24.6229 19.7871 24.33 20.08ZM39.9936 32.683L38.8396 31.529C39.0152 31.0048 39.1104 30.4437 39.1104 29.8604V28.8604C39.1104 28.4461 39.4461 28.1104 39.8604 28.1104C40.2746 28.1104 40.6104 28.4461 40.6104 28.8604V29.8604C40.6104 30.8681 40.3895 31.8242 39.9936 32.683ZM30.0265 22.7158L37.8096 30.499C37.843 30.291 37.8604 30.0777 37.8604 29.8604V23.8604C37.8604 21.6512 36.0695 19.8604 33.8604 19.8604C32.0489 19.8604 30.5188 21.0644 30.0265 22.7158Z" fill="#888888"/>
</g>
<defs>
<filter id="filter0_d_2027_85" x="0" y="0" width="67.7207" height="67.7208" filterUnits="userSpaceOnUse" color-interpolation-filters="sRGB">
<feFlood flood-opacity="0" result="BackgroundImageFix"/>
<feColorMatrix in="SourceAlpha" type="matrix" values="0 0 0 0 0 0 0 0 0 0 0 0 0 0 0 0 0 0 127 0" result="hardAlpha"/>
<feOffset dy="4"/>
<feGaussianBlur stdDeviation="7.5"/>
<feComposite in2="hardAlpha" operator="out"/>
<feColorMatrix type="matrix" values="0 0 0 0 0.183333 0 0 0 0 0.183333 0 0 0 0 0.183333 0 0 0 0.25 0"/>
<feBlend mode="normal" in2="BackgroundImageFix" result="effect1_dropShadow_2027_85"/>
<feBlend mode="normal" in="SourceGraphic" in2="effect1_dropShadow_2027_85" result="shape"/>
</filter>
</defs>
</svg>
