<svg width="69" height="68" viewBox="0 0 69 68" fill="none" xmlns="http://www.w3.org/2000/svg">
<g filter="url(#filter0_d_2027_134)">
<rect x="15.4414" y="11" width="37.7208" height="37.7208" rx="3" fill="#3D3D3D" shape-rendering="crispEdges"/>
<path d="M38.4414 33.1104C38.8556 33.1104 39.1914 33.4461 39.1914 33.8604C39.1914 34.2746 38.8556 34.6104 38.4414 34.6104H33.4414C33.0272 34.6104 32.6914 34.2746 32.6914 33.8604C32.6914 33.4461 33.0272 33.1104 33.4414 33.1104H38.4414ZM38.4414 29.1104C38.8556 29.1104 39.1914 29.4461 39.1914 29.8604C39.1914 30.2746 38.8556 30.6104 38.4414 30.6104H28.4414C28.0272 30.6104 27.6914 30.2746 27.6914 29.8604C27.6914 29.4461 28.0272 29.1104 28.4414 29.1104H38.4414ZM33.4414 25.1104C33.8556 25.1104 34.1914 25.4461 34.1914 25.8604C34.1914 26.2746 33.8556 26.6104 33.4414 26.6104H28.4414C28.0272 26.6104 27.6914 26.2746 27.6914 25.8604C27.6914 25.4461 28.0272 25.1104 28.4414 25.1104H33.4414Z" fill="#888888"/>
</g>
<defs>
<filter id="filter0_d_2027_134" x="0.441406" y="0" width="67.7207" height="67.7207" filterUnits="userSpaceOnUse" color-interpolation-filters="sRGB">
<feFlood flood-opacity="0" result="BackgroundImageFix"/>
<feColorMatrix in="SourceAlpha" type="matrix" values="0 0 0 0 0 0 0 0 0 0 0 0 0 0 0 0 0 0 127 0" result="hardAlpha"/>
<feOffset dy="4"/>
<feGaussianBlur stdDeviation="7.5"/>
<feComposite in2="hardAlpha" operator="out"/>
<feColorMatrix type="matrix" values="0 0 0 0 0.183333 0 0 0 0 0.183333 0 0 0 0 0.183333 0 0 0 0.25 0"/>
<feBlend mode="normal" in2="BackgroundImageFix" result="effect1_dropShadow_2027_134"/>
<feBlend mode="normal" in="SourceGraphic" in2="effect1_dropShadow_2027_134" result="shape"/>
</filter>
</defs>
</svg>
