<svg width="69" height="68" viewBox="0 0 69 68" fill="none" xmlns="http://www.w3.org/2000/svg">
<g filter="url(#filter0_d_2048_213)">
<rect x="15.4414" y="11" width="37.7208" height="37.7208" rx="3" fill="#3D3D3D" shape-rendering="crispEdges"/>
<path d="M34.1016 22.2637C35.42 21.2753 37.3018 22.216 37.3018 23.8633V35.8575C37.3018 37.5048 35.42 38.4455 34.1016 37.4571L29.835 34.2579C29.489 33.9986 29.0681 33.8586 28.6357 33.8585H26.3018C25.1972 33.8585 24.3018 32.9635 24.3018 31.8594V27.8614C24.3018 26.7573 25.1972 25.8624 26.3018 25.8624H28.6357C29.0681 25.8623 29.489 25.7222 29.835 25.463L34.1016 22.2637ZM38.8164 24.8116C38.8988 24.4057 39.2952 24.1432 39.7012 24.2256C42.3259 24.7586 44.3018 27.0778 44.3018 29.8604C44.3018 32.643 42.3259 34.9623 39.7012 35.4952C39.2952 35.5776 38.8988 35.3152 38.8164 34.9092C38.7343 34.5035 38.9967 34.1079 39.4023 34.0255C41.3419 33.6317 42.8018 31.9156 42.8018 29.8604C42.8018 27.8052 41.3419 26.0891 39.4023 25.6954C38.9967 25.6129 38.7343 25.2173 38.8164 24.8116ZM38.9023 27.752C39.1098 27.3936 39.5693 27.2712 39.9277 27.4786C40.7476 27.953 41.3018 28.8417 41.3018 29.8604C41.3018 30.8792 40.7476 31.7679 39.9277 32.2423C39.5693 32.4496 39.1098 32.3272 38.9023 31.9688C38.695 31.6104 38.8174 31.1509 39.1758 30.9434C39.5514 30.7262 39.8018 30.3221 39.8018 29.8604C39.8018 29.3987 39.5514 28.9947 39.1758 28.7774C38.8174 28.5699 38.695 28.1105 38.9023 27.752Z" fill="#888888"/>
</g>
<defs>
<filter id="filter0_d_2048_213" x="0.441406" y="0" width="67.7207" height="67.7207" filterUnits="userSpaceOnUse" color-interpolation-filters="sRGB">
<feFlood flood-opacity="0" result="BackgroundImageFix"/>
<feColorMatrix in="SourceAlpha" type="matrix" values="0 0 0 0 0 0 0 0 0 0 0 0 0 0 0 0 0 0 127 0" result="hardAlpha"/>
<feOffset dy="4"/>
<feGaussianBlur stdDeviation="7.5"/>
<feComposite in2="hardAlpha" operator="out"/>
<feColorMatrix type="matrix" values="0 0 0 0 0.183333 0 0 0 0 0.183333 0 0 0 0 0.183333 0 0 0 0.25 0"/>
<feBlend mode="normal" in2="BackgroundImageFix" result="effect1_dropShadow_2048_213"/>
<feBlend mode="normal" in="SourceGraphic" in2="effect1_dropShadow_2048_213" result="shape"/>
</filter>
</defs>
</svg>
