<svg width="69" height="68" viewBox="0 0 69 68" fill="none" xmlns="http://www.w3.org/2000/svg">
<g filter="url(#filter0_d_2027_92)">
<rect x="15.7207" y="11" width="37.7208" height="37.7208" rx="3" fill="#3D3D3D" shape-rendering="crispEdges"/>
<path fill-rule="evenodd" clip-rule="evenodd" d="M28.5811 19.8604C26.3719 19.8604 24.5811 21.6512 24.5811 23.8604V35.8604C24.5811 38.0695 26.3719 39.8604 28.5811 39.8604H40.5811C42.7902 39.8604 44.5811 38.0695 44.5811 35.8604V23.8604C44.5811 21.6512 42.7902 19.8604 40.5811 19.8604H28.5811ZM33.165 25.2364C33.5097 25.0066 33.9753 25.0998 34.2051 25.4444C34.4349 25.7891 34.3417 26.2547 33.9971 26.4845L32.7705 27.3022C34.126 27.5441 35.419 28.0176 36.4971 28.7364C38.1699 29.8516 39.3311 31.5695 39.3311 33.8604C39.3311 34.2746 38.9953 34.6104 38.5811 34.6104C38.1668 34.6104 37.8311 34.2746 37.8311 33.8604C37.8311 32.1514 36.9922 30.8692 35.665 29.9845C34.6688 29.3203 33.4018 28.8878 32.0468 28.707L33.2051 30.4444C33.4349 30.7891 33.3417 31.2547 32.9971 31.4845C32.6524 31.7142 32.1868 31.6211 31.957 31.2765L29.957 28.2765C29.7273 27.9318 29.8204 27.4662 30.165 27.2364L33.165 25.2364Z" fill="#888888"/>
</g>
<defs>
<filter id="filter0_d_2027_92" x="0.720703" y="0" width="67.7207" height="67.7208" filterUnits="userSpaceOnUse" color-interpolation-filters="sRGB">
<feFlood flood-opacity="0" result="BackgroundImageFix"/>
<feColorMatrix in="SourceAlpha" type="matrix" values="0 0 0 0 0 0 0 0 0 0 0 0 0 0 0 0 0 0 127 0" result="hardAlpha"/>
<feOffset dy="4"/>
<feGaussianBlur stdDeviation="7.5"/>
<feComposite in2="hardAlpha" operator="out"/>
<feColorMatrix type="matrix" values="0 0 0 0 0.183333 0 0 0 0 0.183333 0 0 0 0 0.183333 0 0 0 0.25 0"/>
<feBlend mode="normal" in2="BackgroundImageFix" result="effect1_dropShadow_2027_92"/>
<feBlend mode="normal" in="SourceGraphic" in2="effect1_dropShadow_2027_92" result="shape"/>
</filter>
</defs>
</svg>
