<svg width="68" height="68" viewBox="0 0 68 68" fill="none" xmlns="http://www.w3.org/2000/svg">
<g filter="url(#filter0_d_2027_88)">
<rect x="15.1624" y="11" width="37.7208" height="37.7208" rx="3" fill="#3D3D3D" shape-rendering="crispEdges"/>
<path d="M38.3304 37.5069C38.7445 38.2242 38.4986 39.1414 37.7816 39.5558C37.0641 39.97 36.146 39.7244 35.7318 39.0069L33.8285 35.71L36.888 35.0099L38.3304 37.5069ZM25.3216 29.7081C26.0391 29.2939 26.9562 29.5405 27.3704 30.2579L29.8704 34.588C30.2846 35.3054 30.039 36.2226 29.3216 36.6368C28.6043 37.0508 27.687 36.8051 27.2728 36.088L24.7728 31.7579C24.3586 31.0405 24.6042 30.1223 25.3216 29.7081ZM34.6937 21.9347C35.6095 20.949 37.218 21.1309 37.891 22.296L42.1829 29.7306C42.8557 30.8959 42.2094 32.3794 40.8978 32.6798L31.6634 34.794C31.5992 34.4973 31.4884 34.2049 31.3285 33.9278L28.8285 29.5977C28.6685 29.3206 28.4704 29.0791 28.2454 28.8751L34.6937 21.9347ZM42.7523 25.961C42.8595 25.561 43.2712 25.3227 43.6712 25.4298L45.0374 25.796C45.4375 25.9032 45.6749 26.3148 45.5677 26.7149C45.4605 27.115 45.0488 27.3524 44.6488 27.2452L43.2835 26.879C42.8836 26.7718 42.6454 26.361 42.7523 25.961ZM41.1185 21.13C41.2258 20.7301 41.6374 20.4925 42.0374 20.5997C42.4375 20.7069 42.6749 21.1185 42.5677 21.5186L42.2015 22.8849C42.0942 23.2847 41.6834 23.522 41.2835 23.4151C40.8834 23.3079 40.6451 22.8963 40.7523 22.4962L41.1185 21.13Z" fill="#888888"/>
</g>
<defs>
<filter id="filter0_d_2027_88" x="0.162354" y="0" width="67.7207" height="67.7208" filterUnits="userSpaceOnUse" color-interpolation-filters="sRGB">
<feFlood flood-opacity="0" result="BackgroundImageFix"/>
<feColorMatrix in="SourceAlpha" type="matrix" values="0 0 0 0 0 0 0 0 0 0 0 0 0 0 0 0 0 0 127 0" result="hardAlpha"/>
<feOffset dy="4"/>
<feGaussianBlur stdDeviation="7.5"/>
<feComposite in2="hardAlpha" operator="out"/>
<feColorMatrix type="matrix" values="0 0 0 0 0.183333 0 0 0 0 0.183333 0 0 0 0 0.183333 0 0 0 0.25 0"/>
<feBlend mode="normal" in2="BackgroundImageFix" result="effect1_dropShadow_2027_88"/>
<feBlend mode="normal" in="SourceGraphic" in2="effect1_dropShadow_2027_88" result="shape"/>
</filter>
</defs>
</svg>
