<svg width="68" height="68" viewBox="0 0 68 68" fill="none" xmlns="http://www.w3.org/2000/svg">
<g filter="url(#filter0_d_2027_117)">
<rect x="15.1624" y="11" width="37.7208" height="37.7208" rx="3" fill="#3D3D3D" shape-rendering="crispEdges"/>
<path d="M30.0227 22.8604C31.1273 22.8604 32.0227 23.7558 32.0227 24.8604V34.8604C32.0227 35.9649 31.1273 36.8604 30.0227 36.8604H28.0227C26.9181 36.8604 26.0227 35.9649 26.0227 34.8604V24.8604C26.0227 23.7558 26.9181 22.8604 28.0227 22.8604H30.0227ZM40.0227 22.8604C41.1273 22.8604 42.0227 23.7558 42.0227 24.8604V34.8604C42.0227 35.9649 41.1273 36.8604 40.0227 36.8604H38.0227C36.9181 36.8604 36.0227 35.9649 36.0227 34.8604V24.8604C36.0227 23.7558 36.9181 22.8604 38.0227 22.8604H40.0227Z" fill="#888888"/>
</g>
<defs>
<filter id="filter0_d_2027_117" x="0.162354" y="0" width="67.7207" height="67.7207" filterUnits="userSpaceOnUse" color-interpolation-filters="sRGB">
<feFlood flood-opacity="0" result="BackgroundImageFix"/>
<feColorMatrix in="SourceAlpha" type="matrix" values="0 0 0 0 0 0 0 0 0 0 0 0 0 0 0 0 0 0 127 0" result="hardAlpha"/>
<feOffset dy="4"/>
<feGaussianBlur stdDeviation="7.5"/>
<feComposite in2="hardAlpha" operator="out"/>
<feColorMatrix type="matrix" values="0 0 0 0 0.183333 0 0 0 0 0.183333 0 0 0 0 0.183333 0 0 0 0.25 0"/>
<feBlend mode="normal" in2="BackgroundImageFix" result="effect1_dropShadow_2027_117"/>
<feBlend mode="normal" in="SourceGraphic" in2="effect1_dropShadow_2027_117" result="shape"/>
</filter>
</defs>
</svg>
