<svg width="69" height="68" viewBox="0 0 69 68" fill="none" xmlns="http://www.w3.org/2000/svg">
<g filter="url(#filter0_d_2027_142)">
<rect x="15.8831" y="11" width="37.7208" height="37.7208" rx="3" fill="#3D3D3D" shape-rendering="crispEdges"/>
<path d="M34.7434 19.8604C40.2663 19.8604 44.7434 24.3375 44.7434 29.8604C44.7434 35.3832 40.2663 39.8604 34.7434 39.8604C33.2158 39.8603 31.7679 39.5177 30.4729 38.9053L26.1184 39.6309C25.4434 39.7434 24.8565 39.1598 24.9661 38.4844L25.679 34.0898C25.0787 32.8054 24.7434 31.3718 24.7434 29.8604C24.7434 24.3375 29.2206 19.8604 34.7434 19.8604ZM31.6321 25.8604C31.1413 25.8605 30.7435 26.2583 30.7434 26.749C30.7434 30.6764 33.9274 33.8604 37.8547 33.8604C38.3455 33.8602 38.7433 33.4624 38.7434 32.9717V32.5352C38.7434 31.9934 38.4135 31.5059 37.9104 31.3047L37.4436 31.1182C36.9222 30.9098 36.3276 31.1355 36.0764 31.6377C36.0525 31.6328 34.9556 31.4065 34.0764 30.5273C33.1973 29.6482 32.9709 28.5512 32.9661 28.5273C33.4682 28.2761 33.694 27.6816 33.4856 27.1602L33.2991 26.6934C33.0979 26.1903 32.6104 25.8604 32.0686 25.8604H31.6321Z" fill="#888888"/>
</g>
<defs>
<filter id="filter0_d_2027_142" x="0.883057" y="0" width="67.7207" height="67.7207" filterUnits="userSpaceOnUse" color-interpolation-filters="sRGB">
<feFlood flood-opacity="0" result="BackgroundImageFix"/>
<feColorMatrix in="SourceAlpha" type="matrix" values="0 0 0 0 0 0 0 0 0 0 0 0 0 0 0 0 0 0 127 0" result="hardAlpha"/>
<feOffset dy="4"/>
<feGaussianBlur stdDeviation="7.5"/>
<feComposite in2="hardAlpha" operator="out"/>
<feColorMatrix type="matrix" values="0 0 0 0 0.183333 0 0 0 0 0.183333 0 0 0 0 0.183333 0 0 0 0.25 0"/>
<feBlend mode="normal" in2="BackgroundImageFix" result="effect1_dropShadow_2027_142"/>
<feBlend mode="normal" in="SourceGraphic" in2="effect1_dropShadow_2027_142" result="shape"/>
</filter>
</defs>
</svg>
