<svg width="68" height="68" viewBox="0 0 68 68" fill="none" xmlns="http://www.w3.org/2000/svg">
<g filter="url(#filter0_d_2027_73)">
<rect x="15" y="11" width="37.7208" height="37.7208" rx="3" fill="#3D3D3D" shape-rendering="crispEdges"/>
<path d="M25.8604 31.1104C27.3791 31.1104 28.6104 32.3416 28.6104 33.8604C28.6104 35.3791 27.3791 36.6104 25.8604 36.6104C24.3416 36.6104 23.1104 35.3791 23.1104 33.8604C23.1104 32.3416 24.3416 31.1104 25.8604 31.1104ZM43.8604 35.1104C44.2746 35.1104 44.6104 35.4461 44.6104 35.8604C44.6104 36.2746 44.2746 36.6104 43.8604 36.6104H31.8604C31.4461 36.6104 31.1104 36.2746 31.1104 35.8604C31.1104 35.4461 31.4461 35.1104 31.8604 35.1104H43.8604ZM37.8604 31.1104C38.2746 31.1104 38.6104 31.4461 38.6104 31.8604C38.6104 32.2746 38.2746 32.6104 37.8604 32.6104H31.8604C31.4461 32.6104 31.1104 32.2746 31.1104 31.8604C31.1104 31.4461 31.4461 31.1104 31.8604 31.1104H37.8604ZM25.8604 23.1104C27.3791 23.1104 28.6104 24.3416 28.6104 25.8604C28.6104 27.3791 27.3791 28.6104 25.8604 28.6104C24.3416 28.6104 23.1104 27.3791 23.1104 25.8604C23.1104 24.3416 24.3416 23.1104 25.8604 23.1104ZM43.8604 27.1104C44.2746 27.1104 44.6104 27.4461 44.6104 27.8604C44.6104 28.2746 44.2746 28.6104 43.8604 28.6104H31.8604C31.4461 28.6104 31.1104 28.2746 31.1104 27.8604C31.1104 27.4461 31.4461 27.1104 31.8604 27.1104H43.8604ZM37.8604 23.1104C38.2746 23.1104 38.6104 23.4461 38.6104 23.8604C38.6104 24.2746 38.2746 24.6104 37.8604 24.6104H31.8604C31.4461 24.6104 31.1104 24.2746 31.1104 23.8604C31.1104 23.4461 31.4461 23.1104 31.8604 23.1104H37.8604Z" fill="#888888"/>
</g>
<defs>
<filter id="filter0_d_2027_73" x="0" y="0" width="67.7207" height="67.7208" filterUnits="userSpaceOnUse" color-interpolation-filters="sRGB">
<feFlood flood-opacity="0" result="BackgroundImageFix"/>
<feColorMatrix in="SourceAlpha" type="matrix" values="0 0 0 0 0 0 0 0 0 0 0 0 0 0 0 0 0 0 127 0" result="hardAlpha"/>
<feOffset dy="4"/>
<feGaussianBlur stdDeviation="7.5"/>
<feComposite in2="hardAlpha" operator="out"/>
<feColorMatrix type="matrix" values="0 0 0 0 0.183333 0 0 0 0 0.183333 0 0 0 0 0.183333 0 0 0 0.25 0"/>
<feBlend mode="normal" in2="BackgroundImageFix" result="effect1_dropShadow_2027_73"/>
<feBlend mode="normal" in="SourceGraphic" in2="effect1_dropShadow_2027_73" result="shape"/>
</filter>
</defs>
</svg>
