<svg width="68" height="68" viewBox="0 0 68 68" fill="none" xmlns="http://www.w3.org/2000/svg">
<g filter="url(#filter0_d_2027_67)">
<rect x="15" y="11" width="37.7208" height="37.7208" rx="3" fill="#3D3D3D" shape-rendering="crispEdges"/>
<path fill-rule="evenodd" clip-rule="evenodd" d="M40.8604 34.8604C42.5172 34.8604 43.8604 33.5172 43.8604 31.8604L43.8604 22.8604C43.8604 21.2035 42.5172 19.8604 40.8604 19.8604H26.8604C25.2035 19.8604 23.8604 21.2035 23.8604 22.8604V31.8603C23.8604 33.5172 25.2035 34.8603 26.8604 34.8603H28.3858L26.2172 38.4746C26.0041 38.8298 26.1193 39.2905 26.4745 39.5036C26.8297 39.7167 27.2904 39.6015 27.5035 39.2463L30.1351 34.8603L33.1103 34.8604V36.8605C33.1103 37.2747 33.4461 37.6105 33.8603 37.6105C34.2746 37.6105 34.6103 37.2747 34.6103 36.8605V34.8604L37.5856 34.8604L40.2172 39.2463C40.4303 39.6015 40.891 39.7167 41.2462 39.5036C41.6014 39.2905 41.7166 38.8298 41.5035 38.4746L39.3349 34.8604H40.8604ZM28.1104 24.8604C28.1104 24.4461 28.4461 24.1104 28.8604 24.1104H38.8604C39.2746 24.1104 39.6104 24.4461 39.6104 24.8604C39.6104 25.2746 39.2746 25.6104 38.8604 25.6104H28.8604C28.4461 25.6104 28.1104 25.2746 28.1104 24.8604ZM28.8604 29.1104C28.4461 29.1104 28.1104 29.4461 28.1104 29.8604C28.1104 30.2746 28.4461 30.6104 28.8604 30.6104H33.8604C34.2746 30.6104 34.6104 30.2746 34.6104 29.8604C34.6104 29.4461 34.2746 29.1104 33.8604 29.1104H28.8604Z" fill="#888888"/>
</g>
<defs>
<filter id="filter0_d_2027_67" x="0" y="0" width="67.7207" height="67.7208" filterUnits="userSpaceOnUse" color-interpolation-filters="sRGB">
<feFlood flood-opacity="0" result="BackgroundImageFix"/>
<feColorMatrix in="SourceAlpha" type="matrix" values="0 0 0 0 0 0 0 0 0 0 0 0 0 0 0 0 0 0 127 0" result="hardAlpha"/>
<feOffset dy="4"/>
<feGaussianBlur stdDeviation="7.5"/>
<feComposite in2="hardAlpha" operator="out"/>
<feColorMatrix type="matrix" values="0 0 0 0 0.183333 0 0 0 0 0.183333 0 0 0 0 0.183333 0 0 0 0.25 0"/>
<feBlend mode="normal" in2="BackgroundImageFix" result="effect1_dropShadow_2027_67"/>
<feBlend mode="normal" in="SourceGraphic" in2="effect1_dropShadow_2027_67" result="shape"/>
</filter>
</defs>
</svg>
