<svg width="69" height="68" viewBox="0 0 69 68" fill="none" xmlns="http://www.w3.org/2000/svg">
<g filter="url(#filter0_d_2048_212)">
<rect x="15.7207" y="11" width="37.7208" height="37.7208" rx="3" fill="#3D3D3D" shape-rendering="crispEdges"/>
<path d="M24.0507 19.33C24.3436 19.0371 24.8184 19.0371 25.1113 19.33L45.1113 39.33C45.4042 39.6229 45.4042 40.0977 45.1113 40.3906C44.8184 40.6835 44.3436 40.6835 44.0507 40.3906L42.6464 38.9863C42.0541 39.3792 41.3453 39.6103 40.581 39.6103C38.5099 39.6103 36.831 37.9314 36.831 35.8603V33.8603C36.831 33.6439 36.8505 33.4319 36.8857 33.2255L28.2431 24.583C27.0502 26.0132 26.331 27.8521 26.331 29.8603V30.8593C26.9577 30.3887 27.7369 30.1103 28.581 30.1103C30.6521 30.1103 32.331 31.7892 32.331 33.8603V35.8603C32.331 37.9314 30.6521 39.6103 28.581 39.6103C26.5099 39.6103 24.831 37.9314 24.831 35.8603V29.8603C24.831 27.4378 25.716 25.2233 27.1787 23.5185L24.0507 20.3906C23.7578 20.0977 23.7578 19.6229 24.0507 19.33ZM34.581 20.1103C39.9658 20.1103 44.331 24.4755 44.331 29.8603V35.8603C44.331 36.0767 44.3115 36.2887 44.2763 36.4951L38.5126 30.7314C39.1055 30.3387 39.8166 30.1103 40.581 30.1103C41.4251 30.1103 42.2043 30.3887 42.831 30.8593V29.8603C42.831 25.3039 39.1373 21.6103 34.581 21.6103C33.0888 21.6103 31.6901 22.0082 30.4824 22.7011L29.3896 21.6083C30.893 20.6605 32.6724 20.1103 34.581 20.1103Z" fill="#888888"/>
</g>
<defs>
<filter id="filter0_d_2048_212" x="0.720703" y="0" width="67.7207" height="67.7207" filterUnits="userSpaceOnUse" color-interpolation-filters="sRGB">
<feFlood flood-opacity="0" result="BackgroundImageFix"/>
<feColorMatrix in="SourceAlpha" type="matrix" values="0 0 0 0 0 0 0 0 0 0 0 0 0 0 0 0 0 0 127 0" result="hardAlpha"/>
<feOffset dy="4"/>
<feGaussianBlur stdDeviation="7.5"/>
<feComposite in2="hardAlpha" operator="out"/>
<feColorMatrix type="matrix" values="0 0 0 0 0.183333 0 0 0 0 0.183333 0 0 0 0 0.183333 0 0 0 0.25 0"/>
<feBlend mode="normal" in2="BackgroundImageFix" result="effect1_dropShadow_2048_212"/>
<feBlend mode="normal" in="SourceGraphic" in2="effect1_dropShadow_2048_212" result="shape"/>
</filter>
</defs>
</svg>
