<svg width="69" height="68" viewBox="0 0 69 68" fill="none" xmlns="http://www.w3.org/2000/svg">
<g filter="url(#filter0_d_2048_215)">
<rect x="15.8831" y="11" width="37.7208" height="37.7208" rx="3" fill="#3D3D3D" shape-rendering="crispEdges"/>
<path d="M34.6829 22.2637C36.0013 21.2753 37.8831 22.216 37.8831 23.8633V35.8575C37.8831 37.5048 36.0013 38.4455 34.6829 37.4571L30.4163 34.2579C30.0703 33.9986 29.6494 33.8586 29.217 33.8585H26.8831C25.7785 33.8585 24.8831 32.9635 24.8831 31.8594V27.8614C24.8831 26.7573 25.7785 25.8624 26.8831 25.8624H29.217C29.6494 25.8623 30.0703 25.7222 30.4163 25.463L34.6829 22.2637ZM43.3831 27.2999C43.6759 27.007 44.1507 27.007 44.4436 27.2999C44.7365 27.5928 44.7365 28.0675 44.4436 28.3604L42.9739 29.8301L44.4436 31.2999C44.7365 31.5928 44.7365 32.0675 44.4436 32.3604C44.1507 32.6533 43.6759 32.6533 43.3831 32.3604L41.9133 30.8907L40.4436 32.3604C40.1507 32.6533 39.676 32.6533 39.3831 32.3604C39.0902 32.0675 39.0902 31.5928 39.3831 31.2999L40.8528 29.8301L39.3831 28.3604C39.0902 28.0675 39.0902 27.5928 39.3831 27.2999C39.676 27.007 40.1507 27.007 40.4436 27.2999L41.9133 28.7696L43.3831 27.2999Z" fill="#888888"/>
</g>
<defs>
<filter id="filter0_d_2048_215" x="0.883057" y="0" width="67.7207" height="67.7207" filterUnits="userSpaceOnUse" color-interpolation-filters="sRGB">
<feFlood flood-opacity="0" result="BackgroundImageFix"/>
<feColorMatrix in="SourceAlpha" type="matrix" values="0 0 0 0 0 0 0 0 0 0 0 0 0 0 0 0 0 0 127 0" result="hardAlpha"/>
<feOffset dy="4"/>
<feGaussianBlur stdDeviation="7.5"/>
<feComposite in2="hardAlpha" operator="out"/>
<feColorMatrix type="matrix" values="0 0 0 0 0.183333 0 0 0 0 0.183333 0 0 0 0 0.183333 0 0 0 0.25 0"/>
<feBlend mode="normal" in2="BackgroundImageFix" result="effect1_dropShadow_2048_215"/>
<feBlend mode="normal" in="SourceGraphic" in2="effect1_dropShadow_2048_215" result="shape"/>
</filter>
</defs>
</svg>
