<svg width="69" height="68" viewBox="0 0 69 68" fill="none" xmlns="http://www.w3.org/2000/svg">
<g filter="url(#filter0_d_2027_102)">
<rect x="15.6038" y="11" width="37.7208" height="37.7208" rx="3" fill="#3D3D3D" shape-rendering="crispEdges"/>
<path d="M42.2952 27.6104C43.9783 27.6104 45.0181 29.518 44.1526 31.0176L40.885 36.6758C40.1023 38.0311 38.6924 38.8603 37.1711 38.8604H27.7122C26.8094 38.8603 25.9922 38.4772 25.4036 37.8594L28.7346 30.2832C29.4298 28.6582 30.981 27.6104 32.6926 27.6104H42.2952ZM29.7307 20.8604C30.3085 20.8604 30.8759 21.0205 31.3743 21.3242L33.5432 22.6465C34.0416 22.9502 34.609 23.1103 35.1868 23.1104H38.5403C40.2123 23.1104 41.5882 24.4229 41.7678 26.1104H32.6926C30.3581 26.1104 28.2814 27.5361 27.3586 29.6855L24.5237 36.1318C24.4846 35.9226 24.4641 35.7065 24.4641 35.4854V24.2354C24.4641 22.3715 25.9183 20.8605 27.7122 20.8604H29.7307Z" fill="#888888"/>
</g>
<defs>
<filter id="filter0_d_2027_102" x="0.60376" y="0" width="67.7207" height="67.7208" filterUnits="userSpaceOnUse" color-interpolation-filters="sRGB">
<feFlood flood-opacity="0" result="BackgroundImageFix"/>
<feColorMatrix in="SourceAlpha" type="matrix" values="0 0 0 0 0 0 0 0 0 0 0 0 0 0 0 0 0 0 127 0" result="hardAlpha"/>
<feOffset dy="4"/>
<feGaussianBlur stdDeviation="7.5"/>
<feComposite in2="hardAlpha" operator="out"/>
<feColorMatrix type="matrix" values="0 0 0 0 0.183333 0 0 0 0 0.183333 0 0 0 0 0.183333 0 0 0 0.25 0"/>
<feBlend mode="normal" in2="BackgroundImageFix" result="effect1_dropShadow_2027_102"/>
<feBlend mode="normal" in="SourceGraphic" in2="effect1_dropShadow_2027_102" result="shape"/>
</filter>
</defs>
</svg>
