<svg width="69" height="68" viewBox="0 0 69 68" fill="none" xmlns="http://www.w3.org/2000/svg">
<g filter="url(#filter0_d_2027_106)">
<rect x="15.8831" y="11" width="37.7208" height="37.7208" rx="3" fill="#3D3D3D" shape-rendering="crispEdges"/>
<path d="M36.6731 20.8604C37.3418 20.8604 37.9662 21.1946 38.3372 21.751L39.7434 23.8604H40.7434C42.9525 23.8604 44.7434 25.6512 44.7434 27.8604V34.8604C44.7434 37.0695 42.9525 38.8604 40.7434 38.8604H28.7434C26.5343 38.8604 24.7434 37.0695 24.7434 34.8604V27.8604C24.7434 25.6512 26.5343 23.8604 28.7434 23.8604H29.7434L31.1497 21.751C31.5206 21.1946 32.145 20.8604 32.8137 20.8604H36.6731ZM34.7434 28.3604C33.0866 28.3604 31.7434 29.7035 31.7434 31.3604C31.7434 33.0172 33.0866 34.3604 34.7434 34.3604C36.4003 34.3604 37.7434 33.0172 37.7434 31.3604C37.7434 29.7035 36.4003 28.3604 34.7434 28.3604ZM34.7434 22.8604C34.1911 22.8604 33.7434 23.3081 33.7434 23.8604C33.7434 24.4126 34.1911 24.8604 34.7434 24.8604C35.2957 24.8604 35.7434 24.4126 35.7434 23.8604C35.7434 23.3081 35.2957 22.8604 34.7434 22.8604Z" fill="#888888"/>
</g>
<defs>
<filter id="filter0_d_2027_106" x="0.883057" y="0" width="67.7207" height="67.7208" filterUnits="userSpaceOnUse" color-interpolation-filters="sRGB">
<feFlood flood-opacity="0" result="BackgroundImageFix"/>
<feColorMatrix in="SourceAlpha" type="matrix" values="0 0 0 0 0 0 0 0 0 0 0 0 0 0 0 0 0 0 127 0" result="hardAlpha"/>
<feOffset dy="4"/>
<feGaussianBlur stdDeviation="7.5"/>
<feComposite in2="hardAlpha" operator="out"/>
<feColorMatrix type="matrix" values="0 0 0 0 0.183333 0 0 0 0 0.183333 0 0 0 0 0.183333 0 0 0 0.25 0"/>
<feBlend mode="normal" in2="BackgroundImageFix" result="effect1_dropShadow_2027_106"/>
<feBlend mode="normal" in="SourceGraphic" in2="effect1_dropShadow_2027_106" result="shape"/>
</filter>
</defs>
</svg>
