<svg width="68" height="68" viewBox="0 0 68 68" fill="none" xmlns="http://www.w3.org/2000/svg">
<g filter="url(#filter0_d_2027_64)">
<rect x="15.1624" y="11" width="37.7208" height="37.7208" rx="3" fill="#3D3D3D" shape-rendering="crispEdges"/>
<path fill-rule="evenodd" clip-rule="evenodd" d="M24.0227 27.3604V35.8604C24.0227 38.0695 25.8136 39.8604 28.0227 39.8604H40.0227C42.2318 39.8604 44.0227 38.0695 44.0227 35.8604V27.3604H24.0227ZM24.0227 25.8604H44.0227V23.8604C44.0227 21.6512 42.2318 19.8604 40.0227 19.8604H28.0227C25.8136 19.8604 24.0227 21.6512 24.0227 23.8604V25.8604ZM41.0227 22.8604C41.0227 23.4126 40.575 23.8604 40.0227 23.8604C39.4704 23.8604 39.0227 23.4126 39.0227 22.8604C39.0227 22.3081 39.4704 21.8604 40.0227 21.8604C40.575 21.8604 41.0227 22.3081 41.0227 22.8604ZM36.0227 23.8604C36.575 23.8604 37.0227 23.4126 37.0227 22.8604C37.0227 22.3081 36.575 21.8604 36.0227 21.8604C35.4704 21.8604 35.0227 22.3081 35.0227 22.8604C35.0227 23.4126 35.4704 23.8604 36.0227 23.8604Z" fill="#888888"/>
</g>
<defs>
<filter id="filter0_d_2027_64" x="0.162354" y="0" width="67.7207" height="67.7208" filterUnits="userSpaceOnUse" color-interpolation-filters="sRGB">
<feFlood flood-opacity="0" result="BackgroundImageFix"/>
<feColorMatrix in="SourceAlpha" type="matrix" values="0 0 0 0 0 0 0 0 0 0 0 0 0 0 0 0 0 0 127 0" result="hardAlpha"/>
<feOffset dy="4"/>
<feGaussianBlur stdDeviation="7.5"/>
<feComposite in2="hardAlpha" operator="out"/>
<feColorMatrix type="matrix" values="0 0 0 0 0.183333 0 0 0 0 0.183333 0 0 0 0 0.183333 0 0 0 0.25 0"/>
<feBlend mode="normal" in2="BackgroundImageFix" result="effect1_dropShadow_2027_64"/>
<feBlend mode="normal" in="SourceGraphic" in2="effect1_dropShadow_2027_64" result="shape"/>
</filter>
</defs>
</svg>
