<svg width="69" height="68" viewBox="0 0 69 68" fill="none" xmlns="http://www.w3.org/2000/svg">
<g filter="url(#filter0_d_2027_72)">
<rect x="15.6038" y="11" width="37.7208" height="37.7208" rx="3" fill="#3D3D3D" shape-rendering="crispEdges"/>
<path d="M37.0404 37.3606C37.2742 37.3606 37.464 37.5497 37.4642 37.7834C37.4642 37.8342 37.455 37.8849 37.4359 37.9319C36.9785 39.0596 35.8208 39.8606 34.4642 39.8606C33.1077 39.8606 31.9499 39.0596 31.4926 37.9319C31.4735 37.8849 31.4642 37.8342 31.4642 37.7834C31.4644 37.5497 31.6543 37.3606 31.8881 37.3606H37.0404ZM34.4642 19.8606C35.7177 19.8606 36.7335 20.8767 36.7338 22.1301V22.2346C36.7539 22.2415 36.7743 22.2481 36.7943 22.2551C36.2715 22.9903 35.9642 23.8897 35.9642 24.8606C35.9644 27.3458 37.979 29.3606 40.4642 29.3606C40.641 29.3606 40.8153 29.3501 40.9867 29.3303L41.1508 30.7756C41.2313 31.4852 41.5305 32.1622 42.016 32.7327C43.113 34.0214 42.0699 35.8605 40.2416 35.8606H28.6869C26.8586 35.8605 25.8155 34.0214 26.9125 32.7327C27.398 32.1622 27.6972 31.4852 27.7777 30.7756L28.225 26.8362C28.4661 24.7116 30.0523 22.9681 32.1947 22.2346V22.1301C32.1949 20.8767 33.2107 19.8606 34.4642 19.8606ZM40.4642 21.8606C42.1211 21.8606 43.4642 23.2037 43.4642 24.8606C43.4641 26.5173 42.121 27.8606 40.4642 27.8606C38.8075 27.8606 37.4644 26.5173 37.4642 24.8606C37.4642 23.2037 38.8074 21.8606 40.4642 21.8606Z" fill="#888888"/>
</g>
<defs>
<filter id="filter0_d_2027_72" x="0.60376" y="0" width="67.7207" height="67.7208" filterUnits="userSpaceOnUse" color-interpolation-filters="sRGB">
<feFlood flood-opacity="0" result="BackgroundImageFix"/>
<feColorMatrix in="SourceAlpha" type="matrix" values="0 0 0 0 0 0 0 0 0 0 0 0 0 0 0 0 0 0 127 0" result="hardAlpha"/>
<feOffset dy="4"/>
<feGaussianBlur stdDeviation="7.5"/>
<feComposite in2="hardAlpha" operator="out"/>
<feColorMatrix type="matrix" values="0 0 0 0 0.183333 0 0 0 0 0.183333 0 0 0 0 0.183333 0 0 0 0.25 0"/>
<feBlend mode="normal" in2="BackgroundImageFix" result="effect1_dropShadow_2027_72"/>
<feBlend mode="normal" in="SourceGraphic" in2="effect1_dropShadow_2027_72" result="shape"/>
</filter>
</defs>
</svg>
