<svg width="69" height="68" viewBox="0 0 69 68" fill="none" xmlns="http://www.w3.org/2000/svg">
<g filter="url(#filter0_d_2027_139)">
<rect x="15.7207" y="11" width="37.7208" height="37.7208" rx="3" fill="#3D3D3D" shape-rendering="crispEdges"/>
<path d="M44.5811 34.8603C43.479 34.8603 42.7369 34.8603 42.2164 35.449C41.6084 36.1364 40.9372 36.8604 40.0195 36.8604H39.2477C38.815 36.8604 38.3939 37.0007 38.0477 37.2604L36.981 38.0604C35.5588 39.127 33.6033 39.127 32.1811 38.0604L31.1144 37.2604C30.7682 37.0007 30.3471 36.8604 29.9144 36.8604L29.1426 36.8604C28.2249 36.8603 27.5537 36.1364 26.9457 35.4489C26.4252 34.8603 25.6831 34.8603 24.5811 34.8603L26.981 33.0604C27.9883 32.3049 28.5811 31.1194 28.5811 29.8604V29.3604L28.081 29.3604C27.2526 29.3603 26.5811 28.6888 26.5811 27.8603C26.5811 27.0319 27.2526 26.3603 28.0811 26.3603H28.5811V25.8604C28.5811 22.5466 31.2674 19.8603 34.5811 19.8604C37.8948 19.8604 40.5811 22.5466 40.5811 25.8603V26.3603H41.081C41.9095 26.3603 42.5811 27.0319 42.5811 27.8603C42.5811 28.6888 41.9095 29.3603 41.0811 29.3604L40.5811 29.3604V29.8604C40.5811 31.1194 41.1738 32.3049 42.1811 33.0604L44.5811 34.8603Z" fill="#888888"/>
</g>
<defs>
<filter id="filter0_d_2027_139" x="0.720703" y="0" width="67.7207" height="67.7207" filterUnits="userSpaceOnUse" color-interpolation-filters="sRGB">
<feFlood flood-opacity="0" result="BackgroundImageFix"/>
<feColorMatrix in="SourceAlpha" type="matrix" values="0 0 0 0 0 0 0 0 0 0 0 0 0 0 0 0 0 0 127 0" result="hardAlpha"/>
<feOffset dy="4"/>
<feGaussianBlur stdDeviation="7.5"/>
<feComposite in2="hardAlpha" operator="out"/>
<feColorMatrix type="matrix" values="0 0 0 0 0.183333 0 0 0 0 0.183333 0 0 0 0 0.183333 0 0 0 0.25 0"/>
<feBlend mode="normal" in2="BackgroundImageFix" result="effect1_dropShadow_2027_139"/>
<feBlend mode="normal" in="SourceGraphic" in2="effect1_dropShadow_2027_139" result="shape"/>
</filter>
</defs>
</svg>
