<svg width="69" height="68" viewBox="0 0 69 68" fill="none" xmlns="http://www.w3.org/2000/svg">
<g filter="url(#filter0_d_2027_75)">
<rect x="15.4414" y="11" width="37.7208" height="37.7208" rx="3" fill="#3D3D3D" shape-rendering="crispEdges"/>
<path d="M33.5518 32.8604C34.2421 32.8604 34.8018 33.42 34.8018 34.1104C34.8018 34.8007 34.2421 35.3604 33.5518 35.3604C32.8614 35.3604 32.3018 34.8007 32.3018 34.1104C32.3018 33.42 32.8614 32.8604 33.5518 32.8604ZM33.5518 27.8604C34.2421 27.8604 34.8018 28.42 34.8018 29.1104C34.8018 29.8007 34.2421 30.3604 33.5518 30.3604C32.8614 30.3604 32.3018 29.8007 32.3018 29.1104C32.3018 28.42 32.8614 27.8604 33.5518 27.8604ZM33.5518 22.8604C34.2421 22.8604 34.8018 23.42 34.8018 24.1104C34.8018 24.8007 34.2421 25.3604 33.5518 25.3604C32.8614 25.3604 32.3018 24.8007 32.3018 24.1104C32.3018 23.42 32.8614 22.8604 33.5518 22.8604Z" fill="#888888"/>
</g>
<defs>
<filter id="filter0_d_2027_75" x="0.441406" y="0" width="67.7207" height="67.7208" filterUnits="userSpaceOnUse" color-interpolation-filters="sRGB">
<feFlood flood-opacity="0" result="BackgroundImageFix"/>
<feColorMatrix in="SourceAlpha" type="matrix" values="0 0 0 0 0 0 0 0 0 0 0 0 0 0 0 0 0 0 127 0" result="hardAlpha"/>
<feOffset dy="4"/>
<feGaussianBlur stdDeviation="7.5"/>
<feComposite in2="hardAlpha" operator="out"/>
<feColorMatrix type="matrix" values="0 0 0 0 0.183333 0 0 0 0 0.183333 0 0 0 0 0.183333 0 0 0 0.25 0"/>
<feBlend mode="normal" in2="BackgroundImageFix" result="effect1_dropShadow_2027_75"/>
<feBlend mode="normal" in="SourceGraphic" in2="effect1_dropShadow_2027_75" result="shape"/>
</filter>
</defs>
</svg>
