<svg width="68" height="68" viewBox="0 0 68 68" fill="none" xmlns="http://www.w3.org/2000/svg">
<g filter="url(#filter0_d_2027_91)">
<rect x="15" y="11" width="37.7208" height="37.7208" rx="3" fill="#3D3D3D" shape-rendering="crispEdges"/>
<path fill-rule="evenodd" clip-rule="evenodd" d="M27.8604 19.8604C25.6512 19.8604 23.8604 21.6512 23.8604 23.8604V35.8604C23.8604 38.0695 25.6512 39.8604 27.8604 39.8604H39.8604C42.0695 39.8604 43.8604 38.0695 43.8604 35.8604V23.8604C43.8604 21.6512 42.0695 19.8604 39.8604 19.8604H27.8604ZM35.2764 25.2364C34.9317 25.0066 34.4661 25.0998 34.2363 25.4444C34.0065 25.7891 34.0997 26.2547 34.4443 26.4845L35.6709 27.3022C34.3154 27.5441 33.0224 28.0176 31.9443 28.7364C30.2715 29.8516 29.1104 31.5695 29.1104 33.8604C29.1104 34.2746 29.4461 34.6104 29.8604 34.6104C30.2746 34.6104 30.6104 34.2746 30.6104 33.8604C30.6104 32.1514 31.4492 30.8692 32.7764 29.9845C33.7727 29.3203 35.0396 28.8878 36.3946 28.707L35.2363 30.4444C35.0065 30.7891 35.0997 31.2547 35.4443 31.4845C35.789 31.7142 36.2546 31.6211 36.4844 31.2765L38.4844 28.2765C38.7142 27.9318 38.621 27.4662 38.2764 27.2364L35.2764 25.2364Z" fill="#888888"/>
</g>
<defs>
<filter id="filter0_d_2027_91" x="0" y="0" width="67.7207" height="67.7208" filterUnits="userSpaceOnUse" color-interpolation-filters="sRGB">
<feFlood flood-opacity="0" result="BackgroundImageFix"/>
<feColorMatrix in="SourceAlpha" type="matrix" values="0 0 0 0 0 0 0 0 0 0 0 0 0 0 0 0 0 0 127 0" result="hardAlpha"/>
<feOffset dy="4"/>
<feGaussianBlur stdDeviation="7.5"/>
<feComposite in2="hardAlpha" operator="out"/>
<feColorMatrix type="matrix" values="0 0 0 0 0.183333 0 0 0 0 0.183333 0 0 0 0 0.183333 0 0 0 0.25 0"/>
<feBlend mode="normal" in2="BackgroundImageFix" result="effect1_dropShadow_2027_91"/>
<feBlend mode="normal" in="SourceGraphic" in2="effect1_dropShadow_2027_91" result="shape"/>
</filter>
</defs>
</svg>
