<svg width="69" height="68" viewBox="0 0 69 68" fill="none" xmlns="http://www.w3.org/2000/svg">
<g filter="url(#filter0_d_2027_133)">
<rect x="15.7207" y="11" width="37.7208" height="37.7208" rx="3" fill="#3D3D3D" shape-rendering="crispEdges"/>
<path d="M39.7207 33.1104C40.1349 33.1104 40.4707 33.4461 40.4707 33.8604C40.4707 34.2746 40.1349 34.6104 39.7207 34.6104H29.7207C29.3065 34.6104 28.9707 34.2746 28.9707 33.8604C28.9707 33.4461 29.3065 33.1104 29.7207 33.1104H39.7207ZM39.7207 29.1104C40.1349 29.1104 40.4707 29.4461 40.4707 29.8604C40.4707 30.2746 40.1349 30.6104 39.7207 30.6104H29.7207C29.3065 30.6104 28.9707 30.2746 28.9707 29.8604C28.9707 29.4461 29.3065 29.1104 29.7207 29.1104H39.7207ZM39.7207 25.1104C40.1349 25.1104 40.4707 25.4461 40.4707 25.8604C40.4707 26.2746 40.1349 26.6104 39.7207 26.6104H29.7207C29.3065 26.6104 28.9707 26.2746 28.9707 25.8604C28.9707 25.4461 29.3065 25.1104 29.7207 25.1104H39.7207Z" fill="#888888"/>
</g>
<defs>
<filter id="filter0_d_2027_133" x="0.720703" y="0" width="67.7207" height="67.7207" filterUnits="userSpaceOnUse" color-interpolation-filters="sRGB">
<feFlood flood-opacity="0" result="BackgroundImageFix"/>
<feColorMatrix in="SourceAlpha" type="matrix" values="0 0 0 0 0 0 0 0 0 0 0 0 0 0 0 0 0 0 127 0" result="hardAlpha"/>
<feOffset dy="4"/>
<feGaussianBlur stdDeviation="7.5"/>
<feComposite in2="hardAlpha" operator="out"/>
<feColorMatrix type="matrix" values="0 0 0 0 0.183333 0 0 0 0 0.183333 0 0 0 0 0.183333 0 0 0 0.25 0"/>
<feBlend mode="normal" in2="BackgroundImageFix" result="effect1_dropShadow_2027_133"/>
<feBlend mode="normal" in="SourceGraphic" in2="effect1_dropShadow_2027_133" result="shape"/>
</filter>
</defs>
</svg>
