<svg width="68" height="68" viewBox="0 0 68 68" fill="none" xmlns="http://www.w3.org/2000/svg">
<g filter="url(#filter0_d_2027_46)">
<rect x="15.1624" y="11" width="37.7208" height="37.7208" rx="3" fill="#3D3D3D" shape-rendering="crispEdges"/>
<path d="M34.1624 19.1104C34.5766 19.1104 34.9124 19.4462 34.9124 19.8604C34.9124 20.2746 34.5766 20.6104 34.1624 20.6104H28.1624C26.3674 20.6104 24.9124 22.0655 24.9124 23.8604V35.8604C24.9124 37.6553 26.3674 39.1104 28.1624 39.1104H40.1624C41.9573 39.1104 43.4124 37.6553 43.4124 35.8604V29.8604C43.4124 29.4462 43.7481 29.1104 44.1624 29.1104C44.5766 29.1104 44.9124 29.4462 44.9124 29.8604V35.8604C44.9124 38.4837 42.7857 40.6104 40.1624 40.6104H28.1624C25.539 40.6104 23.4124 38.4837 23.4124 35.8604V23.8604C23.4124 21.237 25.539 19.1104 28.1624 19.1104H34.1624ZM36.0178 23.1006C36.4863 23.9824 37.1755 25.0962 38.051 25.9717C38.9265 26.8472 40.0403 27.5364 40.9221 28.0049L35.2219 33.7041C34.8683 34.0577 34.4094 34.2877 33.9143 34.3584L30.4817 34.8487C29.7191 34.9574 29.0653 34.3036 29.1741 33.541L29.6643 30.1084C29.735 29.6134 29.965 29.1545 30.3186 28.8008L36.0178 23.1006ZM38.5813 20.5371C39.4841 19.6345 40.9481 19.6345 41.8508 20.5371L43.4856 22.1719C44.3883 23.0747 44.3882 24.5387 43.4856 25.4414L42.0364 26.8907C41.9226 26.8343 41.8021 26.7734 41.678 26.708C40.8426 26.2682 39.8514 25.6509 39.1116 24.9112C38.3718 24.1714 37.7545 23.1801 37.3147 22.3448C37.2493 22.2206 37.1884 22.1001 37.1321 21.9864L38.5813 20.5371Z" fill="#888888"/>
</g>
<defs>
<filter id="filter0_d_2027_46" x="0.162354" y="0" width="67.7207" height="67.7208" filterUnits="userSpaceOnUse" color-interpolation-filters="sRGB">
<feFlood flood-opacity="0" result="BackgroundImageFix"/>
<feColorMatrix in="SourceAlpha" type="matrix" values="0 0 0 0 0 0 0 0 0 0 0 0 0 0 0 0 0 0 127 0" result="hardAlpha"/>
<feOffset dy="4"/>
<feGaussianBlur stdDeviation="7.5"/>
<feComposite in2="hardAlpha" operator="out"/>
<feColorMatrix type="matrix" values="0 0 0 0 0.183333 0 0 0 0 0.183333 0 0 0 0 0.183333 0 0 0 0.25 0"/>
<feBlend mode="normal" in2="BackgroundImageFix" result="effect1_dropShadow_2027_46"/>
<feBlend mode="normal" in="SourceGraphic" in2="effect1_dropShadow_2027_46" result="shape"/>
</filter>
</defs>
</svg>
