<svg width="68" height="68" viewBox="0 0 68 68" fill="none" xmlns="http://www.w3.org/2000/svg">
<g filter="url(#filter0_d_2027_132)">
<rect x="15" y="11" width="37.7208" height="37.7208" rx="3" fill="#3D3D3D" shape-rendering="crispEdges"/>
<path d="M26.2588 22.2589C26.5516 21.9661 27.0264 21.9661 27.3193 22.2589C27.6122 22.5518 27.6122 23.0266 27.3193 23.3195C25.6447 24.9942 24.6104 27.306 24.6104 29.8605C24.6104 32.4147 25.6449 34.7259 27.3193 36.4005C27.6122 36.6934 27.6122 37.1692 27.3193 37.462C27.0265 37.7546 26.5516 37.7547 26.2588 37.462C24.3143 35.5175 23.1104 32.8287 23.1104 29.8605C23.1104 26.8922 24.3143 24.2035 26.2588 22.2589ZM40.4014 22.2589C40.6943 21.9661 41.1691 21.9661 41.4619 22.2589C43.4064 24.2035 44.6104 26.8922 44.6104 29.8605C44.6103 32.8287 43.4064 35.5175 41.4619 37.462C41.1691 37.7547 40.6943 37.7546 40.4014 37.462C40.1085 37.1692 40.1085 36.6934 40.4014 36.4005C42.0758 34.7259 43.1103 32.4147 43.1104 29.8605C43.1104 27.306 42.076 24.9942 40.4014 23.3195C40.1085 23.0266 40.1085 22.5518 40.4014 22.2589ZM29.0869 25.087C29.3798 24.7942 29.8555 24.7942 30.1484 25.087C30.4411 25.3798 30.4409 25.8547 30.1484 26.1476C29.1976 27.0985 28.6104 28.4105 28.6104 29.8605C28.6104 31.3104 29.1976 32.6216 30.1484 33.5724C30.4411 33.8652 30.441 34.3401 30.1484 34.6329C29.8555 34.9258 29.3798 34.9258 29.0869 34.6329C27.8665 33.4123 27.1104 31.724 27.1104 29.8605C27.1104 27.9968 27.8663 26.3077 29.0869 25.087ZM37.5723 25.087C37.8652 24.7942 38.3409 24.7942 38.6338 25.087C39.8544 26.3077 40.6104 27.9968 40.6104 29.8605C40.6103 31.724 39.8542 33.4123 38.6338 34.6329C38.3409 34.9258 37.8652 34.9258 37.5723 34.6329C37.2798 34.3401 37.2796 33.8652 37.5723 33.5724C38.5231 32.6216 39.1103 31.3104 39.1104 29.8605C39.1104 28.4105 38.5231 27.0985 37.5723 26.1476C37.2798 25.8547 37.2796 25.3798 37.5723 25.087ZM33.8604 27.3605C35.2411 27.3605 36.3604 28.4798 36.3604 29.8605C36.3602 31.2411 35.241 32.3605 33.8604 32.3605C32.4797 32.3605 31.3605 31.2411 31.3604 29.8605C31.3604 28.4798 32.4796 27.3605 33.8604 27.3605Z" fill="#888888"/>
</g>
<defs>
<filter id="filter0_d_2027_132" x="0" y="0" width="67.7207" height="67.7207" filterUnits="userSpaceOnUse" color-interpolation-filters="sRGB">
<feFlood flood-opacity="0" result="BackgroundImageFix"/>
<feColorMatrix in="SourceAlpha" type="matrix" values="0 0 0 0 0 0 0 0 0 0 0 0 0 0 0 0 0 0 127 0" result="hardAlpha"/>
<feOffset dy="4"/>
<feGaussianBlur stdDeviation="7.5"/>
<feComposite in2="hardAlpha" operator="out"/>
<feColorMatrix type="matrix" values="0 0 0 0 0.183333 0 0 0 0 0.183333 0 0 0 0 0.183333 0 0 0 0.25 0"/>
<feBlend mode="normal" in2="BackgroundImageFix" result="effect1_dropShadow_2027_132"/>
<feBlend mode="normal" in="SourceGraphic" in2="effect1_dropShadow_2027_132" result="shape"/>
</filter>
</defs>
</svg>
