<svg width="68" height="68" viewBox="0 0 68 68" fill="none" xmlns="http://www.w3.org/2000/svg">
<g filter="url(#filter0_d_2027_42)">
<rect x="15" y="11" width="37.7208" height="37.7208" rx="3" fill="#3D3D3D" shape-rendering="crispEdges"/>
<rect x="15.25" y="11.25" width="37.2208" height="37.2208" rx="2.75" stroke="url(#paint0_linear_2027_42)" stroke-opacity="0.5" stroke-width="0.5" shape-rendering="crispEdges"/>
<path fill-rule="evenodd" clip-rule="evenodd" d="M38.0407 39.8604H29.68C27.3713 39.8604 25.4996 38.0743 25.4996 35.8712V30.9934C25.4996 30.2852 25.2048 29.606 24.68 29.1052C23.4642 27.9449 23.6222 26.0224 25.0129 25.0573L31.4016 20.6234C32.8674 19.6061 34.8533 19.6061 36.3191 20.6234L42.7078 25.0573C44.0985 26.0224 44.2565 27.9449 43.0407 29.1052C42.5159 29.606 42.2211 30.2852 42.2211 30.9934V35.8712C42.2211 38.0743 40.3494 39.8604 38.0407 39.8604ZM31.8604 35.1104C31.4461 35.1104 31.1104 35.4462 31.1104 35.8604C31.1104 36.2746 31.4461 36.6104 31.8604 36.6104H35.8604C36.2746 36.6104 36.6104 36.2746 36.6104 35.8604C36.6104 35.4462 36.2746 35.1104 35.8604 35.1104H31.8604Z" fill="#888888"/>
</g>
<defs>
<filter id="filter0_d_2027_42" x="0" y="0" width="67.7207" height="67.7208" filterUnits="userSpaceOnUse" color-interpolation-filters="sRGB">
<feFlood flood-opacity="0" result="BackgroundImageFix"/>
<feColorMatrix in="SourceAlpha" type="matrix" values="0 0 0 0 0 0 0 0 0 0 0 0 0 0 0 0 0 0 127 0" result="hardAlpha"/>
<feOffset dy="4"/>
<feGaussianBlur stdDeviation="7.5"/>
<feComposite in2="hardAlpha" operator="out"/>
<feColorMatrix type="matrix" values="0 0 0 0 0.183333 0 0 0 0 0.183333 0 0 0 0 0.183333 0 0 0 0.25 0"/>
<feBlend mode="normal" in2="BackgroundImageFix" result="effect1_dropShadow_2027_42"/>
<feBlend mode="normal" in="SourceGraphic" in2="effect1_dropShadow_2027_42" result="shape"/>
</filter>
<linearGradient id="paint0_linear_2027_42" x1="16" y1="11.3925" x2="53" y2="49" gradientUnits="userSpaceOnUse">
<stop stop-color="#F08234"/>
<stop offset="1" stop-color="#454545" stop-opacity="0.5"/>
</linearGradient>
</defs>
</svg>
