<svg width="69" height="68" viewBox="0 0 69 68" fill="none" xmlns="http://www.w3.org/2000/svg">
<g filter="url(#filter0_d_2027_56)">
<rect x="15.7207" y="11" width="37.7208" height="37.7208" rx="3" fill="#3D3D3D" shape-rendering="crispEdges"/>
<path fill-rule="evenodd" clip-rule="evenodd" d="M34.5811 39.8604C40.1039 39.8604 44.5811 35.3832 44.5811 29.8604C44.5811 24.3375 40.1039 19.8604 34.5811 19.8604C29.0582 19.8604 24.5811 24.3375 24.5811 29.8604C24.5811 35.3832 29.0582 39.8604 34.5811 39.8604ZM38.5811 30.6104C38.9953 30.6104 39.3311 30.2746 39.3311 29.8604C39.3311 29.4461 38.9953 29.1104 38.5811 29.1104H30.5811C30.1668 29.1104 29.8311 29.4461 29.8311 29.8604C29.8311 30.2746 30.1668 30.6104 30.5811 30.6104H38.5811Z" fill="#888888"/>
</g>
<defs>
<filter id="filter0_d_2027_56" x="0.720703" y="0" width="67.7207" height="67.7208" filterUnits="userSpaceOnUse" color-interpolation-filters="sRGB">
<feFlood flood-opacity="0" result="BackgroundImageFix"/>
<feColorMatrix in="SourceAlpha" type="matrix" values="0 0 0 0 0 0 0 0 0 0 0 0 0 0 0 0 0 0 127 0" result="hardAlpha"/>
<feOffset dy="4"/>
<feGaussianBlur stdDeviation="7.5"/>
<feComposite in2="hardAlpha" operator="out"/>
<feColorMatrix type="matrix" values="0 0 0 0 0.183333 0 0 0 0 0.183333 0 0 0 0 0.183333 0 0 0 0.25 0"/>
<feBlend mode="normal" in2="BackgroundImageFix" result="effect1_dropShadow_2027_56"/>
<feBlend mode="normal" in="SourceGraphic" in2="effect1_dropShadow_2027_56" result="shape"/>
</filter>
</defs>
</svg>
