<svg width="69" height="68" viewBox="0 0 69 68" fill="none" xmlns="http://www.w3.org/2000/svg">
<g filter="url(#filter0_d_2027_148)">
<rect x="15.8831" y="11" width="37.7208" height="37.7208" rx="3" fill="#3D3D3D" shape-rendering="crispEdges"/>
<path d="M41.6033 20.8604C43.8124 20.8604 45.6033 22.6512 45.6033 24.8604V34.8604C45.6033 37.0695 43.8124 38.8604 41.6033 38.8604H27.8835C25.6744 38.8604 23.8835 37.0695 23.8835 34.8604V24.8604C23.8835 22.6512 25.6744 20.8604 27.8835 20.8604H41.6033ZM33.1912 26.584C32.5263 26.2515 31.7439 26.7351 31.7439 27.4785V32.2422C31.7439 32.9856 32.5263 33.4692 33.1912 33.1367L37.9548 30.7549C38.6917 30.3863 38.6917 29.3344 37.9548 28.9658L33.1912 26.584Z" fill="#888888"/>
</g>
<defs>
<filter id="filter0_d_2027_148" x="0.883057" y="0" width="67.7207" height="67.7207" filterUnits="userSpaceOnUse" color-interpolation-filters="sRGB">
<feFlood flood-opacity="0" result="BackgroundImageFix"/>
<feColorMatrix in="SourceAlpha" type="matrix" values="0 0 0 0 0 0 0 0 0 0 0 0 0 0 0 0 0 0 127 0" result="hardAlpha"/>
<feOffset dy="4"/>
<feGaussianBlur stdDeviation="7.5"/>
<feComposite in2="hardAlpha" operator="out"/>
<feColorMatrix type="matrix" values="0 0 0 0 0.183333 0 0 0 0 0.183333 0 0 0 0 0.183333 0 0 0 0.25 0"/>
<feBlend mode="normal" in2="BackgroundImageFix" result="effect1_dropShadow_2027_148"/>
<feBlend mode="normal" in="SourceGraphic" in2="effect1_dropShadow_2027_148" result="shape"/>
</filter>
</defs>
</svg>
