<svg width="68" height="68" viewBox="0 0 68 68" fill="none" xmlns="http://www.w3.org/2000/svg">
<g filter="url(#filter0_d_2027_52)">
<rect x="15.1624" y="11" width="37.7208" height="37.7208" rx="3" fill="#3D3D3D" shape-rendering="crispEdges"/>
<path fill-rule="evenodd" clip-rule="evenodd" d="M33.2078 20.8604H35.1169C36.1713 20.8604 37.026 21.6662 37.026 22.6604C37.026 23.798 38.2432 24.5212 39.2424 23.9773L39.3438 23.9221C40.2569 23.425 41.4245 23.72 41.9517 24.5809L42.9063 26.1398C43.4334 27.0007 43.1206 28.1016 42.2075 28.5986C41.2079 29.1428 41.2079 30.5779 42.2075 31.1221C43.1206 31.6191 43.4334 32.72 42.9063 33.5809L41.9517 35.1398C41.4245 36.0007 40.2569 36.2957 39.3438 35.7986L39.2424 35.7434C38.2432 35.1995 37.026 35.9227 37.026 37.0604C37.026 38.0545 36.1713 38.8604 35.1169 38.8604H33.2078C32.1534 38.8604 31.2987 38.0545 31.2987 37.0604C31.2987 35.9227 30.0815 35.1995 29.0824 35.7434L28.9809 35.7986C28.0678 36.2957 26.9002 36.0007 26.373 35.1398L25.4184 33.5809C24.8913 32.72 25.2041 31.6191 26.1172 31.1221C27.1169 30.5779 27.1169 29.1428 26.1172 28.5986C25.2041 28.1016 24.8913 27.0007 25.4184 26.1398L26.373 24.5809C26.9002 23.72 28.0678 23.425 28.9809 23.9221L29.0824 23.9773C30.0815 24.5212 31.2987 23.798 31.2987 22.6604C31.2987 21.6662 32.1534 20.8604 33.2078 20.8604ZM34.1624 32.8604C35.8192 32.8604 37.1624 31.5172 37.1624 29.8604C37.1624 28.2035 35.8192 26.8604 34.1624 26.8604C32.5055 26.8604 31.1624 28.2035 31.1624 29.8604C31.1624 31.5172 32.5055 32.8604 34.1624 32.8604Z" fill="#888888"/>
</g>
<defs>
<filter id="filter0_d_2027_52" x="0.162354" y="0" width="67.7207" height="67.7208" filterUnits="userSpaceOnUse" color-interpolation-filters="sRGB">
<feFlood flood-opacity="0" result="BackgroundImageFix"/>
<feColorMatrix in="SourceAlpha" type="matrix" values="0 0 0 0 0 0 0 0 0 0 0 0 0 0 0 0 0 0 127 0" result="hardAlpha"/>
<feOffset dy="4"/>
<feGaussianBlur stdDeviation="7.5"/>
<feComposite in2="hardAlpha" operator="out"/>
<feColorMatrix type="matrix" values="0 0 0 0 0.183333 0 0 0 0 0.183333 0 0 0 0 0.183333 0 0 0 0.25 0"/>
<feBlend mode="normal" in2="BackgroundImageFix" result="effect1_dropShadow_2027_52"/>
<feBlend mode="normal" in="SourceGraphic" in2="effect1_dropShadow_2027_52" result="shape"/>
</filter>
</defs>
</svg>
