<svg width="25" height="25" viewBox="0 0 25 25" fill="none" xmlns="http://www.w3.org/2000/svg">
<path d="M16.7004 1.38965C17.1147 1.38965 17.4504 1.72543 17.4504 2.13965V3.63965H17.7004C19.9096 3.63965 21.7004 5.43051 21.7004 7.63965V8.72559C21.7004 8.99075 21.595 9.24512 21.4075 9.43262L8.99341 21.8467C8.80591 22.0342 8.55154 22.1396 8.28638 22.1396H7.70044C5.4913 22.1396 3.70044 20.3488 3.70044 18.1396V7.63965C3.70044 5.43051 5.4913 3.63965 7.70044 3.63965H7.95044V2.13965C7.95044 1.72543 8.28623 1.38965 8.70044 1.38965C9.11465 1.38965 9.45044 1.72543 9.45044 2.13965V3.63965H15.9504V2.13965C15.9504 1.72543 16.2862 1.38965 16.7004 1.38965ZM18.843 13.6299C19.4967 12.9762 20.5566 12.9762 21.2102 13.6299C21.8639 14.2835 21.8639 15.3434 21.2102 15.9971L16.1956 21.0117C16.0749 21.1324 15.9251 21.2198 15.761 21.2666L13.5647 21.8936C13.1878 22.0009 12.8392 21.6523 12.9465 21.2754L13.5735 19.0791C13.6203 18.915 13.7077 18.7652 13.8284 18.6445L18.843 13.6299ZM8.70044 16.3896C8.28623 16.3896 7.95044 16.7254 7.95044 17.1396C7.95044 17.5539 8.28623 17.8896 8.70044 17.8896H9.70044C10.1147 17.8896 10.4504 17.5539 10.4504 17.1396C10.4504 16.7254 10.1147 16.3896 9.70044 16.3896H8.70044ZM8.70044 12.3896C8.28623 12.3896 7.95044 12.7254 7.95044 13.1396C7.95044 13.5539 8.28623 13.8896 8.70044 13.8896H12.7004C13.1147 13.8896 13.4504 13.5539 13.4504 13.1396C13.4504 12.7254 13.1147 12.3896 12.7004 12.3896H8.70044ZM8.70044 8.38965C8.28623 8.38965 7.95044 8.72543 7.95044 9.13965C7.95044 9.55386 8.28623 9.88965 8.70044 9.88965H15.7004C16.1147 9.88965 16.4504 9.55386 16.4504 9.13965C16.4504 8.72543 16.1147 8.38965 15.7004 8.38965H8.70044Z" fill="#888888"/>
</svg>
