<?xml version="1.0" encoding="UTF-8"?>
<svg version="1.1" xmlns="http://www.w3.org/2000/svg" width="128" height="128">
<path d="M0 0 C5.92200682 1.71318518 5.92200682 1.71318518 11.9609375 1.28515625 C15.4609375 0.97265625 15.4609375 0.97265625 18.3359375 2.47265625 C21.01513803 5.62465687 21.08551916 7.91813822 21.4609375 11.97265625 C23.44921421 14.39291852 23.44921421 14.39291852 27.3359375 14.28515625 C30.561138 14.63763718 31.37360669 14.9023656 34.0234375 17.03515625 C35.69072244 20.44221679 35.19627115 21.99050919 34.5 25.6015625 C34.43169954 29.74740061 36.38926494 33.16248146 38.13671875 36.84765625 C43.76075562 50.11971965 43.39615388 67.32541551 38.78515625 80.8671875 C35.11671652 89.47016563 30.44101455 96.17978742 24.046875 102.94140625 C21.82493654 105.78723876 21.73796143 108.44060113 21.4609375 111.97265625 C19.8359375 114.41015625 19.8359375 114.41015625 17.4609375 115.97265625 C13.68811224 116.30360583 11.05358202 116.17020442 7.4609375 114.97265625 C5.2496519 115.66546892 5.2496519 115.66546892 2.8984375 116.78515625 C-11.71835727 122.88076042 -28.11279776 122.6249531 -42.94921875 117.0703125 C-43.95275391 116.65072266 -43.95275391 116.65072266 -44.9765625 116.22265625 C-48.50364817 114.67193347 -48.50364817 114.67193347 -52.2265625 115.53515625 C-55.5390625 115.97265625 -55.5390625 115.97265625 -58.4140625 114.47265625 C-60.5390625 111.97265625 -60.5390625 111.97265625 -60.9140625 108.66015625 C-61.58363567 104.70967456 -61.89779883 104.27471809 -64.6640625 101.72265625 C-75.90462905 91.31131182 -80.51904611 76.57420461 -81.88671875 61.6796875 C-82.6835051 58.37326272 -84.12073294 57.28106174 -86.5390625 54.97265625 C-87.32022389 52.21434846 -87.21858327 49.75355216 -86.5390625 46.97265625 C-84.30100806 44.67570565 -82.37951578 43.39288289 -79.5390625 41.97265625 C-78.66172499 40.08478807 -77.86042562 38.1611851 -77.1015625 36.22265625 C-75.53053829 32.22368552 -73.84469064 28.60250814 -71.5390625 24.97265625 C-70.2190625 25.30265625 -68.8990625 25.63265625 -67.5390625 25.97265625 C-68.20513689 30.38223733 -69.80530979 34.23837811 -71.6015625 38.28515625 C-71.88322266 38.93033203 -72.16488281 39.57550781 -72.45507812 40.24023438 C-73.1453368 41.81963983 -73.84159448 43.39642118 -74.5390625 44.97265625 C-73.8790625 44.97265625 -73.2190625 44.97265625 -72.5390625 44.97265625 C-72.5390625 45.63265625 -72.5390625 46.29265625 -72.5390625 46.97265625 C-71.68248047 46.77349609 -71.68248047 46.77349609 -70.80859375 46.5703125 C-64.68069495 45.23561912 -58.79001879 44.67974643 -52.51953125 44.51171875 C-48.89246194 43.85570884 -47.27718298 42.3702609 -44.5390625 39.97265625 C-43.5903125 39.72515625 -42.6415625 39.47765625 -41.6640625 39.22265625 C-37.65340083 37.61839158 -35.83788552 35.24822019 -33.15234375 31.9453125 C-31.5390625 29.97265625 -31.5390625 29.97265625 -29.875 28.41796875 C-27.84233436 26.21888604 -27.86097829 23.86989838 -27.5390625 20.97265625 C-28.3434375 20.72515625 -29.1478125 20.47765625 -29.9765625 20.22265625 C-32.83594023 19.21936582 -35.38579789 18.09762443 -38.1015625 16.78515625 C-41.01502675 15.45862109 -42.28519556 14.95678957 -45.5390625 15.16015625 C-47.50302288 15.80695928 -47.50302288 15.80695928 -48.5390625 16.97265625 C-49.95696799 16.91406511 -51.37369752 16.82576231 -52.7890625 16.72265625 C-56.75833419 16.64088045 -57.23663304 16.69710941 -60.3515625 19.53515625 C-61.434375 20.74171875 -61.434375 20.74171875 -62.5390625 21.97265625 C-64.8515625 21.78515625 -64.8515625 21.78515625 -66.5390625 20.97265625 C-66.13533415 18.14655778 -65.73279147 17.14216909 -63.5390625 15.22265625 C-61.3184718 12.72449171 -61.29557247 12.14736492 -61.1015625 8.97265625 C-60.81974104 5.83152117 -60.60065502 5.05411732 -58.6015625 2.41015625 C-55.27319635 0.84786193 -54.45916104 0.94074811 -50.9765625 1.47265625 C-45.46729361 2.31263447 -41.52940871 0.96351979 -36.3984375 -1.01953125 C-24.41980068 -5.2415098 -11.88011903 -3.35411811 0 0 Z M-41.5390625 5.97265625 C-42.5290625 6.30265625 -43.5190625 6.63265625 -44.5390625 6.97265625 C-44.5390625 7.63265625 -44.5390625 8.29265625 -44.5390625 8.97265625 C-43.51425781 9.38257813 -42.48945312 9.7925 -41.43359375 10.21484375 C-38.72526042 11.29817708 -36.01692708 12.38151042 -33.30859375 13.46484375 C-32.33913818 13.84914551 -32.33913818 13.84914551 -31.35009766 14.24121094 C-29.77998853 14.87535046 -28.22611928 15.54941985 -26.67578125 16.23046875 C-25.97066406 16.47539062 -25.26554687 16.7203125 -24.5390625 16.97265625 C-23.8790625 16.64265625 -23.2190625 16.31265625 -22.5390625 15.97265625 C-19.16083834 15.82890203 -16.76515295 15.89729277 -13.5390625 16.97265625 C-11.47002603 16.37531669 -11.47002603 16.37531669 -9.30859375 15.3203125 C-8.50615234 14.95615234 -7.70371094 14.59199219 -6.87695312 14.21679688 C-6.04357422 13.82685547 -5.21019531 13.43691406 -4.3515625 13.03515625 C-3.50658203 12.64908203 -2.66160156 12.26300781 -1.79101562 11.86523438 C0.29711485 10.90964924 2.38067354 9.94521842 4.4609375 8.97265625 C4.4609375 8.31265625 4.4609375 7.65265625 4.4609375 6.97265625 C2.73349734 6.32221906 1.0039006 5.67750781 -0.7265625 5.03515625 C-1.68949219 4.67550781 -2.65242188 4.31585938 -3.64453125 3.9453125 C-16.17491874 -0.26530354 -29.41993047 1.33009644 -41.5390625 5.97265625 Z M-54.5390625 5.97265625 C-55.1990625 7.29265625 -55.8590625 8.61265625 -56.5390625 9.97265625 C-55.5490625 10.96265625 -54.5590625 11.95265625 -53.5390625 12.97265625 C-52.2190625 12.31265625 -50.8990625 11.65265625 -49.5390625 10.97265625 C-49.8690625 9.65265625 -50.1990625 8.33265625 -50.5390625 6.97265625 C-51.8590625 6.64265625 -53.1790625 6.31265625 -54.5390625 5.97265625 Z M11.4609375 5.97265625 C10.8009375 6.63265625 10.1409375 7.29265625 9.4609375 7.97265625 C9.54665411 10.06556782 9.54665411 10.06556782 10.4609375 11.97265625 C11.4509375 12.30265625 12.4409375 12.63265625 13.4609375 12.97265625 C14.4509375 11.98265625 15.4409375 10.99265625 16.4609375 9.97265625 C15.8009375 8.65265625 15.1409375 7.33265625 14.4609375 5.97265625 C13.4709375 5.97265625 12.4809375 5.97265625 11.4609375 5.97265625 Z M-3.6015625 16.53515625 C-4.23900391 16.76267578 -4.87644531 16.99019531 -5.53320312 17.22460938 C-7.68131017 18.03199327 -7.68131017 18.03199327 -10.5390625 19.97265625 C-12.05993313 23.55185091 -12.05993313 23.55185091 -12.5390625 26.97265625 C-11.5696875 27.71515625 -10.6003125 28.45765625 -9.6015625 29.22265625 C-1.48510695 36.18900677 4.25093514 45.73767168 9.4609375 54.97265625 C12.77482459 53.92885481 13.51800411 52.87525775 15.3125 49.8125 C15.91960409 48.51908983 16.5100869 47.21778056 17.0859375 45.91015625 C17.39007568 45.23637939 17.69421387 44.56260254 18.00756836 43.8684082 C20.16432141 38.95995603 21.82543088 34.32906922 22.4609375 28.97265625 C21.8009375 28.31265625 21.1409375 27.65265625 20.4609375 26.97265625 C20.265625 24.80859375 20.265625 24.80859375 20.3359375 22.34765625 C20.35398438 21.53039062 20.37203125 20.713125 20.390625 19.87109375 C20.41382813 19.24460937 20.43703125 18.618125 20.4609375 17.97265625 C17.56702536 16.31157664 15.65782242 15.77056439 12.3359375 15.97265625 C11.0571875 15.97265625 9.7784375 15.97265625 8.4609375 15.97265625 C7.8009375 15.31265625 7.1409375 14.65265625 6.4609375 13.97265625 C2.72260733 13.97265625 -0.19000535 15.16428639 -3.6015625 16.53515625 Z M26.4609375 18.97265625 C24.9759375 20.95265625 24.9759375 20.95265625 23.4609375 22.97265625 C24.4509375 24.45765625 24.4509375 24.45765625 25.4609375 25.97265625 C26.7809375 25.64265625 28.1009375 25.31265625 29.4609375 24.97265625 C29.7909375 23.65265625 30.1209375 22.33265625 30.4609375 20.97265625 C29.1409375 20.31265625 27.8209375 19.65265625 26.4609375 18.97265625 Z M-21.5390625 19.97265625 C-21.8690625 21.62265625 -22.1990625 23.27265625 -22.5390625 24.97265625 C-20.0640625 25.46765625 -20.0640625 25.46765625 -17.5390625 25.97265625 C-17.2090625 24.32265625 -16.8790625 22.67265625 -16.5390625 20.97265625 C-18.1890625 20.64265625 -19.8390625 20.31265625 -21.5390625 19.97265625 Z M-35.5390625 41.97265625 C-35.04235752 44.02015761 -35.04235752 44.02015761 -33.5390625 45.97265625 C-30.39382001 46.87378564 -30.39382001 46.87378564 -26.6015625 47.28515625 C-17.3778996 48.68446122 -9.01157727 51.83867521 -0.36987305 55.26416016 C1.22302274 55.88058682 2.84057675 56.432536 4.4609375 56.97265625 C1.00583461 47.6472329 -5.82095904 36.01923319 -14.54296875 30.765625 C-24.88730381 26.65623162 -29.95281653 34.34098483 -35.5390625 41.97265625 Z M27.4609375 30.97265625 C27.12098755 31.78887451 27.12098755 31.78887451 26.77416992 32.62158203 C25.73443034 35.11451868 24.6914605 37.60609167 23.6484375 40.09765625 C23.29201172 40.95359375 22.93558594 41.80953125 22.56835938 42.69140625 C21.05324288 46.3054456 19.52851998 49.84131383 17.734375 53.328125 C16.11012122 56.7011919 15.70773424 58.77579181 16.21484375 62.45703125 C19.64341445 69.37865986 28.19448409 73.79502065 34.4609375 77.97265625 C38.50696095 61.25872607 38.62565391 46.63896489 30.4609375 30.97265625 C29.4709375 30.97265625 28.4809375 30.97265625 27.4609375 30.97265625 Z M-43.5390625 44.97265625 C-44.1990625 46.29265625 -44.8590625 47.61265625 -45.5390625 48.97265625 C-44.5490625 49.96265625 -43.5590625 50.95265625 -42.5390625 51.97265625 C-41.2190625 51.31265625 -39.8990625 50.65265625 -38.5390625 49.97265625 C-38.8690625 48.65265625 -39.1990625 47.33265625 -39.5390625 45.97265625 C-40.8590625 45.64265625 -42.1790625 45.31265625 -43.5390625 44.97265625 Z M-80.5390625 47.97265625 C-81.1990625 49.29265625 -81.8590625 50.61265625 -82.5390625 51.97265625 C-81.5490625 52.96265625 -80.5590625 53.95265625 -79.5390625 54.97265625 C-78.5490625 54.64265625 -77.5590625 54.31265625 -76.5390625 53.97265625 C-75.62477911 52.06556782 -75.62477911 52.06556782 -75.5390625 49.97265625 C-76.1990625 49.31265625 -76.8590625 48.65265625 -77.5390625 47.97265625 C-78.5290625 47.97265625 -79.5190625 47.97265625 -80.5390625 47.97265625 Z M-62.1015625 49.59765625 C-64.05255859 49.77167969 -64.05255859 49.77167969 -66.04296875 49.94921875 C-70.50783684 51.25625276 -71.29729491 53.01779188 -73.5390625 56.97265625 C-74.5290625 57.63265625 -75.5190625 58.29265625 -76.5390625 58.97265625 C-77.97985585 71.93979639 -72.11472532 84.70617871 -64.375 94.79296875 C-62.50044511 96.96745242 -60.68413046 99.06428545 -58.5390625 100.97265625 C-57.8790625 100.97265625 -57.2190625 100.97265625 -56.5390625 100.97265625 C-56.51328125 99.65394531 -56.4875 98.33523437 -56.4609375 96.9765625 C-56.09704326 84.10049011 -55.31145121 71.13432417 -49.88671875 59.2421875 C-48.27931613 55.34248896 -48.62774644 53.03215507 -49.5390625 48.97265625 C-53.76412641 48.89124847 -57.8977373 49.17184675 -62.1015625 49.59765625 Z M-34.5390625 49.97265625 C-34.7040625 50.57078125 -34.8690625 51.16890625 -35.0390625 51.78515625 C-36.5390625 53.97265625 -36.5390625 53.97265625 -40.3515625 54.91015625 C-43.5791117 55.97038566 -44.39655107 56.72139546 -46.10546875 59.734375 C-47.42108415 63.11570293 -48.53489433 66.48664154 -49.5390625 69.97265625 C-49.77367187 70.76414062 -50.00828125 71.555625 -50.25 72.37109375 C-52.46018035 80.98759396 -53.78833451 91.29689279 -51.5390625 99.97265625 C-49.66634118 102.4133267 -49.66634118 102.4133267 -46.5390625 102.97265625 C-33.29898462 100.36805077 -20.27487918 90.89254511 -10.5390625 81.97265625 C-9.96929687 81.46653809 -9.39953125 80.96041992 -8.8125 80.43896484 C-6.96684344 78.78818213 -5.15632557 77.10547296 -3.3515625 75.41015625 C-2.7738208 74.89227539 -2.1960791 74.37439453 -1.60083008 73.84082031 C0.7161528 71.58904995 2.28502309 70.04566217 2.81884766 66.78955078 C2.86283721 64.33565845 2.86283721 64.33565845 2.4609375 60.97265625 C-15.36196558 52.91717269 -15.36196558 52.91717269 -34.5390625 49.97265625 Z M7.4609375 59.97265625 C6.7794552 61.86444828 6.7794552 61.86444828 6.4609375 63.97265625 C7.1209375 64.63265625 7.7809375 65.29265625 8.4609375 65.97265625 C10.55384907 65.88693964 10.55384907 65.88693964 12.4609375 64.97265625 C12.7909375 63.98265625 13.1209375 62.99265625 13.4609375 61.97265625 C13.1309375 61.31265625 12.8009375 60.65265625 12.4609375 59.97265625 C10.8109375 59.97265625 9.1609375 59.97265625 7.4609375 59.97265625 Z M14.4609375 68.97265625 C14.9559375 74.91265625 14.9559375 74.91265625 15.4609375 80.97265625 C14.4709375 80.97265625 13.4809375 80.97265625 12.4609375 80.97265625 C11.8009375 77.67265625 11.1409375 74.37265625 10.4609375 70.97265625 C5.03360012 72.05812373 4.59998755 72.45154517 1.3359375 76.47265625 C-10.528251 90.21322382 -27.27630406 101.21840344 -44.5390625 106.97265625 C-44.8690625 107.96265625 -45.1990625 108.95265625 -45.5390625 109.97265625 C-43.64573716 110.79098347 -41.74928517 111.60207893 -39.8515625 112.41015625 C-38.79582031 112.86261719 -37.74007812 113.31507812 -36.65234375 113.78125 C-25.45760996 118.06530747 -10.65264642 117.1661359 0.4609375 112.97265625 C5.46581176 110.43083885 6.34371777 108.12762604 8.4609375 102.97265625 C9.13511719 102.52277344 9.80929688 102.07289062 10.50390625 101.609375 C12.72107537 100.09155187 12.72107537 100.09155187 13.0703125 97.2734375 C13.11671875 96.28730469 13.163125 95.30117187 13.2109375 94.28515625 C13.29601562 92.79435547 13.29601562 92.79435547 13.3828125 91.2734375 C13.42148438 90.13455078 13.42148438 90.13455078 13.4609375 88.97265625 C14.4509375 88.97265625 15.4409375 88.97265625 16.4609375 88.97265625 C16.9559375 94.91265625 16.9559375 94.91265625 17.4609375 100.97265625 C21.8189222 98.7936639 23.2751747 97.01175316 26.1484375 93.16015625 C26.93605469 92.12246094 27.72367187 91.08476563 28.53515625 90.015625 C30.96051809 86.25981135 30.96051809 86.25981135 31.4609375 81.97265625 C27.00408342 76.37326119 20.82400047 72.15418773 14.4609375 68.97265625 Z M-55.5390625 104.97265625 C-56.2205448 106.86444828 -56.2205448 106.86444828 -56.5390625 108.97265625 C-55.8790625 109.63265625 -55.2190625 110.29265625 -54.5390625 110.97265625 C-52.44615093 110.88693964 -52.44615093 110.88693964 -50.5390625 109.97265625 C-50.2090625 108.98265625 -49.8790625 107.99265625 -49.5390625 106.97265625 C-49.8690625 106.31265625 -50.1990625 105.65265625 -50.5390625 104.97265625 C-52.1890625 104.97265625 -53.8390625 104.97265625 -55.5390625 104.97265625 Z M12.4609375 104.97265625 C11.8009375 106.29265625 11.1409375 107.61265625 10.4609375 108.97265625 C11.4509375 109.96265625 12.4409375 110.95265625 13.4609375 111.97265625 C14.4509375 111.64265625 15.4409375 111.31265625 16.4609375 110.97265625 C17.37522089 109.06556782 17.37522089 109.06556782 17.4609375 106.97265625 C16.8009375 106.31265625 16.1409375 105.65265625 15.4609375 104.97265625 C14.4709375 104.97265625 13.4809375 104.97265625 12.4609375 104.97265625 Z " fill="#EF7A2E" transform="translate(86.5390625,5.02734375)"/>
</svg>
