<?xml version="1.0" encoding="UTF-8"?>
<svg version="1.1" xmlns="http://www.w3.org/2000/svg" width="128" height="128">
<path d="M0 0 C11.53339188 6.39656064 20.10623391 16.17578541 23.8603363 28.88279724 C27.78933559 48.26682801 26.36287564 69.08216283 25.27830505 88.69920349 C25.23607252 89.47258875 25.19383999 90.24597401 25.15032768 91.04279518 C25.02125113 93.23667772 24.87028787 95.42766169 24.70872498 97.61936951 C24.61886826 98.85743851 24.52901154 100.09550751 24.43643188 101.37109375 C23.4789709 107.20748476 21.5708633 112.05549405 16.8603363 115.88279724 C13.34308082 117.05521574 10.53494876 117.03146165 6.82200623 117.05979919 C6.10944168 117.06637039 5.39687714 117.07294159 4.66271973 117.07971191 C2.30541373 117.09941659 -0.05182866 117.11110099 -2.40919495 117.12107849 C-3.61844918 117.12719178 -3.61844918 117.12719178 -4.8521328 117.13342857 C-9.11895363 117.154277 -13.38574242 117.16858415 -17.65260315 117.17796326 C-22.05433229 117.1890267 -26.45555577 117.22342898 -30.85710621 117.26313496 C-34.24666266 117.28930754 -37.63609869 117.29765562 -41.0257473 117.30124474 C-42.64802657 117.30610886 -44.27030052 117.31771799 -45.89248085 117.33628273 C-48.16644256 117.36068962 -50.43909682 117.35970711 -52.71315002 117.35276794 C-54.00537979 117.35863419 -55.29760956 117.36450043 -56.6289978 117.37054443 C-60.77931765 116.79392823 -62.90718409 115.50456081 -66.1396637 112.88279724 C-68.21825129 109.76491585 -68.39172637 109.07199394 -68.40708923 105.5315094 C-68.4156192 104.64271088 -68.42414917 103.75391235 -68.43293762 102.83818054 C-68.43203125 101.86564331 -68.43112488 100.89310608 -68.43019104 99.89109802 C-68.43690826 98.86481293 -68.44362549 97.83852783 -68.45054626 96.78114319 C-68.46958276 93.38008312 -68.47345334 89.9792198 -68.4756012 86.57810974 C-68.48202524 84.21782855 -68.4887533 81.85754817 -68.49577332 79.49726868 C-68.50776027 74.54584405 -68.51145268 69.59448927 -68.51026917 64.64305115 C-68.51006591 58.29520597 -68.53736897 51.94780817 -68.57181358 45.60006905 C-68.59404029 40.72391194 -68.598108 35.8478632 -68.59704971 30.97166061 C-68.59941201 28.63126458 -68.60827073 26.29086584 -68.62371445 23.95051956 C-68.64328805 20.67778869 -68.6375697 17.40603174 -68.62550354 14.13328552 C-68.63674255 13.16479675 -68.64798157 12.19630798 -68.65956116 11.19847107 C-68.62019009 7.00070247 -68.52685085 4.53863078 -66.35929871 0.86714172 C-52.81486633 -11.24152458 -15.1783189 -7.08713338 0 0 Z M-61.1396637 5.88279724 C-62.79070532 8.64535779 -63.39073088 10.69504815 -63.40036011 13.89877319 C-63.40744492 14.68797653 -63.41452972 15.47717987 -63.42182922 16.29029846 C-63.41935181 17.14703156 -63.41687439 18.00376465 -63.4143219 18.88645935 C-63.41943283 19.79584763 -63.42454376 20.7052359 -63.42980957 21.6421814 C-63.44370948 24.64823488 -63.44274852 27.65405919 -63.44044495 30.66014099 C-63.44433159 32.74995001 -63.44866619 34.83975823 -63.45343018 36.92956543 C-63.4608932 41.31007956 -63.46060044 45.69051309 -63.45533752 50.07102966 C-63.44954213 55.68453283 -63.46647532 61.29770613 -63.4896822 66.91115475 C-63.50441377 71.22714161 -63.50529203 75.54304892 -63.50217247 79.85905647 C-63.50268595 81.92870805 -63.50792865 83.99836405 -63.51798439 86.06799126 C-63.53032046 88.96212581 -63.52357403 91.85561636 -63.51197815 94.7497406 C-63.51962189 95.60444946 -63.52726562 96.45915833 -63.53514099 97.33976746 C-63.49406455 101.97792622 -63.25073569 105.18174791 -60.1396637 108.88279724 C-56.82391106 111.29431056 -53.627199 111.14709508 -49.61451721 111.17332458 C-48.64545441 111.18340042 -48.64545441 111.18340042 -47.65681458 111.19367981 C-45.52732086 111.21263293 -43.39814268 111.21658238 -41.26856995 111.21873474 C-39.78410717 111.2251639 -38.29964567 111.23189235 -36.81518555 111.23890686 C-33.70578575 111.2508724 -30.596497 111.25458837 -27.48707581 111.25340271 C-23.50782896 111.25319941 -19.5292954 111.28051554 -15.55021763 111.31494713 C-12.48494207 111.33721122 -9.41983842 111.34124044 -6.35449028 111.34018326 C-4.88769507 111.34253943 -3.42089514 111.35136397 -1.95417976 111.36684799 C0.09965032 111.3865025 2.15193901 111.38067464 4.20579529 111.36863708 C5.37287521 111.37148712 6.53995514 111.37433716 7.74240112 111.37727356 C11.5079889 110.7800854 13.158506 109.51923234 15.8603363 106.88279724 C17.32074858 103.96197269 16.97962427 101.39978355 16.97386169 98.13816833 C16.97400772 97.44537277 16.97415375 96.75257721 16.9743042 96.03878784 C16.97360649 93.74457183 16.96582072 91.4504366 16.95799255 89.15623474 C16.95612787 87.56725611 16.9547042 85.9782769 16.95370483 84.38929749 C16.94988362 80.20370399 16.94005669 76.01814511 16.92900085 71.83256531 C16.91877825 67.56285571 16.91420539 63.29314054 16.90916443 59.02342224 C16.89843408 50.64319801 16.88136239 42.26300193 16.8603363 33.88279724 C16.28589783 33.86821472 15.71145935 33.8536322 15.11961365 33.83860779 C12.49087934 33.76365999 9.86335078 33.6671573 7.2353363 33.57029724 C6.33170349 33.54773865 5.42807068 33.52518005 4.49705505 33.50193787 C-0.75114145 33.29124385 -4.60010206 32.796462 -9.1396637 29.88279724 C-12.41192324 26.27202809 -13.24280295 22.99810246 -13.45606995 18.21482849 C-13.49796448 17.32215271 -13.53985901 16.42947693 -13.58302307 15.50975037 C-13.62233948 14.58098083 -13.66165588 13.6522113 -13.7021637 12.69529724 C-13.74534729 11.75492615 -13.78853088 10.81455505 -13.83302307 9.84568787 C-13.93905034 7.5248687 -14.04111398 5.20394399 -14.1396637 2.88279724 C-20.02952833 2.80854085 -25.91911936 2.75414456 -31.80934143 2.71800232 C-33.81231942 2.70293259 -35.8152645 2.68247314 -37.81813049 2.65647888 C-40.70013051 2.62001597 -43.58169354 2.60305264 -46.46388245 2.58982849 C-47.35677475 2.57434464 -48.24966705 2.55886078 -49.1696167 2.54290771 C-53.94589715 2.54162005 -57.34784946 2.63260529 -61.1396637 5.88279724 Z M-7.1396637 8.88279724 C-7.82346345 17.30250132 -7.82346345 17.30250132 -5.4521637 25.19529724 C-0.2022419 27.86978571 5.08350634 27.26340829 10.8603363 26.88279724 C7.1301958 22.34613987 3.18980065 18.10338602 -0.9521637 13.94529724 C-1.44434387 13.44860535 -1.93652405 12.95191345 -2.44361877 12.44017029 C-4.44595637 9.9694792 -4.44595637 9.9694792 -7.1396637 8.88279724 Z " fill="#EF7B2E" transform="translate(68.13966369628906,3.1172027587890625)"/>
<path d="M0 0 C1.17792114 -0.00315216 2.35584229 -0.00630432 3.56945801 -0.009552 C4.85171265 -0.00752777 6.13396729 -0.00550354 7.45507812 -0.00341797 C8.76085815 -0.00437469 10.06663818 -0.00533142 11.4119873 -0.00631714 C14.17945535 -0.0077938 16.94689116 -0.00564058 19.71435547 -0.00097656 C23.26895462 0.00472073 26.82347827 0.00144155 30.37807465 -0.00454903 C33.75791526 -0.00902294 37.13773536 -0.00589433 40.51757812 -0.00341797 C41.79983276 -0.0054422 43.0820874 -0.00746643 44.40319824 -0.009552 C46.17007996 -0.00482376 46.17007996 -0.00482376 47.97265625 0 C49.0155481 0.00079559 50.05843994 0.00159119 51.13293457 0.00241089 C53.48632812 0.12939453 53.48632812 0.12939453 54.48632812 1.12939453 C54.61132812 3.62939453 54.61132812 3.62939453 54.48632812 6.12939453 C52.7457968 7.86992585 50.3562981 7.26597883 47.98852539 7.2746582 C46.22648521 7.28422798 46.22648521 7.28422798 44.42884827 7.29399109 C42.51017189 7.29566032 42.51017189 7.29566032 40.55273438 7.29736328 C39.24932602 7.30069168 37.94591766 7.30402008 36.60301208 7.30744934 C33.83974378 7.31344653 31.07650678 7.31528865 28.31323242 7.31469727 C24.76764339 7.31459563 21.22225455 7.32824684 17.67671299 7.34546947 C14.30205013 7.35924466 10.92742503 7.35867776 7.55273438 7.35986328 C6.27564102 7.3670488 4.99854767 7.37423431 3.68275452 7.38163757 C1.9159861 7.37702263 1.9159861 7.37702263 0.11352539 7.37231445 C-1.44748146 7.37445198 -1.44748146 7.37445198 -3.0400238 7.37663269 C-5.51367188 7.12939453 -5.51367188 7.12939453 -7.51367188 5.12939453 C-6.70366658 -0.21664042 -5.10234532 0.00389244 0 0 Z " fill="#EF7B2F" transform="translate(21.513671875,91.87060546875)"/>
<path d="M0 0 C1.62215675 0.00333092 1.62215675 0.00333092 3.27708435 0.00672913 C4.49827469 0.00680466 5.71946503 0.00688019 6.97766113 0.00695801 C8.32022644 0.0120654 9.66279134 0.01728141 11.00535583 0.02259827 C12.37156116 0.02446252 13.73776716 0.02588639 15.10397339 0.02688599 C18.70596654 0.03071058 22.30791959 0.04054035 25.90989685 0.05158997 C29.58298703 0.06180536 33.25608368 0.06638388 36.92918396 0.07142639 C44.14079081 0.08216268 51.35236459 0.09923838 58.56394958 0.12025452 C58.60667059 1.78637357 58.60458791 3.45408337 58.56394958 5.12025452 C57.56394958 6.12025452 57.56394958 6.12025452 55.16586304 6.24050903 C54.10219009 6.23828842 53.03851715 6.23606781 51.94261169 6.23377991 C50.74144211 6.23370438 49.54027252 6.23362885 48.30270386 6.23355103 C46.99543839 6.22838974 45.68817291 6.22322845 44.34129333 6.21791077 C42.99750826 6.2160465 41.65372252 6.21462264 40.30993652 6.21362305 C36.76712682 6.20979853 33.22435789 6.19996883 29.68156433 6.18891907 C26.06879732 6.17870351 22.45602374 6.17412512 18.84324646 6.16908264 C11.75013079 6.1583465 4.65704284 6.14127088 -2.43605042 6.12025452 C-2.81823809 4.46410794 -3.15000143 2.79568427 -3.43605042 1.12025452 C-2.43605042 0.12025452 -2.43605042 0.12025452 0 0 Z " fill="#EF7B2E" transform="translate(17.436050415039063,70.87974548339844)"/>
<path d="M0 0 C11.55 0 23.1 0 35 0 C35.66 1.32 36.32 2.64 37 4 C35.96508789 5.47729492 35.96508789 5.47729492 34 7 C31.43616053 7.28595445 29.12030695 7.39698146 26.55859375 7.36328125 C25.47337181 7.36402901 25.47337181 7.36402901 24.3662262 7.36479187 C22.83893075 7.36245389 21.31163128 7.35274153 19.78442383 7.33618164 C17.44252227 7.31255068 15.1017564 7.31562691 12.75976562 7.32226562 C11.27603486 7.31668999 9.7923089 7.30958082 8.30859375 7.30078125 C7.25544228 7.30214836 7.25544228 7.30214836 6.18101501 7.30354309 C1.23104851 7.23104851 1.23104851 7.23104851 -1 5 C-0.67 3.35 -0.34 1.7 0 0 Z " fill="#EF7C2E" transform="translate(15,49)"/>
</svg>
