<?xml version="1.0" encoding="UTF-8"?>
<svg version="1.1" xmlns="http://www.w3.org/2000/svg" width="128" height="128">
<path d="M0 0 C1.68653938 -0.0099852 1.68653938 -0.0099852 3.40715027 -0.02017212 C5.78158945 -0.03027809 8.15605691 -0.03498978 10.53051758 -0.03466797 C14.1451753 -0.03903496 17.75860542 -0.0753615 21.37304688 -0.11328125 C23.68619377 -0.11915119 25.99934642 -0.1231194 28.3125 -0.125 C29.92074394 -0.14655655 29.92074394 -0.14655655 31.56147766 -0.16854858 C38.39390214 -0.12737296 43.37227888 1.03733264 49.35546875 4.3359375 C50.40734375 4.8928125 51.45921875 5.4496875 52.54296875 6.0234375 C59.12809543 11.43787499 63.74469605 19.63242016 64.65649414 28.14697266 C64.79284363 31.27823995 64.81402817 34.3894127 64.79296875 37.5234375 C64.81294922 38.59013672 64.83292969 39.65683594 64.85351562 40.75585938 C64.84866463 48.51259406 64.84866463 48.51259406 62.453125 52.51171875 C58.54993105 55.90611647 55.06666165 55.48397435 50.11376953 55.48120117 C49.26158844 55.48455978 48.40940735 55.4879184 47.53140259 55.49137878 C44.70451412 55.50090462 41.87768479 55.50283277 39.05078125 55.50390625 C37.09024023 55.50711788 35.12969945 55.51048188 33.16915894 55.51399231 C29.05498702 55.5199878 24.94083613 55.5218318 20.82666016 55.52124023 C15.55161646 55.52113863 10.27670742 55.53478711 5.00169563 55.55201244 C0.95082987 55.56312496 -3.10000327 55.56515967 -7.15088272 55.56463051 C-9.09575998 55.5658119 -11.04063804 55.57024255 -12.98550034 55.57796288 C-15.70511072 55.58774688 -18.42442798 55.58489091 -21.14404297 55.57885742 C-21.94938477 55.58447693 -22.75472656 55.59009644 -23.58447266 55.59588623 C-30.62625906 55.55613583 -30.62625906 55.55613583 -33.64453125 53.3359375 C-36.77769493 48.63619199 -35.97284104 43.73803909 -35.95703125 38.2109375 C-35.97314453 37.1075 -35.98925781 36.0040625 -36.00585938 34.8671875 C-36.01206117 24.42336355 -34.07775724 15.97832353 -26.64453125 8.3359375 C-18.13579269 1.45880293 -10.73877972 0.02216653 0 0 Z M-23.64453125 14.3359375 C-27.21501371 19.91481635 -29.78102121 24.72317405 -29.7421875 31.44140625 C-29.73896484 32.42431641 -29.73574219 33.40722656 -29.73242188 34.41992188 C-29.72404297 35.44408203 -29.71566406 36.46824219 -29.70703125 37.5234375 C-29.70251953 38.55919922 -29.69800781 39.59496094 -29.69335938 40.66210938 C-29.68157135 43.22011016 -29.6651164 45.77799483 -29.64453125 48.3359375 C-26.51294765 49.9017293 -23.17563331 49.47430859 -19.73828125 49.46533203 C-18.51371216 49.46796051 -18.51371216 49.46796051 -17.2644043 49.47064209 C-14.55775851 49.47505413 -11.85117773 49.47212488 -9.14453125 49.46875 C-7.26888008 49.46942323 -5.393229 49.47039341 -3.51757812 49.47164917 C0.4166751 49.47312526 4.35090565 49.47097441 8.28515625 49.46630859 C13.33615931 49.46061136 18.38710924 49.46389084 23.43811035 49.46988106 C27.31217858 49.47348904 31.18623414 49.47234699 35.06030273 49.46975327 C36.92309577 49.46908466 38.78588994 49.46991013 40.64868164 49.47223282 C43.2488918 49.47476321 45.84901508 49.47091324 48.44921875 49.46533203 C49.61191284 49.46836838 49.61191284 49.46836838 50.7980957 49.47146606 C54.70499281 49.53360863 54.70499281 49.53360863 58.35546875 48.3359375 C58.47313591 44.85706278 58.5432019 41.3787098 58.60546875 37.8984375 C58.63898438 36.92455078 58.6725 35.95066406 58.70703125 34.94726562 C58.81481367 26.89053002 56.84099477 21.38642434 52.66796875 14.5859375 C47.53233355 9.58910325 40.94682934 6.24543212 33.75146484 6.15893555 C32.81974457 6.14610031 31.88802429 6.13326508 30.92807007 6.12004089 C29.92184601 6.11265396 28.91562195 6.10526703 27.87890625 6.09765625 C26.839086 6.0895845 25.79926575 6.08151276 24.72793579 6.07319641 C22.52388168 6.05935877 20.31980617 6.04863519 18.11572266 6.04077148 C14.76422753 6.02361036 11.41373222 5.97972647 8.0625 5.93554688 C5.91797598 5.92541503 3.7734436 5.91690047 1.62890625 5.91015625 C0.63482758 5.89264816 -0.3592511 5.87514008 -1.38345337 5.85710144 C-9.84176074 5.88313183 -17.59805634 8.12150495 -23.64453125 14.3359375 Z " fill="#EF7A2E" transform="translate(49.64453125,68.6640625)"/>
<path d="M0 0 C7.27837823 4.88938674 12.33560991 11.30151142 14.375 19.875 C16.09843654 30.81798544 13.07833014 38.67155667 7.1875 47.8125 C0.80273483 54.19726517 -6.73360839 57.27300462 -15.75 57.375 C-23.85458808 57.24676285 -29.52532264 55.27190443 -36.25 50.875 C-42.95374447 43.86653987 -46.83382244 36.06254622 -47.0625 26.34375 C-46.63505296 16.83305343 -42.9542359 8.95343769 -35.96484375 2.46875 C-25.0965492 -5.65546223 -11.89911796 -6.03862424 0 0 Z M-37 13 C-40.61570072 19.62878465 -41.81908011 25.72975258 -39.9375 33 C-37.48379645 40.13107594 -33.98773358 45.21068076 -27.375 49 C-20.71240659 51.94114484 -14.19368032 52.28763706 -7.2265625 50.1484375 C0.55055401 46.71529598 4.87759044 41.38985793 7.9375 33.5625 C9.73287665 27.34280232 8.98424924 21.77572704 6.4375 15.875 C2.8650292 9.41359974 -2.96026007 4.63129064 -10.0078125 2.4375 C-20.68829507 0.09198226 -30.48253634 4.39476942 -37 13 Z " fill="#EF7B2E" transform="translate(80,8)"/>
</svg>
