<?xml version="1.0" encoding="UTF-8"?>
<svg version="1.1" xmlns="http://www.w3.org/2000/svg" width="128" height="128">
<path d="M0 0 C9.55688873 8.15867122 16.93829787 18.41694059 19.33984375 30.9609375 C19.40727723 33.04328342 19.42498847 35.12762307 19.40234375 37.2109375 C19.39332031 38.28859375 19.38429688 39.36625 19.375 40.4765625 C19.36339844 41.29640625 19.35179688 42.11625 19.33984375 42.9609375 C20.1184375 43.23035156 20.89703125 43.49976563 21.69921875 43.77734375 C25.29530334 45.38919823 26.41432983 47.59128814 28.33984375 50.9609375 C30.04092442 56.06417951 29.90505622 60.27967184 27.65234375 65.1484375 C26.15168777 67.96752694 25.38126389 68.93300299 22.65234375 70.7734375 C19.33043519 73.91578343 19.85632831 76.72800236 19.62109375 81.14453125 C19.09916797 86.37103802 17.26406189 90.1841393 13.40234375 93.75 C8.34646523 97.67202341 4.82628301 99.09013964 -1.640625 99.05859375 C-2.80400391 99.05537109 -3.96738281 99.05214844 -5.16601562 99.04882812 C-6.38095703 99.04044922 -7.59589844 99.03207031 -8.84765625 99.0234375 C-10.07419922 99.01892578 -11.30074219 99.01441406 -12.56445312 99.00976562 C-15.59640293 98.99796815 -18.62825531 98.98150671 -21.66015625 98.9609375 C-21.76328125 99.5796875 -21.86640625 100.1984375 -21.97265625 100.8359375 C-22.66015625 102.9609375 -22.66015625 102.9609375 -25.66015625 104.9609375 C-28.51919789 105.20904808 -31.23900003 105.33113707 -34.09765625 105.3359375 C-34.86142578 105.36042969 -35.62519531 105.38492188 -36.41210938 105.41015625 C-40.08926008 105.42935808 -42.06949221 105.36299387 -45.16796875 103.25390625 C-46.91872024 100.56361536 -47.16978077 99.08634134 -47.09765625 95.8984375 C-47.09636719 95.04121094 -47.09507813 94.18398437 -47.09375 93.30078125 C-46.56892147 90.46859845 -45.89541383 89.72755745 -43.66015625 87.9609375 C-41.62304688 87.57275391 -41.62304688 87.57275391 -39.31640625 87.5625 C-38.48238281 87.55863281 -37.64835937 87.55476563 -36.7890625 87.55078125 C-35.92152344 87.56238281 -35.05398437 87.57398437 -34.16015625 87.5859375 C-33.29261719 87.57433594 -32.42507812 87.56273438 -31.53125 87.55078125 C-30.69722656 87.55464844 -29.86320312 87.55851562 -29.00390625 87.5625 C-28.24271484 87.56588379 -27.48152344 87.56926758 -26.69726562 87.57275391 C-24.14045523 88.05996969 -23.22848128 88.91825025 -21.66015625 90.9609375 C-21.66015625 91.6209375 -21.66015625 92.2809375 -21.66015625 92.9609375 C-17.76348378 92.87985948 -13.86835321 92.76703138 -9.97265625 92.6484375 C-8.86986328 92.62587891 -7.76707031 92.60332031 -6.63085938 92.58007812 C-5.56416016 92.54462891 -4.49746094 92.50917969 -3.3984375 92.47265625 C-1.9295105 92.43338013 -1.9295105 92.43338013 -0.4309082 92.39331055 C2.75118844 91.89674758 4.66013546 90.69670029 7.33984375 88.9609375 C7.99984375 88.9609375 8.65984375 88.9609375 9.33984375 88.9609375 C11.57924689 84.16221649 12.39593015 79.13237903 13.33984375 73.9609375 C12.04046875 73.9815625 10.74109375 74.0021875 9.40234375 74.0234375 C8.04818742 74.04493204 6.69228292 74.03241949 5.33984375 73.9609375 C3.43134427 72.05243802 4.20924742 68.64614976 4.20703125 66.1171875 C4.20607452 65.43289673 4.2051178 64.74860596 4.20413208 64.0435791 C4.20345045 62.59431873 4.20530352 61.14505532 4.20947266 59.69580078 C4.21482123 57.47030822 4.20952715 55.24501749 4.203125 53.01953125 C4.20378578 51.61458289 4.20506695 50.20963465 4.20703125 48.8046875 C4.20815918 47.51755859 4.20928711 46.23042969 4.21044922 44.90429688 C4.33984375 41.9609375 4.33984375 41.9609375 5.33984375 40.9609375 C8.01043226 40.81978589 10.66416613 40.91846643 13.33984375 40.9609375 C10.80988143 25.95870482 5.85143694 12.92580296 -6.84765625 3.7109375 C-18.68347813 -3.55736922 -31.59244259 -4.87163836 -45.09375 -2.4140625 C-56.21195322 0.82452985 -65.67476114 8.05299886 -71.66015625 17.9609375 C-75.46814207 25.37381657 -77.57305944 32.71847217 -78.66015625 40.9609375 C-77.36078125 40.9403125 -76.06140625 40.9196875 -74.72265625 40.8984375 C-73.36849992 40.87694296 -72.01259542 40.88945551 -70.66015625 40.9609375 C-68.75165677 42.86943698 -69.52955992 46.27572524 -69.52734375 48.8046875 C-69.52590866 49.83112366 -69.52590866 49.83112366 -69.52444458 50.8782959 C-69.52376295 52.32755627 -69.52561602 53.77681968 -69.52978516 55.22607422 C-69.53513373 57.45156678 -69.52983965 59.67685751 -69.5234375 61.90234375 C-69.52409828 63.30729211 -69.52537945 64.71224035 -69.52734375 66.1171875 C-69.52847168 67.40431641 -69.52959961 68.69144531 -69.53076172 70.01757812 C-69.66015625 72.9609375 -69.66015625 72.9609375 -70.66015625 73.9609375 C-77.10448898 74.4820966 -83.23147055 74.89673463 -88.66015625 70.9609375 C-92.54464422 66.86064464 -94.40086233 63.25136715 -95.03515625 57.6484375 C-94.47650332 52.15501701 -92.58327401 47.77093069 -88.53515625 43.9609375 C-86.66015625 42.9609375 -86.66015625 42.9609375 -84.66015625 42.9609375 C-84.72976562 41.87039062 -84.72976562 41.87039062 -84.80078125 40.7578125 C-85.29245433 27.06120541 -80.49397544 16.15867902 -71.78125 5.70703125 C-52.86704129 -14.42991418 -21.79579395 -16.70690814 0 0 Z M10.33984375 46.9609375 C10.33984375 53.8909375 10.33984375 60.8209375 10.33984375 67.9609375 C16.96753302 67.55354619 16.96753302 67.55354619 20.27734375 64.8984375 C22.60841154 61.57843185 23.04152257 59.85234198 22.75 55.890625 C22.05323478 52.61251055 20.88084444 51.12078808 18.33984375 48.9609375 C15.69984375 48.3009375 13.05984375 47.6409375 10.33984375 46.9609375 Z M-86.59765625 51.6484375 C-88.18195323 55.09661327 -88.42446504 58.2922553 -87.66015625 61.9609375 C-85.74348958 65.04427083 -85.74348958 65.04427083 -82.66015625 66.9609375 C-80.35015625 67.2909375 -78.04015625 67.6209375 -75.66015625 67.9609375 C-75.66015625 61.0309375 -75.66015625 54.1009375 -75.66015625 46.9609375 C-79.76481803 46.9609375 -83.55402685 48.99753447 -86.59765625 51.6484375 Z M-40.66015625 93.9609375 C-40.66015625 95.6109375 -40.66015625 97.2609375 -40.66015625 98.9609375 C-36.37015625 98.9609375 -32.08015625 98.9609375 -27.66015625 98.9609375 C-27.66015625 97.3109375 -27.66015625 95.6609375 -27.66015625 93.9609375 C-31.95015625 93.9609375 -36.24015625 93.9609375 -40.66015625 93.9609375 Z " fill="#EF7B2E" transform="translate(96.66015625,17.0390625)"/>
<path d="M0 0 C7.97691483 5.18961448 12.86659212 11.13150093 15.63671875 20.359375 C17.32121435 28.88394364 15.56047073 37.74265854 10.8984375 45.06640625 C6.7633294 50.366863 0.40504878 54.33305656 -5.9765625 56.31640625 C-8.66505068 56.48044017 -11.23190121 56.55122386 -13.9140625 56.50390625 C-14.60435547 56.50326172 -15.29464844 56.50261719 -16.00585938 56.50195312 C-19.16189228 56.47502962 -22.09461365 56.29319716 -25.1953125 55.68359375 C-28.41315683 55.25876599 -29.71066735 55.75116321 -32.5390625 57.25390625 C-35.8604509 58.88654818 -38.19915163 59.8038141 -41.9765625 59.31640625 C-42.05361025 54.53944554 -41.97097405 50.04531458 -41.2890625 45.31640625 C-40.76903403 40.76967082 -41.6605004 37.74596161 -43.2578125 33.5234375 C-45.7591049 25.84283856 -43.49761772 18.31721399 -39.9765625 11.31640625 C-31.05904471 -1.59564131 -14.58907483 -7.78264773 0 0 Z M-34.23046875 13.95703125 C-37.8576754 19.97288618 -37.74896329 26.48768112 -36.9765625 33.31640625 C-36.31938984 35.32579028 -36.31938984 35.32579028 -35.4140625 37.00390625 C-33.40698433 41.62891246 -34.16234626 45.44091864 -34.9765625 50.31640625 C-33.99816406 50.06503906 -33.99816406 50.06503906 -33 49.80859375 C-27.45043233 48.51533167 -24.3822548 48.28927164 -18.9765625 50.31640625 C-11.94612346 51.18764826 -5.9265818 50.27206723 0.0234375 46.31640625 C5.0476808 41.72363422 8.546155 37.19495457 9.39453125 30.30078125 C9.54919005 22.76798789 8.95985406 17.21631617 4.0234375 11.31640625 C-1.30167897 6.24278399 -6.42911573 3.66533544 -13.7890625 2.94140625 C-21.77053743 3.17032044 -29.44184697 7.69154481 -34.23046875 13.95703125 Z " fill="#EF7A2E" transform="translate(77.9765625,35.68359375)"/>
<path d="M0 0 C0.66209473 -0.00095673 1.32418945 -0.00191345 2.00634766 -0.00289917 C3.40852961 -0.00358076 4.8107147 -0.00172792 6.21289062 0.00244141 C8.36595713 0.00779004 10.51881502 0.0024958 12.671875 -0.00390625 C14.03125046 -0.00324546 15.3906258 -0.00196429 16.75 0 C18.61785156 0.00169189 18.61785156 0.00169189 20.5234375 0.00341797 C23.375 0.1328125 23.375 0.1328125 24.375 1.1328125 C24.375 2.7828125 24.375 4.4328125 24.375 6.1328125 C13.815 6.1328125 3.255 6.1328125 -7.625 6.1328125 C-7.625 -1.1334638 -6.61487024 0.00599173 0 0 Z " fill="#EF7B2F" transform="translate(55.625,53.8671875)"/>
<path d="M0 0 C5.94 0 11.88 0 18 0 C18.33 1.65 18.66 3.3 19 5 C18 6 18 6 16.23413086 6.11352539 C15.48526611 6.10828857 14.73640137 6.10305176 13.96484375 6.09765625 C13.15595703 6.09443359 12.34707031 6.09121094 11.51367188 6.08789062 C10.66353516 6.07951172 9.81339844 6.07113281 8.9375 6.0625 C8.08349609 6.05798828 7.22949219 6.05347656 6.34960938 6.04882812 C4.23304337 6.03700373 2.11651315 6.01906769 0 6 C0 4.02 0 2.04 0 0 Z " fill="#EF792E" transform="translate(48,65)"/>
</svg>
