<?xml version="1.0" encoding="UTF-8"?>
<svg version="1.1" xmlns="http://www.w3.org/2000/svg" width="128" height="128">
<path d="M0 0 C1.1758667 -0.00574036 1.1758667 -0.00574036 2.37548828 -0.01159668 C4.02963549 -0.01431353 5.68382583 -0.0069681 7.33789062 0.00976562 C9.86686162 0.03118108 12.39299214 0.00995903 14.921875 -0.015625 C16.53125626 -0.01298168 18.14063575 -0.00785661 19.75 0 C20.5042627 -0.00809692 21.25852539 -0.01619385 22.03564453 -0.02453613 C25.35794836 0.03466912 27.41081289 0.17030722 30.0736084 2.24084473 C32.2259687 4.9774942 32.38044227 6.25241568 32.39257812 9.6953125 C32.40518677 10.72317871 32.41779541 11.75104492 32.43078613 12.81005859 C32.42268921 13.91430176 32.41459229 15.01854492 32.40625 16.15625 C32.4100769 17.29529785 32.41390381 18.4343457 32.41784668 19.60791016 C32.42056774 22.01530847 32.4131931 24.42273626 32.39648438 26.83007812 C32.37507925 30.51759682 32.39628132 34.20316699 32.421875 37.890625 C32.41923176 40.22917097 32.41410687 42.56771573 32.40625 44.90625 C32.41434692 46.01049316 32.42244385 47.11473633 32.43078613 48.25244141 C32.41817749 49.28030762 32.40556885 50.30817383 32.39257812 51.3671875 C32.38780457 52.72142822 32.38780457 52.72142822 32.38293457 54.10302734 C31.70771167 57.3309855 30.45097236 58.52822446 27.875 60.53125 C25.03396168 60.92917556 22.58817706 61.09296751 19.75 61.0625 C18.96608887 61.0663269 18.18217773 61.07015381 17.37451172 61.07409668 C15.72036451 61.07681353 14.06617417 61.0694681 12.41210938 61.05273438 C9.88313838 61.03131892 7.35700786 61.05254097 4.828125 61.078125 C3.21874374 61.07548168 1.60936425 61.07035661 0 61.0625 C-0.7542627 61.07059692 -1.50852539 61.07869385 -2.28564453 61.08703613 C-5.60794836 61.02783088 -7.66081289 60.89219278 -10.3236084 58.82165527 C-12.4759687 56.0850058 -12.63044227 54.81008432 -12.64257812 51.3671875 C-12.65518677 50.33932129 -12.66779541 49.31145508 -12.68078613 48.25244141 C-12.67268921 47.14819824 -12.66459229 46.04395508 -12.65625 44.90625 C-12.6600769 43.76720215 -12.66390381 42.6281543 -12.66784668 41.45458984 C-12.67056774 39.04719153 -12.6631931 36.63976374 -12.64648438 34.23242188 C-12.62507925 30.54490318 -12.64628132 26.85933301 -12.671875 23.171875 C-12.66923176 20.83332903 -12.66410687 18.49478427 -12.65625 16.15625 C-12.66434692 15.05200684 -12.67244385 13.94776367 -12.68078613 12.81005859 C-12.66817749 11.78219238 -12.65556885 10.75432617 -12.64257812 9.6953125 C-12.63939575 8.79248535 -12.63621338 7.8896582 -12.63293457 6.95947266 C-11.21476958 0.17981919 -5.9210598 -0.0635619 0 0 Z M-6.49023438 5.94726562 C-9.02207864 9.94921302 -8.69671396 13.7623564 -8.65625 18.40625 C-8.6600769 19.36772949 -8.66390381 20.32920898 -8.66784668 21.31982422 C-8.67056602 23.3505966 -8.66320329 25.38140399 -8.64648438 27.41210938 C-8.62507525 30.5203257 -8.64628546 33.62623056 -8.671875 36.734375 C-8.66923173 38.70833843 -8.66410676 40.68230043 -8.65625 42.65625 C-8.66434692 43.58550293 -8.67244385 44.51475586 -8.68078613 45.47216797 C-8.60918357 50.5718927 -8.60918357 50.5718927 -6.49023438 55.11523438 C-3.41632708 56.95551744 -1.32650953 57.04817759 2.25 57.0625 C3.48234375 57.06765625 4.7146875 57.0728125 5.984375 57.078125 C7.26828125 57.06265625 8.5521875 57.0471875 9.875 57.03125 C11.80085938 57.05445312 11.80085938 57.05445312 13.765625 57.078125 C14.99796875 57.07296875 16.2303125 57.0678125 17.5 57.0625 C18.62664062 57.05798828 19.75328125 57.05347656 20.9140625 57.04882812 C23.89775804 56.709467 23.89775804 56.709467 26.24023438 55.11523438 C28.77207864 51.11328698 28.44671396 47.3001436 28.40625 42.65625 C28.4100769 41.69477051 28.41390381 40.73329102 28.41784668 39.74267578 C28.42056602 37.7119034 28.41320329 35.68109601 28.39648438 33.65039062 C28.37507525 30.5421743 28.39628546 27.43626944 28.421875 24.328125 C28.41923173 22.35416157 28.41410676 20.38019957 28.40625 18.40625 C28.41434692 17.47699707 28.42244385 16.54774414 28.43078613 15.59033203 C28.35918357 10.4906073 28.35918357 10.4906073 26.24023438 5.94726562 C23.16632708 4.10698256 21.07650953 4.01432241 17.5 4 C16.26765625 3.99484375 15.0353125 3.9896875 13.765625 3.984375 C11.83976562 4.00757813 11.83976562 4.00757813 9.875 4.03125 C8.59109375 4.01578125 7.3071875 4.0003125 5.984375 3.984375 C4.75203125 3.98953125 3.5196875 3.9946875 2.25 4 C1.12335938 4.00451172 -0.00328125 4.00902344 -1.1640625 4.01367188 C-4.14775804 4.353033 -4.14775804 4.353033 -6.49023438 5.94726562 Z " fill="#EF7B2E" transform="translate(80.125,51.46875)"/>
<path d="M0 0 C1.1758667 -0.00574036 1.1758667 -0.00574036 2.37548828 -0.01159668 C4.02963549 -0.01431353 5.68382583 -0.0069681 7.33789062 0.00976562 C9.86686162 0.03118108 12.39299214 0.00995903 14.921875 -0.015625 C16.53125626 -0.01298168 18.14063575 -0.00785661 19.75 0 C20.5042627 -0.00809692 21.25852539 -0.01619385 22.03564453 -0.02453613 C25.35794836 0.03466912 27.41081289 0.17030722 30.0736084 2.24084473 C32.2259687 4.9774942 32.38044227 6.25241568 32.39257812 9.6953125 C32.40518677 10.72317871 32.41779541 11.75104492 32.43078613 12.81005859 C32.42268921 13.91430176 32.41459229 15.01854492 32.40625 16.15625 C32.4100769 17.29529785 32.41390381 18.4343457 32.41784668 19.60791016 C32.42056774 22.01530847 32.4131931 24.42273626 32.39648438 26.83007812 C32.37507925 30.51759682 32.39628132 34.20316699 32.421875 37.890625 C32.41923176 40.22917097 32.41410687 42.56771573 32.40625 44.90625 C32.41434692 46.01049316 32.42244385 47.11473633 32.43078613 48.25244141 C32.41817749 49.28030762 32.40556885 50.30817383 32.39257812 51.3671875 C32.38780457 52.72142822 32.38780457 52.72142822 32.38293457 54.10302734 C31.70771167 57.3309855 30.45097236 58.52822446 27.875 60.53125 C25.03396168 60.92917556 22.58817706 61.09296751 19.75 61.0625 C18.96608887 61.0663269 18.18217773 61.07015381 17.37451172 61.07409668 C15.72036451 61.07681353 14.06617417 61.0694681 12.41210938 61.05273438 C9.88313838 61.03131892 7.35700786 61.05254097 4.828125 61.078125 C3.21874374 61.07548168 1.60936425 61.07035661 0 61.0625 C-0.7542627 61.07059692 -1.50852539 61.07869385 -2.28564453 61.08703613 C-5.60794836 61.02783088 -7.66081289 60.89219278 -10.3236084 58.82165527 C-12.4759687 56.0850058 -12.63044227 54.81008432 -12.64257812 51.3671875 C-12.65518677 50.33932129 -12.66779541 49.31145508 -12.68078613 48.25244141 C-12.67268921 47.14819824 -12.66459229 46.04395508 -12.65625 44.90625 C-12.6600769 43.76720215 -12.66390381 42.6281543 -12.66784668 41.45458984 C-12.67056774 39.04719153 -12.6631931 36.63976374 -12.64648438 34.23242188 C-12.62507925 30.54490318 -12.64628132 26.85933301 -12.671875 23.171875 C-12.66923176 20.83332903 -12.66410687 18.49478427 -12.65625 16.15625 C-12.66434692 15.05200684 -12.67244385 13.94776367 -12.68078613 12.81005859 C-12.66817749 11.78219238 -12.65556885 10.75432617 -12.64257812 9.6953125 C-12.63939575 8.79248535 -12.63621338 7.8896582 -12.63293457 6.95947266 C-11.21476958 0.17981919 -5.9210598 -0.0635619 0 0 Z M-6.49023438 5.94726562 C-9.02207864 9.94921302 -8.69671396 13.7623564 -8.65625 18.40625 C-8.6600769 19.36772949 -8.66390381 20.32920898 -8.66784668 21.31982422 C-8.67056602 23.3505966 -8.66320329 25.38140399 -8.64648438 27.41210938 C-8.62507525 30.5203257 -8.64628546 33.62623056 -8.671875 36.734375 C-8.66923173 38.70833843 -8.66410676 40.68230043 -8.65625 42.65625 C-8.66434692 43.58550293 -8.67244385 44.51475586 -8.68078613 45.47216797 C-8.60918357 50.5718927 -8.60918357 50.5718927 -6.49023438 55.11523438 C-3.41632708 56.95551744 -1.32650953 57.04817759 2.25 57.0625 C3.48234375 57.06765625 4.7146875 57.0728125 5.984375 57.078125 C7.26828125 57.06265625 8.5521875 57.0471875 9.875 57.03125 C11.80085938 57.05445312 11.80085938 57.05445312 13.765625 57.078125 C14.99796875 57.07296875 16.2303125 57.0678125 17.5 57.0625 C18.62664063 57.05798828 19.75328125 57.05347656 20.9140625 57.04882812 C23.89775804 56.709467 23.89775804 56.709467 26.24023438 55.11523438 C28.77207864 51.11328698 28.44671396 47.3001436 28.40625 42.65625 C28.4100769 41.69477051 28.41390381 40.73329102 28.41784668 39.74267578 C28.42056602 37.7119034 28.41320329 35.68109601 28.39648438 33.65039062 C28.37507525 30.5421743 28.39628546 27.43626944 28.421875 24.328125 C28.41923173 22.35416157 28.41410676 20.38019957 28.40625 18.40625 C28.41434692 17.47699707 28.42244385 16.54774414 28.43078613 15.59033203 C28.35918357 10.4906073 28.35918357 10.4906073 26.24023438 5.94726562 C23.16632708 4.10698256 21.07650953 4.01432241 17.5 4 C16.26765625 3.99484375 15.0353125 3.9896875 13.765625 3.984375 C11.83976562 4.00757813 11.83976562 4.00757813 9.875 4.03125 C8.59109375 4.01578125 7.3071875 4.0003125 5.984375 3.984375 C4.75203125 3.98953125 3.5196875 3.9946875 2.25 4 C1.12335937 4.00451172 -0.00328125 4.00902344 -1.1640625 4.01367188 C-4.14775804 4.353033 -4.14775804 4.353033 -6.49023438 5.94726562 Z " fill="#EF7B2E" transform="translate(28.125,15.46875)"/>
<path d="M0 0 C1.1758667 -0.00574036 1.1758667 -0.00574036 2.37548828 -0.01159668 C4.02963549 -0.01431353 5.68382583 -0.0069681 7.33789062 0.00976562 C9.86686162 0.03118108 12.39299214 0.00995903 14.921875 -0.015625 C16.53125626 -0.01298168 18.14063575 -0.00785661 19.75 0 C20.5042627 -0.00809692 21.25852539 -0.01619385 22.03564453 -0.02453613 C25.45874777 0.03646542 27.52083476 0.2816292 30.34960938 2.27539062 C32.07139183 4.82168862 32.38888884 6.11060669 32.40625 9.15625 C32.41398437 10.46335937 32.41398437 10.46335937 32.421875 11.796875 C32.40640625 12.69921875 32.3909375 13.6015625 32.375 14.53125 C32.39046875 15.43359375 32.4059375 16.3359375 32.421875 17.265625 C32.41671875 18.13703125 32.4115625 19.0084375 32.40625 19.90625 C32.40173828 20.69773437 32.39722656 21.48921875 32.39257812 22.3046875 C31.64310856 25.52882073 30.58043976 26.62441677 27.875 28.53125 C25.03396168 28.92917556 22.58817706 29.09296751 19.75 29.0625 C18.96608887 29.0663269 18.18217773 29.07015381 17.37451172 29.07409668 C15.72036451 29.07681353 14.06617417 29.0694681 12.41210938 29.05273438 C9.88313838 29.03131892 7.35700786 29.05254097 4.828125 29.078125 C3.21874374 29.07548168 1.60936425 29.07035661 0 29.0625 C-1.13139404 29.07464539 -1.13139404 29.07464539 -2.28564453 29.08703613 C-5.70874777 29.02603458 -7.77083476 28.7808708 -10.59960938 26.78710938 C-12.32139183 24.24081138 -12.63888884 22.95189331 -12.65625 19.90625 C-12.66140625 19.03484375 -12.6665625 18.1634375 -12.671875 17.265625 C-12.65640625 16.36328125 -12.6409375 15.4609375 -12.625 14.53125 C-12.64046875 13.62890625 -12.6559375 12.7265625 -12.671875 11.796875 C-12.66414062 10.48976563 -12.66414062 10.48976563 -12.65625 9.15625 C-12.65173828 8.36476563 -12.64722656 7.57328125 -12.64257812 6.7578125 C-11.08908985 0.07488179 -5.90429531 -0.06338194 0 0 Z M-8.125 8.53125 C-8.75576607 11.43118441 -8.75576607 11.43118441 -8.625 14.53125 C-8.6353125 15.5625 -8.645625 16.59375 -8.65625 17.65625 C-7.98627076 21.28202002 -7.00696398 22.27279928 -4.125 24.53125 C-1.1045149 25.14480132 -1.1045149 25.14480132 2.25 25.0625 C3.48234375 25.06765625 4.7146875 25.0728125 5.984375 25.078125 C7.26828125 25.06265625 8.5521875 25.0471875 9.875 25.03125 C11.80085938 25.05445313 11.80085938 25.05445313 13.765625 25.078125 C14.99796875 25.07296875 16.2303125 25.0678125 17.5 25.0625 C18.62664063 25.05798828 19.75328125 25.05347656 20.9140625 25.04882812 C24.50689343 24.4207937 25.68905711 23.40144263 27.875 20.53125 C28.50576607 17.63131559 28.50576607 17.63131559 28.375 14.53125 C28.3853125 13.5 28.395625 12.46875 28.40625 11.40625 C27.73627076 7.78047998 26.75696398 6.78970072 23.875 4.53125 C20.8545149 3.91769868 20.8545149 3.91769868 17.5 4 C16.26765625 3.99484375 15.0353125 3.9896875 13.765625 3.984375 C11.83976562 4.00757812 11.83976562 4.00757812 9.875 4.03125 C8.59109375 4.01578125 7.3071875 4.0003125 5.984375 3.984375 C4.75203125 3.98953125 3.5196875 3.9946875 2.25 4 C1.12335937 4.00451172 -0.00328125 4.00902344 -1.1640625 4.01367188 C-4.75689343 4.6417063 -5.93905711 5.66105737 -8.125 8.53125 Z " fill="#EF7B2E" transform="translate(28.125,83.46875)"/>
<path d="M0 0 C1.1758667 -0.00574036 1.1758667 -0.00574036 2.37548828 -0.01159668 C4.02963549 -0.01431353 5.68382583 -0.0069681 7.33789062 0.00976562 C9.86686162 0.03118108 12.39299214 0.00995903 14.921875 -0.015625 C16.53125626 -0.01298168 18.14063575 -0.00785661 19.75 0 C20.5042627 -0.00809692 21.25852539 -0.01619385 22.03564453 -0.02453613 C25.45874777 0.03646542 27.52083476 0.2816292 30.34960938 2.27539062 C32.07139183 4.82168862 32.38888884 6.11060669 32.40625 9.15625 C32.41398437 10.46335937 32.41398437 10.46335937 32.421875 11.796875 C32.40640625 12.69921875 32.3909375 13.6015625 32.375 14.53125 C32.39046875 15.43359375 32.4059375 16.3359375 32.421875 17.265625 C32.41671875 18.13703125 32.4115625 19.0084375 32.40625 19.90625 C32.40173828 20.69773437 32.39722656 21.48921875 32.39257812 22.3046875 C31.64310856 25.52882073 30.58043976 26.62441677 27.875 28.53125 C25.03396168 28.92917556 22.58817706 29.09296751 19.75 29.0625 C18.96608887 29.0663269 18.18217773 29.07015381 17.37451172 29.07409668 C15.72036451 29.07681353 14.06617417 29.0694681 12.41210938 29.05273438 C9.88313838 29.03131892 7.35700786 29.05254097 4.828125 29.078125 C3.21874374 29.07548168 1.60936425 29.07035661 0 29.0625 C-1.13139404 29.07464539 -1.13139404 29.07464539 -2.28564453 29.08703613 C-5.70874777 29.02603458 -7.77083476 28.7808708 -10.59960938 26.78710938 C-12.32139183 24.24081138 -12.63888884 22.95189331 -12.65625 19.90625 C-12.66140625 19.03484375 -12.6665625 18.1634375 -12.671875 17.265625 C-12.65640625 16.36328125 -12.6409375 15.4609375 -12.625 14.53125 C-12.64046875 13.62890625 -12.6559375 12.7265625 -12.671875 11.796875 C-12.66414063 10.48976563 -12.66414063 10.48976563 -12.65625 9.15625 C-12.65173828 8.36476563 -12.64722656 7.57328125 -12.64257812 6.7578125 C-11.08908985 0.07488179 -5.90429531 -0.06338194 0 0 Z M-8.125 8.53125 C-8.75576607 11.43118441 -8.75576607 11.43118441 -8.625 14.53125 C-8.6353125 15.5625 -8.645625 16.59375 -8.65625 17.65625 C-7.98627076 21.28202002 -7.00696398 22.27279928 -4.125 24.53125 C-1.1045149 25.14480132 -1.1045149 25.14480132 2.25 25.0625 C3.48234375 25.06765625 4.7146875 25.0728125 5.984375 25.078125 C7.26828125 25.06265625 8.5521875 25.0471875 9.875 25.03125 C11.80085938 25.05445313 11.80085938 25.05445313 13.765625 25.078125 C14.99796875 25.07296875 16.2303125 25.0678125 17.5 25.0625 C18.62664062 25.05798828 19.75328125 25.05347656 20.9140625 25.04882812 C24.50689343 24.4207937 25.68905711 23.40144263 27.875 20.53125 C28.50576607 17.63131559 28.50576607 17.63131559 28.375 14.53125 C28.3853125 13.5 28.395625 12.46875 28.40625 11.40625 C27.73627076 7.78047998 26.75696398 6.78970072 23.875 4.53125 C20.8545149 3.91769868 20.8545149 3.91769868 17.5 4 C16.26765625 3.99484375 15.0353125 3.9896875 13.765625 3.984375 C11.83976562 4.00757813 11.83976562 4.00757813 9.875 4.03125 C8.59109375 4.01578125 7.3071875 4.0003125 5.984375 3.984375 C4.75203125 3.98953125 3.5196875 3.9946875 2.25 4 C1.12335938 4.00451172 -0.00328125 4.00902344 -1.1640625 4.01367188 C-4.75689343 4.6417063 -5.93905711 5.66105737 -8.125 8.53125 Z " fill="#EF7B2E" transform="translate(80.125,15.46875)"/>
</svg>
