<svg width="25" height="25" viewBox="0 0 25 25" fill="none" xmlns="http://www.w3.org/2000/svg">
<path d="M11.7615 2.36035C12.0693 2.36035 12.3737 2.39616 12.6687 2.46484V6.36035C12.6687 8.9837 14.7953 11.1104 17.4187 11.1104H21.3132C21.382 11.4054 21.4187 11.7097 21.4187 12.0176V18.3604C21.4187 20.5695 19.6278 22.3604 17.4187 22.3604H7.4187C5.20956 22.3604 3.4187 20.5695 3.4187 18.3604V6.36035C3.4187 4.15121 5.20956 2.36035 7.4187 2.36035H11.7615ZM12.5613 13.9189C12.2117 13.9189 11.9031 13.9756 11.6355 14.0889C11.4343 14.1729 11.2488 14.3018 11.0789 14.4756C10.9109 14.6494 10.7781 14.8457 10.6804 15.0645C10.5496 15.3613 10.4841 15.7285 10.4841 16.166C10.4841 16.8496 10.6726 17.3867 11.0496 17.7773C11.4265 18.166 11.9343 18.3604 12.573 18.3604C13.2039 18.3604 13.7078 18.165 14.0847 17.7744C14.4617 17.3818 14.6501 16.8389 14.6501 16.1455C14.6501 15.4463 14.4597 14.9004 14.0789 14.5078C13.7 14.1152 13.1941 13.9189 12.5613 13.9189ZM17.1873 13.9189C16.5857 13.9189 16.1003 14.1172 15.7312 14.5137C15.3621 14.9082 15.1775 15.4629 15.1775 16.1777C15.1775 16.8535 15.3611 17.3867 15.7283 17.7773C16.0955 18.166 16.5642 18.3604 17.1345 18.3604C17.5955 18.3604 17.9753 18.2471 18.2742 18.0205C18.575 17.792 18.7898 17.4434 18.9187 16.9746L18.0779 16.708C18.0056 17.0225 17.8865 17.2529 17.7205 17.3994C17.5544 17.5459 17.3562 17.6191 17.1257 17.6191C16.8132 17.6191 16.5593 17.5039 16.364 17.2734C16.1687 17.043 16.071 16.6562 16.071 16.1133C16.071 15.6016 16.1697 15.2314 16.3669 15.0029C16.5662 14.7744 16.825 14.6602 17.1433 14.6602C17.3738 14.6602 17.5691 14.7246 17.7292 14.8535C17.8914 14.9824 17.9978 15.1582 18.0486 15.3809L18.907 15.1758C18.8093 14.832 18.6628 14.5684 18.4675 14.3848C18.1394 14.0742 17.7126 13.9189 17.1873 13.9189ZM6.32104 13.9922V18.2871H7.95288C8.27319 18.2871 8.52905 18.2568 8.72046 18.1963C8.97632 18.1143 9.17944 18 9.32983 17.8535C9.52905 17.6602 9.68237 17.4072 9.78979 17.0947C9.87769 16.8389 9.92163 16.5342 9.92163 16.1807C9.92163 15.7783 9.87476 15.4404 9.78101 15.167C9.68726 14.8916 9.55054 14.6592 9.37085 14.4697C9.19116 14.2803 8.97534 14.1484 8.72339 14.0742C8.53589 14.0195 8.26343 13.9922 7.90601 13.9922H6.32104ZM12.5701 14.6602C12.9275 14.6602 13.2136 14.7812 13.4285 15.0234C13.6453 15.2656 13.7537 15.6328 13.7537 16.125C13.7537 16.623 13.6423 16.9971 13.4197 17.2471C13.199 17.4951 12.9158 17.6191 12.5701 17.6191C12.2244 17.6191 11.9392 17.4941 11.7146 17.2441C11.49 16.9922 11.3777 16.623 11.3777 16.1367C11.3777 15.6426 11.4871 15.2734 11.7058 15.0293C11.9246 14.7832 12.2126 14.6602 12.5701 14.6602ZM7.57788 14.7188C7.9314 14.7188 8.1687 14.7324 8.28979 14.7598C8.4519 14.7949 8.58569 14.8623 8.69116 14.9619C8.79663 15.0615 8.87866 15.2002 8.93726 15.3779C8.99585 15.5557 9.02515 15.8105 9.02515 16.1426C9.02515 16.4746 8.99585 16.7373 8.93726 16.9307C8.87866 17.1221 8.80249 17.2598 8.70874 17.3438C8.61694 17.4277 8.50073 17.4873 8.36011 17.5225C8.25269 17.5498 8.07788 17.5635 7.83569 17.5635H7.18823V14.7188H7.57788ZM14.1687 3.16602C14.3167 3.2775 14.4581 3.39972 14.5906 3.53223L20.2468 9.18848C20.3792 9.32085 20.5007 9.46257 20.6121 9.61035H17.4187C15.6238 9.61035 14.1687 8.15528 14.1687 6.36035V3.16602Z" fill="#888888"/>
</svg>
