<svg width="25" height="25" viewBox="0 0 25 25" fill="none" xmlns="http://www.w3.org/2000/svg">
<path d="M11.4822 2.36035C11.79 2.36035 12.0944 2.39616 12.3894 2.46484V6.36035C12.3894 8.9837 14.5161 11.1104 17.1394 11.1104H21.0339C21.1027 11.4054 21.1394 11.7097 21.1394 12.0176V18.3604C21.1394 20.5695 19.3485 22.3604 17.1394 22.3604H7.1394C4.93027 22.3604 3.1394 20.5695 3.1394 18.3604V6.36035C3.1394 4.15121 4.93027 2.36035 7.1394 2.36035H11.4822ZM8.12573 14.0654V16.8398C8.12573 17.1875 8.08569 17.417 8.00562 17.5283C7.92554 17.6377 7.78882 17.6924 7.59546 17.6924C7.40405 17.6924 7.26147 17.6152 7.16772 17.4609C7.10522 17.3594 7.06909 17.1855 7.05933 16.9395L6.24194 17.0332C6.2439 17.4922 6.35913 17.8408 6.58765 18.0791C6.81616 18.3154 7.14233 18.4336 7.56616 18.4336C7.92749 18.4336 8.21851 18.3584 8.43921 18.208C8.65991 18.0557 8.81226 17.8545 8.89624 17.6045C8.95874 17.4131 8.98999 17.1396 8.98999 16.7842V14.0654H8.12573ZM15.9011 13.9922C15.491 13.9922 15.1482 14.0635 14.8728 14.2061C14.5115 14.3916 14.2371 14.6582 14.0496 15.0059C13.8621 15.3535 13.7683 15.751 13.7683 16.1982C13.7683 16.6104 13.8523 16.9922 14.0203 17.3438C14.1882 17.6934 14.4392 17.9629 14.7732 18.1523C15.1072 18.3398 15.4988 18.4336 15.948 18.4336C16.3015 18.4336 16.6501 18.3672 16.9939 18.2344C17.3396 18.0996 17.6033 17.9443 17.7849 17.7686V16.0576H15.9158V16.7812H16.9089V17.3262C16.7781 17.4277 16.6208 17.5146 16.4373 17.5869C16.2556 17.6572 16.074 17.6924 15.8923 17.6924C15.5251 17.6924 15.2283 17.5654 15.0017 17.3115C14.7751 17.0557 14.6619 16.6729 14.6619 16.1631C14.6619 15.6904 14.7732 15.334 14.9958 15.0938C15.2205 14.8535 15.5222 14.7334 15.9011 14.7334C16.1511 14.7334 16.3591 14.7949 16.5251 14.918C16.6931 15.0391 16.8074 15.2051 16.8679 15.416L17.7292 15.2549C17.6433 14.8604 17.45 14.5518 17.1492 14.3291C16.8503 14.1045 16.4343 13.9922 15.9011 13.9922ZM9.91577 14.0654V18.3604H10.783V16.7402H11.3484C11.741 16.7402 12.0408 16.7197 12.2478 16.6787C12.4001 16.6455 12.5496 16.5781 12.696 16.4766C12.8445 16.373 12.9666 16.2314 13.0623 16.0518C13.158 15.8721 13.2058 15.6504 13.2058 15.3867C13.2058 15.0449 13.1228 14.7666 12.9568 14.5518C12.7908 14.335 12.5847 14.1943 12.3386 14.1299C12.1785 14.0869 11.8347 14.0654 11.3074 14.0654H9.91577ZM11.2019 14.792C11.5144 14.792 11.7224 14.8018 11.8259 14.8213C11.9666 14.8467 12.0828 14.9102 12.1746 15.0117C12.2664 15.1133 12.3123 15.2422 12.3123 15.3984C12.3123 15.5254 12.2791 15.6367 12.2126 15.7324C12.1482 15.8281 12.0583 15.8984 11.9431 15.9434C11.8279 15.9883 11.5994 16.0107 11.2576 16.0107H10.783V14.792H11.2019ZM13.8894 3.16602C14.0374 3.2775 14.1788 3.39972 14.3113 3.53223L19.9675 9.18848C20.0999 9.32085 20.2214 9.46257 20.3328 9.61035H17.1394C15.3445 9.61035 13.8894 8.15528 13.8894 6.36035V3.16602Z" fill="#888888"/>
</svg>
