<svg width="25" height="25" viewBox="0 0 25 25" fill="none" xmlns="http://www.w3.org/2000/svg">
<path d="M12.2031 2.36035C12.5109 2.36035 12.8153 2.39616 13.1104 2.46484V6.36035C13.1104 8.9837 15.237 11.1104 17.8604 11.1104H21.7549C21.8236 11.4054 21.8604 11.7097 21.8604 12.0176V18.3604C21.8604 20.5695 20.0695 22.3604 17.8604 22.3604H7.86035C5.65121 22.3604 3.86035 20.5695 3.86035 18.3604V6.36035C3.86035 4.15121 5.65121 2.36035 7.86035 2.36035H12.2031ZM17.1816 13.9922C16.7715 13.9922 16.4287 14.0635 16.1533 14.2061C15.792 14.3916 15.5176 14.6582 15.3301 15.0059C15.1426 15.3535 15.0488 15.751 15.0488 16.1982C15.0488 16.6104 15.1328 16.9922 15.3008 17.3438C15.4688 17.6934 15.7197 17.9629 16.0537 18.1523C16.3877 18.3398 16.7793 18.4336 17.2285 18.4336C17.582 18.4336 17.9307 18.3672 18.2744 18.2344C18.6201 18.0996 18.8838 17.9443 19.0654 17.7686V16.0576H17.1963V16.7812H18.1895V17.3262C18.0586 17.4277 17.9014 17.5146 17.7178 17.5869C17.5361 17.6572 17.3545 17.6924 17.1729 17.6924C16.8057 17.6924 16.5088 17.5654 16.2822 17.3115C16.0557 17.0557 15.9424 16.6729 15.9424 16.1631C15.9424 15.6904 16.0537 15.334 16.2764 15.0938C16.501 14.8535 16.8027 14.7334 17.1816 14.7334C17.4316 14.7334 17.6396 14.7949 17.8057 14.918C17.9736 15.0391 18.0879 15.2051 18.1484 15.416L19.0098 15.2549C18.9238 14.8604 18.7305 14.5518 18.4297 14.3291C18.1309 14.1045 17.7148 13.9922 17.1816 13.9922ZM6.86035 14.0654V18.3604H7.72754V16.7402H8.29297C8.68555 16.7402 8.98535 16.7197 9.19238 16.6787C9.34473 16.6455 9.49414 16.5781 9.64062 16.4766C9.78906 16.373 9.91113 16.2314 10.0068 16.0518C10.1025 15.8721 10.1504 15.6504 10.1504 15.3867C10.1504 15.0449 10.0674 14.7666 9.90137 14.5518C9.73535 14.335 9.5293 14.1943 9.2832 14.1299C9.12305 14.0869 8.7793 14.0654 8.25195 14.0654H6.86035ZM10.8711 14.0654V18.3604H11.6768V15.5596L13.4082 18.3604H14.2783V14.0654H13.4727V16.9336L11.7148 14.0654H10.8711ZM8.14648 14.792C8.45898 14.792 8.66699 14.8018 8.77051 14.8213C8.91113 14.8467 9.02734 14.9102 9.11914 15.0117C9.21094 15.1133 9.25684 15.2422 9.25684 15.3984C9.25684 15.5254 9.22363 15.6367 9.15723 15.7324C9.09277 15.8281 9.00293 15.8984 8.8877 15.9434C8.77246 15.9883 8.54395 16.0107 8.20215 16.0107H7.72754V14.792H8.14648ZM14.6104 3.16602C14.7583 3.2775 14.8997 3.39972 15.0322 3.53223L20.6885 9.18848C20.8208 9.32085 20.9423 9.46257 21.0537 9.61035H17.8604C16.0654 9.61035 14.6104 8.15528 14.6104 6.36035V3.16602Z" fill="#888888"/>
</svg>
