<svg width="25" height="25" viewBox="0 0 25 25" fill="none" xmlns="http://www.w3.org/2000/svg">
<path d="M20.1328 10.3896C21.8159 10.3897 22.8558 12.2973 21.9902 13.7969L18.7227 19.4551C17.9399 20.8104 16.5301 21.6396 15.0088 21.6396H5.5498C4.64701 21.6396 3.82988 21.2565 3.24121 20.6387L6.57227 13.0625C7.26741 11.4375 8.81869 10.3897 10.5303 10.3896H20.1328ZM7.56836 3.63965C8.14617 3.63965 8.71353 3.79977 9.21191 4.10352L11.3809 5.42578C11.8792 5.72953 12.4466 5.88964 13.0244 5.88965H16.3779C18.0499 5.88965 19.4259 7.20223 19.6055 8.88965H10.5303C8.19576 8.88972 6.11908 10.3154 5.19629 12.4648L2.36133 18.9111C2.32226 18.7019 2.30176 18.4858 2.30176 18.2646V7.01465C2.30176 5.1508 3.75593 3.63984 5.5498 3.63965H7.56836Z" fill="#888888"/>
</svg>
