<?xml version="1.0" encoding="UTF-8"?>
<svg version="1.1" xmlns="http://www.w3.org/2000/svg" width="128" height="128">
<path d="M0 0 C1.28715408 -0.00845947 1.28715408 -0.00845947 2.60031128 -0.01708984 C3.54375397 -0.01304138 4.48719666 -0.00899292 5.45922852 -0.00482178 C6.45117218 -0.00832642 7.44311584 -0.01183105 8.46511841 -0.01544189 C11.75619427 -0.0242712 15.04705657 -0.01840579 18.33813477 -0.01165771 C20.61735068 -0.01300402 22.89656632 -0.01494426 25.17578125 -0.01745605 C29.95746591 -0.02040895 34.73907595 -0.01610435 39.52075195 -0.0067749 C45.66141193 0.00461968 51.8018971 -0.00193891 57.94255066 -0.01391983 C62.6504448 -0.02113396 67.35829725 -0.01885256 72.06619263 -0.01366425 C74.33090231 -0.01232651 76.59561573 -0.01397977 78.86032104 -0.01862335 C82.02099694 -0.02368121 85.18138654 -0.01598869 88.34204102 -0.00482178 C89.75720505 -0.01089447 89.75720505 -0.01089447 91.20095825 -0.01708984 C92.48811234 -0.00863037 92.48811234 -0.00863037 93.80126953 0 C94.54901138 0.00075405 95.29675323 0.0015081 96.06715393 0.002285 C97.90063477 0.25396729 97.90063477 0.25396729 99.90063477 2.25396729 C100.15460205 4.94194031 100.15460205 4.94194031 100.15942383 8.40020752 C100.16572815 9.69172226 100.17203247 10.983237 100.17852783 12.31388855 C100.17494778 13.73011409 100.17084575 15.14633839 100.16625977 16.56256104 C100.16760659 18.00983241 100.16954727 19.45710335 100.17205811 20.90437317 C100.1750095 23.93997498 100.17071196 26.9754592 100.16137695 30.01104736 C100.14999248 33.90291189 100.15653526 37.79450028 100.16852188 41.68635464 C100.17574882 44.67605164 100.17344856 47.66568318 100.1682663 50.65538216 C100.16693158 52.09031265 100.16857132 53.52524908 100.1732254 54.96017265 C100.17830288 56.96622479 100.16919212 58.97229774 100.15942383 60.97833252 C100.15783264 62.12035629 100.15624146 63.26238007 100.15460205 64.43901062 C99.90063477 67.25396729 99.90063477 67.25396729 97.90063477 70.25396729 C96.06715393 70.63149071 96.06715393 70.63149071 93.80126953 70.63491821 C92.94316681 70.64337769 92.08506409 70.65183716 91.20095825 70.66055298 C89.78579422 70.65144394 89.78579422 70.65144394 88.34204102 70.64215088 C86.85412552 70.65003632 86.85412552 70.65003632 85.33615112 70.65808105 C82.04498725 70.67132537 78.75430387 70.66252717 75.46313477 70.65240479 C73.18391832 70.65442424 70.90470251 70.6573346 68.62548828 70.66110229 C63.84376893 70.66553166 59.06221745 70.6590748 54.28051758 70.64508057 C48.13978209 70.62798849 41.99943992 70.63782638 35.85871887 70.65579796 C31.15080787 70.66661919 26.44299068 70.66319708 21.7350769 70.65541458 C19.47036696 70.65340798 17.2056486 70.65588788 14.94094849 70.66285324 C11.78014439 70.67044034 8.61998442 70.65890179 5.45922852 70.64215088 C4.04406448 70.65125992 4.04406448 70.65125992 2.60031128 70.66055298 C1.74220856 70.65209351 0.88410583 70.64363403 0 70.63491821 C-1.12161278 70.6332216 -1.12161278 70.6332216 -2.2658844 70.63149071 C-4.09936523 70.25396729 -4.09936523 70.25396729 -6.09936523 67.25396729 C-6.35333252 64.43901062 -6.35333252 64.43901062 -6.3581543 60.97833252 C-6.36445862 59.68366562 -6.37076294 58.38899872 -6.3772583 57.05509949 C-6.37367889 55.64091862 -6.36957703 54.22673899 -6.36499023 52.81256104 C-6.36633733 51.36432327 -6.36827824 49.91608595 -6.37078857 48.46784973 C-6.3737368 45.43402802 -6.36945132 42.40032413 -6.36010742 39.36651611 C-6.34870278 35.47346103 -6.3552805 31.58068139 -6.36725235 27.68763638 C-6.37447046 24.69798192 -6.37218345 21.70839305 -6.36699677 18.71873665 C-6.36566065 17.28297964 -6.36730665 15.84721671 -6.37195587 14.4114666 C-6.37702112 12.40771469 -6.3679352 10.40394196 -6.3581543 8.40020752 C-6.35656311 7.25897934 -6.35497192 6.11775116 -6.35333252 4.94194031 C-5.93176373 0.48008396 -4.04301949 0.00407713 0 0 Z M0.90063477 6.25396729 C0.90063477 25.39396729 0.90063477 44.53396729 0.90063477 64.25396729 C31.26063477 64.25396729 61.62063477 64.25396729 92.90063477 64.25396729 C92.90063477 45.11396729 92.90063477 25.97396729 92.90063477 6.25396729 C62.54063477 6.25396729 32.18063477 6.25396729 0.90063477 6.25396729 Z " fill="#EF7B2F" transform="translate(17.099365234375,24.74603271484375)"/>
<path d="M0 0 C17.16 0 34.32 0 52 0 C52 0.66 52 1.32 52 2 C59.92 2 67.84 2 76 2 C76 1.34 76 0.68 76 0 C93.16 0 110.32 0 128 0 C128 1.65 128 3.3 128 5 C125.46062857 7.53937143 124.58466972 7.25105107 121.06542969 7.25396729 C119.50060852 7.26242676 119.50060852 7.26242676 117.9041748 7.27105713 C116.75501587 7.26700867 115.60585693 7.26296021 114.421875 7.25878906 C113.21535278 7.2622937 112.00883057 7.26579834 110.76574707 7.26940918 C107.4516998 7.27671811 104.13790129 7.27498427 100.8238678 7.26865101 C97.36011412 7.263597 93.89637127 7.26828079 90.43261719 7.27142334 C84.6152149 7.27506474 78.79786334 7.27025935 72.98046875 7.26074219 C66.24918426 7.24985727 59.51802091 7.25338273 52.78673935 7.264395 C47.01345658 7.27346294 41.24021034 7.27475558 35.46692276 7.26951766 C32.01613631 7.26639523 28.56540684 7.26599605 25.11462402 7.27259064 C21.26907622 7.27942594 17.42366476 7.26995937 13.578125 7.25878906 C11.8543866 7.26486176 11.8543866 7.26486176 10.0958252 7.27105713 C9.05261108 7.26541748 8.00939697 7.25977783 6.93457031 7.25396729 C6.0245929 7.25321323 5.11461548 7.25245918 4.17706299 7.25168228 C2 7 2 7 0 5 C0 3.35 0 1.7 0 0 Z " fill="#EE7B2E" transform="translate(0,96)"/>
</svg>
