<?xml version="1.0" encoding="UTF-8"?>
<svg version="1.1" xmlns="http://www.w3.org/2000/svg" width="128" height="128">
<path d="M0 0 C0.9715654 -0.0071553 1.9431308 -0.01431061 2.94413757 -0.02168274 C4.01377747 -0.02437164 5.08341736 -0.02706055 6.18547058 -0.02983093 C7.87098274 -0.03968773 7.87098274 -0.03968773 9.59054565 -0.04974365 C13.3216508 -0.06950933 17.05271566 -0.08114596 20.78385925 -0.09111023 C22.05556158 -0.09518576 23.32726391 -0.09926128 24.63750267 -0.10346031 C30.67258555 -0.12218 36.70764391 -0.13674323 42.74274808 -0.14507228 C49.70841379 -0.15484437 56.6737617 -0.18116255 63.63931543 -0.22157317 C69.67279645 -0.25537466 75.7061232 -0.26721749 81.73970604 -0.27127647 C84.30618636 -0.27615686 86.87266293 -0.28781179 89.43908119 -0.30631447 C93.02798076 -0.33058226 96.61604586 -0.32976312 100.20500183 -0.32279968 C101.26856903 -0.33560974 102.33213623 -0.3484198 103.42793274 -0.36161804 C110.63545684 -0.31055023 110.63545684 -0.31055023 114.52584839 2.05154419 C117.79465528 5.72757014 117.53389521 8.22350776 117.5821991 13.08784485 C117.59446533 14.15888206 117.59446533 14.15888206 117.60697937 15.2515564 C117.63183102 17.61909647 117.64834881 19.98657659 117.6627655 22.35420227 C117.66808918 23.16253698 117.67341286 23.9708717 117.67889786 24.8037014 C117.70562864 29.08232551 117.7250036 33.36092045 117.73942566 37.63960266 C117.75607236 42.05838871 117.80084969 46.47642874 117.8517971 50.89493275 C117.88545805 54.2930283 117.89700175 57.69094652 117.90265274 61.08919334 C117.90936863 62.71790454 117.92459965 64.34660393 117.94854355 65.97515297 C117.98017551 68.25682426 117.98023612 70.53648048 117.9728241 72.8183136 C117.98091095 74.11578018 117.9889978 75.41324677 117.99732971 76.75003052 C117.23119695 81.0307103 115.75155124 82.47816515 112.389328 85.14717102 C109.48493039 86.11530356 107.6611456 86.26861936 104.64250183 86.26069641 C103.68173233 86.26062088 102.72096283 86.26054535 101.7310791 86.26046753 C100.69662155 86.25530624 99.662164 86.25014496 98.59635925 86.24482727 C97.53519394 86.24341232 96.47402863 86.24199738 95.38070679 86.24053955 C91.98771865 86.23493708 88.59479623 86.22238416 85.201828 86.20967102 C82.90300083 86.20465634 80.60417262 86.20009338 78.30534363 86.19599915 C72.66664929 86.18496686 67.02799334 86.16822632 61.389328 86.14717102 C61.389328 87.46717102 61.389328 88.78717102 61.389328 90.14717102 C67.329328 90.14717102 73.269328 90.14717102 79.389328 90.14717102 C79.719328 91.79717102 80.049328 93.44717102 80.389328 95.14717102 C79.389328 96.14717102 79.389328 96.14717102 77.29495239 96.26742554 C76.37339859 96.26520493 75.45184479 96.26298431 74.50236511 96.26069641 C73.46136154 96.26062088 72.42035797 96.26054535 71.34780884 96.26046753 C70.2155336 96.25530624 69.08325836 96.25014496 67.91667175 96.24482727 C66.18750267 96.24270485 66.18750267 96.24270485 64.42340088 96.24053955 C60.72451737 96.23492107 57.02569336 96.22236544 53.326828 96.20967102 C50.82617783 96.2046584 48.32552672 96.20009508 45.82487488 96.19599915 C39.67967212 96.18494564 33.53450431 96.16818954 27.389328 96.14717102 C27.00714033 94.49102445 26.67537699 92.82260078 26.389328 91.14717102 C27.389328 90.14717102 27.389328 90.14717102 29.15519714 90.03364563 C29.90406189 90.03888245 30.65292664 90.04411926 31.42448425 90.04951477 C32.23337097 90.05273743 33.04225769 90.05596008 33.87565613 90.0592804 C34.72579285 90.0676593 35.57592957 90.07603821 36.451828 90.08467102 C37.30583191 90.08918274 38.15983582 90.09369446 39.03971863 90.0983429 C41.15628464 90.11016729 43.27281485 90.12810333 45.389328 90.14717102 C45.389328 88.82717102 45.389328 87.50717102 45.389328 86.14717102 C44.7990834 86.15383286 44.20883881 86.16049469 43.60070801 86.1673584 C37.45258536 86.23377405 31.30456479 86.27899752 25.15617371 86.31196594 C22.86218628 86.3270441 20.56822764 86.34750972 18.27433777 86.37348938 C14.97535595 86.4099146 11.67675561 86.42690733 8.37760925 86.44013977 C6.84140678 86.46336555 6.84140678 86.46336555 5.27416992 86.48706055 C-3.60488607 86.48915496 -3.60488607 86.48915496 -7.610672 83.14717102 C-8.13860352 82.76323685 -8.66653503 82.37930267 -9.21046448 81.98373413 C-11.38080162 79.137041 -10.99994768 76.62891606 -11.01472473 73.0929718 C-11.02158798 72.37880096 -11.02845123 71.66463013 -11.03552246 70.92881775 C-11.05383251 68.56650439 -11.04994657 66.20485266 -11.04426575 63.84248352 C-11.04882624 62.19964888 -11.05413141 60.55681615 -11.06015015 58.91398621 C-11.06908999 55.46901201 -11.06664911 52.02426951 -11.05671692 48.57929993 C-11.04523821 44.16842992 -11.06541679 39.75836177 -11.09463406 35.34759712 C-11.11299976 31.95374992 -11.11270269 28.56009461 -11.10699654 25.16621017 C-11.1068433 23.54033663 -11.11288961 21.91445009 -11.12528801 20.28862381 C-11.14020034 18.01196126 -11.12952038 15.73677626 -11.11238098 13.4601593 C-11.11221481 12.16570892 -11.11204865 10.87125854 -11.11187744 9.5375824 C-10.52818223 5.58916782 -9.39642279 3.94861601 -6.610672 1.14717102 C-4.20403241 -0.05614878 -2.68851479 0.01356334 0 0 Z M-4.610672 9.14717102 C-5.0821602 12.17464273 -5.0821602 12.17464273 -5.03059387 15.68232727 C-5.03906342 16.34118927 -5.04753296 17.00005127 -5.05625916 17.67887878 C-5.07965211 19.85600602 -5.08065097 22.03242765 -5.079422 24.20967102 C-5.0865215 25.72277612 -5.09422018 27.23587852 -5.10249329 28.74897766 C-5.11594276 31.91987087 -5.11750455 35.09051507 -5.11164856 38.26142883 C-5.1057473 42.32739888 -5.13635748 46.39217694 -5.17676544 50.45791626 C-5.20259719 53.58233592 -5.20552415 56.70646666 -5.20187378 59.83097839 C-5.20356885 61.33013407 -5.21324868 62.82930256 -5.23101807 64.32835388 C-5.25312518 66.42372294 -5.24355373 68.51665499 -5.22590637 70.61201477 C-5.22796082 71.80431702 -5.23001526 72.99661926 -5.23213196 74.22505188 C-4.87142992 77.23274092 -4.87142992 77.23274092 -2.71089172 79.03135681 C1.75680388 80.6393455 5.89272338 80.56501743 10.608078 80.53535461 C12.14794373 80.54324005 12.14794373 80.54324005 13.71891785 80.55128479 C17.10920975 80.56447868 20.49903139 80.55574858 23.889328 80.54560852 C26.24675079 80.54762942 28.60417298 80.550541 30.96159363 80.55430603 C35.90110733 80.55872857 40.84045823 80.5523004 45.779953 80.5382843 C52.11199401 80.52119267 58.44365353 80.5310342 64.77568054 80.54900169 C69.6432635 80.55984129 74.51075599 80.55639233 79.37834167 80.54861832 C81.71314031 80.54661681 84.04794716 80.54907384 86.38273621 80.55605698 C89.64557153 80.56367411 92.90778872 80.5520629 96.170578 80.53535461 C97.61859802 80.54446365 97.61859802 80.54446365 99.09587097 80.55375671 C105.83400536 80.58816685 105.83400536 80.58816685 111.389328 77.14717102 C112.13691128 74.13396256 112.13691128 74.13396256 112.00456238 70.61201477 C112.01288589 69.62372177 112.01288589 69.62372177 112.02137756 68.61546326 C112.03318778 66.43779231 112.00888986 64.26219632 111.983078 62.08467102 C111.98136716 60.57156977 111.98143231 59.05846556 111.98320007 57.54536438 C111.98154608 54.37425885 111.96283512 51.20385965 111.93132019 48.03291321 C111.89164141 43.96716122 111.88727417 39.90233463 111.89478302 35.83642578 C111.89785186 32.71198541 111.88573543 29.58775331 111.86865234 26.46336365 C111.8616185 24.96425178 111.85849828 23.46511629 111.85934448 21.96598816 C111.8575476 19.87100023 111.83617807 17.77712321 111.80924988 15.68232727 C111.79662109 13.8938739 111.79662109 13.8938739 111.78373718 12.06929016 C111.33919285 8.77572711 110.96399161 8.11178575 108.389328 6.14717102 C106.26298471 5.69753532 106.26298471 5.69753532 103.87272644 5.76622009 C102.48470825 5.75353088 102.48470825 5.75353088 101.06864929 5.74058533 C100.05556702 5.74665802 99.04248474 5.75273071 97.998703 5.75898743 C96.93019104 5.75373047 95.86167908 5.74847351 94.76078796 5.74305725 C91.22015368 5.72982699 87.67996705 5.73860632 84.139328 5.74873352 C81.68457452 5.74671366 79.22982162 5.74380297 76.77507019 5.74003601 C71.62690018 5.73560854 66.47888616 5.74205747 61.33073425 5.75605774 C54.72267744 5.77314965 48.11498614 5.76331075 41.50694275 5.74534035 C36.43698865 5.73451404 31.3671216 5.73794359 26.29716492 5.74572372 C23.86023414 5.74772892 21.42329553 5.74525533 18.9863739 5.73828506 C15.58401979 5.73068974 12.18226252 5.74224845 8.779953 5.75898743 C7.76687073 5.75291473 6.75378845 5.74684204 5.71000671 5.74058533 C4.78466125 5.7490448 3.8593158 5.75750427 2.90592957 5.76622009 C2.10141357 5.76735117 1.29689758 5.76848225 0.46800232 5.7696476 C-2.14642889 6.24447379 -3.03186915 7.03912808 -4.610672 9.14717102 Z M51.389328 86.14717102 C51.389328 87.46717102 51.389328 88.78717102 51.389328 90.14717102 C52.709328 90.14717102 54.029328 90.14717102 55.389328 90.14717102 C55.389328 88.82717102 55.389328 87.50717102 55.389328 86.14717102 C54.069328 86.14717102 52.749328 86.14717102 51.389328 86.14717102 Z " fill="#EF7B2F" transform="translate(10.610671997070313,15.852828979492188)"/>
</svg>
