<?xml version="1.0" encoding="UTF-8"?>
<svg version="1.1" xmlns="http://www.w3.org/2000/svg" width="128" height="128">
<path d="M0 0 C0.88464432 -0.01606293 1.76928864 -0.03212585 2.68074036 -0.04867554 C6.72839607 -0.09312606 10.77588777 -0.13419031 14.82373047 -0.15722656 C16.95860697 -0.17378732 19.09342801 -0.20107878 21.22802734 -0.23925781 C24.30554985 -0.29402224 27.38177265 -0.31590003 30.4597168 -0.33056641 C31.41195633 -0.35323578 32.36419586 -0.37590515 33.34529114 -0.39926147 C37.95413707 -0.38457031 40.03679948 -0.32862712 43.80029297 2.53808594 C46.90316524 6.82587766 46.8745437 10.5077201 46.88256836 15.59838867 C46.89001572 16.72575691 46.89001572 16.72575691 46.89761353 17.87590027 C46.91222179 20.36307694 46.9190352 22.85018981 46.92456055 25.33740234 C46.93031345 27.06752016 46.93607117 28.79763796 46.9418335 30.52775574 C46.95233993 34.15677182 46.95818482 37.78576577 46.96166992 41.41479492 C46.96715145 46.05856115 46.9911736 50.7020337 47.01964188 55.34570789 C47.03829243 58.9205561 47.04347516 62.49533393 47.0450058 66.07022667 C47.0480278 67.78180228 47.05604108 69.49337679 47.06919098 71.20490456 C47.08630099 73.60321829 47.08435931 76.00081943 47.07788086 78.39916992 C47.09170303 79.45377914 47.09170303 79.45377914 47.10580444 80.5296936 C47.06691985 85.13941673 46.18195195 88.29514454 43.72143555 92.19287109 C40.60510735 94.27042322 39.87472192 94.448643 36.3293457 94.48339844 C35.00249252 94.50253799 35.00249252 94.50253799 33.64883423 94.52206421 C32.69568329 94.52428986 31.74253235 94.5265155 30.76049805 94.52880859 C29.28641983 94.53879379 29.28641983 94.53879379 27.78256226 94.54898071 C25.70296094 94.55910861 23.62332712 94.56379769 21.54370117 94.56347656 C18.36542012 94.567845 15.18853291 94.60415051 12.01049805 94.64208984 C9.98966946 94.64795893 7.96883428 94.65192771 5.94799805 94.65380859 C4.99889557 94.66817963 4.04979309 94.68255066 3.07192993 94.69735718 C-1.23636908 94.66759976 -3.62304873 94.59849811 -7.35522461 92.2890625 C-10.77395362 88.56309052 -10.43828697 85.34849256 -10.45556641 80.51782227 C-10.4621376 79.72576889 -10.4687088 78.93371552 -10.47547913 78.11766052 C-10.49522734 75.49038605 -10.50687804 72.86316877 -10.5168457 70.23583984 C-10.52092123 69.33924463 -10.52499676 68.44264942 -10.52919579 67.51888466 C-10.55006297 62.77341567 -10.5643619 58.02797566 -10.57373047 53.2824707 C-10.58479664 48.37954938 -10.61919695 43.4770817 -10.65890217 38.57432079 C-10.68504101 34.80564019 -10.69341986 31.03706811 -10.69701195 27.26830482 C-10.70188495 25.46099089 -10.71351924 23.65368203 -10.73204994 21.84645653 C-10.75638386 19.31597273 -10.75548721 16.78666836 -10.74853516 14.25610352 C-10.76134521 13.51046143 -10.77415527 12.76481934 -10.78735352 11.99658203 C-10.73848947 7.11326025 -9.76227918 4.6149469 -6.27856445 1.19287109 C-3.96594742 0.03656258 -2.57544344 0.04246872 0 0 Z M-3.98812866 6.22631836 C-6.73792834 9.78783525 -6.98944367 12.33362501 -6.92553711 16.65771484 C-6.93429871 17.39168488 -6.9430603 18.12565491 -6.9520874 18.88186646 C-6.97402453 21.29864298 -6.95955092 23.71357725 -6.94262695 26.13037109 C-6.94599677 27.81518911 -6.95085078 29.50000475 -6.9571228 31.18481445 C-6.96448635 34.71215001 -6.95380591 38.23885155 -6.93041992 41.76611328 C-6.90193172 46.28251103 -6.91833857 50.79742321 -6.94828224 55.31376648 C-6.96636965 58.79173938 -6.96059074 62.26936136 -6.94764328 65.74734497 C-6.94431322 67.41228411 -6.94838232 69.07725534 -6.96004105 70.74215698 C-6.97277454 73.07163593 -6.9533426 75.39872593 -6.92553711 77.72802734 C-6.93565826 78.41285187 -6.94577942 79.09767639 -6.95620728 79.80325317 C-6.87377377 83.54002298 -6.31981487 85.14003284 -3.99339294 88.11997986 C-1.35603339 90.13372015 -0.40952483 90.819357 2.80566406 90.82397461 C3.95694542 90.84277428 3.95694542 90.84277428 5.13148499 90.86195374 C5.94620773 90.84869553 6.76093048 90.83543732 7.6003418 90.82177734 C8.44942612 90.8241893 9.29851044 90.82660126 10.17332458 90.8290863 C11.96276536 90.8281095 13.75223696 90.81475545 15.54150391 90.78979492 C18.27895704 90.75543359 21.01318957 90.76915553 23.75073242 90.78857422 C25.4922826 90.78167677 27.23382447 90.7720053 28.9753418 90.75927734 C30.20046227 90.76671715 30.20046227 90.76671715 31.45033264 90.77430725 C34.79877343 90.70493363 37.15732319 90.59056076 39.93626404 88.63145447 C42.33199896 85.3588281 42.28362566 82.5468041 42.23901367 78.64208984 C42.24602295 77.8871524 42.25303223 77.13221497 42.26025391 76.35440063 C42.27783753 73.86268161 42.26621065 71.37210136 42.25268555 68.88037109 C42.25538038 67.14688906 42.25926272 65.4134085 42.26428223 63.67993164 C42.27017774 60.04835609 42.26161281 56.41717429 42.24291992 52.78564453 C42.22013008 48.13143065 42.23325292 43.47813938 42.25720978 38.82395935 C42.27166646 35.24484307 42.26706242 31.66594539 42.25669861 28.08682251 C42.25403095 26.37081798 42.25730248 24.65479358 42.26661682 22.93881226 C42.27678063 20.53989113 42.26128562 18.14246235 42.23901367 15.74365234 C42.2471106 15.03496002 42.25520752 14.3262677 42.2635498 13.59609985 C42.20551501 10.22070308 41.92361062 8.45979366 39.86096191 5.73657227 C37.2758397 3.87136684 35.84119637 3.846231 32.72143555 4.19287109 C32.28831055 5.64693359 32.28831055 5.64693359 31.84643555 7.13037109 C30.72143555 10.19287109 30.72143555 10.19287109 28.72143555 11.19287109 C25.08140444 11.45959925 21.43264955 11.42440828 17.78393555 11.44287109 C16.76879883 11.46349609 15.75366211 11.48412109 14.70776367 11.50537109 C13.73387695 11.51052734 12.75999023 11.51568359 11.7565918 11.52099609 C10.86335205 11.5303418 9.9701123 11.5396875 9.04980469 11.54931641 C6.2586137 11.12201864 5.40884671 10.4132372 3.72143555 8.19287109 C3.03393555 6.00537109 3.03393555 6.00537109 2.72143555 4.19287109 C-1.30997147 3.79271064 -1.30997147 3.79271064 -3.98812866 6.22631836 Z M7.72143555 4.19287109 C7.72143555 5.18287109 7.72143555 6.17287109 7.72143555 7.19287109 C14.32143555 7.19287109 20.92143555 7.19287109 27.72143555 7.19287109 C28.05143555 6.20287109 28.38143555 5.21287109 28.72143555 4.19287109 C21.79143555 4.19287109 14.86143555 4.19287109 7.72143555 4.19287109 Z " fill="#EF7B2E" transform="translate(45.278564453125,16.80712890625)"/>
<path d="M0 0 C1.03125 0.00322266 2.0625 0.00644531 3.125 0.00976562 C4.74535156 0.02233398 4.74535156 0.02233398 6.3984375 0.03515625 C8.03039062 0.04192383 8.03039062 0.04192383 9.6953125 0.04882812 C12.38807539 0.06063849 15.08072938 0.07710847 17.7734375 0.09765625 C18.1034375 1.74765625 18.4334375 3.39765625 18.7734375 5.09765625 C10.5234375 5.09765625 2.2734375 5.09765625 -6.2265625 5.09765625 C-6.5565625 3.77765625 -6.8865625 2.45765625 -7.2265625 1.09765625 C-4.66933021 -0.1809599 -2.85919148 -0.01570984 0 0 Z " fill="#EF7A2E" transform="translate(57.2265625,97.90234375)"/>
</svg>
