<?xml version="1.0" encoding="UTF-8"?>
<svg version="1.1" xmlns="http://www.w3.org/2000/svg" width="128" height="128">
<path d="M0 0 C0.87168823 -0.0065712 1.74337646 -0.0131424 2.64147949 -0.01991272 C5.53328532 -0.03966415 8.42503921 -0.05131143 11.31689453 -0.0612793 C12.30299839 -0.06535482 13.28910225 -0.06943035 14.30508804 -0.07362938 C19.52272585 -0.09449641 24.74033729 -0.10879629 29.95800781 -0.11816406 C35.35424986 -0.12923943 40.75008079 -0.16365056 46.14617729 -0.20333576 C50.28969098 -0.22944454 54.43310577 -0.23785071 58.57669449 -0.24144554 C60.56625271 -0.24632513 62.55580613 -0.25797791 64.54528427 -0.27648354 C67.32739895 -0.30075662 70.10843749 -0.2999319 72.890625 -0.29296875 C74.12668991 -0.31218384 74.12668991 -0.31218384 75.38772583 -0.33178711 C79.02925899 -0.29851071 81.12102012 -0.17134495 84.05496216 2.08137512 C86.33636497 5.22727746 86.70166906 6.94905047 86.71514893 10.78767395 C86.72085907 11.75923935 86.72656921 12.73080475 86.73245239 13.73181152 C86.73412918 15.33627136 86.73412918 15.33627136 86.73583984 16.97314453 C86.7432872 18.65865669 86.7432872 18.65865669 86.75088501 20.3782196 C86.76553451 24.10933028 86.77231337 27.84039844 86.77783203 31.5715332 C86.78358129 34.15744529 86.78933905 36.74335736 86.79510498 39.32926941 C86.80427737 44.06299019 86.81057438 48.79669389 86.81360173 53.53042203 C86.81808089 60.49602985 86.83562107 67.46144127 86.86460233 74.42698938 C86.88883354 80.46046605 86.89654656 86.49384991 86.89827728 92.52737999 C86.90130831 95.09384925 86.90935189 97.66031758 86.92246246 100.22675514 C86.93948647 103.81554728 86.9376513 107.40385983 86.93115234 110.99267578 C86.94036713 112.05624298 86.94958191 113.11981018 86.95907593 114.21560669 C86.90744075 123.30204379 86.90744075 123.30204379 83.57470703 127.17700195 C80.31826334 128.8052238 76.7288449 128.34238111 73.14941406 128.35400391 C72.27772583 128.3605751 71.4060376 128.3671463 70.50793457 128.37391663 C67.61612875 128.39366805 64.72437485 128.40531534 61.83251953 128.4152832 C60.84641567 128.41935873 59.86031181 128.42343426 58.84432602 128.42763329 C53.62668821 128.44850031 48.40907677 128.46280019 43.19140625 128.47216797 C37.7951642 128.48324333 32.39933328 128.51765446 27.00323677 128.55733967 C22.85972309 128.58344844 18.71630829 128.59185461 14.57271957 128.59544945 C12.58316135 128.60032903 10.59360793 128.61198181 8.60412979 128.63048744 C5.82201511 128.65476053 3.04097657 128.65393581 0.25878906 128.64697266 C-0.97727585 128.66618774 -0.97727585 128.66618774 -2.23831177 128.68579102 C-5.87984493 128.65251462 -7.97160606 128.52534885 -10.9055481 126.27262878 C-13.18695091 123.12672645 -13.552255 121.40495344 -13.56573486 117.56632996 C-13.57144501 116.59476456 -13.57715515 115.62319916 -13.58303833 114.62219238 C-13.58415619 113.55255249 -13.58527405 112.4829126 -13.58642578 111.38085938 C-13.59139069 110.2571846 -13.59635559 109.13350983 -13.60147095 107.9757843 C-13.61612045 104.24467362 -13.62289931 100.51360546 -13.62841797 96.7824707 C-13.63416723 94.19655862 -13.63992499 91.61064655 -13.64569092 89.0247345 C-13.65486331 84.29101372 -13.66116032 79.55731001 -13.66418767 74.82358187 C-13.66866683 67.85797406 -13.68620701 60.89256263 -13.71518826 53.92701453 C-13.73941948 47.89353785 -13.7471325 41.860154 -13.74886322 35.82662392 C-13.75189425 33.26015466 -13.75993783 30.69368632 -13.7730484 28.12724876 C-13.79007241 24.53845663 -13.78823724 20.95014408 -13.78173828 17.36132812 C-13.79095306 16.29776093 -13.80016785 15.23419373 -13.80966187 14.13839722 C-13.75802669 5.05196012 -13.75802669 5.05196012 -10.42529297 1.17700195 C-7.16884927 -0.45121989 -3.57943084 0.0116228 0 0 Z M-8.42529297 6.17700195 C-8.42529297 8.81700195 -8.42529297 11.45700195 -8.42529297 14.17700195 C21.27470703 14.17700195 50.97470703 14.17700195 81.57470703 14.17700195 C81.57470703 11.53700195 81.57470703 8.89700195 81.57470703 6.17700195 C77.82776706 3.67904197 74.90800892 3.89540787 70.57080078 3.91821289 C69.75588165 3.91470825 68.94096252 3.91120361 68.10134888 3.90759277 C65.40488187 3.89878296 62.70867676 3.90462194 60.01220703 3.91137695 C58.14038035 3.91003009 56.268554 3.90808937 54.39672852 3.90557861 C50.47262239 3.90262837 46.54860727 3.90692181 42.62451172 3.91625977 C37.59039567 3.92765423 32.55649287 3.92109423 27.52238464 3.90911484 C23.65684396 3.90189356 19.79135397 3.9041854 15.92581177 3.90937042 C14.06942723 3.91070618 12.21303812 3.90906179 10.35665894 3.90441132 C7.76385272 3.89934171 5.1713936 3.90706239 2.57861328 3.91821289 C1.80865021 3.91416443 1.03868713 3.91011597 0.24539185 3.90594482 C-3.5217503 3.93601281 -5.21029532 4.03367019 -8.42529297 6.17700195 Z M-8.42529297 18.17700195 C-8.42529297 48.53700195 -8.42529297 78.89700195 -8.42529297 110.17700195 C21.27470703 110.17700195 50.97470703 110.17700195 81.57470703 110.17700195 C81.57470703 79.81700195 81.57470703 49.45700195 81.57470703 18.17700195 C51.87470703 18.17700195 22.17470703 18.17700195 -8.42529297 18.17700195 Z M-8.42529297 114.17700195 C-8.42529297 116.81700195 -8.42529297 119.45700195 -8.42529297 122.17700195 C-4.678353 124.67496193 -1.75859485 124.45859603 2.57861328 124.43579102 C3.39353241 124.43929565 4.20845154 124.44280029 5.04806519 124.44641113 C7.74453219 124.45522094 10.4407373 124.44938196 13.13720703 124.44262695 C15.00903372 124.44397382 16.88086006 124.44591453 18.75268555 124.44842529 C22.67679167 124.45137554 26.60080679 124.4470821 30.52490234 124.43774414 C35.55901839 124.42634967 40.5929212 124.43290968 45.62702942 124.44488907 C49.4925701 124.45211034 53.3580601 124.4498185 57.22360229 124.44463348 C59.07998683 124.44329773 60.93637594 124.44494212 62.79275513 124.44959259 C65.38556134 124.45466219 67.97802047 124.44694152 70.57080078 124.43579102 C71.72574539 124.44186371 71.72574539 124.44186371 72.90402222 124.44805908 C76.67116437 124.4179911 78.35970938 124.32033372 81.57470703 122.17700195 C81.57470703 119.53700195 81.57470703 116.89700195 81.57470703 114.17700195 C51.87470703 114.17700195 22.17470703 114.17700195 -8.42529297 114.17700195 Z " fill="#EE7B2E" transform="translate(27.42529296875,-0.177001953125)"/>
<path d="M0 0 C5.94 0 11.88 0 18 0 C18 1.32 18 2.64 18 4 C12.06 4 6.12 4 0 4 C0 2.68 0 1.36 0 0 Z " fill="#EF782E" transform="translate(55,117)"/>
<path d="M0 0 C1.65 0.33 3.3 0.66 5 1 C4.67 2.65 4.34 4.3 4 6 C2.35 5.67 0.7 5.34 -1 5 C-0.67 3.35 -0.34 1.7 0 0 Z " fill="#EE7B2F" transform="translate(62,6)"/>
</svg>
