<svg width="69" height="68" viewBox="0 0 69 68" fill="none" xmlns="http://www.w3.org/2000/svg">
<g filter="url(#filter0_d_2108_1276)">
<rect x="15.604" y="11" width="37.7208" height="37.7208" rx="3" fill="#3D3D3D" shape-rendering="crispEdges"/>
<path d="M41.7891 27.6104V26.4854C41.7891 24.6214 40.3347 23.1104 38.5407 23.1104H35.1871C34.6091 23.1104 34.0416 22.9501 33.5432 22.6463L31.3748 21.3244C30.8764 21.0206 30.3089 20.8604 29.7309 20.8604H27.7127C25.9187 20.8604 24.4644 22.3714 24.4644 24.2354V35.4854C24.4644 37.3493 25.9187 38.8604 27.7127 38.8604H37.1712C38.6926 38.8604 40.1024 38.031 40.8852 36.6756L44.1524 31.018C45.0185 29.5183 43.9787 27.6104 42.2954 27.6104H41.7891ZM41.7891 27.6104H32.6931C30.9814 27.6104 29.4303 28.6577 28.7352 30.2827L25.5472 37.7354" stroke="#888888" stroke-linecap="round" stroke-linejoin="round"/>
</g>
<defs>
<filter id="filter0_d_2108_1276" x="0.604004" y="0" width="67.7207" height="67.7208" filterUnits="userSpaceOnUse" color-interpolation-filters="sRGB">
<feFlood flood-opacity="0" result="BackgroundImageFix"/>
<feColorMatrix in="SourceAlpha" type="matrix" values="0 0 0 0 0 0 0 0 0 0 0 0 0 0 0 0 0 0 127 0" result="hardAlpha"/>
<feOffset dy="4"/>
<feGaussianBlur stdDeviation="7.5"/>
<feComposite in2="hardAlpha" operator="out"/>
<feColorMatrix type="matrix" values="0 0 0 0 0.183333 0 0 0 0 0.183333 0 0 0 0 0.183333 0 0 0 0.25 0"/>
<feBlend mode="normal" in2="BackgroundImageFix" result="effect1_dropShadow_2108_1276"/>
<feBlend mode="normal" in="SourceGraphic" in2="effect1_dropShadow_2108_1276" result="shape"/>
</filter>
</defs>
</svg>
