<svg width="69" height="68" viewBox="0 0 69 68" fill="none" xmlns="http://www.w3.org/2000/svg">
<g filter="url(#filter0_d_2108_1257)">
<rect x="15.4414" y="11" width="37.7208" height="37.7208" rx="3" fill="#3D3D3D" shape-rendering="crispEdges"/>
<path d="M34.3018 31.3604V28.3604L44.19 28.3604C44.2636 28.8496 44.3018 29.3505 44.3018 29.8604C44.3018 35.3832 39.8246 39.8604 34.3018 39.8604C28.7789 39.8604 24.3018 35.3832 24.3018 29.8604C24.3018 24.3375 28.7789 19.8604 34.3018 19.8604C37.0632 19.8604 39.5632 20.9796 41.3728 22.7893L39.2515 24.9106C37.9848 23.6439 36.2348 22.8604 34.3018 22.8604C30.4358 22.8604 27.3018 25.9944 27.3018 29.8604C27.3018 33.7263 30.4358 36.8604 34.3018 36.8604C37.6529 36.8604 40.454 34.5055 41.1407 31.3604H34.3018Z" stroke="#888888" stroke-linecap="round" stroke-linejoin="round"/>
</g>
<defs>
<filter id="filter0_d_2108_1257" x="0.441406" y="0" width="67.7207" height="67.7207" filterUnits="userSpaceOnUse" color-interpolation-filters="sRGB">
<feFlood flood-opacity="0" result="BackgroundImageFix"/>
<feColorMatrix in="SourceAlpha" type="matrix" values="0 0 0 0 0 0 0 0 0 0 0 0 0 0 0 0 0 0 127 0" result="hardAlpha"/>
<feOffset dy="4"/>
<feGaussianBlur stdDeviation="7.5"/>
<feComposite in2="hardAlpha" operator="out"/>
<feColorMatrix type="matrix" values="0 0 0 0 0.183333 0 0 0 0 0.183333 0 0 0 0 0.183333 0 0 0 0.25 0"/>
<feBlend mode="normal" in2="BackgroundImageFix" result="effect1_dropShadow_2108_1257"/>
<feBlend mode="normal" in="SourceGraphic" in2="effect1_dropShadow_2108_1257" result="shape"/>
</filter>
</defs>
</svg>
