<svg width="69" height="68" viewBox="0 0 69 68" fill="none" xmlns="http://www.w3.org/2000/svg">
<g filter="url(#filter0_d_2108_1216)">
<rect x="15.7207" y="11" width="37.7208" height="37.7208" rx="3" fill="#3D3D3D" shape-rendering="crispEdges"/>
<path d="M30.7207 34.3604H30.2207C30.2207 34.5353 30.3122 34.6976 30.4619 34.7882C30.6117 34.8787 30.7979 34.8844 30.9529 34.8032L30.7207 34.3604ZM24.2207 39.8604C24.2207 40.1365 24.4446 40.3604 24.7207 40.3604C24.9968 40.3604 25.2207 40.1365 25.2207 39.8604H24.2207ZM33.9635 32.6604L34.1957 33.1032L34.2142 33.0935L34.2319 33.0822L33.9635 32.6604ZM35.512 35.1158L35.7468 35.5572L35.7622 35.549L35.777 35.5398L35.512 35.1158ZM31.485 37.2577L31.2502 36.8162L31.2348 36.8244L31.22 36.8337L31.485 37.2577ZM28.6885 36.554L29.1226 36.3059H29.1226L28.6885 36.554ZM28.1548 34.6123C28.0178 34.3725 27.7124 34.2892 27.4726 34.4262C27.2329 34.5632 27.1496 34.8687 27.2866 35.1084L28.1548 34.6123ZM35.9874 33.1382L36.4161 32.8809L35.9874 33.1382ZM31.2207 37.8604C31.2207 37.5842 30.9968 37.3604 30.7207 37.3604C30.4446 37.3604 30.2207 37.5842 30.2207 37.8604H31.2207ZM30.2207 39.8604C30.2207 40.1365 30.4446 40.3604 30.7207 40.3604C30.9968 40.3604 31.2207 40.1365 31.2207 39.8604H30.2207ZM35.7989 32.0919L35.5304 32.5137L36.3741 33.0506L36.6425 32.6288L35.7989 32.0919ZM40.1425 27.1288C40.2908 26.8958 40.2221 26.5868 39.9891 26.4385C39.7562 26.2903 39.4471 26.3589 39.2989 26.5919L40.1425 27.1288ZM28.2207 22.3604C28.2207 22.6365 28.4446 22.8604 28.7207 22.8604C28.9968 22.8604 29.2207 22.6365 29.2207 22.3604H28.2207ZM41.7207 29.3604C41.4446 29.3604 41.2207 29.5842 41.2207 29.8604C41.2207 30.1365 41.4446 30.3604 41.7207 30.3604V29.3604ZM32.7207 23.3604C32.4446 23.3604 32.2207 23.5842 32.2207 23.8604C32.2207 24.1365 32.4446 24.3604 32.7207 24.3604V23.3604ZM40.7207 24.3604C40.9968 24.3604 41.2207 24.1365 41.2207 23.8604C41.2207 23.5842 40.9968 23.3604 40.7207 23.3604V24.3604ZM32.7207 26.3604C32.4446 26.3604 32.2207 26.5842 32.2207 26.8604C32.2207 27.1365 32.4446 27.3604 32.7207 27.3604V26.3604ZM36.7207 27.3604C36.9968 27.3604 37.2207 27.1365 37.2207 26.8604C37.2207 26.5842 36.9968 26.3604 36.7207 26.3604V27.3604ZM29.7207 26.8604H29.2207C29.2207 27.6888 28.5491 28.3604 27.7207 28.3604V28.8604V29.3604C29.1014 29.3604 30.2207 28.2411 30.2207 26.8604H29.7207ZM27.7207 28.8604V28.3604C26.8923 28.3604 26.2207 27.6888 26.2207 26.8604H25.7207H25.2207C25.2207 28.2411 26.34 29.3604 27.7207 29.3604V28.8604ZM25.7207 26.8604H26.2207C26.2207 26.0319 26.8923 25.3604 27.7207 25.3604V24.8604V24.3604C26.34 24.3604 25.2207 25.4796 25.2207 26.8604H25.7207ZM27.7207 24.8604V25.3604C28.5491 25.3604 29.2207 26.0319 29.2207 26.8604H29.7207H30.2207C30.2207 25.4796 29.1014 24.3604 27.7207 24.3604V24.8604ZM30.7207 34.3604H31.2207V33.8604H30.7207H30.2207V34.3604H30.7207ZM24.7207 33.8604H24.2207V39.8604H24.7207H25.2207V33.8604H24.7207ZM30.7207 34.3604L30.9529 34.8032L34.1957 33.1032L33.9635 32.6604L33.7314 32.2175L30.4886 33.9175L30.7207 34.3604ZM35.512 35.1158L35.2772 34.6743L31.2502 36.8162L31.485 37.2577L31.7198 37.6991L35.7468 35.5572L35.512 35.1158ZM28.6885 36.554L29.1226 36.3059L28.1548 34.6123L27.7207 34.8604L27.2866 35.1084L28.2544 36.802L28.6885 36.554ZM33.9635 32.6604L34.2319 33.0822C34.6835 32.7948 35.2832 32.9364 35.5586 33.3954L35.9874 33.1382L36.4161 32.8809C35.8513 31.9395 34.6213 31.6491 33.6951 32.2386L33.9635 32.6604ZM31.485 37.2577L31.22 36.8337C30.4978 37.2851 29.5451 37.0453 29.1226 36.3059L28.6885 36.554L28.2544 36.802C28.9586 38.0344 30.5463 38.434 31.75 37.6817L31.485 37.2577ZM24.7207 33.8604H25.2207C25.2207 32.4796 26.34 31.3604 27.7207 31.3604V30.8604V30.3604C25.7877 30.3604 24.2207 31.9274 24.2207 33.8604H24.7207ZM35.9874 33.1382L35.5586 33.3954C35.8255 33.8402 35.6869 34.4168 35.247 34.6918L35.512 35.1158L35.777 35.5398C36.6793 34.9759 36.9635 33.7932 36.4161 32.8809L35.9874 33.1382ZM30.7207 33.8604H31.2207C31.2207 31.9274 29.6537 30.3604 27.7207 30.3604V30.8604V31.3604C29.1014 31.3604 30.2207 32.4796 30.2207 33.8604H30.7207ZM30.7207 37.8604H30.2207V39.8604H30.7207H31.2207V37.8604H30.7207ZM36.2207 32.3604L36.6425 32.6288L40.1425 27.1288L39.7207 26.8604L39.2989 26.5919L35.7989 32.0919L36.2207 32.3604ZM28.7207 22.3604H29.2207V21.8604H28.7207H28.2207V22.3604H28.7207ZM30.7207 19.8604V20.3604H42.7207V19.8604V19.3604H30.7207V19.8604ZM44.7207 21.8604H44.2207V27.8604H44.7207H45.2207V21.8604H44.7207ZM42.7207 29.8604V29.3604H41.7207V29.8604V30.3604H42.7207V29.8604ZM44.7207 27.8604H44.2207C44.2207 28.6888 43.5491 29.3604 42.7207 29.3604V29.8604V30.3604C44.1014 30.3604 45.2207 29.2411 45.2207 27.8604H44.7207ZM42.7207 19.8604V20.3604C43.5491 20.3604 44.2207 21.0319 44.2207 21.8604H44.7207H45.2207C45.2207 20.4796 44.1014 19.3604 42.7207 19.3604V19.8604ZM28.7207 21.8604H29.2207C29.2207 21.0319 29.8923 20.3604 30.7207 20.3604V19.8604V19.3604C29.34 19.3604 28.2207 20.4796 28.2207 21.8604H28.7207ZM32.7207 23.8604V24.3604H40.7207V23.8604V23.3604H32.7207V23.8604ZM32.7207 26.8604V27.3604H36.7207V26.8604V26.3604H32.7207V26.8604Z" fill="#888888"/>
</g>
<defs>
<filter id="filter0_d_2108_1216" x="0.720703" y="0" width="67.7207" height="67.7208" filterUnits="userSpaceOnUse" color-interpolation-filters="sRGB">
<feFlood flood-opacity="0" result="BackgroundImageFix"/>
<feColorMatrix in="SourceAlpha" type="matrix" values="0 0 0 0 0 0 0 0 0 0 0 0 0 0 0 0 0 0 127 0" result="hardAlpha"/>
<feOffset dy="4"/>
<feGaussianBlur stdDeviation="7.5"/>
<feComposite in2="hardAlpha" operator="out"/>
<feColorMatrix type="matrix" values="0 0 0 0 0.183333 0 0 0 0 0.183333 0 0 0 0 0.183333 0 0 0 0.25 0"/>
<feBlend mode="normal" in2="BackgroundImageFix" result="effect1_dropShadow_2108_1216"/>
<feBlend mode="normal" in="SourceGraphic" in2="effect1_dropShadow_2108_1216" result="shape"/>
</filter>
</defs>
</svg>
