<svg width="68" height="68" viewBox="0 0 68 68" fill="none" xmlns="http://www.w3.org/2000/svg">
<g filter="url(#filter0_d_2108_1129)">
<rect x="15.1624" y="11" width="37.7208" height="37.7208" rx="3" fill="#3D3D3D" shape-rendering="crispEdges"/>
<path d="M39.0227 34.8604V35.8576C39.0227 37.505 37.1412 38.4453 35.8227 37.4569L31.5559 34.2583C31.2098 33.9988 30.7889 33.8585 30.3563 33.8585H28.0227C26.9181 33.8585 26.0227 32.9635 26.0227 31.8594V27.8613C26.0227 26.7572 26.9181 25.8622 28.0227 25.8622H30.0245M39.0227 34.8604L42.0227 37.8604M39.0227 34.8604L30.0245 25.8622M26.0227 21.8604L30.0245 25.8622M32.7383 24.576L35.8227 22.2638C37.1412 21.2754 39.0227 22.2157 39.0227 23.8631V30.8604" stroke="#888888" stroke-linecap="round" stroke-linejoin="round"/>
</g>
<defs>
<filter id="filter0_d_2108_1129" x="0.162354" y="0" width="67.7207" height="67.7207" filterUnits="userSpaceOnUse" color-interpolation-filters="sRGB">
<feFlood flood-opacity="0" result="BackgroundImageFix"/>
<feColorMatrix in="SourceAlpha" type="matrix" values="0 0 0 0 0 0 0 0 0 0 0 0 0 0 0 0 0 0 127 0" result="hardAlpha"/>
<feOffset dy="4"/>
<feGaussianBlur stdDeviation="7.5"/>
<feComposite in2="hardAlpha" operator="out"/>
<feColorMatrix type="matrix" values="0 0 0 0 0.183333 0 0 0 0 0.183333 0 0 0 0 0.183333 0 0 0 0.25 0"/>
<feBlend mode="normal" in2="BackgroundImageFix" result="effect1_dropShadow_2108_1129"/>
<feBlend mode="normal" in="SourceGraphic" in2="effect1_dropShadow_2108_1129" result="shape"/>
</filter>
</defs>
</svg>
