<svg width="69" height="68" viewBox="0 0 69 68" fill="none" xmlns="http://www.w3.org/2000/svg">
<g filter="url(#filter0_d_2108_1131)">
<rect x="15.8831" y="11" width="37.7208" height="37.7208" rx="3" fill="#3D3D3D" shape-rendering="crispEdges"/>
<path d="M44.7434 31.8604L42.7434 29.8604M42.7434 29.8604L40.7434 27.8604M42.7434 29.8604L44.7434 27.8604M42.7434 29.8604L40.7434 31.8604M30.2766 25.4624L34.5434 22.2638C35.8619 21.2754 37.7434 22.2157 37.7434 23.8631V35.8576C37.7434 37.505 35.8619 38.4453 34.5434 37.4569L30.2766 34.2583C29.9305 33.9988 29.5096 33.8585 29.077 33.8585H26.7434C25.6388 33.8585 24.7434 32.9635 24.7434 31.8594V27.8613C24.7434 26.7572 25.6388 25.8622 26.7434 25.8622H29.077C29.5096 25.8622 29.9305 25.7219 30.2766 25.4624Z" stroke="#888888" stroke-linecap="round" stroke-linejoin="round"/>
</g>
<defs>
<filter id="filter0_d_2108_1131" x="0.883057" y="0" width="67.7209" height="67.7207" filterUnits="userSpaceOnUse" color-interpolation-filters="sRGB">
<feFlood flood-opacity="0" result="BackgroundImageFix"/>
<feColorMatrix in="SourceAlpha" type="matrix" values="0 0 0 0 0 0 0 0 0 0 0 0 0 0 0 0 0 0 127 0" result="hardAlpha"/>
<feOffset dy="4"/>
<feGaussianBlur stdDeviation="7.5"/>
<feComposite in2="hardAlpha" operator="out"/>
<feColorMatrix type="matrix" values="0 0 0 0 0.183333 0 0 0 0 0.183333 0 0 0 0 0.183333 0 0 0 0.25 0"/>
<feBlend mode="normal" in2="BackgroundImageFix" result="effect1_dropShadow_2108_1131"/>
<feBlend mode="normal" in="SourceGraphic" in2="effect1_dropShadow_2108_1131" result="shape"/>
</filter>
</defs>
</svg>
