<svg width="69" height="68" viewBox="0 0 69 68" fill="none" xmlns="http://www.w3.org/2000/svg">
<g filter="url(#filter0_d_2108_1222)">
<rect x="15.8831" y="11" width="37.7208" height="37.7208" rx="3" fill="#3D3D3D" shape-rendering="crispEdges"/>
<path d="M42.7434 28.8604H26.7434M42.7434 28.8604C43.848 28.8604 44.7434 29.7558 44.7434 30.8604V34.8604C44.7434 37.0695 42.9525 38.8604 40.7434 38.8604H28.7434C26.5343 38.8604 24.7434 37.0695 24.7434 34.8604V30.8604C24.7434 29.7558 25.6388 28.8604 26.7434 28.8604M42.7434 28.8604V26.8604C42.7434 25.7558 41.848 24.8604 40.7434 24.8604M26.7434 28.8604V26.8604C26.7434 25.7558 27.6388 24.8604 28.7434 24.8604M40.7434 24.8604H28.7434M40.7434 24.8604V22.8604C40.7434 21.7558 39.848 20.8604 38.7434 20.8604H30.7434C29.6388 20.8604 28.7434 21.7558 28.7434 22.8604V24.8604M32.7434 31.8604H36.7434" stroke="#888888" stroke-linecap="round"/>
</g>
<defs>
<filter id="filter0_d_2108_1222" x="0.883057" y="0" width="67.7209" height="67.7208" filterUnits="userSpaceOnUse" color-interpolation-filters="sRGB">
<feFlood flood-opacity="0" result="BackgroundImageFix"/>
<feColorMatrix in="SourceAlpha" type="matrix" values="0 0 0 0 0 0 0 0 0 0 0 0 0 0 0 0 0 0 127 0" result="hardAlpha"/>
<feOffset dy="4"/>
<feGaussianBlur stdDeviation="7.5"/>
<feComposite in2="hardAlpha" operator="out"/>
<feColorMatrix type="matrix" values="0 0 0 0 0.183333 0 0 0 0 0.183333 0 0 0 0 0.183333 0 0 0 0.25 0"/>
<feBlend mode="normal" in2="BackgroundImageFix" result="effect1_dropShadow_2108_1222"/>
<feBlend mode="normal" in="SourceGraphic" in2="effect1_dropShadow_2108_1222" result="shape"/>
</filter>
</defs>
</svg>
