<svg width="69" height="68" viewBox="0 0 69 68" fill="none" xmlns="http://www.w3.org/2000/svg">
<g filter="url(#filter0_d_2108_1190)">
<rect x="15.7207" y="11" width="37.7208" height="37.7208" rx="3" fill="#3D3D3D" shape-rendering="crispEdges"/>
<path d="M36.5811 29.8604C36.5811 30.9649 35.6856 31.8604 34.5811 31.8604C33.4765 31.8604 32.5811 30.9649 32.5811 29.8604C32.5811 28.7558 33.4765 27.8604 34.5811 27.8604C35.6856 27.8604 36.5811 28.7558 36.5811 29.8604Z" stroke="#888888"/>
<path d="M36.5811 21.8604C36.5811 22.9649 35.6856 23.8604 34.5811 23.8604C33.4765 23.8604 32.5811 22.9649 32.5811 21.8604C32.5811 20.7558 33.4765 19.8604 34.5811 19.8604C35.6856 19.8604 36.5811 20.7558 36.5811 21.8604Z" stroke="#888888"/>
<path d="M36.5811 37.8604C36.5811 38.9649 35.6856 39.8604 34.5811 39.8604C33.4765 39.8604 32.5811 38.9649 32.5811 37.8604C32.5811 36.7558 33.4765 35.8604 34.5811 35.8604C35.6856 35.8604 36.5811 36.7558 36.5811 37.8604Z" stroke="#888888"/>
</g>
<defs>
<filter id="filter0_d_2108_1190" x="0.720703" y="0" width="67.7207" height="67.7208" filterUnits="userSpaceOnUse" color-interpolation-filters="sRGB">
<feFlood flood-opacity="0" result="BackgroundImageFix"/>
<feColorMatrix in="SourceAlpha" type="matrix" values="0 0 0 0 0 0 0 0 0 0 0 0 0 0 0 0 0 0 127 0" result="hardAlpha"/>
<feOffset dy="4"/>
<feGaussianBlur stdDeviation="7.5"/>
<feComposite in2="hardAlpha" operator="out"/>
<feColorMatrix type="matrix" values="0 0 0 0 0.183333 0 0 0 0 0.183333 0 0 0 0 0.183333 0 0 0 0.25 0"/>
<feBlend mode="normal" in2="BackgroundImageFix" result="effect1_dropShadow_2108_1190"/>
<feBlend mode="normal" in="SourceGraphic" in2="effect1_dropShadow_2108_1190" result="shape"/>
</filter>
</defs>
</svg>
