<svg width="68" height="68" viewBox="0 0 68 68" fill="none" xmlns="http://www.w3.org/2000/svg">
<g filter="url(#filter0_d_2108_1103)">
<rect x="15.1624" y="11" width="37.7208" height="37.7208" rx="3" fill="#3D3D3D" shape-rendering="crispEdges"/>
<path d="M38.0227 25.8604H30.0227C27.8136 25.8604 26.0227 27.6512 26.0227 29.8604V35.8604C26.0227 38.0695 27.8136 39.8604 30.0227 39.8604H38.0227C40.2318 39.8604 42.0227 38.0695 42.0227 35.8604V29.8604C42.0227 27.6512 40.2318 25.8604 38.0227 25.8604ZM38.0227 25.8604L38.0227 23.8604C38.0227 21.6512 36.2319 19.8604 34.0227 19.8604C32.5422 19.8604 31.2495 20.6647 30.5579 21.8604M36.0227 32.8604C36.0227 33.9649 35.1273 34.8604 34.0227 34.8604C32.9181 34.8604 32.0227 33.9649 32.0227 32.8604C32.0227 31.7558 32.9181 30.8604 34.0227 30.8604C35.1273 30.8604 36.0227 31.7558 36.0227 32.8604Z" stroke="#888888" stroke-linecap="round" stroke-linejoin="round"/>
</g>
<defs>
<filter id="filter0_d_2108_1103" x="0.162354" y="0" width="67.7207" height="67.7208" filterUnits="userSpaceOnUse" color-interpolation-filters="sRGB">
<feFlood flood-opacity="0" result="BackgroundImageFix"/>
<feColorMatrix in="SourceAlpha" type="matrix" values="0 0 0 0 0 0 0 0 0 0 0 0 0 0 0 0 0 0 127 0" result="hardAlpha"/>
<feOffset dy="4"/>
<feGaussianBlur stdDeviation="7.5"/>
<feComposite in2="hardAlpha" operator="out"/>
<feColorMatrix type="matrix" values="0 0 0 0 0.183333 0 0 0 0 0.183333 0 0 0 0 0.183333 0 0 0 0.25 0"/>
<feBlend mode="normal" in2="BackgroundImageFix" result="effect1_dropShadow_2108_1103"/>
<feBlend mode="normal" in="SourceGraphic" in2="effect1_dropShadow_2108_1103" result="shape"/>
</filter>
</defs>
</svg>
