<svg width="69" height="68" viewBox="0 0 69 68" fill="none" xmlns="http://www.w3.org/2000/svg">
<g filter="url(#filter0_d_2108_1125)">
<rect x="15.7207" y="11" width="37.7208" height="37.7208" rx="3" fill="#3D3D3D" shape-rendering="crispEdges"/>
<path d="M24.5811 19.8604L44.5811 39.8604" stroke="#888888" stroke-linecap="round"/>
<path d="M25.5811 33.8604C25.5811 32.2035 26.9242 30.8604 28.5811 30.8604C30.2379 30.8604 31.5811 32.2035 31.5811 33.8604V35.8604C31.5811 37.5172 30.2379 38.8604 28.5811 38.8604C26.9242 38.8604 25.5811 37.5172 25.5811 35.8604V33.8604Z" stroke="#888888"/>
<path d="M38.1475 36.4268C38.3619 37.3519 39.0887 38.0781 40.0137 38.293L41.0488 39.3281C40.8958 39.3486 40.7397 39.3604 40.5811 39.3604C38.6481 39.3604 37.0811 37.7933 37.0811 35.8604V35.3604L38.1475 36.4268ZM40.5811 30.3604C42.5141 30.3604 44.0811 31.9274 44.0811 33.8604V35.8604C44.0811 36.019 44.0693 36.1751 44.0488 36.3281L43.0811 35.3604V33.8604C43.0811 32.4796 41.9618 31.3604 40.5811 31.3604C40.1478 31.3604 39.74 31.4701 39.3848 31.6641L38.6572 30.9365C39.2093 30.5725 39.8703 30.3604 40.5811 30.3604Z" fill="#888888"/>
<path d="M28.0918 24.3711C26.8377 25.8521 26.0811 27.7677 26.0811 29.8604V34.3604H25.0811V29.8604C25.0811 27.4915 25.9488 25.3259 27.3828 23.6621L28.0918 24.3711ZM34.5811 20.3604C39.8278 20.3604 44.0811 24.6136 44.0811 29.8604V34.3604H43.0811V29.8604C43.0811 25.1659 39.2755 21.3604 34.5811 21.3604C33.0035 21.3604 31.5269 21.7912 30.2607 22.54L29.5332 21.8125C30.9958 20.8932 32.726 20.3604 34.5811 20.3604Z" fill="#888888"/>
</g>
<defs>
<filter id="filter0_d_2108_1125" x="0.720703" y="0" width="67.7207" height="67.7207" filterUnits="userSpaceOnUse" color-interpolation-filters="sRGB">
<feFlood flood-opacity="0" result="BackgroundImageFix"/>
<feColorMatrix in="SourceAlpha" type="matrix" values="0 0 0 0 0 0 0 0 0 0 0 0 0 0 0 0 0 0 127 0" result="hardAlpha"/>
<feOffset dy="4"/>
<feGaussianBlur stdDeviation="7.5"/>
<feComposite in2="hardAlpha" operator="out"/>
<feColorMatrix type="matrix" values="0 0 0 0 0.183333 0 0 0 0 0.183333 0 0 0 0 0.183333 0 0 0 0.25 0"/>
<feBlend mode="normal" in2="BackgroundImageFix" result="effect1_dropShadow_2108_1125"/>
<feBlend mode="normal" in="SourceGraphic" in2="effect1_dropShadow_2108_1125" result="shape"/>
</filter>
</defs>
</svg>
