<svg width="69" height="68" viewBox="0 0 69 68" fill="none" xmlns="http://www.w3.org/2000/svg">
<g filter="url(#filter0_d_2108_1114)">
<rect x="15.4414" y="11" width="37.7208" height="37.7208" rx="3" fill="#3D3D3D" shape-rendering="crispEdges"/>
<path d="M30.9329 28.2948C30.3583 27.1478 29.172 26.3604 27.8018 26.3604C25.8688 26.3604 24.3018 27.9274 24.3018 29.8604C24.3018 31.7933 25.8688 33.3604 27.8018 33.3604C29.172 33.3604 30.3583 32.5729 30.9329 31.4259M30.9329 28.2948C31.1689 28.7658 31.3018 29.2976 31.3018 29.8604C31.3018 30.4231 31.1689 30.9549 30.9329 31.4259M30.9329 28.2948L37.6706 24.9259M30.9329 31.4259L37.6706 34.7948M37.6706 24.9259C38.2452 26.0729 39.4315 26.8604 40.8018 26.8604C42.7348 26.8604 44.3018 25.2933 44.3018 23.3604C44.3018 21.4274 42.7348 19.8604 40.8018 19.8604C38.8688 19.8604 37.3018 21.4274 37.3018 23.3604C37.3018 23.9231 37.4346 24.4549 37.6706 24.9259ZM37.6706 34.7948C37.4346 35.2658 37.3018 35.7976 37.3018 36.3604C37.3018 38.2933 38.8688 39.8604 40.8018 39.8604C42.7348 39.8604 44.3018 38.2933 44.3018 36.3604C44.3018 34.4274 42.7348 32.8604 40.8018 32.8604C39.4315 32.8604 38.2452 33.6478 37.6706 34.7948Z" stroke="#888888" stroke-linecap="round"/>
</g>
<defs>
<filter id="filter0_d_2108_1114" x="0.441406" y="0" width="67.7207" height="67.7208" filterUnits="userSpaceOnUse" color-interpolation-filters="sRGB">
<feFlood flood-opacity="0" result="BackgroundImageFix"/>
<feColorMatrix in="SourceAlpha" type="matrix" values="0 0 0 0 0 0 0 0 0 0 0 0 0 0 0 0 0 0 127 0" result="hardAlpha"/>
<feOffset dy="4"/>
<feGaussianBlur stdDeviation="7.5"/>
<feComposite in2="hardAlpha" operator="out"/>
<feColorMatrix type="matrix" values="0 0 0 0 0.183333 0 0 0 0 0.183333 0 0 0 0 0.183333 0 0 0 0.25 0"/>
<feBlend mode="normal" in2="BackgroundImageFix" result="effect1_dropShadow_2108_1114"/>
<feBlend mode="normal" in="SourceGraphic" in2="effect1_dropShadow_2108_1114" result="shape"/>
</filter>
</defs>
</svg>
