<svg width="69" height="68" viewBox="0 0 69 68" fill="none" xmlns="http://www.w3.org/2000/svg">
<g filter="url(#filter0_d_2108_1133)">
<rect x="15.604" y="11" width="37.7208" height="37.7208" rx="3" fill="#3D3D3D" shape-rendering="crispEdges"/>
<path d="M44.4644 29.8604H40.4644M29.9976 25.4624L34.2644 22.2638C35.5828 21.2754 37.4644 22.2157 37.4644 23.8631V35.8576C37.4644 37.505 35.5828 38.4453 34.2644 37.4569L29.9976 34.2583C29.6515 33.9988 29.2305 33.8585 28.7979 33.8585H26.4644C25.3598 33.8585 24.4644 32.9635 24.4644 31.8594V27.8613C24.4644 26.7572 25.3598 25.8622 26.4644 25.8622H28.7979C29.2305 25.8622 29.6515 25.7219 29.9976 25.4624Z" stroke="#888888" stroke-linecap="round" stroke-linejoin="round"/>
</g>
<defs>
<filter id="filter0_d_2108_1133" x="0.604004" y="0" width="67.7207" height="67.7207" filterUnits="userSpaceOnUse" color-interpolation-filters="sRGB">
<feFlood flood-opacity="0" result="BackgroundImageFix"/>
<feColorMatrix in="SourceAlpha" type="matrix" values="0 0 0 0 0 0 0 0 0 0 0 0 0 0 0 0 0 0 127 0" result="hardAlpha"/>
<feOffset dy="4"/>
<feGaussianBlur stdDeviation="7.5"/>
<feComposite in2="hardAlpha" operator="out"/>
<feColorMatrix type="matrix" values="0 0 0 0 0.183333 0 0 0 0 0.183333 0 0 0 0 0.183333 0 0 0 0.25 0"/>
<feBlend mode="normal" in2="BackgroundImageFix" result="effect1_dropShadow_2108_1133"/>
<feBlend mode="normal" in="SourceGraphic" in2="effect1_dropShadow_2108_1133" result="shape"/>
</filter>
</defs>
</svg>
