<svg width="68" height="68" viewBox="0 0 68 68" fill="none" xmlns="http://www.w3.org/2000/svg">
<g filter="url(#filter0_d_2108_1188)">
<rect x="15" y="11" width="37.7208" height="37.7208" rx="3" fill="#3D3D3D" shape-rendering="crispEdges"/>
<path d="M31.8604 23.8604H37.8604M31.8604 31.8604H37.8604M31.8604 27.8604H43.8604M31.8604 35.8604H43.8604M25.8604 27.8604C24.7558 27.8604 23.8604 26.9649 23.8604 25.8604C23.8604 24.7558 24.7558 23.8604 25.8604 23.8604C26.9649 23.8604 27.8604 24.7558 27.8604 25.8604C27.8604 26.9649 26.9649 27.8604 25.8604 27.8604ZM25.8604 35.8604C24.7558 35.8604 23.8604 34.9649 23.8604 33.8604C23.8604 32.7558 24.7558 31.8604 25.8604 31.8604C26.9649 31.8604 27.8604 32.7558 27.8604 33.8604C27.8604 34.9649 26.9649 35.8604 25.8604 35.8604Z" stroke="#888888" stroke-linecap="round"/>
</g>
<defs>
<filter id="filter0_d_2108_1188" x="0" y="0" width="67.7207" height="67.7208" filterUnits="userSpaceOnUse" color-interpolation-filters="sRGB">
<feFlood flood-opacity="0" result="BackgroundImageFix"/>
<feColorMatrix in="SourceAlpha" type="matrix" values="0 0 0 0 0 0 0 0 0 0 0 0 0 0 0 0 0 0 127 0" result="hardAlpha"/>
<feOffset dy="4"/>
<feGaussianBlur stdDeviation="7.5"/>
<feComposite in2="hardAlpha" operator="out"/>
<feColorMatrix type="matrix" values="0 0 0 0 0.183333 0 0 0 0 0.183333 0 0 0 0 0.183333 0 0 0 0.25 0"/>
<feBlend mode="normal" in2="BackgroundImageFix" result="effect1_dropShadow_2108_1188"/>
<feBlend mode="normal" in="SourceGraphic" in2="effect1_dropShadow_2108_1188" result="shape"/>
</filter>
</defs>
</svg>
