<svg width="69" height="68" viewBox="0 0 69 68" fill="none" xmlns="http://www.w3.org/2000/svg">
<g filter="url(#filter0_d_2108_1151)">
<rect x="15.7207" y="11" width="37.7208" height="37.7208" rx="3" fill="#3D3D3D" shape-rendering="crispEdges"/>
<path d="M35.5811 19.8604V23.8604C35.5811 26.0695 37.3719 27.8604 39.5811 27.8604L43.5811 27.8604M25.5811 23.8604L25.5811 35.8604C25.5811 38.0695 27.3719 39.8604 29.5811 39.8604H39.5811C41.7902 39.8604 43.5811 38.0695 43.5811 35.8604V29.5172C43.5811 28.4563 43.1596 27.4389 42.4095 26.6888L36.7526 21.0319C36.0025 20.2818 34.9851 19.8604 33.9242 19.8604L29.5811 19.8604C27.3719 19.8604 25.5811 21.6512 25.5811 23.8604Z" stroke="#888888" stroke-linejoin="round"/>
<path d="M28.4834 31.4922H30.0684C30.4258 31.4922 30.6982 31.5195 30.8857 31.5742C31.1377 31.6484 31.3535 31.7803 31.5332 31.9697C31.7129 32.1592 31.8496 32.3916 31.9434 32.667C32.0371 32.9404 32.084 33.2783 32.084 33.6807C32.084 34.0342 32.04 34.3389 31.9521 34.5947C31.8447 34.9072 31.6914 35.1602 31.4922 35.3535C31.3418 35.5 31.1387 35.6143 30.8828 35.6963C30.6914 35.7568 30.4355 35.7871 30.1152 35.7871H28.4834V31.4922ZM29.3506 32.2188V35.0635H29.998C30.2402 35.0635 30.415 35.0498 30.5225 35.0225C30.6631 34.9873 30.7793 34.9277 30.8711 34.8438C30.9648 34.7598 31.041 34.6221 31.0996 34.4307C31.1582 34.2373 31.1875 33.9746 31.1875 33.6426C31.1875 33.3105 31.1582 33.0557 31.0996 32.8779C31.041 32.7002 30.959 32.5615 30.8535 32.4619C30.748 32.3623 30.6143 32.2949 30.4521 32.2598C30.3311 32.2324 30.0938 32.2188 29.7402 32.2188H29.3506Z" fill="#888888"/>
<path d="M32.6465 33.666C32.6465 33.2285 32.7119 32.8613 32.8428 32.5645C32.9404 32.3457 33.0732 32.1494 33.2412 31.9756C33.4111 31.8018 33.5967 31.6729 33.7979 31.5889C34.0654 31.4756 34.374 31.4189 34.7236 31.4189C35.3564 31.4189 35.8623 31.6152 36.2412 32.0078C36.6221 32.4004 36.8125 32.9463 36.8125 33.6455C36.8125 34.3389 36.624 34.8818 36.2471 35.2744C35.8701 35.665 35.3662 35.8604 34.7354 35.8604C34.0967 35.8604 33.5889 35.666 33.2119 35.2773C32.835 34.8867 32.6465 34.3496 32.6465 33.666ZM33.54 33.6367C33.54 34.123 33.6523 34.4922 33.877 34.7441C34.1016 34.9941 34.3867 35.1191 34.7324 35.1191C35.0781 35.1191 35.3613 34.9951 35.582 34.7471C35.8047 34.4971 35.916 34.123 35.916 33.625C35.916 33.1328 35.8076 32.7656 35.5908 32.5234C35.376 32.2812 35.0898 32.1602 34.7324 32.1602C34.375 32.1602 34.0869 32.2832 33.8682 32.5293C33.6494 32.7734 33.54 33.1426 33.54 33.6367Z" fill="#888888"/>
<path d="M40.2402 34.208L41.0811 34.4746C40.9521 34.9434 40.7373 35.292 40.4365 35.5205C40.1377 35.7471 39.7578 35.8604 39.2969 35.8604C38.7266 35.8604 38.2578 35.666 37.8906 35.2773C37.5234 34.8867 37.3398 34.3535 37.3398 33.6777C37.3398 32.9629 37.5244 32.4082 37.8936 32.0137C38.2627 31.6172 38.748 31.4189 39.3496 31.4189C39.875 31.4189 40.3018 31.5742 40.6299 31.8848C40.8252 32.0684 40.9717 32.332 41.0693 32.6758L40.2109 32.8809C40.1602 32.6582 40.0537 32.4824 39.8916 32.3535C39.7314 32.2246 39.5361 32.1602 39.3057 32.1602C38.9873 32.1602 38.7285 32.2744 38.5293 32.5029C38.332 32.7314 38.2334 33.1016 38.2334 33.6133C38.2334 34.1562 38.3311 34.543 38.5264 34.7734C38.7217 35.0039 38.9756 35.1191 39.2881 35.1191C39.5186 35.1191 39.7168 35.0459 39.8828 34.8994C40.0488 34.7529 40.168 34.5225 40.2402 34.208Z" fill="#888888"/>
</g>
<defs>
<filter id="filter0_d_2108_1151" x="0.720703" y="0" width="67.7207" height="67.7208" filterUnits="userSpaceOnUse" color-interpolation-filters="sRGB">
<feFlood flood-opacity="0" result="BackgroundImageFix"/>
<feColorMatrix in="SourceAlpha" type="matrix" values="0 0 0 0 0 0 0 0 0 0 0 0 0 0 0 0 0 0 127 0" result="hardAlpha"/>
<feOffset dy="4"/>
<feGaussianBlur stdDeviation="7.5"/>
<feComposite in2="hardAlpha" operator="out"/>
<feColorMatrix type="matrix" values="0 0 0 0 0.183333 0 0 0 0 0.183333 0 0 0 0 0.183333 0 0 0 0.25 0"/>
<feBlend mode="normal" in2="BackgroundImageFix" result="effect1_dropShadow_2108_1151"/>
<feBlend mode="normal" in="SourceGraphic" in2="effect1_dropShadow_2108_1151" result="shape"/>
</filter>
</defs>
</svg>
