<svg width="69" height="68" viewBox="0 0 69 68" fill="none" xmlns="http://www.w3.org/2000/svg">
<g filter="url(#filter0_d_2108_1107)">
<rect x="15.604" y="11" width="37.7208" height="37.7208" rx="3" fill="#3D3D3D" shape-rendering="crispEdges"/>
<path d="M41.4644 28.8604V29.8604C41.4644 33.7263 38.3303 36.8604 34.4644 36.8604M27.4644 28.8604V29.8604C27.4644 33.7263 30.5984 36.8604 34.4644 36.8604M34.4644 36.8604V39.8604M34.4644 39.8604H37.4644M34.4644 39.8604H31.4644M34.4644 33.8604C32.2552 33.8604 30.4644 32.0695 30.4644 29.8604V23.8604C30.4644 21.6512 32.2552 19.8604 34.4644 19.8604C36.6735 19.8604 38.4644 21.6512 38.4644 23.8604V29.8604C38.4644 32.0695 36.6735 33.8604 34.4644 33.8604Z" stroke="#888888" stroke-linecap="round" stroke-linejoin="round"/>
</g>
<defs>
<filter id="filter0_d_2108_1107" x="0.604004" y="0" width="67.7207" height="67.7208" filterUnits="userSpaceOnUse" color-interpolation-filters="sRGB">
<feFlood flood-opacity="0" result="BackgroundImageFix"/>
<feColorMatrix in="SourceAlpha" type="matrix" values="0 0 0 0 0 0 0 0 0 0 0 0 0 0 0 0 0 0 127 0" result="hardAlpha"/>
<feOffset dy="4"/>
<feGaussianBlur stdDeviation="7.5"/>
<feComposite in2="hardAlpha" operator="out"/>
<feColorMatrix type="matrix" values="0 0 0 0 0.183333 0 0 0 0 0.183333 0 0 0 0 0.183333 0 0 0 0.25 0"/>
<feBlend mode="normal" in2="BackgroundImageFix" result="effect1_dropShadow_2108_1107"/>
<feBlend mode="normal" in="SourceGraphic" in2="effect1_dropShadow_2108_1107" result="shape"/>
</filter>
</defs>
</svg>
