<svg width="69" height="68" viewBox="0 0 69 68" fill="none" xmlns="http://www.w3.org/2000/svg">
<g filter="url(#filter0_d_2108_1164)">
<rect x="15.7207" y="11" width="37.7208" height="37.7208" rx="3" fill="#3D3D3D" shape-rendering="crispEdges"/>
<path d="M37.5608 20.1072L37.4375 20.5918L37.5608 20.1072ZM42.9995 30.8604L42.5361 31.048C42.6125 31.2368 42.7958 31.3604 42.9995 31.3604C43.2032 31.3604 43.3866 31.2368 43.463 31.048L42.9995 30.8604ZM35.5811 34.8604H35.0811C35.0811 37.3457 33.0663 39.3604 30.5811 39.3604V39.8604V40.3604C33.6186 40.3604 36.0811 37.898 36.0811 34.8604H35.5811ZM30.5811 39.8604V39.3604C28.0958 39.3604 26.0811 37.3457 26.0811 34.8604H25.5811H25.0811C25.0811 37.898 27.5435 40.3604 30.5811 40.3604V39.8604ZM25.5811 34.8604H26.0811C26.0811 32.3751 28.0958 30.3604 30.5811 30.3604V29.8604V29.3604C27.5435 29.3604 25.0811 31.8228 25.0811 34.8604H25.5811ZM30.5811 29.8604V30.3604C33.0663 30.3604 35.0811 32.3751 35.0811 34.8604H35.5811H36.0811C36.0811 31.8228 33.6186 29.3604 30.5811 29.3604V29.8604ZM37.5608 20.1072L37.4375 20.5918C40.682 21.4178 43.0811 24.3595 43.0811 27.8604H43.5811H44.0811C44.0811 23.8913 41.3611 20.5588 37.6842 19.6227L37.5608 20.1072ZM35.5811 25.8604V26.3604C38.7278 26.3604 41.4231 28.2985 42.5361 31.048L42.9995 30.8604L43.463 30.6728C42.2024 27.5586 39.1491 25.3604 35.5811 25.3604V25.8604ZM43.5811 27.8604H43.0811C43.0811 28.8559 42.8874 29.8049 42.5361 30.6728L42.9995 30.8604L43.463 31.048C43.8617 30.063 44.0811 28.9867 44.0811 27.8604H43.5811ZM35.5811 21.8604H35.0811V25.8604H35.5811H36.0811V21.8604H35.5811ZM37.5608 20.1072L37.6842 19.6227C36.2102 19.2475 35.0811 20.5261 35.0811 21.8604H35.5811H36.0811C36.0811 20.9855 36.7706 20.422 37.4375 20.5918L37.5608 20.1072ZM35.5811 25.8604H35.0811V34.8604H35.5811H36.0811V25.8604H35.5811Z" fill="#888888"/>
</g>
<defs>
<filter id="filter0_d_2108_1164" x="0.720703" y="0" width="67.7207" height="67.7207" filterUnits="userSpaceOnUse" color-interpolation-filters="sRGB">
<feFlood flood-opacity="0" result="BackgroundImageFix"/>
<feColorMatrix in="SourceAlpha" type="matrix" values="0 0 0 0 0 0 0 0 0 0 0 0 0 0 0 0 0 0 127 0" result="hardAlpha"/>
<feOffset dy="4"/>
<feGaussianBlur stdDeviation="7.5"/>
<feComposite in2="hardAlpha" operator="out"/>
<feColorMatrix type="matrix" values="0 0 0 0 0.183333 0 0 0 0 0.183333 0 0 0 0 0.183333 0 0 0 0.25 0"/>
<feBlend mode="normal" in2="BackgroundImageFix" result="effect1_dropShadow_2108_1164"/>
<feBlend mode="normal" in="SourceGraphic" in2="effect1_dropShadow_2108_1164" result="shape"/>
</filter>
</defs>
</svg>
