<svg width="69" height="68" viewBox="0 0 69 68" fill="none" xmlns="http://www.w3.org/2000/svg">
<g filter="url(#filter0_d_2108_1218)">
<rect x="15.4414" y="11" width="37.7208" height="37.7208" rx="3" fill="#3D3D3D" shape-rendering="crispEdges"/>
<path d="M35.1245 27.9411L35.545 28.2117L35.1245 27.9411ZM30.9414 26.8604C30.9414 27.1365 31.1653 27.3604 31.4414 27.3604C31.7175 27.3604 31.9414 27.1365 31.9414 26.8604H30.9414ZM32.9414 31.3604C32.9414 31.6365 33.1653 31.8604 33.4414 31.8604C33.7175 31.8604 33.9414 31.6365 33.9414 31.3604H32.9414ZM33.9414 33.8604C33.9414 33.5842 33.7175 33.3604 33.4414 33.3604C33.1653 33.3604 32.9414 33.5842 32.9414 33.8604H33.9414ZM32.9414 34.8604C32.9414 35.1365 33.1653 35.3604 33.4414 35.3604C33.7175 35.3604 33.9414 35.1365 33.9414 34.8604H32.9414ZM43.4414 29.8604H42.9414C42.9414 35.1071 38.6881 39.3604 33.4414 39.3604V39.8604V40.3604C39.2404 40.3604 43.9414 35.6593 43.9414 29.8604H43.4414ZM33.4414 39.8604V39.3604C28.1947 39.3604 23.9414 35.1071 23.9414 29.8604H23.4414H22.9414C22.9414 35.6593 27.6424 40.3604 33.4414 40.3604V39.8604ZM23.4414 29.8604H23.9414C23.9414 24.6136 28.1947 20.3604 33.4414 20.3604V19.8604V19.3604C27.6424 19.3604 22.9414 24.0614 22.9414 29.8604H23.4414ZM33.4414 19.8604V20.3604C38.6881 20.3604 42.9414 24.6136 42.9414 29.8604H43.4414H43.9414C43.9414 24.0614 39.2404 19.3604 33.4414 19.3604V19.8604ZM35.4414 26.8604H34.9414C34.9414 27.1597 34.8542 27.4372 34.704 27.6706L35.1245 27.9411L35.545 28.2117C35.7959 27.8218 35.9414 27.3573 35.9414 26.8604H35.4414ZM31.4414 26.8604H31.9414C31.9414 26.0319 32.613 25.3604 33.4414 25.3604V24.8604V24.3604C32.0607 24.3604 30.9414 25.4796 30.9414 26.8604H31.4414ZM33.4414 24.8604V25.3604C34.2698 25.3604 34.9414 26.0319 34.9414 26.8604H35.4414H35.9414C35.9414 25.4796 34.8221 24.3604 33.4414 24.3604V24.8604ZM33.4414 30.8604H32.9414V31.3604H33.4414H33.9414V30.8604H33.4414ZM35.1245 27.9411L34.704 27.6706C34.5703 27.8785 34.4052 28.09 34.2198 28.3204C34.0397 28.5443 33.8368 28.7902 33.6545 29.0407C33.2935 29.5369 32.9414 30.1434 32.9414 30.8604H33.4414H33.9414C33.9414 30.4727 34.1321 30.0841 34.4631 29.629C34.6269 29.404 34.8075 29.1852 34.9989 28.9473C35.1851 28.7158 35.3799 28.4683 35.545 28.2117L35.1245 27.9411ZM33.4414 33.8604H32.9414V34.8604H33.4414H33.9414V33.8604H33.4414Z" fill="#888888"/>
</g>
<defs>
<filter id="filter0_d_2108_1218" x="0.441406" y="0" width="67.7207" height="67.7208" filterUnits="userSpaceOnUse" color-interpolation-filters="sRGB">
<feFlood flood-opacity="0" result="BackgroundImageFix"/>
<feColorMatrix in="SourceAlpha" type="matrix" values="0 0 0 0 0 0 0 0 0 0 0 0 0 0 0 0 0 0 127 0" result="hardAlpha"/>
<feOffset dy="4"/>
<feGaussianBlur stdDeviation="7.5"/>
<feComposite in2="hardAlpha" operator="out"/>
<feColorMatrix type="matrix" values="0 0 0 0 0.183333 0 0 0 0 0.183333 0 0 0 0 0.183333 0 0 0 0.25 0"/>
<feBlend mode="normal" in2="BackgroundImageFix" result="effect1_dropShadow_2108_1218"/>
<feBlend mode="normal" in="SourceGraphic" in2="effect1_dropShadow_2108_1218" result="shape"/>
</filter>
</defs>
</svg>
