<svg width="68" height="68" viewBox="0 0 68 68" fill="none" xmlns="http://www.w3.org/2000/svg">
<g filter="url(#filter0_d_2108_1220)">
<rect x="15.1624" y="11" width="37.7208" height="37.7208" rx="3" fill="#3D3D3D" shape-rendering="crispEdges"/>
<path d="M36.1828 33.7885L38.3298 37.5072C38.744 38.2246 38.4982 39.142 37.7807 39.5562C37.0633 39.9705 36.1459 39.7246 35.7317 39.0072L33.0782 34.4111M41.477 22.6905L41.843 21.3244M43.477 26.1546L44.843 26.5206M30.1208 35.0206L40.7395 32.5891C42.0512 32.2888 42.698 30.8049 42.0252 29.6396L37.7331 22.2055C37.0603 21.0401 35.4518 20.8583 34.5359 21.8441L27.1208 29.8245L30.1208 35.0206ZM27.3708 30.2574L29.8708 34.5876C30.285 35.305 30.0392 36.2224 29.3218 36.6366C28.6043 37.0508 27.687 36.805 27.2727 36.0876L24.7727 31.7574C24.3585 31.04 24.6043 30.1226 25.3218 29.7084C26.0392 29.2942 26.9566 29.54 27.3708 30.2574Z" stroke="#888888" stroke-linecap="round" stroke-linejoin="round"/>
</g>
<defs>
<filter id="filter0_d_2108_1220" x="0.162354" y="0" width="67.7207" height="67.7208" filterUnits="userSpaceOnUse" color-interpolation-filters="sRGB">
<feFlood flood-opacity="0" result="BackgroundImageFix"/>
<feColorMatrix in="SourceAlpha" type="matrix" values="0 0 0 0 0 0 0 0 0 0 0 0 0 0 0 0 0 0 127 0" result="hardAlpha"/>
<feOffset dy="4"/>
<feGaussianBlur stdDeviation="7.5"/>
<feComposite in2="hardAlpha" operator="out"/>
<feColorMatrix type="matrix" values="0 0 0 0 0.183333 0 0 0 0 0.183333 0 0 0 0 0.183333 0 0 0 0.25 0"/>
<feBlend mode="normal" in2="BackgroundImageFix" result="effect1_dropShadow_2108_1220"/>
<feBlend mode="normal" in="SourceGraphic" in2="effect1_dropShadow_2108_1220" result="shape"/>
</filter>
</defs>
</svg>
