<svg width="69" height="68" viewBox="0 0 69 68" fill="none" xmlns="http://www.w3.org/2000/svg">
<g filter="url(#filter0_d_2108_1081)">
<rect x="15.604" y="11" width="37.7208" height="37.7208" rx="3" fill="#3D3D3D" shape-rendering="crispEdges"/>
<path d="M33.604 23.9137V38.1628M26.604 26.115C27.8698 26.311 29.2818 26.6369 30.604 27.1482M26.604 30.115C27.2435 30.214 27.9203 30.3462 28.604 30.5187M25.5983 20.8716C27.8167 21.1223 30.7971 21.7967 32.9208 23.2848C33.329 23.5708 33.879 23.5708 34.2872 23.2848C36.4109 21.7967 39.3913 21.1223 41.6097 20.8716C42.7076 20.7476 43.604 21.6644 43.604 22.7955V34.0603C43.604 35.1915 42.7076 36.1086 41.6097 36.2327C39.3913 36.4833 36.4109 37.1577 34.2872 38.6458C33.879 38.9319 33.329 38.9319 32.9208 38.6458C30.7971 37.1577 27.8167 36.4833 25.5983 36.2327C24.5004 36.1086 23.604 35.1915 23.604 34.0603V22.7955C23.604 21.6644 24.5004 20.7476 25.5983 20.8716Z" stroke="#888888" stroke-linecap="round"/>
</g>
<defs>
<filter id="filter0_d_2108_1081" x="0.604004" y="0" width="67.7207" height="67.7208" filterUnits="userSpaceOnUse" color-interpolation-filters="sRGB">
<feFlood flood-opacity="0" result="BackgroundImageFix"/>
<feColorMatrix in="SourceAlpha" type="matrix" values="0 0 0 0 0 0 0 0 0 0 0 0 0 0 0 0 0 0 127 0" result="hardAlpha"/>
<feOffset dy="4"/>
<feGaussianBlur stdDeviation="7.5"/>
<feComposite in2="hardAlpha" operator="out"/>
<feColorMatrix type="matrix" values="0 0 0 0 0.183333 0 0 0 0 0.183333 0 0 0 0 0.183333 0 0 0 0.25 0"/>
<feBlend mode="normal" in2="BackgroundImageFix" result="effect1_dropShadow_2108_1081"/>
<feBlend mode="normal" in="SourceGraphic" in2="effect1_dropShadow_2108_1081" result="shape"/>
</filter>
</defs>
</svg>
