<svg width="69" height="68" viewBox="0 0 69 68" fill="none" xmlns="http://www.w3.org/2000/svg">
<g filter="url(#filter0_d_2108_1094)">
<rect x="15.604" y="11" width="37.7208" height="37.7208" rx="3" fill="#3D3D3D" shape-rendering="crispEdges"/>
<path d="M26.9173 30.7756L26.4205 30.7192L26.9173 30.7756ZM27.3645 26.8355L27.8613 26.8919L27.3645 26.8355ZM26.0518 32.7325L25.6711 32.4084H25.6711L26.0518 32.7325ZM40.7875 30.7192C40.7564 30.4448 40.5087 30.2477 40.2343 30.2788C39.96 30.3099 39.7628 30.5576 39.7939 30.832L40.7875 30.7192ZM41.1562 32.7325L40.7755 33.0566L41.1562 32.7325ZM31.3341 22.234L31.496 22.7071C31.6982 22.6378 31.8341 22.4477 31.8341 22.234H31.3341ZM34.9476 20.9781C35.1275 21.1876 35.4432 21.2116 35.6527 21.0317C35.8622 20.8519 35.8862 20.5362 35.7063 20.3267L34.9476 20.9781ZM37.0722 38.0358C37.1691 37.7772 37.0381 37.4891 36.7795 37.3922C36.5209 37.2952 36.2327 37.4263 36.1358 37.6849L37.0722 38.0358ZM31.0722 37.6849C30.9753 37.4263 30.6871 37.2952 30.4285 37.3922C30.17 37.4891 30.0389 37.7772 30.1358 38.0358L31.0722 37.6849ZM42.604 24.8604H42.104C42.104 26.2411 40.9847 27.3604 39.604 27.3604V27.8604V28.3604C41.537 28.3604 43.104 26.7933 43.104 24.8604H42.604ZM39.604 27.8604V27.3604C38.2233 27.3604 37.104 26.2411 37.104 24.8604H36.604H36.104C36.104 26.7933 37.671 28.3604 39.604 28.3604V27.8604ZM36.604 24.8604H37.104C37.104 23.4796 38.2233 22.3604 39.604 22.3604V21.8604V21.3604C37.671 21.3604 36.104 22.9274 36.104 24.8604H36.604ZM39.604 21.8604V22.3604C40.9847 22.3604 42.104 23.4796 42.104 24.8604H42.604H43.104C43.104 22.9274 41.537 21.3604 39.604 21.3604V21.8604ZM39.3812 35.8604V35.3604H27.8268V35.8604V36.3604H39.3812V35.8604ZM26.9173 30.7756L27.4141 30.832L27.8613 26.8919L27.3645 26.8355L26.8677 26.7792L26.4205 30.7192L26.9173 30.7756ZM26.0518 32.7325L26.4325 33.0566C26.9793 32.4143 27.3218 31.6454 27.4141 30.832L26.9173 30.7756L26.4205 30.7192C26.3517 31.3251 26.0956 31.9096 25.6711 32.4084L26.0518 32.7325ZM40.2907 30.7756L39.7939 30.832C39.8862 31.6454 40.2287 32.4143 40.7755 33.0566L41.1562 32.7325L41.537 32.4084C41.1124 31.9096 40.8563 31.3251 40.7875 30.7192L40.2907 30.7756ZM27.8268 35.8604V35.3604C27.0854 35.3604 26.5372 34.9911 26.2771 34.5329C26.022 34.0834 26.0285 33.5312 26.4325 33.0566L26.0518 32.7325L25.6711 32.4084C24.978 33.2225 24.9578 34.2342 25.4074 35.0265C25.8521 35.81 26.7399 36.3604 27.8268 36.3604V35.8604ZM39.3812 35.8604V36.3604C40.4681 36.3604 41.3559 35.81 41.8006 35.0265C42.2502 34.2342 42.23 33.2225 41.537 32.4084L41.1562 32.7325L40.7755 33.0566C41.1795 33.5312 41.186 34.0834 40.9309 34.5329C40.6709 34.9911 40.1226 35.3604 39.3812 35.3604V35.8604ZM31.3341 22.234H31.8341V22.1303H31.3341H30.8341V22.234H31.3341ZM27.3645 26.8355L27.8613 26.8919C28.077 24.9912 29.5038 23.3892 31.496 22.7071L31.3341 22.234L31.1721 21.761C28.8795 22.5459 27.1342 24.4307 26.8677 26.7792L27.3645 26.8355ZM33.604 19.8604V19.3604C32.0742 19.3604 30.8341 20.6005 30.8341 22.1303H31.3341H31.8341C31.8341 21.1528 32.6265 20.3604 33.604 20.3604V19.8604ZM33.604 19.8604V20.3604C34.1413 20.3604 34.6222 20.5991 34.9476 20.9781L35.327 20.6524L35.7063 20.3267C35.1991 19.7359 34.4451 19.3604 33.604 19.3604V19.8604ZM36.604 37.8604L36.1358 37.6849C35.7751 38.6473 34.7887 39.3604 33.604 39.3604V39.8604V40.3604C35.1893 40.3604 36.5595 39.4037 37.0722 38.0358L36.604 37.8604ZM33.604 39.8604V39.3604C32.4193 39.3604 31.4329 38.6473 31.0722 37.6849L30.604 37.8604L30.1358 38.0358C30.6485 39.4037 32.0187 40.3604 33.604 40.3604V39.8604Z" fill="#888888"/>
</g>
<defs>
<filter id="filter0_d_2108_1094" x="0.604004" y="0" width="67.7207" height="67.7208" filterUnits="userSpaceOnUse" color-interpolation-filters="sRGB">
<feFlood flood-opacity="0" result="BackgroundImageFix"/>
<feColorMatrix in="SourceAlpha" type="matrix" values="0 0 0 0 0 0 0 0 0 0 0 0 0 0 0 0 0 0 127 0" result="hardAlpha"/>
<feOffset dy="4"/>
<feGaussianBlur stdDeviation="7.5"/>
<feComposite in2="hardAlpha" operator="out"/>
<feColorMatrix type="matrix" values="0 0 0 0 0.183333 0 0 0 0 0.183333 0 0 0 0 0.183333 0 0 0 0.25 0"/>
<feBlend mode="normal" in2="BackgroundImageFix" result="effect1_dropShadow_2108_1094"/>
<feBlend mode="normal" in="SourceGraphic" in2="effect1_dropShadow_2108_1094" result="shape"/>
</filter>
</defs>
</svg>
