<svg width="69" height="68" viewBox="0 0 69 68" fill="none" xmlns="http://www.w3.org/2000/svg">
<g filter="url(#filter0_d_2108_1198)">
<rect x="15.604" y="11" width="37.7208" height="37.7208" rx="3" fill="#3D3D3D" shape-rendering="crispEdges"/>
<path d="M26.0907 23.9032C25.9072 24.1096 25.9258 24.4256 26.1322 24.6091C26.3386 24.7925 26.6546 24.7739 26.8381 24.5675L26.0907 23.9032ZM27.9695 22.542L27.5958 22.2098L27.5958 22.2098L27.9695 22.542ZM30.9592 22.542L31.3329 22.2098V22.2098L30.9592 22.542ZM30.9592 37.1787L31.3329 37.5109L30.9592 37.1787ZM32.8381 35.8175C33.0215 35.6111 33.0029 35.2951 32.7965 35.1116C32.5901 34.9282 32.2741 34.9468 32.0907 35.1532L32.8381 35.8175ZM27.9695 37.1787L27.5958 37.5109L27.9695 37.1787ZM26.8381 35.1532C26.6546 34.9468 26.3386 34.9282 26.1322 35.1116C25.9258 35.2951 25.9072 35.6111 26.0907 35.8175L26.8381 35.1532ZM26.4644 24.2354L26.8381 24.5675L28.3432 22.8742L27.9695 22.542L27.5958 22.2098L26.0907 23.9032L26.4644 24.2354ZM30.9592 22.542L30.5855 22.8742L32.0907 24.5675L32.4644 24.2354L32.8381 23.9032L31.3329 22.2098L30.9592 22.542ZM30.9592 37.1787L31.3329 37.5109L32.8381 35.8175L32.4644 35.4854L32.0907 35.1532L30.5855 36.8465L30.9592 37.1787ZM27.9695 37.1787L28.3432 36.8465L26.8381 35.1532L26.4644 35.4854L26.0907 35.8175L27.5958 37.5109L27.9695 37.1787ZM30.9592 37.1787L30.5855 36.8465C29.9888 37.5178 28.9399 37.5178 28.3432 36.8465L27.9695 37.1787L27.5958 37.5109C28.5903 38.6297 30.3384 38.6297 31.3329 37.5109L30.9592 37.1787ZM27.9695 22.542L28.3432 22.8742C28.9399 22.2029 29.9888 22.2029 30.5855 22.8742L30.9592 22.542L31.3329 22.2098C30.3384 21.0911 28.5903 21.0911 27.5958 22.2098L27.9695 22.542ZM39.4644 27.8604V27.3604C38.0836 27.3604 36.9644 26.2411 36.9644 24.8604H36.4644H35.9644C35.9644 26.7933 37.5314 28.3604 39.4644 28.3604V27.8604ZM42.4644 24.8604H41.9644C41.9644 26.2411 40.8451 27.3604 39.4644 27.3604V27.8604V28.3604C41.3974 28.3604 42.9644 26.7933 42.9644 24.8604H42.4644ZM39.4644 21.8604V22.3604C40.8451 22.3604 41.9644 23.4796 41.9644 24.8604H42.4644H42.9644C42.9644 22.9274 41.3974 21.3604 39.4644 21.3604V21.8604ZM39.4644 21.8604V21.3604C37.5314 21.3604 35.9644 22.9274 35.9644 24.8604H36.4644H36.9644C36.9644 23.4796 38.0836 22.3604 39.4644 22.3604V21.8604ZM39.4644 37.8604V37.3604C38.0836 37.3604 36.9644 36.2411 36.9644 34.8604H36.4644H35.9644C35.9644 36.7933 37.5314 38.3604 39.4644 38.3604V37.8604ZM42.4644 34.8604H41.9644C41.9644 36.2411 40.8451 37.3604 39.4644 37.3604V37.8604V38.3604C41.3974 38.3604 42.9644 36.7933 42.9644 34.8604H42.4644ZM39.4644 31.8604V32.3604C40.8451 32.3604 41.9644 33.4796 41.9644 34.8604H42.4644H42.9644C42.9644 32.9274 41.3974 31.3604 39.4644 31.3604V31.8604ZM39.4644 31.8604V31.3604C37.5314 31.3604 35.9644 32.9274 35.9644 34.8604H36.4644H36.9644C36.9644 33.4796 38.0836 32.3604 39.4644 32.3604V31.8604ZM29.4644 21.8604H28.9644V37.8604H29.4644H29.9644V21.8604H29.4644Z" fill="#888888"/>
</g>
<defs>
<filter id="filter0_d_2108_1198" x="0.604004" y="0" width="67.7207" height="67.7208" filterUnits="userSpaceOnUse" color-interpolation-filters="sRGB">
<feFlood flood-opacity="0" result="BackgroundImageFix"/>
<feColorMatrix in="SourceAlpha" type="matrix" values="0 0 0 0 0 0 0 0 0 0 0 0 0 0 0 0 0 0 127 0" result="hardAlpha"/>
<feOffset dy="4"/>
<feGaussianBlur stdDeviation="7.5"/>
<feComposite in2="hardAlpha" operator="out"/>
<feColorMatrix type="matrix" values="0 0 0 0 0.183333 0 0 0 0 0.183333 0 0 0 0 0.183333 0 0 0 0.25 0"/>
<feBlend mode="normal" in2="BackgroundImageFix" result="effect1_dropShadow_2108_1198"/>
<feBlend mode="normal" in="SourceGraphic" in2="effect1_dropShadow_2108_1198" result="shape"/>
</filter>
</defs>
</svg>
