<svg width="69" height="68" viewBox="0 0 69 68" fill="none" xmlns="http://www.w3.org/2000/svg">
<g filter="url(#filter0_d_2108_1153)">
<rect x="15.4414" y="11" width="37.7208" height="37.7208" rx="3" fill="#3D3D3D" shape-rendering="crispEdges"/>
<path d="M35.3018 19.8604V23.8604C35.3018 26.0695 37.0926 27.8604 39.3018 27.8604L43.3018 27.8604M25.3018 23.8604L25.3018 35.8604C25.3018 38.0695 27.0926 39.8604 29.3018 39.8604H39.3018C41.5109 39.8604 43.3018 38.0695 43.3018 35.8604V29.5172C43.3018 28.4563 42.8803 27.4389 42.1302 26.6888L36.4733 21.0319C35.7232 20.2818 34.7058 19.8604 33.6449 19.8604L29.3018 19.8604C27.0926 19.8604 25.3018 21.6512 25.3018 23.8604Z" stroke="#888888" stroke-linejoin="round"/>
<path d="M30.2881 31.5654H31.1523V34.2842C31.1523 34.6396 31.1211 34.9131 31.0586 35.1045C30.9746 35.3545 30.8223 35.5557 30.6016 35.708C30.3809 35.8584 30.0898 35.9336 29.7285 35.9336C29.3047 35.9336 28.9785 35.8154 28.75 35.5791C28.5215 35.3408 28.4062 34.9922 28.4043 34.5332L29.2217 34.4395C29.2314 34.6855 29.2676 34.8594 29.3301 34.9609C29.4238 35.1152 29.5664 35.1924 29.7578 35.1924C29.9512 35.1924 30.0879 35.1377 30.168 35.0283C30.248 34.917 30.2881 34.6875 30.2881 34.3398V31.5654Z" fill="#888888"/>
<path d="M32.0781 35.8604V31.5654H33.4697C33.9971 31.5654 34.3408 31.5869 34.501 31.6299C34.7471 31.6943 34.9531 31.835 35.1191 32.0518C35.2852 32.2666 35.3682 32.5449 35.3682 32.8867C35.3682 33.1504 35.3203 33.3721 35.2246 33.5518C35.1289 33.7314 35.0068 33.873 34.8584 33.9766C34.7119 34.0781 34.5625 34.1455 34.4102 34.1787C34.2031 34.2197 33.9033 34.2402 33.5107 34.2402H32.9453V35.8604H32.0781ZM32.9453 32.292V33.5107H33.4199C33.7617 33.5107 33.9902 33.4883 34.1055 33.4434C34.2207 33.3984 34.3105 33.3281 34.375 33.2324C34.4414 33.1367 34.4746 33.0254 34.4746 32.8984C34.4746 32.7422 34.4287 32.6133 34.3369 32.5117C34.2451 32.4102 34.1289 32.3467 33.9883 32.3213C33.8848 32.3018 33.6768 32.292 33.3643 32.292H32.9453Z" fill="#888888"/>
<path d="M38.0781 34.2812V33.5576H39.9473V35.2686C39.7656 35.4443 39.502 35.5996 39.1562 35.7344C38.8125 35.8672 38.4639 35.9336 38.1104 35.9336C37.6611 35.9336 37.2695 35.8398 36.9355 35.6523C36.6016 35.4629 36.3506 35.1934 36.1826 34.8438C36.0146 34.4922 35.9307 34.1104 35.9307 33.6982C35.9307 33.251 36.0244 32.8535 36.2119 32.5059C36.3994 32.1582 36.6738 31.8916 37.0352 31.7061C37.3105 31.5635 37.6533 31.4922 38.0635 31.4922C38.5967 31.4922 39.0127 31.6045 39.3115 31.8291C39.6123 32.0518 39.8057 32.3604 39.8916 32.7549L39.0303 32.916C38.9697 32.7051 38.8555 32.5391 38.6875 32.418C38.5215 32.2949 38.3135 32.2334 38.0635 32.2334C37.6846 32.2334 37.3828 32.3535 37.1582 32.5938C36.9355 32.834 36.8242 33.1904 36.8242 33.6631C36.8242 34.1729 36.9375 34.5557 37.1641 34.8115C37.3906 35.0654 37.6875 35.1924 38.0547 35.1924C38.2363 35.1924 38.418 35.1572 38.5996 35.0869C38.7832 35.0146 38.9404 34.9277 39.0713 34.8262V34.2812H38.0781Z" fill="#888888"/>
</g>
<defs>
<filter id="filter0_d_2108_1153" x="0.441406" y="0" width="67.7207" height="67.7208" filterUnits="userSpaceOnUse" color-interpolation-filters="sRGB">
<feFlood flood-opacity="0" result="BackgroundImageFix"/>
<feColorMatrix in="SourceAlpha" type="matrix" values="0 0 0 0 0 0 0 0 0 0 0 0 0 0 0 0 0 0 127 0" result="hardAlpha"/>
<feOffset dy="4"/>
<feGaussianBlur stdDeviation="7.5"/>
<feComposite in2="hardAlpha" operator="out"/>
<feColorMatrix type="matrix" values="0 0 0 0 0.183333 0 0 0 0 0.183333 0 0 0 0 0.183333 0 0 0 0.25 0"/>
<feBlend mode="normal" in2="BackgroundImageFix" result="effect1_dropShadow_2108_1153"/>
<feBlend mode="normal" in="SourceGraphic" in2="effect1_dropShadow_2108_1153" result="shape"/>
</filter>
</defs>
</svg>
