<svg width="68" height="68" viewBox="0 0 68 68" fill="none" xmlns="http://www.w3.org/2000/svg">
<g filter="url(#filter0_d_2108_1259)">
<rect x="15.1624" y="11" width="37.7208" height="37.7208" rx="3" fill="#3D3D3D" shape-rendering="crispEdges"/>
<path d="M32.1624 38.8604C35.4761 38.8604 38.1624 36.1741 38.1624 32.8604V26.0577C39.0449 26.5682 40.0695 26.8604 41.1624 26.8604H42.1624V23.8604H41.1624C39.5055 23.8604 38.1624 22.5172 38.1624 20.8604H35.1624V32.8604C35.1624 34.5172 33.8192 35.8604 32.1624 35.8604C30.5055 35.8604 29.1624 34.5172 29.1624 32.8604C29.1624 31.2035 30.5055 29.8604 32.1624 29.8604V26.8604C28.8486 26.8604 26.1624 29.5466 26.1624 32.8604C26.1624 36.1741 28.8486 38.8604 32.1624 38.8604Z" stroke="#888888" stroke-linecap="round" stroke-linejoin="round"/>
</g>
<defs>
<filter id="filter0_d_2108_1259" x="0.162354" y="0" width="67.7207" height="67.7207" filterUnits="userSpaceOnUse" color-interpolation-filters="sRGB">
<feFlood flood-opacity="0" result="BackgroundImageFix"/>
<feColorMatrix in="SourceAlpha" type="matrix" values="0 0 0 0 0 0 0 0 0 0 0 0 0 0 0 0 0 0 127 0" result="hardAlpha"/>
<feOffset dy="4"/>
<feGaussianBlur stdDeviation="7.5"/>
<feComposite in2="hardAlpha" operator="out"/>
<feColorMatrix type="matrix" values="0 0 0 0 0.183333 0 0 0 0 0.183333 0 0 0 0 0.183333 0 0 0 0.25 0"/>
<feBlend mode="normal" in2="BackgroundImageFix" result="effect1_dropShadow_2108_1259"/>
<feBlend mode="normal" in="SourceGraphic" in2="effect1_dropShadow_2108_1259" result="shape"/>
</filter>
</defs>
</svg>
