<svg width="69" height="68" viewBox="0 0 69 68" fill="none" xmlns="http://www.w3.org/2000/svg">
<g filter="url(#filter0_d_2108_1268)">
<rect x="15.7207" y="11" width="37.7208" height="37.7208" rx="3" fill="#3D3D3D" shape-rendering="crispEdges"/>
<path d="M43.5811 27.8604V25.3604C43.5811 23.1512 41.7902 21.3604 39.5811 21.3604H29.5811C27.3719 21.3604 25.5811 23.1512 25.5811 25.3604V35.8604C25.5811 38.0695 27.3719 39.8604 29.5811 39.8604H31.5811M30.5811 19.8604V22.8604M38.5811 26.8604H30.5811M36.5811 30.8604H30.5811M32.5811 34.8604H30.5811M38.5811 19.8604V22.8604M34.5811 39.8604L37.6418 38.9878C37.8059 38.941 37.9554 38.8531 38.076 38.7325L43.0908 33.7177C43.7445 33.064 43.7445 32.0042 43.0908 31.3506C42.4372 30.6969 41.3774 30.6969 40.7237 31.3506L35.7089 36.3654C35.5883 36.4861 35.5004 36.6355 35.4536 36.7996L34.5811 39.8604Z" stroke="#888888" stroke-linecap="round"/>
</g>
<defs>
<filter id="filter0_d_2108_1268" x="0.720703" y="0" width="67.7207" height="67.7208" filterUnits="userSpaceOnUse" color-interpolation-filters="sRGB">
<feFlood flood-opacity="0" result="BackgroundImageFix"/>
<feColorMatrix in="SourceAlpha" type="matrix" values="0 0 0 0 0 0 0 0 0 0 0 0 0 0 0 0 0 0 127 0" result="hardAlpha"/>
<feOffset dy="4"/>
<feGaussianBlur stdDeviation="7.5"/>
<feComposite in2="hardAlpha" operator="out"/>
<feColorMatrix type="matrix" values="0 0 0 0 0.183333 0 0 0 0 0.183333 0 0 0 0 0.183333 0 0 0 0.25 0"/>
<feBlend mode="normal" in2="BackgroundImageFix" result="effect1_dropShadow_2108_1268"/>
<feBlend mode="normal" in="SourceGraphic" in2="effect1_dropShadow_2108_1268" result="shape"/>
</filter>
</defs>
</svg>
