<svg width="68" height="68" viewBox="0 0 68 68" fill="none" xmlns="http://www.w3.org/2000/svg">
<g filter="url(#filter0_d_2108_1045)">
<rect x="15" y="11" width="37.7208" height="37.7208" rx="3" fill="#3D3D3D" shape-rendering="crispEdges"/>
<path d="M30.3456 33.3751L24.8604 38.8604M37.6892 33.2365L39.3774 31.5483C39.7596 31.1661 40.2779 30.9514 40.8184 30.9514C42.6339 30.9514 43.5432 28.7563 42.2594 27.4725L36.2482 21.4613C34.9644 20.1775 32.7693 21.0868 32.7693 22.9023C32.7693 23.4428 32.5546 23.9611 32.1724 24.3433L30.4842 26.0315C30.102 26.4137 29.5837 26.6284 29.0432 26.6284C27.2276 26.6284 26.3184 28.8235 27.6022 30.1073L33.6134 36.1185C34.8972 37.4023 37.0923 36.493 37.0923 34.6775C37.0923 34.137 37.307 33.6187 37.6892 33.2365Z" stroke="#888888" stroke-linecap="round"/>
</g>
<defs>
<filter id="filter0_d_2108_1045" x="0" y="0" width="67.7207" height="67.7208" filterUnits="userSpaceOnUse" color-interpolation-filters="sRGB">
<feFlood flood-opacity="0" result="BackgroundImageFix"/>
<feColorMatrix in="SourceAlpha" type="matrix" values="0 0 0 0 0 0 0 0 0 0 0 0 0 0 0 0 0 0 127 0" result="hardAlpha"/>
<feOffset dy="4"/>
<feGaussianBlur stdDeviation="7.5"/>
<feComposite in2="hardAlpha" operator="out"/>
<feColorMatrix type="matrix" values="0 0 0 0 0.183333 0 0 0 0 0.183333 0 0 0 0 0.183333 0 0 0 0.25 0"/>
<feBlend mode="normal" in2="BackgroundImageFix" result="effect1_dropShadow_2108_1045"/>
<feBlend mode="normal" in="SourceGraphic" in2="effect1_dropShadow_2108_1045" result="shape"/>
</filter>
</defs>
</svg>
