<svg width="68" height="68" viewBox="0 0 68 68" fill="none" xmlns="http://www.w3.org/2000/svg">
<g filter="url(#filter0_d_2108_1214)">
<rect x="15" y="11" width="37.7208" height="37.7208" rx="3" fill="#3D3D3D" shape-rendering="crispEdges"/>
<path d="M33.8604 36.8604V39.8604M33.8604 36.8604C29.9944 36.8604 26.8604 33.7263 26.8604 29.8604V28.8604M33.8604 36.8604C35.893 36.8604 37.7233 35.994 39.0021 34.6104M33.8604 39.8604H36.8604M33.8604 39.8604H30.8604M24.8604 20.6104L42.8604 38.6104M40.8604 28.8604V29.8604C40.8604 30.6836 40.7182 31.4736 40.4572 32.2072M37.8604 29.6104V23.8604C37.8604 21.6512 36.0695 19.8604 33.8604 19.8604C32.3048 19.8604 30.9566 20.7483 30.295 22.045M29.8604 25.8604V29.8604C29.8604 32.0695 31.6512 33.8604 33.8604 33.8604C35.0088 33.8604 36.0441 33.3764 36.7736 32.6013" stroke="#888888" stroke-linecap="round" stroke-linejoin="round"/>
</g>
<defs>
<filter id="filter0_d_2108_1214" x="0" y="0" width="67.7207" height="67.7208" filterUnits="userSpaceOnUse" color-interpolation-filters="sRGB">
<feFlood flood-opacity="0" result="BackgroundImageFix"/>
<feColorMatrix in="SourceAlpha" type="matrix" values="0 0 0 0 0 0 0 0 0 0 0 0 0 0 0 0 0 0 127 0" result="hardAlpha"/>
<feOffset dy="4"/>
<feGaussianBlur stdDeviation="7.5"/>
<feComposite in2="hardAlpha" operator="out"/>
<feColorMatrix type="matrix" values="0 0 0 0 0.183333 0 0 0 0 0.183333 0 0 0 0 0.183333 0 0 0 0.25 0"/>
<feBlend mode="normal" in2="BackgroundImageFix" result="effect1_dropShadow_2108_1214"/>
<feBlend mode="normal" in="SourceGraphic" in2="effect1_dropShadow_2108_1214" result="shape"/>
</filter>
</defs>
</svg>
