<svg width="25" height="25" viewBox="0 0 25 25" fill="none" xmlns="http://www.w3.org/2000/svg">
<path d="M11.8765 13.8667C15.1605 14.8112 17.9856 16.7304 19.9761 19.2573C18.1524 21.1938 15.5677 22.4058 12.6978 22.4058C11.8368 22.4057 11.0017 22.295 10.2046 22.0903C10.295 19.2102 10.8769 16.4449 11.8765 13.8667ZM7.229 13.2163C8.31715 13.2163 9.37922 13.3193 10.4048 13.5151C9.44296 16.0533 8.86153 18.7627 8.72412 21.5825C5.58971 20.2234 3.28877 17.3076 2.79736 13.8091C4.20296 13.4253 5.68929 13.2163 7.229 13.2163ZM13.1548 11.0825C15.0931 11.7886 17.1989 12.1743 19.3979 12.1743C20.5203 12.1743 21.6181 12.072 22.6821 11.8794C22.6912 12.0537 22.6978 12.2292 22.6978 12.4058C22.6978 14.5075 22.0486 16.4571 20.9409 18.0669C18.8038 15.4648 15.8594 13.4886 12.4644 12.4751C12.6804 12.0037 12.9107 11.5393 13.1548 11.0825ZM5.44287 5.52295C7.09069 7.62775 9.2563 9.34578 11.7622 10.5073C11.4868 11.0297 11.2278 11.5616 10.9868 12.1021C9.77631 11.8496 8.51876 11.7163 7.229 11.7163C5.6625 11.7163 4.1439 11.9145 2.69873 12.2827C2.7303 9.66453 3.76769 7.28816 5.44287 5.52295ZM18.4429 4.22021C20.4911 5.66042 21.9737 7.84972 22.4937 10.3901C21.493 10.5762 20.458 10.6743 19.3979 10.6743C17.4683 10.6743 15.6205 10.3509 13.9126 9.75928C15.1579 7.72719 16.6845 5.86527 18.4429 4.22021ZM12.6978 2.40576C14.2782 2.40576 15.7733 2.77241 17.1021 3.42529C15.318 5.14562 13.7683 7.08473 12.5015 9.1958C10.1277 8.11648 8.0865 6.49736 6.55615 4.51318C8.25101 3.1924 10.3826 2.40581 12.6978 2.40576Z" fill="#888888"/>
</svg>
