<svg width="25" height="25" viewBox="0 0 25 25" fill="none" xmlns="http://www.w3.org/2000/svg">
<path d="M6.698 22.1265H2.698V8.62646H6.698V22.1265ZM13.698 8.62646V9.46826C14.3236 9.24716 14.9967 9.12646 15.698 9.12646C19.0117 9.12646 21.698 11.8128 21.698 15.1265V22.1265H17.698V15.1265C17.698 14.0219 16.8026 13.1265 15.698 13.1265C14.5934 13.1265 13.698 14.0219 13.698 15.1265V22.1265H9.698V8.62646H13.698ZM4.698 2.12646C5.80257 2.12646 6.698 3.0219 6.698 4.12646C6.698 5.23103 5.80257 6.12646 4.698 6.12646C3.59343 6.12646 2.698 5.23103 2.698 4.12646C2.698 3.0219 3.59343 2.12646 4.698 2.12646Z" fill="#888888"/>
</svg>
