<svg width="25" height="25" viewBox="0 0 25 25" fill="none" xmlns="http://www.w3.org/2000/svg">
<path d="M9.70825 13.4844C10.8124 13.4846 11.708 14.3792 11.7083 15.4834V20.709C11.7083 21.8134 10.8126 22.7087 9.70825 22.709C8.60368 22.709 7.70825 21.8136 7.70825 20.709V15.4834C7.70852 14.3791 8.60385 13.4844 9.70825 13.4844ZM15.0491 18.709C16.1535 18.7091 17.049 19.6045 17.0491 20.709C17.0491 21.8135 16.1535 22.7089 15.0491 22.709C13.9445 22.709 13.0491 21.8136 13.0491 20.709V18.709H15.0491ZM6.56763 15.4844C6.56736 16.5887 5.67203 17.4844 4.56763 17.4844C3.46322 17.4844 2.56789 16.5887 2.56763 15.4844C2.56763 14.3798 3.46306 13.4844 4.56763 13.4844H6.56763V15.4844ZM20.26 13.4834C21.3646 13.4834 22.26 14.3798 22.26 15.4844C22.2597 16.5887 21.3644 17.4844 20.26 17.4844H15.0491C13.9445 17.4844 13.0491 16.588 13.0491 15.4834C13.0493 14.3791 13.9447 13.4834 15.0491 13.4834H20.26ZM9.83813 8.08301C10.9426 8.08314 11.8381 8.9795 11.8381 10.084C11.8379 11.1882 10.9424 12.0839 9.83813 12.084H4.56763C3.46306 12.084 2.56763 11.1876 2.56763 10.083C2.56789 8.97866 3.46322 8.08301 4.56763 8.08301H9.83813ZM15.0491 3.08398C16.1535 3.08412 17.0491 3.9795 17.0491 5.08398V10.084C17.0488 11.1882 16.1534 12.0839 15.0491 12.084C13.9445 12.084 13.0491 11.1876 13.0491 10.083V5.08301C13.0493 3.97866 13.9447 3.08398 15.0491 3.08398ZM20.26 8.08301C21.3644 8.08301 22.2597 8.97866 22.26 10.083C22.26 11.1876 21.3646 12.084 20.26 12.084H18.26V10.083C18.2603 8.97874 19.1557 8.08314 20.26 8.08301ZM9.73755 2.98535C10.8421 2.98535 11.7375 3.88078 11.7375 4.98535V6.98535H9.73755C8.63298 6.98535 7.73755 6.08992 7.73755 4.98535C7.73755 3.88078 8.63298 2.98535 9.73755 2.98535Z" fill="#888888"/>
</svg>
