<svg width="25" height="25" viewBox="0 0 25 25" fill="none" xmlns="http://www.w3.org/2000/svg">
<path d="M22.4187 17.4058C21.3166 17.4058 20.5746 17.4058 20.054 17.9944C19.4461 18.6818 18.7749 19.4058 17.8571 19.4058H17.0854C16.6526 19.4058 16.2316 19.5461 15.8854 19.8058L14.8187 20.6058C13.3965 21.6724 11.4409 21.6724 10.0187 20.6058L8.95203 19.8058C8.60584 19.5461 8.18478 19.4058 7.75204 19.4058L6.98024 19.4058C6.06251 19.4058 5.39133 18.6818 4.78338 17.9944C4.26285 17.4058 3.52078 17.4058 2.4187 17.4058L4.81869 15.6058C5.82592 14.8504 6.4187 13.6648 6.4187 12.4058V11.9058L5.9187 11.9058C5.09027 11.9058 4.4187 11.2342 4.4187 10.4058C4.4187 9.57733 5.09028 8.90575 5.91871 8.90575H6.4187V8.40576C6.4187 5.09205 9.105 2.40576 12.4187 2.40576C15.7324 2.40577 18.4187 5.09205 18.4187 8.40576V8.90575H18.9187C19.7471 8.90575 20.4187 9.57733 20.4187 10.4058C20.4187 11.2342 19.7471 11.9058 18.9187 11.9058L18.4187 11.9058V12.4058C18.4187 13.6648 19.0115 14.8504 20.0187 15.6058L22.4187 17.4058Z" fill="#888888"/>
</svg>
