<svg width="25" height="25" viewBox="0 0 25 25" fill="none" xmlns="http://www.w3.org/2000/svg">
<path fill-rule="evenodd" clip-rule="evenodd" d="M22.3018 12.8735C22.3018 18.3964 17.8246 22.8735 12.3018 22.8735C6.77891 22.8735 2.30176 18.3964 2.30176 12.8735C2.30176 7.35069 6.77891 2.87354 12.3018 2.87354C17.8246 2.87354 22.3018 7.35069 22.3018 12.8735ZM12.3018 8.12354C12.716 8.12354 13.0518 8.45932 13.0518 8.87354V12.1235H16.3018C16.716 12.1235 17.0518 12.4593 17.0518 12.8735C17.0518 13.2877 16.716 13.6235 16.3018 13.6235H13.0518V16.8735C13.0518 17.2877 12.716 17.6235 12.3018 17.6235C11.8875 17.6235 11.5518 17.2877 11.5518 16.8735V13.6235H8.30176C7.88754 13.6235 7.55176 13.2877 7.55176 12.8735C7.55176 12.4593 7.88754 12.1235 8.30176 12.1235H11.5518V8.87354C11.5518 8.45932 11.8875 8.12354 12.3018 8.12354Z" fill="#888888"/>
</svg>
