<svg width="25" height="25" viewBox="0 0 25 25" fill="none" xmlns="http://www.w3.org/2000/svg">
<path fill-rule="evenodd" clip-rule="evenodd" d="M19.698 17.0358C21.3549 17.0358 22.698 15.6926 22.698 14.0358L22.698 5.03577C22.698 3.37891 21.3549 2.03577 19.698 2.03577H5.698C4.04114 2.03577 2.698 3.37891 2.698 5.03577V14.0358C2.698 15.6926 4.04114 17.0358 5.698 17.0358H7.22342L5.05487 20.65C4.84176 21.0052 4.95693 21.4659 5.31212 21.679C5.6673 21.8921 6.128 21.7769 6.34111 21.4218L8.9727 17.0358L11.948 17.0358V19.0359C11.948 19.4501 12.2838 19.7859 12.698 19.7859C13.1122 19.7859 13.448 19.4501 13.448 19.0359V17.0358L16.4233 17.0358L19.0549 21.4218C19.268 21.7769 19.7287 21.8921 20.0839 21.679C20.439 21.4659 20.5542 21.0052 20.3411 20.65L18.1726 17.0358H19.698ZM6.948 7.03577C6.948 6.62155 7.28378 6.28577 7.698 6.28577H17.698C18.1122 6.28577 18.448 6.62155 18.448 7.03577C18.448 7.44998 18.1122 7.78577 17.698 7.78577H7.698C7.28378 7.78577 6.948 7.44998 6.948 7.03577ZM7.698 11.2858C7.28378 11.2858 6.948 11.6216 6.948 12.0358C6.948 12.45 7.28378 12.7858 7.698 12.7858H12.698C13.1122 12.7858 13.448 12.45 13.448 12.0358C13.448 11.6216 13.1122 11.2858 12.698 11.2858H7.698Z" fill="#888888"/>
</svg>
