<svg width="25" height="25" viewBox="0 0 25 25" fill="none" xmlns="http://www.w3.org/2000/svg">
<path d="M12.5811 20.2566C12.9953 20.2566 13.3311 20.5924 13.3311 21.0066V22.0066C13.3311 22.4208 12.9953 22.7566 12.5811 22.7566C12.1669 22.7566 11.8311 22.4208 11.8311 22.0066V21.0066C11.8311 20.5924 12.1669 20.2566 12.5811 20.2566ZM12.5811 6.75659C15.8948 6.75659 18.5811 9.44288 18.5811 12.7566C18.5811 16.0703 15.8948 18.7566 12.5811 18.7566C9.26738 18.7566 6.58106 16.0703 6.58106 12.7566C6.58106 9.4429 9.26738 6.75662 12.5811 6.75659ZM5.06153 16.2322C5.42025 16.0251 5.87884 16.1479 6.08595 16.5066C6.29304 16.8653 6.17019 17.3239 5.81153 17.531L4.94532 18.031C4.58661 18.2381 4.12801 18.1153 3.92091 17.7566C3.71383 17.3979 3.83672 16.9393 4.19532 16.7322L5.06153 16.2322ZM19.0762 16.5066C19.2833 16.1479 19.7419 16.0251 20.1006 16.2322L20.9668 16.7322C21.3255 16.9393 21.4483 17.3979 21.2412 17.7566C21.0341 18.1153 20.5755 18.2381 20.2168 18.031L19.3506 17.531C18.992 17.3239 18.8691 16.8653 19.0762 16.5066ZM3.92091 7.75659C4.128 7.3979 4.58661 7.27513 4.94532 7.48218L5.81153 7.98218C6.1702 8.1893 6.29304 8.64789 6.08595 9.00659C5.87884 9.3653 5.42025 9.48811 5.06153 9.28101L4.19532 8.78101C3.83673 8.57385 3.71384 8.11526 3.92091 7.75659ZM20.2168 7.48218C20.5755 7.27507 21.0341 7.39788 21.2412 7.75659C21.4483 8.11528 21.3255 8.57388 20.9668 8.78101L20.1006 9.28101C19.7419 9.48807 19.2833 9.36529 19.0762 9.00659C18.8691 8.64792 18.992 8.18932 19.3506 7.98218L20.2168 7.48218ZM12.5811 2.75659C12.9953 2.75659 13.3311 3.09238 13.3311 3.50659V4.50659C13.3311 4.92081 12.9953 5.25659 12.5811 5.25659C12.1669 5.25657 11.8311 4.92079 11.8311 4.50659V3.50659C11.8311 3.09239 12.1669 2.75662 12.5811 2.75659Z" fill="#888888"/>
</svg>
