<svg width="25" height="25" viewBox="0 0 25 25" fill="none" xmlns="http://www.w3.org/2000/svg">
<path fill-rule="evenodd" clip-rule="evenodd" d="M2.86035 9.81506V18.3151C2.86035 20.5242 4.65121 22.3151 6.86035 22.3151H18.8604C21.0695 22.3151 22.8604 20.5242 22.8604 18.3151V9.81506H2.86035ZM2.86035 8.31506H22.8604V6.31506C22.8604 4.10592 21.0695 2.31506 18.8604 2.31506H6.86035C4.65121 2.31506 2.86035 4.10592 2.86035 6.31506V8.31506ZM19.8604 5.31506C19.8604 5.86735 19.4126 6.31506 18.8604 6.31506C18.3081 6.31506 17.8604 5.86735 17.8604 5.31506C17.8604 4.76278 18.3081 4.31506 18.8604 4.31506C19.4126 4.31506 19.8604 4.76278 19.8604 5.31506ZM14.8604 6.31506C15.4126 6.31506 15.8604 5.86735 15.8604 5.31506C15.8604 4.76278 15.4126 4.31506 14.8604 4.31506C14.3081 4.31506 13.8604 4.76278 13.8604 5.31506C13.8604 5.86735 14.3081 6.31506 14.8604 6.31506Z" fill="#888888"/>
</svg>
