<svg width="25" height="25" viewBox="0 0 25 25" fill="none" xmlns="http://www.w3.org/2000/svg">
<path fill-rule="evenodd" clip-rule="evenodd" d="M9.4707 2.5943C9.4707 2.18009 9.13492 1.8443 8.7207 1.8443C8.30649 1.8443 7.9707 2.18009 7.9707 2.5943V4.0943H7.7207C5.51156 4.0943 3.7207 5.88516 3.7207 8.0943V8.8443H21.7207V8.0943C21.7207 5.88516 19.9298 4.0943 17.7207 4.0943H17.4707V2.5943C17.4707 2.18009 17.1349 1.8443 16.7207 1.8443C16.3065 1.8443 15.9707 2.18009 15.9707 2.5943V4.0943H9.4707V2.5943ZM3.7207 10.3443H21.7207V18.5943C21.7207 20.8034 19.9298 22.5943 17.7207 22.5943H7.7207C5.51156 22.5943 3.7207 20.8034 3.7207 18.5943V10.3443Z" fill="#888888"/>
</svg>
