<svg width="25" height="25" viewBox="0 0 25 25" fill="none" xmlns="http://www.w3.org/2000/svg">
<path d="M20.5811 12.1981C21.6856 12.1981 22.5811 13.0936 22.5811 14.1981V17.1981C22.5811 19.4073 20.7902 21.1981 18.5811 21.1981H6.58105C4.37192 21.1981 2.58105 19.4073 2.58105 17.1981V14.1981C2.58105 13.0936 3.47649 12.1981 4.58105 12.1981H20.5811ZM10.5811 14.4481C10.1668 14.4481 9.83105 14.7839 9.83105 15.1981C9.83105 15.6123 10.1668 15.9481 10.5811 15.9481H14.5811C14.9953 15.9481 15.3311 15.6123 15.3311 15.1981C15.3311 14.7839 14.9953 14.4481 14.5811 14.4481H10.5811ZM18.5811 7.69812C19.6856 7.69812 20.5811 8.59355 20.5811 9.69812V10.6981H4.58105V9.69812C4.58105 8.59355 5.47649 7.69812 6.58105 7.69812H18.5811ZM16.5811 3.19812C17.6856 3.19812 18.5811 4.09355 18.5811 5.19812V6.19812H6.58105V5.19812C6.58105 4.09355 7.47649 3.19812 8.58105 3.19812H16.5811Z" fill="#888888"/>
</svg>
