<svg width="25" height="25" viewBox="0 0 25 25" fill="none" xmlns="http://www.w3.org/2000/svg">
<path fill-rule="evenodd" clip-rule="evenodd" d="M2.58105 6.47729C2.58105 4.26816 4.37192 2.47729 6.58106 2.47729H15.3686C16.4295 2.47729 17.4469 2.89872 18.1971 3.64887L21.4095 6.86128C22.1596 7.61142 22.5811 8.62884 22.5811 9.6897V18.4773C22.5811 20.6864 20.7902 22.4773 18.5811 22.4773H6.58105C4.37192 22.4773 2.58105 20.6864 2.58105 18.4773V6.47729ZM16.3311 7.47729C16.3311 7.89151 15.9953 8.22729 15.5811 8.22729L9.58105 8.22729C9.16684 8.22729 8.83105 7.89151 8.83105 7.47729C8.83105 7.06308 9.16684 6.72729 9.58105 6.72729L15.5811 6.72729C15.9953 6.72729 16.3311 7.06308 16.3311 7.47729ZM7.58105 19.4773V15.4773C7.58105 14.925 8.02877 14.4773 8.58105 14.4773H16.5811C17.1333 14.4773 17.5811 14.925 17.5811 15.4773V19.4773C17.5811 20.0296 17.1333 20.4773 16.5811 20.4773H8.58105C8.02877 20.4773 7.58105 20.0296 7.58105 19.4773Z" fill="#888888"/>
</svg>
