<svg width="25" height="25" viewBox="0 0 25 25" fill="none" xmlns="http://www.w3.org/2000/svg">
<path d="M10.6543 21.1528C8.72484 21.1527 7.52291 19.0596 8.49512 17.393L9.80176 15.1528H4.86328C3.56214 15.1528 2.60728 13.9297 2.92285 12.6674L4.54395 6.18304C4.98911 4.40239 6.58935 3.15279 8.4248 3.15277H11.5908C12.3805 3.15281 13.1526 3.38663 13.8096 3.82465L15.3564 4.8559C15.6346 5.04136 15.8017 5.35359 15.8018 5.68793V13.8871C15.8018 14.0612 15.7562 14.2322 15.6699 14.3832L11.8018 21.1528H10.6543ZM19.3018 15.1528C18.1972 15.1528 17.3018 14.2573 17.3018 13.1528V6.15277C17.3018 5.0482 18.1972 4.15277 19.3018 4.15277H20.3018C21.4063 4.15277 22.3018 5.0482 22.3018 6.15277V13.1528C22.3018 14.2573 21.4063 15.1528 20.3018 15.1528H19.3018Z" fill="#888888"/>
</svg>
