<svg width="25" height="25" viewBox="0 0 25 25" fill="none" xmlns="http://www.w3.org/2000/svg">
<path d="M12.8604 1.4028C13.2746 1.4028 13.6104 1.73859 13.6104 2.1528C13.6104 2.56702 13.2746 2.9028 12.8604 2.9028H6.86035C5.06543 2.9028 3.61035 4.35788 3.61035 6.1528V18.1528C3.61035 19.9477 5.06543 21.4028 6.86035 21.4028H18.8604C20.6553 21.4028 22.1104 19.9477 22.1104 18.1528V12.1528C22.1104 11.7386 22.4461 11.4028 22.8604 11.4028C23.2746 11.4028 23.6104 11.7386 23.6104 12.1528V18.1528C23.6104 20.7762 21.4837 22.9028 18.8604 22.9028H6.86035C4.237 22.9028 2.11035 20.7762 2.11035 18.1528V6.1528C2.11035 3.52945 4.237 1.4028 6.86035 1.4028H12.8604ZM14.7158 5.39304C15.1843 6.27485 15.8735 7.3886 16.749 8.26413C17.6245 9.13965 18.7383 9.82886 19.6201 10.2973L13.9199 15.9966C13.5663 16.3501 13.1074 16.5801 12.6123 16.6508L9.17969 17.1411C8.4171 17.2498 7.76334 16.5961 7.87207 15.8335L8.3623 12.4008C8.43303 11.9058 8.66303 11.4469 9.0166 11.0932L14.7158 5.39304ZM17.2793 2.82956C18.1821 1.92692 19.6461 1.92689 20.5488 2.82956L22.1836 4.46432C23.0863 5.36707 23.0862 6.83109 22.1836 7.73386L20.7344 9.18307C20.6206 9.12674 20.5001 9.0658 20.376 9.00046C19.5406 8.56065 18.5494 7.94336 17.8096 7.20358C17.0698 6.46379 16.4525 5.47253 16.0127 4.63718C15.9473 4.51304 15.8864 4.39257 15.8301 4.27878L17.2793 2.82956Z" fill="#888888"/>
</svg>
