<svg width="25" height="25" viewBox="0 0 25 25" fill="none" xmlns="http://www.w3.org/2000/svg">
<path fill-rule="evenodd" clip-rule="evenodd" d="M16.8783 22.1528H8.51765C6.2089 22.1528 4.3373 20.3668 4.3373 18.1636V13.2858C4.3373 12.5776 4.04247 11.8984 3.51769 11.3976C2.3018 10.2373 2.45987 8.31485 3.8505 7.34972L10.2392 2.9158C11.7051 1.89847 13.6909 1.89847 15.1568 2.9158L21.5455 7.34972C22.9361 8.31485 23.0942 10.2373 21.8783 11.3976C21.3535 11.8984 21.0587 12.5776 21.0587 13.2858V18.1636C21.0587 20.3668 19.1871 22.1528 16.8783 22.1528ZM10.698 17.4028C10.2838 17.4028 9.948 17.7386 9.948 18.1528C9.948 18.567 10.2838 18.9028 10.698 18.9028H14.698C15.1122 18.9028 15.448 18.567 15.448 18.1528C15.448 17.7386 15.1122 17.4028 14.698 17.4028H10.698Z" fill="#888888"/>
</svg>
