<svg width="25" height="25" viewBox="0 0 25 25" fill="none" xmlns="http://www.w3.org/2000/svg">
<path fill-rule="evenodd" clip-rule="evenodd" d="M2.58105 6.31506C2.58105 4.10592 4.37192 2.31506 6.58105 2.31506H18.5811C20.7902 2.31506 22.5811 4.10592 22.5811 6.31506V12.7641L20.3345 11.2936C18.6 10.1583 16.3297 10.279 14.7253 11.5917L9.48705 15.8775C8.3893 16.7756 6.83588 16.8582 5.64914 16.0814L2.58105 14.0732V6.31506ZM19.513 12.5487L22.5811 14.5568V18.3151C22.5811 20.5242 20.7902 22.3151 18.5811 22.3151H6.58105C4.37192 22.3151 2.58105 20.5242 2.58105 18.3151V15.8659L4.82765 17.3364C6.56212 18.4717 8.8325 18.3511 10.4369 17.0384L15.6751 12.7526C16.7729 11.8544 18.3263 11.7719 19.513 12.5487ZM9.08105 11.3151C10.4618 11.3151 11.5811 10.1958 11.5811 8.81506C11.5811 7.43435 10.4618 6.31506 9.08105 6.31506C7.70034 6.31506 6.58105 7.43435 6.58105 8.81506C6.58105 10.1958 7.70034 11.3151 9.08105 11.3151Z" fill="#888888"/>
</svg>
