<svg width="25" height="25" viewBox="0 0 25 25" fill="none" xmlns="http://www.w3.org/2000/svg">
<path d="M12.3018 1.44812C18.2085 1.44812 23.0029 6.21197 23.0518 12.1073C23.0552 12.5215 22.7218 12.8607 22.3076 12.8641C21.8935 12.8676 21.5552 12.5341 21.5518 12.12C21.5098 7.04746 17.3843 2.94812 12.3018 2.94812C7.19312 2.94812 3.05176 7.08949 3.05176 12.1981C3.05176 17.2807 7.1511 21.4062 12.2236 21.4481C12.6378 21.4516 12.9712 21.7898 12.9678 22.204C12.9643 22.6182 12.6251 22.9515 12.2109 22.9481C6.31561 22.8993 1.55176 18.1049 1.55176 12.1981C1.55176 6.26106 6.3647 1.44812 12.3018 1.44812ZM12.3594 13.6219C12.0779 12.7776 12.8812 11.9743 13.7256 12.2557L21.5635 14.868C22.5479 15.1964 22.548 16.5896 21.5635 16.9178L18.6689 17.8817C18.3464 17.9892 18.0929 18.2428 17.9854 18.5653L17.0215 21.4598C16.6932 22.4444 15.3001 22.4443 14.9717 21.4598L12.3594 13.6219ZM12.3018 6.44812C14.7175 6.44812 16.7833 7.93789 17.6348 10.0458C17.7898 10.4297 17.6045 10.8661 17.2207 11.0214C16.8366 11.1765 16.3993 10.9914 16.2441 10.6073C15.6138 9.04694 14.0852 7.94812 12.3018 7.94812C9.95455 7.94812 8.05176 9.85091 8.05176 12.1981C8.05176 13.9816 9.15057 15.5102 10.7109 16.1405C11.095 16.2956 11.2801 16.733 11.125 17.1171C10.9698 17.5009 10.5333 17.6861 10.1494 17.5311C8.04152 16.6796 6.55176 14.6139 6.55176 12.1981C6.55176 9.02248 9.12612 6.44812 12.3018 6.44812Z" fill="#888888"/>
</svg>
