<svg width="25" height="25" viewBox="0 0 25 25" fill="none" xmlns="http://www.w3.org/2000/svg">
<path fill-rule="evenodd" clip-rule="evenodd" d="M5.44141 2.5943H19.4414C20.546 2.5943 21.4414 3.48973 21.4414 4.5943V19.7486C21.4414 21.1339 20.0673 22.0996 18.764 21.6304L17.2022 21.0682C16.7142 20.8925 16.177 20.9133 15.704 21.1261L13.2621 22.225C12.7402 22.4598 12.1426 22.4598 11.6207 22.225L9.17878 21.1261C8.70579 20.9133 8.16862 20.8925 7.68061 21.0682L6.11885 21.6304C4.81552 22.0996 3.44141 21.1339 3.44141 19.7486V4.5943C3.44141 3.48973 4.33684 2.5943 5.44141 2.5943ZM8.44141 6.8443C8.02719 6.8443 7.69141 7.18009 7.69141 7.5943C7.69141 8.00851 8.02719 8.3443 8.44141 8.3443H12.4414C12.8556 8.3443 13.1914 8.00851 13.1914 7.5943C13.1914 7.18009 12.8556 6.8443 12.4414 6.8443H8.44141ZM8.44141 10.8443C8.02719 10.8443 7.69141 11.1801 7.69141 11.5943C7.69141 12.0085 8.02719 12.3443 8.44141 12.3443H16.4414C16.8556 12.3443 17.1914 12.0085 17.1914 11.5943C17.1914 11.1801 16.8556 10.8443 16.4414 10.8443H8.44141ZM8.44141 14.8443C8.02719 14.8443 7.69141 15.1801 7.69141 15.5943C7.69141 16.0085 8.02719 16.3443 8.44141 16.3443H16.4414C16.8556 16.3443 17.1914 16.0085 17.1914 15.5943C17.1914 15.1801 16.8556 14.8443 16.4414 14.8443H8.44141Z" fill="#888888"/>
</svg>
