<svg width="25" height="25" viewBox="0 0 25 25" fill="none" xmlns="http://www.w3.org/2000/svg">
<path d="M14.2285 3.1528C16.158 3.15283 17.3599 5.24594 16.3877 6.91257L15.0811 9.1528H20.0195C21.3207 9.15281 22.2755 10.3759 21.96 11.6382L20.3389 18.1225C19.8937 19.9032 18.2935 21.1528 16.458 21.1528H13.292C12.5024 21.1528 11.7303 20.9189 11.0732 20.4809L9.52637 19.4497C9.24818 19.2642 9.08106 18.952 9.08105 18.6176V10.4184C9.08105 10.2444 9.12657 10.0734 9.21289 9.92233L13.0811 3.1528H14.2285ZM5.58105 9.1528C6.68562 9.1528 7.58105 10.0482 7.58105 11.1528V18.1528C7.58105 19.2574 6.68562 20.1528 5.58105 20.1528H4.58105C3.47649 20.1528 2.58105 19.2574 2.58105 18.1528V11.1528C2.58105 10.0482 3.47649 9.1528 4.58105 9.1528H5.58105Z" fill="#888888"/>
</svg>
