<svg width="25" height="25" viewBox="0 0 25 25" fill="none" xmlns="http://www.w3.org/2000/svg">
<path d="M4.698 14.0066C6.21678 14.0066 7.448 15.2378 7.448 16.7566C7.448 18.2754 6.21678 19.5066 4.698 19.5066C3.17922 19.5066 1.948 18.2754 1.948 16.7566C1.948 15.2378 3.17921 14.0066 4.698 14.0066ZM22.698 18.0066C23.1122 18.0066 23.448 18.3424 23.448 18.7566C23.448 19.1708 23.1122 19.5066 22.698 19.5066H10.698C10.2838 19.5066 9.948 19.1708 9.948 18.7566C9.948 18.3424 10.2838 18.0066 10.698 18.0066H22.698ZM16.698 14.0066C17.1122 14.0066 17.448 14.3424 17.448 14.7566C17.448 15.1708 17.1122 15.5066 16.698 15.5066H10.698C10.2838 15.5066 9.948 15.1708 9.948 14.7566C9.948 14.3424 10.2838 14.0066 10.698 14.0066H16.698ZM4.698 6.00659C6.21678 6.00659 7.448 7.23781 7.448 8.75659C7.448 10.2754 6.21678 11.5066 4.698 11.5066C3.17922 11.5066 1.948 10.2754 1.948 8.75659C1.948 7.23781 3.17921 6.00659 4.698 6.00659ZM22.698 10.0066C23.1122 10.0066 23.448 10.3424 23.448 10.7566C23.448 11.1708 23.1122 11.5066 22.698 11.5066H10.698C10.2838 11.5066 9.948 11.1708 9.948 10.7566C9.948 10.3424 10.2838 10.0066 10.698 10.0066H22.698ZM16.698 6.00659C17.1122 6.00659 17.448 6.34238 17.448 6.75659C17.448 7.17081 17.1122 7.50659 16.698 7.50659H10.698C10.2838 7.50659 9.948 7.17081 9.948 6.75659C9.948 6.34238 10.2838 6.00659 10.698 6.00659H16.698Z" fill="#888888"/>
</svg>
