<svg width="25" height="25" viewBox="0 0 25 25" fill="none" xmlns="http://www.w3.org/2000/svg">
<path d="M7.448 3.88965C4.82465 3.88965 2.698 6.0163 2.698 8.63965V16.6396C2.698 19.263 4.82465 21.3896 7.448 21.3896H14.698C17.3214 21.3896 19.448 19.263 19.448 16.6396C19.448 16.2254 19.1122 15.8896 18.698 15.8896C18.2838 15.8896 17.948 16.2254 17.948 16.6396C17.948 18.4346 16.4929 19.8896 14.698 19.8896H10.1621C10.9596 19.04 11.448 17.8969 11.448 16.6396V8.63965C11.448 7.38244 10.9596 6.2393 10.1621 5.38965H14.698C16.4929 5.38965 17.948 6.84472 17.948 8.63965C17.948 9.05386 18.2838 9.38965 18.698 9.38965C19.1122 9.38965 19.448 9.05386 19.448 8.63965C19.448 6.0163 17.3214 3.88965 14.698 3.88965H7.448Z" fill="#888888"/>
<path d="M16.2282 10.1093C16.5211 10.4022 16.5211 10.8771 16.2282 11.17L15.5085 11.8896L21.9479 11.8896C22.3621 11.8896 22.6979 12.2254 22.6979 12.6396C22.6979 13.0539 22.3621 13.3896 21.9479 13.3896L15.5085 13.3896L16.2282 14.1093C16.5211 14.4022 16.5211 14.8771 16.2282 15.17C15.9353 15.4629 15.4604 15.4629 15.1675 15.17L13.8746 13.8771C13.1912 13.1937 13.1912 12.0856 13.8746 11.4022L15.1675 10.1093C15.4604 9.81642 15.9353 9.81643 16.2282 10.1093Z" fill="#888888"/>
</svg>
