<svg width="25" height="25" viewBox="0 0 25 25" fill="none" xmlns="http://www.w3.org/2000/svg">
<path d="M18.3018 10.7273C18.716 10.7273 19.0518 11.0631 19.0518 11.4773V12.4773C19.0518 15.9517 16.4267 18.8132 13.0518 19.1863V20.9773H15.3018C15.716 20.9773 16.0518 21.3131 16.0518 21.7273C16.0518 22.1415 15.716 22.4773 15.3018 22.4773H9.30176C8.88754 22.4773 8.55176 22.1415 8.55176 21.7273C8.55176 21.3131 8.88754 20.9773 9.30176 20.9773H11.5518V19.1863C8.1768 18.8132 5.55176 15.9517 5.55176 12.4773V11.4773C5.55176 11.0631 5.88754 10.7273 6.30176 10.7273C6.71597 10.7273 7.05176 11.0631 7.05176 11.4773V12.4773C7.05176 15.3768 9.40226 17.7273 12.3018 17.7273C15.2013 17.7273 17.5518 15.3768 17.5518 12.4773V11.4773C17.5518 11.0631 17.8875 10.7273 18.3018 10.7273ZM12.3018 2.47729C14.5109 2.47729 16.3018 4.26816 16.3018 6.47729V12.4773C16.3018 14.6864 14.5109 16.4773 12.3018 16.4773C10.0926 16.4773 8.30176 14.6864 8.30176 12.4773V6.47729C8.30176 4.26816 10.0926 2.47729 12.3018 2.47729Z" fill="#888888"/>
</svg>
