<svg width="25" height="25" viewBox="0 0 25 25" fill="none" xmlns="http://www.w3.org/2000/svg">
<path d="M11.6687 15.7566C12.3591 15.7566 12.9187 16.3162 12.9187 17.0066C12.9187 17.6969 12.3591 18.2566 11.6687 18.2566C10.9783 18.2566 10.4187 17.6969 10.4187 17.0066C10.4187 16.3162 10.9783 15.7566 11.6687 15.7566ZM11.6687 10.7566C12.3591 10.7566 12.9187 11.3162 12.9187 12.0066C12.9187 12.6969 12.3591 13.2566 11.6687 13.2566C10.9783 13.2566 10.4187 12.6969 10.4187 12.0066C10.4187 11.3162 10.9783 10.7566 11.6687 10.7566ZM11.6687 5.75659C12.3591 5.75659 12.9187 6.31624 12.9187 7.00659C12.9187 7.69695 12.3591 8.25659 11.6687 8.25659C10.9783 8.25659 10.4187 7.69695 10.4187 7.00659C10.4187 6.31624 10.9783 5.75659 11.6687 5.75659Z" fill="#888888"/>
</svg>
