<svg width="25" height="25" viewBox="0 0 25 25" fill="none" xmlns="http://www.w3.org/2000/svg">
<path d="M7.8894 10.7566C8.57976 10.7566 9.1394 11.3162 9.1394 12.0066C9.1394 12.6969 8.57976 13.2566 7.8894 13.2566C7.19905 13.2566 6.6394 12.6969 6.6394 12.0066C6.6394 11.3162 7.19905 10.7566 7.8894 10.7566ZM12.8894 10.7566C13.5798 10.7566 14.1394 11.3162 14.1394 12.0066C14.1394 12.6969 13.5798 13.2566 12.8894 13.2566C12.199 13.2566 11.6394 12.6969 11.6394 12.0066C11.6394 11.3162 12.199 10.7566 12.8894 10.7566ZM17.8894 10.7566C18.5798 10.7566 19.1394 11.3162 19.1394 12.0066C19.1394 12.6969 18.5798 13.2566 17.8894 13.2566C17.199 13.2566 16.6394 12.6969 16.6394 12.0066C16.6394 11.3162 17.199 10.7566 17.8894 10.7566Z" fill="#888888"/>
</svg>
