<svg width="25" height="25" viewBox="0 0 25 25" fill="none" xmlns="http://www.w3.org/2000/svg">
<path d="M18.1902 4.34534C20.1669 4.58813 21.698 6.27273 21.698 8.31506V18.3151C21.698 20.5242 19.9071 22.3151 17.698 22.3151H7.698C5.48886 22.3151 3.698 20.5242 3.698 18.3151V8.31506C3.698 6.27273 5.22911 4.58813 7.20581 4.34534C7.20096 4.41796 7.198 4.49121 7.198 4.56506C7.198 6.35998 8.65308 7.81506 10.448 7.81506H14.948C16.7429 7.81506 18.198 6.35998 18.198 4.56506C18.198 4.49121 18.195 4.41796 18.1902 4.34534ZM8.698 17.5651C8.28378 17.5651 7.948 17.9009 7.948 18.3151C7.948 18.7293 8.28378 19.0651 8.698 19.0651H12.698C13.1122 19.0651 13.448 18.7293 13.448 18.3151C13.448 17.9009 13.1122 17.5651 12.698 17.5651H8.698ZM8.698 13.5651C8.28378 13.5651 7.948 13.9009 7.948 14.3151C7.948 14.7293 8.28378 15.0651 8.698 15.0651H16.698C17.1122 15.0651 17.448 14.7293 17.448 14.3151C17.448 13.9009 17.1122 13.5651 16.698 13.5651H8.698ZM8.698 9.56506C8.28378 9.56506 7.948 9.90085 7.948 10.3151C7.948 10.7293 8.28378 11.0651 8.698 11.0651H16.698C17.1122 11.0651 17.448 10.7293 17.448 10.3151C17.448 9.90085 17.1122 9.56506 16.698 9.56506H8.698ZM14.698 2.31506C15.8026 2.31506 16.698 3.21049 16.698 4.31506C16.698 5.41963 15.8026 6.31506 14.698 6.31506H10.698C9.59343 6.31506 8.698 5.41963 8.698 4.31506C8.698 3.21049 9.59343 2.31506 10.698 2.31506H14.698Z" fill="#888888"/>
</svg>
