<svg width="25" height="25" viewBox="0 0 25 25" fill="none" xmlns="http://www.w3.org/2000/svg">
<path d="M15.0186 19.5358C15.252 19.536 15.4412 19.7252 15.4414 19.9586C15.4414 20.0093 15.4322 20.0601 15.4131 20.1071C14.9557 21.2348 13.7979 22.0358 12.4414 22.0358C11.0849 22.0358 9.9271 21.2347 9.46973 20.1071C9.45068 20.0601 9.44141 20.0093 9.44141 19.9586C9.44165 19.7252 9.63084 19.536 9.86426 19.5358H15.0186ZM12.541 4.03674C12.4756 4.35954 12.4414 4.69366 12.4414 5.03577C12.4414 7.79719 14.68 10.0358 17.4414 10.0358C17.8995 10.0358 18.3432 9.97437 18.7647 9.85901L19.1065 12.8746C19.1922 13.631 19.4994 14.3426 19.9863 14.9156C21.0196 16.132 20.1806 18.0357 18.6113 18.0358H6.27149C4.70225 18.0357 3.86324 16.132 4.89649 14.9156C5.38339 14.3426 5.69063 13.631 5.77637 12.8746L6.1211 9.82971C6.49533 6.52658 9.21239 4.03577 12.4414 4.03577C12.4747 4.03577 12.5079 4.03622 12.541 4.03674ZM17.4414 2.03577C19.0983 2.03577 20.4414 3.37891 20.4414 5.03577C20.4414 6.69262 19.0983 8.03577 17.4414 8.03577C15.7846 8.03577 14.4414 6.69262 14.4414 5.03577C14.4414 3.37891 15.7846 2.03577 17.4414 2.03577Z" fill="#888888"/>
</svg>
