<svg width="25" height="25" viewBox="0 0 25 25" fill="none" xmlns="http://www.w3.org/2000/svg">
<path d="M15.1582 18.5358C15.3916 18.536 15.5808 18.7252 15.5811 18.9586C15.5811 19.0093 15.5718 19.0601 15.5527 19.1071C15.0954 20.2348 13.9376 21.0358 12.5811 21.0358C11.2245 21.0358 10.0667 20.2347 9.60938 19.1071C9.59032 19.0601 9.58106 19.0093 9.58106 18.9586C9.5813 18.7252 9.77048 18.536 10.0039 18.5358H15.1582ZM12.5811 3.03577C15.8101 3.03577 18.5271 5.52658 18.9014 8.82971L19.2461 11.8746C19.3318 12.631 19.6391 13.3426 20.126 13.9156C21.1592 15.132 20.3202 17.0357 18.751 17.0358H6.41114C4.8419 17.0357 4.00289 15.132 5.03614 13.9156C5.52304 13.3426 5.83027 12.631 5.91602 11.8746L6.26075 8.82971C6.63498 5.52658 9.35204 3.03577 12.5811 3.03577Z" fill="#888888"/>
</svg>
