<svg width="25" height="25" viewBox="0 0 25 25" fill="none" xmlns="http://www.w3.org/2000/svg">
<path fill-rule="evenodd" clip-rule="evenodd" d="M11.6914 4.69315C9.57236 3.23734 6.63094 2.57439 4.43574 2.32634C3.33783 2.20227 2.44141 3.11909 2.44141 4.25024V15.515C2.44141 16.6462 3.33783 17.5633 4.43574 17.6874C6.63094 17.9354 9.57236 18.5984 11.6914 20.0542V4.69315ZM13.1914 20.0542C15.3105 18.5984 18.2519 17.9354 20.4471 17.6874C21.545 17.5633 22.4414 16.6462 22.4414 15.515V4.25024C22.4414 3.11909 21.545 2.20227 20.4471 2.32634C18.2519 2.57439 15.3105 3.23734 13.1914 4.69315V20.0542ZM4.70023 7.45503C4.76362 7.04569 5.14684 6.76525 5.55617 6.82864C6.85895 7.0304 8.3261 7.36764 9.7119 7.90353C10.0982 8.05292 10.2903 8.48722 10.1409 8.87355C9.99151 9.25988 9.55722 9.45196 9.17089 9.30256C7.91224 8.81584 6.55538 8.50127 5.32661 8.31097C4.91727 8.24758 4.63683 7.86436 4.70023 7.45503ZM5.55617 10.8286C5.14684 10.7653 4.76362 11.0457 4.70023 11.455C4.63683 11.8644 4.91727 12.2476 5.32661 12.311C5.94585 12.4069 6.59952 12.5346 7.25792 12.7007C7.65955 12.8021 8.06727 12.5586 8.1686 12.157C8.26993 11.7554 8.02649 11.3476 7.62486 11.2463C6.91586 11.0674 6.21591 10.9308 5.55617 10.8286Z" fill="#888888"/>
</svg>
