<svg width="25" height="25" viewBox="0 0 25 25" fill="none" xmlns="http://www.w3.org/2000/svg">
<path fill-rule="evenodd" clip-rule="evenodd" d="M15.3503 4.45046C14.1179 3.21802 12.0106 4.09089 12.0106 5.83381C12.0106 6.35267 11.8045 6.85028 11.4376 7.21717L9.81687 8.83787C9.44998 9.20475 8.95237 9.41087 8.43352 9.41087C6.69058 9.41087 5.81772 11.5181 7.05016 12.7506L9.42644 15.1269L3.90888 20.6444C3.6277 20.9256 3.6277 21.3815 3.90888 21.6627C4.19006 21.9438 4.64594 21.9438 4.92711 21.6627L10.4447 16.1451L12.8209 18.5213C14.0534 19.7538 16.1606 18.8809 16.1606 17.138C16.1606 16.6191 16.3668 16.1215 16.7337 15.7546L18.3544 14.1339C18.7212 13.767 19.2189 13.5609 19.7377 13.5609C21.4806 13.5609 22.3535 11.4537 21.1211 10.2212L15.3503 4.45046Z" fill="#888888"/>
</svg>
