<svg width="25" height="25" viewBox="0 0 25 25" fill="none" xmlns="http://www.w3.org/2000/svg">
<path fill-rule="evenodd" clip-rule="evenodd" d="M12.8894 6.63965C12.8894 6.22543 12.5536 5.88965 12.1394 5.88965C11.7252 5.88965 11.3894 6.22543 11.3894 6.63965V11.8896H6.1394C5.72519 11.8896 5.3894 12.2254 5.3894 12.6396C5.3894 13.0539 5.72519 13.3896 6.1394 13.3896H11.3894V18.6396C11.3894 19.0539 11.7252 19.3896 12.1394 19.3896C12.5536 19.3896 12.8894 19.0539 12.8894 18.6396V13.3896H18.1394C18.5536 13.3896 18.8894 13.0539 18.8894 12.6396C18.8894 12.2254 18.5536 11.8896 18.1394 11.8896H12.8894V6.63965Z" fill="#888888"/>
</svg>
