<svg width="25" height="25" viewBox="0 0 25 25" fill="none" xmlns="http://www.w3.org/2000/svg">
<path fill-rule="evenodd" clip-rule="evenodd" d="M22.1394 12.1528C22.1394 17.6756 17.6623 22.1528 12.1394 22.1528C6.61656 22.1528 2.1394 17.6756 2.1394 12.1528C2.1394 6.62995 6.61656 2.1528 12.1394 2.1528C17.6623 2.1528 22.1394 6.62995 22.1394 12.1528ZM12.1394 6.4028C12.5536 6.4028 12.8894 6.73859 12.8894 7.1528V9.1528C12.8894 9.56702 12.5536 9.9028 12.1394 9.9028C11.7252 9.9028 11.3894 9.56702 11.3894 9.1528V7.1528C11.3894 6.73859 11.7252 6.4028 12.1394 6.4028ZM9.58984 8.75215C9.92103 8.50339 9.98785 8.03324 9.73908 7.70205C9.49031 7.37085 9.02016 7.30404 8.68897 7.5528C7.29405 8.60057 6.3894 10.2712 6.3894 12.1528C6.3894 15.3285 8.96377 17.9028 12.1394 17.9028C15.315 17.9028 17.8894 15.3285 17.8894 12.1528C17.8894 10.2712 16.9848 8.60057 15.5898 7.5528C15.2586 7.30404 14.7885 7.37085 14.5397 7.70205C14.291 8.03324 14.3578 8.50339 14.689 8.75215C15.7229 9.5288 16.3894 10.7629 16.3894 12.1528C16.3894 14.5001 14.4866 16.4028 12.1394 16.4028C9.79219 16.4028 7.8894 14.5001 7.8894 12.1528C7.8894 10.7629 8.55587 9.5288 9.58984 8.75215Z" fill="#888888"/>
</svg>
