<svg width="25" height="25" viewBox="0 0 25 25" fill="none" xmlns="http://www.w3.org/2000/svg">
<path d="M22.2822 19.3855C23.0533 20.1566 23.0533 21.4074 22.2822 22.1785C21.5111 22.9496 20.2604 22.9496 19.4893 22.1785L17.6172 20.3054C18.7071 19.5504 19.6541 18.6034 20.4092 17.5134L22.2822 19.3855ZM11.3604 2.00659C16.469 2.00659 20.6104 6.14796 20.6104 11.2566C20.6104 16.3652 16.469 20.5066 11.3604 20.5066C6.25172 20.5066 2.11035 16.3652 2.11035 11.2566C2.11035 6.14796 6.25172 2.00659 11.3604 2.00659ZM11.3604 3.50659C7.08014 3.50659 3.61035 6.97639 3.61035 11.2566C3.61035 15.5368 7.08014 19.0066 11.3604 19.0066C15.6406 19.0066 19.1104 15.5368 19.1104 11.2566C19.1104 6.97639 15.6406 3.50659 11.3604 3.50659Z" fill="#888888"/>
</svg>
