<svg width="25" height="25" viewBox="0 0 25 25" fill="none" xmlns="http://www.w3.org/2000/svg">
<path fill-rule="evenodd" clip-rule="evenodd" d="M22.1394 6.41882C22.1394 8.35182 20.5724 9.91882 18.6394 9.91882C17.5382 9.91882 16.5557 9.41024 15.9141 8.61514C15.8916 8.6296 15.8681 8.643 15.8436 8.65524L9.10599 12.0241C9.08173 12.0362 9.05714 12.0469 9.03229 12.0562C9.10224 12.3321 9.1394 12.6211 9.1394 12.9188C9.1394 13.2165 9.10224 13.5055 9.03229 13.7815C9.05713 13.7908 9.08173 13.8015 9.10599 13.8136L15.8436 17.1824C15.8681 17.1947 15.8916 17.2081 15.9141 17.2225C16.5557 16.4274 17.5382 15.9188 18.6394 15.9188C20.5724 15.9188 22.1394 17.4858 22.1394 19.4188C22.1394 21.3518 20.5724 22.9188 18.6394 22.9188C16.7064 22.9188 15.1394 21.3518 15.1394 19.4188C15.1394 19.1211 15.1766 18.8321 15.2465 18.5562C15.2217 18.5469 15.1971 18.5362 15.1728 18.5241L8.43517 15.1552C8.41069 15.143 8.38718 15.1296 8.36466 15.1151C7.72307 15.9102 6.74063 16.4188 5.6394 16.4188C3.70641 16.4188 2.1394 14.8518 2.1394 12.9188C2.1394 10.9858 3.70641 9.41882 5.6394 9.41882C6.74063 9.41882 7.72307 9.92741 8.36466 10.7225C8.38718 10.7081 8.41069 10.6947 8.43517 10.6824L15.1728 7.3136C15.1971 7.30147 15.2217 7.29078 15.2465 7.28149C15.1766 7.00554 15.1394 6.71652 15.1394 6.41882C15.1394 4.48583 16.7064 2.91882 18.6394 2.91882C20.5724 2.91882 22.1394 4.48583 22.1394 6.41882Z" fill="#888888"/>
</svg>
