<svg width="25" height="25" viewBox="0 0 25 25" fill="none" xmlns="http://www.w3.org/2000/svg">
<path fill-rule="evenodd" clip-rule="evenodd" d="M6.698 2.91882C4.48886 2.91882 2.698 4.70968 2.698 6.91882V18.9188C2.698 21.128 4.48886 22.9188 6.698 22.9188H18.698C20.9071 22.9188 22.698 21.128 22.698 18.9188V6.91882C22.698 4.70968 20.9071 2.91882 18.698 2.91882H6.698ZM14.114 8.29487C13.7694 8.0651 13.3037 8.15823 13.074 8.50288C12.8442 8.84752 12.9373 9.31318 13.282 9.54294L14.5085 10.3606C13.153 10.6026 11.8601 11.0761 10.782 11.7949C9.10912 12.9101 7.948 14.628 7.948 16.9189C7.948 17.3331 8.28378 17.6689 8.698 17.6689C9.11221 17.6689 9.448 17.3331 9.448 16.9189C9.448 15.2098 10.2869 13.9277 11.614 13.0429C12.6103 12.3788 13.8772 11.9463 15.2322 11.7655L14.074 13.5029C13.8442 13.8475 13.9373 14.3132 14.282 14.5429C14.6266 14.7727 15.0923 14.6796 15.322 14.3349L17.322 11.3349C17.5518 10.9903 17.4587 10.5246 17.114 10.2949L14.114 8.29487Z" fill="#888888"/>
</svg>
