<svg width="25" height="25" viewBox="0 0 25 25" fill="none" xmlns="http://www.w3.org/2000/svg">
<path fill-rule="evenodd" clip-rule="evenodd" d="M12.1393 1.28577C10.0682 1.28577 8.38928 2.9647 8.38928 5.03577V6.03637C6.49436 6.069 4.87793 7.4296 4.52749 9.29861L3.02749 17.2986C2.56593 19.7603 4.45443 22.0358 6.95898 22.0358H17.3196C19.8241 22.0358 21.7126 19.7603 21.2511 17.2986L19.7511 9.29861C19.4006 7.4296 17.7842 6.069 15.8893 6.03637V5.03577C15.8893 2.9647 14.2103 1.28577 12.1393 1.28577ZM14.3893 6.03577V5.03577C14.3893 3.79313 13.3819 2.78577 12.1393 2.78577C10.8966 2.78577 9.88928 3.79313 9.88928 5.03577V6.03577H14.3893Z" fill="#888888"/>
</svg>
