<svg width="25" height="25" viewBox="0 0 25 25" fill="none" xmlns="http://www.w3.org/2000/svg">
<path fill-rule="evenodd" clip-rule="evenodd" d="M14.8187 2.48581L16.7312 5.03577L8.10625 5.03577L10.0187 2.48581C10.2672 2.15444 10.2001 1.68434 9.86872 1.43581C9.53735 1.18728 9.06725 1.25444 8.81872 1.58581L6.2289 5.03891C4.39933 5.11334 2.93266 6.50283 2.52917 8.28577H22.3082C21.9047 6.50284 20.4381 5.11336 18.6085 5.03891L16.0187 1.58581C15.7702 1.25444 15.3001 1.18728 14.9687 1.43581C14.6373 1.68434 14.5702 2.15444 14.8187 2.48581ZM22.3901 9.78577H2.44727C2.46063 9.90478 2.47876 10.0244 2.50183 10.1443L4.13674 18.6443C4.51657 20.619 6.13812 22.0358 8.01848 22.0358H16.8189C18.6993 22.0358 20.3208 20.619 20.7007 18.6443L22.3356 10.1443C22.3586 10.0243 22.3768 9.90478 22.3901 9.78577ZM7.6687 14.0358C7.6687 13.6216 8.00449 13.2858 8.4187 13.2858H16.4187C16.8329 13.2858 17.1687 13.6216 17.1687 14.0358C17.1687 14.45 16.8329 14.7858 16.4187 14.7858H8.4187C8.00449 14.7858 7.6687 14.45 7.6687 14.0358ZM9.4187 17.2858C9.00449 17.2858 8.6687 17.6216 8.6687 18.0358C8.6687 18.45 9.00449 18.7858 9.4187 18.7858H15.4187C15.8329 18.7858 16.1687 18.45 16.1687 18.0358C16.1687 17.6216 15.8329 17.2858 15.4187 17.2858H9.4187Z" fill="#888888"/>
</svg>
