<svg width="25" height="25" viewBox="0 0 25 25" fill="none" xmlns="http://www.w3.org/2000/svg">
<path d="M6.44808 6.18347C7.15262 6.22075 7.84573 6.52694 8.35726 7.10242L9.86214 8.79578C10.1372 9.10537 10.1092 9.57922 9.79964 9.85437C9.49005 10.1294 9.0162 10.1014 8.74105 9.79187L7.23617 8.09851C7.1793 8.03453 7.1172 7.97793 7.0516 7.92859V18.9188C7.0516 19.333 6.71581 19.6688 6.3016 19.6688C5.88738 19.6688 5.5516 19.333 5.5516 18.9188V7.92859C5.486 7.97793 5.42389 8.03454 5.36703 8.09851L3.86214 9.79187C3.58699 10.1014 3.11314 10.1294 2.80355 9.85437C2.49401 9.57922 2.46598 9.10537 2.74105 8.79578L4.24593 7.10242C4.75746 6.52694 5.45057 6.22075 6.15511 6.18347C6.20241 6.17412 6.25155 6.16882 6.3016 6.16882C6.35164 6.16882 6.40078 6.17412 6.44808 6.18347ZM15.3016 18.1688C15.7158 18.1688 16.0516 18.5046 16.0516 18.9188C16.0516 19.333 15.7158 19.6688 15.3016 19.6688H12.3016C11.8874 19.6688 11.5516 19.333 11.5516 18.9188C11.5516 18.5046 11.8874 18.1688 12.3016 18.1688H15.3016ZM18.3016 12.1688C18.7158 12.1688 19.0516 12.5046 19.0516 12.9188C19.0516 13.333 18.7158 13.6688 18.3016 13.6688H12.3016C11.8874 13.6688 11.5516 13.333 11.5516 12.9188C11.5516 12.5046 11.8874 12.1688 12.3016 12.1688H18.3016ZM21.3016 6.16882C21.7158 6.16882 22.0516 6.50461 22.0516 6.91882C22.0516 7.33304 21.7158 7.66882 21.3016 7.66882H12.3016C11.8874 7.66882 11.5516 7.33304 11.5516 6.91882C11.5516 6.50461 11.8874 6.16882 12.3016 6.16882H21.3016Z" fill="#888888"/>
</svg>
