<svg width="25" height="25" viewBox="0 0 25 25" fill="none" xmlns="http://www.w3.org/2000/svg">
<path d="M6.58089 6.16882C6.99511 6.16882 7.33089 6.50461 7.33089 6.91882V17.9091C7.39649 17.8597 7.45859 17.8031 7.51546 17.7391L9.02035 16.0458C9.2955 15.7362 9.76935 15.7082 10.0789 15.9833C10.3885 16.2584 10.4165 16.7323 10.1414 17.0419L8.63656 18.7352C8.12502 19.3107 7.43192 19.6169 6.72738 19.6542C6.68008 19.6635 6.63093 19.6688 6.58089 19.6688C6.53085 19.6688 6.48171 19.6635 6.43441 19.6542C5.72987 19.6169 5.03676 19.3107 4.52523 18.7352L3.02035 17.0419C2.74528 16.7323 2.7733 16.2584 3.08285 15.9833C3.39244 15.7082 3.86629 15.7362 4.14144 16.0458L5.64632 17.7391C5.70319 17.8031 5.7653 17.8597 5.83089 17.9091V6.91882C5.83089 6.50461 6.16668 6.16882 6.58089 6.16882ZM15.5809 18.1688C15.9951 18.1688 16.3309 18.5046 16.3309 18.9188C16.3309 19.333 15.9951 19.6688 15.5809 19.6688H12.5809C12.1667 19.6688 11.8309 19.333 11.8309 18.9188C11.8309 18.5046 12.1667 18.1688 12.5809 18.1688H15.5809ZM18.5809 12.1688C18.9951 12.1688 19.3309 12.5046 19.3309 12.9188C19.3309 13.333 18.9951 13.6688 18.5809 13.6688H12.5809C12.1667 13.6688 11.8309 13.333 11.8309 12.9188C11.8309 12.5046 12.1667 12.1688 12.5809 12.1688H18.5809ZM21.5809 6.16882C21.9951 6.16882 22.3309 6.50461 22.3309 6.91882C22.3309 7.33304 21.9951 7.66882 21.5809 7.66882H12.5809C12.1667 7.66882 11.8309 7.33304 11.8309 6.91882C11.8309 6.50461 12.1667 6.16882 12.5809 6.16882H21.5809Z" fill="#888888"/>
</svg>
