<svg width="25" height="25" viewBox="0 0 25 25" fill="none" xmlns="http://www.w3.org/2000/svg">
<path d="M5.246 4.93984C6.33992 3.70918 8.2634 3.70918 9.35732 4.93984L10.8622 6.6332C11.1374 6.94278 11.1093 7.4166 10.7997 7.6918C10.4902 7.96692 10.0163 7.93965 9.74111 7.63027L8.23623 5.93691C8.17942 5.873 8.11718 5.8163 8.05166 5.76699V19.7465C8.11723 19.6972 8.17938 19.6405 8.23623 19.5766L9.74111 17.8832C10.0162 17.5738 10.4901 17.5458 10.7997 17.8207C11.1093 18.0959 11.1374 18.5707 10.8622 18.8803L9.35732 20.5736C8.26341 21.8042 6.33991 21.8042 5.246 20.5736L3.74111 18.8803C3.46592 18.5707 3.49403 18.0959 3.80361 17.8207C4.11318 17.5458 4.58709 17.5738 4.86221 17.8832L6.36709 19.5766C6.42394 19.6405 6.48609 19.6972 6.55166 19.7465V5.76699C6.48614 5.8163 6.4239 5.87301 6.36709 5.93691L4.86221 7.63027C4.58699 7.93964 4.11312 7.96692 3.80361 7.6918C3.49408 7.4166 3.46594 6.94277 3.74111 6.6332L5.246 4.93984ZM17.3017 14.7563C18.9584 14.7563 20.3015 16.0995 20.3017 17.7563C20.3017 19.4131 18.9585 20.7563 17.3017 20.7563C15.6448 20.7563 14.3017 19.4131 14.3017 17.7563C14.3018 16.0995 15.6449 14.7563 17.3017 14.7563ZM17.3017 4.75625C18.9584 4.75625 20.3015 6.09951 20.3017 7.75625C20.3017 9.41311 18.9585 10.7563 17.3017 10.7563C15.6448 10.7563 14.3017 9.41311 14.3017 7.75625C14.3018 6.09951 15.6449 4.75625 17.3017 4.75625Z" fill="#888888"/>
</svg>
