<svg width="25" height="25" viewBox="0 0 25 25" fill="none" xmlns="http://www.w3.org/2000/svg">
<path d="M16.9275 8.79285C17.1514 8.4445 17.6152 8.34348 17.9636 8.56726C18.312 8.79119 18.413 9.25499 18.1892 9.60339L14.0251 16.0809C14.0769 16.6125 13.8318 17.1525 13.3494 17.454L9.323 19.5956C9.08219 19.7461 8.82174 19.8386 8.55835 19.8778V22.1981H2.55835V16.1981C2.55835 14.5413 3.9015 13.1981 5.55835 13.1981C7.2152 13.1981 8.55835 14.5413 8.55835 16.1981V16.6981L11.8015 14.9979C12.1848 14.7542 12.6379 14.7127 13.0369 14.8446L16.9275 8.79285ZM20.5583 1.44812C22.0771 1.44812 23.3083 2.67934 23.3083 4.19812V10.1981C23.3083 11.7169 22.0771 12.9481 20.5583 12.9481H19.5583C19.1441 12.9481 18.8083 12.6123 18.8083 12.1981C18.8083 11.7839 19.1441 11.4481 19.5583 11.4481H20.5583C21.2487 11.4481 21.8083 10.8885 21.8083 10.1981V4.19812C21.8083 3.50776 21.2487 2.94812 20.5583 2.94812H8.55835C7.86799 2.94812 7.30835 3.50776 7.30835 4.19812V5.69812C7.30835 6.11233 6.97256 6.44812 6.55835 6.44812C6.14414 6.44812 5.80835 6.11233 5.80835 5.69812V4.19812C5.80835 2.67934 7.03957 1.44812 8.55835 1.44812H20.5583ZM5.55835 8.19812C6.66292 8.19812 7.55835 9.09355 7.55835 10.1981C7.55835 11.3027 6.66292 12.1981 5.55835 12.1981C4.45378 12.1981 3.55835 11.3027 3.55835 10.1981C3.55835 9.09355 4.45378 8.19812 5.55835 8.19812ZM14.5583 8.44812C14.9726 8.44812 15.3083 8.78391 15.3083 9.19812C15.3083 9.61233 14.9726 9.94812 14.5583 9.94812H10.5583C10.1441 9.94812 9.80835 9.61233 9.80835 9.19812C9.80835 8.78391 10.1441 8.44812 10.5583 8.44812H14.5583ZM18.5583 5.44812C18.9726 5.44812 19.3083 5.78391 19.3083 6.19812C19.3083 6.61233 18.9726 6.94812 18.5583 6.94812H10.5583C10.1441 6.94812 9.80835 6.61233 9.80835 6.19812C9.80835 5.78391 10.1441 5.44812 10.5583 5.44812H18.5583Z" fill="#888888"/>
</svg>
