<svg width="25" height="25" viewBox="0 0 25 25" fill="none" xmlns="http://www.w3.org/2000/svg">
<path fill-rule="evenodd" clip-rule="evenodd" d="M10.0447 5.60284C10.6078 4.62946 11.6584 3.97729 12.8604 3.97729C14.6553 3.97729 16.1104 5.43237 16.1104 7.22729V8.47729H8.86035C6.65121 8.47729 4.86035 10.2682 4.86035 12.4773V18.4773C4.86035 20.6864 6.65121 22.4773 8.86035 22.4773H16.8604C19.0695 22.4773 20.8604 20.6864 20.8604 18.4773V12.4773C20.8604 10.5245 19.461 8.89857 17.6104 8.5475V7.22729C17.6104 4.60394 15.4837 2.47729 12.8604 2.47729C11.1013 2.47729 9.56647 3.43393 8.74631 4.85175C8.5389 5.2103 8.66142 5.66909 9.01997 5.8765C9.37851 6.08391 9.83731 5.96139 10.0447 5.60284ZM12.8604 13.7273C13.2746 13.7273 13.6104 14.0631 13.6104 14.4773V16.4773C13.6104 16.8915 13.2746 17.2273 12.8604 17.2273C12.4461 17.2273 12.1104 16.8915 12.1104 16.4773V14.4773C12.1104 14.0631 12.4461 13.7273 12.8604 13.7273Z" fill="#888888"/>
</svg>
