<svg width="25" height="25" viewBox="0 0 25 25" fill="none" xmlns="http://www.w3.org/2000/svg">
<path fill-rule="evenodd" clip-rule="evenodd" d="M14.5394 5.51416C14.7879 5.18278 15.258 5.11563 15.5894 5.36416L19.5894 8.36416C19.7783 8.5058 19.8894 8.72809 19.8894 8.96416C19.8894 9.20022 19.7783 9.42251 19.5894 9.56416L15.5894 12.5642C15.258 12.8127 14.7879 12.7455 14.5394 12.4142C14.2909 12.0828 14.358 11.6127 14.6894 11.3642L16.8894 9.71416H9.1394C7.34448 9.71416 5.8894 11.1692 5.8894 12.9642C5.8894 14.7591 7.34448 16.2142 9.1394 16.2142H19.1394C19.5536 16.2142 19.8894 16.5499 19.8894 16.9642C19.8894 17.3784 19.5536 17.7142 19.1394 17.7142H9.1394C6.51605 17.7142 4.3894 15.5875 4.3894 12.9642C4.3894 10.3408 6.51605 8.21416 9.1394 8.21416H16.8894L14.6894 6.56416C14.358 6.31563 14.2909 5.84553 14.5394 5.51416Z" fill="#888888"/>
</svg>
