<svg width="25" height="25" viewBox="0 0 25 25" fill="none" xmlns="http://www.w3.org/2000/svg">
<path d="M5.88843 17.4944C5.59553 17.2015 5.59553 16.7268 5.88843 16.4339L8.88843 13.4339C9.18132 13.141 9.65608 13.141 9.94897 13.4339C10.2419 13.7268 10.2419 14.2015 9.94897 14.4944L8.22925 16.2142H18.4187C18.8329 16.2142 19.1687 16.55 19.1687 16.9642C19.1687 17.3784 18.8329 17.7142 18.4187 17.7142H8.22925L9.94897 19.4339C10.2419 19.7268 10.2419 20.2015 9.94897 20.4944C9.65608 20.7873 9.18132 20.7873 8.88843 20.4944L5.88843 17.4944ZM5.6687 8.96417C5.6687 8.54995 6.00449 8.21417 6.4187 8.21417L16.6082 8.21417L14.8884 6.49444C14.5955 6.20155 14.5955 5.72679 14.8884 5.4339C15.1813 5.141 15.6561 5.141 15.949 5.4339L18.949 8.4339C19.2419 8.72679 19.2419 9.20155 18.949 9.49444L15.949 12.4944C15.6561 12.7873 15.1813 12.7873 14.8884 12.4944C14.5955 12.2015 14.5955 11.7268 14.8884 11.4339L16.6082 9.71417L6.4187 9.71417C6.00449 9.71417 5.6687 9.37838 5.6687 8.96417Z" fill="#888888"/>
</svg>
