<svg width="25" height="25" viewBox="0 0 25 25" fill="none" xmlns="http://www.w3.org/2000/svg">
<path d="M12.698 2.24341C18.2208 2.24341 22.698 6.72056 22.698 12.2434C22.698 17.7663 18.2208 22.2434 12.698 22.2434C7.17515 22.2434 2.698 17.7663 2.698 12.2434C2.698 6.72056 7.17515 2.24341 12.698 2.24341ZM14.2283 8.71313C13.9354 8.42024 13.4606 8.42024 13.1677 8.71313C12.8748 9.00603 12.8748 9.48079 13.1677 9.77368L14.8875 11.4934H8.698C8.28378 11.4934 7.948 11.8292 7.948 12.2434C7.948 12.6576 8.28378 12.9934 8.698 12.9934H14.8875L13.1677 14.7131C12.8748 15.006 12.8748 15.4808 13.1677 15.7737C13.4606 16.0666 13.9354 16.0666 14.2283 15.7737L17.2283 12.7737C17.5212 12.4808 17.5212 12.006 17.2283 11.7131L14.2283 8.71313Z" fill="#888888"/>
</svg>
