<svg width="25" height="25" viewBox="0 0 25 25" fill="none" xmlns="http://www.w3.org/2000/svg">
<path d="M12.5811 2.52271C18.1039 2.52271 22.5811 6.99986 22.5811 12.5227C22.5811 18.0456 18.1039 22.5227 12.5811 22.5227C7.05821 22.5227 2.58105 18.0456 2.58105 12.5227C2.58105 6.99986 7.05821 2.52271 12.5811 2.52271ZM13.1113 7.99243C12.8184 7.69954 12.3437 7.69954 12.0508 7.99243L9.05078 10.9924C8.75789 11.2853 8.75789 11.7601 9.05078 12.053C9.34367 12.3459 9.81843 12.3459 10.1113 12.053L11.8311 10.3333V16.5227C11.8311 16.9369 12.1668 17.2727 12.5811 17.2727C12.9953 17.2727 13.3311 16.9369 13.3311 16.5227V10.3333L15.0508 12.053C15.3437 12.3459 15.8184 12.3459 16.1113 12.053C16.4042 11.7601 16.4042 11.2853 16.1113 10.9924L13.1113 7.99243Z" fill="#888888"/>
</svg>
