<svg width="25" height="25" viewBox="0 0 25 25" fill="none" xmlns="http://www.w3.org/2000/svg">
<path fill-rule="evenodd" clip-rule="evenodd" d="M10.4604 5.51416C10.2118 5.18278 9.74172 5.11563 9.41035 5.36416L5.41035 8.36416C5.2215 8.5058 5.11035 8.72809 5.11035 8.96416C5.11035 9.20022 5.2215 9.42251 5.41035 9.56416L9.41035 12.5642C9.74172 12.8127 10.2118 12.7455 10.4604 12.4142C10.7089 12.0828 10.6417 11.6127 10.3104 11.3642L8.11035 9.71416H15.8604C17.6553 9.71416 19.1104 11.1692 19.1104 12.9642C19.1104 14.7591 17.6553 16.2142 15.8604 16.2142H5.86035C5.44614 16.2142 5.11035 16.5499 5.11035 16.9642C5.11035 17.3784 5.44614 17.7142 5.86035 17.7142H15.8604C18.4837 17.7142 20.6104 15.5875 20.6104 12.9642C20.6104 10.3408 18.4837 8.21416 15.8604 8.21416H8.11035L10.3104 6.56416C10.6417 6.31563 10.7089 5.84553 10.4604 5.51416Z" fill="#888888"/>
</svg>
