<svg width="25" height="25" viewBox="0 0 25 25" fill="none" xmlns="http://www.w3.org/2000/svg">
<path d="M12.3018 2.52271C17.8246 2.52271 22.3018 6.99986 22.3018 12.5227C22.3018 18.0456 17.8246 22.5227 12.3018 22.5227C6.77891 22.5227 2.30176 18.0456 2.30176 12.5227C2.30176 6.99986 6.77891 2.52271 12.3018 2.52271ZM12.3018 7.77271C11.8875 7.77271 11.5518 8.10849 11.5518 8.52271V14.7122L9.83203 12.9924C9.53914 12.6995 9.06438 12.6995 8.77148 12.9924C8.47859 13.2853 8.47859 13.7601 8.77148 14.053L11.7715 17.053C12.0644 17.3459 12.5391 17.3459 12.832 17.053L15.832 14.053C16.1249 13.7601 16.1249 13.2853 15.832 12.9924C15.5391 12.6995 15.0644 12.6995 14.7715 12.9924L13.0518 14.7122V8.52271C13.0518 8.10849 12.716 7.77271 12.3018 7.77271Z" fill="#888888"/>
</svg>
