<svg width="25" height="25" viewBox="0 0 25 25" fill="none" xmlns="http://www.w3.org/2000/svg">
<path d="M12.1394 3.24341C17.11 3.24341 21.1394 7.27285 21.1394 12.2434C21.1394 17.214 17.11 21.2434 12.1394 21.2434C7.16884 21.2434 3.1394 17.214 3.1394 12.2434C3.1394 7.27285 7.16884 3.24341 12.1394 3.24341ZM13.1394 7.49341C12.7252 7.49341 12.3894 7.82919 12.3894 8.24341C12.3894 8.65762 12.7252 8.99341 13.1394 8.99341H14.3289L8.8894 14.4329V13.2434C8.8894 12.8292 8.55362 12.4934 8.1394 12.4934C7.72519 12.4934 7.3894 12.8292 7.3894 13.2434V16.2434C7.3894 16.6576 7.72519 16.9934 8.1394 16.9934H11.1394C11.5536 16.9934 11.8894 16.6576 11.8894 16.2434C11.8894 15.8292 11.5536 15.4934 11.1394 15.4934H9.94995L15.3894 10.054V11.2434C15.3894 11.6576 15.7252 11.9934 16.1394 11.9934C16.5536 11.9934 16.8894 11.6576 16.8894 11.2434V8.24341C16.8894 7.82919 16.5536 7.49341 16.1394 7.49341H13.1394Z" fill="#888888"/>
</svg>
