<svg width="25" height="25" viewBox="0 0 25 25" fill="none" xmlns="http://www.w3.org/2000/svg">
<path d="M18.5811 2.24341C20.7902 2.24341 22.5811 4.03427 22.5811 6.24341V18.2434C22.5811 20.4525 20.7902 22.2434 18.5811 22.2434H6.58105C4.37192 22.2434 2.58105 20.4525 2.58105 18.2434V6.24341C2.58105 4.03427 4.37192 2.24341 6.58105 2.24341H18.5811ZM7.58105 12.4934C7.16684 12.4934 6.83105 12.8292 6.83105 13.2434C6.83105 13.6576 7.16684 13.9934 7.58105 13.9934H9.77051L7.05078 16.7131C6.75789 17.006 6.75789 17.4808 7.05078 17.7737C7.34367 18.0666 7.81844 18.0666 8.11133 17.7737L10.8311 15.054V17.2434C10.8311 17.6576 11.1668 17.9934 11.5811 17.9934C11.9953 17.9934 12.3311 17.6576 12.3311 17.2434V13.2434C12.3311 12.8292 11.9953 12.4934 11.5811 12.4934H7.58105ZM18.1113 6.71313C17.8184 6.42024 17.3437 6.42024 17.0508 6.71313L14.3311 9.43286V7.24341C14.3311 6.82919 13.9953 6.49341 13.5811 6.49341C13.1668 6.49341 12.8311 6.82919 12.8311 7.24341V11.2434C12.8311 11.6576 13.1668 11.9934 13.5811 11.9934H17.5811C17.9953 11.9934 18.3311 11.6576 18.3311 11.2434C18.3311 10.8292 17.9953 10.4934 17.5811 10.4934H15.3916L18.1113 7.77368C18.4042 7.48079 18.4042 7.00603 18.1113 6.71313Z" fill="#888888"/>
</svg>
