<svg width="25" height="25" viewBox="0 0 25 25" fill="none" xmlns="http://www.w3.org/2000/svg">
<path fill-rule="evenodd" clip-rule="evenodd" d="M20.8321 3.71308C21.125 4.00597 21.125 4.48085 20.8321 4.77374L15.1124 10.4934H18.3018C18.716 10.4934 19.0518 10.8292 19.0518 11.2434C19.0518 11.6576 18.716 11.9934 18.3018 11.9934H13.3018C12.8875 11.9934 12.5518 11.6576 12.5518 11.2434V6.24341C12.5518 5.82919 12.8875 5.49341 13.3018 5.49341C13.716 5.49341 14.0518 5.82919 14.0518 6.24341V9.43275L19.7714 3.71308C20.0643 3.42018 20.5392 3.42018 20.8321 3.71308ZM6.30176 13.9934C5.88754 13.9934 5.55176 13.6576 5.55176 13.2434C5.55176 12.8292 5.88754 12.4934 6.30176 12.4934H11.3018C11.716 12.4934 12.0518 12.8292 12.0518 13.2434V18.2434C12.0518 18.6576 11.716 18.9934 11.3018 18.9934C10.8875 18.9934 10.5518 18.6576 10.5518 18.2434V15.0541L4.83209 20.7737C4.53919 21.0666 4.06432 21.0666 3.77143 20.7737C3.47853 20.4808 3.47853 20.006 3.77143 19.7131L9.4911 13.9934H6.30176Z" fill="#888888"/>
</svg>
